<svg id="圖層_1" data-name="圖層 1" xmlns="http://www.w3.org/2000/svg" viewBox="0 0 348 590.6"><defs><style>.cls-1{fill:#d6d0bf;}.cls-2{fill:none;}.cls-15,.cls-2{stroke:#000;stroke-miterlimit:10;}.cls-3{fill:#e4e6db;}.cls-4{fill:#090100;}.cls-5{fill:#151328;}.cls-6{fill:#16192e;}.cls-7{fill:#0e1326;}.cls-8{fill:#0e1021;}.cls-9{fill:#242738;}.cls-10{fill:#0f1222;}.cls-11{fill:#47455a;}.cls-12{fill:#0d0b20;}.cls-13{fill:#141227;}.cls-14{fill:#464252;}.cls-15{fill:#fff;stroke-width:4px;}</style></defs><title>about_me</title><path class="cls-1" d="M405.75,73.92l-2.31,3.4,6.16,5,4.17-1,1.61,2.32v6.18l-1.92,3.53-.77,2.21v8.39l5,3.53v9.08h-5l-5.77,3.28v4.42l-2.69,1.32-2.31.44L400,129.56l2.72,5.65,1.51,2.3v3.09l-1.92,5.3-3.85,1.32-5-.44-2.69,1.32-6.16,1.77-6.16,4.42,2.69,11.48-4.62,3.09,1.15,8v3.89l6.93,7.51-1.92,2.21s-4.62,0-6.93-2.21-4.62,2.21-4.62,2.21l-5.48,2.6-4.91-.39s-2.69.88-4.23,0a46,46,0,0,0-5.39-2.21l-3.85-4h-5l-3.08.44-2.69.44v5.3H322.57V190.5l-3-5.3h-3c-.51,0-3.59,3.68-3.59,3.68l-3,1.62s-2.69,0-3.59-1.32a4.13,4.13,0,0,0-2.82-1.47l-1.8-1.91-.77-2.21v-4.27l1.8-8.83-1.54-4.12s-4-1.62-5.39-2.06-3.46,1.32-3.46,1.32L289,171.51l-2.18,4.27-6.54,2.5-.9-4.71v-5.3l.9-5.45.9-4,2.31-2.65V144.72l-2.18-2.21-3.21-1-2.57-2.5s0-4,.26-5.74,1.54,0,1.54,0-.9-5.15-1.15-5.61-1.41-.43-1.8-.13-5.52,0-5.52,0l-1.54-4.27,2.05-3.39,3.46-6.51-1.54-2.7-2.57-.07s-4.88.15-5.52,0-3.34-2.8-3.34-2.8,3.85-6.62,4.49-7.21a10.3,10.3,0,0,0,1.41-2.8l.9-2.5-6.16-1.91,4.11-3.68,4-4.71h-6.8l4.46-3.67,10.45-4,4.73-3.4s6.19,39.37,11.95,42.65,33.85,30.66,41.17,29.78,34.64.88,41.19-18.55l14.24-15,7.31-11L400,88.49V71.71l6.16-2.21Z" transform="translate(-168 -6)"/><path class="cls-2" d="M249.56,122.12" transform="translate(-168 -6)"/><path class="cls-3" d="M257.47,167.46l0,0a.22.22,0,0,1-.07-.11,52.52,52.52,0,0,1-3-10,31.5,31.5,0,0,1-.43-3.85c-2.69-3.66-5.92-9.15-5.5-14.14a1.41,1.41,0,0,0,0-.52,1.16,1.16,0,0,0-.23-.38,21.33,21.33,0,0,1-2-2.76c-1.43-2.51-1.18-4.72-.88-7.56,0-.43.09-.86.18-1.28a5.79,5.79,0,0,1,4.92-4.48,10.27,10.27,0,0,1-1.22-1.67,7.66,7.66,0,0,1-.92-1.78,6.16,6.16,0,0,1,.06-4.2c.7-1.95,2.09-4.18,3.82-5.11,2.21-1.18,5.17.29,7.1,1.5.53-1.2,2-1.6,3.05-1.88a8.2,8.2,0,0,1,4.26.17,6.74,6.74,0,0,1,4.31,2.81c.34.53,2.56,5.58,2.13,5.75,3.14-1.25,5.7.91,7.34,3.74a26.26,26.26,0,0,1,2.07,4.69c.59,1.72.68,3.39,1.14,5.11.53,2,1.7,3.78,2.32,5.74a29.15,29.15,0,0,1,1.42,7.73s-1.62,9.51-.2,10.83c.13.12-1.73,1-1.84,1.09-1.73.78-3.49,1.48-5.24,2.17-4.71,1.86-9.45,3.62-14.2,5.36-2.71,1.07-5.47,2-8.21,3A.25.25,0,0,1,257.47,167.46Z" transform="translate(-168 -6)"/><path class="cls-4" d="M250.35,124.68a8.87,8.87,0,0,0-3.09,4.25,6.93,6.93,0,0,0-.28,3.32,11.49,11.49,0,0,0,.75,2.39,3.36,3.36,0,0,0,2.65,2.17,3.83,3.83,0,0,0,4.39-2.18,8.12,8.12,0,0,0,.23-5.05c-.46-1.79-1.48-5.14-3.53-5.21A2.09,2.09,0,0,0,250.35,124.68Z" transform="translate(-168 -6)"/><path class="cls-4" d="M253.14,113.88a6.41,6.41,0,0,0-1.63,2.15,5.18,5.18,0,0,0,.93,5.45c1.92,2.44,4.71,3.9,6.8.7a4.83,4.83,0,0,0,.5-3.39,20.51,20.51,0,0,0-.64-3.78,3.74,3.74,0,0,0-1.47-2c-.76-.46-1.6-.15-2.42-.08A3.85,3.85,0,0,0,253.14,113.88Z" transform="translate(-168 -6)"/><path class="cls-4" d="M261.71,112.66a1.78,1.78,0,0,1,.4-.35,5.08,5.08,0,0,1,3.8-.52c1.72.48,3,2.24,3.66,4a6.26,6.26,0,0,1,.42,3.46c-.2,1-1.08,2.57-2.16,2.55a1.36,1.36,0,0,1-.44-.1c-2.95-1.06-5.2-4.22-5.94-7.56a2.14,2.14,0,0,1-.06-.74A1.44,1.44,0,0,1,261.71,112.66Z" transform="translate(-168 -6)"/><path class="cls-4" d="M273.22,125.42l-.06-.25a7,7,0,0,1-.08-4c.91-2,3.68-.54,4.9.21a3,3,0,0,1,.49.36,3.29,3.29,0,0,1,.55.74,11.48,11.48,0,0,1,1.62,4.43,5.56,5.56,0,0,1-.12,2c-.12.45-.49,1.59-.93,1.76-1.64.65-3.63-.48-4.66-1.8A9.69,9.69,0,0,1,273.22,125.42Z" transform="translate(-168 -6)"/><path class="cls-4" d="M260.26,137.18v0a1.27,1.27,0,0,0,0-.67c0-.26,0-.53-.07-.79a5.94,5.94,0,0,1,.08-1.56,5.83,5.83,0,0,1,1.29-2.65A8,8,0,0,1,266.5,129a5.32,5.32,0,0,1,3.18.31,4.53,4.53,0,0,1,2.23,3,3.72,3.72,0,0,0,.49,1.39,2.41,2.41,0,0,0,1.38.69,7.19,7.19,0,0,1,4.22,2.82,5.22,5.22,0,0,1,.32,5.3,6.45,6.45,0,0,1-3,2.33,44.31,44.31,0,0,1-14.52,4c-1.33.14-2.8.18-3.83-.76-1.27-1.16-1.59-3.77-1-5.42a11.56,11.56,0,0,1,1.34-2.61,11.26,11.26,0,0,1,1.93-2.12c.25-.22.52-.4.79-.59A.66.66,0,0,0,260.26,137.18Z" transform="translate(-168 -6)"/><path class="cls-2" d="M425.66,120.17" transform="translate(-168 -6)"/><path class="cls-3" d="M425.64,162.87l0,0a.21.21,0,0,0,0-.11,47.32,47.32,0,0,0,1.18-9.63,27.81,27.81,0,0,0-.23-3.58c2-3.85,4.14-9.44,2.9-13.9a1.24,1.24,0,0,1-.07-.48,1.08,1.08,0,0,1,.16-.39,20.3,20.3,0,0,0,1.49-2.89c1-2.56.34-4.51-.42-7a11.5,11.5,0,0,0-.38-1.13,5.42,5.42,0,0,0-5.44-3.13,9.76,9.76,0,0,0,.89-1.75,7.1,7.1,0,0,0,.58-1.8,5.41,5.41,0,0,0-.76-3.8,8.8,8.8,0,0,0-4.5-3.91c-2.3-.65-4.88,1.26-6.53,2.72-.71-1-2.18-1.07-3.23-1.12a8.43,8.43,0,0,0-4,1,6.75,6.75,0,0,0-3.65,3.38c-.24.55-1.51,5.56-1.08,5.63-3.21-.53-5.29,1.92-6.39,4.8a24.1,24.1,0,0,0-1.19,4.66c-.28,1.67-.08,3.21-.24,4.86-.18,1.88-1,3.76-1.26,5.66a25.92,25.92,0,0,0-.07,7.29s3.13,8.33,2,9.8c-.1.13,1.82.61,1.94.64,1.78.38,3.58.68,5.37,1,4.81.79,9.63,1.48,14.45,2.15,2.77.45,5.56.77,8.34,1.14A.25.25,0,0,0,425.64,162.87Z" transform="translate(-168 -6)"/><path class="cls-4" d="M425.33,122.64A8,8,0,0,1,429,125.9a6.06,6.06,0,0,1,.82,3,10.37,10.37,0,0,1-.32,2.32,3.31,3.31,0,0,1-2.17,2.47,3.73,3.73,0,0,1-4.56-1.14,7.12,7.12,0,0,1-1.06-4.55c.15-1.72.56-5,2.51-5.41A2.1,2.1,0,0,1,425.33,122.64Z" transform="translate(-168 -6)"/><path class="cls-4" d="M420.87,113.36a5.82,5.82,0,0,1,1.92,1.64,4.63,4.63,0,0,1,0,5.13c-1.43,2.58-3.85,4.45-6.38,1.94a4.23,4.23,0,0,1-1-3,18.21,18.21,0,0,1,0-3.56,3.56,3.56,0,0,1,1.07-2.11,3.84,3.84,0,0,1,2.29-.53A3.78,3.78,0,0,1,420.87,113.36Z" transform="translate(-168 -6)"/><path class="cls-4" d="M412.48,113.9a1.67,1.67,0,0,0-.44-.25,5.15,5.15,0,0,0-3.71.26c-1.56.76-2.45,2.61-2.83,4.32a5.54,5.54,0,0,0,.17,3.22c.37.9,1.46,2.13,2.49,1.91a1.4,1.4,0,0,0,.4-.18c2.64-1.53,4.26-4.83,4.42-8a1.89,1.89,0,0,0-.06-.68A1.27,1.27,0,0,0,412.48,113.9Z" transform="translate(-168 -6)"/><path class="cls-4" d="M403.61,127.69q0-.12,0-.24a6.19,6.19,0,0,0-.59-3.66c-1.21-1.69-3.6.22-4.64,1.13a2.94,2.94,0,0,0-.41.42,3.13,3.13,0,0,0-.4.78,10.44,10.44,0,0,0-.81,4.33,4.86,4.86,0,0,0,.44,1.8c.19.38.73,1.35,1.18,1.42,1.67.27,3.38-1.13,4.15-2.53A9,9,0,0,0,403.61,127.69Z" transform="translate(-168 -6)"/><path class="cls-4" d="M417.95,135.9v0a1.11,1.11,0,0,1-.12-.6c0-.24,0-.49-.07-.73a4.94,4.94,0,0,0-2-3.56,7.81,7.81,0,0,0-5.1-1.31,5.47,5.47,0,0,0-3,.89,4.31,4.31,0,0,0-1.64,3.12,3.37,3.37,0,0,1-.23,1.36,2.45,2.45,0,0,1-1.21.89,7.19,7.19,0,0,0-3.56,3.37,4.62,4.62,0,0,0,.57,4.88,6.09,6.09,0,0,0,3.21,1.55,44.46,44.46,0,0,0,14.53.88,4.87,4.87,0,0,0,3.53-1.42,5,5,0,0,0,0-5.12,10,10,0,0,0-3.91-3.67c-.27-.15-.57-.26-.85-.39A.62.62,0,0,1,417.95,135.9Z" transform="translate(-168 -6)"/><ellipse class="cls-5" cx="176.03" cy="77.83" rx="56.88" ry="51.05"/><path class="cls-2" d="M433.38,62.75c-.2.07-.46-.06-.75-.34A5,5,0,0,1,433.38,62.75Z" transform="translate(-168 -6)"/><path class="cls-5" d="M350.46,152.23c8.48-1.07,19.32-3.94,21-11.64,0,0,23.67-23.18,24.54-32.46,0,0,8.08-26.83,0-34.44,0,0,2.89-12.58,9.81-16.56Z" transform="translate(-168 -6)"/><path class="cls-5" d="M283.09,62.81c-.48.33-1.94,8.24-1.94,8.24s-.07.34-.18,1c-1,5.39-5.1,32.22,6.82,41.44,0,0,5.77,11.92,17.61,19.21,0,0,16.17,22.52,34.64,20.2,0,0,1.56,0,4-.07Z" transform="translate(-168 -6)"/><path class="cls-2" d="M317.29,23.5S313.21,39,309.36,43.67c0,0-.76,1-1.42,1.72l.14-.49c.2-.74.4-1.5.58-2.28a85.88,85.88,0,0,0,1.64-9s-4.33-20.53-.87-20.86C309.44,12.75,322.66,9.67,317.29,23.5Z" transform="translate(-168 -6)"/><path class="cls-5" d="M307,46.22a3.09,3.09,0,0,0,.91-.83C301.9,66.91,289.52,73,289.52,73c-2.88.5-26.27-24.84-26.27-24.84-8.37-15.57,1.44-26.83,1.44-26.83,3.46-5,43.3-14.24,43.3-14.24C328.78.83,321.56,23,321.56,23c1.15,0,35.22-4.31,39,2,0,0,6-18.88,38.51-7.28,0,0,28.74,3.31,40.87,45.37,0,0,1.44,9.27-7.51,1.66,0,0-19.34,5.3-26.56-7.62,0,0-5.6,9.74-5.87,17.57Z" transform="translate(-168 -6)"/><path class="cls-2" d="M342.64,136.55s-8.84-1.32-10-4.64c0,0-12.89-12.81,6.16-19,0,0,17.9-2.14,18.09,8.42C356.89,121.35,359.17,135.23,342.64,136.55Z" transform="translate(-168 -6)"/><path class="cls-3" d="M362.42,105A112.49,112.49,0,0,0,357,91.26c-4.95-10.53-11.31-22.6-7.05-34.82,1.83-5.23,4.13-10.78,2.56-16.58-1.16-4.32-5.56-9.12-9.87-8.85C333,34,333.45,44.37,335.17,53.66c1.75,9.51,6.12,20.74.5,29.56-2.17,3.4-5.09,6-7.76,8.94-7.48,8.11-7.69,18.72-10.38,29.45-2.5,10-.92,19.91,6.85,26.2,7.65,3.59,14.21,4.9,19.66,5,1.76-.08,4-.24,6.4-.54h0c6.79-1.26,15.37-5,17.2-13.44,1.5-7-.38-14.74-1.92-21.48C364.76,113.06,363.69,109,362.42,105Zm-19.78,31.52s-8.84-1.32-10-4.64c0,0-12.89-12.81,6.16-19,0,0,17.9-2.14,18.09,8.42C356.89,121.35,359.17,135.23,342.64,136.55Z" transform="translate(-168 -6)"/><path class="cls-6" d="M342.64,136.55s-8.84-1.32-10-4.64c0,0-12.89-12.81,6.16-19,0,0,17.9-2.14,18.09,8.42C356.89,121.35,359.17,135.23,342.64,136.55Z" transform="translate(-168 -6)"/><path class="cls-7" d="M321.66,49.53c-.51.26-1,.56-1.43.74a21,21,0,0,0-6,3.22c-1.29,1.13-2.36,2.69-4,3.3s-3.39.28-5,1.66a7.05,7.05,0,0,0-2.23,4.26c-.5,3.5,7,.7,8.41-.11,2.22-1.26,3.94-3.39,6.11-4.75s5-1.14,6.51-3.44a5.37,5.37,0,0,0,.76-2.4,2.87,2.87,0,0,0-.91-2.7A2.29,2.29,0,0,0,321.66,49.53Z" transform="translate(-168 -6)"/><path class="cls-8" d="M358.89,52.14a15.79,15.79,0,0,0,1.36,4.37c1.06,2.33,3.67,3.09,5.78,3.25,1.88.15,3.82,0,5.6.76s3.36,2.4,5.15,3.37a3.54,3.54,0,0,0,1.91.53,1.87,1.87,0,0,0,1.61-1.15,3,3,0,0,0,.08-1.52c-.47-2.92-2.94-4.65-5.21-5.54-1.61-.63-3.33-.9-4.89-1.67a28.82,28.82,0,0,1-3.35-2.17,16.77,16.77,0,0,0-5.8-2.54C359.19,49.44,358.73,50.6,358.89,52.14Z" transform="translate(-168 -6)"/><path class="cls-9" d="M314.47,64.25c-.68.39-1.32.88-2,1.23a5.33,5.33,0,0,1-2.12.54,9.46,9.46,0,0,0-1.79.08,15,15,0,0,0-1.81.76,1.82,1.82,0,0,0-.95.73c-.12.21-.31.82-.08,1a.32.32,0,0,0,.17.06,4.24,4.24,0,0,0,2.34-.77,19.74,19.74,0,0,1,3.43-.93c1-.27,2.12-.47,3.14-.82a2.13,2.13,0,0,0,1.11-.86c.16-.23.71-1,.42-1.28C315.8,63.46,315,64,314.47,64.25Z" transform="translate(-168 -6)"/><path class="cls-9" d="M368.72,64.38c.69.36,1.35.82,2.05,1.14a5.29,5.29,0,0,0,2.13.44,9.45,9.45,0,0,1,1.79,0,14.85,14.85,0,0,1,1.84.68,1.79,1.79,0,0,1,1,.69c.13.2.34.8.11,1a.32.32,0,0,1-.17.07,4.2,4.2,0,0,1-2.36-.67,19.6,19.6,0,0,0-3.46-.78c-1-.23-2.14-.37-3.16-.69a2.1,2.1,0,0,1-1.14-.81c-.16-.23-.74-1-.46-1.26C367.37,63.65,368.21,64.11,368.72,64.38Z" transform="translate(-168 -6)"/><path class="cls-10" d="M434,62.46a20.49,20.49,0,0,0-3.87-1s-16.55,3.37-20.53-4.35a6.32,6.32,0,0,0-5.77-1.25s-20.58,17.66-35.89-28c-.38-1.14,4.45-9.42,15.23-5.74,0,0,18.11-2.36,22.72.88,0,0,10.51,1.47,19.62,20.76C425.47,43.82,431.3,59.84,434,62.46Z" transform="translate(-168 -6)"/><path class="cls-11" d="M308.52,69.83a5.49,5.49,0,0,0-.5,2.51A4.52,4.52,0,0,0,309,75a7.63,7.63,0,0,0,2.26,1.85,3.62,3.62,0,0,0,2.54.4A4.44,4.44,0,0,0,316,75.81c1.73-1.85,1.52-4.94.56-7.19a2.72,2.72,0,0,0-2.35-1.75,6,6,0,0,0-2.85.2A5.11,5.11,0,0,0,308.52,69.83Z" transform="translate(-168 -6)"/><path class="cls-12" d="M314.94,68.75A4.93,4.93,0,0,1,314.8,75a3.54,3.54,0,0,1-5.48.16,4.93,4.93,0,0,1,.14-6.29A3.54,3.54,0,0,1,314.94,68.75Z" transform="translate(-168 -6)"/><ellipse class="cls-13" cx="144.3" cy="66.17" rx="1.59" ry="1.83"/><path class="cls-14" d="M310.08,70.38a9.32,9.32,0,0,0,0,4.33c.34,1,.89.66,1.23-.75a9.31,9.31,0,0,0,0-4.34C311,68.64,310.42,69,310.08,70.38Z" transform="translate(-168 -6)"/><path class="cls-11" d="M366.8,70.27a5.49,5.49,0,0,0-.5,2.51,4.52,4.52,0,0,0,1,2.64,7.63,7.63,0,0,0,2.26,1.85,3.62,3.62,0,0,0,2.54.4,4.44,4.44,0,0,0,2.21-1.41c1.73-1.85,1.52-4.94.56-7.19a2.72,2.72,0,0,0-2.35-1.75,6,6,0,0,0-2.85.2A5.11,5.11,0,0,0,366.8,70.27Z" transform="translate(-168 -6)"/><path class="cls-12" d="M373.22,69.19a4.93,4.93,0,0,1-.14,6.29,3.54,3.54,0,0,1-5.48.16,4.93,4.93,0,0,1,.14-6.29A3.54,3.54,0,0,1,373.22,69.19Z" transform="translate(-168 -6)"/><ellipse class="cls-13" cx="202.58" cy="66.61" rx="1.59" ry="1.83"/><path class="cls-14" d="M368.36,70.82a9.32,9.32,0,0,0,0,4.33c.34,1,.89.66,1.23-.75a9.31,9.31,0,0,0,0-4.34C369.25,69.08,368.7,69.42,368.36,70.82Z" transform="translate(-168 -6)"/><path class="cls-15" d="M501.65,592.19a11.35,11.35,0,0,1-6,2.37,12.25,12.25,0,0,1-2,0,16.52,16.52,0,0,1-5.7-1.36c-.64-.18-1.27-.38-1.89-.6s-1.24-.46-1.85-.71c-3.89-3.27-8.09-5.17-12.46-5.32a16.75,16.75,0,0,0-2.2.07c-.47.13-1,.26-1.49.41a8.08,8.08,0,0,0-1.45.56c-4,3.27-8.89,7.7-14.45,5.6a9.54,9.54,0,0,1-1.48-.85c-.47-.32-.92-.67-1.37-1a18.76,18.76,0,0,0-2.2-1.17,20.51,20.51,0,0,0-2.3-.87,17.36,17.36,0,0,0-1.89-1.1c-4.59-2.88-9.47-4.45-14-3.54a12.23,12.23,0,0,0-2.19.65c-4.8,4.86-11.47,3.46-17.41,2-.6-.1-1.2-.19-1.81-.26a17.42,17.42,0,0,0-1.92-.26l-1.73-.25-1.78-.25a8.61,8.61,0,0,0-3.05-.13c-5.51.75-10.6,3.58-16,4.1a17.31,17.31,0,0,1-2.06.07c-7.92-.2-15.7.26-23.53-1.54H355.5a6.76,6.76,0,0,1-2-.07c-3.35-1.38-5.79-4.64-9.35-4.88a10.86,10.86,0,0,0-4.27.78c-.69.25-1.38.53-2.06.81-.47.1-.94.17-1.4.23a12.56,12.56,0,0,1-1.88.11c-3,0-6-1.24-9-1.87a18.15,18.15,0,0,0-1.79-.29,6,6,0,0,0-2.41.2c-.79.2-1.57.49-2.39.73a27.66,27.66,0,0,0-6.35,2.64c-.71.37-1.42.75-2.16,1.13-1.84.92-3.75,2.08-5.74,2.86a14.3,14.3,0,0,1-2,.63l-2,.11-2,.05c-7,.05-15.93,2.38-21-4.12-.46-.47-.93-.92-1.42-1.33-1.44-1.25-3-2.19-4.75-2a5.77,5.77,0,0,0-2.28.74c-3.34,2.83-6.9-.21-10.46-.44a4.58,4.58,0,0,0-1.67,0,6.11,6.11,0,0,0-1.67.53,17.45,17.45,0,0,1-1.8,1.88,15.37,15.37,0,0,1-1.93,1.47c-5.6,3.38-12.27,2.92-17.94.37l-2.07-.2c-.69,0-1.38,0-2.06-.06a16.61,16.61,0,0,0-4.13-2.06,12,12,0,0,0-2.09-.5c-.75.07-1.5.17-2.25.29s-1.48.26-2.23.41a28.44,28.44,0,0,0-6.71,2.15c-.73.31-1.46.62-2.21,1a13.76,13.76,0,0,1-8.07,3.09,14.5,14.5,0,0,1-2.08-.06c-3.16-.26-5.54-2.74-8.3-4.09a9.17,9.17,0,0,0-1.71-.65c-4.67-.47-9.78,1.4-13.34-2.8-2.67-3-3.33-7.23-3.21-11.11,0-.9,0-1.79.11-2.68.13-1.78.37-3.51.63-5.09q-.18-1.19-.38-2.37c-.26-2.53-.39-5.07-.43-7.6a18,18,0,0,1,.12-2.56c0-3,2.43-5.06,3.75-7.47a6.35,6.35,0,0,0,.72-1.9,4.51,4.51,0,0,0-.4-3.09,19.87,19.87,0,0,1-1.35-2,19.14,19.14,0,0,1-1.06-2c-2-4.37-1.79-9-1.53-13.61,0-.77.09-1.53.17-2.3q.36-1,.65-2.1a30.19,30.19,0,0,0,1.06-8.88q0-.93-.14-1.87a9.09,9.09,0,0,0-.3-2.16,16.9,16.9,0,0,1-4-11,19.2,19.2,0,0,1,.13-2.33,13.79,13.79,0,0,1,.91-3.62c.21-.58.44-1.15.66-1.72.32-1.29,1.21-2.93,1-4.33-.67-6.3-.44-11.9,1.66-17.78.15-.69.27-1.39.36-2.1a27.39,27.39,0,0,0,0-6.73,31.6,31.6,0,0,0-1.12-4.95q-.14-.9-.26-1.8t-.21-1.8a13.35,13.35,0,0,1-.08-2.19,30,30,0,0,0,2.8-10.76,15.2,15.2,0,0,0-.09-2.14c-.37-3-1.93-5.53-3.48-8.1a14.87,14.87,0,0,1-1.49-4.55q-.22-1-.42-2a58.89,58.89,0,0,1-1-6.05,17.28,17.28,0,0,1,.12-2.51c0-.64.11-1.28.19-1.92,1-5.83,3.44-11,5-16.22q.43-1.05.9-2.09t1-2.06c.32-.78.62-1.56.88-2.35,1.57-4.74,2-9.68-.25-14.9q-.16-1.29-.37-2.58a103.42,103.42,0,0,0-2.94-12.53c-.29-.51-.56-1-.82-1.53a25.12,25.12,0,0,1-1.86-4.86q-.3-1.12-.49-2.27a40.19,40.19,0,0,1-1.22-8.93q0-1.11,0-2.22c.24-6.56-.42-13.33,1.36-19.63.19-.58.36-1.17.53-1.75s.38-1.19.6-1.78.47-1.17.71-1.76a21.36,21.36,0,0,0,2.26-8.51,14.08,14.08,0,0,0-.1-1.83c-.44-4-.61-7.93-.86-11.86-.05-.79-.11-1.59-.24-2.42q-.47-1.08-.86-2.16t-.7-2.18c-1.13-4.47-2.46-9.14-1.8-13.81a18.14,18.14,0,0,1,.33-1.95,66,66,0,0,0,1.4-9.38q.1-1.18.17-2.36c.06-3.41.25-6.69.34-10,0-.66,0-1.32,0-2-.31-4.09-.43-8.27-.36-12.43q0-1.25.07-2.5a6.38,6.38,0,0,1,.09-2.11c.82-4,3.93-8.41,1.49-12.15-2.45-3.5-1.78-7.47-3.54-10.62a21.36,21.36,0,0,1-.7-2.14c-1.93-7.15.71-14.88.84-22.38q0-1.1.09-2.2c.18-3.66.46-7.28.53-10.85a22,22,0,0,1,.43-2.36,16.44,16.44,0,0,1,1.79-4.54,8.49,8.49,0,0,1,5-3.75,12.48,12.48,0,0,1,2-.42c.73-.14,1.47-.25,2.21-.36a41.18,41.18,0,0,0,4.22-.77,16.77,16.77,0,0,0,1.78-.45c.67-.08,1.35-.13,2-.17s1.37-.05,2.07,0a22.85,22.85,0,0,1,2.3.28,23.23,23.23,0,0,1,4.48,1.24l2.09,1c.69.33,1.37.64,2,.91s1.27.74,1.9,1.11,1.26.76,1.87,1.16,1.76.25,2.65.28c.59-.06,1.19-.14,1.78-.26,2.92-.58,5.75-1.35,8.62-1.81.57-.09,1.15-.18,1.75-.25a44.16,44.16,0,0,0,8.19-1.67c.67-.16,1.34-.31,2-.43a52,52,0,0,1,15.22,0c.72.12,1.45.26,2.19.41,2,.45,3.89,1.12,5.88,1.38a13,13,0,0,0,1.51.11c3.74-.36,7.22,1.05,10.72,2.22.7.23,1.4.46,2.11.65,2,.52,4.27,1.45,6.27.75l2.26-.78c.86.08,1.52-.85,2.41-.85,2.76.09,5.55.22,8.34.2,1.4,0,2.79-.06,4.26-.12.79,0,1.57,0,2.34-.1s1.54-.14,2.3-.23l1.62-.11,1.62-.08c3.53,0,6.87-1.17,10-2.34,4.89-1.87,10-.47,15.13-.65a15.68,15.68,0,0,1,1.93.23c4.47.8,8.66,3.3,13.19,4q1,.06,2,0a32.36,32.36,0,0,0,8.1-1.31c.76-.11,1.51-.22,2.27-.37s1.51-.27,2.27-.45l2.41.18c4,.31,8.05.67,12.11,1.16l1.79.24c1.79.22,3.58.4,5.39.53a19,19,0,0,0,2.26-.1q.83-.09,1.67-.27a17.15,17.15,0,0,0,1.68-.45,22.93,22.93,0,0,1,6.18-1.83c.71-.11,1.42-.2,2.14-.27a103.35,103.35,0,0,1,13.63-.06l2,.08c4.36,0,8.31,2.49,12.65,2.8a11.58,11.58,0,0,0,1.89,0,30.22,30.22,0,0,1,6.91-1.81c.78-.11,1.56-.21,2.34-.28,4.49-.12,8.9.11,13.3.18l2.2,0a7.07,7.07,0,0,0,4.82-1.14,17.84,17.84,0,0,1,2.24-1.11,15.74,15.74,0,0,1,2.23-.72,10.76,10.76,0,0,1,5.54,0c3.06.29,5.94,1.59,8.95,2.2.61.13,1.22.23,1.85.3,5,.06,9.66,3.56,14.55,1.93,1.67-.44,3.33-1.24,5.12-1.75a12.4,12.4,0,0,1,1.82-.39,5.3,5.3,0,0,1,1.59-.16,16.45,16.45,0,0,1,4.82,1.69,14.23,14.23,0,0,1,3.68,2.87c5.2,5.67,5,14.07,3.15,21.07q-.13.94-.24,1.89-.31,2.84-.38,5.69,0,1.14,0,2.28a3.49,3.49,0,0,1-.89,3,15.86,15.86,0,0,0-1.35,2.07c-.65,1.19-1.32,2.59-.87,4,1.33,4.43,5.78,7.23,5.34,12.37a29.26,29.26,0,0,1-.84,4.44l-.37,1.5a29.44,29.44,0,0,0-2.62,11.22c0,.82,0,1.64.06,2.5.22,5.78,0,11.38.66,17.21.3,2,1,4,1.4,6.16.1.53.2,1.06.29,1.6a13.84,13.84,0,0,1,1.7,9.08,14.27,14.27,0,0,1-.52,2.2c-2,4.76-6.66,9.43-4.44,15,1.11,2.8,2.67,5.6,3.05,8.68,0,.68,0,1.38-.11,2.09q-.18,2.11-.51,4.24c-.08.75-.14,1.5-.17,2.26a41,41,0,0,0,2.55,15.63,13.89,13.89,0,0,1,.17,1.8c.1.69.18,1.38.23,2.08a16,16,0,0,1-.76,6.4,5.72,5.72,0,0,0,.57,5.2c.19.5.39,1,.57,1.51a10.13,10.13,0,0,1,.64,4.73c-.44,2.64-1.78,5.08-2.5,7.62a12,12,0,0,0-.39,1.93c.45,4,4.23,6.08,5.34,10a6.66,6.66,0,0,1,0,2.1,7.67,7.67,0,0,1-.67,2.1,43.37,43.37,0,0,0-6.14,9.74c-.31.71-.58,1.44-.82,2.17a22.65,22.65,0,0,0-.83,12.5c.14.84.31,1.68.44,2.57s0,1.65-.07,2.48-.1,1.66-.15,2.5c-.22,3.74-.66,7.47,0,11.44.69,3.5,1.82,6.64,2.45,9.89.13.66.24,1.33.34,2a33.08,33.08,0,0,1-.73,11.52q-.26,1.13-.58,2.26c-.84,2.47-2.11,5-2.33,7.51a8.27,8.27,0,0,0,0,1.93c2.14,5,3.25,10.6,1.29,15.65-.18.6-.36,1.19-.53,1.78a25,25,0,0,0-.49,3.65,19.49,19.49,0,0,0,.14,3.78q.15,1.16.39,2.31.18.87.41,1.73t.5,1.73a50.61,50.61,0,0,1,1.16,7.37q.07.75.12,1.51,0,1.85,0,3.69,0,.92,0,1.84t-.25,2.13q-.12,1.07-.22,2.13c-2.85,8-1.51,16.36,4.78,22.18l1.46,1.93a11.38,11.38,0,0,1,.42,1.58,11.65,11.65,0,0,1,.08,2.16,12.63,12.63,0,0,1-.23,1.81,14.6,14.6,0,0,1-.5,1.83c-6,6.33-8.64,16.14-4.34,24.21.15.58.3,1.17.44,1.77a26.51,26.51,0,0,1,.51,2.73,35.15,35.15,0,0,1-.34,6.91c-.1.76-.21,1.52-.32,2.28-.24,1.55-.58,3.12-.93,4.68l-.35,1.57a3.8,3.8,0,0,0-.2,2.11,20.24,20.24,0,0,1-1,17.77,18.36,18.36,0,0,1-1.46,2.19,41.93,41.93,0,0,1-4.27,4.62Z" transform="translate(-168 -6)"/></svg>