<svg id="圖層_1" data-name="圖層 1" xmlns="http://www.w3.org/2000/svg" viewBox="0 0 986.95 1173"><defs><style>.cls-1{fill:#ddcbbe;}.cls-2{fill:#817b3f;stroke-width:5px;}.cls-2,.cls-3,.cls-9{stroke:#000;stroke-miterlimit:10;}.cls-3,.cls-9{stroke-width:2px;}.cls-4{fill:#bd947f;}.cls-5{fill:#c69380;}.cls-6{fill:#5c4231;}.cls-7{fill:#513e22;}.cls-8{fill:#fff;}.cls-9{fill:none;}</style></defs><title>adopt_cat_need_to_know</title><path class="cls-1" d="M551.39,60c15.25-1.86,79.09-8.81,117.8.36l.56.15.39.12c2.89.87,7.05.95,8.32-1.69,2.24-4.67,6.84-8.5,10.76-11.85a184.51,184.51,0,0,1,19.24-14.2,197.15,197.15,0,0,1,21.49-12.32c5.45-2.65,11.38-5.43,17.5-6.23a25.18,25.18,0,0,1,3.46-.16,8.52,8.52,0,0,1,4.86,1.15,8.69,8.69,0,0,1,3.36,3.82c3.85,9.2,3.07,35.12-17.17,93.78a8,8,0,0,0,.67,6.69c4.25,7.23,13.51,54,8.78,54H470.8c-5,0-5.73-47.22-.16-56a7.92,7.92,0,0,0,.92-6.5c-5.09-17.5-23.81-85.06-11.12-90.72a8.21,8.21,0,0,0,2-1.42c2.84-2.49,16.68-5.4,82.82,39.56A9,9,0,0,0,551.39,60Z" transform="translate(-139.05 -11)"/><path class="cls-2" d="M517.72,137s42.37-40.38,53.08,19.23C570.79,156.24,528.65,187.65,517.72,137Z" transform="translate(-139.05 -11)"/><ellipse class="cls-3" cx="406" cy="135.52" rx="18.51" ry="15.17"/><path class="cls-4" d="M464.87,24.41S504.78,31.25,532,63.94c0,0-42.15,44.23-54.64,41.45C477.35,105.39,452.3,28.84,464.87,24.41Z" transform="translate(-139.05 -11)"/><path class="cls-5" d="M685.08,64c-2.45-1.15,36.64-41.39,64.82-45.44,1.42-.2,3,.49,3.16,1.86.9,8.38,1.21,43.68-16.35,85.14C736.71,105.6,723.16,108.33,685.08,64Z" transform="translate(-139.05 -11)"/><path class="cls-6" d="M584.86,76.32l-.22-.38c-1.72-2.78-3.95-5.37-5.91-8-1.7-2.27-4.05-5.79-7.29-6.05-2.18-.18-8.29,1-5.11,4.38a100.91,100.91,0,0,0,13.5,11.65,2.26,2.26,0,0,1,.57.54,1.81,1.81,0,0,1,.24.86c.26,3.35-2.3,5.67-5.4,6.6-2,.61-4.44,3.32-5.94,4.64-2.77,2.43-5.63,5.11-6.84,8.61a21.81,21.81,0,0,0-.7,2.85,35.68,35.68,0,0,0-.61,3.79,15.32,15.32,0,0,0,4.29,12.59s2.45,3.41,3.79-1.91c1.72-6.85-1-15.08,4-21,3.11-3.66,8.75-3.87,11.28-8.09A11.72,11.72,0,0,0,584.86,76.32Z" transform="translate(-139.05 -11)"/><path class="cls-7" d="M632.38,76.37l.3-.32c2.35-2.32,5.16-4.33,7.71-6.43,2.21-1.82,5.36-4.71,8.57-4.23,2.16.32,7.8,2.88,3.89,5.41a103.78,103.78,0,0,1-16,8.27,2.32,2.32,0,0,0-.69.39,1.85,1.85,0,0,0-.45.79c-1.07,3.2.84,6,3.62,7.63,1.82,1,3.5,4.22,4.63,5.85,2.09,3,4.22,6.24,4.52,9.92a21.66,21.66,0,0,1,0,2.93,35.6,35.6,0,0,1-.34,3.82,15.66,15.66,0,0,1-7.27,11.26s-3.22,2.76-3.21-2.71c0-7,4.64-14.44,1.23-21.28-2.12-4.26-7.55-5.74-9-10.41A11.79,11.79,0,0,1,632.38,76.37Z" transform="translate(-139.05 -11)"/><path class="cls-7" d="M612.9,74.2c0-.24.05-.49.07-.73v-.13a11.82,11.82,0,0,0-.17-2.21q-.38-2.78-.56-5.59a10.94,10.94,0,0,0-.17-2.54,5.92,5.92,0,0,0-1.26-1.79c-1.33-1.5-3.23-2.07-4.88-.63a8.57,8.57,0,0,0-2.11,3.1c-.6,1.38-1.26,2.74-1.74,4.16a7.79,7.79,0,0,0-.25,4.9,17.6,17.6,0,0,0,.74,1.69,17.83,17.83,0,0,1,1.25,5.33c.25,1.91.61,3.8.8,5.72a16.77,16.77,0,0,1,.16,4.33c-.24,1.42-.62,2.82-.86,4.25-.51,3.07-.89,6.17-1.1,9.28a19.12,19.12,0,0,0,.37,6.36l1.89,6.83a11.88,11.88,0,0,0,1.13,3c.6,1,1.77,2.17,3.09,2.1a2.45,2.45,0,0,0,1.65-.87,6.12,6.12,0,0,0,.95-1.61,21.32,21.32,0,0,0,2.15-8.16c.06-3-.7-5.89-1.13-8.82q-.32-2.15-.64-4.3a28.71,28.71,0,0,1-.6-4.05l-.59-4a6.38,6.38,0,0,1-.23-1.57l.76-5.47.62-4.4C612.43,77,612.74,75.6,612.9,74.2Z" transform="translate(-139.05 -11)"/><ellipse class="cls-8" cx="402.02" cy="126.67" rx="7.25" ry="5.88"/><path class="cls-2" d="M641.84,153.65s13.11-55.87,55.55-11.09C697.39,142.56,679.45,190.74,641.84,153.65Z" transform="translate(-139.05 -11)"/><path class="cls-3" d="M688.42,144.31c1.63,8.23-5.2,16.38-15.24,18.2s-19.5-3.38-21.13-11.61,5.2-16.38,15.24-18.2S686.79,136.08,688.42,144.31Z" transform="translate(-139.05 -11)"/><path class="cls-8" d="M671.72,138.33c.63,3.19-2,6.35-6,7.06s-7.63-1.29-8.26-4.48,2-6.35,6-7.06S671.09,135.14,671.72,138.33Z" transform="translate(-139.05 -11)"/><path class="cls-1" d="M550.66,56.82c15.25-1.86,79.09-8.81,117.8.36l.56.15.39.12c2.89.87,7.05.95,8.32-1.69,2.24-4.67,6.84-8.5,10.76-11.85a184.51,184.51,0,0,1,19.24-14.2,197.15,197.15,0,0,1,21.49-12.32c5.45-2.65,11.38-5.43,17.5-6.23a25.18,25.18,0,0,1,3.46-.16A8.52,8.52,0,0,1,755,12.15,8.69,8.69,0,0,1,758.41,16c3.85,9.2,3.07,35.12-17.17,93.78a8,8,0,0,0,.67,6.69c4.25,7.23,13.51,54,8.78,54H470.07c-5,0-5.73-47.22-.16-56a7.92,7.92,0,0,0,.92-6.5c-5.09-17.5-23.81-85.06-11.12-90.72a8.21,8.21,0,0,0,2-1.42c2.84-2.49,16.68-5.4,82.82,39.56A9,9,0,0,0,550.66,56.82Z" transform="translate(-139.05 -11)"/><path class="cls-2" d="M517,133.85s42.37-40.38,53.08,19.23C570.06,153.08,527.91,184.49,517,133.85Z" transform="translate(-139.05 -11)"/><ellipse class="cls-3" cx="405.27" cy="132.36" rx="18.51" ry="15.17"/><path class="cls-4" d="M464.13,21.25S504,28.09,531.26,60.78c0,0-42.15,44.23-54.64,41.45C476.62,102.23,451.57,25.68,464.13,21.25Z" transform="translate(-139.05 -11)"/><path class="cls-5" d="M684.35,60.88C681.9,59.73,721,19.49,749.17,15.44c1.42-.2,3,.49,3.16,1.86.9,8.38,1.21,43.68-16.35,85.14C736,102.44,722.43,105.17,684.35,60.88Z" transform="translate(-139.05 -11)"/><path class="cls-6" d="M584.12,73.16l-.22-.38c-1.72-2.78-3.95-5.37-5.91-8-1.7-2.27-4.05-5.79-7.29-6.05-2.18-.18-8.29,1-5.11,4.38a100.91,100.91,0,0,0,13.5,11.65,2.26,2.26,0,0,1,.57.54,1.81,1.81,0,0,1,.24.86c.26,3.35-2.3,5.67-5.4,6.6-2,.61-4.44,3.32-5.94,4.64-2.77,2.43-5.63,5.11-6.84,8.61a21.81,21.81,0,0,0-.7,2.85,35.68,35.68,0,0,0-.61,3.79,15.32,15.32,0,0,0,4.29,12.59s2.45,3.41,3.79-1.91c1.72-6.85-1-15.08,4-21,3.11-3.66,8.75-3.87,11.28-8.09A11.72,11.72,0,0,0,584.12,73.16Z" transform="translate(-139.05 -11)"/><path class="cls-7" d="M631.65,73.21l.3-.32c2.35-2.32,5.16-4.33,7.71-6.43,2.21-1.82,5.36-4.71,8.57-4.23,2.16.32,7.8,2.88,3.89,5.41a103.78,103.78,0,0,1-16,8.27,2.32,2.32,0,0,0-.69.39,1.85,1.85,0,0,0-.45.79c-1.07,3.2.84,6,3.62,7.63,1.82,1,3.5,4.22,4.63,5.85,2.09,3,4.22,6.24,4.52,9.92a21.66,21.66,0,0,1,0,2.93,35.6,35.6,0,0,1-.34,3.82,15.66,15.66,0,0,1-7.27,11.26s-3.22,2.76-3.21-2.71c0-7,4.64-14.44,1.23-21.28-2.12-4.26-7.55-5.74-9-10.41A11.79,11.79,0,0,1,631.65,73.21Z" transform="translate(-139.05 -11)"/><path class="cls-7" d="M612.16,71c0-.24.05-.49.07-.73v-.13a11.82,11.82,0,0,0-.17-2.21q-.38-2.78-.56-5.59a10.94,10.94,0,0,0-.17-2.54,5.92,5.92,0,0,0-1.26-1.79c-1.33-1.5-3.23-2.07-4.88-.63a8.57,8.57,0,0,0-2.11,3.1c-.6,1.38-1.26,2.74-1.74,4.16a7.79,7.79,0,0,0-.25,4.9,17.6,17.6,0,0,0,.74,1.69,17.83,17.83,0,0,1,1.25,5.33c.25,1.91.61,3.8.8,5.72a16.77,16.77,0,0,1,.16,4.33c-.24,1.42-.62,2.82-.86,4.25-.51,3.07-.89,6.17-1.1,9.28a19.12,19.12,0,0,0,.37,6.36l1.89,6.83a11.88,11.88,0,0,0,1.13,3c.6,1,1.77,2.17,3.09,2.1a2.45,2.45,0,0,0,1.65-.87,6.12,6.12,0,0,0,.95-1.61,21.32,21.32,0,0,0,2.15-8.16c.06-3-.7-5.89-1.13-8.82q-.32-2.15-.64-4.3a28.71,28.71,0,0,1-.6-4.05l-.59-4a6.38,6.38,0,0,1-.23-1.57l.76-5.47.62-4.4C611.7,73.84,612,72.44,612.16,71Z" transform="translate(-139.05 -11)"/><ellipse class="cls-8" cx="401.28" cy="123.51" rx="7.25" ry="5.88"/><path class="cls-2" d="M641.11,150.48s13.11-55.87,55.55-11.09C696.66,139.4,678.71,187.58,641.11,150.48Z" transform="translate(-139.05 -11)"/><path class="cls-3" d="M687.68,141.15c1.63,8.23-5.2,16.38-15.24,18.2s-19.5-3.38-21.13-11.61,5.2-16.38,15.24-18.2S686.06,132.92,687.68,141.15Z" transform="translate(-139.05 -11)"/><path class="cls-8" d="M671,135.17c.63,3.19-2,6.35-6,7.06s-7.63-1.29-8.26-4.48,2-6.35,6-7.06S670.35,132,671,135.17Z" transform="translate(-139.05 -11)"/><path class="cls-9" d="M1107.38,1173.27c-27.1,13.26-58.61,12.25-86.16,1.33q-4.23-.91-8.42-2.05t-8.32-2.57c-3.12-.7-6.25-1.36-9.4-2s-6.3-1.32-9.46-2c-2.84-.16-5.72-.27-8.62-.37-17.42-.61-34.88-.81-52.34-1l-10.76-.14c-24.14-1.83-47.52,4.11-71.45,4.27-3.42,0-6.85-.07-10.3-.32a914,914,0,0,1-117.93-4.84q-5.36-.57-10.74-1.19c-23.94,1-47.57,18.12-71.2,8-10.83-4-22.65-9.07-34.66-8-3.3,0-6.62,0-9.93,0H546.41a672.41,672.41,0,0,1-91.3-.11q-5.7-.14-11.4-.35c-34.18-1.18-68.15-3.07-99.9,7.51-16.41,5.88-33,7.38-49.53,6.41q-5-.29-9.92-.87a173.87,173.87,0,0,1-23.47-3.53c-2.57-.54-5.14-1.11-7.73-1.68q-4.79-1.19-9.58-2t-9.59-1.18c-28-5.24-62.5,16.93-83.17-9.26a48.1,48.1,0,0,1-9.46-23.26,72.21,72.21,0,0,1-.66-8.28c.08-9.88.67-19.69,1.46-29.49q.39-4.9.84-9.78,0-4.79-.06-9.59t-.12-9.61a259.41,259.41,0,0,1-1-32.62q.15-5.46.48-10.94c2.61-31.64,4.58-63.88,4.58-94.74V693.1c-2-37.47,0-73.74,0-110.8V562.94c0-12.08,2-25.17-2-37.26-7.88-33.24-2-65.48,5.41-97.67.54-3.77.86-7.39,1.07-11a184.06,184.06,0,0,0-4.13-53.09q-1.09-5.16-2-10.35c-7.2-41.45-5.56-83.72-3.41-125.87,0-2.76,0-5.44.05-8.11.3-13.34,2.37-26.48,7.91-38.43a24.77,24.77,0,0,1,5.15-7.11c14.38-13.82,44.21-9.46,65.74-5.42q4.92.52,9.83.88a205.44,205.44,0,0,0,29.42.16c3-.35,6-.77,9-1.27a210.67,210.67,0,0,0,26.57-6.4,17.74,17.74,0,0,1,11.83.71c2.58.32,5.12.79,7.66,1.34,12.67,2.76,25,7.64,38.54,7h17.94c3.47,0,7,0,10.51-.06,29.7-2,59.24-.95,88.53.06h44.37c3.78,0,7.57,0,11.39,0,19.49-.85,40-1,60.31-.29q4.35.14,8.69.33h38c31.46,0,63.95-2,95.58,0h27.54c2.1,0,4.19,0,6.29-.11a264.63,264.63,0,0,1,67.67-3.25c3.24.23,6.48.5,9.73.78,23.53,2.59,47.16,2.59,71.26,2.59h81.49c20.53-1.81,41.5-3.26,62.45-4.2,3.49-.16,7-.3,10.45-.43a81.57,81.57,0,0,0,9.57.17c3.29-.1,6.65-.3,10-.42a41.73,41.73,0,0,1,22.49,6.68,39.05,39.05,0,0,1,6.1,4.83,52.22,52.22,0,0,1,9,18.92,62.59,62.59,0,0,1,1.67,10.17c2.14,29.13-6.74,56.82-14.66,85-.87,3.14-1.72,6.28-2.52,9.49-5.73,24.49-1.92,49.92-2.49,75.33-.08,3.63-.25,7.26-.55,10.89-1.54,23.37,7.32,45.53,4.37,69.71-2,15.11-4.92,29.21-4.92,43.82v64.88q0,3.3,0,6.6c6.2,23.65,9,46.54,6.46,69.91-.37,3.34-.81,6.7-1.23,10.19.26,3.13.47,6.23.6,9.31.07,20.94-2.88,43.1-3.84,64.09-.27,3.09-.59,6.17-.93,9.24s-.69,6.1-1.06,9.14c0,2.13,0,4.28,0,6.42v6.54q0,3.27,0,6.54c.39,3.38.71,6.76,1,10.14.73,8.87,1,17.82,1.07,26.75,0,3,0,6-.06,9-.52,15.1-1.27,30.46-1.77,45.85-.1,3.08-.17,6.17-.13,9.33,1.84,18.34,8.74,36.47,5.78,55.61-.33,3-.76,6-1.22,9.08-1.73,5-.75,11.07,1.22,16.11,3.69,11,4.2,21.34,3.24,31.55-.32,3.4-.81,6.79-1.39,10.17a265,265,0,0,0-8.18,50.68c-.23,3.48-.39,7-.5,10.53q.14,4.66.42,9.29,1,4.62,1.84,9.26c.79,3.23,1.51,6.44,2.45,9.81q1.87,3.72,3.54,7.62t3.08,8c4.45,16.1,8.61,33.48,4.94,50.16a54.23,54.23,0,0,1-3.21,9.93c-.33,7.59-5.25,12.63-8.42,19.41C1107.46,1172.89,1107.38,1173.27,1107.38,1173.27Z" transform="translate(-139.05 -11)"/></svg>