<svg id="圖層_1" data-name="圖層 1" xmlns="http://www.w3.org/2000/svg" viewBox="0 0 950 1171.84"><defs><style>.cls-1,.cls-11{fill:none;}.cls-1,.cls-11,.cls-13{stroke:#000;stroke-miterlimit:10;}.cls-2{fill:#eef3dd;}.cls-3{fill:#312b1b;}.cls-4{fill:#f9d2a1;}.cls-5{fill:#f4ccb4;}.cls-6{fill:#595956;}.cls-7{fill:#2c0c00;}.cls-8{fill:#2c2f33;}.cls-9{fill:#0f1410;}.cls-10{fill:#768495;}.cls-11,.cls-13{stroke-width:2px;}.cls-12{fill:#d0585b;}.cls-13{fill:#fff;}</style></defs><title>adopt_dog_need_to_know</title><path class="cls-1" d="M501.47,181.2" transform="translate(-122 -24.39)"/><path class="cls-2" d="M503,229a69.59,69.59,0,0,1-1.38-10.85c0-1.34,0-2.68.06-4-1.84-4.41-3.92-10.8-3-15.75a1.73,1.73,0,0,0,0-.53,1.55,1.55,0,0,0-.15-.44,28.33,28.33,0,0,1-1.39-3.32c-.92-2.92-.46-5.08.1-7.88.09-.42.17-.84.29-1.25a4.18,4.18,0,0,1,4.59-3.26,13.65,13.65,0,0,1-.83-2,10.38,10.38,0,0,1-.57-2,7.34,7.34,0,0,1,.51-4.23c.79-1.79,2.2-3.69,3.74-4.18,2-.63,4.27,1.64,5.74,3.36.57-1.08,1.84-1.1,2.75-1.11a6.44,6.44,0,0,1,3.53,1.28,7.64,7.64,0,0,1,3.28,4c.23.63,1.51,6.32,1.14,6.38,2.75-.45,4.64,2.4,5.7,5.69a35.62,35.62,0,0,1,1.2,5.29c.3,1.89.19,3.61.38,5.47.22,2.12,1,4.27,1.3,6.41a38,38,0,0,1,.33,8.19s-2.4,9.21-1.36,10.91c.09.15-1.55.6-1.65.63-1.52.34-3.06.59-4.6.84-4.13.66-8.26,1.21-12.4,1.74-2.38.38-4.78.59-7.16.86C503.12,229.14,503.08,229.14,503,229Z" transform="translate(-122 -24.39)"/><path class="cls-3" d="M501.84,184c-1.24.45-2.52,2.27-3,3.49a8,8,0,0,0-.6,3.28,15.41,15.41,0,0,0,.36,2.62,4,4,0,0,0,2,2.88c1.42.74,3,.64,3.9-1.07a9.54,9.54,0,0,0,.75-5.06c-.19-1.94-.66-5.59-2.37-6.19A1.39,1.39,0,0,0,501.84,184Z" transform="translate(-122 -24.39)"/><path class="cls-3" d="M505.36,173.78a5,5,0,0,0-1.6,1.76,6.54,6.54,0,0,0,.17,5.76c1.33,3,3.49,5.17,5.58,2.47a5.34,5.34,0,0,0,.79-3.31,26.61,26.61,0,0,0-.11-4,4.92,4.92,0,0,0-1-2.42c-.58-.66-1.31-.57-2-.7A2.51,2.51,0,0,0,505.36,173.78Z" transform="translate(-122 -24.39)"/><path class="cls-3" d="M512.63,174.78a1.23,1.23,0,0,1,.37-.25,3.61,3.61,0,0,1,3.22.46c1.38.93,2.21,3,2.61,5a7.94,7.94,0,0,1,0,3.61c-.28,1-1.18,2.32-2.08,2a1.22,1.22,0,0,1-.35-.22c-2.34-1.84-3.86-5.62-4.11-9.2a2.69,2.69,0,0,1,0-.76A1.32,1.32,0,0,1,512.63,174.78Z" transform="translate(-122 -24.39)"/><path class="cls-3" d="M520.8,190.68l0-.27a8.56,8.56,0,0,1,.38-4.09c1-1.84,3.12.41,4.05,1.49a3.47,3.47,0,0,1,.37.49,4.37,4.37,0,0,1,.37.89,15.45,15.45,0,0,1,.86,4.91,6.53,6.53,0,0,1-.32,2c-.15.42-.58,1.48-1,1.54-1.43.23-3-1.43-3.68-3A13.11,13.11,0,0,1,520.8,190.68Z" transform="translate(-122 -24.39)"/><path class="cls-3" d="M508.71,199.22v0a1.52,1.52,0,0,0,.08-.67c0-.27,0-.54,0-.82a7,7,0,0,1,.24-1.56,4.86,4.86,0,0,1,5.73-3.58,4.35,4.35,0,0,1,2.61,1.14,5.9,5.9,0,0,1,1.53,3.58,5,5,0,0,0,.25,1.53,2.56,2.56,0,0,0,1.07,1.06,8.22,8.22,0,0,1,3.2,3.95,6.35,6.35,0,0,1-.32,5.45,4.38,4.38,0,0,1-2.72,1.59,29.38,29.38,0,0,1-12.52.3,4.17,4.17,0,0,1-3.1-1.76,7.15,7.15,0,0,1-.22-5.75,10.21,10.21,0,0,1,1.41-2.29,8.26,8.26,0,0,1,1.84-1.64c.23-.15.48-.27.72-.4A.47.47,0,0,0,508.71,199.22Z" transform="translate(-122 -24.39)"/><path class="cls-1" d="M601.82,212.26" transform="translate(-122 -24.39)"/><path class="cls-2" d="M660.73,196.5q1.07.93,2,1.82c9.47,9.05,8.77,15.26,8.77,15.26-1,6.71-8.08,2.85-8.08,2.85-3.4,3.86-7.94.34-7.94.34-3,1.77-6.8-.26-6.8-.26-2.55,1.1-5.67-1.71-5.67-1.71-5.24,4.47-5-1.22-5-1.22-4-10.24,7.22-15.87,9.52-16.91l.4-.17S654.64,191.22,660.73,196.5Z" transform="translate(-122 -24.39)"/><path class="cls-1" d="M648.41,196.19" transform="translate(-122 -24.39)"/><path class="cls-4" d="M648.25,196.52s8.52-1.8,13.54.93a9.13,9.13,0,0,0-6.77-3.29S649.83,194.47,648.25,196.52Z" transform="translate(-122 -24.39)"/><path class="cls-4" d="M621.56,83.32S676.25,15,701,33.14c0,0,13.88,3.2,7.49,28.8,0,0-31.27,60.35-47.21,65,0,0,12.23,22.35-8,42.13,0,0-4.51,41.5-58,56.23,0,0-50.87-3.49-59.24-32.19,0,0-20.93-37.23-15.13-51.19s-57.63-37.18-50.22-111.86c0,0,12.23-31.25,86.28,52.91C557,83,588.44,71.05,621.56,83.32Z" transform="translate(-122 -24.39)"/><path class="cls-5" d="M475.48,28.93s5.63-7.56,23.82,3.3c0,0,32.52,20,48.94,42.27l4.19,5.82s-24.23,47.53-30.91,46.93S481.6,88.46,481.44,80.31c0,0-13.41-41.41-5.69-51.68" transform="translate(-122 -24.39)"/><path class="cls-5" d="M627.06,84.45S645.41,60,657.72,52.16c0,0,25.84-23.27,39.84-18,0,0,15.1,3.29,9.9,22.4,0,0-17.39,42.18-45.64,67.19C661.83,123.72,653.37,124.88,627.06,84.45Z" transform="translate(-122 -24.39)"/><path class="cls-1" d="M561.06,190.72" transform="translate(-122 -24.39)"/><path class="cls-3" d="M593.79,107.33h1.91s1.45-5,3-7c0,0,1.33-5.38,2.54-6.33,0,0,8.27-8.44,17,2,0,0,3.48,5.77,3.16,8.87,0,0,15.45,10.56,14.49,19.82l-.64,3.64s18.67,1.76,19.64-1.16c0,0,4.51,1.13,0-3.9L651.58,117S634.68,98.54,626,84.19a8.77,8.77,0,0,1-3.54,0l-.8-1.16s-24.49-12.41-62.79,0a12.36,12.36,0,0,1-4.61-2.13s-25,46.15-29.83,47.51c0,0-1.29,7.37,1.29,7.37s0,1,0,1,15.78-4.46,17.22-6.79c0,0-1.77-19.2,8.37-22.3,0,0,5.47-16.24,12.07-15,0,0,8.85-3.9,17.14,11.9l1.53,3,2.36.4" transform="translate(-122 -24.39)"/><path class="cls-2" d="M582.29,91.5c0-.49,0-1,0-1.48a30.35,30.35,0,0,1,1-7.43,6.86,6.86,0,0,1,1.37-3c.81-.76,1.29-.23,2.06-.54,0,0,11.27-4.46,9.34,11.83,0,0-4,38.78-1.93,38.2-.45.12,1.27,4.46,1.54,4.84,1.12,1.56,2.78,1.81,4.27,2.64a40.61,40.61,0,0,1,15.52,15.9,14,14,0,0,0,3.25,4.41c4.44,3.49,7.73-3.35,10.43-6.49a17.07,17.07,0,0,1,8.35-5.67c3.29-.81,5.31.23,8.19,2,2.18,1.36,2.82,3.6,3,6.45A69.57,69.57,0,0,1,644,184.12c-4.12,10.07-11.13,16.22-18.67,22.38s-15.76,10.83-24.59,13.21q-1.15.31-2.31.57s-43,.4-56.5-27.53c0,0-17.39-37.82-10.46-45.77,0,0,6.76-7,11.59,0,0,0,12.45,16.29,18.78,9.31,0,0,7.14-19.39,18.57-19.78,0,0,3.06-1.36,3.22-3.1.53-5.79,1.81-11.52,2-17.36a68.32,68.32,0,0,0-2-17.43A46.18,46.18,0,0,1,582.29,91.5Z" transform="translate(-122 -24.39)"/><path class="cls-6" d="M572.68,171.86c.58-1.21,18.81-19.58,33.39,0,0,0,7,12.41-14.55,19.58C591.51,191.44,566.08,185.63,572.68,171.86Z" transform="translate(-122 -24.39)"/><path class="cls-7" d="M570,131c1.4,4.67-4.24,8.52-8.87,8s-9.62-5.44-7.9-9.95c1.45-3.8,4.29-7.79,8.92-7.24S568.74,126.93,570,131Z" transform="translate(-122 -24.39)"/><path class="cls-8" d="M567.88,130.68a6.11,6.11,0,0,1-6.7,6,7.11,7.11,0,0,1-6-7.52,6.11,6.11,0,0,1,6.7-6A7.11,7.11,0,0,1,567.88,130.68Z" transform="translate(-122 -24.39)"/><path class="cls-9" d="M565.14,129.34c-.16,3-1.85,5.17-3.78,4.94s-3.36-2.81-3.2-5.77,1.85-5.17,3.78-4.94S565.3,126.38,565.14,129.34Z" transform="translate(-122 -24.39)"/><path class="cls-10" d="M559.66,125.91c.07-.88.6-1.51,1.17-1.41s1,.91.91,1.79-.6,1.51-1.17,1.41S559.59,126.79,559.66,125.91Z" transform="translate(-122 -24.39)"/><path class="cls-7" d="M623.67,129c2,4.36-3.12,9.2-7.76,9.5s-10.19-3.62-9.06-8.39c1-4,3.26-8.48,7.9-8.79S621.94,125.16,623.67,129Z" transform="translate(-122 -24.39)"/><path class="cls-8" d="M621.56,129a6.53,6.53,0,0,1-5.86,7.18,6.63,6.63,0,0,1-6.84-6.34,6.53,6.53,0,0,1,5.86-7.18A6.63,6.63,0,0,1,621.56,129Z" transform="translate(-122 -24.39)"/><path class="cls-9" d="M618.68,128.19c.21,3-1.18,5.45-3.12,5.58s-3.68-2.16-3.89-5.11,1.18-5.45,3.12-5.58S618.47,125.24,618.68,128.19Z" transform="translate(-122 -24.39)"/><path class="cls-10" d="M612.84,125.8c0-.89.4-1.61,1-1.61s1.09.72,1.13,1.6-.4,1.61-1,1.61S612.88,126.69,612.84,125.8Z" transform="translate(-122 -24.39)"/><path class="cls-11" d="M556.34,174.43c2.68,10.24,7.26,22.14,16.5,25.48a23.07,23.07,0,0,0,9.73.83c2.05-.16,4.41,0,6.09-1.68a10.25,10.25,0,0,0,2.31-7.38c.25,2.2-.59,4.89.63,7.25a2.15,2.15,0,0,0,.26.39c.1.07,0,0,0,0,5.65,5.1,13.81,1.86,19.5-1.44a43.69,43.69,0,0,0,17.31-19.4" transform="translate(-122 -24.39)"/><path class="cls-12" d="M570.41,199.27l.32.13.54.2h0a39.8,39.8,0,0,0,5.17,1.47h0c3.81.3,8.16.49,11-.68h0a8.13,8.13,0,0,0,1.59-1.11h0l0,0a7.35,7.35,0,0,0,1.49-2.22s.55,4.13,6.17,5h0a26.31,26.31,0,0,0,4.74.11h0a9.87,9.87,0,0,0,3.76-.89h0l.18-.06.09,0a31.81,31.81,0,0,0,7.29-3.45c-1,27.1-21.94,26.52-21.94,26.52-19.21-4.67-19.59-13.82-20.17-24.83a.49.49,0,0,0,0-.07" transform="translate(-122 -24.39)"/><path class="cls-13" d="M1046.47,1183.9c-23.82,13.1-52.29,15.1-76.69,4.67-2.95-.56-5.94-1.25-8.93-2s-6-1.69-9-2.64c-2.67-.84-5.34-1.72-8.12-2.57-14-3.32-28.28-7.32-43.35-4.32a76.39,76.39,0,0,1-10.21,1.49c-3.36.27-6.68.33-10,.27-27.53-3.76-54.32,5.24-81.86,4.17-2.58.17-5.09.42-7.57.77-2.89.41-5.77.95-8.63,1.54-13.66,3.57-28.37,5-42.32,1.25a56.93,56.93,0,0,1-13.62-5.65c-12.49-5.83-25.89-4.83-38.24-2.33-5.84.79-11.63,1.46-17.42,1.84-11.57.74-23.19.32-35.11-3-2.67-.15-5.35-.21-8-.23-13.39-.1-26.85-.1-40.38-.1H557q-9.16.75-18.27,1.39-4.56.31-9.1.58c-3,.18-6,.35-9,.65-28.77,13.38-54.72,6.38-82.94-2.09-2.45,0-4.9.08-7.35.14-9.8.27-19.59.71-29.54.09-2.54-.1-5.05-.23-7.56-.4-2.33.17-4.64.39-7,.64-9.3,1-18.72,2.5-28.35,4-21.77,3-42.7,0-63.35,1.84q-4.35.3-8.71.53a319.63,319.63,0,0,1-55-1.36c-2.63-.32-5.26-.68-7.85-1.08-4.87-.92-9.9-2.92-14.08-1.92-21.77,3-42.7,17-63.63,4-14.23-9-21.77-27-22-46.38-.23-3.44-.29-6.92-.22-10.44.35-17.57,4-36,6.62-52.74.53-3.66,1-7.32,1.48-11s.85-7.29,1.16-10.9c.16-3.77.3-7.46.46-11.16.44-11.07,1-22.2,1.65-33.47V960.38c0-36.38-.84-73.38,0-109.6,0-2.83,0-5.64,0-8.43-5-41.35-3.34-80.35,0-121.23q0-4.4,0-8.8v-43.5c-4.19-42.82-1.67-85.82,0-130V515.32a178.9,178.9,0,0,0-.84-21.32c-3.35-16-10.88-30-9.21-47,2.51-18,9.21-35,8.31-52.54-.18-3.42-.37-6.8-.54-10.19a429.17,429.17,0,0,1,2.18-71.61c-.13-3.61-.34-7.26-.6-10.91-2.09-29.23-7.18-59.15,4.88-80.75,2.93-6,10.67-6.75,19.91-6,3.08.26,6.32.7,9.61,1.17a300.84,300.84,0,0,0,32.14,2q4,.06,8,.06c24.08-6.26,48.36-12.26,71.8-.26,3.35,2,7.53,1,11.22,1q4.14-.38,8.28-1a164.54,164.54,0,0,0,24.86-5.38c2.62-.3,5.22-.49,7.84-.58,10.45-.37,21,.64,31.5,1.52,2.63.22,5.27.44,7.91.56,21.41-1.2,43.18-6.2,64.65-.45,3,.27,6,.51,8.94.76C460.15,215.72,475,217.75,490,219H660.74q5.37,0,10.72-.06c13.86-.59,27.56-1.59,41.29-1.83q4.12-.07,8.24,0c26.22-.08,51.34-.08,77.45,1.06q4.32-.13,8.66-.33c20.22-1,40.65-3.39,61.51-8.81,23.44-5,45.21,8,67.81,11,32.65,3,65.3-3,98.22-6.35a69.24,69.24,0,0,1,9.54,0c15.31,1.12,27,8.87,25.35,34.37-.28,3.33-.6,6.67-.95,10s-.73,6.71-1.11,10.1c-3.8,20.89-3,41.89-2.16,62.63,0,3.61,0,7.33,0,11.14v666.35c0,3.48,0,6.94,0,10.43.52,14-1.25,27.41-2.65,40.89-.28,2.71-.54,5.42-.77,8.15-5,23.3,7.6,43.3,9.08,66.31a60,60,0,0,1-.67,7.72,69.67,69.67,0,0,1-8.87,23c-1.37,2.28-2.86,4.48-4.44,6.61a81.46,81.46,0,0,1-10.9,12.48Z" transform="translate(-122 -24.39)"/></svg>