<svg id="圖層_1" data-name="圖層 1" xmlns="http://www.w3.org/2000/svg" viewBox="0 0 1216.41 382.09"><defs><style>.cls-1{fill:#f9d2a1;}.cls-2{fill:#f4ccb4;}.cls-12,.cls-28,.cls-3,.cls-35,.cls-36,.cls-44{fill:none;stroke-miterlimit:10;}.cls-12,.cls-3,.cls-35,.cls-36{stroke:#000;}.cls-4{fill:#312b1b;}.cls-5{fill:#eef3dd;}.cls-6{fill:#595956;}.cls-7{fill:#d0585b;}.cls-8{fill:#2c0c00;}.cls-9{fill:#2c2f33;}.cls-10{fill:#0f1410;}.cls-11{fill:#768495;}.cls-12{stroke-width:2px;}.cls-13{fill:#d6d0bf;}.cls-14{fill:#e4e6db;}.cls-15{fill:#090100;}.cls-16{fill:#151328;}.cls-17{fill:#16192e;}.cls-18{fill:#0e1326;}.cls-19{fill:#0e1021;}.cls-20{fill:#242738;}.cls-21{fill:#0f1222;}.cls-22{fill:#47455a;}.cls-23{fill:#0d0b20;}.cls-24{fill:#141227;}.cls-25{fill:#464252;}.cls-26{fill:#d5a86e;}.cls-27{fill:#d7b48a;}.cls-28{stroke:#964f40;stroke-width:5px;}.cls-29{fill:#533115;}.cls-30{fill:#412514;}.cls-31{fill:#927f64;}.cls-32{fill:#dfccb1;}.cls-33{fill:#7f7057;}.cls-34{fill:#cfbea6;}.cls-35{stroke-width:0.75px;}.cls-36{stroke-width:0.5px;}.cls-37{fill:#b4825b;}.cls-38{fill:#964f40;}.cls-39{fill:#691a0d;}.cls-40{fill:#713b27;}.cls-41{fill:#624551;}.cls-42{fill:#f5ebf2;}.cls-43{fill:#b97a7f;}.cls-44{stroke:#af6c73;stroke-width:4px;}.cls-45{fill:#2b1d28;}.cls-46{fill:#815145;}</style></defs><title>animals</title><path class="cls-1" d="M244.65,516.64S309,394.51,355.06,412.37c0,0,23.42-.4,22,40.09,0,0-29.46,101.51-53.47,114.37,0,0,27.37,28.72,1.59,65.72,0,0,7.06,63.47-73.77,105.3,0,0-83,13.74-106.33-25.88,0,0-46.48-47.65-42-70.59S-2.4,607.47-16.24,493.51c0,0,8.89-51.08,156.94,46.67C140.7,540.18,187.18,510.71,244.65,516.64Z" transform="translate(16.24 -391.08)"/><path class="cls-2" d="M-8.94,490s6.45-13.36,39.44-4c0,0,59.16,17.64,93.24,44.73l8.73,7.1S109.91,617.69,99,619.28s-77.55-42.89-80.61-55c0,0-35.84-56.66-27-74.84" transform="translate(16.24 -391.08)"/><path class="cls-2" d="M253.57,513.36s21.08-43.21,38.17-59.49c0,0,33.51-44.26,57.83-41.68,0,0,25.41-.72,23.64,29.66,0,0-13.41,69.27-50.2,117C323,558.89,309.82,563.77,253.57,513.36Z" transform="translate(16.24 -391.08)"/><path class="cls-3" d="M184.42,699.09" transform="translate(16.24 -391.08)"/><path class="cls-4" d="M208.29,562.74l3.07-.71s.6-8,2.35-11.49c0,0,.28-8.51,1.89-10.36,0,0,10.39-15.64,28-3.28,0,0,7.58,7.29,8.14,12,0,0,28.48,10,30.12,24.13l.22,5.66s30.62-4.34,31.17-9c0,0,7.64,0-1.34-5.8l-7.36-8.26S271,534.43,252.07,516.3a15.6,15.6,0,0,1-5.69,1.32l-1.69-1.43S201,506.82,143.74,539.55a21.29,21.29,0,0,1-8.14-1.46s-24.28,78-31.58,81.84c0,0,.47,11.45,4.61,10.49s.33,1.44.33,1.44,23.82-12.51,25.35-16.52c0,0-9.47-27.93,5.77-36.32,0,0,3.2-26.22,14.24-26.83,0,0,12.89-9.11,31.66,11.34l3.49,3.91,3.93-.28" transform="translate(16.24 -391.08)"/><path class="cls-5" d="M184.33,543.45c-.22-.71-.41-1.44-.56-2.19a43.19,43.19,0,0,1-.92-11.44c.12-1.59.26-3.64,1.18-4.92,1-1.43,2-.82,3.13-1.57,0,0,16.58-10.83,19.09,14.14,0,0,6.9,59.23,10.06,57.6-.67.35,3.58,6.17,4.14,6.63,2.34,1.9,5.1,1.66,7.77,2.35a64.62,64.62,0,0,1,30.44,17.89c2,2.13,4.16,4.26,6.75,5.35,8.34,3.54,11.27-7.87,14.53-13.55,2.75-4.8,6.69-9.22,11.47-11.55,5-2.44,8.62-1.63,13.86,0,4,1.22,5.77,4.31,7.09,8.48a99.23,99.23,0,0,1,3.15,47.72c-3.16,16.53-12.3,28.3-22.3,40.27s-21.6,22-35,28.82q-1.74.89-3.51,1.7s-69,16.59-100.32-20c0,0-41-49.84-32.6-64.25,0,0,8.46-12.91,18.63-4.31,0,0,25.63,19.62,33.4,6.87,0,0,4.79-31.53,23-36.36,0,0,4.45-3.16,4.11-5.82-1.14-8.83-1.07-17.83-2.72-26.6S193,561.51,189,553.53C187.25,550.12,185.42,547,184.33,543.45Z" transform="translate(16.24 -391.08)"/><path class="cls-6" d="M196.88,667.94c.52-2,23.48-36.16,53.67-12.43,0,0,15.56,15.87-16.64,34.58C233.91,690.09,191,690.9,196.88,667.94Z" transform="translate(16.24 -391.08)"/><path class="cls-7" d="M200.58,711.45c5.33,17.92,7.74,33.43,41.82,33.53,0,0,34.53-7,25.19-50.61" transform="translate(16.24 -391.08)"/><path class="cls-8" d="M178.16,606.9c3.85,6.43-3.88,14.26-11.51,15.18s-17.34-4.52-16.12-11.87c1-6.2,4.21-13.19,11.84-14.1S174.77,601.25,178.16,606.9Z" transform="translate(16.24 -391.08)"/><path class="cls-9" d="M174.68,607.15A9.83,9.83,0,0,1,166,618.62a11.09,11.09,0,0,1-12.17-9,9.83,9.83,0,0,1,8.68-11.47A11.09,11.09,0,0,1,174.68,607.15Z" transform="translate(16.24 -391.08)"/><path class="cls-10" d="M169.81,606.17c.76,4.46-1.2,8.39-4.38,8.77s-6.37-2.93-7.14-7.39,1.2-8.39,4.38-8.77S169,601.71,169.81,606.17Z" transform="translate(16.24 -391.08)"/><path class="cls-11" d="M159.82,603.1c-.19-1.34.44-2.48,1.4-2.53s1.9,1,2.08,2.33-.44,2.48-1.4,2.53S160,604.44,159.82,603.1Z" transform="translate(16.24 -391.08)"/><path class="cls-8" d="M263.78,583.86c4.67,5.76-1.84,14.85-9.2,17s-17.64-1.6-17.45-9.12c.15-6.35,2.32-13.84,9.68-16S259.68,578.8,263.78,583.86Z" transform="translate(16.24 -391.08)"/><path class="cls-9" d="M260.4,584.69a10.22,10.22,0,0,1-6.94,12.87,10.64,10.64,0,0,1-13.18-6.9,10.22,10.22,0,0,1,6.94-12.87A10.64,10.64,0,0,1,260.4,584.69Z" transform="translate(16.24 -391.08)"/><path class="cls-10" d="M255.49,584.53c1.36,4.32,0,8.55-3.09,9.46s-6.66-1.85-8-6.17,0-8.55,3.09-9.46S254.13,580.22,255.49,584.53Z" transform="translate(16.24 -391.08)"/><path class="cls-11" d="M245.27,583.15c-.37-1.31.09-2.54,1-2.76s2,.66,2.36,2-.09,2.54-1,2.76S245.64,584.45,245.27,583.15Z" transform="translate(16.24 -391.08)"/><path class="cls-12" d="M171.21,676.58c7.84,14.25,19.3,30.27,35.31,31.8,5.48.52,10.77-.8,15.93-2.39,3.24-1,7.1-1.64,9.22-4.77,2-2.93,2.45-8.33,1.17-11.86,1.16,3.18.73,7.5,3.51,10.57a3.28,3.28,0,0,0,.55.48c.18.08,0,0,0,0,10.83,5.49,22.85-2.37,30.86-9.41a68.84,68.84,0,0,0,21.13-35.32" transform="translate(16.24 -391.08)"/><path class="cls-13" d="M1133.77,558.35,1128.1,564l8.91,12,8-.26,1.88,5.09-2.73,11.88-5,6-2.36,3.94-3.7,16.12,7.47,8.77-4,17.45-9-2-11.86,4-1.95,8.48-5.44,1.48-4.36-.07-5,6,2.41,11.93,1.71,5-1.36,5.94-5.81,9.42-7.53,1-8.83-2.83-5.44,1.48-11.89,1-13.06,6-.21,23.12-9.7,4.11-1.46,15.88-1.72,7.48,9.18,17.16-4.45,3.48s-8.33-1.83-11.52-7-9.31,2.41-9.31,2.41l-11,2.82-8.68-2.7s-5.25.63-7.64-1.68-8.74-6.37-8.74-6.37l-5.19-9.16-9-2-5.75-.37-5.05-.22-2.34,10.18-25.06-5.5,1-4.24L929.14,738l-5.32-1.17c-.93-.2-8.1,5.65-8.1,5.65l-6,1.94s-4.86-1.07-5.89-4-4.44-3.95-4.44-3.95l-2.4-4.39-.41-4.55,1.88-8.2,7.14-16.26-1-8.53s-6.46-4.68-8.81-6.09-6.83,1.17-6.83,1.17l-8.85,9.94L874.29,707l-12.91,2.22.46-9.4,2.34-10.18,4-10.11,3.37-7.28,5.33-4.18L882,646l-3-5.11-5.33-3.25-3.52-5.82s1.75-7.63,3-10.93,2.78.61,2.78.61.65-10.25.39-11.23-2.36-1.38-3.18-1-10-2.18-10-2.18l-.89-8.81,5.2-5.69,9.12-11.13-1.59-5.8-4.6-1.14s-8.86-1.65-10-2.18-4.78-6.69-4.78-6.69,9.87-11.2,11.28-12.08,3.78-4.81,3.78-4.81l2.72-4.45-10.26-6.11,9-5.44,9.25-7.47-12.26-2.69,9.66-5.28,20.6-3.5,10-4.66s-6.21,78.08,2.73,86.66,47.53,72.3,61.11,73.5,62.09,15.41,82.47-19.33l32.31-23.21,18.06-18.31,10.71-24.38L1122,562l2.34-10.18,12.08-1.81Z" transform="translate(16.24 -391.08)"/><path class="cls-3" d="M832.27,582.64" transform="translate(16.24 -391.08)"/><path class="cls-14" d="M826.53,672.87l-.06,0a.43.43,0,0,1-.07-.23,108,108,0,0,1-1-20.34,65.92,65.92,0,0,1,.92-7.57c-3.24-8.11-6.64-19.91-3.67-29.35a3,3,0,0,0,.2-1,2.28,2.28,0,0,0-.25-.82,41.41,41.41,0,0,1-2.47-6.1c-1.48-5.4,0-9.53,1.75-14.86.27-.81.54-1.61.89-2.39a11.12,11.12,0,0,1,10.85-6.66c-.28,0-1.3-3.26-1.46-3.69a15.32,15.32,0,0,1-.87-3.79,12.92,12.92,0,0,1,2-8c2.12-3.47,5.61-7.2,9.15-8.3,4.5-1.4,9.19,2.61,12.14,5.69,1.48-2.09,4.32-2.29,6.33-2.41a14.21,14.21,0,0,1,7.61,2c3,1.64,5.33,3.47,6.54,7.1.39,1.16,2.15,11.74,1.31,11.89,6.21-1.16,9.87,4,11.6,10.09a53.06,53.06,0,0,1,1.66,9.83c.31,3.53-.28,6.79-.2,10.27.09,4,1.39,7.93,1.65,11.95a60.63,60.63,0,0,1-.86,15.4s-7.11,17.63-5.14,20.73c.18.27-3.58,1.32-3.81,1.37-3.46.82-6.94,1.46-10.42,2.1-9.32,1.71-18.64,3.21-28,4.68-5.36,1-10.76,1.67-16.13,2.48A.43.43,0,0,1,826.53,672.87Z" transform="translate(16.24 -391.08)"/><path class="cls-15" d="M832.56,587.86c-2.84,1-6.06,4.56-7.45,6.93a14.57,14.57,0,0,0-2,6.26,23.58,23.58,0,0,0,.3,4.89,6.22,6.22,0,0,0,3.83,5.21c3,1.24,6.58.86,8.89-2.46a17,17,0,0,0,2.64-9.62c0-3.63-.4-10.46-4.08-11.4A3.72,3.72,0,0,0,832.56,587.86Z" transform="translate(16.24 -391.08)"/><path class="cls-15" d="M842.37,568.22a12.75,12.75,0,0,0-3.9,3.49c-2.46,3.35-2.23,7.44-.73,10.84,2.4,5.45,6.78,9.36,12,4,1.65-1.69,2.17-4,2.4-6.32a42.74,42.74,0,0,0,.52-7.52,7.26,7.26,0,0,0-1.77-4.44c-1.17-1.18-2.81-.92-4.32-1.1A7,7,0,0,0,842.37,568.22Z" transform="translate(16.24 -391.08)"/><path class="cls-15" d="M858.37,569.29a3.42,3.42,0,0,1,.87-.52,8.89,8.89,0,0,1,7.08.51c2.88,1.6,4.35,5.48,4.84,9.11a13.05,13.05,0,0,1-.76,6.81c-.82,1.91-3.08,4.51-5,4.05a2.36,2.36,0,0,1-.74-.37c-4.85-3.2-7.52-10.16-7.38-16.88a4.49,4.49,0,0,1,.22-1.45A3,3,0,0,1,858.37,569.29Z" transform="translate(16.24 -391.08)"/><path class="cls-15" d="M873.5,598.34q0-.25,0-.5c0-2.31.23-5.78,1.63-7.75,2.54-3.58,6.87.42,8.74,2.34a5.39,5.39,0,0,1,.73.88,6.39,6.39,0,0,1,.66,1.64,23.41,23.41,0,0,1,1,9.15,11.71,11.71,0,0,1-1.09,3.8c-.41.81-1.59,2.85-2.45,3-3.24.59-6.33-2.36-7.61-5.3A19.42,19.42,0,0,1,873.5,598.34Z" transform="translate(16.24 -391.08)"/><path class="cls-15" d="M844.92,615.81l0,0a2.66,2.66,0,0,0,.31-1.28c.07-.51.14-1,.23-1.54a12.51,12.51,0,0,1,.83-3,11.94,11.94,0,0,1,3.51-4.58,14.65,14.65,0,0,1,10-2.81,9.22,9.22,0,0,1,5.6,1.85,8.76,8.76,0,0,1,2.72,6.58,7.59,7.59,0,0,0,.26,2.86,4.31,4.31,0,0,0,2.19,1.88,13.09,13.09,0,0,1,6.36,7.08c1.14,3.28.63,7.64-1.76,10.31-1.73,1.93-4.1,2.71-6.37,3.31a78.48,78.48,0,0,1-28,2c-2.46-.25-5.13-.76-6.57-3-1.77-2.73-1.21-7.87.61-10.81a23.66,23.66,0,0,1,3.57-4.48,22.07,22.07,0,0,1,4.41-3.3c.54-.32,1.12-.56,1.68-.83A1.28,1.28,0,0,0,844.92,615.81Z" transform="translate(16.24 -391.08)"/><path class="cls-3" d="M1149.26,655.08" transform="translate(16.24 -391.08)"/><path class="cls-14" d="M1130.38,737.12l.07,0a.42.42,0,0,0,.13-.19,99.58,99.58,0,0,0,6.39-18,58.37,58.37,0,0,0,1.17-7c5.24-6.61,11.63-16.5,11.36-25.56a2.58,2.58,0,0,1,.08-.94,2.24,2.24,0,0,1,.46-.69,41.54,41.54,0,0,0,4-5c2.85-4.54,2.61-8.53,2.35-13.68,0-.78-.08-1.56-.19-2.32a9.81,9.81,0,0,0-8.44-8.17c.27,0,2.1-2.66,2.37-3a14.78,14.78,0,0,0,1.84-3.22,11.2,11.2,0,0,0,.31-7.6c-1.06-3.53-3.35-7.59-6.39-9.29-3.87-2.17-9.36.48-13,2.64-.84-2.18-3.45-2.93-5.32-3.44a14.88,14.88,0,0,0-7.72.27c-3.24.87-6,2-8.08,5-.68,1-5.18,10.09-4.44,10.4-5.55-2.3-10.39,1.59-13.65,6.7a50.45,50.45,0,0,0-4.21,8.48c-1.24,3.1-1.57,6.14-2.58,9.24-1.15,3.54-3.45,6.83-4.77,10.37a54.51,54.51,0,0,0-3.34,14s2,17.24-.73,19.62c-.24.21,3,1.9,3.22,2,3,1.44,6.15,2.71,9.26,4,8.33,3.41,16.72,6.65,25.11,9.85,4.79,2,9.69,3.67,14.54,5.49A.43.43,0,0,0,1130.38,737.12Z" transform="translate(16.24 -391.08)"/><path class="cls-15" d="M1147.59,659.7c2.41,1.47,4.48,5.32,5.16,7.72a12.47,12.47,0,0,1,.18,6,21.82,21.82,0,0,1-1.6,4.33,6.49,6.49,0,0,1-5,3.89c-3.19.5-6.44-.56-7.72-4a14.7,14.7,0,0,1,.1-9.15c1-3.24,3.19-9.3,6.91-9.39A3.63,3.63,0,0,1,1147.59,659.7Z" transform="translate(16.24 -391.08)"/><path class="cls-15" d="M1143.63,640.12a10.81,10.81,0,0,1,2.74,3.92c1.42,3.5.1,7.12-2.23,9.86-3.73,4.4-8.91,7-12.37,1.19-1.1-1.85-1-4-.56-6.15a38.3,38.3,0,0,1,1.53-6.84,7.26,7.26,0,0,1,2.87-3.62c1.42-.82,2.9-.26,4.37-.11A6.57,6.57,0,0,1,1143.63,640.12Z" transform="translate(16.24 -391.08)"/><path class="cls-15" d="M1128.25,637.83a3,3,0,0,0-.68-.64,9,9,0,0,0-6.81-1c-3.15.85-5.57,4-7,7.18a11.6,11.6,0,0,0-1.12,6.26c.26,1.88,1.69,4.66,3.65,4.65a2.53,2.53,0,0,0,.8-.18c5.44-1.89,9.82-7.59,11.51-13.64a4,4,0,0,0,.18-1.34A2.47,2.47,0,0,0,1128.25,637.83Z" transform="translate(16.24 -391.08)"/><path class="cls-15" d="M1106.17,660.81l.14-.45c.62-2.07,1.34-5.22.55-7.27-1.43-3.72-6.59-1-8.87.33a5.72,5.72,0,0,0-.93.65,6.4,6.4,0,0,0-1.06,1.34,21.91,21.91,0,0,0-3.37,8,10.05,10.05,0,0,0,0,3.63c.17.81.73,2.88,1.5,3.19,2.9,1.19,6.6-.83,8.61-3.21A18.67,18.67,0,0,0,1106.17,660.81Z" transform="translate(16.24 -391.08)"/><path class="cls-15" d="M1128.41,682.25l0,0a2.3,2.3,0,0,1,.05-1.21c.07-.48.14-1,.2-1.43a10.75,10.75,0,0,0,0-2.83,10,10,0,0,0-2.07-4.82,13.64,13.64,0,0,0-8.63-4.53,9.72,9.72,0,0,0-5.78.53,8.78,8.78,0,0,0-4.34,5.35,7.08,7.08,0,0,1-1,2.51,4.62,4.62,0,0,1-2.57,1.24,13.88,13.88,0,0,0-7.91,5.06c-2,2.71-2.65,6.72-1.12,9.6,1.11,2.08,3.14,3.26,5.11,4.25a76.9,76.9,0,0,0,25.83,7.44c2.39.27,5,.36,7-1.33,2.41-2.09,3.26-6.81,2.34-9.81a19.76,19.76,0,0,0-2.16-4.74,18.93,18.93,0,0,0-3.27-3.85c-.43-.39-.91-.73-1.36-1.09A1.11,1.11,0,0,1,1128.41,682.25Z" transform="translate(16.24 -391.08)"/><path class="cls-16" d="M1120.66,575.48c-12.44,54.16-68.46,88-125.12,75.55S903,584.61,915.48,530.45s68.46-88,125.12-75.55S1133.11,521.32,1120.66,575.48Z" transform="translate(16.24 -391.08)"/><path class="cls-3" d="M1188.53,547.84c-.4.06-.8-.29-1.19-1A8.84,8.84,0,0,1,1188.53,547.84Z" transform="translate(16.24 -391.08)"/><path class="cls-16" d="M999.47,686.9c15.77,1.31,36.59.08,43.09-14,0,0,52.93-35.17,58.58-52.64,0,0,26.42-48.33,15.2-66.17,0,0,10.76-23,25-27.92Z" transform="translate(16.24 -391.08)"/><path class="cls-16" d="M917.43,488.45c-1,.45-7.13,15.05-7.13,15.05s-.27.62-.75,1.76c-4.13,10-23.42,59.88-6,82.31,0,0,5.15,25.19,23.28,43.87,0,0,19.22,49.66,53.56,52.52,0,0,2.8.69,7.24,1.44Z" transform="translate(16.24 -391.08)"/><path class="cls-3" d="M996.46,426.49s-14.18,28.08-23.2,35.6c0,0-1.8,1.58-3.32,2.75l.47-.9c.69-1.35,1.38-2.72,2.06-4.15,2.42-5,4.75-10.58,6.94-16.64,0,0,1.25-41.16,7.65-40.42C987,402.73,1012.26,402,996.46,426.49Z" transform="translate(16.24 -391.08)"/><path class="cls-16" d="M967.93,466.07a5.92,5.92,0,0,0,2-1.23c-20.39,38.94-45.42,45.8-45.42,45.8-5.42-.19-36.41-58.11-36.41-58.11-8.23-33.22,14.44-51,14.44-51,8.44-8.17,84.38-10.21,84.38-10.21,40.26-3.86,17.46,35.91,17.46,35.91,2.08.46,65.42,5.67,69.41,19.24,0,0,19.18-33.88,72.68,1.25,0,0,50.38,17.74,53.69,103.34,0,0-1.49,18.39-14.27.21,0,0-37.22,2.52-44.54-25.14,0,0-14.4,16.5-18.34,31.42Z" transform="translate(16.24 -391.08)"/><path class="cls-3" d="M992.29,653.7s-15.35-6-16-12.86c0,0-17.6-29.71,19.49-34,0,0,33.23,3,28.91,23.34C1024.71,630.13,1022.7,657.7,992.29,653.7Z" transform="translate(16.24 -391.08)"/><path class="cls-14" d="M1041.88,601a228.75,228.75,0,0,0-3.62-28.58c-4.27-22.18-10.43-47.89,2.65-69.67,5.6-9.33,12.2-19.08,11.94-30.84-.19-8.75-6-19.72-13.89-20.91-18.86,1.81-22.56,22-23.57,40.54-1,19,1.89,42.26-12.15,57-5.41,5.67-11.86,9.6-17.95,14.1-17.07,12.62-22.12,32.92-31.73,52.47-8.91,18.14-10.45,37.88.79,53,12.2,9.93,23.46,15,33.27,17.31,3.22.55,7.3,1.13,11.79,1.5h0c12.8.27,29.91-3.43,37-19,5.77-12.77,5.81-28.47,6-42C1042.56,617.33,1042.41,609.1,1041.88,601Zm-49.6,52.72s-15.35-6-16-12.86c0,0-17.6-29.71,19.49-34,0,0,33.23,3,28.91,23.34C1024.71,630.13,1022.7,657.7,992.29,653.7Z" transform="translate(16.24 -391.08)"/><path class="cls-17" d="M992.29,653.7s-15.35-6-16-12.86c0,0-17.6-29.71,19.49-34,0,0,33.23,3,28.91,23.34C1024.71,630.13,1022.7,657.7,992.29,653.7Z" transform="translate(16.24 -391.08)"/><path class="cls-18" d="M992.86,478.23c-1,.29-2,.69-2.92.86-4.06.82-8.46,1.54-12.29,3.8-2.82,1.66-5.45,4.24-8.58,4.77-3.42.58-6.24-.81-9.69,1.23a14.38,14.38,0,0,0-5.9,7.31c-2.44,6.52,12.3,4.11,15.21,3.12,4.57-1.55,8.61-5,13.12-6.71,4.27-1.66,9.58-.19,13.27-4a11.18,11.18,0,0,0,2.44-4.31c.62-1.92.76-4.32-.45-5.55S994.4,477.79,992.86,478.23Z" transform="translate(16.24 -391.08)"/><path class="cls-19" d="M1058.86,498a32.42,32.42,0,0,0,.52,8.93c.88,4.9,5.25,7.38,9,8.54,3.33,1,6.88,1.56,9.76,3.67s5,5.93,7.79,8.51a6.19,6.19,0,0,0,3.22,1.78,3.52,3.52,0,0,0,3.41-1.58,6.21,6.21,0,0,0,.82-2.89c.43-5.79-3.25-10.1-7-12.7-2.63-1.85-5.6-3-8.08-5.14a52.26,52.26,0,0,1-5.07-5.5,29.69,29.69,0,0,0-9.34-7.17C1060.59,492.9,1059.26,494.95,1058.86,498Z" transform="translate(16.24 -391.08)"/><path class="cls-20" d="M973.4,503.65c-1.39.48-2.77,1.16-4.17,1.57a9.42,9.42,0,0,1-4.05.19,16.4,16.4,0,0,0-3.26-.56,27.08,27.08,0,0,0-3.61.75,3.44,3.44,0,0,0-2,1c-.31.35-.93,1.45-.59,1.92a.57.57,0,0,0,.28.19c1.49.58,3-.18,4.56-.56,2.15-.54,4.44-.31,6.59-.43,2-.11,4-.06,6-.34a4,4,0,0,0,2.38-1.21c.39-.39,1.71-1.61,1.32-2.3C976.14,502.66,974.43,503.3,973.4,503.65Z" transform="translate(16.24 -391.08)"/><path class="cls-20" d="M1071.18,525.37c1.09,1,2.07,2.1,3.19,3a9.2,9.2,0,0,0,3.65,1.7,16.36,16.36,0,0,1,3.23.7,26.08,26.08,0,0,1,3,2,3.28,3.28,0,0,1,1.44,1.71c.14.44.26,1.68-.24,2a.59.59,0,0,1-.33.07c-1.61,0-2.72-1.3-4-2.23-1.76-1.3-4-1.95-5.89-2.87-1.78-.85-3.69-1.57-5.4-2.57a3.84,3.84,0,0,1-1.7-2c-.2-.5-.92-2.12-.27-2.61C1069.07,523.43,1070.38,524.66,1071.18,525.37Z" transform="translate(16.24 -391.08)"/><path class="cls-21" d="M1189.71,547.51a35.67,35.67,0,0,0-6.55-3.42s-31.34-.07-35.1-16.48a11.11,11.11,0,0,0-9.86-4.68s-44.91,25.79-52.38-67.93c-.19-2.35,12.19-16.34,30-5,0,0,33.71,2.64,40.59,10.69,0,0,18.31,7,26.23,47.64C1182.62,508.34,1186.08,541.42,1189.71,547.51Z" transform="translate(16.24 -391.08)"/><path class="cls-22" d="M960.2,512a11.52,11.52,0,0,0-2,4.61,9.19,9.19,0,0,0,.57,5.44,14.13,14.13,0,0,0,3.26,4.45,6.3,6.3,0,0,0,4.41,1.77,8.27,8.27,0,0,0,4.61-1.84c3.93-2.87,4.92-8.89,4.18-13.59a5.71,5.71,0,0,0-.7-2.08,5.19,5.19,0,0,0-2.77-2.2,10.41,10.41,0,0,0-5.22-.75A9.88,9.88,0,0,0,960.2,512Z" transform="translate(16.24 -391.08)"/><path class="cls-23" d="M972.25,512.48c1.91,3.84.56,9.22-3,12s-8,2-10-1.87-.56-9.22,3-12S970.34,508.65,972.25,512.48Z" transform="translate(16.24 -391.08)"/><path class="cls-24" d="M968.86,518.64c-.45,1.94-2.09,3.23-3.68,2.88s-2.51-2.2-2.07-4.14,2.09-3.23,3.68-2.88S969.3,516.7,968.86,518.64Z" transform="translate(16.24 -391.08)"/><path class="cls-25" d="M962.78,513.69a19.57,19.57,0,0,0-1.89,8.33c.18,2,1.32,1.61,2.55-1a19.55,19.55,0,0,0,1.89-8.34C965.14,510.69,964,511.13,962.78,513.69Z" transform="translate(16.24 -391.08)"/><path class="cls-22" d="M1065.12,535.93a11.52,11.52,0,0,0-2,4.61,9.19,9.19,0,0,0,.57,5.44,14.13,14.13,0,0,0,3.26,4.45,6.3,6.3,0,0,0,4.41,1.77,8.27,8.27,0,0,0,4.61-1.84c3.93-2.87,4.92-8.89,4.18-13.59a5.71,5.71,0,0,0-.7-2.08,5.19,5.19,0,0,0-2.77-2.2,10.41,10.41,0,0,0-5.22-.75A9.88,9.88,0,0,0,1065.12,535.93Z" transform="translate(16.24 -391.08)"/><path class="cls-23" d="M1077.17,536.4c1.91,3.84.56,9.22-3,12s-8,2-10-1.87-.56-9.22,3-12S1075.26,532.57,1077.17,536.4Z" transform="translate(16.24 -391.08)"/><path class="cls-24" d="M1073.78,542.56c-.45,1.94-2.09,3.23-3.68,2.88s-2.51-2.2-2.07-4.14,2.09-3.23,3.68-2.88S1074.22,540.62,1073.78,542.56Z" transform="translate(16.24 -391.08)"/><path class="cls-25" d="M1067.7,537.61a19.57,19.57,0,0,0-1.89,8.33c.18,2,1.32,1.61,2.55-1a19.55,19.55,0,0,0,1.89-8.34C1070.06,534.61,1068.93,535,1067.7,537.61Z" transform="translate(16.24 -391.08)"/><path class="cls-26" d="M446.13,547.36a2.16,2.16,0,0,0,2.95,0c2.22-1.85,5.14-2.75,7.73-3.54a122.92,122.92,0,0,1,27.6-4.83c4.62-.32,9.24-.43,13.86-.39,4,0,8.57-.28,12,2.37,1.73,1.33,9-27.47,30.65-18.13a8.08,8.08,0,0,0,2.16.6c4.54.59,22.37,6,7.22,55.33a3.09,3.09,0,0,0,0,1.81c1.16,3.75,5.37,18.69,2.69,29.46a3.12,3.12,0,0,0-.09,1,95.55,95.55,0,0,1-7.47,43.4,71.51,71.51,0,0,1-20.17,27.15c-13.29,10.85-27.36,16-43.32,13.76A113.11,113.11,0,0,1,457.07,689c-19.49-7.51-37.7-22.41-42.15-47.09a76.78,76.78,0,0,1-1-17.43,3,3,0,0,0-.07-.81c-.53-2.37-3.1-15.35,1-25.94a3.08,3.08,0,0,0-.14-2.57c-3.57-6.5-18.87-37.07-1.63-54.13a2.65,2.65,0,0,0,.38-.47C414.7,538.62,423.73,526.41,446.13,547.36Z" transform="translate(16.24 -391.08)"/><path class="cls-27" d="M483.27,582.95a39,39,0,0,0-8.52-.15,28.19,28.19,0,0,0-15,6.45c-.88.75-2,1.23-2.95,1.94-10.66,8.22-13.69,22.93-11.07,36.77,1.38,7.28,2.26,14.7,4.36,21.75,1.61,5.41,3.64,11.17,7.76,14.59,3.44,2.85,6.31,6.53,9.75,9.43,4.14,3.51,8.86,6.66,14,7.65a14.11,14.11,0,0,0,5,.11s21.06-5.3,27.13-19.54a67.91,67.91,0,0,0,11.72-19.21,38.17,38.17,0,0,0,2.44-9c.49-3.71-.23-7.37-.3-11.07-.06-3,0-6-.37-9-.67-6-2.47-11.88-6.24-16.16-.8-.91-1.64-1.77-2.47-2.63-5.29-5.46-10.51-11.49-18-12.24-3-.31-6.19.41-9.24.61A50.55,50.55,0,0,1,483.27,582.95Z" transform="translate(16.24 -391.08)"/><path class="cls-28" d="M464.12,655.33s14.89-1.82,24.55-12c0,0,10.63,10,18.74,10.16" transform="translate(16.24 -391.08)"/><path class="cls-29" d="M420.46,536.32h0a7.47,7.47,0,0,1,2.62.32q1.18.25,2.35.58a36.08,36.08,0,0,1,5.85,2.19,27.45,27.45,0,0,1,6.11,3.93,19.91,19.91,0,0,1,4.83,6.1c.07.13.14.27.2.41l.91,2.08s-24.95,20.81-27.73,42c0,0-20.81-34.93-2.07-52.26.31-.29.57-.74.86-1.07a16.88,16.88,0,0,1,2.66-2.37,17.61,17.61,0,0,1,1.71-1.09A5.19,5.19,0,0,1,420.46,536.32Z" transform="translate(16.24 -391.08)"/><path class="cls-29" d="M511.14,542.17s10.92-28.13,27.93-18.23c0,0,23.89-1.5,8.23,54C547.3,577.9,532.38,551.73,511.14,542.17Z" transform="translate(16.24 -391.08)"/><path class="cls-30" d="M440.13,585.57c-.59-4-.86-14.8,13.2-13.81A1.41,1.41,0,0,1,454.6,573c.32,2.9-.18,10.38-12.8,13.7A1.36,1.36,0,0,1,440.13,585.57Z" transform="translate(16.24 -391.08)"/><path class="cls-31" d="M446.9,578.27c-1.2,1.47-3,1.79-3.94.71s-.8-3.14.39-4.61,3-1.79,3.94-.71S448.09,576.8,446.9,578.27Z" transform="translate(16.24 -391.08)"/><path class="cls-32" d="M446,577c-.81,1.23-2,1.73-2.74,1.1s-.63-2.13.17-3.36,2-1.73,2.74-1.1S446.78,575.73,446,577Z" transform="translate(16.24 -391.08)"/><path class="cls-30" d="M509.54,564.28c4-.12,14.87.72,14.17,13.41a1.45,1.45,0,0,1-2,1.21c-3.87-1.38-12.67-5.36-13.55-13.16A1.35,1.35,0,0,1,509.54,564.28Z" transform="translate(16.24 -391.08)"/><path class="cls-33" d="M519.74,570.7c-.76,1.24-2.45,1.35-3.78.26a3.43,3.43,0,0,1-1-4.22c.76-1.24,2.45-1.35,3.78-.26A3.43,3.43,0,0,1,519.74,570.7Z" transform="translate(16.24 -391.08)"/><path class="cls-34" d="M519.44,568.65a1.66,1.66,0,0,1-2.38.74,2.09,2.09,0,0,1-1.25-2.43,1.66,1.66,0,0,1,2.38-.74A2.09,2.09,0,0,1,519.44,568.65Z" transform="translate(16.24 -391.08)"/><path class="cls-35" d="M460.79,619s-65.34-11.85-88.74,2.19" transform="translate(16.24 -391.08)"/><path class="cls-36" d="M459.62,635.63s-45.93,25.82-69.33,79.24" transform="translate(16.24 -391.08)"/><path class="cls-35" d="M460.26,628.63s-64.39,15.44-81.56,48.52" transform="translate(16.24 -391.08)"/><path class="cls-36" d="M516,612.77s32-39.72,78.85-30.14" transform="translate(16.24 -391.08)"/><path class="cls-37" d="M485.74,595.28s-36.06-3.39-23,24.24c0,0,13.15,16.68,26.21,15.3,0,0,21.61-9.31,21.41-15.53C510.39,619.29,526.68,588.62,485.74,595.28Z" transform="translate(16.24 -391.08)"/><path class="cls-36" d="M515.38,624.84s15.59-11.27,76.74,8.42" transform="translate(16.24 -391.08)"/><path class="cls-36" d="M514.72,637s69.12,22.26,71.39,59.79" transform="translate(16.24 -391.08)"/><line class="cls-28" x1="504.58" y1="229.42" x2="504.92" y2="252.24"/><path class="cls-38" d="M473.59,604.29S485,589.78,500.06,604c0,0,5.89,11-11.72,16.45C488.33,620.5,467.33,617.68,473.59,604.29Z" transform="translate(16.24 -391.08)"/><ellipse class="cls-39" cx="480.64" cy="611.68" rx="1.68" ry="1.44" transform="translate(-140.02 667.26) rotate(-86.88)"/><ellipse class="cls-39" cx="494.54" cy="610.4" rx="1.68" ry="1.44" transform="translate(-125.6 679.93) rotate(-86.88)"/><path class="cls-38" d="M478.5,650.72s10.19,8.87,19.45-.49" transform="translate(16.24 -391.08)"/><path class="cls-40" d="M482.11,649.41a52.64,52.64,0,0,0,5.95-4.38c.16-.13.4-.49.63-.42a3.61,3.61,0,0,1,.67.39l.81.48,2.19,1.29c1.54.91,3.08,1.81,4.64,2.67.29.16.09.61,0,.74-2.93,3-14.55,4.66-16.37.26-.06-.16,1.11-.8,1.23-.87Z" transform="translate(16.24 -391.08)"/><path class="cls-41" d="M655.6,556.74c.76-1.24-7.64-7.31-9-23a5.28,5.28,0,0,0-2.08-3.78c-7.28-5.44-32.7-29.14-31.21-93.75a5.07,5.07,0,0,1,7.95-4.14c11.32,7.92,34,25.22,58.83,52.23a5.23,5.23,0,0,1,.44.55c2.06,2.95,19.2,27.75,23.37,41a5.12,5.12,0,0,0,5,3.61,15.52,15.52,0,0,1,3.41.35A5.13,5.13,0,0,0,717.9,527c4-7.8,8.07-15.73,12.69-23.23s9.63-15,16-21a36,36,0,0,1,3.92-3.2c2-1.41,4.19-2.39,6.1-3.92,2.3-1.84,4.66-3.61,7-5.34,3.61-2.62,7.78-4.68,11.16-7.62,1.87-1.63,3.71-3.34,5.65-4.92a130.22,130.22,0,0,1,16.3-11.61c4.61-2.71,9.8-5.43,15.2-5.85a5.08,5.08,0,0,1,5.42,4.6c.65,6.6-.09,22.33-11.63,55.06,0,.11-.08.22-.13.32-1,2.22-11.69,26.36-31.87,39.59a5.12,5.12,0,0,0-2.23,3.39c-.64,3.61-2.73,11.39-9.5,20.65a5.27,5.27,0,0,0,.07,6.32c5.74,7.42,19.7,26.57,24.69,43.59,0,0,20.09,62.55-44.74,62.87a5.26,5.26,0,0,0-2.28.52c-5.89,2.87-37.57,15.65-95.94-7.66,0,0-40-16.8-24.85-61.12l.08-.25c.47-1.71,7-24,32.55-43A5.09,5.09,0,0,0,653.5,562,14.89,14.89,0,0,1,655.6,556.74Z" transform="translate(16.24 -391.08)"/><path class="cls-42" d="M703.38,544.11a16.66,16.66,0,0,0-6.61,6.61,26.45,26.45,0,0,0-1.45,5c-.77,3.06-1,6.27-2,9.27-.92,2.73-3,4.72-4.4,7.15a31.71,31.71,0,0,0-2.77,7.11q-2.76,9.08-6.12,17.95c-2.07,5.49-4.62,10.71-6.38,16.34-1.06,3.81-1.39,7.45-4.08,10.52-1.21,1.39-2.39,2.8-3.48,4.29A49.83,49.83,0,0,0,659,641.64c-4.33,12.79-.42,25.25,9.31,34.24,0,0,2,1.91,2.15,1.94s45.74,12.45,68.66-1.3a6.68,6.68,0,0,0,1.88-1.73c7.45-9.9,13-24.61,7-36.59a37.19,37.19,0,0,0-5.37-7.68c-2.64-3.08-3.56-6.23-4.9-10a42.12,42.12,0,0,0-5.66-11.25c-2.24-3-3.24-6.49-4.11-10.08-1-4.27-2.17-8.5-3.57-12.66a44.21,44.21,0,0,0-3.88-9.39c-1.7-2.76-4-5.37-4.93-8.51-1.14-3.62-.54-7.55-1.47-11.22a39.91,39.91,0,0,0-5.32-12.36C707.45,543.07,705.41,543.12,703.38,544.11Z" transform="translate(16.24 -391.08)"/><path class="cls-43" d="M713.62,639.13l-14.29,9.54,5.45.7-15.06-11.7c-4.52-3.51-10.93,2.81-6.36,6.36l15.06,11.7c1.52,1.18,3.66,1.9,5.45.7l14.29-9.54c4.79-3.2.29-11-4.54-7.77Z" transform="translate(16.24 -391.08)"/><path class="cls-44" d="M701.6,652.56l-.48,16.89s-3.7,3.38-6,2.72" transform="translate(16.24 -391.08)"/><path class="cls-44" d="M706.36,673.05s-1.71.56-5.24-3.6" transform="translate(16.24 -391.08)"/><path class="cls-45" d="M664.48,577.18c-.23,3.31-1.67,5.91-3.22,5.79s-2.6-2.89-2.37-6.2,1.67-5.91,3.22-5.79S664.72,573.87,664.48,577.18Z" transform="translate(16.24 -391.08)"/><path class="cls-45" d="M752.22,583.64c-.23,3.31-1.67,5.91-3.22,5.79s-2.6-2.89-2.37-6.2,1.67-5.91,3.22-5.79S752.46,580.33,752.22,583.64Z" transform="translate(16.24 -391.08)"/><path class="cls-46" d="M617.81,436.24c.64-.4,1.74.53,2.86,1.49l18.27,15.8c5.31,4.6,10.63,9.19,16.23,13.44,3.1,2.35,6.29,4.59,9.24,7.13A82.72,82.72,0,0,1,679,491.16a136,136,0,0,1,17,36.09,4.09,4.09,0,0,1,.24,2.12c-.37,1.49-2.14,2.06-3.63,2.38-11.1,2.38-23,5.61-29.89,14.65-1,1.26-2.11,2.76-3.68,2.6-1.28-.13-2.14-1.35-2.77-2.47a40.3,40.3,0,0,1-3.53-8.49,52.88,52.88,0,0,0-1.59-5.31,34.55,34.55,0,0,0-3.94-6.58,176.8,176.8,0,0,1-22.83-44.81,140,140,0,0,1-5.83-24.45,124.49,124.49,0,0,1-1.15-12.5c-.09-2.09-.13-4.2-.09-6.29C617.27,437,617.48,436.44,617.81,436.24Z" transform="translate(16.24 -391.08)"/><path class="cls-46" d="M726.17,527.17c6.34-14.34,24.27-49.28,51.89-58.61a4.59,4.59,0,0,0,2.42-2,47.59,47.59,0,0,1,27.76-20.31,4.79,4.79,0,0,1,5.93,5.36c-1.84,16.22-12,58-41.76,81.23a4.82,4.82,0,0,0-1.73,2.63c-.94,3.74-3.56,13.18-7.41,19.19a4.68,4.68,0,0,1-8-.2c-4-6.85-12.55-18.3-25.71-20.69A4.77,4.77,0,0,1,726.17,527.17Z" transform="translate(16.24 -391.08)"/><path class="cls-41" d="M617.67,432s66.3,70.65,46.84,117.81c0,0,9.81-12.07,37.8-17.68,0,0-12.47-36.36-27.21-51C675.1,481.17,633.48,436.46,617.67,432Z" transform="translate(16.24 -391.08)"/><path class="cls-41" d="M722,534l-.19-.24c-2.69-3.67,5.13-15.37,7-18.65a133.54,133.54,0,0,1,11.86-17.79A127.59,127.59,0,0,1,755,481.93q4-3.63,8.27-6.86c1.64-1.24,7.4-3.83,8.18-5.65-9.07,21.24-18.19,42.66-23.16,65.46-.89,4.08-1.41,9,1.41,11.79l-25.12-11A6.92,6.92,0,0,1,722,534Z" transform="translate(16.24 -391.08)"/><path class="cls-41" d="M778.74,467.51l-24.91,11.44L758.35,490S766.48,473.74,778.74,467.51Z" transform="translate(16.24 -391.08)"/></svg>