<svg id="圖層_1" data-name="圖層 1" xmlns="http://www.w3.org/2000/svg" viewBox="0 0 1192.5 683"><defs><style>.cls-1,.cls-2{fill:#e6e6e6;}.cls-1{opacity:0.6;}.cls-2{opacity:0.53;}</style></defs><title>bg</title><path class="cls-1" d="M693.42,447.79c-9.76,71.2-42,141.63-83.11,195.33-72.82,95.05-209.49,113.17-316.74,96.21a274.08,274.08,0,0,1-62.44-17.42C98.92,666.95-18.2,478.44,8.95,326.33,27,225,115.42,134.62,202.76,93.57,301,47.39,418.24,56.2,518,92.18q4.38,1.58,8.74,3.25c51,19.49,102.22,59.17,120.67,115.44,17.9,54.57,42.82,109.92,48,168.13A308.08,308.08,0,0,1,693.42,447.79Z" transform="translate(-5 -62)"/><path class="cls-2" d="M1158.65,607.79a162.71,162.71,0,0,1-14.18,30.54C1113,690,1037.84,719.5,976,731.52c-49.85,9.69-96.9-6.2-145.57-17.64q-6.55-1.5-13-3.12c-34.52-8.69-67.6-20.8-97.05-42.38q-5.92-3.71-11.69-7.6a344.85,344.85,0,0,1-62.37-53.49q-4.38-5.43-8.57-11.06c-58.66-78.86-89.07-186.78-59.26-270.36,17.29-48.49,57.13-90,104.2-119.78q5.43-3.44,11-6.67c97.54-57,232.21-62.16,339.45-11.83,67.66,31.76,120.11,83.85,145.31,148.78,12.67,32.65,18.41,67,19,101.14.8,42.53-11,75.41-22.88,115.46C1169.2,571.17,1165,589.87,1158.65,607.79Z" transform="translate(-5 -62)"/></svg>