<svg id="圖層_1" data-name="圖層 1" xmlns="http://www.w3.org/2000/svg" viewBox="0 0 359.59 185.51"><defs><style>.cls-1{fill:#dbd2c9;stroke-width:4px;}.cls-1,.cls-2,.cls-3,.cls-4,.cls-5,.cls-8,.cls-9{stroke:#000;stroke-miterlimit:10;}.cls-2,.cls-3,.cls-4,.cls-5,.cls-6{fill:#fab360;}.cls-2{stroke-width:0.5px;}.cls-3,.cls-8,.cls-9{stroke-width:0.75px;}.cls-4{stroke-width:0.25px;}.cls-7{fill:none;}.cls-8{fill:#fdf6eb;}.cls-9{fill:#343c45;}</style></defs><title>bookingroom_01</title><path class="cls-1" d="M427.67,288c-5.79,3.58-13.28,2.75-19.49.9-.84-.23-1.66-.48-2.47-.74l-2.37-.76c-.84-.1-1.67-.16-2.5-.2s-1.66-.06-2.49-.07h-2c-2.65,0-5.31.13-7.95.18l-2.88,0c-4.2,0-8.39-.06-12.59-.13a23.25,23.25,0,0,0-2.61.1c-6.7,2.51-13.18,2.3-19.75,1q-1.23-.24-2.49-.54a80.31,80.31,0,0,0-13.81-.77c-.93,0-1.86.06-2.8.11q-2.82.5-5.6.81t-5.55.41a91.86,91.86,0,0,1-11-.39c-1.83-.16-3.64-.34-5.42-.53-6.09-.32-12.17-.27-18.24-.22-.92.08-1.82.14-2.76.26s-1.77.46-2.67.66-1.78.38-2.68.53q-1,.25-2.09.43t-2.1.3c-7.8,1.23-15.46,0-23.25-1.19l-2.67-.38c-8.17.15-16.14,1.06-24.31-.17-.93-.14-1.87-.3-2.83-.49-4.61.83-9.12,1.94-13.6,2.29-.94.07-1.88.11-2.85.11a54.83,54.83,0,0,1-12-1.85c-.62-.14-1.25-.25-1.87-.33s-1.25-.17-1.88-.22c-8.82.28-17.65-.28-26.46-.09-1.15,0-2.3.07-3.44.09H147.85c-5.56.33-11.15.56-16.78.52q-2.81,0-5.64-.15c-4.39-.19-8.79-.28-13.19-.33l-2.65,0h-7.22q-1.35-.46-2.69-.83c-.89-.25-1.78-.46-2.68-.67A27.44,27.44,0,0,0,94.2,285c-5.91-1.18-11.53,1.59-17.41.2-4.15-1-4.61-4.29-4.29-8.17.08-1,.21-2,.38-3,1.62-5.55,1.44-11.28.87-17q-.12-1.23-.27-2.46c-.7-7.54.37-15.28-.58-22.87,0-1,0-2.09,0-3.15v-6.41c0-1.08,0-2.16,0-3.25a123.19,123.19,0,0,0,0-26.52c0-1.12,0-2.22,0-3.33V163.42q0-1.53,0-3a138.18,138.18,0,0,0,0-24.12c0-.88.08-1.75.13-2.65s.08-1.65.12-2.47.06-1.79.1-2.68.1-1.78.16-2.66c1.53-5.44-.88-17.61,7.15-16.78.9.14,1.8.31,2.7.49,3.52.25,7,.62,10.47,1.06l2.6.32c2.65.19,5.3.27,8,.32l2.69,0a165.6,165.6,0,0,1,24.9,1.5l2.07.3h7a138,138,0,0,1,14.16-.73l2.82,0c8.18,0,16.37-2.46,24.75-1.34.93.12,1.86.29,2.8.51a43.17,43.17,0,0,0,12.49,1.66c.84,0,1.68,0,2.52,0,9.32-.46,18.56-.31,27.83-.16l3.09,0c5.89.3,11.72.07,17.55,0l2.92,0c7.42-.11,14.88-.35,22.43-.09l2.52.1c8.17.14,16.47-.41,24.73,0h9.39c7.49.1,15.15.12,22.69.06l2.82,0c6.6-.19,13.55-.19,20.24,0h12.78c6.21-.15,12.37-.43,18.65,0h2.12c2.58,0,5.15,0,7.72,0l2.61-.05c.83,0,1.67-.09,2.52-.16s1.71-.16,2.58-.25c6.94-.47,15.77-3.51,20.59,2.3,3.48,4.15-.27,10,1,15.1q.14,1.18.25,2.37c.08,1,.14,2,.17,3A85.78,85.78,0,0,1,426,151.5q-.22,1.35-.44,2.7a20.64,20.64,0,0,0-.3,7.4c.09.83.21,1.66.35,2.49a48.72,48.72,0,0,1,2.05,10.51c.07.88.12,1.76.15,2.64a135.42,135.42,0,0,1-.39,13.58c-.07.91-.15,1.83-.23,2.75-.73,6.51-.76,13-.95,19.4,0,.93-.06,1.86-.1,2.8,0,1.94,0,3.88.15,5.82a68,68,0,0,1,.71,7.54q0,1.26,0,2.53c-.08,2.74-.29,5.45-.54,8.15q-.13,1.35-.27,2.7c-.27,1.82-.47,3.63-.61,5.44q-.11,1.36-.17,2.74a78.26,78.26,0,0,0,.55,8.38c.05.94.11,1.9.12,2.88a40.78,40.78,0,0,0-.77,9.81q.07,1.21.23,2.41a10.73,10.73,0,0,0,.25,2c.14.66.33,1.32.54,2,.63,2.9,2,5.39,1.61,8C427.8,287.34,427.67,288,427.67,288Z" transform="translate(-70.41 -107)"/><polygon class="cls-2" points="275.39 106.28 285.45 110.08 305.48 110.2 295.43 106.73 275.39 106.28"/><path class="cls-2" d="M355.81,221.56v1.09l20,.13v-1.09h.05l.05-4.48-20-.13v1.09h0l0,3.39Zm1.54-3.38,17.07.11,0,3.39-17.07-.11Z" transform="translate(-70.41 -107)"/><polygon class="cls-3" points="285.39 115.56 274.5 110.52 274.81 106.22 285.39 110.08 285.39 115.56"/><rect class="cls-4" x="286.94" y="111.18" width="17.04" height="3.5"/><polygon class="cls-5" points="117.92 80.74 117.92 113.96 113.27 115.94 113.14 115.99 111.33 116.75 107.3 118.46 106.59 78.02 117.92 80.74"/><polygon class="cls-5" points="293.36 82.55 293.36 106.17 117.92 106.17 117.92 80.56 293.36 82.55"/><polygon class="cls-5" points="102.33 115.74 100.98 78.07 106.49 77.95 107.85 116.15 102.35 116.26 102.33 115.74"/><polygon class="cls-5" points="135.32 110.75 131.29 112.29 131.2 112.33 131.15 112.33 131.15 110.77 131.29 110.77 135.32 110.75"/><line class="cls-6" x1="107.3" y1="114.56" x2="107.3" y2="109.64"/><path class="cls-6" d="M188.33,214.91" transform="translate(-70.41 -107)"/><line class="cls-7" x1="111.33" y1="112.33" x2="111.33" y2="109.64"/><line class="cls-7" x1="111.33" y1="114.34" x2="111.33" y2="113.45"/><polygon class="cls-4" points="117.92 105.78 136.42 105.78 131.29 107.73 111.44 107.63 117.92 105.78"/><polygon class="cls-4" points="129.71 110.77 129.71 112.33 112.75 112.28 112.72 112.28 117.76 110.83 117.79 110.83 129.71 110.77"/><path class="cls-4" d="M201.58,215.83a8.89,8.89,0,0,0,0-1.11H182.1a3.36,3.36,0,0,0-.46,0c-.3.08,0,5.45,0,5.73h19.92v-1.12S201.58,215.85,201.58,215.83Zm-1.47,3.5h-17v-3.48h17Z" transform="translate(-70.41 -107)"/><polygon class="cls-6" points="117.92 108.92 117.92 110.79 117.79 110.83 117.79 110.83 112.75 112.28 112.72 112.29 112.72 108.89 117.92 108.92"/><rect class="cls-4" x="117.92" y="108.85" width="11.78" height="1.92"/><polygon class="cls-5" points="136.66 110.9 131.29 113.45 131.29 107.73 136.6 105.78 136.66 110.9"/><path class="cls-8" d="M211.32,214a19.59,19.59,0,0,1-3,.14l-1.52.06a26.62,26.62,0,0,0-7.29,1.41c-.55.19-1.08.39-1.63.61-.39.17-.79.37-1.19.58l-1.23.63c-1.66.44-3.3.92-4.92,1.42l-1.64.51c-2.94.94-5.86,1.83-8.79,2.67l-2,.5-3.62.62c-1.21.2-2.42.41-3.62.64l-1.8.27-1.92.28c-2.32.42-4.64.78-6.91,1.21-1.14.21-2.27.45-3.35.74-.51.13-1,.29-1.49.46s-1,.37-1.45.58a54.29,54.29,0,0,1-5.1,2.17l-2,.58a31.25,31.25,0,0,1-11.19,2.06,18.46,18.46,0,0,0-3.09.75l-1.39.51A45.93,45.93,0,0,1,126.6,235c-.39.1-.79.19-1.19.27a37.63,37.63,0,0,0-17.25,4.59l-1.51.72-1.51.71a7.33,7.33,0,0,1-3.08.85,21.56,21.56,0,0,0,4,.72q.68.06,1.36.07c4.2-.22,8.42-.79,12.69-1.07l1.77-.1,1.18,0h1.19c1.93,0,3.87.08,5.82.18l1.95.1c2.7.12,5.31.34,8.06.34q.82,0,1.67,0c1.79-.13,3.57-.16,5.35-.13l1.78.05c1.22,0,2.45.08,3.68.17l1.85.14c3.07.16,6.11.13,9.15.1l1.83,0c3.16,0,6.3,0,9.44.18l1.88.13c4.16.21,8.56,1.64,12.73.85l1.23-.17c.82-.12,1.63-.28,2.44-.44l1.92-.42a19.94,19.94,0,0,1,5-.44c.6.06,1.19.12,1.85.21a46.64,46.64,0,0,0,12.68.52,24.79,24.79,0,0,0,3.19-.63,11.44,11.44,0,0,1,3.11.14c2.93.57,5.68,1.42,8.79,1.28.43,0,.84-.12,1.25-.2l1.24-.26a10,10,0,0,1,3.36-.39c1.24.07,2.46.1,3.68.09H241c.62,0,1.25,0,1.89.09a24.37,24.37,0,0,0,3.43.26c1.15,0,2.31,0,3.48,0,.66.09,1.33.15,2,.2,1.54.09,3,.12,4.53.12l1.48,0a67.41,67.41,0,0,1,6.79-.23l1.71.06a55.82,55.82,0,0,1,11.09.71l1.62.29c1.79.43,3.25-.71,4.9-.85a57.85,57.85,0,0,1,6.66.4c.45,0,.9,0,1.35.05,4.81-.74,9.2-.31,13.9.11.52,0,1-.07,1.57-.14a49.87,49.87,0,0,1,11.88-1.2h1.37c1.83,0,3.65-.07,5.46-.12.57,0,1.13,0,1.72,0a31.06,31.06,0,0,0,7.29.73H337c1,.12,2,.21,2.95.25l1.47,0c4.61-.3,9.19.42,13.8.6.59,0,1.17,0,1.76,0a26.52,26.52,0,0,0,5.18-.48l1.72-.34a2.87,2.87,0,0,1,1.85-.13,14.27,14.27,0,0,0,3.48.14c2.4,0,4.81-.28,7.21-.47l1.44-.1,1.24.11,1.23.09a96.25,96.25,0,0,0,10.94.18c.6,0,1.2,0,1.8.07a25.29,25.29,0,0,1,5.28.83c-1.24-.69-2.52-1.35-3.85-2l-1.34-.61c-3.61-1.27-6.17-3.69-8.55-6.39a6.52,6.52,0,0,0-1-.95c-3-1.47-5-3.32-7.78-5a10.46,10.46,0,0,0-1.37-.83c-1.12-.54-2.29-1-3.47-1.53a12.08,12.08,0,0,1-1.68-.8,10.51,10.51,0,0,0-4.79-4.26c-.5-.24-1-.45-1.54-.65l-1.7-.44-1.72-.44a13.74,13.74,0,0,1-2.85-.73,16.14,16.14,0,0,1-2.51-1.21c-2.73-1.5-4.74-4.48-8.4-4.34-.55,0-1.09.08-1.63.14s-1.08.15-1.62.24a14.27,14.27,0,0,1-5.77-.05c-1-.14-1.91-.29-2.88-.34-.48-.05-1-.09-1.44-.1s-1,0-1.44,0a45,45,0,0,0-8.89-.09l-1.77.15-1.86.14-1.89.13q-3.69,0-7.41,0c-1.24,0-2.48.06-3.73.08-1.7,0-3.43-.08-5.17-.12l-1.92,0c-1.87,0-3.74.13-5.6.25l-1.87.11c-3,.16-6,.1-9,0l-1.79,0-1.66-.23-1.71-.18c-4.15-.5-8.31-1-12.35-.25q-.87.16-1.73.4c-2.65.14-5.35.07-8,0h-1.61a85.52,85.52,0,0,0-10.6-.56l-1.77.06c-1.63-.07-3.27-.12-4.9-.13l-1.69,0a26.67,26.67,0,0,0-6.86-.27l-1.71.15c-4.56.33-9-.1-13.57.24Z" transform="translate(-70.41 -107)"/><path class="cls-8" d="M345,225.25a15.67,15.67,0,0,1-1.63.35c-.55.09-1.1.15-1.65.18a14.44,14.44,0,0,1-3.65,0c-.41-.05-.82-.11-1.24-.18a30,30,0,0,0-8.58.54l-1.72.28a20.21,20.21,0,0,1-4.88.57,5.76,5.76,0,0,1-2.22-.54,30.48,30.48,0,0,0-9.56-1.75c-.69,0-1.38,0-2.1,0a52.3,52.3,0,0,1-5.64.48l-2,0c-1.15,0-2.29,0-3.42,0s-2.26-.1-3.45-.08q-.88.12-1.75.18c-.59,0-1.17.07-1.77.08l-2,.09-2,0c-2.08,0-4.13,0-6.18,0-1,0-2.06,0-3.09-.08l-1.76-.15-1.75-.14-1.6-.14-1.61-.11q-2-.12-4-.18l-2-.06-1.71,0h-1.83c-1.68.05-3.37.1-5.06.14l-1.72,0h-6.59q-3,.07-6,.09h-2l-1.91,0-1.93,0c-2.36,0-4.68-.08-7-.13l-1.74,0-1.72,0-1.74,0-1.75.06c-.58,0-1.17.07-1.75.13-4.75.62-10.79,2.75-14.09-1.09-2.2-2.42-.92-5.26.16-8,.14-.54.29-1.07.42-1.59s.26-1,.35-1.52c-.08-.51-.19-1-.28-1.54-.61-3.16-1.1-6.56,1.15-9.11a7.32,7.32,0,0,1,1.14-1c5.86-2.56,12.45.85,18.45.83l1.35-.07q2-.09,4-.14l1.79,0c5,.09,9.86.2,14.77.24h8.62a100.38,100.38,0,0,1,11.37-.29c1.26,0,2.52.07,3.77.12,1.76,0,3.41.31,5.32.16h1.58a91.21,91.21,0,0,1,17.65-.13l2,.13h27.95a9.72,9.72,0,0,0,3.5-.28l1.95-.33c2.9-.5,6.57-1,9.49-.48a8.93,8.93,0,0,1,1.65.47,4.46,4.46,0,0,1,3,5.75q-.27.71-.5,1.41t-.42,1.4a5.72,5.72,0,0,0,.39,4.3c.19.47.4.93.62,1.41,1.37,2.51,1.82,5.54.17,7.84a5.91,5.91,0,0,1-.84.94Z" transform="translate(-70.41 -107)"/><path class="cls-8" d="M392.52,272.82A30.81,30.81,0,0,1,378.11,275c-1-.05-1.95-.14-2.92-.24-8.95-.88-17.78,1.06-26.38-.87-.65,0-1.3-.07-1.95-.13s-1.3-.14-1.94-.23l-1.54-.24a22.92,22.92,0,0,0-4.09.05c-.69.05-1.38.11-2.08.13-1.46.39-2.53-.16-3.85-.24-.74-.11-1.48-.19-2.22-.24-1.1-.07-2.2-.09-3.3-.07-6,.11-11.63,2-17.6.73-.62,0-1.24,0-1.87,0l-2.82.16c-.93,0-1.86.08-2.78.08-.4,0-.8,0-1.2-.08l-1.2-.13a26.46,26.46,0,0,0-7.26-.52c-.81,0-1.63.09-2.45.16a56.4,56.4,0,0,1-9.86.44l-1.35-.14-1.34-.11a16.67,16.67,0,0,0-3,0c-2.52.35-4.66.9-7.14.71-.58,0-1.15-.13-1.73-.22l-1.74-.28a51.25,51.25,0,0,0-7.51-.16c-.63,0-1.26,0-1.89,0s-1.26,0-1.88-.07a123.65,123.65,0,0,1-13.56.51q-1.33,0-2.66-.12c-2.66-.32-5.06.24-7.72.51a15.39,15.39,0,0,1-3.1,0c-.76-.07-1.51-.17-2.26-.29l-1.13-.18c-1.26-.19-2.51-.31-3.76-.37s-2.5-.08-3.88,0q-1.23.17-2.46.27t-2.47.15c-2.37-.34-4.51.21-6.85-.28q-1-.1-2.09-.16a43.25,43.25,0,0,0-6.38.16c-.55.07-1.09.11-1.63.13a27.9,27.9,0,0,1-4.74.06q-.79-.05-1.57-.14l-1.91-.15c-.65,0-1.31-.09-2-.11-4.92.69-9.74,2.62-14.64.52-1.08-.24-2.17-.42-3.28-.57l-1.67-.2-1.69-.16c-.65,0-1.29,0-1.94,0a47.56,47.56,0,0,1-7.8.57l-2,0-2-.06a189.42,189.42,0,0,1-25,.18c-.65,0-1.31-.07-2-.12l-1.94-.18-1.8-.16-1.81-.14a30.12,30.12,0,0,0-5.15.55,19.31,19.31,0,0,1-5.12.33,4.2,4.2,0,0,1-3.52-2.3c-1.1-2.42,0-5,.07-7.5,0-.34,0-.67,0-1s0-.66,0-1v-5.93q0-.52,0-1c-.18-.43-.35-.87-.52-1.32s-.33-.9-.48-1.35c-1.12-3.35-2.4-8,2.18-10.18a7,7,0,0,1,1.6-.5c1.83-.15,3.67-.23,5.51-.24h1.87a51.85,51.85,0,0,1,5.49,0l1.81.12a49.82,49.82,0,0,0,8.82-.48c.59,0,1.17-.09,1.76-.11a41.37,41.37,0,0,1,5.55.32l1.85.22c2.74.24,5.43.26,8.16.32l1.72,0c1.64.06,3.24.16,4.84.25.55,0,1.09.05,1.67.06q3.08-.4,6.1-.59l2-.1a84.23,84.23,0,0,1,9.55,0l1.9.1c5.53.33,11,.37,16.51.44l1.85,0c3.61-.07,7.3-.16,10.94-.11l1.82,0c2.81.06,5.63,0,8.46-.06l1.7,0c5,.06,9.73.35,14.59.15H246.9l3.26,0,4.82-.07,1.61,0c2.43-.11,4.83-.15,7.22-.14h1.8a42.9,42.9,0,0,1,8.8-.76q.88,0,1.76.06c3.89.4,7.75.86,11.61,1l1.65,0c4.94-.16,9.89-.17,14.79-.11l1.63,0c4.7-.08,9.21-.09,13.77,0l2,0c4.82-.22,9.4-.08,14.18,0H338c5.75-.23,11.43-.09,17.16,0H362c4.53-.23,9.11.05,13.68,0h20.15v.85c0,.27,0,.61,0,1a22.85,22.85,0,0,1,.35,2.79c.06.92.07,1.84,0,2.77,0,.77-.07,1.53-.13,2.28-.08.46-.14.92-.18,1.38s-.08.94-.11,1.42,0,1,0,1.53,0,1,0,1.53a10.5,10.5,0,0,1,.26,1.07c0,.45,0,.9.1,1.35a18.15,18.15,0,0,1,1.08,3.78,8.84,8.84,0,0,1,.13,1.92c-.69,2.37-1.76,5.14-4.41,6.34Z" transform="translate(-70.41 -107)"/><path class="cls-9" d="M299.43,227a17.19,17.19,0,0,1-7.49-4.77L290.8,221c-.79-.61-1.34-1.61-2.26-2-4-1.56-8.06-3.13-11.35-5.74a3.14,3.14,0,0,1-.71-1,3.1,3.1,0,0,1-.21-1.33c.18-4,5.49-5.83,8.66-8.38l.92-.66,1.26-.9c2.71-1.59,3.62-4.29,6.19-6,6-3.84,10.62,2.13,14.1,5.69a6.58,6.58,0,0,0,1.41,1c3.17,2.1,8.66,2.38,10.13,5.65,1.24,2.88-2,4.64-4.88,6.29-.49.27-1,.55-1.42.83-1,.72-1.85,1.48-2.71,2.27l-.86.8a20.29,20.29,0,0,0-2.86,3.87c-.28.45-.57.9-.88,1.34-1.41,1.68-2.69,3.53-5.22,4.1Z" transform="translate(-70.41 -107)"/><path class="cls-9" d="M270.06,227a17.19,17.19,0,0,1-7.49-4.77l-1.14-1.2c-.79-.61-1.34-1.61-2.26-2-4-1.56-8.06-3.13-11.35-5.74a3.14,3.14,0,0,1-.71-1,3.1,3.1,0,0,1-.21-1.33c.18-4,5.49-5.83,8.66-8.38l.92-.66,1.26-.9c2.71-1.59,3.62-4.29,6.19-6,6-3.84,10.62,2.13,14.1,5.69a6.58,6.58,0,0,0,1.41,1c3.17,2.1,8.66,2.38,10.13,5.65,1.24,2.88-2,4.64-4.88,6.29-.49.27-1,.55-1.42.83-1,.72-1.85,1.48-2.71,2.27l-.86.8a20.29,20.29,0,0,0-2.86,3.87c-.28.45-.57.9-.88,1.34-1.41,1.68-2.69,3.53-5.22,4.1Z" transform="translate(-70.41 -107)"/><path d="M171.64,139.15a30,30,0,0,1-6.57,7l-1-1.74c2.79-1.86,5.65-4.35,8.66-10.62h-8.2v-2.09h15.75v2.09H174.5l-1.29,2.68v16.12h-1.57Zm7.94,7.58a47.14,47.14,0,0,0-6.07-7.53l.95-1.67a47.48,47.48,0,0,1,6.35,7.72Z" transform="translate(-70.41 -107)"/><path d="M186.06,134h-1.41a13.41,13.41,0,0,1-1.72,2.45A5.81,5.81,0,0,0,182,135a10.91,10.91,0,0,0,2.31-4.17l1.34,1-.21.49H190V134h-2.38l.41,1.51-1.32.64Zm3.51,2.82v-1.72h1.18l-.45-.42a10.36,10.36,0,0,0,1.49-3.86l1.45.64-.23.8h5.28V134h-3l.5,1.67-1.31.68-.73-2.35H192.4a9.13,9.13,0,0,1-1,2l-.3-.42v1.29h6.35l1.25.82a23.64,23.64,0,0,1-.73,4l-1.31-.59a16.7,16.7,0,0,0,.41-2.19c0-.19-.05-.28-.18-.28h-13c-.09,0-.14.07-.14.19v2.71h-1.38v-4.38c0-.21.09-.33.27-.33Zm7.12,14.81c0,.45-.18.68-.52.68H185q-.48,0-.48-.64V140.19c0-.33.14-.52.41-.52h10.61c.29,0,.43.19.43.52v4.43c0,.35-.14.54-.43.54H186v1.41h10.2c.32,0,.48.21.48.61ZM186.2,141.48c-.13,0-.2.09-.2.26v1.6h8.34q.21,0,.21-.28v-1.32c0-.16-.07-.26-.21-.26Zm8.93,7.11c0-.14-.05-.21-.18-.21H186v1.74c0,.16.05.24.16.24H195c.13,0,.18-.07.18-.24Z" transform="translate(-70.41 -107)"/><path d="M211.44,152.24c-4.15-.16-6.42-.78-8-3.6a22.69,22.69,0,0,1-2.27,4l-1.23-1.22.14-.21a16.55,16.55,0,0,0,3.13-7.37l1.47.54-.54,2.33a6.23,6.23,0,0,0,3.27,3.11V143h-7v-1.91H216V143h-7.12v2.61H215v1.91h-6.07v2.64l2,.09h5.57l-.38,2Zm3-12.88c0,.19-.07.28-.2.28h-12c-.13,0-.2-.09-.2-.28v-7.63c0-.16.07-.26.2-.26h12c.13,0,.2.09.2.26Zm-10.9-4.75h9.45v-1.25l-.07-.07h-9.32c-.05,0-.07,0-.05.07Zm9.45,1.81h-9.45v1.32l.05.09h9.32l.07-.09Z" transform="translate(-70.41 -107)"/><path d="M224.59,140.94c-.55-.94-1.2-2-2-3v5.77h-1.45v-5.46a21.77,21.77,0,0,1-2.16,3.93l-1.32-1a22.47,22.47,0,0,0,3.15-5.65H218.4v-1.91h2.79V131h1.45v2.66h2.49v1.91h-2.47c1,1.29,2,2.64,3,4.1Zm-3.42,4.71a20.41,20.41,0,0,1-2.2,6.64,4.12,4.12,0,0,0-1.13-1.15,16.53,16.53,0,0,0,1.86-6Zm1.23-.49h1.52v3.74c0,.68,0,1.32,1,1.32h3.17a1.13,1.13,0,0,0,1-.52,10.68,10.68,0,0,0,.13-2.14l1.54.26a11.2,11.2,0,0,1-.38,3.53c-.52.73-.7.87-1.83.87h-4.31c-.95,0-1.86-.68-1.83-3Zm4.17,3.79a36.49,36.49,0,0,0-1.38-3.55l1.36-.85c.73,1.79,1.2,3,1.41,3.7Zm6.66-5.72q0,.28-.21.28h-6.85c-.11,0-.18-.09-.18-.28V132.09c0-.14.07-.24.18-.24H233a.21.21,0,0,1,.21.24Zm-5.87-7.93h4.49v-1.55l-.07-.07h-4.37l-.05.07Zm0,3.22h4.49V137h-4.49Zm4.49,1.72h-4.49v1.37l.05.09h4.37c.05,0,.07,0,.07-.09Zm1.11,11.6a40.78,40.78,0,0,0-2.4-6.17l1.34-1a35.79,35.79,0,0,1,2.45,6.26Z" transform="translate(-70.41 -107)"/><path d="M251.22,151.21a26.87,26.87,0,0,1-6.46-6v7.51h-1.5v-7.53a23,23,0,0,1-6.71,6.26l-1-1.81a23.67,23.67,0,0,0,7.69-7.32v-6.59h-6.89v-2h6.89v-2.8h1.5v2.8h6.85v2h-6.85v6.59a21.41,21.41,0,0,0,7.59,7.25Zm-10-7.51c-.54-.85-1.16-1.79-1.9-2.78a17,17,0,0,1-2.4,4.31l-1.31-1.13a20.08,20.08,0,0,0,3.49-7.49l1.43.64-.63,2c.81.94,1.59,1.91,2.36,2.94ZM251.2,145c-.89-1.29-2-2.73-3.26-4.28a13.23,13.23,0,0,1-1.15,2.19l-1.36-1a14.42,14.42,0,0,0,2.13-5.2l1.47.52-.52,1.91c1.29,1.39,2.51,2.85,3.7,4.43Z" transform="translate(-70.41 -107)"/><path d="M256.94,140.19c-.07,2-.25,3.93-.47,5.67a33.25,33.25,0,0,1-1.47,6.28l-1.52-.45a36.52,36.52,0,0,0,2-12.71V135.6h-1.72v-2h3.19V131h1.52v2.61h3.15v2H257v2.57h3.13c.39.14.55.19.55,1.15l-.07,6.8c-.05,3.27-.48,5.3-1.29,6a1.3,1.3,0,0,1-1,.33,5.65,5.65,0,0,1-2-.47l-.05-2.33a5,5,0,0,0,1.83.66c.45,0,.64-.49.84-1.37l.16-1.37c.07-2.45.13-4.28.13-5.51a6.86,6.86,0,0,0-.11-1.77c0-.12-.11-.16-.18-.16Zm7.94,6.5a22.5,22.5,0,0,1-2-7.7l-.48,1.37-1.5-.56a24.39,24.39,0,0,0,1.81-8.8l1.5.07-.2,2.54h6.14v2h-1.29a26.67,26.67,0,0,1-2.15,11,27.15,27.15,0,0,0,3.49,4.83l-1.41,1.27a27.34,27.34,0,0,1-3.06-4.33,34.67,34.67,0,0,1-3.78,4.35l-1.23-1.41a31.61,31.61,0,0,0,3.74-3.93Zm-.73-11.09a23.78,23.78,0,0,0,1.65,9.23,19.91,19.91,0,0,0,1.29-4.68,32.32,32.32,0,0,0,.23-4.54Z" transform="translate(-70.41 -107)"/><path d="M276.29,147.3v5.13h-1.38v-5.27a15.3,15.3,0,0,1-2.45,3.3l-1-1.27a13.65,13.65,0,0,0,3.1-4.31h-2.79v-1.62h3.19v-2h1.38v2H279v1.62h-2.67V145a42.52,42.52,0,0,1,2.68,3.34l-1,1.37Zm2.18-6.87-6.51.78-.34-1.58,1.16-.12.45-1.39h-1.7v-1.53H273V131.5c0-.26.09-.4.27-.4H280v1.46h-5.51c-.14,0-.14.07-.14.71h5.39v1h-5.39v.68h5.39v1h-5.39v.66h6.28v1.53H279c.32.78.68,1.67,1,2.71l-1.13.73Zm-.57-1.48-.39-.82h-2.85l-.38,1.22Zm8,12.4-6.84,1.2-.45-1.77,1.75-.24a45,45,0,0,0,2-5.44l1.27.73a36.44,36.44,0,0,1-1.52,4.43l3.11-.52-.82-1.72,1.22-.87a46.25,46.25,0,0,1,2.11,4.87l-1.23.75Zm-4-8.19a15.9,15.9,0,0,1-1.91,4.52,5.43,5.43,0,0,0-1-1.22,10.81,10.81,0,0,0,1.54-3.93Zm-.88-9.91a9,9,0,0,0,4.47-2.38l.73,1.39a10.75,10.75,0,0,1-4.72,2.66Zm.27,2.94a10.47,10.47,0,0,0,5.22-2.94l.75,1.41a13,13,0,0,1-5.48,3.2Zm1.65,2.64a10.08,10.08,0,0,0,4.42-2.9l.77,1.37a11.55,11.55,0,0,1-6.42,3.58l-.38-1.79Zm-.75,2.54h3.47c.18,0,.3.07.36.33a9.83,9.83,0,0,0,2.11,4.94l-1.32,1a10.91,10.91,0,0,1-1.81-4.24c0-.21-.05-.33-.14-.33h-2.67Z" transform="translate(-70.41 -107)"/></svg>