<svg id="圖層_1" data-name="圖層 1" xmlns="http://www.w3.org/2000/svg" viewBox="0 0 368.79 913"><defs><style>.cls-1,.cls-73{fill:#dbd2c9;}.cls-1,.cls-10,.cls-11,.cls-12,.cls-13,.cls-15,.cls-16,.cls-18,.cls-19,.cls-2,.cls-20,.cls-21,.cls-24,.cls-3,.cls-38,.cls-39,.cls-4,.cls-41,.cls-5,.cls-75,.cls-8,.cls-86,.cls-9{stroke:#000;}.cls-1,.cls-10,.cls-11,.cls-12,.cls-13,.cls-15,.cls-16,.cls-18,.cls-19,.cls-2,.cls-20,.cls-21,.cls-24,.cls-3,.cls-38,.cls-39,.cls-4,.cls-41,.cls-5,.cls-67,.cls-75,.cls-8,.cls-85,.cls-86,.cls-9{stroke-miterlimit:10;}.cls-1,.cls-10,.cls-15,.cls-20,.cls-38,.cls-86{stroke-width:4px;}.cls-2,.cls-3,.cls-4,.cls-5,.cls-6{fill:#fab360;}.cls-2,.cls-75{stroke-width:0.5px;}.cls-3,.cls-8,.cls-9{stroke-width:0.75px;}.cls-4{stroke-width:0.25px;}.cls-16,.cls-19,.cls-21,.cls-7,.cls-75,.cls-85,.cls-86{fill:none;}.cls-8{fill:#fdf6eb;}.cls-9{fill:#343c45;}.cls-10{fill:#b9d3a9;}.cls-11{fill:#3f4247;}.cls-12{fill:#2f1713;}.cls-13{fill:#957067;}.cls-14{fill:#1f1724;}.cls-15{fill:#e2cfb5;}.cls-17{fill:#504930;}.cls-18,.cls-20{fill:#4d4b3d;}.cls-18{stroke-width:5px;}.cls-19{stroke-width:8px;}.cls-21{stroke-width:3px;}.cls-22,.cls-34,.cls-39{fill:#fff;}.cls-22{opacity:0.24;}.cls-23{fill:#040205;}.cls-24{fill:#decfaf;}.cls-25{fill:#15140c;}.cls-26{fill:#beba96;}.cls-27{fill:#6d4e3c;}.cls-28{fill:#150400;}.cls-29{fill:#f0d4c0;}.cls-30{fill:#2c0c00;}.cls-31{fill:#2c2f33;}.cls-32{fill:#0f1410;}.cls-33{fill:#768495;}.cls-34,.cls-35{opacity:0.23;}.cls-36{fill:#eef3dd;}.cls-37{fill:#312b1b;}.cls-38{fill:#dbef9e;}.cls-40{fill:#e6bbb5;}.cls-41{fill:#c69c6d;}.cls-42{fill:#604c51;}.cls-43{fill:#eae2e6;}.cls-44{fill:#27342f;}.cls-45{fill:#a76643;}.cls-46{fill:#b56d43;}.cls-47{fill:#c6c1cb;}.cls-48{fill:#a57056;}.cls-49{fill:#e8e2da;}.cls-50{fill:#9a6a52;}.cls-51{fill:#403023;}.cls-52{fill:#f0eada;}.cls-53{fill:#b6978a;}.cls-54{fill:#31261e;}.cls-55{fill:#1b0e00;}.cls-56{fill:#4b392b;}.cls-57{fill:#352b1e;}.cls-58{fill:#302420;}.cls-59{fill:#291f16;}.cls-60{fill:#362724;}.cls-61{fill:#251a14;}.cls-62{fill:#1d130b;}.cls-63{fill:#2f2318;}.cls-64{fill:#221814;}.cls-65{fill:#1e1715;}.cls-66,.cls-67{fill:#604a38;}.cls-67{stroke:#604a38;}.cls-68{fill:#4f443c;}.cls-69{fill:#e7e1d7;}.cls-70{fill:#bb8e6d;}.cls-71{fill:#827a72;}.cls-72{fill:#af847f;}.cls-74{fill:#2c2019;}.cls-76{fill:#6f5351;}.cls-77{fill:#9d6c52;}.cls-78{fill:#875745;}.cls-79{fill:#b3785a;}.cls-80{fill:#290000;}.cls-81{fill:#4c2a11;}.cls-82{fill:#403330;}.cls-83{fill:#f8e3c9;}.cls-84{fill:#c6a07a;}.cls-85{stroke:#936a63;}</style></defs><title>bookingroom</title><path class="cls-1" d="M421.67,233c-5.79,3.58-13.28,2.75-19.49.9-.84-.23-1.66-.48-2.47-.74l-2.37-.76c-.84-.1-1.67-.16-2.5-.2s-1.66-.06-2.49-.07h-2c-2.65,0-5.31.13-7.95.18l-2.88,0c-4.2,0-8.39-.06-12.59-.13a23.25,23.25,0,0,0-2.61.1c-6.7,2.51-13.18,2.3-19.75,1q-1.23-.24-2.49-.54a80.31,80.31,0,0,0-13.81-.77c-.93,0-1.86.06-2.8.11q-2.82.5-5.6.81t-5.55.41a91.86,91.86,0,0,1-11-.39c-1.83-.16-3.64-.34-5.42-.53-6.09-.32-12.17-.27-18.24-.22-.92.08-1.82.14-2.76.26s-1.77.46-2.67.66-1.78.38-2.68.53q-1,.25-2.09.43t-2.1.3c-7.8,1.23-15.46,0-23.25-1.19l-2.67-.38c-8.17.15-16.14,1.06-24.31-.17-.93-.14-1.87-.3-2.83-.49-4.61.83-9.12,1.94-13.6,2.29-.94.07-1.88.11-2.85.11a54.83,54.83,0,0,1-12-1.85c-.62-.14-1.25-.25-1.87-.33s-1.25-.17-1.88-.22c-8.82.28-17.65-.28-26.46-.09-1.15,0-2.3.07-3.44.09H141.85c-5.56.33-11.15.56-16.78.52q-2.81,0-5.64-.15c-4.39-.19-8.79-.28-13.19-.33l-2.65,0H96.37q-1.35-.46-2.69-.83c-.89-.25-1.78-.46-2.68-.67A27.44,27.44,0,0,0,88.2,230c-5.91-1.18-11.53,1.59-17.41.2-4.15-1-4.61-4.29-4.29-8.17.08-1,.21-2,.38-3,1.62-5.55,1.44-11.28.87-17q-.12-1.23-.27-2.46c-.7-7.54.37-15.28-.58-22.87,0-1,0-2.09,0-3.15v-6.41c0-1.08,0-2.16,0-3.25a123.19,123.19,0,0,0,0-26.52c0-1.12,0-2.22,0-3.33V108.42q0-1.53,0-3a138.18,138.18,0,0,0,0-24.12c0-.88.08-1.75.13-2.65s.08-1.65.12-2.47.06-1.79.1-2.68.1-1.78.16-2.66c1.53-5.44-.88-17.61,7.15-16.78.9.14,1.8.31,2.7.49,3.52.25,7,.62,10.47,1.06l2.6.32c2.65.19,5.3.27,8,.32l2.69,0a165.6,165.6,0,0,1,24.9,1.5l2.07.3h7A138,138,0,0,1,149,57.33l2.82,0c8.18,0,16.37-2.46,24.75-1.34.93.12,1.86.29,2.8.51a43.17,43.17,0,0,0,12.49,1.66c.84,0,1.68,0,2.52,0,9.32-.46,18.56-.31,27.83-.16l3.09,0c5.89.3,11.72.07,17.55,0l2.92,0c7.42-.11,14.88-.35,22.43-.09l2.52.1c8.17.14,16.47-.41,24.73,0h9.39c7.49.1,15.15.12,22.69.06l2.82,0c6.6-.19,13.55-.19,20.24,0h12.78c6.21-.15,12.37-.43,18.65,0h2.12c2.58,0,5.15,0,7.72,0l2.61-.05c.83,0,1.67-.09,2.52-.16s1.71-.16,2.58-.25c6.94-.47,15.77-3.51,20.59,2.3,3.48,4.15-.27,10,1,15.1q.14,1.18.25,2.37c.08,1,.14,2,.17,3A85.78,85.78,0,0,1,420,96.5q-.22,1.35-.44,2.7a20.64,20.64,0,0,0-.3,7.4c.09.83.21,1.66.35,2.49a48.72,48.72,0,0,1,2.05,10.51c.07.88.12,1.76.15,2.64a135.42,135.42,0,0,1-.39,13.58c-.07.91-.15,1.83-.23,2.75-.73,6.51-.76,13-.95,19.4,0,.93-.06,1.86-.1,2.8,0,1.94,0,3.88.15,5.82a68,68,0,0,1,.71,7.54q0,1.26,0,2.53c-.08,2.74-.29,5.45-.54,8.15q-.13,1.35-.27,2.7c-.27,1.82-.47,3.63-.61,5.44q-.11,1.36-.17,2.74a78.26,78.26,0,0,0,.55,8.38c.05.94.11,1.9.12,2.88a40.78,40.78,0,0,0-.77,9.81q.07,1.21.23,2.41a10.73,10.73,0,0,0,.25,2c.14.66.33,1.32.54,2,.63,2.9,2,5.39,1.61,8C421.8,232.34,421.67,233,421.67,233Z" transform="translate(-55.21 -52)"/><polygon class="cls-2" points="284.59 106.28 294.65 110.08 314.68 110.2 304.63 106.73 284.59 106.28"/><path class="cls-2" d="M349.81,166.56v1.09l20,.13v-1.09h.05l.05-4.48-20-.13v1.09h0l0,3.39Zm1.54-3.38,17.07.11,0,3.39-17.07-.11Z" transform="translate(-55.21 -52)"/><polygon class="cls-3" points="294.59 115.56 283.7 110.52 284.01 106.22 294.59 110.08 294.59 115.56"/><rect class="cls-4" x="296.14" y="111.18" width="17.04" height="3.5"/><polygon class="cls-5" points="127.12 80.74 127.12 113.96 122.46 115.94 122.33 115.99 120.53 116.75 116.5 118.46 115.78 78.02 127.12 80.74"/><polygon class="cls-5" points="302.56 82.55 302.56 106.17 127.12 106.17 127.12 80.56 302.56 82.55"/><polygon class="cls-5" points="111.53 115.74 110.18 78.07 115.69 77.95 117.05 116.15 111.54 116.26 111.53 115.74"/><polygon class="cls-5" points="144.51 110.75 140.49 112.29 140.4 112.33 140.35 112.33 140.35 110.77 140.49 110.77 144.51 110.75"/><line class="cls-6" x1="116.5" y1="114.56" x2="116.5" y2="109.64"/><path class="cls-6" d="M182.33,159.91" transform="translate(-55.21 -52)"/><line class="cls-7" x1="120.53" y1="112.33" x2="120.53" y2="109.64"/><line class="cls-7" x1="120.53" y1="114.34" x2="120.53" y2="113.45"/><polygon class="cls-4" points="127.12 105.78 145.62 105.78 140.49 107.73 120.64 107.63 127.12 105.78"/><polygon class="cls-4" points="138.9 110.77 138.9 112.33 121.94 112.28 121.92 112.28 126.96 110.83 126.99 110.83 138.9 110.77"/><path class="cls-4" d="M195.58,160.83a8.89,8.89,0,0,0,0-1.11H176.1a3.36,3.36,0,0,0-.46,0c-.3.08,0,5.45,0,5.73h19.92v-1.12S195.58,160.85,195.58,160.83Zm-1.47,3.5h-17v-3.48h17Z" transform="translate(-55.21 -52)"/><polygon class="cls-6" points="127.12 108.92 127.12 110.79 126.99 110.83 126.99 110.83 121.94 112.28 121.92 112.29 121.92 108.89 127.12 108.92"/><rect class="cls-4" x="127.12" y="108.85" width="11.78" height="1.92"/><polygon class="cls-5" points="145.86 110.9 140.49 113.45 140.49 107.73 145.8 105.78 145.86 110.9"/><path class="cls-8" d="M205.32,159a19.59,19.59,0,0,1-3,.14l-1.52.06a26.62,26.62,0,0,0-7.29,1.41c-.55.19-1.08.39-1.63.61-.39.17-.79.37-1.19.58l-1.23.63c-1.66.44-3.3.92-4.92,1.42l-1.64.51c-2.94.94-5.86,1.83-8.79,2.67l-2,.5-3.62.62c-1.21.2-2.42.41-3.62.64l-1.8.27-1.92.28c-2.32.42-4.64.78-6.91,1.21-1.14.21-2.27.45-3.35.74-.51.13-1,.29-1.49.46s-1,.37-1.45.58a54.29,54.29,0,0,1-5.1,2.17l-2,.58a31.25,31.25,0,0,1-11.19,2.06,18.46,18.46,0,0,0-3.09.75l-1.39.51A45.93,45.93,0,0,1,120.6,180c-.39.1-.79.19-1.19.27a37.63,37.63,0,0,0-17.25,4.59l-1.51.72-1.51.71a7.33,7.33,0,0,1-3.08.85,21.56,21.56,0,0,0,4,.72q.68.06,1.36.07c4.2-.22,8.42-.79,12.69-1.07l1.77-.1,1.18,0h1.19c1.93,0,3.87.08,5.82.18l1.95.1c2.7.12,5.31.34,8.06.34q.82,0,1.67,0c1.79-.13,3.57-.16,5.35-.13l1.78.05c1.22,0,2.45.08,3.68.17l1.85.14c3.07.16,6.11.13,9.15.1l1.83,0c3.16,0,6.3,0,9.44.18l1.88.13c4.16.21,8.56,1.64,12.73.85l1.23-.17c.82-.12,1.63-.28,2.44-.44l1.92-.42a19.94,19.94,0,0,1,5-.44c.6.06,1.19.12,1.85.21a46.64,46.64,0,0,0,12.68.52,24.79,24.79,0,0,0,3.19-.63,11.44,11.44,0,0,1,3.11.14c2.93.57,5.68,1.42,8.79,1.28.43,0,.84-.12,1.25-.2l1.24-.26a10,10,0,0,1,3.36-.39c1.24.07,2.46.1,3.68.09H235c.62,0,1.25,0,1.89.09a24.37,24.37,0,0,0,3.43.26c1.15,0,2.31,0,3.48,0,.66.09,1.33.15,2,.2,1.54.09,3,.12,4.53.12l1.48,0a67.41,67.41,0,0,1,6.79-.23l1.71.06a55.82,55.82,0,0,1,11.09.71l1.62.29c1.79.43,3.25-.71,4.9-.85a57.85,57.85,0,0,1,6.66.4c.45,0,.9,0,1.35.05,4.81-.74,9.2-.31,13.9.11.52,0,1-.07,1.57-.14a49.87,49.87,0,0,1,11.88-1.2h1.37c1.83,0,3.65-.07,5.46-.12.57,0,1.13,0,1.72,0a31.06,31.06,0,0,0,7.29.73H331c1,.12,2,.21,2.95.25l1.47,0c4.61-.3,9.19.42,13.8.6.59,0,1.17,0,1.76,0a26.52,26.52,0,0,0,5.18-.48l1.72-.34a2.87,2.87,0,0,1,1.85-.13,14.27,14.27,0,0,0,3.48.14c2.4,0,4.81-.28,7.21-.47l1.44-.1,1.24.11,1.23.09a96.25,96.25,0,0,0,10.94.18c.6,0,1.2,0,1.8.07a25.29,25.29,0,0,1,5.28.83c-1.24-.69-2.52-1.35-3.85-2l-1.34-.61c-3.61-1.27-6.17-3.69-8.55-6.39a6.52,6.52,0,0,0-1-.95c-3-1.47-5-3.32-7.78-5a10.46,10.46,0,0,0-1.37-.83c-1.12-.54-2.29-1-3.47-1.53a12.08,12.08,0,0,1-1.68-.8,10.51,10.51,0,0,0-4.79-4.26c-.5-.24-1-.45-1.54-.65l-1.7-.44-1.72-.44a13.74,13.74,0,0,1-2.85-.73,16.14,16.14,0,0,1-2.51-1.21c-2.73-1.5-4.74-4.48-8.4-4.34-.55,0-1.09.08-1.63.14s-1.08.15-1.62.24a14.27,14.27,0,0,1-5.77-.05c-1-.14-1.91-.29-2.88-.34-.48-.05-1-.09-1.44-.1s-1,0-1.44,0a45,45,0,0,0-8.89-.09l-1.77.15-1.86.14-1.89.13q-3.69,0-7.41,0c-1.24,0-2.48.06-3.73.08-1.7,0-3.43-.08-5.17-.12l-1.92,0c-1.87,0-3.74.13-5.6.25l-1.87.11c-3,.16-6,.1-9,0l-1.79,0-1.66-.23-1.71-.18c-4.15-.5-8.31-1-12.35-.25q-.87.16-1.73.4c-2.65.14-5.35.07-8,0h-1.61a85.52,85.52,0,0,0-10.6-.56l-1.77.06c-1.63-.07-3.27-.12-4.9-.13l-1.69,0a26.67,26.67,0,0,0-6.86-.27l-1.71.15c-4.56.33-9-.1-13.57.24Z" transform="translate(-55.21 -52)"/><path class="cls-8" d="M339,170.25a15.67,15.67,0,0,1-1.63.35c-.55.09-1.1.15-1.65.18a14.44,14.44,0,0,1-3.65,0c-.41-.05-.82-.11-1.24-.18a30,30,0,0,0-8.58.54l-1.72.28a20.21,20.21,0,0,1-4.88.57,5.76,5.76,0,0,1-2.22-.54,30.48,30.48,0,0,0-9.56-1.75c-.69,0-1.38,0-2.1,0a52.3,52.3,0,0,1-5.64.48l-2,0c-1.15,0-2.29,0-3.42,0s-2.26-.1-3.45-.08q-.88.12-1.75.18c-.59,0-1.17.07-1.77.08l-2,.09-2,0c-2.08,0-4.13,0-6.18,0-1,0-2.06,0-3.09-.08l-1.76-.15-1.75-.14-1.6-.14-1.61-.11q-2-.12-4-.18l-2-.06-1.71,0h-1.83c-1.68.05-3.37.1-5.06.14l-1.72,0h-6.59q-3,.07-6,.09h-2l-1.91,0-1.93,0c-2.36,0-4.68-.08-7-.13l-1.74,0-1.72,0-1.74,0-1.75.06c-.58,0-1.17.07-1.75.13-4.75.62-10.79,2.75-14.09-1.09-2.2-2.42-.92-5.26.16-8,.14-.54.29-1.07.42-1.59s.26-1,.35-1.52c-.08-.51-.19-1-.28-1.54-.61-3.16-1.1-6.56,1.15-9.11a7.32,7.32,0,0,1,1.14-1c5.86-2.56,12.45.85,18.45.83l1.35-.07q2-.09,4-.14l1.79,0c5,.09,9.86.2,14.77.24h8.62a100.38,100.38,0,0,1,11.37-.29c1.26,0,2.52.07,3.77.12,1.76,0,3.41.31,5.32.16h1.58a91.21,91.21,0,0,1,17.65-.13l2,.13h27.95a9.72,9.72,0,0,0,3.5-.28l1.95-.33c2.9-.5,6.57-1,9.49-.48a8.93,8.93,0,0,1,1.65.47,4.46,4.46,0,0,1,3,5.75q-.27.71-.5,1.41t-.42,1.4a5.72,5.72,0,0,0,.39,4.3c.19.47.4.93.62,1.41,1.37,2.51,1.82,5.54.17,7.84a5.91,5.91,0,0,1-.84.94Z" transform="translate(-55.21 -52)"/><path class="cls-8" d="M386.52,217.82A30.81,30.81,0,0,1,372.11,220c-1-.05-1.95-.14-2.92-.24-8.95-.88-17.78,1.06-26.38-.87-.65,0-1.3-.07-1.95-.13s-1.3-.14-1.94-.23l-1.54-.24a22.92,22.92,0,0,0-4.09.05c-.69.05-1.38.11-2.08.13-1.46.39-2.53-.16-3.85-.24-.74-.11-1.48-.19-2.22-.24-1.1-.07-2.2-.09-3.3-.07-6,.11-11.63,2-17.6.73-.62,0-1.24,0-1.87,0l-2.82.16c-.93,0-1.86.08-2.78.08-.4,0-.8,0-1.2-.08l-1.2-.13a26.46,26.46,0,0,0-7.26-.52c-.81,0-1.63.09-2.45.16a56.4,56.4,0,0,1-9.86.44l-1.35-.14-1.34-.11a16.67,16.67,0,0,0-3,0c-2.52.35-4.66.9-7.14.71-.58,0-1.15-.13-1.73-.22l-1.74-.28a51.25,51.25,0,0,0-7.51-.16c-.63,0-1.26,0-1.89,0s-1.26,0-1.88-.07a123.65,123.65,0,0,1-13.56.51q-1.33,0-2.66-.12c-2.66-.32-5.06.24-7.72.51a15.39,15.39,0,0,1-3.1,0c-.76-.07-1.51-.17-2.26-.29l-1.13-.18c-1.26-.19-2.51-.31-3.76-.37s-2.5-.08-3.88,0q-1.23.17-2.46.27t-2.47.15c-2.37-.34-4.51.21-6.85-.28q-1-.1-2.09-.16a43.25,43.25,0,0,0-6.38.16c-.55.07-1.09.11-1.63.13a27.9,27.9,0,0,1-4.74.06q-.79-.05-1.57-.14l-1.91-.15c-.65,0-1.31-.09-2-.11-4.92.69-9.74,2.62-14.64.52-1.08-.24-2.17-.42-3.28-.57l-1.67-.2-1.69-.16c-.65,0-1.29,0-1.94,0a47.56,47.56,0,0,1-7.8.57l-2,0-2-.06a189.42,189.42,0,0,1-25,.18c-.65,0-1.31-.07-2-.12l-1.94-.18-1.8-.16-1.81-.14a30.12,30.12,0,0,0-5.15.55,19.31,19.31,0,0,1-5.12.33,4.2,4.2,0,0,1-3.52-2.3c-1.1-2.42,0-5,.07-7.5,0-.34,0-.67,0-1s0-.66,0-1v-5.93q0-.52,0-1c-.18-.43-.35-.87-.52-1.32s-.33-.9-.48-1.35c-1.12-3.35-2.4-8,2.18-10.18a7,7,0,0,1,1.6-.5c1.83-.15,3.67-.23,5.51-.24h1.87a51.85,51.85,0,0,1,5.49,0l1.81.12a49.82,49.82,0,0,0,8.82-.48c.59,0,1.17-.09,1.76-.11a41.37,41.37,0,0,1,5.55.32l1.85.22c2.74.24,5.43.26,8.16.32l1.72,0c1.64.06,3.24.16,4.84.25.55,0,1.09.05,1.67.06q3.08-.4,6.1-.59l2-.1a84.23,84.23,0,0,1,9.55,0l1.9.1c5.53.33,11,.37,16.51.44l1.85,0c3.61-.07,7.3-.16,10.94-.11l1.82,0c2.81.06,5.63,0,8.46-.06l1.7,0c5,.06,9.73.35,14.59.15H240.9l3.26,0,4.82-.07,1.61,0c2.43-.11,4.83-.15,7.22-.14h1.8a42.9,42.9,0,0,1,8.8-.76q.88,0,1.76.06c3.89.4,7.75.86,11.61,1l1.65,0c4.94-.16,9.89-.17,14.79-.11l1.63,0c4.7-.08,9.21-.09,13.77,0l2,0c4.82-.22,9.4-.08,14.18,0H332c5.75-.23,11.43-.09,17.16,0H356c4.53-.23,9.11.05,13.68,0h20.15v.85c0,.27,0,.61,0,1a22.85,22.85,0,0,1,.35,2.79c.06.92.07,1.84,0,2.77,0,.77-.07,1.53-.13,2.28-.08.46-.14.92-.18,1.38s-.08.94-.11,1.42,0,1,0,1.53,0,1,0,1.53a10.5,10.5,0,0,1,.26,1.07c0,.45,0,.9.1,1.35a18.15,18.15,0,0,1,1.08,3.78,8.84,8.84,0,0,1,.13,1.92c-.69,2.37-1.76,5.14-4.41,6.34Z" transform="translate(-55.21 -52)"/><path class="cls-9" d="M293.43,172a17.19,17.19,0,0,1-7.49-4.77L284.8,166c-.79-.61-1.34-1.61-2.26-2-4-1.56-8.06-3.13-11.35-5.74a3.14,3.14,0,0,1-.71-1,3.1,3.1,0,0,1-.21-1.33c.18-4,5.49-5.83,8.66-8.38l.92-.66,1.26-.9c2.71-1.59,3.62-4.29,6.19-6,6-3.84,10.62,2.13,14.1,5.69a6.58,6.58,0,0,0,1.41,1c3.17,2.1,8.66,2.38,10.13,5.65,1.24,2.88-2,4.64-4.88,6.29-.49.27-1,.55-1.42.83-1,.72-1.85,1.48-2.71,2.27l-.86.8a20.29,20.29,0,0,0-2.86,3.87c-.28.45-.57.9-.88,1.34-1.41,1.68-2.69,3.53-5.22,4.1Z" transform="translate(-55.21 -52)"/><path class="cls-9" d="M264.06,172a17.19,17.19,0,0,1-7.49-4.77l-1.14-1.2c-.79-.61-1.34-1.61-2.26-2-4-1.56-8.06-3.13-11.35-5.74a3.14,3.14,0,0,1-.71-1,3.1,3.1,0,0,1-.21-1.33c.18-4,5.49-5.83,8.66-8.38l.92-.66,1.26-.9c2.71-1.59,3.62-4.29,6.19-6,6-3.84,10.62,2.13,14.1,5.69a6.58,6.58,0,0,0,1.41,1c3.17,2.1,8.66,2.38,10.13,5.65,1.24,2.88-2,4.64-4.88,6.29-.49.27-1,.55-1.42.83-1,.72-1.85,1.48-2.71,2.27l-.86.8a20.29,20.29,0,0,0-2.86,3.87c-.28.45-.57.9-.88,1.34-1.41,1.68-2.69,3.53-5.22,4.1Z" transform="translate(-55.21 -52)"/><path d="M165.64,84.15a30,30,0,0,1-6.57,7l-1-1.74c2.79-1.86,5.65-4.35,8.66-10.62h-8.2V76.72h15.75v2.09H168.5l-1.29,2.68V97.62h-1.57Zm7.94,7.58a47.14,47.14,0,0,0-6.07-7.53l.95-1.67a47.48,47.48,0,0,1,6.35,7.72Z" transform="translate(-55.21 -52)"/><path d="M180.06,79h-1.41a13.41,13.41,0,0,1-1.72,2.45A5.81,5.81,0,0,0,176,80a10.91,10.91,0,0,0,2.31-4.17l1.34,1-.21.49H184V79h-2.38l.41,1.51-1.32.64Zm3.51,2.82V80.11h1.18l-.45-.42a10.36,10.36,0,0,0,1.49-3.86l1.45.64-.23.8h5.28V79h-3l.5,1.67-1.31.68L187.72,79H186.4a9.13,9.13,0,0,1-1,2l-.3-.42v1.29h6.35l1.25.82a23.64,23.64,0,0,1-.73,4l-1.31-.59a16.7,16.7,0,0,0,.41-2.19c0-.19-.05-.28-.18-.28h-13c-.09,0-.14.07-.14.19v2.71h-1.38V82.15c0-.21.09-.33.27-.33Zm7.12,14.81c0,.45-.18.68-.52.68H179q-.48,0-.48-.64V85.19c0-.33.14-.52.41-.52h10.61c.29,0,.43.19.43.52v4.43c0,.35-.14.54-.43.54H180v1.41h10.2c.32,0,.48.21.48.61ZM180.2,86.48c-.13,0-.2.09-.2.26v1.6h8.34q.21,0,.21-.28V86.74c0-.16-.07-.26-.21-.26Zm8.93,7.11c0-.14-.05-.21-.18-.21H180v1.74c0,.16.05.24.16.24H189c.13,0,.18-.07.18-.24Z" transform="translate(-55.21 -52)"/><path d="M205.44,97.24c-4.15-.16-6.42-.78-8-3.6a22.69,22.69,0,0,1-2.27,4l-1.23-1.22.14-.21a16.55,16.55,0,0,0,3.13-7.37l1.47.54-.54,2.33a6.23,6.23,0,0,0,3.27,3.11V88h-7V86.08H210V88h-7.12V90.6H209v1.91h-6.07v2.64l2,.09h5.57l-.38,2Zm3-12.88c0,.19-.07.28-.2.28h-12c-.13,0-.2-.09-.2-.28V76.74c0-.16.07-.26.2-.26h12c.13,0,.2.09.2.26Zm-10.9-4.75h9.45V78.36l-.07-.07h-9.32c-.05,0-.07,0-.05.07Zm9.45,1.81h-9.45v1.32l.05.09h9.32l.07-.09Z" transform="translate(-55.21 -52)"/><path d="M218.59,85.94c-.55-.94-1.2-2-2-3V88.7h-1.45V83.24A21.77,21.77,0,0,1,213,87.17l-1.32-1a22.47,22.47,0,0,0,3.15-5.65H212.4V78.65h2.79V76h1.45v2.66h2.49v1.91h-2.47c1,1.29,2,2.64,3,4.1Zm-3.42,4.71a20.41,20.41,0,0,1-2.2,6.64,4.12,4.12,0,0,0-1.13-1.15,16.53,16.53,0,0,0,1.86-6Zm1.23-.49h1.52V93.9c0,.68,0,1.32,1,1.32h3.17a1.13,1.13,0,0,0,1-.52,10.68,10.68,0,0,0,.13-2.14l1.54.26a11.2,11.2,0,0,1-.38,3.53c-.52.73-.7.87-1.83.87h-4.31c-.95,0-1.86-.68-1.83-3Zm4.17,3.79a36.49,36.49,0,0,0-1.38-3.55l1.36-.85c.73,1.79,1.2,3,1.41,3.7Zm6.66-5.72q0,.28-.21.28h-6.85c-.11,0-.18-.09-.18-.28V77.09c0-.14.07-.24.18-.24H227a.21.21,0,0,1,.21.24Zm-5.87-7.93h4.49V78.74l-.07-.07h-4.37l-.05.07Zm0,3.22h4.49V82h-4.49Zm4.49,1.72h-4.49V86.6l.05.09h4.37c.05,0,.07,0,.07-.09ZM227,96.84a40.78,40.78,0,0,0-2.4-6.17l1.34-1a35.79,35.79,0,0,1,2.45,6.26Z" transform="translate(-55.21 -52)"/><path d="M245.22,96.21a26.87,26.87,0,0,1-6.46-6v7.51h-1.5V90.16a23,23,0,0,1-6.71,6.26l-1-1.81a23.67,23.67,0,0,0,7.69-7.32V80.69h-6.89v-2h6.89v-2.8h1.5v2.8h6.85v2h-6.85v6.59a21.41,21.41,0,0,0,7.59,7.25Zm-10-7.51c-.54-.85-1.16-1.79-1.9-2.78a17,17,0,0,1-2.4,4.31l-1.31-1.13a20.08,20.08,0,0,0,3.49-7.49l1.43.64-.63,2c.81.94,1.59,1.91,2.36,2.94ZM245.2,90c-.89-1.29-2-2.73-3.26-4.28a13.23,13.23,0,0,1-1.15,2.19l-1.36-1a14.42,14.42,0,0,0,2.13-5.2l1.47.52-.52,1.91c1.29,1.39,2.51,2.85,3.7,4.43Z" transform="translate(-55.21 -52)"/><path d="M250.94,85.19c-.07,2-.25,3.93-.47,5.67A33.25,33.25,0,0,1,249,97.15l-1.52-.45a36.52,36.52,0,0,0,2-12.71V80.6h-1.72v-2h3.19V76h1.52V78.6h3.15v2H251v2.57h3.13c.39.14.55.19.55,1.15l-.07,6.8c-.05,3.27-.48,5.3-1.29,6a1.3,1.3,0,0,1-1,.33,5.65,5.65,0,0,1-2-.47l-.05-2.33a5,5,0,0,0,1.83.66c.45,0,.64-.49.84-1.37l.16-1.37c.07-2.45.13-4.28.13-5.51a6.86,6.86,0,0,0-.11-1.77c0-.12-.11-.16-.18-.16Zm7.94,6.5a22.5,22.5,0,0,1-2-7.7l-.48,1.37-1.5-.56a24.39,24.39,0,0,0,1.81-8.8l1.5.07L258,78.6h6.14v2h-1.29a26.67,26.67,0,0,1-2.15,11,27.15,27.15,0,0,0,3.49,4.83l-1.41,1.27a27.34,27.34,0,0,1-3.06-4.33,34.67,34.67,0,0,1-3.78,4.35l-1.23-1.41a31.61,31.61,0,0,0,3.74-3.93Zm-.73-11.09a23.78,23.78,0,0,0,1.65,9.23,19.91,19.91,0,0,0,1.29-4.68,32.32,32.32,0,0,0,.23-4.54Z" transform="translate(-55.21 -52)"/><path d="M270.29,92.3v5.13h-1.38V92.16a15.3,15.3,0,0,1-2.45,3.3l-1-1.27a13.65,13.65,0,0,0,3.1-4.31h-2.79V88.25h3.19v-2h1.38v2H273v1.62h-2.67V90A42.52,42.52,0,0,1,273,93.33l-1,1.37Zm2.18-6.87L266,86.2l-.34-1.58,1.16-.12.45-1.39h-1.7V81.59H267V76.5c0-.26.09-.4.27-.4H274v1.46h-5.51c-.14,0-.14.07-.14.71h5.39v1h-5.39v.68h5.39v1h-5.39v.66h6.28v1.53H273c.32.78.68,1.67,1,2.71l-1.13.73Zm-.57-1.48-.39-.82h-2.85l-.38,1.22Zm8,12.4L273,97.55l-.45-1.77,1.75-.24a45,45,0,0,0,2-5.44l1.27.73A36.44,36.44,0,0,1,276,95.26l3.11-.52L278.34,93l1.22-.87A46.25,46.25,0,0,1,281.67,97l-1.23.75Zm-4-8.19A15.9,15.9,0,0,1,274,92.68a5.43,5.43,0,0,0-1-1.22,10.81,10.81,0,0,0,1.54-3.93ZM275,78.25a9,9,0,0,0,4.47-2.38l.73,1.39a10.75,10.75,0,0,1-4.72,2.66Zm.27,2.94a10.47,10.47,0,0,0,5.22-2.94l.75,1.41a13,13,0,0,1-5.48,3.2Zm1.65,2.64a10.08,10.08,0,0,0,4.42-2.9l.77,1.37a11.55,11.55,0,0,1-6.42,3.58l-.38-1.79Zm-.75,2.54h3.47c.18,0,.3.07.36.33a9.83,9.83,0,0,0,2.11,4.94l-1.32,1A10.91,10.91,0,0,1,279,88.42c0-.21-.05-.33-.14-.33h-2.67Z" transform="translate(-55.21 -52)"/><path class="cls-10" d="M414.75,419.55c-1.49.31-3,.54-4.5.7s-3,.25-4.59.29c-5.4,0-10.81-.19-16.23-.52l-5.44-.34c-6.24.15-12.49.26-18.75.28q-3.13,0-6.27,0c-8.05.09-16,0-24-.27l-6-.19c-19.32,1.63-39.11-.22-58.48-.44q-2.84,0-5.67,0c-9.45-.06-18.9-.34-28.48-.44l-5.8.3a360.19,360.19,0,0,1-46.7-.76H158.23q-8.89.71-17.8,1-3,.09-5.94.13t-5.77-.06q-2.88-.06-5.74-.15-3.1-.39-6.19-.56c-14.42-.62-28.39,2.62-42.95.77-9.32-1.39-11.64-10.62-9.89-17.62.21-1.56.46-3.12.73-4.68,1.09-6.25,2.54-12.52,3.38-18.89.21-1.59.39-3.19.51-4.79,0-8.53,0-16.85,0-25.07,0-1.34,0-2.69,0-4-.58-11.77,0-23.32,0-35-.07-1.31-.22-2.69-.4-4.1-1.29-9.86-4.47-21.43,2.15-26.28a22.66,22.66,0,0,1,9.85-3.33,49.9,49.9,0,0,1,5.88-.36c6.29-.28,12.57-.18,18.85.09q3.14.14,6.28.32c18.69,0,37.78,1.08,56.73,1.61,2.12.05,4.24.1,6.4.13,23.51-1.23,47.38-.31,70.88.16H258c15.58,0,31.3-1.39,47.19-1q2.81,0,5.61.13c9.34.29,18.65.87,27.94.87h28.49c16.38,0,35-5.54,46.66,1.39a9.26,9.26,0,0,1,4.53,6.78,26.09,26.09,0,0,1-.59,9.37c-6.27,12-1,24.5.87,36.39a57.73,57.73,0,0,1,.3,8.1,50.77,50.77,0,0,1-1,8.21c-.36,1.53-.77,3.06-1.2,4.57s-.88,3-1.33,4.49-.69,3.14-.92,4.73c-3,16.22,1.63,32.85,1.13,49.15-.09,1.26-.21,2.51-.33,3.76s-.28,2.5-.44,3.74C414.8,419,414.75,419.55,414.75,419.55Z" transform="translate(-55.21 -52)"/><path class="cls-11" d="M202.74,366.66s3.38-3.46,5.22-1.66,3.26,3.74,3.12,8.44c0,0-1,1.52-2,3.46l-2.18,6.78-4.17,8.86s-14,7.06-9.51-7.75A36.11,36.11,0,0,1,202.74,366.66Z" transform="translate(-55.21 -52)"/><path class="cls-12" d="M188.42,392.22V405c-.18,4.28.67,8.85-.6,13a30.37,30.37,0,0,1-3.11-.17H168l-2.79,0a77,77,0,0,0-10,.51l-3.34.33a70.14,70.14,0,0,1-10.72.35q-1.76-.07-3.51-.23a22,22,0,0,0,3.11-.22,29.32,29.32,0,0,0,8.65-2.81,24.94,24.94,0,0,0,3.11-2,28.11,28.11,0,0,0,8.93-11.54,19.73,19.73,0,0,1,2.07-1.7,14.57,14.57,0,0,0,2-1.74c1.09-1.19,1.84-2.72,2.86-4,1.91-2.36,3.77-1.78,6.31-2.07a32.24,32.24,0,0,0,6.26-1.24l0,.65Z" transform="translate(-55.21 -52)"/><path class="cls-11" d="M202.14,373.48c0-4.37.28-8.16.28-8.16,2.12-1.66,2.93-6.78,2.93-6.78a10.54,10.54,0,0,0-2.08-9.41s4.67,6.09,0-.69-6.09-2.08-8.5-1.38-2.27,5.67-2.27,5.67c-3.12,3-2,4.57-1.56,8.58s-8.07,16.19-11.89,19.09,1,8.16,1,8.16l2.55,1S202,390.55,202.14,373.48Z" transform="translate(-55.21 -52)"/><path class="cls-12" d="M179.54,417.16a50.38,50.38,0,0,0-.26-6.34,6.1,6.1,0,0,0-.37-1.74,21.42,21.42,0,0,0-2-2.74,5.5,5.5,0,0,1-.29-4.74c.58-1.81,1.17-3.66,1.88-5.43a13.65,13.65,0,0,0,.94-6.42c-.09-2.05-.71-3.59,1-5.12,2-1.78,3.66-3.9,6.45-4.3a19.75,19.75,0,0,1,4.65.1,5.64,5.64,0,0,0,2.73-.2c1-.43,1.93-1.33,3-1.83a7.32,7.32,0,0,1,3.64-.44,1.6,1.6,0,0,1,.74.18,18.78,18.78,0,0,1,2.59,2.73c1.79,1.77,3,3.37,3.13,6a45.73,45.73,0,0,1-.24,4.63,2.29,2.29,0,0,0,.11,1,2.46,2.46,0,0,0,.59.76c2.51,4.47,8,2.81,12,5.4.86.48,1.94.87,2.91,1.39a4.91,4.91,0,0,1,2.31,2.09,9.64,9.64,0,0,1,.65,3.84c-.06,4.62,2.06,8.77,4.19,12.51-3,0-5.52,0-8.46,0l-4.26.15a179.35,179.35,0,0,1-29.88-1.31c-1.29-.06-2.58-.08-3.87-.1Z" transform="translate(-55.21 -52)"/><path class="cls-13" d="M285.91,385.36s-12.32,1.8-13,2.63c0,0-14.3.28-15.29,2.21a13.15,13.15,0,0,0-5.93,1.25,21.14,21.14,0,0,0-3.85,2.16c-6.05,4.51-9.88,11.15-15.82,16.14-.85.42-2.55,4.15,0,4.15,4.25.42,7.22-2.91,10.62-5-1.27,3.32-3.4,8.3-1.27,9.55a13.53,13.53,0,0,0,3.53.95,21,21,0,0,0,3.75.14c14.39-1.09,28.41-.26,43-.41l3.77.34c3.79.35,7.57.72,11.36,1.05a5.91,5.91,0,0,0,4.67-2.49,15.46,15.46,0,0,0,2.19-2.67c4.3-6.64,3.2-15.94,2.29-24.19a17.88,17.88,0,0,0-1.88-3.65c-5.56-8.54-17.92-17.12-17.92-17.12-5.95-3.18-15.42-14.2-17.33-17.47s-11.42-16.5-11.42-16.5c-3.13-6.12-15-4.88-15-4.88-11.26-.57-13.28,7-13.72,7.16,0,0-9.06,2.21-9.06,3.6s-.57,2.49,1.7,3.87-2.81,4.88,9.4,7.47c0,0,3.72.67,4.35,1.66,0,0,3.24,5.67,5.36,5.67,0,0,1.3,5.81.65,7.33,0,0-2.21,1.59-2.21,6.33,0,0-1.42,5.43,0,18" transform="translate(-55.21 -52)"/><path class="cls-13" d="M248.1,393.41l-3.23-3.26c-3.85-3.89-5-4.07-5-4.07-1.57-1.06-4.22,3-4.22,3-.66,1.14-.42,4.64-.42,4.64l0,.86s2.35,2.24,3.36,0v-.73l-1.75-1.56a9.09,9.09,0,0,1,1.54,1.06s1,1.13,2.1,2.33a33.14,33.14,0,0,1,2.25,2.72" transform="translate(-55.21 -52)"/><path class="cls-13" d="M267.51,336.44c.28.21,7.15,2.28,8.28,6.16,0,0,3.68,2,1.13,7.61Z" transform="translate(-55.21 -52)"/><path class="cls-13" d="M251.61,333.57c-.41-.08-.84-.14-1.27-.2-2.39-.32-2.55,1.68-3.32,3.24a3.68,3.68,0,0,1-.4.61,15.7,15.7,0,0,0-2.39,3.95,13.09,13.09,0,0,0-.9,5.19,13.35,13.35,0,0,0,.5,3.14c.32,1.13,1,2.12.88,3.3a41.94,41.94,0,0,1-.69,4.74,10.25,10.25,0,0,0-.57,2.67c.12,1.62,1.85.72,2.68.08a7,7,0,0,1,1.16-.85,3,3,0,0,0,1.22-.67c1.34-1.46,1.27-3.58,2.69-4.92a20.85,20.85,0,0,0,2.21-2.43,16.17,16.17,0,0,0,3.28-7.06,13.43,13.43,0,0,1,.28-1.43c.35-1.2,1.11-2.26,1.56-3.43a2.26,2.26,0,0,0,.19-.79c0-1.18-1.5-2.25-2.3-3A9.55,9.55,0,0,0,251.61,333.57Z" transform="translate(-55.21 -52)"/><path class="cls-14" d="M231.11,341.24s-2.51.42-1.27,2.06c0,0-.76,1.23,1,2.24,0,0,1.95-4.54,1.11-4.42Z" transform="translate(-55.21 -52)"/><path d="M163.84,304c-.58-1-1.25-2.08-2-3.21V307H160.3v-5.81a23.35,23.35,0,0,1-2.25,4.19l-1.38-1a24.09,24.09,0,0,0,3.28-6H157.4v-2h2.9v-2.83h1.51v2.83h2.59v2h-2.57c1.08,1.38,2.1,2.81,3.11,4.36Zm-3.55,5a22.09,22.09,0,0,1-2.29,7.07,4.34,4.34,0,0,0-1.17-1.23,17.9,17.9,0,0,0,1.94-6.42Zm1.28-.53h1.58v4c0,.73,0,1.4,1,1.4h3.29a1.17,1.17,0,0,0,1.06-.55,11.65,11.65,0,0,0,.13-2.28l1.6.28a12.2,12.2,0,0,1-.39,3.76c-.54.78-.73.93-1.9.93h-4.48c-1,0-1.94-.73-1.9-3.18Zm4.34,4a39.42,39.42,0,0,0-1.43-3.78l1.41-.9c.76,1.9,1.25,3.23,1.47,3.94Zm6.92-6.09q0,.3-.22.3h-7.13c-.11,0-.19-.1-.19-.3V294.6c0-.15.07-.25.19-.25h7.13c.15,0,.22.1.22.25Zm-6.1-8.45h4.67v-1.65l-.07-.08h-4.54l-.06.08Zm0,3.43h4.67v-1.6h-4.67Zm4.67,1.83h-4.67v1.45l.06.1h4.54c.06,0,.07,0,.07-.1Zm1.15,12.36a44,44,0,0,0-2.49-6.57l1.4-1.05a38.7,38.7,0,0,1,2.55,6.67Z" transform="translate(-55.21 -52)"/><path d="M187.79,297.56h-1.34v3.53c0,.65-.22,1-.71,1h-3.59c-.45,0-.69-.3-.69-1v-3.53h-1.34a4.31,4.31,0,0,1-.2,1.23,5.77,5.77,0,0,1-3.5,3.66l-.74-2c1-.3,2.87-1.1,2.92-2.93h-3v-2h3.05v-2.18h1.53v2.18h1.32v-2.26H183v2.26h2v-2.26h1.51v2.26h1.34v-2.13h1.51v2.13h3.09v2H189.3v1.88c0,.38.15.6.45.63h1c.06,0,.11-.2.17-.55l.15-1.3,1.41.68c-.11,1.65-.32,2.61-.58,2.83a1.35,1.35,0,0,1-.95.38h-2.38c-.5,0-.74-.35-.74-1ZM183.25,309h-3.52q-.11,0-.11.15v6.29h-1.51v-7.89c0-.33.13-.48.37-.48h4.76v-2h-5.77c-.09,0-.15.08-.15.2v3h-1.58v-4.71c0-.28.09-.4.3-.4h15.22l1.3.88a20.3,20.3,0,0,1-.61,4.69l-1.51-.6a13.5,13.5,0,0,0,.43-2.78c0-.18-.07-.25-.19-.25h-5.88v2h4.82c.26,0,.39.15.39.48v5.84a2.09,2.09,0,0,1-2.23,2.38,7.2,7.2,0,0,1-1.75-.28l-.06-2.23a4.94,4.94,0,0,0,1.58.38.94.94,0,0,0,.95-1.05v-3.43c0-.1,0-.15-.13-.15h-3.57v7.44h-1.56Zm1.45-8.9c.15,0,.24-.13.24-.33v-2.23h-2v2.23c0,.2.07.33.24.33Z" transform="translate(-55.21 -52)"/><path d="M200.15,308.41l-5.75.48-.24-2.23,6-.5v-4l-5.19.4-.2-2.21,5.4-.4v-3.46l-5,.08-.19-2.26a71.45,71.45,0,0,0,14.31-1.13l.22,2.21a37.34,37.34,0,0,1-5.68.83l-2,.18v3.43l8-.65.09,2.23-8.11.63v4l8.75-.78.11,2.23-8.86.75v4.06c0,.88,0,1.45,1,1.45h5.1a1.14,1.14,0,0,0,1.08-.6,15.26,15.26,0,0,0,.43-3.91l1.66.48a38.77,38.77,0,0,1-.3,4.24,3.61,3.61,0,0,1-.37,1.08c-.52.83-.87,1-2,1h-6.33c-.95,0-2-.65-2-3.33Z" transform="translate(-55.21 -52)"/><path d="M216,305.43a13.58,13.58,0,0,0-1.53-3.78c-.19-.3-.2-.33-.2-.43a.59.59,0,0,1,0-.18l2.51-4.41,0-.3c0-.1-.07-.15-.15-.15h-3.76v-2.13h5.66l1,1.15-3.15,5.54a1.07,1.07,0,0,0-.19.58.9.9,0,0,0,.22.6,18.06,18.06,0,0,1,.95,2.66l1.54-1.08.69,2-1.77,1.23a19.82,19.82,0,0,1,.34,3.46c0,3.43-1.27,6.22-2.75,6.22a4.65,4.65,0,0,1-2.62-1.25l.41-2.36a4.43,4.43,0,0,0,2,1.28c.3,0,1.28-1.08,1.28-4.14a17.29,17.29,0,0,0-.15-2.33l-3.22,1.55-.58-2Zm12.52,10.93q-1.17-2.41-2.9-5.41a29.32,29.32,0,0,1-6.51,5l-1-2a25.13,25.13,0,0,0,6.46-4.56,20.28,20.28,0,0,0,3.93-7.54l1.53.55a19.91,19.91,0,0,1-3.33,7.32c1.1,1.65,2.16,3.43,3.15,5.26Zm-9.57-7.87a21.41,21.41,0,0,0,3.59-2.58,23.23,23.23,0,0,0-3.7-4.24l.84-1.83a9.82,9.82,0,0,1,1.36,1.33l1.94-3.56h-3.46v-2h4.17v-2.26h1.58v2.26h4.45v2h-4.86c-.67,1.33-1.58,3-2.74,4.89l1.62,2.11a15.56,15.56,0,0,0,2.46-5.56l1.54.48-.56,2.18q-1.62,4.77-7.24,8.57Z" transform="translate(-55.21 -52)"/><path d="M231.32,302.93h17v2.41h-17Z" transform="translate(-55.21 -52)"/><path d="M260.56,316.21a20.29,20.29,0,0,1-3.55-.4,6.57,6.57,0,0,1-4.82-3.41,24,24,0,0,1-.87,3.46l-1.6-.43a30.57,30.57,0,0,0,1.51-9.45c0-.4,0-.83,0-1.23l1.58-.08a48.83,48.83,0,0,1-.22,5A10.37,10.37,0,0,0,254,312V302.7h-4v-2h4V298h-3.31v-2H254v-2.63h1.58V296h2.48v2h-2.48v2.68h2.77v2h-2.77v3.16h2.48v2h-2.48v5.39a10.19,10.19,0,0,0,4.34.7h7.13l-.43,2.23Zm-1.49-21.5c0-.33.13-.5.37-.5H266c.26,0,.39.18.39.5v8.42c0,.38-.13.55-.39.55h-5.34v4.89c0,.8,0,1.91.91,2h2.61a1.39,1.39,0,0,0,1.36-1.45l-.11-2.41,1.62.2a10.19,10.19,0,0,1-.61,4.49,2,2,0,0,1-1.66,1.2h-3.48c-1.34,0-2.21-.8-2.21-2.93Zm1.75,1.53q-.17,0-.17.23v5.19h4c.11,0,.17-.08.17-.25v-4.94q0-.23-.17-.23Z" transform="translate(-55.21 -52)"/><path d="M284.58,315a28.22,28.22,0,0,1-6.72-6.42v8H276.3v-8a24.15,24.15,0,0,1-7,6.67l-1-1.93a24.87,24.87,0,0,0,8-7.79v-7h-7.16v-2.13h7.16v-3h1.56v3H285v2.13h-7.13v7a22.5,22.5,0,0,0,7.89,7.72Zm-10.37-8c-.56-.9-1.21-1.9-2-3a18.21,18.21,0,0,1-2.49,4.59l-1.36-1.2a21.62,21.62,0,0,0,3.63-8l1.49.68-.65,2.18c.84,1,1.66,2,2.46,3.13Zm10.35,1.35c-.93-1.38-2-2.91-3.39-4.56a14.21,14.21,0,0,1-1.19,2.33L278.57,305a15.56,15.56,0,0,0,2.21-5.54l1.53.55-.54,2c1.34,1.48,2.61,3,3.85,4.71Z" transform="translate(-55.21 -52)"/><path d="M289.09,303.28l-.69,1.4-1.49-.88a28.88,28.88,0,0,0,3.2-10.5l1.56.35c-.3,1.93-.63,3.61-1,5.09v17.62h-1.58Zm7.74,10.35v-6.39h-5v-2.13h5v-6H291.6V297h5.45a18.7,18.7,0,0,0-1.51-2.33l1.19-1.4a17.49,17.49,0,0,1,1.94,3.06L298,297h6.09v2.13h-5.64v6h5.27v2.13h-5.27v6.39h5.77v2.13H291.38v-2.13Z" transform="translate(-55.21 -52)"/><path d="M307.62,307.71l-.61,1.18-1.49-.9a28.4,28.4,0,0,0,3.29-10.13l1.54.43a52.94,52.94,0,0,1-1.15,5.24v12.63h-1.58Zm4.89,7.59v1.08H311V303.15c0-.2.06-.33.24-.33h3.35l.35-2.08H311v-2h9.9l.28-1.48c0-.2,0-.33-.2-.33H307.75c-.09,0-.15.08-.15.2v3.13H306v-5c0-.28.09-.4.3-.4h7.26v-1.65h1.58v1.65h6.44l1.38.93a27,27,0,0,1-.86,4.81l-1.21-.55v.68h-4.34l-.32,2.08h5c.2,0,.32.13.32.4v13.16H320v-1.08Zm0-7.19H320v-3c0-.18-.07-.28-.24-.28h-7c-.17,0-.24.1-.22.28Zm7.5,2h-7.5v3.13H320Z" transform="translate(-55.21 -52)"/><path class="cls-15" d="M404.29,765.07c-7.45,2.48-19.88-.35-25.6-.58-14.24-.56-28.49-.58-42.73-.37-27.76.4-55.74.45-83.46,1.71-18.92.86-37.73-2-56.62-2.34-18.67-.35-37.2,3.09-55.86,3-10.56-.07-21-.76-31.63.45-5,.57-9.78.45-14.7.7-1,0-2,.11-2.94.2-9,.83-18.66-5.58-23.79-12.69-10.5-14.52-10.52-35.28-9-52.45,1.76-20.4,3.8-40.38,3.6-60.82-.1-10.62-1.6-21.77-.67-32.34.09-1,.18-1.94.26-2.89a103.85,103.85,0,0,0,.53-18.84c-2.26-30.18-.82-60.66-2.28-90.91-.05-1.13-.1-2.26-.14-3.41-.28-9-1.59-18,4.88-25.34,10.2-11.57,30.21-8.34,43.5-6.65,18.47,2.34,36.43,1.12,55,.64,22.12-.57,44.51,1.75,66.67,2.35l3.08.09c14,.1,27.7-1.32,41.81-.58l3.08-.13c23.38-.92,46.78-1.13,70.18-1.37,11.7-.12,23.41-.23,35.11-.44,11.35-.21,26.61-4,27,12.26.36,15,1.8,30.14,1.8,45.13,0,16.33-2.53,32.94-3.14,49.3q-1.11,29.67-.26,59.36c.45,15.72,3.15,31,2.84,46.93-.26,13.42-1.87,26.77-2,40.2s3.84,27.18,2,40.64a13.25,13.25,0,0,1-2.05,6.22A8.91,8.91,0,0,1,404.29,765.07Z" transform="translate(-55.21 -52)"/><path class="cls-16" d="M249,649.9a.72.72,0,0,0,.6,0" transform="translate(-55.21 -52)"/><polyline class="cls-17" points="74.6 645.73 177.51 646.35 305.18 563.37"/><polyline class="cls-17" points="71.51 645.73 241.12 566.5 300.81 566.21"/><path class="cls-18" d="M222.08,526.58l10.65,171.77,127.67-83V583.42Zm96.25,112-75.4,44L232.28,539.44l86,31.12ZM356,614.54,323.2,635.28l-1.77-62.65,34.6,12Z" transform="translate(-55.21 -52)"/><polygon class="cls-19" points="177.07 487.44 263.11 518.56 263.11 586.6 187.71 630.58 177.07 487.44"/><polygon class="cls-19" points="300.81 532.66 300.81 562.54 267.99 583.28 266.21 520.63 300.81 532.66"/><polygon class="cls-19" points="263.11 518.56 263.11 586.6 187.71 630.58 177.07 487.44 263.11 518.56"/><polygon class="cls-19" points="300.81 532.66 300.81 562.54 267.99 583.28 266.21 520.63 300.81 532.66"/><polygon class="cls-18" points="177.51 646.35 74.61 646.35 74.6 645.73 71.51 474.58 166.86 474.58 177.51 646.35"/><polygon class="cls-18" points="305.18 568.76 305.18 600.72 177.07 696.15 177.51 655.89 305.18 568.76"/><polygon class="cls-19" points="177.51 655.89 177.07 696.15 177.07 685.36 177.51 655.89"/><polygon class="cls-18" points="177.51 646.35 177.51 655.89 74.61 655.89 74.61 648.85 74.6 645.73 74.61 646.35 177.51 646.35"/><polygon class="cls-20" points="305.18 563.37 305.18 568.76 177.51 655.89 177.51 646.35 305.18 563.37"/><polygon class="cls-18" points="177.51 655.89 177.07 685.36 177.07 696.15 74.61 697.81 74.61 655.89 177.51 655.89"/><polygon class="cls-21" points="177.51 655.89 177.07 696.15 177.07 685.36 177.51 655.89"/><polygon class="cls-22" points="266.21 520.63 267.99 583.28 300.81 562.54 300.81 532.66 266.21 520.63"/><path class="cls-16" d="M270,597.18c0,2.07-1.68.69-1.68.69a2.18,2.18,0,0,1,.89-2.21C269.84,594.92,270,597.18,270,597.18Z" transform="translate(-55.21 -52)"/><path class="cls-16" d="M274.82,597.79c-.12,0-.24,0-.36,0a1.72,1.72,0,0,0-.8.42c-.27.21-.46.48-.73.7s-.4-.34-.45-.47a2.34,2.34,0,0,1-.12-.64,2.49,2.49,0,0,1,.21-1.15,2.32,2.32,0,0,1,.7-.91,1.22,1.22,0,0,1,.41-.25l.15,0a.9.9,0,0,1,.5.21,3,3,0,0,1,.74.84C275.3,596.91,275.47,597.69,274.82,597.79Z" transform="translate(-55.21 -52)"/><path class="cls-16" d="M266.9,608.13a4,4,0,0,1-1-.11,2.73,2.73,0,0,1-1.07-.58A6.06,6.06,0,0,0,266.9,608.13Z" transform="translate(-55.21 -52)"/><path class="cls-23" d="M268.15,606.55a5.09,5.09,0,0,1-1.64-1.37h0l-.11-.22a.72.72,0,0,1,.16-.8s-.07-1.31,3.59,0C270.14,604.16,270.82,605.51,268.15,606.55Z" transform="translate(-55.21 -52)"/><path class="cls-16" d="M275.63,605.86c-.31.19-.62.38-.95.55a14.22,14.22,0,0,1-2.69,1.13,12.14,12.14,0,0,1-1.41.33h-.08l.48-.13A38.09,38.09,0,0,0,275.63,605.86Z" transform="translate(-55.21 -52)"/><path class="cls-16" d="M277,605.27h0Z" transform="translate(-55.21 -52)"/><path class="cls-16" d="M284.63,625.17a11.84,11.84,0,0,0,.41-1.55q.19-.76.33-1.54" transform="translate(-55.21 -52)"/><path class="cls-16" d="M248.44,614.13l-.05,0" transform="translate(-55.21 -52)"/><path class="cls-24" d="M285,618.43a14.08,14.08,0,0,0,1.58-2.86c.46-1.21,1.43-3,.95-4.34a2.45,2.45,0,0,0-1.69.76,2.14,2.14,0,0,0-.15,1.36,5.63,5.63,0,0,1-1,3.14c-.4.66-.87,1.27-1.32,1.89a9.66,9.66,0,0,1-1.31,1.73,1.12,1.12,0,0,1-.62.28c-.25,0-.39.17-.21.4s.58.43.78.71c.32.45.07.93-.24,1.31a5.85,5.85,0,0,0-.51.65c-.26.43-.57.62-1.25.38a3.09,3.09,0,0,1-.47-.23.38.38,0,0,1-.14-.12c-.13-.22.36-.58.46-.75a1.29,1.29,0,0,0,.23-1.09.77.77,0,0,0-.56-.46,3.55,3.55,0,0,0-.51-.05,5.36,5.36,0,0,1-1.81-.63c-.43-.19-.91-.27-1.34-.48-.66-.33-1.29-.7-1.91-1.09-1.13-.7-2.23-1.43-3.32-2.19l-.3-.21c-2.77-2.19-2,.84-2,.84a8.75,8.75,0,0,0,2,2.35c1,1.45,3.11,1.93,4.75,2.51.35.13.75.3.85.64a.27.27,0,0,1,0,.2.27.27,0,0,1-.14.1,1.89,1.89,0,0,1-.78.06,20.6,20.6,0,0,1-4.59-1.06,3.93,3.93,0,0,0-1.18-.3c-1.28,0-2.18,1.85-1.61,2.84.08.14.17.27.26.4a6.18,6.18,0,0,1,1,1.75c.2.71-.21,1.19-.91,1.44-.31.11-.89.28-1.14,0s-.05-.59,0-.84a4.23,4.23,0,0,0-.47-1.8c-.2-.45-.35-.9-.52-1.35a6,6,0,0,0-.57-1c-.2-.32-.34-.66-.51-1a9,9,0,0,0-1.21-2,7.72,7.72,0,0,0-1.07-1c-.37-.29-.82-.47-1.18-.77-.55-.46-1.7-2.3-2.39-1a5.82,5.82,0,0,0-.23,3.12,9,9,0,0,0-1.18.34,1.22,1.22,0,0,0-.68,1.76c.25.76,1.39,2,.43,2.63-.16.48-.49,1.3-1,1.51a14.38,14.38,0,0,1,.95,8.17,14.76,14.76,0,0,1-1.37,4.23,1.26,1.26,0,0,0-.2,1,1.07,1.07,0,0,0,.67.55,3,3,0,0,0,3.45-1.19,5.45,5.45,0,0,0,.37-3c-.24-5.31,1.27-10.53,2.78-15.65l-.4-.29.46.08-.06.21a7.55,7.55,0,0,1,1.82,2,16,16,0,0,1,1.8,6A119.7,119.7,0,0,1,267.63,655c-.1,1.41,0,3.2,1.44,3.68a2.81,2.81,0,0,0,2.88-1.13c2-2.42,1.33-5.81,1-8.84a34,34,0,0,1,4.68-21.05c-2.49,5.15,0,11.09.38,16.73a25.56,25.56,0,0,0,.51,5,5.36,5.36,0,0,0,3.24,3.78c1.45.48,3.41-.16,3.67-1.57s-1.3-2.59-2.19-3.83c-1.16-1.62-1.22-3.69-1.14-5.64a83.78,83.78,0,0,1,1.8-13.67,2.87,2.87,0,0,1,.32-2.58,2.84,2.84,0,0,0,.4-.72q.35-1.54.74-3.08a22.19,22.19,0,0,0,.3-2.41c0,.52-.77.94-1.19,1.17-.2.11-1.13.56-1.24.19s.64-1,.81-1.26C284.36,619.33,284.69,618.88,285,618.43Zm-25.72,1.27a5.72,5.72,0,0,1,3.11,1A14.11,14.11,0,0,1,259.28,619.7Z" transform="translate(-55.21 -52)"/><path class="cls-24" d="M283,614.35a4.48,4.48,0,0,0-1.26-.89,1.24,1.24,0,0,1-.49-.35.36.36,0,0,1-.13-.34.64.64,0,0,1,.23-.3c3.24-2.91,3.17-7,2.6-10.83a2.33,2.33,0,0,0-.35-1h0a.87.87,0,0,0-.71-.28,2.47,2.47,0,0,1-2.06-.5c-.07-.07-.15-.17-.26-.17s-.55.42-.74.53a1,1,0,0,1-1,.09,1.54,1.54,0,0,1-.39-.38h0a1.77,1.77,0,0,1-.38-.76,3.07,3.07,0,0,1-1.61,1.17,2.79,2.79,0,0,1-1.94,0c0,.73-.52,2.09-1.57,1.57a1.25,1.25,0,0,1-.43-.39v0c-.08-.09-.15-.2-.22-.3l-.07-.1v0a1,1,0,0,0-.4-.29,1.16,1.16,0,0,0-.59,0c-1.45.24-2.39,1.58-3.75,2.09-.19.07-.44.11-.56-.05l0,0-.05-.06c-.11-.15,0-.35.14-.48.76-.77,2-1,2.88-1.63a1,1,0,0,0,.49-.71q-.8.3-1.56.67A18.86,18.86,0,0,0,266,602.2a17.29,17.29,0,0,0-1.51,1.22q-.36.32-.7.66a2.14,2.14,0,0,0-.54.6,1.49,1.49,0,0,0,.06.91,2.17,2.17,0,0,0,.28.52,6,6,0,0,0,.87.9,3.94,3.94,0,0,0,1,.68,5.57,5.57,0,0,0,.7.26,7.14,7.14,0,0,0,.77.19h0a7.81,7.81,0,0,0,1,.07h.12l.9-.06h.07a10.42,10.42,0,0,0,1.4-.25h0l.48-.13a38.09,38.09,0,0,0,4.65-1.9l.64-.28.13-.09a1,1,0,0,1,.5-.17h0l.1,0h0a.16.16,0,0,1,.06.08h0a.19.19,0,0,1,.07.11.35.35,0,0,1,0,.2,2.61,2.61,0,0,1-.43.68,16.5,16.5,0,0,1-3.44,3.21,7.61,7.61,0,0,1-2.58,1.26,3.75,3.75,0,0,1-2.82-.33,1.53,1.53,0,0,0,.25.45,2.38,2.38,0,0,0,1.55.72c.33,0,3-.52,3-.5l.06.09h0a5.09,5.09,0,0,0,.35.51,7.79,7.79,0,0,0,4,2.39,12,12,0,0,0,1.24.26.19.19,0,0,0-.07.07l.14,0a.19.19,0,0,0-.07.07l-.15.2a7.62,7.62,0,0,0-.8,1.09.94.94,0,0,0,0,1.07h0c.41.46,1.16.79,1.53,1.29h0l.07.09.06.08h0a.7.7,0,0,0,.13.13c.72.48,1.82-1.07,2.2-1.45.69-.69-.22-1.65-.57-2.29l0,0h0l-.08-.09a6.77,6.77,0,0,0,2.11,0,.27.27,0,0,0,.14-.07.19.19,0,0,0,0-.24Zm-14.86-7.8a5.09,5.09,0,0,1-1.64-1.37h0l-.11-.22a.72.72,0,0,1,.16-.8s-.07-1.31,3.59,0C270.14,604.16,270.82,605.51,268.15,606.55Z" transform="translate(-55.21 -52)"/><path class="cls-16" d="M268,608.21h-.54l-.34,0-.15,0A7.81,7.81,0,0,0,268,608.21Z" transform="translate(-55.21 -52)"/><path class="cls-16" d="M268.15,606.55a5.09,5.09,0,0,1-1.64-1.37h0l-.11-.22a.72.72,0,0,1,.16-.8s-.07-1.31,3.59,0C270.14,604.16,270.82,605.51,268.15,606.55Z" transform="translate(-55.21 -52)"/><path class="cls-16" d="M269.94,600.66c-.9.63-2.12.85-2.88,1.63-.12.12-.23.3-.16.45l-.05-.06c-.11-.15,0-.35.14-.48.76-.77,2-1,2.88-1.63a1,1,0,0,0,.49-.71l.06,0C270.5,600.16,270.22,600.46,269.94,600.66Z" transform="translate(-55.21 -52)"/><path class="cls-16" d="M276.27,605.58l-.57.37-1,.46c-.89.4-1.77.8-2.69,1.13l-.93.31-.49.13a8.21,8.21,0,0,1-1.48.16,10.42,10.42,0,0,0,1.4-.25h0l.48-.13a38.09,38.09,0,0,0,4.65-1.9Z" transform="translate(-55.21 -52)"/><path class="cls-16" d="M272.75,611.28c-.2,0-2.7.52-3,.49a2.32,2.32,0,0,1-1.63-.81,2.38,2.38,0,0,0,1.55.72c.33,0,3-.52,3-.5Z" transform="translate(-55.21 -52)"/><path class="cls-16" d="M277.08,605.36l-.09,0h-.08l.1,0h0A.16.16,0,0,1,277.08,605.36Z" transform="translate(-55.21 -52)"/><path class="cls-16" d="M279,618.27c-.42-.48-1.18-.81-1.53-1.29C277.86,617.43,278.61,617.77,279,618.27Z" transform="translate(-55.21 -52)"/><path class="cls-16" d="M278.36,614.44a.19.19,0,0,0-.07.07c-.37-.06-.74-.14-1.1-.24a7.72,7.72,0,0,1-4.07-2.48,7.79,7.79,0,0,0,4,2.39A12,12,0,0,0,278.36,614.44Z" transform="translate(-55.21 -52)"/><path class="cls-16" d="M278.47,599.89a1.77,1.77,0,0,1-.38-.76l.06-.08A1.55,1.55,0,0,0,278.47,599.89Z" transform="translate(-55.21 -52)"/><path class="cls-16" d="M281.54,617.21c-.38.38-1.48,1.94-2.2,1.45a.89.89,0,0,1-.21-.22.7.7,0,0,0,.13.13c.72.48,1.82-1.07,2.2-1.45.69-.69-.22-1.65-.57-2.29l0,0a.51.51,0,0,1,.09.12C281.32,615.56,282.23,616.53,281.54,617.21Z" transform="translate(-55.21 -52)"/><path class="cls-16" d="M283.11,614.68a.27.27,0,0,1-.14.07,6.76,6.76,0,0,1-2.11,0l-.08-.09a6.77,6.77,0,0,0,2.11,0,.27.27,0,0,0,.14-.07.19.19,0,0,0,0-.24C283.11,614.44,283.19,614.58,283.11,614.68Z" transform="translate(-55.21 -52)"/><path class="cls-16" d="M281.44,612.55a.64.64,0,0,0-.23.3.31.31,0,0,0,.05.25.36.36,0,0,1-.13-.34.64.64,0,0,1,.23-.3c3.24-2.91,3.17-7,2.6-10.83a2.33,2.33,0,0,0-.35-1,2.13,2.13,0,0,1,.42,1.1C284.61,605.56,284.69,609.64,281.44,612.55Z" transform="translate(-55.21 -52)"/><path class="cls-25" d="M288.6,602.55c-.81-6-4.62-11.24-8.31-16.22-.25-.34-.58-.71-1-.69s-.71.42-.91.78a16.86,16.86,0,0,0-1.69,4.45,6.62,6.62,0,0,0-3.48-.28,5.45,5.45,0,0,1-.32-.47l-.35-.47a11,11,0,0,0-2.64-2.37,10.73,10.73,0,0,0-1-.58l-.53-.25c-.12-.05-.23-.12-.35-.17a.24.24,0,0,0-.14,0c-.08,0-.1.09-.12.15-.07.27-.17.53-.22.8a4.94,4.94,0,0,0-.12,1.18,16.8,16.8,0,0,0,.3,2.3,10.31,10.31,0,0,1,.19,2.32,4.74,4.74,0,0,1-.12.81c-.22.91-.75,1.73-1,2.62a5.07,5.07,0,0,0,.69,4.33l1.82-.83a27.68,27.68,0,0,0-4.9,3.13,9.2,9.2,0,0,0-1.16,1.36,19.31,19.31,0,0,1,5.54-4q.79-.38,1.62-.69a.5.5,0,0,1,0,.11,1,1,0,0,1-.49.71c-.9.63-2.12.85-2.88,1.63-.13.13-.25.33-.14.48l.05.06a.58.58,0,0,0,.5,0c1.36-.51,2.3-1.86,3.75-2.09a1.16,1.16,0,0,1,.59,0,1.05,1.05,0,0,1,.47.38v0l.07.1.22.3v0a1.12,1.12,0,0,0,.35.3c1,.52,1.61-.84,1.57-1.57a2.79,2.79,0,0,0,1.94,0,3.08,3.08,0,0,0,1.67-1.26q0,.08,0,.17a1.77,1.77,0,0,0,.38.76h0a1.42,1.42,0,0,0,.32.28,1,1,0,0,0,1-.09c.19-.11.52-.54.74-.53s.19.09.26.17a2.47,2.47,0,0,0,2.06.5.87.87,0,0,1,.78.37h0a2.33,2.33,0,0,1,.35,1c.56,3.85.64,7.92-2.6,10.83a.64.64,0,0,0-.23.3.36.36,0,0,0,.13.34,1.7,1.7,0,0,0,.42.26,4.48,4.48,0,0,1,1.26.89l.07.09h0a.19.19,0,0,1,0,.24.27.27,0,0,1-.14.07,6.77,6.77,0,0,1-2.11,0l.08.09h0l0,0c.35.64,1.26,1.61.57,2.29-.38.38-1.48,1.94-2.2,1.45a.7.7,0,0,1-.13-.13h0l-.13-.17h0c-.38-.5-1.13-.83-1.53-1.29h0a.94.94,0,0,1-.1-1.16,7.62,7.62,0,0,1,.8-1.09l.15-.2a.19.19,0,0,1,.07-.07,12,12,0,0,1-1.24-.26,7.79,7.79,0,0,1-4-2.39,4.45,4.45,0,0,1-.36-.5l-.06-.09s-2.7.52-3,.5a2.38,2.38,0,0,1-1.55-.72,1.52,1.52,0,0,1-.32-.54,3.75,3.75,0,0,0,2.82.33,7.61,7.61,0,0,0,2.58-1.26,16.5,16.5,0,0,0,3.44-3.21,2.62,2.62,0,0,0,.43-.68.35.35,0,0,0,0-.2v0a.16.16,0,0,0-.06-.08h0l-.1,0h0l-.63.26-.64.28c-.31.19-.62.38-.95.55a14.22,14.22,0,0,1-2.69,1.13,12.14,12.14,0,0,1-1.41.33h-.09a10.42,10.42,0,0,1-1.4.25,8.09,8.09,0,0,1-1,.06H268a7.81,7.81,0,0,1-1-.07h-.08a4,4,0,0,1-1-.11l-.26-.08-.18-.08-.26-.15h0l-.19-.13-.18-.14h0l-.19-.11c-1-.63-1.82-1.8-1.43-2.88,0,0-7.17-1.42-9.23,2.67,0,0-2.81,1.94-1.55,9.61,0,0,1,5.74,3,8.85a10,10,0,0,1,.71,1.31c.53-.2.85-1,1-1.51,1-.68-.17-1.88-.43-2.63a1.22,1.22,0,0,1,.68-1.76,9,9,0,0,1,1.18-.34,5.82,5.82,0,0,1,.23-3.12c.69-1.28,1.85.55,2.39,1,.36.3.81.48,1.18.77a7.72,7.72,0,0,1,1.07,1,9,9,0,0,1,1.21,2c.17.33.31.68.51,1a6,6,0,0,1,.57,1c.17.46.33.9.52,1.35a4.23,4.23,0,0,1,.47,1.8c0,.25-.14.62,0,.84s.83.12,1.14,0c.7-.24,1.11-.73.91-1.44a6.18,6.18,0,0,0-1-1.75c-.09-.13-.18-.26-.26-.4-.56-1,.34-2.88,1.61-2.84a3.93,3.93,0,0,1,1.18.3,20.6,20.6,0,0,0,4.59,1.06,1.89,1.89,0,0,0,.78-.06.27.27,0,0,0,.14-.1.27.27,0,0,0,0-.2c-.1-.34-.5-.51-.85-.64-1.64-.59-3.71-1.07-4.75-2.51a8.75,8.75,0,0,1-2-2.35s-.74-3,2-.84l.3.21c1.09.76,2.19,1.49,3.32,2.19.62.38,1.25.76,1.91,1.09.43.21.9.29,1.34.48a5.36,5.36,0,0,0,1.81.63,3.55,3.55,0,0,1,.51.05.77.77,0,0,1,.56.46,1.29,1.29,0,0,1-.23,1.09c-.1.17-.6.53-.46.75a.38.38,0,0,0,.14.12,3.09,3.09,0,0,0,.47.23c.68.24,1,.06,1.25-.38a5.85,5.85,0,0,1,.51-.65c.31-.38.56-.86.24-1.31-.2-.28-.57-.43-.78-.71s0-.38.21-.4a1.12,1.12,0,0,0,.62-.28,9.66,9.66,0,0,0,1.31-1.73c.45-.63.92-1.24,1.32-1.89a5.63,5.63,0,0,0,1-3.14,2.14,2.14,0,0,1,.15-1.36,2.45,2.45,0,0,1,1.69-.76c.48,1.29-.48,3.13-.95,4.34a14.08,14.08,0,0,1-1.58,2.86c-.31.45-.64.9-1,1.35-.17.24-.9,1-.81,1.26s1-.08,1.24-.19c.42-.23,1.16-.65,1.19-1.17a22.19,22.19,0,0,1-.3,2.41c.48-2,1-3.93,1.5-5.88C288,611.73,289.22,607.13,288.6,602.55Zm-20.31-4.68a2.18,2.18,0,0,1,.89-2.21c.67-.74.79,1.52.79,1.52C269.95,599.25,268.29,597.87,268.29,597.87Zm6.54-.08c-.12,0-.24,0-.36,0a1.72,1.72,0,0,0-.8.42c-.27.21-.46.48-.73.7s-.4-.34-.45-.47a2.34,2.34,0,0,1-.12-.64,2.49,2.49,0,0,1,.21-1.15,2.32,2.32,0,0,1,.7-.91,1.22,1.22,0,0,1,.41-.25l.15,0a.9.9,0,0,1,.5.21,3,3,0,0,1,.74.84C275.3,596.91,275.47,597.69,274.82,597.79Z" transform="translate(-55.21 -52)"/><path class="cls-26" d="M274.82,597.79c-.12,0-.24,0-.36,0a1.72,1.72,0,0,0-.8.42c-.27.21-.46.48-.73.7s-.4-.34-.45-.47a2.34,2.34,0,0,1-.12-.64,2.49,2.49,0,0,1,.21-1.15,2.32,2.32,0,0,1,.7-.91,1.22,1.22,0,0,1,.41-.25l.15,0a.9.9,0,0,1,.5.21,3,3,0,0,1,.74.84C275.3,596.91,275.47,597.69,274.82,597.79Z" transform="translate(-55.21 -52)"/><path class="cls-26" d="M270,597.18c0,2.07-1.68.69-1.68.69a2.18,2.18,0,0,1,.89-2.21C269.84,594.92,270,597.18,270,597.18Z" transform="translate(-55.21 -52)"/><path class="cls-27" d="M268.06,608.6a.23.23,0,0,0-.28.12,1.44,1.44,0,0,0,1,1.89,4.21,4.21,0,0,0,2.94-.21c2.27-.9,3.84-2.76,5.31-4.54C277,605.86,270,609.17,268.06,608.6Z" transform="translate(-55.21 -52)"/><path class="cls-16" d="M275.92,613.9q-.38,1.64-.72,3.29" transform="translate(-55.21 -52)"/><polyline class="cls-16" points="207.18 568.7 207.18 568.7 207.18 568.7"/><path class="cls-16" d="M248.47,614l0,.09" transform="translate(-55.21 -52)"/><path class="cls-26" d="M268.86,587.48c1,.59,2.63,1.81,2.86,3.39a.52.52,0,0,1-.3.53c-.35.17-.7.32-1,.5a4.35,4.35,0,0,0-1.19.88,2.47,2.47,0,0,0-.26.34c-.06.09-.09.2-.15.29a.33.33,0,0,1-.2.16h0a0,0,0,0,1,0,0,.13.13,0,0,1,0-.05,1.57,1.57,0,0,0,0-1.12q-.12-.65-.22-1.29c-.08-.5-.15-1-.22-1.49s-.11-.91-.13-1.37a1.25,1.25,0,0,1,0-.25C268.1,587.12,268.47,587.25,268.86,587.48Z" transform="translate(-55.21 -52)"/><path class="cls-26" d="M277.23,590.85a22.33,22.33,0,0,1,1.16-3.13c.23-.25.25-.67.58-.84.62-.31,1.19.57,1.46,1,.58.83,1.09,1.72,1.64,2.57s1.22,1.91,1.81,2.88a3.19,3.19,0,0,1,.46.8,2.18,2.18,0,0,0-.7-.11,7.61,7.61,0,0,1-2.85-.91A11.88,11.88,0,0,1,277.23,590.85Z" transform="translate(-55.21 -52)"/><path class="cls-28" d="M276.45,605.47a26,26,0,0,1-2.32,1.49s-.19,2.29-.73,2.54c0,0,3.34-2.52,3.49-3.23S277.28,605.27,276.45,605.47Z" transform="translate(-55.21 -52)"/><path class="cls-29" d="M271,610.69s-.15-.67,0-.74.36.66.46.55A.71.71,0,0,1,271,610.69Z" transform="translate(-55.21 -52)"/><path class="cls-30" d="M275.94,599.26c0,.47-.64.82-1.34.76s-1.23-.48-1.19-1,.64-.82,1.34-.76S276,598.78,275.94,599.26Z" transform="translate(-55.21 -52)"/><path class="cls-31" d="M275.63,599.22c0,.36-.48.62-1,.58s-.93-.36-.9-.72.48-.62,1-.58S275.66,598.86,275.63,599.22Z" transform="translate(-55.21 -52)"/><path class="cls-32" d="M275.22,599.09a.53.53,0,0,1-.57.47.51.51,0,0,1-.48-.55.53.53,0,0,1,.57-.47A.51.51,0,0,1,275.22,599.09Z" transform="translate(-55.21 -52)"/><circle class="cls-33" cx="274.55" cy="598.78" r="0.15" transform="matrix(0.12, -0.99, 0.99, 0.12, -407.15, 750.32)"/><path class="cls-30" d="M269.42,599.11c0,.41-.29.71-.6.67a.76.76,0,0,1-.54-.83c0-.41.29-.71.6-.67A.76.76,0,0,1,269.42,599.11Z" transform="translate(-55.21 -52)"/><path class="cls-31" d="M269.28,599.08c0,.31-.22.54-.45.5a.58.58,0,0,1-.4-.63c0-.31.22-.54.45-.5A.58.58,0,0,1,269.28,599.08Z" transform="translate(-55.21 -52)"/><path class="cls-32" d="M269.09,599c0,.25-.13.43-.26.41s-.23-.23-.22-.48.13-.43.26-.41S269.1,598.72,269.09,599Z" transform="translate(-55.21 -52)"/><path class="cls-33" d="M268.72,598.68c0-.07,0-.13.08-.12s.07.08.06.15,0,.13-.08.12S268.72,598.75,268.72,598.68Z" transform="translate(-55.21 -52)"/><polygon class="cls-34" points="177.35 488.57 187.94 630.99 263.34 587.01 263.34 518.97 177.35 488.57"/><path d="M154.92,500.68a32.92,32.92,0,0,0,8.73-2.79l.57,2.06a33.82,33.82,0,0,1-9.07,3Zm5.68,2.89a13.28,13.28,0,0,0,6-5.75,75.54,75.54,0,0,1-1.92-11.61h-9.47V484h9.28l-.13-2.22,1.62.13.11,2.09h3.43v2.19h-3.24a78.85,78.85,0,0,0,1.36,9.24,32.28,32.28,0,0,0,1.64-7.33l1.57.57a40.45,40.45,0,0,1-1.45,6.53L168.31,498c.81,2.86,1.57,4.8,1.77,4.8.47,0,.68-3.07.75-4.08l1.53.72c-.34,3.53-.87,5.55-1.53,6a.82.82,0,0,1-.55.15c-1.4,0-2.77-4.64-3-5.55a14.48,14.48,0,0,1-5.6,5.52Zm3-7.12c0,.23-.08.34-.25.34H156c-.15,0-.23-.1-.23-.34v-7.92c0-.18.08-.28.23-.28h7.34c.17,0,.25.1.25.28Zm-1.7-6h-4.43c-.06,0-.08,0-.08.1v3.92c0,.08,0,.13.08.13h4.43c.06,0,.09-.05.09-.13v-3.92Zm9.17-3.25a27.78,27.78,0,0,0-2-4.36l1.26-1.16a26.16,26.16,0,0,1,2,4.44Z" transform="translate(-55.21 -52)"/><path d="M185.84,505.14c-4.38-.18-6.77-.85-8.45-3.95a25.16,25.16,0,0,1-2.4,4.39l-1.3-1.34.15-.23a18.51,18.51,0,0,0,3.3-8.07l1.55.59-.57,2.55a6.68,6.68,0,0,0,3.45,3.41V495h-7.41v-2.09h16.52V495h-7.51v2.86h6.39V500h-6.39v2.89l2.09.1h5.87l-.4,2.19ZM188.95,491c0,.21-.08.31-.21.31h-12.6c-.13,0-.21-.1-.21-.31v-8.36c0-.18.08-.28.21-.28h12.6c.13,0,.21.1.21.28Zm-11.49-5.21h10v-1.37l-.08-.08h-9.83c-.06,0-.08,0-.06.08Zm10,2h-10v1.44l.06.1h9.83l.08-.1Z" transform="translate(-55.21 -52)"/><path d="M198.78,497.27l-5.83.49-.25-2.3,6.07-.52v-4.08l-5.26.41-.21-2.27,5.47-.41V485l-5.07.08-.19-2.32A71.35,71.35,0,0,0,208,481.64l.23,2.27a37.31,37.31,0,0,1-5.75.85l-2,.18v3.53l8.13-.67.09,2.3-8.22.64v4.1l8.87-.8.11,2.3-9,.77v4.18c0,.9,0,1.5,1,1.5h5.17a1.16,1.16,0,0,0,1.09-.62,15.93,15.93,0,0,0,.43-4l1.68.49a40.52,40.52,0,0,1-.3,4.36,3.76,3.76,0,0,1-.38,1.11c-.53.85-.89,1-2,1h-6.41c-1,0-2.08-.67-2-3.43Z" transform="translate(-55.21 -52)"/><path d="M214.81,494.2a14.1,14.1,0,0,0-1.55-3.9c-.19-.31-.21-.34-.21-.44a.62.62,0,0,1,0-.18l2.55-4.54,0-.31c0-.1-.08-.15-.15-.15h-3.81v-2.19h5.73l1,1.19-3.19,5.7a1.11,1.11,0,0,0-.19.59.94.94,0,0,0,.23.62,18.76,18.76,0,0,1,1,2.73l1.57-1.11.7,2-1.79,1.26a20.71,20.71,0,0,1,.34,3.56c0,3.53-1.28,6.4-2.79,6.4a4.68,4.68,0,0,1-2.66-1.29l.41-2.43a4.48,4.48,0,0,0,2.06,1.32c.3,0,1.3-1.11,1.3-4.26a18.09,18.09,0,0,0-.15-2.4L212,498l-.58-2.06Zm12.7,11.25q-1.19-2.48-2.94-5.57a29.79,29.79,0,0,1-6.6,5.19l-1-2.09a25.48,25.48,0,0,0,6.55-4.7,21,21,0,0,0,4-7.77l1.55.57a20.63,20.63,0,0,1-3.38,7.53c1.11,1.7,2.19,3.53,3.19,5.42Zm-9.7-8.1a21.72,21.72,0,0,0,3.64-2.66,23.8,23.8,0,0,0-3.75-4.36l.85-1.88a10,10,0,0,1,1.38,1.37l2-3.66h-3.51v-2.09h4.23v-2.32h1.6v2.32h4.51v2.09h-4.92c-.68,1.37-1.6,3.07-2.77,5l1.64,2.17a16.14,16.14,0,0,0,2.49-5.73l1.57.49-.57,2.24q-1.64,4.91-7.34,8.82Z" transform="translate(-55.21 -52)"/><path d="M244.39,497.69a27.43,27.43,0,0,1-3,4.21l6.17,1.7-.7,2.06-7.3-2.19c-2.13,1.47-5,2.19-8.62,2.19l-.4-2.3a13.83,13.83,0,0,0,1.45.05,14.31,14.31,0,0,0,4.79-.77l-3.9-1.21-.21-1.11,2.17-2.63h-4.43v-2.19h5.92l1.06-1.88h-6c-.15,0-.23-.1-.23-.34v-6.4q0-.31.23-.31h4.43v-1.83h-5.13v-2.09h16.52v2.09h-5.23v1.83h4.47c.17,0,.25.1.25.31v6.4c0,.23-.08.34-.25.34h-7.19l-1.11,1.88h9.36v2.19Zm-8.51-6.17v-2.86h-3c-.06,0-.08,0-.06.1v2.63c0,.08,0,.1.06.13Zm3.4,9.78a14.05,14.05,0,0,0,3.11-3.61h-5.6l-1.43,2a.45.45,0,0,0-.11.26c0,.1.08.21.23.28Zm1.17-14.73v-1.83h-3v1.83Zm0,5v-2.86h-3v2.86Zm1.6-2.86v2.86h3l.08-.13v-2.63c0-.08,0-.1-.08-.1Z" transform="translate(-55.21 -52)"/><path d="M262.69,495.16H249.24v-2h17.34v2h-2.28v7.12a3.31,3.31,0,0,1-1.34,2.79,4.61,4.61,0,0,1-2.19.46,11.38,11.38,0,0,1-2.6-.34l-.17-2.45a11,11,0,0,0,2.94.54c1,0,1.75-.34,1.75-1.44Zm-5.66-12v-1.55h1.6v1.55h6.68l1.32.9a23.06,23.06,0,0,1-.72,4.54l-1.53-.67.53-2.48c0-.21-.06-.31-.19-.31H251.26c-.09,0-.15.08-.15.21v2.79h-1.6V483.6c0-.28.09-.41.3-.41Zm8.62,9.39c-.3,0-.58,0-.87,0a8.3,8.3,0,0,1-6.79-3.35l-.51.77c-1.15,1.34-3.38,2.24-6.62,2.68l-.21-2.27c3-.21,4.89-.83,5.77-1.78H252v-1.88h5.15v-1.26h1.55l0,1.26h5.06v1.88H259.6a6.53,6.53,0,0,0,5,1.91,10.7,10.7,0,0,0,1.26-.08ZM261,502c0,.18-.06.28-.19.28H251c-.13,0-.19-.1-.19-.28v-5.19c0-.18.06-.26.19-.26h9.85c.13,0,.19.08.19.26Zm-1.53-3.66h-7.17c-.06,0-.08,0-.06.08v2l.06.1h7.17l.08-.1v-2Z" transform="translate(-55.21 -52)"/><path d="M270,496.55l-.62,1.21-1.51-.93a29.55,29.55,0,0,0,3.34-10.42l1.57.44c-.36,2.06-.74,3.84-1.17,5.39v13H270Zm5,7.82v1.11h-1.53V491.86c0-.21.06-.34.25-.34h3.4l.36-2.14h-4v-2.09h10l.28-1.52c0-.21,0-.34-.21-.34H270.12c-.09,0-.15.08-.15.21v3.22h-1.6v-5.11c0-.28.09-.41.3-.41H276v-1.7h1.6v1.7h6.53l1.4,1a28.23,28.23,0,0,1-.87,5l-1.23-.57v.7h-4.4l-.32,2.14h5c.21,0,.32.13.32.41v13.54h-1.53v-1.11Zm0-7.4h7.6V493.9c0-.18-.08-.28-.25-.28h-7.13c-.17,0-.25.1-.23.28Zm7.6,2.09H275v3.22h7.6Z" transform="translate(-55.21 -52)"/><path class="cls-16" d="M231.73,929.57" transform="translate(-55.21 -52)"/><path class="cls-35" d="M232,947.83h0a.09.09,0,0,1,0,0,20.11,20.11,0,0,1-.59-4.13,11.56,11.56,0,0,1,.07-1.53c-.89-1.66-1.87-4.08-1.36-6a.51.51,0,0,0,0-.2.48.48,0,0,0-.07-.17,9,9,0,0,1-.67-1.25,4.16,4.16,0,0,1,.13-3,4.68,4.68,0,0,1,.16-.48,2.28,2.28,0,0,1,2.36-1.29,4.34,4.34,0,0,1-.4-.76,3.09,3.09,0,0,1-.27-.77,2.22,2.22,0,0,1,.3-1.62,3.62,3.62,0,0,1,1.94-1.63c1-.26,2.15.58,2.88,1.23.3-.42.95-.44,1.4-.45a3.85,3.85,0,0,1,1.78.46,3.09,3.09,0,0,1,1.62,1.48,8.24,8.24,0,0,1,.51,2.42c1.4-.2,2.33.87,2.83,2.12a10.42,10.42,0,0,1,.55,2c.13.72.06,1.38.14,2.08s.46,1.62.59,2.43a10.86,10.86,0,0,1,.08,3.12s-1.31,3.53-.8,4.17c0,.06-.79.25-.85.26-.78.15-1.56.25-2.34.36-2.1.29-4.2.54-6.31.78-1.21.17-2.43.27-3.64.41Z" transform="translate(-55.21 -52)"/><path class="cls-34" d="M231.89,930.63a3.3,3.3,0,0,0-1.58,1.36,2.48,2.48,0,0,0-.34,1.26,4.42,4.42,0,0,0,.16,1,1.5,1.5,0,0,0,1,1.08,1.62,1.62,0,0,0,2-.44,2.92,2.92,0,0,0,.43-1.93c-.08-.74-.28-2.12-1.14-2.34A.93.93,0,0,0,231.89,930.63Z" transform="translate(-55.21 -52)"/><path class="cls-34" d="M233.77,926.7a2.39,2.39,0,0,0-.83.68,1.94,1.94,0,0,0,0,2.19c.64,1.12,1.72,1.94,2.81.89a1.72,1.72,0,0,0,.44-1.27,7.62,7.62,0,0,0,0-1.52,1.58,1.58,0,0,0-.48-.91,1.76,1.76,0,0,0-1-.25A1.65,1.65,0,0,0,233.77,926.7Z" transform="translate(-55.21 -52)"/><path class="cls-34" d="M237.45,927a.7.7,0,0,1,.19-.1,2.32,2.32,0,0,1,1.63.15,2.78,2.78,0,0,1,1.27,1.88,2.31,2.31,0,0,1-.05,1.38c-.15.38-.62.9-1.08.79a.65.65,0,0,1-.18-.08,4.43,4.43,0,0,1-2-3.47.78.78,0,0,1,0-.29A.52.52,0,0,1,237.45,927Z" transform="translate(-55.21 -52)"/><path class="cls-34" d="M241.43,933v-.1a2.55,2.55,0,0,1,.23-1.56c.52-.71,1.58.13,2,.53a1.34,1.34,0,0,1,.18.18,1.39,1.39,0,0,1,.18.34,4.47,4.47,0,0,1,.38,1.86,2,2,0,0,1-.18.76c-.08.16-.31.57-.51.6a2.07,2.07,0,0,1-1.83-1.12A3.9,3.9,0,0,1,241.43,933Z" transform="translate(-55.21 -52)"/><path class="cls-34" d="M235.21,936.37h0c.05-.06,0-.18,0-.26s0-.21,0-.31a2.13,2.13,0,0,1,.14-.6,2.1,2.1,0,0,1,.72-.91,3.39,3.39,0,0,1,2.22-.51,2.51,2.51,0,0,1,1.31.41,1.92,1.92,0,0,1,.74,1.35,1.44,1.44,0,0,0,.11.58,1.13,1.13,0,0,0,.53.39,3.29,3.29,0,0,1,1.58,1.48,1.92,1.92,0,0,1-.22,2.08,2.58,2.58,0,0,1-1.4.63,19.77,19.77,0,0,1-6.35.24,2.24,2.24,0,0,1-1.56-.64,2.11,2.11,0,0,1-.05-2.19,4.17,4.17,0,0,1,.74-.89,4.3,4.3,0,0,1,.95-.64l.37-.16Z" transform="translate(-55.21 -52)"/><path class="cls-16" d="M92.53,853.88" transform="translate(-55.21 -52)"/><path class="cls-36" d="M90.38,834.16h0a.1.1,0,0,1,0,0,23.17,23.17,0,0,1,1,4.42,13.23,13.23,0,0,1,.08,1.66c1.07,1.73,2.33,4.27,2,6.35a.58.58,0,0,0,0,.22.54.54,0,0,0,.09.18,10.22,10.22,0,0,1,.81,1.3,4.74,4.74,0,0,1,.16,3.26,5.2,5.2,0,0,1-.12.53,2.27,2.27,0,0,1-2.29,1.57,4.92,4.92,0,0,1,.49.79,3.54,3.54,0,0,1,.35.82,2.51,2.51,0,0,1-.15,1.77A3.68,3.68,0,0,1,91,859c-1,.35-2.26-.47-3.07-1.11-.27.47-.92.55-1.39.59a3.84,3.84,0,0,1-1.86-.36,3.34,3.34,0,0,1-1.81-1.48,9.49,9.49,0,0,1-.77-2.58c-1.41.32-2.47-.77-3.11-2.07a12,12,0,0,1-.77-2.12c-.21-.77-.2-1.48-.35-2.24s-.63-1.71-.85-2.59a12.47,12.47,0,0,1-.39-3.36s1-3.92.4-4.57c-.05-.06.79-.33.84-.34.78-.22,1.57-.39,2.36-.57,2.12-.47,4.25-.9,6.38-1.32,1.22-.27,2.46-.48,3.69-.72Z" transform="translate(-55.21 -52)"/><path class="cls-37" d="M92.26,852.75a3.36,3.36,0,0,0,1.48-1.59,2.77,2.77,0,0,0,.22-1.39,5.09,5.09,0,0,0-.26-1.06,1.64,1.64,0,0,0-1.1-1.09,1.59,1.59,0,0,0-2,.63,3.28,3.28,0,0,0-.25,2.12c.15.79.5,2.28,1.4,2.44A.9.9,0,0,0,92.26,852.75Z" transform="translate(-55.21 -52)"/><path class="cls-37" d="M90.72,857.13a2.43,2.43,0,0,0,.78-.8,2.21,2.21,0,0,0-.25-2.37c-.77-1.16-2-2-3-.75a1.91,1.91,0,0,0-.32,1.4,8.74,8.74,0,0,0,.17,1.64,1.79,1.79,0,0,0,.59.95,1.75,1.75,0,0,0,1.06.19A1.6,1.6,0,0,0,90.72,857.13Z" transform="translate(-55.21 -52)"/><path class="cls-37" d="M86.92,857.07a.69.69,0,0,1-.18.12,2.28,2.28,0,0,1-1.68,0,3.1,3.1,0,0,1-1.49-1.93,2.64,2.64,0,0,1-.08-1.49c.12-.43.55-1,1-.94a.66.66,0,0,1,.19.07,5,5,0,0,1,2.38,3.6.89.89,0,0,1,0,.32A.55.55,0,0,1,86.92,857.07Z" transform="translate(-55.21 -52)"/><path class="cls-37" d="M82.25,850.91l0,.11a2.89,2.89,0,0,1-.08,1.71c-.46.81-1.63,0-2.14-.42a1.46,1.46,0,0,1-.21-.18,1.58,1.58,0,0,1-.22-.35,5.15,5.15,0,0,1-.58-2,2.24,2.24,0,0,1,.11-.84c.06-.18.26-.64.46-.68a2.17,2.17,0,0,1,2,1.07A4.47,4.47,0,0,1,82.25,850.91Z" transform="translate(-55.21 -52)"/><path class="cls-37" d="M88.28,846.79h0c0,.07,0,.2,0,.28s0,.23,0,.34a2.39,2.39,0,0,1-.08.66,2.21,2.21,0,0,1-.65,1,3.29,3.29,0,0,1-2.23.72,2.52,2.52,0,0,1-1.39-.34,2.16,2.16,0,0,1-.89-1.4,1.66,1.66,0,0,0-.17-.62,1.19,1.19,0,0,0-.59-.39,3.56,3.56,0,0,1-1.77-1.47,2.17,2.17,0,0,1,0-2.27,2.53,2.53,0,0,1,1.37-.79,19.19,19.19,0,0,1,6.48-.74,2.28,2.28,0,0,1,1.66.58,2.41,2.41,0,0,1,.28,2.36,4.36,4.36,0,0,1-.67,1,4.3,4.3,0,0,1-.91.77c-.12.07-.24.13-.36.2A.25.25,0,0,0,88.28,846.79Z" transform="translate(-55.21 -52)"/><path class="cls-38" d="M396.13,945.32A115.19,115.19,0,0,1,380,947.53q-2.83.13-5.65.18a152.08,152.08,0,0,1-22.25-1.18l-6-.74a116.85,116.85,0,0,0-23.37-.38c-1.93.13-3.87.3-5.81.47-10.53,1.17-20.45,2.28-31.1.5q-1.92-.17-3.85-.3c-3.85-.26-7.72-.42-11.61-.42l-5.68.3c-16.86,1-33.66,1.49-50.39.15-1.93,0-3.78,0-5.62,0-11,.13-22.1,0-32.94-.49l-6.18.16c-18.24.51-36.12.86-54.26-.16-1.34,0-2.62,0-3.89,0a85.83,85.83,0,0,0-9.68.36c-1.6.14-3.2.31-4.8.5-8.74,1.11-18.07,1.67-26.24-.27-6.42-1.66-10.5-5-9.36-8.71.06-.86.14-1.72.22-2.58.52-5.17,1.35-10.35.75-15.51,0-.75,0-1.5.09-2.25s-.2-1.61-.3-2.42a70.44,70.44,0,0,1-.62-14.56c.05-.9.13-1.8.24-2.7s.23-1.79.39-2.69c0-1,0-1.92,0-2.87-.45-8.09,1.28-16.17.32-24.24-.27-1-.56-2-.85-3.07-2.65-9.21-5.71-18.48,3.29-26.82a23.68,23.68,0,0,1,8.09-3.27c12-2.67,28.61.63,42.31,1.17h15.47c16.41-.4,33.33-2.06,49.47-.74q2.74.1,5.49.25t5.5.35l5.84.14h21c13.66-.09,27.48,0,41.16-.09l5.86-.06a281.59,281.59,0,0,1,57.08,0l5.25,0c10.48.07,20.93.18,31.31-.31,3-.21,6-.54,9-.85,2-.21,3.93-.42,5.85-.6,8.12-1.05,18.62-.78,23.88,2.82,8.17,6.64,4.08,14.11,3.36,21-.18.9-.37,1.78-.55,2.67a27.39,27.39,0,0,0-.8,8.06,25.7,25.7,0,0,1,.6,3,39,39,0,0,1-.46,12c.18.92.35,1.84.49,2.75.44,2.74.67,5.48.9,8.26a14.37,14.37,0,0,0,.95,2.53q.43.9.85,1.81c.28.6.54,1.21.77,1.82,3.81,7.75-6.11,15.49-.19,23q.47.92.92,1.84a45.33,45.33,0,0,1,2.3,5.57,8.68,8.68,0,0,1,.19,2.51c-.57,3.3-3.48,6.62-7.56,9.37-.79.57-1.58,1.13-2.36,1.69C396.33,945.06,396.13,945.32,396.13,945.32Z" transform="translate(-55.21 -52)"/><path d="M162.09,898.59v1.77h-2V880.48a.56.56,0,0,1,.63-.62h5.61c.44,0,.66.22.66.62v17.44a.61.61,0,0,1-.68.67Zm3-16.37a.3.3,0,0,0-.34-.33h-2.28a.3.3,0,0,0-.34.33v3.42h3Zm0,8.84v-3.39h-3v3.39Zm-.39,5.5a.35.35,0,0,0,.39-.38V893.1h-3v3.46Zm2.07,3.32c5-2.7,5.52-7.45,5.56-10h-2.43l-.75,1.39-2-.67a17.76,17.76,0,0,0,2.62-8l2,.19a21.81,21.81,0,0,1-1.07,5h7.95a34.34,34.34,0,0,1-1.22-6l-.17-.12h-6.34v-2h7.8c.36,0,.58.22.63.62.49,4.85,1.09,7.1,2.84,10.11l-2.16.69-.85-1.86,0,5.9c-.07,3-.61,4.9-1.58,5.54a3,3,0,0,1-1.77.43,12.66,12.66,0,0,1-3.06-.45l-.17-2.37a10.93,10.93,0,0,0,3,.62c.68,0,1-.22,1.31-1.29l.15-1c.1-2.15.15-3.8.15-4.9,0-1.58-.07-1.86-.36-1.86h-2.45c-.29,5.3-2.33,9.15-6.08,11.37Z" transform="translate(-55.21 -52)"/><path d="M196.23,882.08h-3.06l-.41,1.1c-.9,1.51-2.7,2.48-5.35,2.89l-.78-1.86c2.72-.29,3.86-.84,4.42-2.13h-4.76a.17.17,0,0,0-.19.17V885h-2v-4.44c0-.24.12-.33.36-.33h9.57V879h2v1.27h8.63l1.7.84a17.72,17.72,0,0,1-1,4.16l-1.87-.62a13.92,13.92,0,0,0,.63-2.27c0-.17-.07-.26-.24-.26h-5.86V883a1,1,0,0,0,1,1H201a.9.9,0,0,0,.51-.19l.46-1.46,1.58.62a6.81,6.81,0,0,1-.61,2,2.09,2.09,0,0,1-1.22.65H198a2,2,0,0,1-1.8-1.77Zm5.49,17h0v.07a4.82,4.82,0,0,0,.92.1,1,1,0,0,0,1.07-1v-4.64c0-.1,0-.14-.17-.14H186.73a.13.13,0,0,0-.15.14v7.53h-2v-9c0-.31.15-.45.44-.45H187V887a.56.56,0,0,1,.63-.62h15.21a.58.58,0,0,1,.66.65v4.73h1.73a.41.41,0,0,1,.46.45v6.86c0,1.22-.73,2.2-2.77,2.2a10.79,10.79,0,0,1-1.82-.19l-.12-1.74H188.5a.22.22,0,0,1-.24-.24v-4.16c0-.17.07-.24.24-.24h13c.17,0,.27.07.27.24ZM189,891.76h4.28v-2.32c0-.24.12-.38.39-.38h7.87v-.76c0-.14-.1-.24-.29-.24h-12a.22.22,0,0,0-.24.24Zm10.79,4.59H190.2c-.07,0-.1,0-.07.07v1.17l.07.1h9.55l.1-.1v-1.17ZM195,891.76h6.46v-1.15h-6.29c-.12,0-.19.07-.17.22Z" transform="translate(-55.21 -52)"/><path d="M212.59,900v.81h-2V892l-1.19.62L208.07,891a36.6,36.6,0,0,0,5.27-3.35h-4.91v-1.84h4.71v-2.46h-3.77v-1.84h3.77v-2.46h2.07v2.46h3.3v1.12l1.51-1.94,1.58,1.15c-1.19,1.46-2.28,2.8-3.35,4h2.55v1.84h-4.45l-3.06,2.53h6.56c.29,0,.44.14.44.41v10.2h-2V900Zm0-5.69h5.74v-2c0-.14-.1-.24-.29-.24h-5.15c-.22,0-.32.1-.29.26Zm5.74,1.86h-5.74v2h5.74Zm-2.79-10.35,2.38-2.46h-2.7v2.46Zm12.59-4.09h-4a.26.26,0,0,0-.29.29V901.1h-2.07V880.17a.32.32,0,0,1,.36-.36h7.07l1.31,1.1-2.6,7.1a.83.83,0,0,0-.07.33.85.85,0,0,0,.15.48c1.82,2.37,2.67,3.85,2.67,6.31a5.41,5.41,0,0,1-.56,2.46,2.91,2.91,0,0,1-2.87,1.62,8.61,8.61,0,0,1-2.58-.48l0-2.22a6.67,6.67,0,0,0,2.48.67c1.56,0,1.56-1.84,1.56-2.22a5.13,5.13,0,0,0,0-.84c-.17-1.27-1.14-3-2.79-5.09a.92.92,0,0,1-.17-.55,1.84,1.84,0,0,1,0-.33Z" transform="translate(-55.21 -52)"/><path d="M232.25,886.1a18.67,18.67,0,0,0,4.79-7l1.92.72a19.65,19.65,0,0,1-5,7.48Zm3.21,6.21-1.53,1.36-1.65-1.31a19.82,19.82,0,0,0,5.86-7.48l1.87.88a29.88,29.88,0,0,1-2.48,4.13v11.23h-2.07Zm10.91-.91a16.69,16.69,0,0,0,1.82,3.39c1.7-1.12,3.18-2.17,4.33-3.11l1.17,1.67c-1.29,1-2.7,2-4.16,3a15.89,15.89,0,0,0,5.54,3.15l-1.39,1.82a15.9,15.9,0,0,1-9.53-9.89h-1.7v7.48l.75-.17a22.81,22.81,0,0,0,3.55-1l.7,1.91a49.11,49.11,0,0,1-8.82,1.65l-.56-2,2.31-.17v-18.9a.55.55,0,0,1,.61-.6h11.06c.44,0,.66.22.66.6v10.49c0,.45-.22.65-.68.65Zm-3.91-6.79h8.19V882.2c0-.33-.17-.5-.53-.5h-7.17a.44.44,0,0,0-.49.5Zm8.19,2h-8.19v2.72h7.85a.3.3,0,0,0,.34-.31Z" transform="translate(-55.21 -52)"/><path d="M265,899.19h4.2v.41c2.62-2.29,4-6,4.06-11.09V883.8h-1a19.06,19.06,0,0,1-1.6,5.52l-2-.41a20.86,20.86,0,0,0,1.92-9.58l2,0-.1,2.58h5.32l1.26.69a51.33,51.33,0,0,1-1.19,8l-2-.31.24-.86a23.28,23.28,0,0,0,1.12-5c0-.41,0-.41-.29-.53h-1.85v4.09a19,19,0,0,0,4.18,12.62l-1.9.69a25.93,25.93,0,0,1-3.13-6.48,13.13,13.13,0,0,1-3.77,6.38l-1.31-1v.69H259a.57.57,0,0,1-.63-.65v-7l-.36.48a5.36,5.36,0,0,0-1.39-1.1,9.86,9.86,0,0,0,2-4.28l1.8.55L260,890h3.26l.75-1.72,1.68.72-.41,1h3.94l-.17,1.65H265V893h3.79v1.65H265v1.43h3.79v1.65H265Zm-.36-17.3h-3v.84h-1.87v-.84H257v-1.65h2.72v-1.08h1.87v1.08h3v-1.08h1.87v1.08h2.65v1.65h-2.65v.93h-1.87Zm-1.92,6c0,.17-.07.24-.24.24h-4.93c-.15,0-.22-.07-.22-.24v-4.3a.19.19,0,0,1,.22-.22h4.93c.17,0,.24.07.24.22Zm-1.77-2.94H259c-.07,0-.1,0-.07.07v1.43l.07.1h1.87l.07-.1V885Zm2.16,8.1v-1.34h-2.5a.24.24,0,0,0-.27.26V893Zm0,3.08v-1.43h-2.77v1.43Zm0,3.08v-1.43h-2.77v1.15c0,.19.1.29.27.29Zm5.78-11.33c0,.17-.07.24-.24.24h-4.93c-.15,0-.22-.07-.22-.24v-4.3a.19.19,0,0,1,.22-.22h4.93c.17,0,.24.07.24.22Zm-1.8-2.94H265.2c-.07,0-.1,0-.07.07v1.43l.07.1H267l.1-.1V885Z" transform="translate(-55.21 -52)"/><path d="M280.95,899.14c1.8-.81,3-1.53,3.11-3.75v-3.32c0-.19-.1-.29-.27-.29h-2.14v-2h3.94c.36,0,.53.17.53.5V896a4.46,4.46,0,0,0,3,2.41,20.89,20.89,0,0,0,4.52.29c2.38,0,5.64-.1,9.74-.29l-.51,2.29-10.57,0c-3.57,0-6-.91-7.07-2.65A6.43,6.43,0,0,1,282,901Zm4.18-10.54a24.55,24.55,0,0,0-4.11-2.68l1.12-1.72a22.87,22.87,0,0,1,4.18,2.72Zm.83-4.76a25.84,25.84,0,0,0-4.28-2.87l1.12-1.74a25.28,25.28,0,0,1,4.4,2.94Zm2.45,9.8V880.72c-.07-.26.07-.43.41-.48a20,20,0,0,0,4.71-1.19l1.17,1.82a19.62,19.62,0,0,1-4,1.08c-.19,0-.29.14-.27.26V893l2.92-1.17.92,2a39.43,39.43,0,0,1-6.85,2.44l-.87-2.06ZM300.75,882c0-.17-.1-.26-.29-.26h-2.79a.24.24,0,0,0-.27.26v15.7h-2V880.31c0-.43.19-.65.66-.65h6.12a.59.59,0,0,1,.68.65v13.33c0,1.79-1.46,2.17-2.55,2.17a7.5,7.5,0,0,1-1.68-.22l-.41-2.41a10.67,10.67,0,0,0,2,.36c.61,0,.61-.53.61-.86Z" transform="translate(-55.21 -52)"/><path class="cls-39" d="M90.73,946.42h0a.11.11,0,0,1,0-.06,24.47,24.47,0,0,1-.1-4.9,14,14,0,0,1,.29-1.77c-.77-2.06-1.56-5-.73-7.15a.62.62,0,0,0,.06-.23.57.57,0,0,0-.06-.21,10.82,10.82,0,0,1-.59-1.55,5,5,0,0,1,.55-3.49,5.6,5.6,0,0,1,.24-.54,2.55,2.55,0,0,1,2.83-1.18,5.2,5.2,0,0,1-.35-.94,3.74,3.74,0,0,1-.2-.94,2.68,2.68,0,0,1,.56-1.85A4.11,4.11,0,0,1,95.6,920c1.16-.16,2.33,1,3.07,1.83.4-.44,1.12-.38,1.64-.33a4.27,4.27,0,0,1,1.94.78,3.59,3.59,0,0,1,1.62,1.95c.09.29.47,2.89.25,2.89,1.6,0,2.5,1.34,2.9,2.86a12.64,12.64,0,0,1,.35,2.41c.05.85-.12,1.61-.12,2.45s.3,1.95.34,2.92a13.21,13.21,0,0,1-.33,3.65s-1.95,3.94-1.46,4.76c0,.07-.93.18-1,.18-.89.06-1.79.08-2.68.1-2.4.05-4.8.05-7.2,0-1.38,0-2.77,0-4.15,0Z" transform="translate(-55.21 -52)"/><path class="cls-40" d="M92.87,926.34a3.75,3.75,0,0,0-2,1.37,3,3,0,0,0-.55,1.42,5.37,5.37,0,0,0,0,1.18,1.76,1.76,0,0,0,.94,1.39,1.79,1.79,0,0,0,2.29-.25,3.51,3.51,0,0,0,.74-2.2c0-.87,0-2.52-1-2.88A1,1,0,0,0,92.87,926.34Z" transform="translate(-55.21 -52)"/><path class="cls-40" d="M95.53,922a2.71,2.71,0,0,0-1,.68,2.35,2.35,0,0,0-.26,2.56c.57,1.39,1.67,2.5,3,1.42a2.06,2.06,0,0,0,.66-1.42,9.26,9.26,0,0,0,.19-1.78,1.89,1.89,0,0,0-.42-1.13c-.29-.33-.71-.33-1.1-.43A1.8,1.8,0,0,0,95.53,922Z" transform="translate(-55.21 -52)"/><path class="cls-40" d="M99.62,922.89a.78.78,0,0,1,.23-.09,2.55,2.55,0,0,1,1.81.39,3.29,3.29,0,0,1,1.18,2.36,2.8,2.8,0,0,1-.24,1.6c-.22.43-.82,1-1.32.78a.72.72,0,0,1-.19-.12,5.28,5.28,0,0,1-1.77-4.32,1,1,0,0,1,.07-.34A.6.6,0,0,1,99.62,922.89Z" transform="translate(-55.21 -52)"/><path class="cls-40" d="M103.29,930.41s0-.08,0-.12a3.08,3.08,0,0,1,.47-1.79c.68-.76,1.76.36,2.22.9a1.57,1.57,0,0,1,.18.24,1.67,1.67,0,0,1,.16.42,5.44,5.44,0,0,1,.18,2.22,2.39,2.39,0,0,1-.31.87c-.11.18-.43.62-.65.63a2.36,2.36,0,0,1-1.91-1.56A4.71,4.71,0,0,1,103.29,930.41Z" transform="translate(-55.21 -52)"/><path class="cls-40" d="M95.84,933.49h0c.07-.07.07-.2.09-.29s0-.24.07-.36a2.56,2.56,0,0,1,.23-.68,2.43,2.43,0,0,1,.93-1,3.72,3.72,0,0,1,2.57-.29,2.79,2.79,0,0,1,1.42.66,2.29,2.29,0,0,1,.65,1.68,1.75,1.75,0,0,0,0,.69,1.29,1.29,0,0,0,.55.53A3.82,3.82,0,0,1,104,936.4a2.31,2.31,0,0,1-.52,2.4,2.85,2.85,0,0,1-1.65.55,21.62,21.62,0,0,1-7.18-.6,2.51,2.51,0,0,1-1.66-1,2.55,2.55,0,0,1,.23-2.56,4.65,4.65,0,0,1,2.1-1.55c.14-.05.29-.09.44-.13A.29.29,0,0,0,95.84,933.49Z" transform="translate(-55.21 -52)"/><path class="cls-16" d="M92.47,925.37" transform="translate(-55.21 -52)"/><path class="cls-41" d="M257.26,835.06h0a.07.07,0,0,1,0,0,13.32,13.32,0,0,1,.18,3.9,8.06,8.06,0,0,1-.32,1.42c.93,1.61,1.89,3.94.95,5.67a.38.38,0,0,0-.07.19.35.35,0,0,0,.07.16,7.05,7.05,0,0,1,.71,1.22c.41,1.06,0,1.82-.6,2.8a4.08,4.08,0,0,1-.28.44,3.72,3.72,0,0,1-3.29,1c.08,0,.37.65.42.73a2.16,2.16,0,0,1,.24.74,1.74,1.74,0,0,1-.63,1.49,5.37,5.37,0,0,1-2.79,1.39,5.43,5.43,0,0,1-3.61-1.34,3.15,3.15,0,0,1-1.91.33,6.4,6.4,0,0,1-2.27-.54,3.39,3.39,0,0,1-1.92-1.49c-.11-.23-.58-2.28-.33-2.3a3.32,3.32,0,0,1-3.42-2.17,7.06,7.06,0,0,1-.44-1.91,18.44,18.44,0,0,1,.11-2c0-.76-.38-1.54-.43-2.31a7.36,7.36,0,0,1,.34-2.92s2.23-3.21,1.65-3.84a6.55,6.55,0,0,1,1.15-.18c1-.08,2.09-.13,3.13-.18,2.8-.13,5.61-.22,8.41-.31,1.61-.07,3.23-.09,4.85-.14Z" transform="translate(-55.21 -52)"/><path class="cls-40" d="M255,851.15a4.84,4.84,0,0,0,2.27-1.17,2.05,2.05,0,0,0,.63-1.15,2.93,2.93,0,0,0-.06-.94,1.49,1.49,0,0,0-1.12-1.07,2.86,2.86,0,0,0-2.68.28,2.34,2.34,0,0,0-.84,1.78c0,.69.06,2,1.16,2.26A1.72,1.72,0,0,0,255,851.15Z" transform="translate(-55.21 -52)"/><path class="cls-40" d="M252,854.68a3.59,3.59,0,0,0,1.19-.58,1.42,1.42,0,0,0,.28-2.05,2.52,2.52,0,0,0-3.57-1,1.53,1.53,0,0,0-.75,1.16,5.18,5.18,0,0,0-.2,1.42,1.25,1.25,0,0,0,.51.88,2.92,2.92,0,0,0,1.29.3A3.05,3.05,0,0,0,252,854.68Z" transform="translate(-55.21 -52)"/><path class="cls-40" d="M247.17,854.15a1.2,1.2,0,0,1-.26.08,4.12,4.12,0,0,1-2.12-.25,2.42,2.42,0,0,1-1.4-1.84,1.63,1.63,0,0,1,.26-1.28,1.74,1.74,0,0,1,1.53-.67,1,1,0,0,1,.22.09,3.63,3.63,0,0,1,2.12,3.37.56.56,0,0,1-.07.27A.62.62,0,0,1,247.17,854.15Z" transform="translate(-55.21 -52)"/><path class="cls-40" d="M242.78,848.29s0,.06,0,.1a1.93,1.93,0,0,1-.53,1.44c-.78.63-2.06-.22-2.61-.63a1.4,1.4,0,0,1-.21-.18,1.08,1.08,0,0,1-.19-.33,3,3,0,0,1-.24-1.77,1.6,1.6,0,0,1,.35-.7c.13-.15.49-.51.75-.52a2.6,2.6,0,0,1,2.68,2.59Z" transform="translate(-55.21 -52)"/><path class="cls-40" d="M251.45,845.56h0c-.08.06-.08.16-.1.24s0,.19-.08.29a1.69,1.69,0,0,1-.26.55,2.62,2.62,0,0,1-1.08.8,6.24,6.24,0,0,1-3,.33,4,4,0,0,1-1.67-.47,1.54,1.54,0,0,1-.78-1.31,1,1,0,0,0-.06-.55,1.37,1.37,0,0,0-.65-.4,3.57,3.57,0,0,1-1.87-1.48,1.47,1.47,0,0,1,.58-1.93,4.51,4.51,0,0,1,1.93-.5,36.66,36.66,0,0,1,8.39.21,3.35,3.35,0,0,1,2,.7,1.52,1.52,0,0,1-.24,2,5.33,5.33,0,0,1-1.1.78,6.92,6.92,0,0,1-1.34.54l-.51.12Z" transform="translate(-55.21 -52)"/><path class="cls-16" d="M255.06,852.15" transform="translate(-55.21 -52)"/><path class="cls-16" d="M153.21,954.64c1.63,0,3.27,2.64,3.27,2.64a2.63,2.63,0,0,1,.1.33" transform="translate(-55.21 -52)"/><path class="cls-16" d="M170.87,943.92a6.57,6.57,0,0,1,.72.41" transform="translate(-55.21 -52)"/><path class="cls-16" d="M156.57,957.62l-.2-.15" transform="translate(-55.21 -52)"/><path class="cls-42" d="M147.43,954.64l-.33.09c-1.43.32-1.31-.81-1.31-.81a1.61,1.61,0,0,1,1.64-1.3C149.35,953.08,147.43,954.64,147.43,954.64Z" transform="translate(-55.21 -52)"/><path class="cls-16" d="M151.11,938a4,4,0,0,1,2.08.92l.15.11" transform="translate(-55.21 -52)"/><path class="cls-16" d="M147,942.52a3.37,3.37,0,0,0,1.42,2.4s2.15,2.59,2.49,4.17c0,0,.58,2.54,2.49,2.93" transform="translate(-55.21 -52)"/><path class="cls-16" d="M164,946.2" transform="translate(-55.21 -52)"/><path class="cls-43" d="M175.08,958.77c.11,2-5,1.64-9.55.95-3.31-.51-6.34-1.18-6.91-1.22a4.3,4.3,0,0,0-.55,0h0a5.76,5.76,0,0,1-1.5-.86,1.41,1.41,0,0,1,0,.2c.15,1.26-1.21,1.33-1.21,1.33-2.28.62-4.83-3.16-4.83-3.16a.55.55,0,0,1-.15-.38,4.16,4.16,0,0,1,1.12-2.13c.25-.3.44-.5.44-.5a2.47,2.47,0,0,1,1.47-1,2.74,2.74,0,0,0,1.09,0,5.08,5.08,0,0,1,1.85.76,29,29,0,0,0,4.63,2.72c.86.14.62-.64.62-.64-.78-3.54-.12-5.94.8-7.5a6.54,6.54,0,0,1,2.45-2.45,3.8,3.8,0,0,1,2.54-1.64s-2,1-2.13,1.79c0,0-5.81,4.14-2.37,9.76,0,0-.19,3.5,3.11,4.08a.61.61,0,0,0,.12.69s8.35,1.55,8.71-.71Z" transform="translate(-55.21 -52)"/><path class="cls-44" d="M178.13,944.51c-2.73,1-5.74-.75-5.74-.75a1.53,1.53,0,0,1-1.52.17h0l-.32-.15h0a5.64,5.64,0,0,0-3.08-.51,3.8,3.8,0,0,0-2.54,1.64,6.54,6.54,0,0,0-2.45,2.45c-3.06-4.39.08-9.13.08-9.13-1,.48-1.69-2.32-1.69-2.32-.14,1.07-2.38.45-2.38.45-2.73,1-3.39-3.68-3.41-3.83,6.42-1.73,14-1.62,19.27,2.46a39.5,39.5,0,0,1,5.3,4c.68.6,1.36,1.23,2,1.9h0C183.34,943.85,178.13,944.51,178.13,944.51Z" transform="translate(-55.21 -52)"/><path class="cls-45" d="M162.44,947.34c-.93,1.56-1.59,4-.8,7.5,0,0,.24.78-.62.64a29,29,0,0,1-4.63-2.72,5.08,5.08,0,0,0-1.85-.76,4.26,4.26,0,0,0,1-.32A13.78,13.78,0,0,0,157,950c.66-.83,1.62-2,1.37-3.16-.05-.24-.15-.46-.22-.69-.19-.66-.19-1.36-.35-2A7.1,7.1,0,0,0,157,942a3.15,3.15,0,0,0-.75-.84c-.31-.24-.69-.31-1-.52a1.74,1.74,0,0,1-.24-.21,14.5,14.5,0,0,0-1.68-1.45c1.11-.79-1.22-3.75-2.35-5.07l0,0a13.36,13.36,0,0,1,1.36-.57c.86-.32,1.75-.6,2.66-.84,0,.15.68,4.78,3.41,3.83,0,0,2.24.63,2.38-.45,0,0,.64,2.8,1.69,2.32C162.52,938.22,159.38,942.95,162.44,947.34Z" transform="translate(-55.21 -52)"/><path class="cls-46" d="M157,950a13.78,13.78,0,0,1-1.56,1.67,4.26,4.26,0,0,1-1,.32,3,3,0,0,0-1.09,0,2.47,2.47,0,0,0-1.47,1s-.19.2-.44.5a3,3,0,0,1-2.47-1.19c-.65-2.31-2.93-1.92-3.23-2.12a3.9,3.9,0,0,1-.72-1.16c-.4-.43-.42.47-.4,1a4.13,4.13,0,0,0-.93-.8,3.11,3.11,0,0,1-2.29-2.37,6.76,6.76,0,0,1-.24-1.78c0-.57.25-1.3,0-1.82l-.07-.13a2,2,0,0,1-.24-1.42c.47-2.09,2-2.69,3.69-3.41a12,12,0,0,0,4.27-2.71,6.71,6.71,0,0,1,2.1-1.59c1.13,1.32,3.45,4.28,2.35,5.07a14.5,14.5,0,0,1,1.68,1.45,1.74,1.74,0,0,0,.24.21c.32.21.7.28,1,.52a3.15,3.15,0,0,1,.75.84,7.1,7.1,0,0,1,.84,2.1c.16.67.16,1.37.35,2,.07.23.16.46.22.69C158.67,948,157.7,949.2,157,950Z" transform="translate(-55.21 -52)"/><path class="cls-47" d="M151.53,953.47a4.16,4.16,0,0,0-1.12,2.13c-.51,1-2.6-.38-3.32-.88l.33-.09s1.92-1.56,0-2a1.61,1.61,0,0,0-1.64,1.3,6.24,6.24,0,0,1-.69-2.8,1.41,1.41,0,0,0-.38-1.13c0-.51,0-1.41.4-1a3.9,3.9,0,0,0,.72,1.16c.31.2,2.58-.19,3.23,2.12A3,3,0,0,0,151.53,953.47Z" transform="translate(-55.21 -52)"/><path class="cls-48" d="M184.59,958.31a19.8,19.8,0,0,1-4.18,3.59c-2.38,1.58-4.46,2.92-7.46,3.08a22.18,22.18,0,0,1-7.79-1.24l-.61-.2c1.24-.78,1.07-3.08,1-3.82,4.56.7,9.66,1.08,9.55-.95l-.22.09c-.36,2.26-8.71.71-8.71.71a.61.61,0,0,1-.12-.69c-3.3-.58-3.11-4.08-3.11-4.08-3.45-5.62,2.37-9.76,2.37-9.76.18-.82,2.13-1.79,2.13-1.79a5.64,5.64,0,0,1,3.08.51h0a2.49,2.49,0,0,0,.32.15h0a1.53,1.53,0,0,0,1.52-.17s3,1.76,5.74.75c0,0,5.21-.66,3.51-3.64,2.8,2.83,5.26,6.28,5.54,10.19A10.1,10.1,0,0,1,184.59,958.31Z" transform="translate(-55.21 -52)"/><path class="cls-49" d="M164.55,963.53a14.43,14.43,0,0,1-7.07-4.77s-.13-.26.59-.29h0a.76.76,0,0,0,.55,0c.56,0,3.59.71,6.91,1.22C165.62,960.45,165.79,962.75,164.55,963.53Z" transform="translate(-55.21 -52)"/><path class="cls-16" d="M155,932.52h0" transform="translate(-55.21 -52)"/><path class="cls-50" d="M147.74,942.35a6.63,6.63,0,0,0,2.11,3.78s1.82,5.42,3.61,5.56c0,0,3.09,2,4.93-3.6,0,0,.81-6.78-3.16-7.35a8.36,8.36,0,0,0-3.92-2.7S145.25,937.21,147.74,942.35Z" transform="translate(-55.21 -52)"/><path d="M148.64,945.88c-.16.19-1.11,1.24-1.11,1.24a2.54,2.54,0,0,1-.66.5,1.78,1.78,0,0,1-.49.15.79.79,0,0,1-.33,0,.34.34,0,0,1-.26-.28.71.71,0,0,1,0-.28v0a.38.38,0,0,1,.2-.46,1,1,0,0,1,.48,0l.17,0h.07l.64-.32a7.38,7.38,0,0,0,.86-.49c.14-.1.26-.22.39-.31a.53.53,0,0,1,.21-.12h0s0,0,0,0A1.21,1.21,0,0,1,148.64,945.88Z" transform="translate(-55.21 -52)"/><path class="cls-51" d="M181.68,806.82a24.57,24.57,0,0,0-5.36-4.7,11.84,11.84,0,0,0-2.7-1.55,25.4,25.4,0,0,0-10.82-1.09,20.32,20.32,0,0,0-9.18,3.62c-3.08,2.23-6.44,5.55-7.39,9.24v0a17,17,0,0,0-.23,6.53,28.17,28.17,0,0,0,1.43,5.63c.24.67.5,1.32.78,2,0,.32.44.86.58,1.15a.26.26,0,0,1,0,.13.12.12,0,0,1,0,0,.38.38,0,0,1-.05.11,7.07,7.07,0,0,0-1,4c0,.17.09,2.22.3,2.24a3.54,3.54,0,0,0,2.67-.76,4.19,4.19,0,0,0,.89-1,4.91,4.91,0,0,0,.57-1.24l1,.36c4.62,2,9.69,3.58,14.82,3.46a16.76,16.76,0,0,0,15.12-9.34C186.41,819.4,186.36,812.42,181.68,806.82ZM164.91,829c0,1.43-2.92,1.61-2.92,1.61a2.68,2.68,0,0,1-1,1,4.82,4.82,0,0,0,1.37-2.24c.07-.39-.3-.74-.42-1.09a4.2,4.2,0,0,1-.21-1.28,1,1,0,0,0,0-.35c-.11-.29-.52-.25-.78-.36a3.47,3.47,0,0,1-.86-.5,2.1,2.1,0,0,1-.76-1.21.93.93,0,0,0-.59-.81,4.92,4.92,0,0,0-2.11-.19,2.3,2.3,0,0,1-.57,0c-.25-.06-.38-.23-.59-.35a3.15,3.15,0,0,0-.8-.32,2.54,2.54,0,0,0-1.3,0,2.72,2.72,0,0,0-.84.43c-.08.06-.18.2-.28.25a2.84,2.84,0,0,1-1.75.38c-.56-.18-.24-.77-.08-1.15a2.81,2.81,0,0,0,.24-1,1.49,1.49,0,0,0-.34-1,2.68,2.68,0,0,0-1-.59,1.16,1.16,0,0,1-.66-.67,4.4,4.4,0,0,1-.24-2c0-.2,0-.23.19-.25a5.83,5.83,0,0,1,.72.06c.3,0,1.13.06,1.21-.35,0,0,0,0,0-.13,1.74,1.49,3.57,2.56,4.59,1.67a18,18,0,0,1,2.76-4.44c2.58-2.12,4,2.63,4,2.63,1.15,4-1,4.35-1,4.35-.72.52.57,1.79.57,1.79a24.22,24.22,0,0,1,2.63,3C166.05,827.92,164.91,829,164.91,829Z" transform="translate(-55.21 -52)"/><path class="cls-16" d="M155.12,818.57a7.74,7.74,0,0,0-.45,1.55" transform="translate(-55.21 -52)"/><path class="cls-16" d="M152.18,831.19s6,2,8.79.41" transform="translate(-55.21 -52)"/><path class="cls-52" d="M164.91,829c0,1.15-1.9,1.49-2.63,1.58a.62.62,0,0,0-.43.25,2.74,2.74,0,0,1-.88.79,4.82,4.82,0,0,0,1.37-2.24c.07-.39-.3-.74-.42-1.09a4.2,4.2,0,0,1-.21-1.28,1,1,0,0,0,0-.35c-.11-.29-.52-.25-.78-.36a3.47,3.47,0,0,1-.86-.5,2.1,2.1,0,0,1-.76-1.21.93.93,0,0,0-.59-.81,4.92,4.92,0,0,0-2.11-.19,2.3,2.3,0,0,1-.57,0c-.25-.06-.38-.23-.59-.35a3.15,3.15,0,0,0-.8-.32,2.54,2.54,0,0,0-1.3,0,2.72,2.72,0,0,0-.84.43c-.08.06-.18.2-.28.25a2.84,2.84,0,0,1-1.75.38c-.56-.18-.24-.77-.08-1.15a2.81,2.81,0,0,0,.24-1,1.49,1.49,0,0,0-.34-1,2.68,2.68,0,0,0-1-.59,1.16,1.16,0,0,1-.66-.67,3.43,3.43,0,0,1-.26-1.36.85.85,0,0,1,.92-.83h0c.3,0,1.13.06,1.21-.35,0,0,0,0,0-.13,1.67,1.43,3.42,2.48,4.46,1.77a.54.54,0,0,0,.19-.25,18.06,18.06,0,0,1,2.65-4.24l.09-.09c2.55-2,4,2.67,4,2.67,1,3.41-.44,4.16-.88,4.31a.49.49,0,0,0-.34.42c0,.54.66,1.27.77,1.38l0,0a24,24,0,0,1,2.6,2.92l0,0C166,827.93,164.91,829,164.91,829Z" transform="translate(-55.21 -52)"/><path class="cls-16" d="M150.52,816.9a1.54,1.54,0,0,0,0-.2" transform="translate(-55.21 -52)"/><path class="cls-16" d="M161,831.61l-.35.32" transform="translate(-55.21 -52)"/><path class="cls-53" d="M149.32,828.69l-.12.11a3.7,3.7,0,0,0-.88,1.63,6,6,0,0,0-.18.91,12.7,12.7,0,0,0,0,2.53.1.1,0,0,0,0,.08.11.11,0,0,0,.07,0,6.7,6.7,0,0,0,1.36-.29,3.51,3.51,0,0,0,1.42-.85,3,3,0,0,0,.79-1.95,2,2,0,0,0-.19-1,1.89,1.89,0,0,0-.91-.77,5,5,0,0,0-1.4-.36Z" transform="translate(-55.21 -52)"/><path class="cls-54" d="M177,803.58l-.17.06a8,8,0,0,0-1.85.79,5.09,5.09,0,0,0-1.22,1.6,5.2,5.2,0,0,1-1.66,1.44c-.72.44-1.58.77-2.24,1.26a1.07,1.07,0,0,0,.88,0,7.7,7.7,0,0,0,3.48-1.48,14.46,14.46,0,0,1,1.51-1.58c.61-.41,1.41-.51,1.84-1.15a.85.85,0,0,0,.16-.56.52.52,0,0,0-.36-.44A.67.67,0,0,0,177,803.58Z" transform="translate(-55.21 -52)"/><path class="cls-55" d="M154.71,827.15a2.39,2.39,0,0,1,.54.74c.13.3.11.63.25.93a2.93,2.93,0,0,0,1.24,1.31c.21.1.66.32.87.13a.44.44,0,0,0,.13-.28c0-.39-.25-.37-.54-.45a1.76,1.76,0,0,1-.68-.42,1.2,1.2,0,0,1-.29-.36c-.1-.21,0-.37,0-.57s-.1-.19-.1-.3a2.81,2.81,0,0,0-1-1.07c-.24-.13-1-.16-.8.07A3.23,3.23,0,0,1,154.71,827.15Z" transform="translate(-55.21 -52)"/><path class="cls-56" d="M172.84,810c-.91-.37-1.82-.74-2.76-1a4.8,4.8,0,0,0-2.91-.13c-1,.32-1.76.69-2.75.92-2.95.69-3,4.8-2.83,7.09,0,.19.07.38.1.56a11.17,11.17,0,0,1,.13,1.33,5.91,5.91,0,0,1-.11,1.61,2.4,2.4,0,0,1-.31.75,1.72,1.72,0,0,1-.26.32c-.09.08-.27.14-.29.26s.06.16.13.22a12.51,12.51,0,0,1,.95,1,19.69,19.69,0,0,1,1.94,2.44,6.52,6.52,0,0,1,.48.79c.13.29.42.25.4.56,0,0,.09.09.1.1s.28-.06.32.38.42.4,1,.58a16,16,0,0,0,1.77.46,12.73,12.73,0,0,0,2.1.25,9.16,9.16,0,0,0,2.23-.19,6.85,6.85,0,0,0,2.15-.85,6.63,6.63,0,0,0,1.86-1.74,9.46,9.46,0,0,0,1.37-2.86,16,16,0,0,0,.57-2.89S177.62,811.94,172.84,810Z" transform="translate(-55.21 -52)"/><path class="cls-57" d="M172,800.9c-1.21.64-2.79,1.66-3,3.08a4.59,4.59,0,0,1-.5,2.2c-.34.55-1.76,1.89-1.08,2.57a6.43,6.43,0,0,0,2.28-3.11c.39-1.16.47-2.33,1.92-2.52.56-.07,2.81-.8,2.25-1.76C173.66,800.95,173.2,800.28,172,800.9Z" transform="translate(-55.21 -52)"/><path class="cls-58" d="M180,807.05a3.75,3.75,0,0,0-2.61.64,13.13,13.13,0,0,0-2.33,2,5,5,0,0,1-.7.9,3,3,0,0,1-2.75.31,2.67,2.67,0,0,0-1.61-.17,5.81,5.81,0,0,0,1.66,1,3.92,3.92,0,0,0,2.07.22c1.38-.29,2.09-1.56,3.09-2.4a4.15,4.15,0,0,1,2.7-.95c.64,0,1.26.17,1.9.15a.38.38,0,0,0,.23-.05.37.37,0,0,0,.1-.3,1.61,1.61,0,0,0,0-.54,1.17,1.17,0,0,0-.8-.7A4.22,4.22,0,0,0,180,807.05Z" transform="translate(-55.21 -52)"/><path class="cls-59" d="M160.56,801.3a2.38,2.38,0,0,0,.7,2,11.79,11.79,0,0,0,2.11,1.78,5.27,5.27,0,0,1,.95.53,1.84,1.84,0,0,1,.35,2.13c-.14.4-.37.85-.16,1.25a4.55,4.55,0,0,0,1.06-1.31,2.34,2.34,0,0,0,.2-1.61c-.32-1.07-1.65-1.6-2.53-2.36a2.77,2.77,0,0,1-1-2.08c0-.49.16-1,.14-1.48a.24.24,0,0,0-.06-.18.47.47,0,0,0-.31-.08,2.21,2.21,0,0,0-.56,0,1,1,0,0,0-.71.63A2.54,2.54,0,0,0,160.56,801.3Z" transform="translate(-55.21 -52)"/><path class="cls-60" d="M181.33,811c-1.2-.11-2.58.77-3.6,1.18a11.68,11.68,0,0,1-4,.87,9.74,9.74,0,0,0-2.5.21.46.46,0,0,0-.3.19.32.32,0,0,0,.16.39c.95.55,2.81.36,3.86.32a14.5,14.5,0,0,0,3.19-.42,30.87,30.87,0,0,0,3.47-1.41c.34-.14.67-.46.6-.81a.69.69,0,0,0-.51-.47A2,2,0,0,0,181.33,811Z" transform="translate(-55.21 -52)"/><path class="cls-61" d="M183.3,814.85a14.3,14.3,0,0,1-4.17,1.27A20.5,20.5,0,0,1,174,816c-1.2-.25-2.39-1.45-3.66-.75.55-.3,1.56.68,2,.9a15.56,15.56,0,0,0,5,1.08,12.54,12.54,0,0,0,5.57-.41,2,2,0,0,0,.92-.57C184.33,815.68,184.26,814.49,183.3,814.85Z" transform="translate(-55.21 -52)"/><path class="cls-62" d="M181.89,819.18c-.62.11-1.26.34-1.83.49-3.42.92-7,.77-10.45,1.13-.46,0-1.23.21-.78.65s1.41.26,1.87.3q1.41.11,2.82.13a36.93,36.93,0,0,0,4.86-.2A17.05,17.05,0,0,0,181,821a11.94,11.94,0,0,0,2.55-.59c1-.57-.19-1.3-.86-1.33A3.57,3.57,0,0,0,181.89,819.18Z" transform="translate(-55.21 -52)"/><path class="cls-63" d="M150.29,807.71a2.79,2.79,0,0,0-.07,2.21c.38.66,1.7,1.07,2.42,1.31a7.49,7.49,0,0,1,2.58,1.15.81.81,0,0,0,.4.23c.61.07.13-.9,0-1.09-.41-.65-1.22-.64-1.88-.93s-1.34-.6-2-.87a.84.84,0,0,1-.34-.2.52.52,0,0,1-.08-.47c.1-.4.58-.75.45-1.2a1.08,1.08,0,0,0-.67-.57C150.62,807.09,150.44,807.34,150.29,807.71Z" transform="translate(-55.21 -52)"/><path class="cls-64" d="M154.46,803.21c-.17,1,.72,1.56,1.41,2.21,1.42,1.34,3.07,2.44,4.46,3.81a.13.13,0,0,0,.22-.09,3.63,3.63,0,0,0-.12-.89,3.49,3.49,0,0,0-1-1.1c-.86-.69-1.83-1.25-2.65-2-.26-.24-2-3-2.27-2.22A1.84,1.84,0,0,0,154.46,803.21Z" transform="translate(-55.21 -52)"/><path class="cls-65" d="M161.66,820.32c.62-1.28,2.92-1.63,4.21-1.81a34.24,34.24,0,0,0,4.62-.58c1.23-.34,3.16-1.12,4.21,0-2.1.43-4,1.62-6,2.27S163.6,821.29,161.66,820.32Z" transform="translate(-55.21 -52)"/><path class="cls-65" d="M164.26,824.13l.17-.06a14.87,14.87,0,0,1,5.05-.36c-1.29,0-2.87,1.08-4.18,1.33a2.18,2.18,0,0,1-.93,0c-.34-.08-.77-.35-.45-.73A.81.81,0,0,1,164.26,824.13Z" transform="translate(-55.21 -52)"/><path class="cls-66" d="M162.54,815.1a2.27,2.27,0,0,1,.33-.6,4.86,4.86,0,0,1,3.18-1.94c2.05-.13,1.13,1.82-.06,2.34l-1.82.8C163.52,816,162.15,816.22,162.54,815.1Z" transform="translate(-55.21 -52)"/><path class="cls-67" d="M171.51,826.24c.16.91,1,1.35,1.82,1.76s2,.79,2.41,1.57a2.18,2.18,0,0,0,1.88,1.38.35.35,0,0,0,.17,0,.24.24,0,0,0,.06-.33.82.82,0,0,0-.3-.24c-1-.62-1.39-1.8-2.37-2.41-.64-.39-1.38-.59-2-.94a10.26,10.26,0,0,0-1.66-1A1.71,1.71,0,0,0,171.51,826.24Z" transform="translate(-55.21 -52)"/><path class="cls-68" d="M174.19,824.11c.42.83,1.39,1,2.27,1.19s2.18.19,2.78.84a2.23,2.23,0,0,0,2.21.8.34.34,0,0,0,.16-.07.24.24,0,0,0,0-.34.84.84,0,0,0-.36-.15c-1.17-.31-1.86-1.35-3-1.65-.73-.2-1.5-.18-2.23-.34a10.49,10.49,0,0,0-1.89-.51A1.74,1.74,0,0,0,174.19,824.11Z" transform="translate(-55.21 -52)"/><path class="cls-69" d="M373.42,815.8c.22.19.42.4.65.56a5.92,5.92,0,0,0,.68.39,8.81,8.81,0,0,1,1.47,1,2.37,2.37,0,0,1,.86,1.12,1.44,1.44,0,0,1,0,.67,1.65,1.65,0,0,0-2.68-.89s-1.44,1.47-1.24,2.43l3.69-.93c-.23.44-.55.85-.78,1.23a12,12,0,0,1-1.92,2.55s-.3,1.22-2.52,2c0,0-.34.43.13.26,0,0,2.45-.9,2.56-2.16,0,0,1.86-1.93,1.85-2.54a6.52,6.52,0,0,0,.8-1.36,4.53,4.53,0,0,1,2.22.59c3.53,1.19,6.84,6.19,7.33,8.54s-.47,3.17-3.05,7.22-9.4,8.83-9.4,8.83c-3.66,2.92-11.64-1.17-11.64-1.17-3.08-.95-4.63-3.61-6.54-5.91a12.08,12.08,0,0,1-2.44-3.83,18.85,18.85,0,0,1-.75-4,29.23,29.23,0,0,1,0-5l-.26-2.13.15-1a13.82,13.82,0,0,1,3.26-6.18c2.29-2.73,6.86-4.95,10.73-3.7a20.09,20.09,0,0,1,3.61,1.72A20.43,20.43,0,0,1,373.42,815.8Z" transform="translate(-55.21 -52)"/><path class="cls-70" d="M352.84,825.84a11.22,11.22,0,0,0,3.56,5.36,10.38,10.38,0,0,0,4.74,2.09,4.52,4.52,0,0,0,4.12-1.49l.09-.09c.09-.11.26-.32.23-.46-.07-.42-.84,0-1,0-.74.3-1.37,1-2.26.94a4.23,4.23,0,0,1-2.32-1.07,1.14,1.14,0,0,1-.39-.7,1.09,1.09,0,0,1,.25-.74,2.59,2.59,0,0,1,2.89-.61,6.12,6.12,0,0,0,2.41.16,7.27,7.27,0,0,0,2.53-1c.62-.34,1.61-1,1.42-1.8-.09-.39-.38-.81-.88-.67-.2.06-.36.21-.56.27a1.08,1.08,0,0,1-.45,0c-.84-.11-1.68-.66-1.36-1.53s1.36-.94,2.15-.66,1.77,1,2.77,1a2,2,0,0,0,1.61-1.15c.34-.58.74-1.39.28-2a1.22,1.22,0,0,1,.37-1.87,4.65,4.65,0,0,1,1-.16,4.15,4.15,0,0,0,1-.32,1.74,1.74,0,0,0,1-1.63c-.06-.62-.62-1-1.16-1.31-1.87-1-3.7-2.11-5.64-3a14.16,14.16,0,0,0-4.95-1.66H364a5.58,5.58,0,0,0-1.31.2,18.45,18.45,0,0,0-2.48.49,6.05,6.05,0,0,0-2.06,1.18,28.89,28.89,0,0,0-2.89,3.14,13.65,13.65,0,0,0-2.26,3.71,7.39,7.39,0,0,0-.55,3.53A9.4,9.4,0,0,0,352.84,825.84Z" transform="translate(-55.21 -52)"/><path class="cls-71" d="M356.28,821.68s-3.44-.28-5,2.29c0,0-1.41,1.6.74,1.92,0,0,.09.71,1.23,1.05a3.61,3.61,0,0,0,4.4-2.38,4,4,0,0,0,.37-1.44,3.54,3.54,0,0,0,.12-.8C358.2,821.92,356.59,821.23,356.28,821.68Z" transform="translate(-55.21 -52)"/><path class="cls-72" d="M356.91,821.79s-2.58-.39-3.53,1.22c0,0-.94,1,.67,1.31,0,0,.12.48,1,.77,0,0,2.43.8,3.11-1.31a2.1,2.1,0,0,0,.18-.93,2,2,0,0,0,0-.52C358.35,822.07,357.12,821.51,356.91,821.79Z" transform="translate(-55.21 -52)"/><path class="cls-73" d="M378.72,821.47l0,.06h-.12l.1-.05a.92.92,0,0,0-1.31-.42,1.48,1.48,0,0,0-.29.32c-.05-.16-.25-.19-.41-.19a.66.66,0,0,0-.61.31,4.19,4.19,0,0,0-.45.86c-.13.36-.16.74-.29,1.1a2.72,2.72,0,0,1-.65,1.06,3.71,3.71,0,0,1-1.33.55c-.37.14-.75.24-1.14.35s-.58,1.19-.65,1.53a7.74,7.74,0,0,0,.57,5.27c.23.37,1.6,1.88,2.18,1.49a.49.49,0,0,0,.13-.15,32.9,32.9,0,0,0,2.45-4,4.17,4.17,0,0,0,.3-1.55,3.73,3.73,0,0,1,.3-1.52,4.32,4.32,0,0,1,.83-1,4,4,0,0,0,.69-1,3.71,3.71,0,0,0,.38-1.21c.11-.52-.35-.27-.35-.27s-.29.23-.47.48a4.79,4.79,0,0,0,.6-1.18.83.83,0,0,0-.08-.74.35.35,0,0,0-.36-.07Zm-.46,2.52a2.63,2.63,0,0,1,.21-.35Zm.22-.36,0,0h0Zm0,0,.11-.15Z" transform="translate(-55.21 -52)"/><path class="cls-74" d="M363.46,821c.66-.23,1.29-.51,2-.69.4-.11,1.21-.36,1.59,0a.37.37,0,0,1,.08.1s0,.16-.54.29-1.27.2-1.89.34c-.15,0-1.52.48-1.54.28s.12-.21.24-.25Z" transform="translate(-55.21 -52)"/><path class="cls-75" d="M373,821.62s-4.7,2-4.52,5.87" transform="translate(-55.21 -52)"/><path class="cls-75" d="M373.26,821.86s-2.48,4.36-1.47,5.77" transform="translate(-55.21 -52)"/><path class="cls-75" d="M372.88,820.75a9.29,9.29,0,0,0-7.1,4.63" transform="translate(-55.21 -52)"/><path class="cls-76" d="M373.33,820.53a2.92,2.92,0,0,1,1.24-2.43s2.07-1.34,2.7,1a9.7,9.7,0,0,1-1.29,2.18S374.11,822.28,373.33,820.53Z" transform="translate(-55.21 -52)"/><path class="cls-77" d="M327.78,908.39c0-1.8-.14-6.23,2.11-7,0,0,1.17-.4,1.56,1.29,0,0,.23,3.38.39,3.87a6,6,0,0,1,2.42-.24s1-1.84,1-2,2.27-2.66,2.41-2.49.9-1.09.45,1.87c0,0,.55,3.58.51,4.11a2.14,2.14,0,0,0,.64.93s2.64.46,3.38,1.31c0,0,5.82,4.63,5.86,7,0,0,5.54,11,1.25,17.43,0,0-4.49,7.49-8.43,8.25,0,0-7.38,2.82-14.06-1,0,0-8.6-6.74-7.61-14.29l0-.24c1.21-7.65,1.48-11.11,4.76-13.69C324.5,913.54,325.32,910,327.78,908.39Z" transform="translate(-55.21 -52)"/><path class="cls-7" d="M325.82,913.91a12.44,12.44,0,0,0,.68,1.75,6,6,0,0,0,.73,1.21c.13.16.33.28.46.44s.13.3-.1.68a.35.35,0,0,1-.1.12.33.33,0,0,1-.15,0l-1.24.1a4.59,4.59,0,0,0-3.83,3.91c-.49,2.61-.6,6,2.33,7.06a6.37,6.37,0,0,0,2.39.35s9.94,1.45,13.41-.41l.26-.15a6.62,6.62,0,0,0,2.8-5.83,6.36,6.36,0,0,0-1.18-2.89,11.36,11.36,0,0,0-1.42-1.59,17.77,17.77,0,0,1-1.4-1.33c-.14-.17,1.07-2.08,1.22-2.44q.35-.84.65-1.7" transform="translate(-55.21 -52)"/><path class="cls-78" d="M329.34,942.69s-.74,1.29.9,1.89a3.44,3.44,0,0,0,3.44.52s2.11-.44,1.56-1.37C335.23,943.74,333.48,941.08,329.34,942.69Z" transform="translate(-55.21 -52)"/><path class="cls-78" d="M335.78,944.22a1.6,1.6,0,0,0,1.78.93s1.43.58,2.21-.34c0,0,2,.08,1.72-1.33,0,0,.29-1.17-.08-1.63,0,0-5.12-.74-5.88,1.29C335.52,943.14,335.59,944.3,335.78,944.22Z" transform="translate(-55.21 -52)"/><path class="cls-79" d="M340.65,928.64c-1,2.42-13,1.13-13,1.13-8.16,1.2-6.17-7.61-6.17-7.61-.67-5,3.4-8.09,3.4-8.09l.67-.56,0-.41a5.69,5.69,0,0,1,4.22-4.91c2.22-1.65,7.85,0,7.85,0l.74.56a4.61,4.61,0,0,1,2.66,4.07c2.3.48,3.4,3.7,3.4,3.7C349.63,926.82,340.65,928.64,340.65,928.64Z" transform="translate(-55.21 -52)"/><path class="cls-80" d="M340.65,912.19c-.13.07-.24.35-.31.46s-.25.4-.36.6-.29.76.08.92.69-.14.88-.39a1.35,1.35,0,0,0,.25-.9,1,1,0,0,0-.14-.45c-.07-.11-.22-.29-.36-.25Z" transform="translate(-55.21 -52)"/><path class="cls-81" d="M340.7,912.37c-.11.06-.2.28-.25.36s-.2.31-.3.48-.23.6.07.72.56-.11.71-.31a1,1,0,0,0,.2-.71.75.75,0,0,0-.11-.36c-.05-.08-.18-.23-.29-.2Z" transform="translate(-55.21 -52)"/><path class="cls-82" d="M341.11,912.72a.27.27,0,0,1,0,.38.25.25,0,0,1-.36,0,.27.27,0,0,1,0-.38A.25.25,0,0,1,341.11,912.72Z" transform="translate(-55.21 -52)"/><ellipse class="cls-83" cx="285.79" cy="860.8" rx="0.14" ry="0.15"/><path class="cls-80" d="M325.32,912.82a3.05,3.05,0,0,0,0,1.05.8.8,0,0,0,.75.63c.14,0,.33,0,.4-.17s-.08-.5-.14-.66c-.13-.36-.37-.94-.77-1.06a.16.16,0,0,0-.15,0A.26.26,0,0,0,325.32,912.82Z" transform="translate(-55.21 -52)"/><path class="cls-81" d="M325.36,912.93a2.25,2.25,0,0,0,0,.83.66.66,0,0,0,.63.5c.11,0,.27,0,.33-.13s-.07-.39-.11-.52c-.11-.28-.31-.73-.64-.83a.14.14,0,0,0-.13,0A.2.2,0,0,0,325.36,912.93Z" transform="translate(-55.21 -52)"/><ellipse class="cls-82" cx="270.35" cy="861.3" rx="0.26" ry="0.27"/><ellipse class="cls-83" cx="270.27" cy="861.21" rx="0.14" ry="0.15"/><path class="cls-84" d="M326.41,923.82s-4.86.43-4.64,2.42c0,0-.94,3.2,6.23,2.61a33.75,33.75,0,0,0,4.06-.2,25.24,25.24,0,0,0,4.86,0s6.89.2,6.23-2.65c0,0,1.38-2-3.77-2.15s-.36,0-.36,0A33.59,33.59,0,0,0,326.41,923.82Z" transform="translate(-55.21 -52)"/><polyline class="cls-85" points="277.21 872.41 278.05 873.14 278.91 872.41"/><path class="cls-85" d="M333.26,925.14v2.2a.82.82,0,0,1-.85.54" transform="translate(-55.21 -52)"/><path class="cls-85" d="M334.12,927.74s-.31.46-.85-.4" transform="translate(-55.21 -52)"/><path class="cls-86" d="M112,945.57a85.83,85.83,0,0,0-9.68.36c-1.6.14-3.2.31-4.8.5a116.6,116.6,0,0,1-12.5,1" transform="translate(-55.21 -52)"/></svg>