<svg id="圖層_1" data-name="圖層 1" xmlns="http://www.w3.org/2000/svg" viewBox="0 0 351.93 165.7"><defs><style>.cls-1,.cls-43,.cls-46,.cls-54,.cls-55{fill:none;}.cls-1,.cls-43,.cls-55,.cls-6,.cls-7,.cls-9{stroke:#000;}.cls-1,.cls-35,.cls-43,.cls-54,.cls-55,.cls-6,.cls-7,.cls-9{stroke-miterlimit:10;}.cls-2,.cls-3{opacity:0.23;}.cls-3,.cls-7{fill:#fff;}.cls-4{fill:#eef3dd;}.cls-5{fill:#312b1b;}.cls-6{fill:#dbef9e;}.cls-55,.cls-6{stroke-width:4px;}.cls-8{fill:#e6bbb5;}.cls-9{fill:#c69c6d;}.cls-10{fill:#604c51;}.cls-11{fill:#eae2e6;}.cls-12{fill:#27342f;}.cls-13{fill:#a76643;}.cls-14{fill:#b56d43;}.cls-15{fill:#c6c1cb;}.cls-16{fill:#a57056;}.cls-17{fill:#e8e2da;}.cls-18{fill:#9a6a52;}.cls-19{fill:#403023;}.cls-20{fill:#f0eada;}.cls-21{fill:#b6978a;}.cls-22{fill:#31261e;}.cls-23{fill:#1b0e00;}.cls-24{fill:#4b392b;}.cls-25{fill:#352b1e;}.cls-26{fill:#302420;}.cls-27{fill:#291f16;}.cls-28{fill:#362724;}.cls-29{fill:#251a14;}.cls-30{fill:#1d130b;}.cls-31{fill:#2f2318;}.cls-32{fill:#221814;}.cls-33{fill:#1e1715;}.cls-34,.cls-35{fill:#604a38;}.cls-35{stroke:#604a38;}.cls-36{fill:#4f443c;}.cls-37{fill:#e7e1d7;}.cls-38{fill:#bb8e6d;}.cls-39{fill:#827a72;}.cls-40{fill:#af847f;}.cls-41{fill:#dbd2c9;}.cls-42{fill:#2c2019;}.cls-43{stroke-width:0.5px;}.cls-44{fill:#6f5351;}.cls-45{fill:#9d6c52;}.cls-47{fill:#875745;}.cls-48{fill:#b3785a;}.cls-49{fill:#290000;}.cls-50{fill:#4c2a11;}.cls-51{fill:#403330;}.cls-52{fill:#f8e3c9;}.cls-53{fill:#c6a07a;}.cls-54{stroke:#936a63;}</style></defs><title>bookingroom_welcome</title><path class="cls-1" d="M250.73,247.57" transform="translate(-75.76 -117.3)"/><path class="cls-2" d="M251,265.83h0a.09.09,0,0,1,0,0,20.11,20.11,0,0,1-.59-4.13,11.56,11.56,0,0,1,.07-1.53c-.89-1.66-1.87-4.08-1.36-6a.51.51,0,0,0,0-.2.48.48,0,0,0-.07-.17,9,9,0,0,1-.67-1.25,4.16,4.16,0,0,1,.13-3,4.68,4.68,0,0,1,.16-.48,2.28,2.28,0,0,1,2.36-1.29,4.34,4.34,0,0,1-.4-.76,3.09,3.09,0,0,1-.27-.77,2.22,2.22,0,0,1,.3-1.62,3.62,3.62,0,0,1,1.94-1.63c1-.26,2.15.58,2.88,1.23.3-.42.95-.44,1.4-.45a3.85,3.85,0,0,1,1.78.46,3.09,3.09,0,0,1,1.62,1.48,8.24,8.24,0,0,1,.51,2.42c1.4-.2,2.33.87,2.83,2.12a10.42,10.42,0,0,1,.55,2c.13.72.06,1.38.14,2.08s.46,1.62.59,2.43a10.86,10.86,0,0,1,.08,3.12s-1.31,3.53-.8,4.17c0,.06-.79.25-.85.26-.78.15-1.56.25-2.34.36-2.1.29-4.2.54-6.31.78-1.21.17-2.43.27-3.64.41Z" transform="translate(-75.76 -117.3)"/><path class="cls-3" d="M250.89,248.63a3.3,3.3,0,0,0-1.58,1.36,2.48,2.48,0,0,0-.34,1.26,4.42,4.42,0,0,0,.16,1,1.5,1.5,0,0,0,1,1.08,1.62,1.62,0,0,0,2-.44,2.92,2.92,0,0,0,.43-1.93c-.08-.74-.28-2.12-1.14-2.34A.93.93,0,0,0,250.89,248.63Z" transform="translate(-75.76 -117.3)"/><path class="cls-3" d="M252.77,244.7a2.39,2.39,0,0,0-.83.68,1.94,1.94,0,0,0,0,2.19c.64,1.12,1.72,1.94,2.81.89a1.72,1.72,0,0,0,.44-1.27,7.62,7.62,0,0,0,0-1.52,1.58,1.58,0,0,0-.48-.91,1.76,1.76,0,0,0-1-.25A1.65,1.65,0,0,0,252.77,244.7Z" transform="translate(-75.76 -117.3)"/><path class="cls-3" d="M256.45,245a.7.7,0,0,1,.19-.1,2.32,2.32,0,0,1,1.63.15,2.78,2.78,0,0,1,1.27,1.88,2.31,2.31,0,0,1-.05,1.38c-.15.38-.62.9-1.08.79a.65.65,0,0,1-.18-.08,4.43,4.43,0,0,1-2-3.47.78.78,0,0,1,0-.29A.52.52,0,0,1,256.45,245Z" transform="translate(-75.76 -117.3)"/><path class="cls-3" d="M260.43,251v-.1a2.55,2.55,0,0,1,.23-1.56c.52-.71,1.58.13,2,.53a1.34,1.34,0,0,1,.18.18,1.39,1.39,0,0,1,.18.34,4.47,4.47,0,0,1,.38,1.86,2,2,0,0,1-.18.76c-.08.16-.31.57-.51.6a2.07,2.07,0,0,1-1.83-1.12A3.9,3.9,0,0,1,260.43,251Z" transform="translate(-75.76 -117.3)"/><path class="cls-3" d="M254.21,254.37h0c.05-.06,0-.18,0-.26s0-.21,0-.31a2.13,2.13,0,0,1,.14-.6,2.1,2.1,0,0,1,.72-.91,3.39,3.39,0,0,1,2.22-.51,2.51,2.51,0,0,1,1.31.41,1.92,1.92,0,0,1,.74,1.35,1.44,1.44,0,0,0,.11.58,1.13,1.13,0,0,0,.53.39,3.29,3.29,0,0,1,1.58,1.48,1.92,1.92,0,0,1-.22,2.08,2.58,2.58,0,0,1-1.4.63,19.77,19.77,0,0,1-6.35.24,2.24,2.24,0,0,1-1.56-.64,2.11,2.11,0,0,1-.05-2.19,4.17,4.17,0,0,1,.74-.89,4.3,4.3,0,0,1,.95-.64l.37-.16Z" transform="translate(-75.76 -117.3)"/><path class="cls-1" d="M111.53,171.88" transform="translate(-75.76 -117.3)"/><path class="cls-4" d="M109.38,152.16h0a.1.1,0,0,1,0,0,23.17,23.17,0,0,1,1,4.42,13.23,13.23,0,0,1,.08,1.66c1.07,1.73,2.33,4.27,2,6.35a.58.58,0,0,0,0,.22.54.54,0,0,0,.09.18,10.22,10.22,0,0,1,.81,1.3,4.74,4.74,0,0,1,.16,3.26,5.2,5.2,0,0,1-.12.53,2.27,2.27,0,0,1-2.29,1.57,4.92,4.92,0,0,1,.49.79,3.54,3.54,0,0,1,.35.82,2.51,2.51,0,0,1-.15,1.77A3.68,3.68,0,0,1,110,177c-1,.35-2.26-.47-3.07-1.11-.27.47-.92.55-1.39.59a3.84,3.84,0,0,1-1.86-.36,3.34,3.34,0,0,1-1.81-1.48,9.49,9.49,0,0,1-.77-2.58c-1.41.32-2.47-.77-3.11-2.07a12,12,0,0,1-.77-2.12c-.21-.77-.2-1.48-.35-2.24s-.63-1.71-.85-2.59a12.47,12.47,0,0,1-.39-3.36s1-3.92.4-4.57c-.05-.06.79-.33.84-.34.78-.22,1.57-.39,2.36-.57,2.12-.47,4.25-.9,6.38-1.32,1.22-.27,2.46-.48,3.69-.72Z" transform="translate(-75.76 -117.3)"/><path class="cls-5" d="M111.26,170.75a3.36,3.36,0,0,0,1.48-1.59,2.77,2.77,0,0,0,.22-1.39,5.09,5.09,0,0,0-.26-1.06,1.64,1.64,0,0,0-1.1-1.09,1.59,1.59,0,0,0-2,.63,3.28,3.28,0,0,0-.25,2.12c.15.79.5,2.28,1.4,2.44A.9.9,0,0,0,111.26,170.75Z" transform="translate(-75.76 -117.3)"/><path class="cls-5" d="M109.72,175.13a2.43,2.43,0,0,0,.78-.8,2.21,2.21,0,0,0-.25-2.37c-.77-1.16-2-2-3-.75a1.91,1.91,0,0,0-.32,1.4,8.74,8.74,0,0,0,.17,1.64,1.79,1.79,0,0,0,.59.95,1.75,1.75,0,0,0,1.06.19A1.6,1.6,0,0,0,109.72,175.13Z" transform="translate(-75.76 -117.3)"/><path class="cls-5" d="M105.92,175.07a.69.69,0,0,1-.18.12,2.28,2.28,0,0,1-1.68,0,3.1,3.1,0,0,1-1.49-1.93,2.64,2.64,0,0,1-.08-1.49c.12-.43.55-1,1-.94a.66.66,0,0,1,.19.07,5,5,0,0,1,2.38,3.6.89.89,0,0,1,0,.32A.55.55,0,0,1,105.92,175.07Z" transform="translate(-75.76 -117.3)"/><path class="cls-5" d="M101.25,168.91l0,.11a2.89,2.89,0,0,1-.08,1.71c-.46.81-1.63,0-2.14-.42a1.46,1.46,0,0,1-.21-.18,1.58,1.58,0,0,1-.22-.35,5.15,5.15,0,0,1-.58-2,2.24,2.24,0,0,1,.11-.84c.06-.18.26-.64.46-.68a2.17,2.17,0,0,1,2,1.07A4.47,4.47,0,0,1,101.25,168.91Z" transform="translate(-75.76 -117.3)"/><path class="cls-5" d="M107.28,164.79h0c0,.07,0,.2,0,.28s0,.23,0,.34a2.39,2.39,0,0,1-.08.66,2.21,2.21,0,0,1-.65,1,3.29,3.29,0,0,1-2.23.72,2.52,2.52,0,0,1-1.39-.34,2.16,2.16,0,0,1-.89-1.4,1.66,1.66,0,0,0-.17-.62,1.19,1.19,0,0,0-.59-.39,3.56,3.56,0,0,1-1.77-1.47,2.17,2.17,0,0,1,0-2.27,2.53,2.53,0,0,1,1.37-.79,19.19,19.19,0,0,1,6.48-.74,2.28,2.28,0,0,1,1.66.58,2.41,2.41,0,0,1,.28,2.36,4.36,4.36,0,0,1-.67,1,4.3,4.3,0,0,1-.91.77c-.12.07-.24.13-.36.2A.25.25,0,0,0,107.28,164.79Z" transform="translate(-75.76 -117.3)"/><path class="cls-6" d="M415.13,263.32A115.19,115.19,0,0,1,399,265.53q-2.83.13-5.65.18a152.08,152.08,0,0,1-22.25-1.18l-6-.74a116.85,116.85,0,0,0-23.37-.38c-1.93.13-3.87.3-5.81.47-10.53,1.17-20.45,2.28-31.1.5q-1.92-.17-3.85-.3c-3.85-.26-7.72-.42-11.61-.42l-5.68.3c-16.86,1-33.66,1.49-50.39.15-1.93,0-3.78,0-5.62,0-11,.13-22.1,0-32.94-.49l-6.18.16c-18.24.51-36.12.86-54.26-.16-1.34,0-2.62,0-3.89,0a85.83,85.83,0,0,0-9.68.36c-1.6.14-3.2.31-4.8.5-8.74,1.11-18.07,1.67-26.24-.27-6.42-1.66-10.5-5-9.36-8.71.06-.86.14-1.72.22-2.58.52-5.17,1.35-10.35.75-15.51,0-.75,0-1.5.09-2.25s-.2-1.61-.3-2.42a70.44,70.44,0,0,1-.62-14.56c.05-.9.13-1.8.24-2.7s.23-1.79.39-2.69c0-1,0-1.92,0-2.87-.45-8.09,1.28-16.17.32-24.24-.27-1-.56-2-.85-3.07-2.65-9.21-5.71-18.48,3.29-26.82a23.68,23.68,0,0,1,8.09-3.27c12-2.67,28.61.63,42.31,1.17h15.47c16.41-.4,33.33-2.06,49.47-.74q2.74.1,5.49.25t5.5.35l5.84.14h21c13.66-.09,27.48,0,41.16-.09l5.86-.06a281.59,281.59,0,0,1,57.08,0l5.25,0c10.48.07,20.93.18,31.31-.31,3-.21,6-.54,9-.85,2-.21,3.93-.42,5.85-.6,8.12-1.05,18.62-.78,23.88,2.82,8.17,6.64,4.08,14.11,3.36,21-.18.9-.37,1.78-.55,2.67a27.39,27.39,0,0,0-.8,8.06,25.7,25.7,0,0,1,.6,3,39,39,0,0,1-.46,12c.18.92.35,1.84.49,2.75.44,2.74.67,5.48.9,8.26a14.37,14.37,0,0,0,.95,2.53q.43.9.85,1.81c.28.6.54,1.21.77,1.82,3.81,7.75-6.11,15.49-.19,23q.47.92.92,1.84a45.33,45.33,0,0,1,2.3,5.57,8.68,8.68,0,0,1,.19,2.51c-.57,3.3-3.48,6.62-7.56,9.37-.79.57-1.58,1.13-2.36,1.69C415.33,263.06,415.13,263.32,415.13,263.32Z" transform="translate(-75.76 -117.3)"/><path d="M181.09,216.59v1.77h-2V198.48a.56.56,0,0,1,.63-.62h5.61c.44,0,.66.22.66.62v17.44a.61.61,0,0,1-.68.67Zm3-16.37a.3.3,0,0,0-.34-.33h-2.28a.3.3,0,0,0-.34.33v3.42h3Zm0,8.84v-3.39h-3v3.39Zm-.39,5.5a.35.35,0,0,0,.39-.38V211.1h-3v3.46Zm2.07,3.32c5-2.7,5.52-7.45,5.56-10h-2.43l-.75,1.39-2-.67a17.76,17.76,0,0,0,2.62-8l2,.19a21.81,21.81,0,0,1-1.07,5h7.95a34.34,34.34,0,0,1-1.22-6l-.17-.12h-6.34v-2h7.8c.36,0,.58.22.63.62.49,4.85,1.09,7.1,2.84,10.11l-2.16.69-.85-1.86,0,5.9c-.07,3-.61,4.9-1.58,5.54a3,3,0,0,1-1.77.43,12.66,12.66,0,0,1-3.06-.45l-.17-2.37a10.93,10.93,0,0,0,3,.62c.68,0,1-.22,1.31-1.29l.15-1c.1-2.15.15-3.8.15-4.9,0-1.58-.07-1.86-.36-1.86h-2.45c-.29,5.3-2.33,9.15-6.08,11.37Z" transform="translate(-75.76 -117.3)"/><path d="M215.23,200.08h-3.06l-.41,1.1c-.9,1.51-2.7,2.48-5.35,2.89l-.78-1.86c2.72-.29,3.86-.84,4.42-2.13h-4.76a.17.17,0,0,0-.19.17V203h-2v-4.44c0-.24.12-.33.36-.33h9.57V197h2v1.27h8.63l1.7.84a17.72,17.72,0,0,1-1,4.16l-1.87-.62a13.92,13.92,0,0,0,.63-2.27c0-.17-.07-.26-.24-.26h-5.86V201a1,1,0,0,0,1,1H220a.9.9,0,0,0,.51-.19l.46-1.46,1.58.62a6.81,6.81,0,0,1-.61,2,2.09,2.09,0,0,1-1.22.65H217a2,2,0,0,1-1.8-1.77Zm5.49,17h0v.07a4.82,4.82,0,0,0,.92.1,1,1,0,0,0,1.07-1v-4.64c0-.1,0-.14-.17-.14H205.73a.13.13,0,0,0-.15.14v7.53h-2v-9c0-.31.15-.45.44-.45H206V205a.56.56,0,0,1,.63-.62h15.21a.58.58,0,0,1,.66.65v4.73h1.73a.41.41,0,0,1,.46.45v6.86c0,1.22-.73,2.2-2.77,2.2a10.79,10.79,0,0,1-1.82-.19l-.12-1.74H207.5a.22.22,0,0,1-.24-.24v-4.16c0-.17.07-.24.24-.24h13c.17,0,.27.07.27.24ZM208,209.76h4.28v-2.32c0-.24.12-.38.39-.38h7.87v-.76c0-.14-.1-.24-.29-.24h-12a.22.22,0,0,0-.24.24Zm10.79,4.59H209.2c-.07,0-.1,0-.07.07v1.17l.07.1h9.55l.1-.1v-1.17ZM214,209.76h6.46v-1.15h-6.29c-.12,0-.19.07-.17.22Z" transform="translate(-75.76 -117.3)"/><path d="M231.59,218v.81h-2V210l-1.19.62L227.07,209a36.6,36.6,0,0,0,5.27-3.35h-4.91v-1.84h4.71v-2.46h-3.77v-1.84h3.77v-2.46h2.07v2.46h3.3v1.12l1.51-1.94,1.58,1.15c-1.19,1.46-2.28,2.8-3.35,4h2.55v1.84h-4.45l-3.06,2.53h6.56c.29,0,.44.14.44.41v10.2h-2V218Zm0-5.69h5.74v-2c0-.14-.1-.24-.29-.24h-5.15c-.22,0-.32.1-.29.26Zm5.74,1.86h-5.74v2h5.74Zm-2.79-10.35,2.38-2.46h-2.7v2.46Zm12.59-4.09h-4a.26.26,0,0,0-.29.29V219.1h-2.07V198.17a.32.32,0,0,1,.36-.36h7.07l1.31,1.1-2.6,7.1a.83.83,0,0,0-.07.33.85.85,0,0,0,.15.48c1.82,2.37,2.67,3.85,2.67,6.31a5.41,5.41,0,0,1-.56,2.46,2.91,2.91,0,0,1-2.87,1.62,8.61,8.61,0,0,1-2.58-.48l0-2.22a6.67,6.67,0,0,0,2.48.67c1.56,0,1.56-1.84,1.56-2.22a5.13,5.13,0,0,0,0-.84c-.17-1.27-1.14-3-2.79-5.09a.92.92,0,0,1-.17-.55,1.84,1.84,0,0,1,0-.33Z" transform="translate(-75.76 -117.3)"/><path d="M251.25,204.1a18.67,18.67,0,0,0,4.79-7l1.92.72a19.65,19.65,0,0,1-5,7.48Zm3.21,6.21-1.53,1.36-1.65-1.31a19.82,19.82,0,0,0,5.86-7.48l1.87.88a29.88,29.88,0,0,1-2.48,4.13v11.23h-2.07Zm10.91-.91a16.69,16.69,0,0,0,1.82,3.39c1.7-1.12,3.18-2.17,4.33-3.11l1.17,1.67c-1.29,1-2.7,2-4.16,3a15.89,15.89,0,0,0,5.54,3.15l-1.39,1.82a15.9,15.9,0,0,1-9.53-9.89h-1.7v7.48l.75-.17a22.81,22.81,0,0,0,3.55-1l.7,1.91a49.11,49.11,0,0,1-8.82,1.65l-.56-2,2.31-.17v-18.9a.55.55,0,0,1,.61-.6h11.06c.44,0,.66.22.66.6v10.49c0,.45-.22.65-.68.65Zm-3.91-6.79h8.19V200.2c0-.33-.17-.5-.53-.5h-7.17a.44.44,0,0,0-.49.5Zm8.19,2h-8.19v2.72h7.85a.3.3,0,0,0,.34-.31Z" transform="translate(-75.76 -117.3)"/><path d="M284,217.19h4.2v.41c2.62-2.29,4-6,4.06-11.09V201.8h-1a19.06,19.06,0,0,1-1.6,5.52l-2-.41a20.86,20.86,0,0,0,1.92-9.58l2,0-.1,2.58h5.32l1.26.69a51.33,51.33,0,0,1-1.19,8l-2-.31.24-.86a23.28,23.28,0,0,0,1.12-5c0-.41,0-.41-.29-.53h-1.85v4.09a19,19,0,0,0,4.18,12.62l-1.9.69a25.93,25.93,0,0,1-3.13-6.48,13.13,13.13,0,0,1-3.77,6.38l-1.31-1v.69H278a.57.57,0,0,1-.63-.65v-7l-.36.48a5.36,5.36,0,0,0-1.39-1.1,9.86,9.86,0,0,0,2-4.28l1.8.55L279,208h3.26l.75-1.72,1.68.72-.41,1h3.94l-.17,1.65H284V211h3.79v1.65H284v1.43h3.79v1.65H284Zm-.36-17.3h-3v.84h-1.87v-.84H276v-1.65h2.72v-1.08h1.87v1.08h3v-1.08h1.87v1.08h2.65v1.65h-2.65v.93h-1.87Zm-1.92,6c0,.17-.07.24-.24.24h-4.93c-.15,0-.22-.07-.22-.24v-4.3a.19.19,0,0,1,.22-.22h4.93c.17,0,.24.07.24.22Zm-1.77-2.94H278c-.07,0-.1,0-.07.07v1.43l.07.1h1.87l.07-.1V203Zm2.16,8.1v-1.34h-2.5a.24.24,0,0,0-.27.26V211Zm0,3.08v-1.43h-2.77v1.43Zm0,3.08v-1.43h-2.77v1.15c0,.19.1.29.27.29Zm5.78-11.33c0,.17-.07.24-.24.24h-4.93c-.15,0-.22-.07-.22-.24v-4.3a.19.19,0,0,1,.22-.22h4.93c.17,0,.24.07.24.22Zm-1.8-2.94H284.2c-.07,0-.1,0-.07.07v1.43l.07.1H286l.1-.1V203Z" transform="translate(-75.76 -117.3)"/><path d="M299.95,217.14c1.8-.81,3-1.53,3.11-3.75v-3.32c0-.19-.1-.29-.27-.29h-2.14v-2h3.94c.36,0,.53.17.53.5V214a4.46,4.46,0,0,0,3,2.41,20.89,20.89,0,0,0,4.52.29c2.38,0,5.64-.1,9.74-.29l-.51,2.29-10.57,0c-3.57,0-6-.91-7.07-2.65A6.43,6.43,0,0,1,301,219Zm4.18-10.54a24.55,24.55,0,0,0-4.11-2.68l1.12-1.72a22.87,22.87,0,0,1,4.18,2.72Zm.83-4.76a25.84,25.84,0,0,0-4.28-2.87l1.12-1.74a25.28,25.28,0,0,1,4.4,2.94Zm2.45,9.8V198.72c-.07-.26.07-.43.41-.48a20,20,0,0,0,4.71-1.19l1.17,1.82a19.62,19.62,0,0,1-4,1.08c-.19,0-.29.14-.27.26V211l2.92-1.17.92,2a39.43,39.43,0,0,1-6.85,2.44l-.87-2.06ZM319.75,200c0-.17-.1-.26-.29-.26h-2.79a.24.24,0,0,0-.27.26v15.7h-2V198.31c0-.43.19-.65.66-.65h6.12a.59.59,0,0,1,.68.65v13.33c0,1.79-1.46,2.17-2.55,2.17a7.5,7.5,0,0,1-1.68-.22l-.41-2.41a10.67,10.67,0,0,0,2,.36c.61,0,.61-.53.61-.86Z" transform="translate(-75.76 -117.3)"/><path class="cls-7" d="M109.73,264.42h0a.11.11,0,0,1,0-.06,24.47,24.47,0,0,1-.1-4.9,14,14,0,0,1,.29-1.77c-.77-2.06-1.56-5-.73-7.15a.62.62,0,0,0,.06-.23.57.57,0,0,0-.06-.21,10.82,10.82,0,0,1-.59-1.55,5,5,0,0,1,.55-3.49,5.6,5.6,0,0,1,.24-.54,2.55,2.55,0,0,1,2.83-1.18,5.2,5.2,0,0,1-.35-.94,3.74,3.74,0,0,1-.2-.94,2.68,2.68,0,0,1,.56-1.85,4.11,4.11,0,0,1,2.4-1.63c1.16-.16,2.33,1,3.07,1.83.4-.44,1.12-.38,1.64-.33a4.27,4.27,0,0,1,1.94.78,3.59,3.59,0,0,1,1.62,1.95c.09.29.47,2.89.25,2.89,1.6,0,2.5,1.34,2.9,2.86a12.64,12.64,0,0,1,.35,2.41c.05.85-.12,1.61-.12,2.45s.3,1.95.34,2.92a13.21,13.21,0,0,1-.33,3.65s-1.95,3.94-1.46,4.76c0,.07-.93.18-1,.18-.89.06-1.79.08-2.68.1-2.4.05-4.8.05-7.2,0-1.38,0-2.77,0-4.15,0Z" transform="translate(-75.76 -117.3)"/><path class="cls-8" d="M111.87,244.34a3.75,3.75,0,0,0-2,1.37,3,3,0,0,0-.55,1.42,5.37,5.37,0,0,0,0,1.18,1.76,1.76,0,0,0,.94,1.39,1.79,1.79,0,0,0,2.29-.25,3.51,3.51,0,0,0,.74-2.2c0-.87,0-2.52-1-2.88A1,1,0,0,0,111.87,244.34Z" transform="translate(-75.76 -117.3)"/><path class="cls-8" d="M114.53,240a2.71,2.71,0,0,0-1,.68,2.35,2.35,0,0,0-.26,2.56c.57,1.39,1.67,2.5,3,1.42a2.06,2.06,0,0,0,.66-1.42,9.26,9.26,0,0,0,.19-1.78,1.89,1.89,0,0,0-.42-1.13c-.29-.33-.71-.33-1.1-.43A1.8,1.8,0,0,0,114.53,240Z" transform="translate(-75.76 -117.3)"/><path class="cls-8" d="M118.62,240.89a.78.78,0,0,1,.23-.09,2.55,2.55,0,0,1,1.81.39,3.29,3.29,0,0,1,1.18,2.36,2.8,2.8,0,0,1-.24,1.6c-.22.43-.82,1-1.32.78a.72.72,0,0,1-.19-.12,5.28,5.28,0,0,1-1.77-4.32,1,1,0,0,1,.07-.34A.6.6,0,0,1,118.62,240.89Z" transform="translate(-75.76 -117.3)"/><path class="cls-8" d="M122.29,248.41s0-.08,0-.12a3.08,3.08,0,0,1,.47-1.79c.68-.76,1.76.36,2.22.9a1.57,1.57,0,0,1,.18.24,1.67,1.67,0,0,1,.16.42,5.44,5.44,0,0,1,.18,2.22,2.39,2.39,0,0,1-.31.87c-.11.18-.43.62-.65.63a2.36,2.36,0,0,1-1.91-1.56A4.71,4.71,0,0,1,122.29,248.41Z" transform="translate(-75.76 -117.3)"/><path class="cls-8" d="M114.84,251.49h0c.07-.07.07-.2.09-.29s0-.24.07-.36a2.56,2.56,0,0,1,.23-.68,2.43,2.43,0,0,1,.93-1,3.72,3.72,0,0,1,2.57-.29,2.79,2.79,0,0,1,1.42.66,2.29,2.29,0,0,1,.65,1.68,1.75,1.75,0,0,0,0,.69,1.29,1.29,0,0,0,.55.53A3.82,3.82,0,0,1,123,254.4a2.31,2.31,0,0,1-.52,2.4,2.85,2.85,0,0,1-1.65.55,21.62,21.62,0,0,1-7.18-.6,2.51,2.51,0,0,1-1.66-1,2.55,2.55,0,0,1,.23-2.56,4.65,4.65,0,0,1,2.1-1.55c.14-.05.29-.09.44-.13A.29.29,0,0,0,114.84,251.49Z" transform="translate(-75.76 -117.3)"/><path class="cls-1" d="M111.47,243.37" transform="translate(-75.76 -117.3)"/><path class="cls-9" d="M276.26,153.06h0a.07.07,0,0,1,0,0,13.32,13.32,0,0,1,.18,3.9,8.06,8.06,0,0,1-.32,1.42c.93,1.61,1.89,3.94.95,5.67a.38.38,0,0,0-.07.19.35.35,0,0,0,.07.16,7.05,7.05,0,0,1,.71,1.22c.41,1.06,0,1.82-.6,2.8a4.08,4.08,0,0,1-.28.44,3.72,3.72,0,0,1-3.29,1c.08,0,.37.65.42.73a2.16,2.16,0,0,1,.24.74,1.74,1.74,0,0,1-.63,1.49,5.37,5.37,0,0,1-2.79,1.39,5.43,5.43,0,0,1-3.61-1.34,3.15,3.15,0,0,1-1.91.33,6.4,6.4,0,0,1-2.27-.54,3.39,3.39,0,0,1-1.92-1.49c-.11-.23-.58-2.28-.33-2.3a3.32,3.32,0,0,1-3.42-2.17,7.06,7.06,0,0,1-.44-1.91,18.44,18.44,0,0,1,.11-2c0-.76-.38-1.54-.43-2.31a7.36,7.36,0,0,1,.34-2.92s2.23-3.21,1.65-3.84a6.55,6.55,0,0,1,1.15-.18c1-.08,2.09-.13,3.13-.18,2.8-.13,5.61-.22,8.41-.31,1.61-.07,3.23-.09,4.85-.14Z" transform="translate(-75.76 -117.3)"/><path class="cls-8" d="M274,169.15a4.84,4.84,0,0,0,2.27-1.17,2.05,2.05,0,0,0,.63-1.15,2.93,2.93,0,0,0-.06-.94,1.49,1.49,0,0,0-1.12-1.07,2.86,2.86,0,0,0-2.68.28,2.34,2.34,0,0,0-.84,1.78c0,.69.06,2,1.16,2.26A1.72,1.72,0,0,0,274,169.15Z" transform="translate(-75.76 -117.3)"/><path class="cls-8" d="M271,172.68a3.59,3.59,0,0,0,1.19-.58,1.42,1.42,0,0,0,.28-2.05,2.52,2.52,0,0,0-3.57-1,1.53,1.53,0,0,0-.75,1.16,5.18,5.18,0,0,0-.2,1.42,1.25,1.25,0,0,0,.51.88,2.92,2.92,0,0,0,1.29.3A3.05,3.05,0,0,0,271,172.68Z" transform="translate(-75.76 -117.3)"/><path class="cls-8" d="M266.17,172.15a1.2,1.2,0,0,1-.26.08,4.12,4.12,0,0,1-2.12-.25,2.42,2.42,0,0,1-1.4-1.84,1.63,1.63,0,0,1,.26-1.28,1.74,1.74,0,0,1,1.53-.67,1,1,0,0,1,.22.09,3.63,3.63,0,0,1,2.12,3.37.56.56,0,0,1-.07.27A.62.62,0,0,1,266.17,172.15Z" transform="translate(-75.76 -117.3)"/><path class="cls-8" d="M261.78,166.29s0,.06,0,.1a1.93,1.93,0,0,1-.53,1.44c-.78.63-2.06-.22-2.61-.63a1.4,1.4,0,0,1-.21-.18,1.08,1.08,0,0,1-.19-.33,3,3,0,0,1-.24-1.77,1.6,1.6,0,0,1,.35-.7c.13-.15.49-.51.75-.52a2.6,2.6,0,0,1,2.68,2.59Z" transform="translate(-75.76 -117.3)"/><path class="cls-8" d="M270.45,163.56h0c-.08.06-.08.16-.1.24s0,.19-.08.29a1.69,1.69,0,0,1-.26.55,2.62,2.62,0,0,1-1.08.8,6.24,6.24,0,0,1-3,.33,4,4,0,0,1-1.67-.47,1.54,1.54,0,0,1-.78-1.31,1,1,0,0,0-.06-.55,1.37,1.37,0,0,0-.65-.4,3.57,3.57,0,0,1-1.87-1.48,1.47,1.47,0,0,1,.58-1.93,4.51,4.51,0,0,1,1.93-.5,36.66,36.66,0,0,1,8.39.21,3.35,3.35,0,0,1,2,.7,1.52,1.52,0,0,1-.24,2,5.33,5.33,0,0,1-1.1.78,6.92,6.92,0,0,1-1.34.54l-.51.12Z" transform="translate(-75.76 -117.3)"/><path class="cls-1" d="M274.06,170.15" transform="translate(-75.76 -117.3)"/><path class="cls-1" d="M172.21,272.64c1.63,0,3.27,2.64,3.27,2.64a2.63,2.63,0,0,1,.1.33" transform="translate(-75.76 -117.3)"/><path class="cls-1" d="M189.87,261.92a6.57,6.57,0,0,1,.72.41" transform="translate(-75.76 -117.3)"/><path class="cls-1" d="M175.57,275.62l-.2-.15" transform="translate(-75.76 -117.3)"/><path class="cls-10" d="M166.43,272.64l-.33.09c-1.43.32-1.31-.81-1.31-.81a1.61,1.61,0,0,1,1.64-1.3C168.35,271.08,166.43,272.64,166.43,272.64Z" transform="translate(-75.76 -117.3)"/><path class="cls-1" d="M170.11,256a4,4,0,0,1,2.08.92l.15.11" transform="translate(-75.76 -117.3)"/><path class="cls-1" d="M166,260.52a3.37,3.37,0,0,0,1.42,2.4s2.15,2.59,2.49,4.17c0,0,.58,2.54,2.49,2.93" transform="translate(-75.76 -117.3)"/><path class="cls-1" d="M183,264.2" transform="translate(-75.76 -117.3)"/><path class="cls-11" d="M194.08,276.77c.11,2-5,1.64-9.55.95-3.31-.51-6.34-1.18-6.91-1.22a4.3,4.3,0,0,0-.55,0h0a5.76,5.76,0,0,1-1.5-.86,1.41,1.41,0,0,1,0,.2c.15,1.26-1.21,1.33-1.21,1.33-2.28.62-4.83-3.16-4.83-3.16a.55.55,0,0,1-.15-.38,4.16,4.16,0,0,1,1.12-2.13c.25-.3.44-.5.44-.5a2.47,2.47,0,0,1,1.47-1,2.74,2.74,0,0,0,1.09,0,5.08,5.08,0,0,1,1.85.76,29,29,0,0,0,4.63,2.72c.86.14.62-.64.62-.64-.78-3.54-.12-5.94.8-7.5a6.54,6.54,0,0,1,2.45-2.45,3.8,3.8,0,0,1,2.54-1.64s-2,1-2.13,1.79c0,0-5.81,4.14-2.37,9.76,0,0-.19,3.5,3.11,4.08a.61.61,0,0,0,.12.69s8.35,1.55,8.71-.71Z" transform="translate(-75.76 -117.3)"/><path class="cls-12" d="M197.13,262.51c-2.73,1-5.74-.75-5.74-.75a1.53,1.53,0,0,1-1.52.17h0l-.32-.15h0a5.64,5.64,0,0,0-3.08-.51,3.8,3.8,0,0,0-2.54,1.64,6.54,6.54,0,0,0-2.45,2.45c-3.06-4.39.08-9.13.08-9.13-1,.48-1.69-2.32-1.69-2.32-.14,1.07-2.38.45-2.38.45-2.73,1-3.39-3.68-3.41-3.83,6.42-1.73,14-1.62,19.27,2.46a39.5,39.5,0,0,1,5.3,4c.68.6,1.36,1.23,2,1.9h0C202.34,261.85,197.13,262.51,197.13,262.51Z" transform="translate(-75.76 -117.3)"/><path class="cls-13" d="M181.44,265.34c-.93,1.56-1.59,4-.8,7.5,0,0,.24.78-.62.64a29,29,0,0,1-4.63-2.72,5.08,5.08,0,0,0-1.85-.76,4.26,4.26,0,0,0,1-.32A13.78,13.78,0,0,0,176,268c.66-.83,1.62-2,1.37-3.16-.05-.24-.15-.46-.22-.69-.19-.66-.19-1.36-.35-2A7.1,7.1,0,0,0,176,260a3.15,3.15,0,0,0-.75-.84c-.31-.24-.69-.31-1-.52a1.74,1.74,0,0,1-.24-.21,14.5,14.5,0,0,0-1.68-1.45c1.11-.79-1.22-3.75-2.35-5.07l0,0a13.36,13.36,0,0,1,1.36-.57c.86-.32,1.75-.6,2.66-.84,0,.15.68,4.78,3.41,3.83,0,0,2.24.63,2.38-.45,0,0,.64,2.8,1.69,2.32C181.52,256.22,178.38,260.95,181.44,265.34Z" transform="translate(-75.76 -117.3)"/><path class="cls-14" d="M176,268a13.78,13.78,0,0,1-1.56,1.67,4.26,4.26,0,0,1-1,.32,3,3,0,0,0-1.09,0,2.47,2.47,0,0,0-1.47,1s-.19.2-.44.5a3,3,0,0,1-2.47-1.19c-.65-2.31-2.93-1.92-3.23-2.12a3.9,3.9,0,0,1-.72-1.16c-.4-.43-.42.47-.4,1a4.13,4.13,0,0,0-.93-.8,3.11,3.11,0,0,1-2.29-2.37,6.76,6.76,0,0,1-.24-1.78c0-.57.25-1.3,0-1.82l-.07-.13a2,2,0,0,1-.24-1.42c.47-2.09,2-2.69,3.69-3.41a12,12,0,0,0,4.27-2.71,6.71,6.71,0,0,1,2.1-1.59c1.13,1.32,3.45,4.28,2.35,5.07a14.5,14.5,0,0,1,1.68,1.45,1.74,1.74,0,0,0,.24.21c.32.21.7.28,1,.52a3.15,3.15,0,0,1,.75.84,7.1,7.1,0,0,1,.84,2.1c.16.67.16,1.37.35,2,.07.23.16.46.22.69C177.67,266,176.7,267.2,176,268Z" transform="translate(-75.76 -117.3)"/><path class="cls-15" d="M170.53,271.47a4.16,4.16,0,0,0-1.12,2.13c-.51,1-2.6-.38-3.32-.88l.33-.09s1.92-1.56,0-2a1.61,1.61,0,0,0-1.64,1.3,6.24,6.24,0,0,1-.69-2.8,1.41,1.41,0,0,0-.38-1.13c0-.51,0-1.41.4-1a3.9,3.9,0,0,0,.72,1.16c.31.2,2.58-.19,3.23,2.12A3,3,0,0,0,170.53,271.47Z" transform="translate(-75.76 -117.3)"/><path class="cls-16" d="M203.59,276.31a19.8,19.8,0,0,1-4.18,3.59c-2.38,1.58-4.46,2.92-7.46,3.08a22.18,22.18,0,0,1-7.79-1.24l-.61-.2c1.24-.78,1.07-3.08,1-3.82,4.56.7,9.66,1.08,9.55-.95l-.22.09c-.36,2.26-8.71.71-8.71.71a.61.61,0,0,1-.12-.69c-3.3-.58-3.11-4.08-3.11-4.08-3.45-5.62,2.37-9.76,2.37-9.76.18-.82,2.13-1.79,2.13-1.79a5.64,5.64,0,0,1,3.08.51h0a2.49,2.49,0,0,0,.32.15h0a1.53,1.53,0,0,0,1.52-.17s3,1.76,5.74.75c0,0,5.21-.66,3.51-3.64,2.8,2.83,5.26,6.28,5.54,10.19A10.1,10.1,0,0,1,203.59,276.31Z" transform="translate(-75.76 -117.3)"/><path class="cls-17" d="M183.55,281.53a14.43,14.43,0,0,1-7.07-4.77s-.13-.26.59-.29h0a.76.76,0,0,0,.55,0c.56,0,3.59.71,6.91,1.22C184.62,278.45,184.79,280.75,183.55,281.53Z" transform="translate(-75.76 -117.3)"/><path class="cls-1" d="M174,250.52h0" transform="translate(-75.76 -117.3)"/><path class="cls-18" d="M166.74,260.35a6.63,6.63,0,0,0,2.11,3.78s1.82,5.42,3.61,5.56c0,0,3.09,2,4.93-3.6,0,0,.81-6.78-3.16-7.35a8.36,8.36,0,0,0-3.92-2.7S164.25,255.21,166.74,260.35Z" transform="translate(-75.76 -117.3)"/><path d="M167.64,263.88c-.16.19-1.11,1.24-1.11,1.24a2.54,2.54,0,0,1-.66.5,1.78,1.78,0,0,1-.49.15.79.79,0,0,1-.33,0,.34.34,0,0,1-.26-.28.71.71,0,0,1,0-.28v0a.38.38,0,0,1,.2-.46,1,1,0,0,1,.48,0l.17,0h.07l.64-.32a7.38,7.38,0,0,0,.86-.49c.14-.1.26-.22.39-.31a.53.53,0,0,1,.21-.12h0s0,0,0,0A1.21,1.21,0,0,1,167.64,263.88Z" transform="translate(-75.76 -117.3)"/><path class="cls-19" d="M200.68,124.82a24.57,24.57,0,0,0-5.36-4.7,11.84,11.84,0,0,0-2.7-1.55,25.4,25.4,0,0,0-10.82-1.09,20.32,20.32,0,0,0-9.18,3.62c-3.08,2.23-6.44,5.55-7.39,9.24v0a17,17,0,0,0-.23,6.53,28.17,28.17,0,0,0,1.43,5.63c.24.67.5,1.32.78,2,0,.32.44.86.58,1.15a.26.26,0,0,1,0,.13.12.12,0,0,1,0,0,.38.38,0,0,1-.05.11,7.07,7.07,0,0,0-1,4c0,.17.09,2.22.3,2.24a3.54,3.54,0,0,0,2.67-.76,4.19,4.19,0,0,0,.89-1,4.91,4.91,0,0,0,.57-1.24l1,.36c4.62,2,9.69,3.58,14.82,3.46a16.76,16.76,0,0,0,15.12-9.34C205.41,137.4,205.36,130.42,200.68,124.82ZM183.91,147c0,1.43-2.92,1.61-2.92,1.61a2.68,2.68,0,0,1-1,1,4.82,4.82,0,0,0,1.37-2.24c.07-.39-.3-.74-.42-1.09a4.2,4.2,0,0,1-.21-1.28,1,1,0,0,0,0-.35c-.11-.29-.52-.25-.78-.36a3.47,3.47,0,0,1-.86-.5,2.1,2.1,0,0,1-.76-1.21.93.93,0,0,0-.59-.81,4.92,4.92,0,0,0-2.11-.19,2.3,2.3,0,0,1-.57,0c-.25-.06-.38-.23-.59-.35a3.15,3.15,0,0,0-.8-.32,2.54,2.54,0,0,0-1.3,0,2.72,2.72,0,0,0-.84.43c-.08.06-.18.2-.28.25a2.84,2.84,0,0,1-1.75.38c-.56-.18-.24-.77-.08-1.15a2.81,2.81,0,0,0,.24-1,1.49,1.49,0,0,0-.34-1,2.68,2.68,0,0,0-1-.59,1.16,1.16,0,0,1-.66-.67,4.4,4.4,0,0,1-.24-2c0-.2,0-.23.19-.25a5.83,5.83,0,0,1,.72.06c.3,0,1.13.06,1.21-.35,0,0,0,0,0-.13,1.74,1.49,3.57,2.56,4.59,1.67a18,18,0,0,1,2.76-4.44c2.58-2.12,4,2.63,4,2.63,1.15,4-1,4.35-1,4.35-.72.52.57,1.79.57,1.79a24.22,24.22,0,0,1,2.63,3C185.05,145.92,183.91,147,183.91,147Z" transform="translate(-75.76 -117.3)"/><path class="cls-1" d="M174.12,136.57a7.74,7.74,0,0,0-.45,1.55" transform="translate(-75.76 -117.3)"/><path class="cls-1" d="M171.18,149.19s6,2,8.79.41" transform="translate(-75.76 -117.3)"/><path class="cls-20" d="M183.91,147c0,1.15-1.9,1.49-2.63,1.58a.62.62,0,0,0-.43.25,2.74,2.74,0,0,1-.88.79,4.82,4.82,0,0,0,1.37-2.24c.07-.39-.3-.74-.42-1.09a4.2,4.2,0,0,1-.21-1.28,1,1,0,0,0,0-.35c-.11-.29-.52-.25-.78-.36a3.47,3.47,0,0,1-.86-.5,2.1,2.1,0,0,1-.76-1.21.93.93,0,0,0-.59-.81,4.92,4.92,0,0,0-2.11-.19,2.3,2.3,0,0,1-.57,0c-.25-.06-.38-.23-.59-.35a3.15,3.15,0,0,0-.8-.32,2.54,2.54,0,0,0-1.3,0,2.72,2.72,0,0,0-.84.43c-.08.06-.18.2-.28.25a2.84,2.84,0,0,1-1.75.38c-.56-.18-.24-.77-.08-1.15a2.81,2.81,0,0,0,.24-1,1.49,1.49,0,0,0-.34-1,2.68,2.68,0,0,0-1-.59,1.16,1.16,0,0,1-.66-.67,3.43,3.43,0,0,1-.26-1.36.85.85,0,0,1,.92-.83h0c.3,0,1.13.06,1.21-.35,0,0,0,0,0-.13,1.67,1.43,3.42,2.48,4.46,1.77a.54.54,0,0,0,.19-.25,18.06,18.06,0,0,1,2.65-4.24l.09-.09c2.55-2,4,2.67,4,2.67,1,3.41-.44,4.16-.88,4.31a.49.49,0,0,0-.34.42c0,.54.66,1.27.77,1.38l0,0a24,24,0,0,1,2.6,2.92l0,0C185,145.93,183.91,147,183.91,147Z" transform="translate(-75.76 -117.3)"/><path class="cls-1" d="M169.52,134.9a1.54,1.54,0,0,0,0-.2" transform="translate(-75.76 -117.3)"/><path class="cls-1" d="M180,149.61l-.35.32" transform="translate(-75.76 -117.3)"/><path class="cls-21" d="M168.32,146.69l-.12.11a3.7,3.7,0,0,0-.88,1.63,6,6,0,0,0-.18.91,12.7,12.7,0,0,0,0,2.53.1.1,0,0,0,0,.08.11.11,0,0,0,.07,0,6.7,6.7,0,0,0,1.36-.29,3.51,3.51,0,0,0,1.42-.85,3,3,0,0,0,.79-1.95,2,2,0,0,0-.19-1,1.89,1.89,0,0,0-.91-.77,5,5,0,0,0-1.4-.36Z" transform="translate(-75.76 -117.3)"/><path class="cls-22" d="M196,121.58l-.17.06a8,8,0,0,0-1.85.79,5.09,5.09,0,0,0-1.22,1.6,5.2,5.2,0,0,1-1.66,1.44c-.72.44-1.58.77-2.24,1.26a1.07,1.07,0,0,0,.88,0,7.7,7.7,0,0,0,3.48-1.48,14.46,14.46,0,0,1,1.51-1.58c.61-.41,1.41-.51,1.84-1.15a.85.85,0,0,0,.16-.56.52.52,0,0,0-.36-.44A.67.67,0,0,0,196,121.58Z" transform="translate(-75.76 -117.3)"/><path class="cls-23" d="M173.71,145.15a2.39,2.39,0,0,1,.54.74c.13.3.11.63.25.93a2.93,2.93,0,0,0,1.24,1.31c.21.1.66.32.87.13a.44.44,0,0,0,.13-.28c0-.39-.25-.37-.54-.45a1.76,1.76,0,0,1-.68-.42,1.2,1.2,0,0,1-.29-.36c-.1-.21,0-.37,0-.57s-.1-.19-.1-.3a2.81,2.81,0,0,0-1-1.07c-.24-.13-1-.16-.8.07A3.23,3.23,0,0,1,173.71,145.15Z" transform="translate(-75.76 -117.3)"/><path class="cls-24" d="M191.84,128c-.91-.37-1.82-.74-2.76-1a4.8,4.8,0,0,0-2.91-.13c-1,.32-1.76.69-2.75.92-2.95.69-3,4.8-2.83,7.09,0,.19.07.38.1.56a11.17,11.17,0,0,1,.13,1.33,5.91,5.91,0,0,1-.11,1.61,2.4,2.4,0,0,1-.31.75,1.72,1.72,0,0,1-.26.32c-.09.08-.27.14-.29.26s.06.16.13.22a12.51,12.51,0,0,1,.95,1,19.69,19.69,0,0,1,1.94,2.44,6.52,6.52,0,0,1,.48.79c.13.29.42.25.4.56,0,0,.09.09.1.1s.28-.06.32.38.42.4,1,.58a16,16,0,0,0,1.77.46,12.73,12.73,0,0,0,2.1.25,9.16,9.16,0,0,0,2.23-.19,6.85,6.85,0,0,0,2.15-.85,6.63,6.63,0,0,0,1.86-1.74,9.46,9.46,0,0,0,1.37-2.86,16,16,0,0,0,.57-2.89S196.62,129.94,191.84,128Z" transform="translate(-75.76 -117.3)"/><path class="cls-25" d="M191,118.9c-1.21.64-2.79,1.66-3,3.08a4.59,4.59,0,0,1-.5,2.2c-.34.55-1.76,1.89-1.08,2.57a6.43,6.43,0,0,0,2.28-3.11c.39-1.16.47-2.33,1.92-2.52.56-.07,2.81-.8,2.25-1.76C192.66,118.95,192.2,118.28,191,118.9Z" transform="translate(-75.76 -117.3)"/><path class="cls-26" d="M199,125.05a3.75,3.75,0,0,0-2.61.64,13.13,13.13,0,0,0-2.33,2,5,5,0,0,1-.7.9,3,3,0,0,1-2.75.31,2.67,2.67,0,0,0-1.61-.17,5.81,5.81,0,0,0,1.66,1,3.92,3.92,0,0,0,2.07.22c1.38-.29,2.09-1.56,3.09-2.4a4.15,4.15,0,0,1,2.7-.95c.64,0,1.26.17,1.9.15a.38.38,0,0,0,.23-.05.37.37,0,0,0,.1-.3,1.61,1.61,0,0,0,0-.54,1.17,1.17,0,0,0-.8-.7A4.22,4.22,0,0,0,199,125.05Z" transform="translate(-75.76 -117.3)"/><path class="cls-27" d="M179.56,119.3a2.38,2.38,0,0,0,.7,2,11.79,11.79,0,0,0,2.11,1.78,5.27,5.27,0,0,1,.95.53,1.84,1.84,0,0,1,.35,2.13c-.14.4-.37.85-.16,1.25a4.55,4.55,0,0,0,1.06-1.31,2.34,2.34,0,0,0,.2-1.61c-.32-1.07-1.65-1.6-2.53-2.36a2.77,2.77,0,0,1-1-2.08c0-.49.16-1,.14-1.48a.24.24,0,0,0-.06-.18.47.47,0,0,0-.31-.08,2.21,2.21,0,0,0-.56,0,1,1,0,0,0-.71.63A2.54,2.54,0,0,0,179.56,119.3Z" transform="translate(-75.76 -117.3)"/><path class="cls-28" d="M200.33,129c-1.2-.11-2.58.77-3.6,1.18a11.68,11.68,0,0,1-4,.87,9.74,9.74,0,0,0-2.5.21.46.46,0,0,0-.3.19.32.32,0,0,0,.16.39c.95.55,2.81.36,3.86.32a14.5,14.5,0,0,0,3.19-.42,30.87,30.87,0,0,0,3.47-1.41c.34-.14.67-.46.6-.81a.69.69,0,0,0-.51-.47A2,2,0,0,0,200.33,129Z" transform="translate(-75.76 -117.3)"/><path class="cls-29" d="M202.3,132.85a14.3,14.3,0,0,1-4.17,1.27A20.5,20.5,0,0,1,193,134c-1.2-.25-2.39-1.45-3.66-.75.55-.3,1.56.68,2,.9a15.56,15.56,0,0,0,5,1.08,12.54,12.54,0,0,0,5.57-.41,2,2,0,0,0,.92-.57C203.33,133.68,203.26,132.49,202.3,132.85Z" transform="translate(-75.76 -117.3)"/><path class="cls-30" d="M200.89,137.18c-.62.11-1.26.34-1.83.49-3.42.92-7,.77-10.45,1.13-.46,0-1.23.21-.78.65s1.41.26,1.87.3q1.41.11,2.82.13a36.93,36.93,0,0,0,4.86-.2A17.05,17.05,0,0,0,200,139a11.94,11.94,0,0,0,2.55-.59c1-.57-.19-1.3-.86-1.33A3.57,3.57,0,0,0,200.89,137.18Z" transform="translate(-75.76 -117.3)"/><path class="cls-31" d="M169.29,125.71a2.79,2.79,0,0,0-.07,2.21c.38.66,1.7,1.07,2.42,1.31a7.49,7.49,0,0,1,2.58,1.15.81.81,0,0,0,.4.23c.61.07.13-.9,0-1.09-.41-.65-1.22-.64-1.88-.93s-1.34-.6-2-.87a.84.84,0,0,1-.34-.2.52.52,0,0,1-.08-.47c.1-.4.58-.75.45-1.2a1.08,1.08,0,0,0-.67-.57C169.62,125.09,169.44,125.34,169.29,125.71Z" transform="translate(-75.76 -117.3)"/><path class="cls-32" d="M173.46,121.21c-.17,1,.72,1.56,1.41,2.21,1.42,1.34,3.07,2.44,4.46,3.81a.13.13,0,0,0,.22-.09,3.63,3.63,0,0,0-.12-.89,3.49,3.49,0,0,0-1-1.1c-.86-.69-1.83-1.25-2.65-2-.26-.24-2-3-2.27-2.22A1.84,1.84,0,0,0,173.46,121.21Z" transform="translate(-75.76 -117.3)"/><path class="cls-33" d="M180.66,138.32c.62-1.28,2.92-1.63,4.21-1.81a34.24,34.24,0,0,0,4.62-.58c1.23-.34,3.16-1.12,4.21,0-2.1.43-4,1.62-6,2.27S182.6,139.29,180.66,138.32Z" transform="translate(-75.76 -117.3)"/><path class="cls-33" d="M183.26,142.13l.17-.06a14.87,14.87,0,0,1,5.05-.36c-1.29,0-2.87,1.08-4.18,1.33a2.18,2.18,0,0,1-.93,0c-.34-.08-.77-.35-.45-.73A.81.81,0,0,1,183.26,142.13Z" transform="translate(-75.76 -117.3)"/><path class="cls-34" d="M181.54,133.1a2.27,2.27,0,0,1,.33-.6,4.86,4.86,0,0,1,3.18-1.94c2.05-.13,1.13,1.82-.06,2.34l-1.82.8C182.52,134,181.15,134.22,181.54,133.1Z" transform="translate(-75.76 -117.3)"/><path class="cls-35" d="M190.51,144.24c.16.91,1,1.35,1.82,1.76s2,.79,2.41,1.57a2.18,2.18,0,0,0,1.88,1.38.35.35,0,0,0,.17,0,.24.24,0,0,0,.06-.33.82.82,0,0,0-.3-.24c-1-.62-1.39-1.8-2.37-2.41-.64-.39-1.38-.59-2-.94a10.26,10.26,0,0,0-1.66-1A1.71,1.71,0,0,0,190.51,144.24Z" transform="translate(-75.76 -117.3)"/><path class="cls-36" d="M193.19,142.11c.42.83,1.39,1,2.27,1.19s2.18.19,2.78.84a2.23,2.23,0,0,0,2.21.8.34.34,0,0,0,.16-.07.24.24,0,0,0,0-.34.84.84,0,0,0-.36-.15c-1.17-.31-1.86-1.35-3-1.65-.73-.2-1.5-.18-2.23-.34a10.49,10.49,0,0,0-1.89-.51A1.74,1.74,0,0,0,193.19,142.11Z" transform="translate(-75.76 -117.3)"/><path class="cls-37" d="M392.42,133.8c.22.19.42.4.65.56a5.92,5.92,0,0,0,.68.39,8.81,8.81,0,0,1,1.47,1,2.37,2.37,0,0,1,.86,1.12,1.44,1.44,0,0,1,0,.67,1.65,1.65,0,0,0-2.68-.89s-1.44,1.47-1.24,2.43l3.69-.93c-.23.44-.55.85-.78,1.23a12,12,0,0,1-1.92,2.55s-.3,1.22-2.52,2c0,0-.34.43.13.26,0,0,2.45-.9,2.56-2.16,0,0,1.86-1.93,1.85-2.54a6.52,6.52,0,0,0,.8-1.36,4.53,4.53,0,0,1,2.22.59c3.53,1.19,6.84,6.19,7.33,8.54s-.47,3.17-3.05,7.22-9.4,8.83-9.4,8.83c-3.66,2.92-11.64-1.17-11.64-1.17-3.08-.95-4.63-3.61-6.54-5.91a12.08,12.08,0,0,1-2.44-3.83,18.85,18.85,0,0,1-.75-4,29.23,29.23,0,0,1,0-5l-.26-2.13.15-1a13.82,13.82,0,0,1,3.26-6.18c2.29-2.73,6.86-4.95,10.73-3.7a20.09,20.09,0,0,1,3.61,1.72A20.43,20.43,0,0,1,392.42,133.8Z" transform="translate(-75.76 -117.3)"/><path class="cls-38" d="M371.84,143.84a11.22,11.22,0,0,0,3.56,5.36,10.38,10.38,0,0,0,4.74,2.09,4.52,4.52,0,0,0,4.12-1.49l.09-.09c.09-.11.26-.32.23-.46-.07-.42-.84,0-1,0-.74.3-1.37,1-2.26.94a4.23,4.23,0,0,1-2.32-1.07,1.14,1.14,0,0,1-.39-.7,1.09,1.09,0,0,1,.25-.74,2.59,2.59,0,0,1,2.89-.61,6.12,6.12,0,0,0,2.41.16,7.27,7.27,0,0,0,2.53-1c.62-.34,1.61-1,1.42-1.8-.09-.39-.38-.81-.88-.67-.2.06-.36.21-.56.27a1.08,1.08,0,0,1-.45,0c-.84-.11-1.68-.66-1.36-1.53s1.36-.94,2.15-.66,1.77,1,2.77,1a2,2,0,0,0,1.61-1.15c.34-.58.74-1.39.28-2a1.22,1.22,0,0,1,.37-1.87,4.65,4.65,0,0,1,1-.16,4.15,4.15,0,0,0,1-.32,1.74,1.74,0,0,0,1-1.63c-.06-.62-.62-1-1.16-1.31-1.87-1-3.7-2.11-5.64-3a14.16,14.16,0,0,0-4.95-1.66H383a5.58,5.58,0,0,0-1.31.2,18.45,18.45,0,0,0-2.48.49,6.05,6.05,0,0,0-2.06,1.18,28.89,28.89,0,0,0-2.89,3.14,13.65,13.65,0,0,0-2.26,3.71,7.39,7.39,0,0,0-.55,3.53A9.4,9.4,0,0,0,371.84,143.84Z" transform="translate(-75.76 -117.3)"/><path class="cls-39" d="M375.28,139.68s-3.44-.28-5,2.29c0,0-1.41,1.6.74,1.92,0,0,.09.71,1.23,1.05a3.61,3.61,0,0,0,4.4-2.38,4,4,0,0,0,.37-1.44,3.54,3.54,0,0,0,.12-.8C377.2,139.92,375.59,139.23,375.28,139.68Z" transform="translate(-75.76 -117.3)"/><path class="cls-40" d="M375.91,139.79s-2.58-.39-3.53,1.22c0,0-.94,1,.67,1.31,0,0,.12.48,1,.77,0,0,2.43.8,3.11-1.31a2.1,2.1,0,0,0,.18-.93,2,2,0,0,0,0-.52C377.35,140.07,376.12,139.51,375.91,139.79Z" transform="translate(-75.76 -117.3)"/><path class="cls-41" d="M397.72,139.47l0,.06h-.12l.1-.05a.92.92,0,0,0-1.31-.42,1.48,1.48,0,0,0-.29.32c-.05-.16-.25-.19-.41-.19a.66.66,0,0,0-.61.31,4.19,4.19,0,0,0-.45.86c-.13.36-.16.74-.29,1.1a2.72,2.72,0,0,1-.65,1.06,3.71,3.71,0,0,1-1.33.55c-.37.14-.75.24-1.14.35s-.58,1.19-.65,1.53a7.74,7.74,0,0,0,.57,5.27c.23.37,1.6,1.88,2.18,1.49a.49.49,0,0,0,.13-.15,32.9,32.9,0,0,0,2.45-4,4.17,4.17,0,0,0,.3-1.55,3.73,3.73,0,0,1,.3-1.52,4.32,4.32,0,0,1,.83-1,4,4,0,0,0,.69-1,3.71,3.71,0,0,0,.38-1.21c.11-.52-.35-.27-.35-.27s-.29.23-.47.48a4.79,4.79,0,0,0,.6-1.18.83.83,0,0,0-.08-.74.35.35,0,0,0-.36-.07Zm-.46,2.52a2.63,2.63,0,0,1,.21-.35Zm.22-.36,0,0h0Zm0,0,.11-.15Z" transform="translate(-75.76 -117.3)"/><path class="cls-42" d="M382.46,139c.66-.23,1.29-.51,2-.69.4-.11,1.21-.36,1.59,0a.37.37,0,0,1,.08.1s0,.16-.54.29-1.27.2-1.89.34c-.15,0-1.52.48-1.54.28s.12-.21.24-.25Z" transform="translate(-75.76 -117.3)"/><path class="cls-43" d="M392,139.62s-4.7,2-4.52,5.87" transform="translate(-75.76 -117.3)"/><path class="cls-43" d="M392.26,139.86s-2.48,4.36-1.47,5.77" transform="translate(-75.76 -117.3)"/><path class="cls-43" d="M391.88,138.75a9.29,9.29,0,0,0-7.1,4.63" transform="translate(-75.76 -117.3)"/><path class="cls-44" d="M392.33,138.53a2.92,2.92,0,0,1,1.24-2.43s2.07-1.34,2.7,1a9.7,9.7,0,0,1-1.29,2.18S393.11,140.28,392.33,138.53Z" transform="translate(-75.76 -117.3)"/><path class="cls-45" d="M346.78,226.39c0-1.8-.14-6.23,2.11-7,0,0,1.17-.4,1.56,1.29,0,0,.23,3.38.39,3.87a6,6,0,0,1,2.42-.24s1-1.84,1-2,2.27-2.66,2.41-2.49.9-1.09.45,1.87c0,0,.55,3.58.51,4.11a2.14,2.14,0,0,0,.64.93s2.64.46,3.38,1.31c0,0,5.82,4.63,5.86,7,0,0,5.54,11,1.25,17.43,0,0-4.49,7.49-8.43,8.25,0,0-7.38,2.82-14.06-1,0,0-8.6-6.74-7.61-14.29l0-.24c1.21-7.65,1.48-11.11,4.76-13.69C343.5,231.54,344.32,228,346.78,226.39Z" transform="translate(-75.76 -117.3)"/><path class="cls-46" d="M344.82,231.91a12.44,12.44,0,0,0,.68,1.75,6,6,0,0,0,.73,1.21c.13.16.33.28.46.44s.13.3-.1.68a.35.35,0,0,1-.1.12.33.33,0,0,1-.15,0l-1.24.1a4.59,4.59,0,0,0-3.83,3.91c-.49,2.61-.6,6,2.33,7.06a6.37,6.37,0,0,0,2.39.35s9.94,1.45,13.41-.41l.26-.15a6.62,6.62,0,0,0,2.8-5.83,6.36,6.36,0,0,0-1.18-2.89,11.36,11.36,0,0,0-1.42-1.59,17.77,17.77,0,0,1-1.4-1.33c-.14-.17,1.07-2.08,1.22-2.44q.35-.84.65-1.7" transform="translate(-75.76 -117.3)"/><path class="cls-47" d="M348.34,260.69s-.74,1.29.9,1.89a3.44,3.44,0,0,0,3.44.52s2.11-.44,1.56-1.37C354.23,261.74,352.48,259.08,348.34,260.69Z" transform="translate(-75.76 -117.3)"/><path class="cls-47" d="M354.78,262.22a1.6,1.6,0,0,0,1.78.93s1.43.58,2.21-.34c0,0,2,.08,1.72-1.33,0,0,.29-1.17-.08-1.63,0,0-5.12-.74-5.88,1.29C354.52,261.14,354.59,262.3,354.78,262.22Z" transform="translate(-75.76 -117.3)"/><path class="cls-48" d="M359.65,246.64c-1,2.42-13,1.13-13,1.13-8.16,1.2-6.17-7.61-6.17-7.61-.67-5,3.4-8.09,3.4-8.09l.67-.56,0-.41a5.69,5.69,0,0,1,4.22-4.91c2.22-1.65,7.85,0,7.85,0l.74.56a4.61,4.61,0,0,1,2.66,4.07c2.3.48,3.4,3.7,3.4,3.7C368.63,244.82,359.65,246.64,359.65,246.64Z" transform="translate(-75.76 -117.3)"/><path class="cls-49" d="M359.65,230.19c-.13.07-.24.35-.31.46s-.25.4-.36.6-.29.76.08.92.69-.14.88-.39a1.35,1.35,0,0,0,.25-.9,1,1,0,0,0-.14-.45c-.07-.11-.22-.29-.36-.25Z" transform="translate(-75.76 -117.3)"/><path class="cls-50" d="M359.7,230.37c-.11.06-.2.28-.25.36s-.2.31-.3.48-.23.6.07.72.56-.11.71-.31a1,1,0,0,0,.2-.71.75.75,0,0,0-.11-.36c-.05-.08-.18-.23-.29-.2Z" transform="translate(-75.76 -117.3)"/><path class="cls-51" d="M360.11,230.72a.27.27,0,0,1,0,.38.25.25,0,0,1-.36,0,.27.27,0,0,1,0-.38A.25.25,0,0,1,360.11,230.72Z" transform="translate(-75.76 -117.3)"/><ellipse class="cls-52" cx="284.25" cy="113.5" rx="0.14" ry="0.15"/><path class="cls-49" d="M344.32,230.82a3.05,3.05,0,0,0,0,1.05.8.8,0,0,0,.75.63c.14,0,.33,0,.4-.17s-.08-.5-.14-.66c-.13-.36-.37-.94-.77-1.06a.16.16,0,0,0-.15,0A.26.26,0,0,0,344.32,230.82Z" transform="translate(-75.76 -117.3)"/><path class="cls-50" d="M344.36,230.93a2.25,2.25,0,0,0,0,.83.66.66,0,0,0,.63.5c.11,0,.27,0,.33-.13s-.07-.39-.11-.52c-.11-.28-.31-.73-.64-.83a.14.14,0,0,0-.13,0A.2.2,0,0,0,344.36,230.93Z" transform="translate(-75.76 -117.3)"/><ellipse class="cls-51" cx="268.81" cy="113.99" rx="0.26" ry="0.27"/><ellipse class="cls-52" cx="268.73" cy="113.91" rx="0.14" ry="0.15"/><path class="cls-53" d="M345.41,241.82s-4.86.43-4.64,2.42c0,0-.94,3.2,6.23,2.61a33.75,33.75,0,0,0,4.06-.2,25.24,25.24,0,0,0,4.86,0s6.89.2,6.23-2.65c0,0,1.38-2-3.77-2.15s-.36,0-.36,0A33.59,33.59,0,0,0,345.41,241.82Z" transform="translate(-75.76 -117.3)"/><polyline class="cls-54" points="275.67 125.11 276.5 125.83 277.36 125.11"/><path class="cls-54" d="M352.26,243.14v2.2a.82.82,0,0,1-.85.54" transform="translate(-75.76 -117.3)"/><path class="cls-54" d="M353.12,245.74s-.31.46-.85-.4" transform="translate(-75.76 -117.3)"/><path class="cls-55" d="M131,263.57a85.83,85.83,0,0,0-9.68.36c-1.6.14-3.2.31-4.8.5a116.6,116.6,0,0,1-12.5,1" transform="translate(-75.76 -117.3)"/></svg>