<svg id="圖層_1" data-name="圖層 1" xmlns="http://www.w3.org/2000/svg" viewBox="0 0 466 421"><defs><style>.cls-1{fill:#e2cfb5;}.cls-1,.cls-10,.cls-2,.cls-4,.cls-5,.cls-6,.cls-7{stroke:#000;stroke-miterlimit:10;}.cls-1,.cls-6{stroke-width:4px;}.cls-2,.cls-5,.cls-7{fill:none;}.cls-3{fill:#504930;}.cls-4,.cls-6{fill:#4d4b3d;}.cls-4{stroke-width:5px;}.cls-5{stroke-width:8px;}.cls-7{stroke-width:3px;}.cls-20,.cls-8{fill:#fff;}.cls-8{opacity:0.24;}.cls-9{fill:#040205;}.cls-10{fill:#decfaf;}.cls-11{fill:#15140c;}.cls-12{fill:#beba96;}.cls-13{fill:#6d4e3c;}.cls-14{fill:#150400;}.cls-15{fill:#f0d4c0;}.cls-16{fill:#2c0c00;}.cls-17{fill:#2c2f33;}.cls-18{fill:#0f1410;}.cls-19{fill:#768495;}.cls-20{opacity:0.23;}</style></defs><title>bookingroom_pet_boarding</title><path class="cls-1" d="M590.79,537.21c-9.72,3.35-25.93-.48-33.4-.78-18.57-.76-37.16-.78-55.75-.5-36.21.54-72.71.61-108.88,2.32-24.68,1.17-49.22-2.69-73.87-3.17-24.36-.47-48.53,4.18-72.88,4-13.78-.1-27.46-1-41.27.61-6.51.77-12.76.61-19.17.94-1.28.07-2.57.15-3.83.27-11.77,1.12-24.34-7.55-31-17.17C137,504.08,137,476,138.9,452.76c2.29-27.6,5-54.64,4.69-82.31-.14-14.38-2.09-29.46-.88-43.77.11-1.34.23-2.62.34-3.92a145.75,145.75,0,0,0,.7-25.49c-3-40.85-1.08-82.09-3-123-.07-1.53-.13-3.06-.18-4.62-.36-12.19-2.07-24.35,6.37-34.29,13.31-15.66,39.41-11.28,56.76-9,24.1,3.17,47.52,1.52,71.8.87,28.86-.77,58.06,2.37,87,3.19l4,.12c18.26.14,36.14-1.79,54.54-.79l4-.18c30.5-1.25,61-1.53,91.55-1.85,15.27-.16,30.53-.31,45.8-.6,14.8-.28,34.71-5.46,35.21,16.59.47,20.34,2.35,40.78,2.35,61.08,0,22.1-3.3,44.58-4.1,66.72q-1.45,40.15-.34,80.34c.59,21.27,4.11,42,3.7,63.51-.34,18.16-2.43,36.23-2.56,54.4-.13,18.35,5,36.78,2.64,55-.38,3-1,6-2.68,8.41A11.61,11.61,0,0,1,590.79,537.21Z" transform="translate(-136 -122)"/><path class="cls-2" d="M388.15,381.36a.91.91,0,0,0,.78.05" transform="translate(-136 -122)"/><polyline class="cls-3" points="96.71 324.07 230.97 324.91 397.53 212.62"/><polyline class="cls-3" points="92.68 324.07 313.96 216.85 391.83 216.46"/><path class="cls-4" d="M353.08,214.47,367,446.91,533.53,334.62V291.39ZM478.64,366.06l-98.36,59.51-13.89-193.7L478.64,274Zm49.19-32.57L485,361.57l-2.31-84.78,45.14,16.28Z" transform="translate(-136 -122)"/><polygon class="cls-5" points="230.39 109.87 342.64 151.98 342.64 244.06 244.28 303.58 230.39 109.87"/><polygon class="cls-5" points="391.83 171.07 391.83 211.5 349.01 239.57 346.69 154.79 391.83 171.07"/><polygon class="cls-5" points="342.64 151.98 342.64 244.06 244.28 303.58 230.39 109.87 342.64 151.98"/><polygon class="cls-5" points="391.83 171.07 391.83 211.5 349.01 239.57 346.69 154.79 391.83 171.07"/><polygon class="cls-4" points="230.97 324.91 96.73 324.91 96.71 324.07 92.68 92.47 217.08 92.47 230.97 324.91"/><polygon class="cls-4" points="397.53 219.92 397.53 263.17 230.39 392.31 230.97 337.83 397.53 219.92"/><polygon class="cls-5" points="230.97 337.83 230.39 392.31 230.39 377.71 230.97 337.83"/><polygon class="cls-4" points="230.97 324.91 230.97 337.83 96.73 337.83 96.73 328.3 96.71 324.07 96.73 324.91 230.97 324.91"/><polygon class="cls-6" points="397.53 212.62 397.53 219.92 230.97 337.83 230.97 324.91 397.53 212.62"/><polygon class="cls-4" points="230.97 337.83 230.39 377.71 230.39 392.31 96.73 394.55 96.73 337.83 230.97 337.83"/><polygon class="cls-7" points="230.97 337.83 230.39 392.31 230.39 377.71 230.97 337.83"/><polygon class="cls-8" points="346.69 154.79 349.01 239.57 391.83 211.5 391.83 171.07 346.69 154.79"/><path class="cls-2" d="M415.56,310c0,2.81-2.19.94-2.19.94a3,3,0,0,1,1.16-3C415.39,306.95,415.56,310,415.56,310Z" transform="translate(-136 -122)"/><path class="cls-2" d="M421.89,310.83c-.15,0-.31,0-.47,0a2.22,2.22,0,0,0-1,.57c-.35.28-.61.66-.95.95s-.52-.46-.59-.64a3.26,3.26,0,0,1-.16-.86,3.48,3.48,0,0,1,.27-1.56,3.13,3.13,0,0,1,.91-1.23,1.58,1.58,0,0,1,.54-.34.59.59,0,0,1,.2,0,1.16,1.16,0,0,1,.65.29,4,4,0,0,1,1,1.13C422.52,309.64,422.74,310.69,421.89,310.83Z" transform="translate(-136 -122)"/><path class="cls-2" d="M411.56,324.83a5,5,0,0,1-1.34-.15,3.53,3.53,0,0,1-1.4-.78A7.71,7.71,0,0,0,411.56,324.83Z" transform="translate(-136 -122)"/><path class="cls-9" d="M413.2,322.68a6.69,6.69,0,0,1-2.14-1.85h0l-.14-.3a1,1,0,0,1,.21-1.08s-.09-1.78,4.68,0C415.79,319.45,416.67,321.28,413.2,322.68Z" transform="translate(-136 -122)"/><path class="cls-2" d="M422.95,321.75c-.41.26-.81.51-1.23.75A18.2,18.2,0,0,1,418.2,324a15.37,15.37,0,0,1-1.84.45h-.1l.63-.18A48.69,48.69,0,0,0,422.95,321.75Z" transform="translate(-136 -122)"/><path class="cls-2" d="M424.78,321l0,0h0Z" transform="translate(-136 -122)"/><path class="cls-2" d="M434.69,347.89a16.5,16.5,0,0,0,.54-2.09q.24-1,.42-2.08" transform="translate(-136 -122)"/><path class="cls-2" d="M387.47,332.94l-.07,0" transform="translate(-136 -122)"/><path class="cls-10" d="M435.17,338.76a19.27,19.27,0,0,0,2.07-3.87c.61-1.63,1.86-4.13,1.23-5.87a3.15,3.15,0,0,0-2.21,1,3,3,0,0,0-.2,1.84,7.82,7.82,0,0,1-1.28,4.25c-.52.89-1.14,1.72-1.73,2.56a13,13,0,0,1-1.71,2.35,1.44,1.44,0,0,1-.81.38c-.33,0-.51.22-.27.54s.75.58,1,1a1.46,1.46,0,0,1-.31,1.77,7.88,7.88,0,0,0-.67.88c-.34.59-.74.84-1.63.51a4,4,0,0,1-.62-.31.5.5,0,0,1-.18-.16c-.17-.3.47-.78.61-1a1.79,1.79,0,0,0,.3-1.48,1,1,0,0,0-.73-.63,4.47,4.47,0,0,0-.67-.07,6.82,6.82,0,0,1-2.36-.85c-.57-.26-1.18-.37-1.74-.66-.86-.44-1.68-1-2.5-1.47-1.47-.94-2.91-1.94-4.33-3l-.39-.29c-3.62-3-2.65,1.14-2.65,1.14a11.72,11.72,0,0,0,2.6,3.18c1.36,2,4.06,2.61,6.19,3.4.46.17,1,.4,1.11.87a.38.38,0,0,1,0,.28.35.35,0,0,1-.19.14,2.38,2.38,0,0,1-1,.08,26.06,26.06,0,0,1-6-1.44,5,5,0,0,0-1.54-.41c-1.67-.06-2.84,2.51-2.11,3.84.1.19.22.36.34.54a8.44,8.44,0,0,1,1.32,2.37,1.54,1.54,0,0,1-1.18,1.95c-.41.15-1.16.38-1.49,0s-.07-.79-.06-1.13a5.89,5.89,0,0,0-.62-2.43c-.25-.61-.46-1.21-.68-1.83a8.2,8.2,0,0,0-.74-1.36c-.25-.43-.44-.89-.66-1.34a12.29,12.29,0,0,0-1.58-2.65,10.23,10.23,0,0,0-1.4-1.38c-.48-.39-1.07-.64-1.54-1-.71-.63-2.22-3.11-3.12-1.37-.63,1.21-.42,2.93-.3,4.22a11.36,11.36,0,0,0-1.54.46c-1.09.54-1.23,1.28-.88,2.38s1.81,2.64.56,3.56c-.21.64-.64,1.76-1.32,2a20.13,20.13,0,0,1,1.23,11.06A20.5,20.5,0,0,1,397,367a1.75,1.75,0,0,0-.26,1.3,1.4,1.4,0,0,0,.88.74,3.78,3.78,0,0,0,4.51-1.61,7.63,7.63,0,0,0,.48-4c-.31-7.18,1.65-14.25,3.63-21.18-.17-.14-.34-.27-.52-.4l.61.11-.08.28a10.1,10.1,0,0,1,2.38,2.77,22.26,22.26,0,0,1,2.35,8.15,168,168,0,0,1,1.59,35.12c-.13,1.9,0,4.33,1.88,5,1.37.49,2.87-.41,3.76-1.53,2.57-3.28,1.73-7.87,1.3-12a47.42,47.42,0,0,1,6.11-28.49c-3.25,7,0,15,.49,22.64a35.83,35.83,0,0,0,.67,6.78A7.19,7.19,0,0,0,431,385.8c1.89.65,4.45-.22,4.79-2.13s-1.7-3.51-2.86-5.19c-1.52-2.19-1.59-5-1.49-7.63a117.38,117.38,0,0,1,2.35-18.5c-.22-1.33-.42-2.37.42-3.49a3.88,3.88,0,0,0,.52-1q.46-2.09,1-4.17a31.1,31.1,0,0,0,.39-3.26c0,.7-1,1.27-1.56,1.58-.25.14-1.47.75-1.62.25s.83-1.38,1.06-1.71C434.34,340,434.77,339.37,435.17,338.76Zm-33.55,1.72a7.28,7.28,0,0,1,4.05,1.36A18,18,0,0,1,401.62,340.48Z" transform="translate(-136 -122)"/><path class="cls-10" d="M432.58,333.24a5.85,5.85,0,0,0-1.64-1.21,1.62,1.62,0,0,1-.64-.48.5.5,0,0,1-.17-.46.86.86,0,0,1,.3-.41c4.23-3.93,4.13-9.45,3.39-14.66a3.24,3.24,0,0,0-.46-1.36h0a1.12,1.12,0,0,0-.93-.37,3.14,3.14,0,0,1-2.69-.67c-.09-.1-.19-.22-.34-.23s-.72.57-1,.71a1.2,1.2,0,0,1-1.29.12,2,2,0,0,1-.51-.51h0a2.43,2.43,0,0,1-.5-1,4,4,0,0,1-2.1,1.59,3.52,3.52,0,0,1-2.53,0c.06,1-.68,2.83-2,2.12a1.65,1.65,0,0,1-.56-.53l0,0c-.1-.13-.2-.27-.29-.4l-.1-.13,0,0a1.27,1.27,0,0,0-.52-.39,1.46,1.46,0,0,0-.76,0c-1.89.32-3.11,2.14-4.89,2.83-.25.1-.58.14-.73-.07l0,0-.07-.07c-.14-.2,0-.47.19-.65,1-1,2.58-1.35,3.76-2.2a1.34,1.34,0,0,0,.64-1q-1,.4-2,.9a24.43,24.43,0,0,0-3.67,2.27,22.72,22.72,0,0,0-2,1.65q-.47.44-.91.9a2.86,2.86,0,0,0-.7.82,2.08,2.08,0,0,0,.08,1.24,3,3,0,0,0,.37.71,7.94,7.94,0,0,0,1.13,1.21,5.13,5.13,0,0,0,1.36.92,7.11,7.11,0,0,0,.92.35,9,9,0,0,0,1,.25h0a9.83,9.83,0,0,0,1.33.09h.16c.39,0,.78,0,1.17-.07h.09a13.15,13.15,0,0,0,1.83-.34l.11,0h-.1l.63-.18a48.69,48.69,0,0,0,6.06-2.58l.84-.38.17-.12a1.25,1.25,0,0,1,.65-.23h0l.14-.06h0l0,0a.21.21,0,0,1,.07.11h0l0,0a.26.26,0,0,1,.09.15.48.48,0,0,1,0,.27,3.56,3.56,0,0,1-.57.92,21.86,21.86,0,0,1-4.49,4.35,9.79,9.79,0,0,1-3.36,1.71,4.74,4.74,0,0,1-3.68-.44,2.1,2.1,0,0,0,.32.61,3.06,3.06,0,0,0,2,1c.43,0,3.93-.7,4-.67l.08.13h0a6.9,6.9,0,0,0,.46.69,10.1,10.1,0,0,0,5.22,3.23,15.1,15.1,0,0,0,1.62.36.25.25,0,0,0-.09.09l.19,0a.25.25,0,0,0-.09.09l-.2.27a10.31,10.31,0,0,0-1,1.48,1.31,1.31,0,0,0,0,1.45h0c.53.62,1.51,1.07,2,1.74h0l.09.12.08.11h0a.93.93,0,0,0,.17.17c.95.66,2.37-1.45,2.87-2,.9-.93-.29-2.24-.74-3.1l0,0,0,0h0a.62.62,0,0,0-.1-.12,8.52,8.52,0,0,0,2.75,0,.35.35,0,0,0,.19-.09.27.27,0,0,0,0-.32ZM413.2,322.68a6.69,6.69,0,0,1-2.14-1.85h0l-.14-.3a1,1,0,0,1,.21-1.08s-.09-1.78,4.68,0C415.79,319.45,416.67,321.28,413.2,322.68Z" transform="translate(-136 -122)"/><path class="cls-2" d="M413,324.94c-.24,0-.47,0-.7,0l-.44,0-.19,0A9.83,9.83,0,0,0,413,324.94Z" transform="translate(-136 -122)"/><path class="cls-2" d="M413.2,322.68a6.69,6.69,0,0,1-2.14-1.85h0l-.14-.3a1,1,0,0,1,.21-1.08s-.09-1.78,4.68,0C415.79,319.45,416.67,321.28,413.2,322.68Z" transform="translate(-136 -122)"/><path class="cls-2" d="M415.53,314.72c-1.18.86-2.76,1.16-3.76,2.2-.16.16-.3.41-.21.6l-.07-.07c-.14-.2,0-.47.19-.65,1-1,2.58-1.35,3.76-2.2a1.34,1.34,0,0,0,.64-1l.08,0C416.25,314,415.9,314.45,415.53,314.72Z" transform="translate(-136 -122)"/><path class="cls-2" d="M423.79,321.38l-.74.5-1.33.63c-1.16.54-2.31,1.09-3.51,1.53-.4.15-.81.29-1.22.42l-.64.18a10.35,10.35,0,0,1-1.93.22,13.15,13.15,0,0,0,1.83-.34l.11,0h-.1l.63-.18a48.69,48.69,0,0,0,6.06-2.58Z" transform="translate(-136 -122)"/><path class="cls-2" d="M419.19,329.09c-.26,0-3.52.7-3.93.67a3,3,0,0,1-2.12-1.09,3.06,3.06,0,0,0,2,1c.43,0,3.93-.7,4-.67Z" transform="translate(-136 -122)"/><path class="cls-2" d="M424.83,321.08a.26.26,0,0,0-.12,0h-.1l.14-.06h0l0,0A.21.21,0,0,1,424.83,321.08Z" transform="translate(-136 -122)"/><path class="cls-2" d="M427.33,338.54c-.55-.66-1.54-1.1-2-1.74C425.85,337.42,426.84,337.86,427.33,338.54Z" transform="translate(-136 -122)"/><path class="cls-2" d="M426.5,333.36a.25.25,0,0,0-.09.09,14.54,14.54,0,0,1-1.44-.32,10,10,0,0,1-5.31-3.36,10.1,10.1,0,0,0,5.22,3.23A15.1,15.1,0,0,0,426.5,333.36Z" transform="translate(-136 -122)"/><path class="cls-2" d="M426.65,313.68a2.43,2.43,0,0,1-.5-1l.07-.11A2.15,2.15,0,0,0,426.65,313.68Z" transform="translate(-136 -122)"/><path class="cls-2" d="M430.66,337.12c-.5.51-1.93,2.62-2.87,2a1.18,1.18,0,0,1-.27-.3.93.93,0,0,0,.17.17c.95.66,2.37-1.45,2.87-2,.9-.93-.29-2.24-.74-3.1l0,0a.69.69,0,0,1,.12.17C430.37,334.88,431.56,336.19,430.66,337.12Z" transform="translate(-136 -122)"/><path class="cls-2" d="M432.71,333.69a.35.35,0,0,1-.19.09,8.5,8.5,0,0,1-2.75,0,.62.62,0,0,0-.1-.12,8.52,8.52,0,0,0,2.75,0,.35.35,0,0,0,.19-.09.27.27,0,0,0,0-.32C432.71,333.37,432.82,333.56,432.71,333.69Z" transform="translate(-136 -122)"/><path class="cls-2" d="M430.53,330.8a.86.86,0,0,0-.3.41.44.44,0,0,0,.07.34.5.5,0,0,1-.17-.46.86.86,0,0,1,.3-.41c4.23-3.93,4.13-9.45,3.39-14.66a3.24,3.24,0,0,0-.46-1.36,2.94,2.94,0,0,1,.55,1.49C434.66,321.35,434.76,326.87,430.53,330.8Z" transform="translate(-136 -122)"/><path class="cls-11" d="M439.87,317.28c-1.06-8.13-6-15.22-10.84-22-.33-.46-.76-1-1.33-.93s-.93.57-1.18,1.05a23.35,23.35,0,0,0-2.21,6,8.34,8.34,0,0,0-4.54-.38,7.4,7.4,0,0,1-.42-.64c-.15-.22-.3-.43-.46-.63a15.18,15.18,0,0,0-1-1.19,15,15,0,0,0-2.41-2,13.88,13.88,0,0,0-1.33-.79l-.69-.34c-.15-.07-.3-.16-.46-.22a.31.31,0,0,0-.18,0c-.1,0-.13.12-.15.21-.09.36-.22.72-.29,1.09a6.93,6.93,0,0,0-.15,1.59,23.54,23.54,0,0,0,.39,3.11,14.46,14.46,0,0,1,.25,3.13,6.64,6.64,0,0,1-.16,1.1c-.29,1.23-1,2.34-1.33,3.55a7.07,7.07,0,0,0,.9,5.86l2.37-1.12a36,36,0,0,0-6.39,4.24,12.35,12.35,0,0,0-1.52,1.84,25.25,25.25,0,0,1,7.23-5.44q1-.52,2.11-.93a.7.7,0,0,1,0,.15,1.34,1.34,0,0,1-.64,1c-1.18.86-2.76,1.16-3.76,2.2-.17.18-.32.45-.19.65l.07.07a.73.73,0,0,0,.66,0c1.77-.69,3-2.51,4.89-2.83a1.47,1.47,0,0,1,.76,0,1.39,1.39,0,0,1,.62.52l0,0,.1.13.29.4,0,0a1.47,1.47,0,0,0,.46.4c1.37.71,2.11-1.13,2-2.12a3.52,3.52,0,0,0,2.53,0,4,4,0,0,0,2.18-1.7q0,.11,0,.24a2.43,2.43,0,0,0,.5,1h0a1.88,1.88,0,0,0,.41.39,1.2,1.2,0,0,0,1.29-.12c.25-.14.68-.73,1-.71s.24.13.34.23a3.14,3.14,0,0,0,2.69.67,1.12,1.12,0,0,1,1,.5h0a3.24,3.24,0,0,1,.46,1.36c.74,5.21.84,10.72-3.39,14.66a.86.86,0,0,0-.3.41.5.5,0,0,0,.17.46,2.2,2.2,0,0,0,.55.36,5.85,5.85,0,0,1,1.64,1.21.77.77,0,0,1,.1.12h0a.27.27,0,0,1,0,.32.35.35,0,0,1-.19.09,8.52,8.52,0,0,1-2.75,0,.62.62,0,0,1,.1.12l0,0,0,0c.46.86,1.65,2.17.74,3.1-.5.51-1.93,2.62-2.87,2a.93.93,0,0,1-.17-.17h0c-.06-.07-.12-.15-.17-.23h0c-.49-.68-1.47-1.13-2-1.74h0a1.31,1.31,0,0,1-.14-1.58,10.3,10.3,0,0,1,1-1.48l.2-.27a.25.25,0,0,1,.09-.09,15.1,15.1,0,0,1-1.62-.36,10.1,10.1,0,0,1-5.22-3.23,6,6,0,0,1-.47-.68l-.08-.13s-3.52.71-4,.67a3.06,3.06,0,0,1-2-1,2.07,2.07,0,0,1-.42-.74,4.74,4.74,0,0,0,3.68.44,9.79,9.79,0,0,0,3.36-1.71,21.86,21.86,0,0,0,4.49-4.35,3.56,3.56,0,0,0,.57-.92.48.48,0,0,0,0-.27.11.11,0,0,0,0,0,.21.21,0,0,0-.07-.11h0l-.14.06h0l-.82.35-.84.38c-.41.26-.81.51-1.23.75A18.2,18.2,0,0,1,418.2,324a15.37,15.37,0,0,1-1.84.45l-.11,0a13.15,13.15,0,0,1-1.83.34,10.19,10.19,0,0,1-1.26.08H413a9.83,9.83,0,0,1-1.33-.09h-.1a5,5,0,0,1-1.34-.15l-.34-.11-.24-.1-.34-.2h0l-.24-.17-.24-.19h0l-.24-.15c-1.33-.85-2.38-2.43-1.87-3.89,0,0-9.36-1.93-12,3.62,0,0-3.66,2.62-2,13,0,0,1.35,7.77,4,12a13.63,13.63,0,0,1,.93,1.77c.69-.28,1.11-1.4,1.32-2,1.25-.92-.23-2.54-.56-3.56s-.21-1.83.88-2.38a11.36,11.36,0,0,1,1.54-.46c-.11-1.29-.32-3,.3-4.22.9-1.74,2.41.74,3.12,1.37.47.41,1.05.66,1.54,1a10.23,10.23,0,0,1,1.4,1.38,12.29,12.29,0,0,1,1.58,2.65c.22.45.41.92.66,1.34a8.2,8.2,0,0,1,.74,1.36c.22.62.43,1.22.68,1.83a5.89,5.89,0,0,1,.62,2.43c0,.34-.19.84.06,1.13s1.08.16,1.49,0a1.54,1.54,0,0,0,1.18-1.95,8.44,8.44,0,0,0-1.32-2.37c-.12-.18-.24-.36-.34-.54-.74-1.33.44-3.89,2.11-3.84a5,5,0,0,1,1.54.41,26.06,26.06,0,0,0,6,1.44,2.38,2.38,0,0,0,1-.08.35.35,0,0,0,.19-.14.38.38,0,0,0,0-.28c-.13-.46-.65-.7-1.11-.87-2.13-.8-4.83-1.44-6.19-3.4a11.72,11.72,0,0,1-2.6-3.18s-1-4.11,2.65-1.14l.39.29c1.42,1,2.85,2,4.33,3,.81.52,1.64,1,2.5,1.47.56.29,1.18.39,1.74.66a6.82,6.82,0,0,0,2.36.85,4.47,4.47,0,0,1,.67.07,1,1,0,0,1,.73.63,1.79,1.79,0,0,1-.3,1.48c-.14.24-.78.72-.61,1a.5.5,0,0,0,.18.16,4,4,0,0,0,.62.31c.89.33,1.29.07,1.63-.51a7.88,7.88,0,0,1,.67-.88,1.46,1.46,0,0,0,.31-1.77c-.27-.38-.74-.59-1-1s-.06-.51.27-.54a1.44,1.44,0,0,0,.81-.38,13,13,0,0,0,1.71-2.35c.59-.85,1.2-1.68,1.73-2.56a7.82,7.82,0,0,0,1.28-4.25,3,3,0,0,1,.2-1.84,3.15,3.15,0,0,1,2.21-1c.62,1.74-.63,4.24-1.23,5.87a19.27,19.27,0,0,1-2.07,3.87c-.41.61-.83,1.22-1.25,1.82-.23.32-1.18,1.3-1.06,1.71s1.37-.11,1.62-.25c.55-.31,1.51-.88,1.56-1.58a31.1,31.1,0,0,1-.39,3.26c.63-2.66,1.29-5.31,2-8C439.13,329.69,440.67,323.47,439.87,317.28Zm-26.5-6.34a3,3,0,0,1,1.16-3c.87-1,1,2.06,1,2.06C415.53,312.81,413.37,310.94,413.37,310.94Zm8.53-.11c-.15,0-.31,0-.47,0a2.22,2.22,0,0,0-1,.57c-.35.28-.61.66-.95.95s-.52-.46-.59-.64a3.26,3.26,0,0,1-.16-.86,3.48,3.48,0,0,1,.27-1.56,3.13,3.13,0,0,1,.91-1.23,1.58,1.58,0,0,1,.54-.34.59.59,0,0,1,.2,0,1.16,1.16,0,0,1,.65.29,4,4,0,0,1,1,1.13C422.52,309.64,422.74,310.69,421.89,310.83Z" transform="translate(-136 -122)"/><path class="cls-12" d="M421.89,310.83c-.15,0-.31,0-.47,0a2.22,2.22,0,0,0-1,.57c-.35.28-.61.66-.95.95s-.52-.46-.59-.64a3.26,3.26,0,0,1-.16-.86,3.48,3.48,0,0,1,.27-1.56,3.13,3.13,0,0,1,.91-1.23,1.58,1.58,0,0,1,.54-.34.59.59,0,0,1,.2,0,1.16,1.16,0,0,1,.65.29,4,4,0,0,1,1,1.13C422.52,309.64,422.74,310.69,421.89,310.83Z" transform="translate(-136 -122)"/><path class="cls-12" d="M415.56,310c0,2.81-2.19.94-2.19.94a3,3,0,0,1,1.16-3C415.39,306.95,415.56,310,415.56,310Z" transform="translate(-136 -122)"/><path class="cls-13" d="M413.07,325.46a.3.3,0,0,0-.36.16,2,2,0,0,0,1.29,2.56,5.31,5.31,0,0,0,3.83-.28c3-1.22,5-3.73,6.93-6.14C424.76,321.75,415.57,326.23,413.07,325.46Z" transform="translate(-136 -122)"/><path class="cls-2" d="M423.33,332.63q-.5,2.22-.94,4.45" transform="translate(-136 -122)"/><polyline class="cls-2" points="269.68 219.84 269.68 219.84 269.68 219.84"/><path class="cls-2" d="M387.51,332.82l0,.12" transform="translate(-136 -122)"/><path class="cls-12" d="M414.11,296.88c1.29.8,3.44,2.44,3.73,4.58a.71.71,0,0,1-.39.72c-.45.23-.92.43-1.36.67a5.69,5.69,0,0,0-1.56,1.2,3.34,3.34,0,0,0-.34.46c-.08.12-.11.27-.19.39a.44.44,0,0,1-.26.21h0a.06.06,0,0,1,0-.06.18.18,0,0,1,0-.07,2.19,2.19,0,0,0,0-1.52q-.15-.87-.29-1.75c-.1-.67-.2-1.35-.28-2s-.14-1.24-.17-1.86a1.76,1.76,0,0,1,0-.34C413.13,296.39,413.61,296.57,414.11,296.88Z" transform="translate(-136 -122)"/><path class="cls-12" d="M425,301.44a31,31,0,0,1,1.51-4.24c.3-.34.32-.91.76-1.14.81-.42,1.55.78,1.9,1.3.76,1.13,1.43,2.32,2.14,3.48s1.59,2.58,2.36,3.89a4.37,4.37,0,0,1,.6,1.08,2.76,2.76,0,0,0-.92-.15,9.68,9.68,0,0,1-3.72-1.23A15.43,15.43,0,0,1,425,301.44Z" transform="translate(-136 -122)"/><path class="cls-14" d="M424,321.23c-.24.06-2.79,2.11-3,2,0,0-.25,3.09-1,3.43,0,0,4.36-3.42,4.55-4.36S425.1,321,424,321.23Z" transform="translate(-136 -122)"/><path class="cls-15" d="M416.84,328.28s-.19-.91,0-1c0,0,.47.89.59.74A.91.91,0,0,1,416.84,328.28Z" transform="translate(-136 -122)"/><path class="cls-16" d="M423.36,312.82c-.05.64-.83,1.1-1.74,1s-1.61-.65-1.55-1.29.83-1.1,1.74-1S423.41,312.17,423.36,312.82Z" transform="translate(-136 -122)"/><ellipse class="cls-17" cx="421.7" cy="312.67" rx="0.88" ry="1.25" transform="translate(-58.64 586.93) rotate(-85.56)"/><ellipse class="cls-18" cx="421.72" cy="312.54" rx="0.7" ry="0.69" transform="translate(-58.5 586.83) rotate(-85.56)"/><circle class="cls-19" cx="421.54" cy="312.18" r="0.21" transform="translate(-74.88 571.29) rotate(-83.12)"/><path class="cls-16" d="M414.85,312.61c0,.56-.38,1-.79.9a1,1,0,0,1-.7-1.12c0-.56.38-1,.79-.9A1,1,0,0,1,414.85,312.61Z" transform="translate(-136 -122)"/><path class="cls-17" d="M414.66,312.57c0,.42-.28.73-.59.68a.78.78,0,0,1-.53-.85c0-.42.28-.73.59-.68A.78.78,0,0,1,414.66,312.57Z" transform="translate(-136 -122)"/><path class="cls-18" d="M414.42,312.42c0,.33-.16.58-.34.56s-.3-.32-.28-.65.16-.58.34-.56S414.43,312.09,414.42,312.42Z" transform="translate(-136 -122)"/><path class="cls-19" d="M413.93,312c0-.1.05-.17.1-.16s.09.1.08.2-.05.17-.1.16S413.93,312.14,413.93,312Z" transform="translate(-136 -122)"/><polygon class="cls-20" points="230.76 111.39 244.58 304.13 342.95 244.62 342.95 152.54 230.76 111.39"/><path d="M265.47,179.42a41.86,41.86,0,0,0,11.39-3.77l.74,2.79a43,43,0,0,1-11.84,4Zm7.41,3.91a17.61,17.61,0,0,0,7.85-7.79,105.72,105.72,0,0,1-2.51-15.71H265.86v-3H278l-.17-3,2.12.17.15,2.83h4.48v3H280.3a110.43,110.43,0,0,0,1.77,12.5,45.06,45.06,0,0,0,2.14-9.92l2,.77a56.48,56.48,0,0,1-1.89,8.83l-1.43,3.81c1.06,3.88,2,6.49,2.31,6.49.62,0,.89-4.15,1-5.52l2,1c-.44,4.78-1.13,7.51-2,8.1a1,1,0,0,1-.71.21c-1.82,0-3.62-6.28-4-7.51a19.23,19.23,0,0,1-7.31,7.47Zm3.89-9.64c0,.31-.1.45-.32.45h-9.57c-.2,0-.3-.14-.3-.45V163c0-.24.1-.38.3-.38h9.57c.22,0,.32.14.32.38Zm-2.21-8.13h-5.78c-.07,0-.1,0-.1.14V171c0,.1,0,.17.1.17h5.78c.07,0,.12-.07.12-.17V165.7Zm12-4.4a38.28,38.28,0,0,0-2.58-5.9l1.65-1.57a36,36,0,0,1,2.66,6Z" transform="translate(-136 -122)"/><path d="M305.8,185.46c-5.71-.24-8.83-1.15-11-5.34a34.45,34.45,0,0,1-3.13,5.94l-1.7-1.82.2-.31A25.56,25.56,0,0,0,294.46,173l2,.8-.74,3.46a8.87,8.87,0,0,0,4.5,4.61V171.74h-9.67v-2.83h21.56v2.83h-9.79v3.88h8.34v2.83h-8.34v3.91l2.73.14h7.65l-.52,3Zm4.06-19.1c0,.28-.1.42-.27.42H293.15c-.17,0-.27-.14-.27-.42V155c0-.24.1-.38.27-.38h16.44c.17,0,.27.14.27.38Zm-15-7.05h13v-1.85l-.1-.1H294.95c-.07,0-.1,0-.07.1Zm13,2.69h-13v2l.07.14h12.82l.1-.14Z" transform="translate(-136 -122)"/><path d="M322.69,174.81l-7.6.66-.32-3.11,7.92-.7v-5.52l-6.87.56-.27-3.07,7.14-.56v-4.82l-6.62.11-.25-3.14c6,.14,14.82-.52,18.93-1.57l.3,3.07a47.05,47.05,0,0,1-7.51,1.15l-2.66.24v4.78l10.61-.91.12,3.11-10.73.87v5.55l11.57-1.08.15,3.11-11.71,1v5.66c0,1.22,0,2,1.35,2H333a1.5,1.5,0,0,0,1.43-.84A22.32,22.32,0,0,0,335,176l2.19.66a56.84,56.84,0,0,1-.39,5.9,5.21,5.21,0,0,1-.49,1.5c-.69,1.15-1.16,1.33-2.61,1.33h-8.37c-1.26,0-2.71-.91-2.61-4.64Z" transform="translate(-136 -122)"/><path d="M343.6,170.65a19.51,19.51,0,0,0-2-5.27c-.25-.42-.27-.45-.27-.59a.87.87,0,0,1,0-.24l3.32-6.14,0-.42c0-.14-.1-.21-.2-.21h-5v-3H347l1.28,1.61-4.16,7.72a1.54,1.54,0,0,0-.25.8,1.3,1.3,0,0,0,.3.84,26,26,0,0,1,1.25,3.7l2-1.5.91,2.72-2.34,1.71a29,29,0,0,1,.44,4.82c0,4.78-1.67,8.66-3.64,8.66-.37,0-1.5-.14-3.47-1.75l.54-3.28c.86.87,2.07,1.78,2.68,1.78.39,0,1.7-1.5,1.7-5.76a25.39,25.39,0,0,0-.2-3.25l-4.26,2.16-.76-2.79Zm16.56,15.22q-1.55-3.35-3.84-7.54a39.11,39.11,0,0,1-8.61,7l-1.33-2.83a33.31,33.31,0,0,0,8.54-6.35,28.77,28.77,0,0,0,5.19-10.51l2,.77a28.42,28.42,0,0,1-4.41,10.19c1.45,2.3,2.85,4.78,4.16,7.33Zm-12.65-11a28.41,28.41,0,0,0,4.75-3.6,31.91,31.91,0,0,0-4.9-5.9l1.11-2.55a13.33,13.33,0,0,1,1.8,1.85l2.56-5h-4.58v-2.83h5.51v-3.14h2.09v3.14h5.88v2.83h-6.42c-.89,1.85-2.09,4.15-3.62,6.81l2.14,2.93a22.26,22.26,0,0,0,3.25-7.75l2,.66-.74,3q-2.14,6.65-9.57,11.94Z" transform="translate(-136 -122)"/><path d="M382.19,175.37a37.17,37.17,0,0,1-3.86,5.69l8,2.3-.91,2.79-9.52-3c-2.78,2-6.55,3-11.25,3l-.52-3.11a17.4,17.4,0,0,0,1.9.07,18.06,18.06,0,0,0,6.25-1l-5.09-1.64-.27-1.5,2.83-3.56H364v-3h7.73l1.38-2.55h-7.8c-.2,0-.3-.14-.3-.45v-8.66q0-.42.3-.42h5.78v-2.48H364.4V155H386v2.83h-6.82v2.48H385c.22,0,.32.14.32.42v8.66c0,.31-.1.45-.32.45H375.6l-1.45,2.55h12.21v3ZM371.09,167v-3.87h-3.91c-.07,0-.1,0-.07.14v3.56c0,.1,0,.14.07.17Zm4.43,13.23a18.84,18.84,0,0,0,4.06-4.89h-7.31l-1.87,2.72a.62.62,0,0,0-.15.35.47.47,0,0,0,.3.38Zm1.53-19.94v-2.48h-3.89v2.48Zm0,6.7v-3.87h-3.89V167Zm2.09-3.87V167h4l.1-.17v-3.56c0-.1,0-.14-.1-.14Z" transform="translate(-136 -122)"/><path d="M406.07,171.95H388.52v-2.69h22.62v2.69h-3v9.64c0,1.64-.84,3.32-1.75,3.77a5.83,5.83,0,0,1-2.85.63,14.34,14.34,0,0,1-3.4-.45l-.22-3.32a13.93,13.93,0,0,0,3.84.73c1.26,0,2.29-.45,2.29-2Zm-7.38-16.2v-2.09h2.09v2.09h8.71l1.72,1.22a32.29,32.29,0,0,1-.94,6.14l-2-.91.69-3.35c0-.28-.07-.42-.25-.42H391.15c-.12,0-.2.1-.2.28v3.77h-2.09v-6.18c0-.38.12-.56.39-.56Zm11.25,12.71c-.39,0-.76,0-1.13,0a10.69,10.69,0,0,1-8.86-4.54l-.66,1c-1.5,1.82-4.41,3-8.64,3.63l-.27-3.07c3.86-.28,6.37-1.12,7.53-2.41h-5.81V160.6h6.72v-1.71h2l0,1.71h6.6v2.55H402a8.36,8.36,0,0,0,6.5,2.58,13.46,13.46,0,0,0,1.65-.1Zm-6,12.81c0,.24-.07.38-.25.38H390.83c-.17,0-.25-.14-.25-.38v-7c0-.24.07-.35.25-.35h12.85c.17,0,.25.11.25.35Zm-2-5h-9.35c-.07,0-.1,0-.07.1v2.65l.07.14h9.35l.1-.14v-2.65Z" transform="translate(-136 -122)"/><path d="M415.59,173.83l-.81,1.64-2-1.26a41.05,41.05,0,0,0,4.36-14.1l2,.59c-.47,2.79-1,5.2-1.53,7.3v17.6h-2.09Zm6.47,10.58v1.5h-2V167.48c0-.28.07-.45.32-.45h4.43l.47-2.9h-5.22V161.3h13.09l.37-2.06c0-.28,0-.45-.27-.45h-17.5c-.12,0-.2.1-.2.28v4.36h-2.09v-6.91c0-.38.12-.56.39-.56h9.6v-2.3h2.09V156h8.52l1.82,1.29a39.51,39.51,0,0,1-1.13,6.7l-1.6-.77v.94h-5.73L427,167h6.55c.27,0,.42.17.42.56v18.33h-2v-1.5Zm0-10H432v-4.15c0-.24-.1-.38-.32-.38h-9.3c-.22,0-.32.14-.3.38Zm9.92,2.83h-9.92v4.36H432Z" transform="translate(-136 -122)"/></svg>