<svg id="圖層_1" data-name="圖層 1" xmlns="http://www.w3.org/2000/svg" viewBox="0 0 138.04 129.15"><defs><style>.cls-1{fill:#403023;}.cls-2{fill:none;stroke:#000;}.cls-18,.cls-2{stroke-miterlimit:10;}.cls-3{fill:#f0eada;}.cls-4{fill:#b6978a;}.cls-5{fill:#31261e;}.cls-6{fill:#1b0e00;}.cls-7{fill:#4b392b;}.cls-8{fill:#352b1e;}.cls-9{fill:#302420;}.cls-10{fill:#291f16;}.cls-11{fill:#362724;}.cls-12{fill:#251a14;}.cls-13{fill:#1d130b;}.cls-14{fill:#2f2318;}.cls-15{fill:#221814;}.cls-16{fill:#1e1715;}.cls-17,.cls-18{fill:#604a38;}.cls-18{stroke:#604a38;}.cls-19{fill:#4f443c;}</style></defs><title>cat</title><path class="cls-1" d="M354.49,263.42a86.64,86.64,0,0,0-18.67-17c-2.8-1.91-6.12-4.53-9.41-5.59-12.12-3.91-25-5.68-37.7-3.94a69.32,69.32,0,0,0-32,13.1c-10.74,8-22.43,20.08-25.73,33.41a.83.83,0,0,1,0,.15,63.77,63.77,0,0,0-.79,23.61,105,105,0,0,0,5,20.37c.83,2.41,1.74,4.78,2.73,7.13,0,1.14,1.52,3.11,2,4.17a1,1,0,0,1,.15.46.47.47,0,0,1,0,.17,1.41,1.41,0,0,1-.19.39,26.34,26.34,0,0,0-3.46,14.54c0,.6.33,8,1,8.11a12,12,0,0,0,9.3-2.76A15,15,0,0,0,249.8,356a18.07,18.07,0,0,0,2-4.48l3.31,1.31c16.09,7.39,33.74,13,51.62,12.52,23.76-.56,41.88-12.63,52.67-33.76C371,308.89,370.81,283.67,354.49,263.42Zm-58.41,80.1c-.17,5.17-10.17,5.83-10.17,5.83a9.52,9.52,0,0,1-3.56,3.67c2.15-2.23,4.23-5.23,4.77-8.09.26-1.42-1-2.67-1.46-4a15.7,15.7,0,0,1-.74-4.61,3.8,3.8,0,0,0-.16-1.26c-.39-1.06-1.82-.92-2.71-1.3a12,12,0,0,1-3-1.79,7.62,7.62,0,0,1-2.66-4.38,3.36,3.36,0,0,0-2.06-2.92c-2.24-1-5-.76-7.34-.7a7.71,7.71,0,0,1-2-.11c-.88-.2-1.33-.82-2-1.25a10.74,10.74,0,0,0-2.78-1.15,8.54,8.54,0,0,0-4.54.1,9.35,9.35,0,0,0-2.93,1.54c-.29.23-.64.74-1,.89-1.63.73-4.22,2-6.08,1.39s-.82-2.79-.28-4.14a10.47,10.47,0,0,0,.82-3.69,5.52,5.52,0,0,0-1.17-3.53,9.29,9.29,0,0,0-3.34-2.12,4.13,4.13,0,0,1-2.31-2.43,16.47,16.47,0,0,1-.85-7.21c0-.73-.06-.83.66-.91a19.59,19.59,0,0,1,2.52.2c1,0,4,.23,4.22-1.27,0,0,.11,0,0-.47,6.07,5.39,12.45,9.27,16,6,3.22-8.44,9.6-16.05,9.6-16.05,9-7.66,14,9.5,14,9.5,4,14.5-3.5,15.71-3.5,15.71-2.5,1.88,2,6.46,2,6.46,3.66,3.17,9.16,10.67,9.16,10.67C300.08,339.69,296.08,343.52,296.08,343.52Z" transform="translate(-229.44 -236.24)"/><path class="cls-2" d="M262,305.9a28.81,28.81,0,0,0-1.57,5.62" transform="translate(-229.44 -236.24)"/><path class="cls-2" d="M251.74,351.52s20.86,7.41,30.61,1.5" transform="translate(-229.44 -236.24)"/><path class="cls-3" d="M296.08,343.52c-.14,4.15-6.61,5.39-9.16,5.72a2.13,2.13,0,0,0-1.5.91,9.67,9.67,0,0,1-3.07,2.87c2.15-2.23,4.23-5.23,4.77-8.09.26-1.42-1-2.67-1.46-4a15.7,15.7,0,0,1-.74-4.61,3.8,3.8,0,0,0-.16-1.26c-.39-1.06-1.82-.92-2.71-1.3a12,12,0,0,1-3-1.79,7.62,7.62,0,0,1-2.66-4.38,3.36,3.36,0,0,0-2.06-2.92c-2.24-1-5-.76-7.34-.7a7.71,7.71,0,0,1-2-.11c-.88-.2-1.33-.82-2-1.25a10.74,10.74,0,0,0-2.78-1.15,8.54,8.54,0,0,0-4.54.1,9.35,9.35,0,0,0-2.93,1.54c-.29.23-.64.74-1,.89-1.63.73-4.22,2-6.08,1.39s-.82-2.79-.28-4.14a10.47,10.47,0,0,0,.82-3.69,5.52,5.52,0,0,0-1.17-3.53,9.29,9.29,0,0,0-3.34-2.12,4.13,4.13,0,0,1-2.31-2.43,12.82,12.82,0,0,1-.89-4.91,3,3,0,0,1,3.19-3h0c1,0,4,.23,4.22-1.27,0,0,.11,0,0-.47,5.82,5.17,11.93,8.95,15.55,6.4a2,2,0,0,0,.66-.9A65.64,65.64,0,0,1,271.43,290a2.29,2.29,0,0,1,.33-.33c8.89-7.28,13.82,9.65,13.82,9.65,3.4,12.34-1.52,15.05-3.06,15.59a1.75,1.75,0,0,0-1.19,1.52c-.11,2,2.29,4.58,2.7,5l.12.11c3.45,3,8.49,9.79,9.05,10.55l.12.14C300.05,339.71,296.08,343.52,296.08,343.52Z" transform="translate(-229.44 -236.24)"/><path class="cls-2" d="M246,299.86a5.76,5.76,0,0,0-.15-.71" transform="translate(-229.44 -236.24)"/><path class="cls-2" d="M282.35,353c-.4.42-.81.81-1.21,1.17" transform="translate(-229.44 -236.24)"/><path class="cls-4" d="M241.78,342.46a4,4,0,0,0-.42.38,13.54,13.54,0,0,0-3.07,5.91,22.27,22.27,0,0,0-.64,3.29,47.66,47.66,0,0,0,0,9.16.37.37,0,0,0,.12.3.37.37,0,0,0,.24,0,22.6,22.6,0,0,0,4.72-1.06,12.16,12.16,0,0,0,5-3.06,11.11,11.11,0,0,0,2.75-7,7.39,7.39,0,0,0-.68-3.79,6.66,6.66,0,0,0-3.16-2.8,16.73,16.73,0,0,0-4.86-1.31Z" transform="translate(-229.44 -236.24)"/><path class="cls-5" d="M338.24,251.69c-.2.06-.4.14-.59.22-2.12.84-4.61,1.46-6.46,2.85-2.16,1.62-2.87,3.63-4.25,5.77a18.33,18.33,0,0,1-5.8,5.2c-2.5,1.6-5.49,2.77-7.81,4.55a3.59,3.59,0,0,0,3.08.16c4.33-1.09,8.87-2.28,12.11-5.35,1.87-1.78,3.14-4.22,5.27-5.7s4.91-1.84,6.42-4.16a3.15,3.15,0,0,0,.57-2,1.86,1.86,0,0,0-1.26-1.6A2.27,2.27,0,0,0,338.24,251.69Z" transform="translate(-229.44 -236.24)"/><path class="cls-6" d="M260.55,336.89a8.62,8.62,0,0,1,1.89,2.69c.46,1.07.39,2.29.86,3.36a10.44,10.44,0,0,0,4.32,4.74c.73.37,2.29,1.15,3,.46a1.62,1.62,0,0,0,.44-1c.16-1.4-.88-1.33-1.87-1.63a6.11,6.11,0,0,1-2.37-1.53,4.31,4.31,0,0,1-1-1.31c-.33-.76.06-1.34,0-2.08-.06-.38-.35-.7-.35-1.1a10.06,10.06,0,0,0-3.33-3.87c-.85-.48-3.61-.59-2.78.24A11.35,11.35,0,0,1,260.55,336.89Z" transform="translate(-229.44 -236.24)"/><path class="cls-7" d="M323.73,275c-3.17-1.33-6.34-2.68-9.62-3.75s-6.88-1.58-10.13-.46-6.13,2.5-9.57,3.33c-10.27,2.48-10.59,17.34-9.86,25.65.06.67.26,1.36.36,2a41.86,41.86,0,0,1,.46,4.82,22.17,22.17,0,0,1-.38,5.8,8.88,8.88,0,0,1-1.08,2.71,6.18,6.18,0,0,1-.92,1.14c-.3.29-.95.5-1,1s.22.58.45.8a44.5,44.5,0,0,1,3.3,3.53,70.81,70.81,0,0,1,6.76,8.82,23.74,23.74,0,0,1,1.68,2.86c.46,1,1.47.92,1.4,2,0,.06.32.32.35.38s1-.21,1.13,1.38c.2,2,1.45,1.43,3.4,2.09a54.06,54.06,0,0,0,6.18,1.68,42.8,42.8,0,0,0,7.33.9,30.76,30.76,0,0,0,7.76-.69,22.68,22.68,0,0,0,14-9.39,34.79,34.79,0,0,0,4.76-10.33,59.81,59.81,0,0,0,2-10.46S340.38,281.93,323.73,275Z" transform="translate(-229.44 -236.24)"/><path class="cls-8" d="M320.91,242c-4.21,2.33-9.71,6-10.5,11.15-.49,3.18.06,4.93-1.74,8-1.19,2-6.13,6.85-3.76,9.3a23.22,23.22,0,0,0,7.95-11.25c1.35-4.18,1.64-8.44,6.7-9.12,1.93-.26,9.78-2.91,7.85-6.38C326.57,242.19,325,239.78,320.91,242Z" transform="translate(-229.44 -236.24)"/><path class="cls-9" d="M348.67,264.25c-3.24-.25-7,.39-9.09,2.31-2.75,2.51-5.94,4.11-8.11,7.26a18,18,0,0,1-2.45,3.27c-2.49,2.27-6.36,2-9.59,1.11-1.77-.51-3.79-1.32-5.6-.62a20.14,20.14,0,0,0,5.79,3.75,13.2,13.2,0,0,0,7.2.8c4.82-1,7.28-5.66,10.76-8.68A14.12,14.12,0,0,1,347,270c2.21,0,4.4.6,6.61.56a1.3,1.3,0,0,0,.79-.2,1.38,1.38,0,0,0,.36-1.09,6,6,0,0,0-.16-2,4.12,4.12,0,0,0-2.8-2.52A14.22,14.22,0,0,0,348.67,264.25Z" transform="translate(-229.44 -236.24)"/><path class="cls-10" d="M280.94,243.45c-.21,2.61.48,5.62,2.43,7.29,2.55,2.17,4.19,4.72,7.36,6.42a18.2,18.2,0,0,1,3.3,1.92c2.3,2,2.13,5.09,1.23,7.71-.49,1.43-1.27,3.08-.55,4.52a16.34,16.34,0,0,0,3.68-4.72,8.74,8.74,0,0,0,.71-5.82c-1.1-3.87-5.75-5.78-8.81-8.53a10.16,10.16,0,0,1-3.55-7.52c0-1.78.54-3.55.48-5.33a.89.89,0,0,0-.21-.63,1.6,1.6,0,0,0-1.09-.28,7.44,7.44,0,0,0-2,.16,3.7,3.7,0,0,0-2.49,2.29A9.49,9.49,0,0,0,280.94,243.45Z" transform="translate(-229.44 -236.24)"/><path class="cls-11" d="M353.27,278.56c-4.18-.39-9,2.77-12.52,4.28a39.42,39.42,0,0,1-14,3.13c-2.92.1-5.91-.11-8.69.76a1.6,1.6,0,0,0-1,.7,1.17,1.17,0,0,0,.56,1.42c3.3,2,9.78,1.32,13.45,1.17a48.79,48.79,0,0,0,11.12-1.52c4.14-1.17,8.15-3.4,12.1-5.08,1.19-.51,2.34-1.65,2.08-2.92a2.42,2.42,0,0,0-1.77-1.69A6.76,6.76,0,0,0,353.27,278.56Z" transform="translate(-229.44 -236.24)"/><path class="cls-12" d="M360.16,292.44c-4.82,1.85-9.29,4.3-14.53,4.6-5.65.32-12.19.66-17.76-.55-4.18-.91-8.31-5.24-12.75-2.71,1.93-1.09,5.42,2.44,7,3.25,5.34,2.7,11.59,3.18,17.44,3.91,6.52.81,13.16.75,19.42-1.47a6.88,6.88,0,0,0,3.22-2.07C363.73,295.46,363.49,291.15,360.16,292.44Z" transform="translate(-229.44 -236.24)"/><path class="cls-13" d="M355.23,308.09c-2.17.39-4.37,1.21-6.39,1.78-11.91,3.34-24.23,2.77-36.42,4.08-1.6.17-4.28.74-2.7,2.35,1.23,1.25,4.93,1,6.5,1.08q4.91.39,9.84.46a124,124,0,0,0,16.94-.72,57.61,57.61,0,0,0,9.06-2.29c2.65-.78,6.57-.7,8.89-2.12,3.39-2.06-.65-4.68-3-4.81A12,12,0,0,0,355.23,308.09Z" transform="translate(-229.44 -236.24)"/><path class="cls-14" d="M245.18,266.64c-.87,2.28-1.51,5.75-.25,8s5.92,3.85,8.41,4.73c3.18,1.12,6.38,1.89,9,4.17a2.78,2.78,0,0,0,1.38.83c2.12.26.47-3.24,0-3.95-1.42-2.35-4.25-2.3-6.55-3.35s-4.68-2.17-7.09-3.16a2.89,2.89,0,0,1-1.19-.74,1.94,1.94,0,0,1-.29-1.69c.36-1.46,2-2.72,1.55-4.34a3.81,3.81,0,0,0-2.34-2.08C246.31,264.39,245.69,265.29,245.18,266.64Z" transform="translate(-229.44 -236.24)"/><path class="cls-15" d="M259.7,250.36c-.6,3.66,2.51,5.64,4.91,8,4.95,4.85,10.69,8.83,15.52,13.77a.45.45,0,0,0,.77-.34,13.57,13.57,0,0,0-.43-3.21,12.49,12.49,0,0,0-3.39-4c-3-2.49-6.37-4.53-9.22-7.2-.91-.86-7.06-10.72-7.92-8A6.87,6.87,0,0,0,259.7,250.36Z" transform="translate(-229.44 -236.24)"/><path class="cls-16" d="M284.75,312.21c2.16-4.61,10.16-5.9,14.66-6.53,5.34-.75,10.87-.59,16.08-2.09,4.29-1.24,11-4,14.67,0-7.33,1.57-13.78,5.84-20.89,8.21C302.35,314.14,291.53,315.72,284.75,312.21Z" transform="translate(-229.44 -236.24)"/><path class="cls-16" d="M293.82,326c.2-.08.4-.15.61-.22,5.77-1.91,11.64-1.47,17.6-1.29-4.5-.14-10,3.9-14.55,4.82a7.32,7.32,0,0,1-3.25.13c-1.17-.3-2.67-1.25-1.56-2.64A2.8,2.8,0,0,1,293.82,326Z" transform="translate(-229.44 -236.24)"/><path class="cls-17" d="M287.84,293.33a8.31,8.31,0,0,1,1.15-2.17c2.38-3.31,6.87-6.74,11.06-7,7.14-.47,3.93,6.58-.2,8.46l-6.33,2.88C291.24,296.51,286.49,297.4,287.84,293.33Z" transform="translate(-229.44 -236.24)"/><path class="cls-18" d="M319.09,333.6c.55,3.28,3.6,4.88,6.33,6.37,2.55,1.39,7.08,2.84,8.4,5.69s3.4,4.84,6.55,5a1.17,1.17,0,0,0,.6-.09.88.88,0,0,0,.22-1.2,2.87,2.87,0,0,0-1-.88c-3.6-2.25-4.83-6.52-8.27-8.7-2.23-1.42-4.8-2.13-7.1-3.4-2-1.09-3.63-3-5.79-3.66A6.41,6.41,0,0,0,319.09,333.6Z" transform="translate(-229.44 -236.24)"/><path class="cls-19" d="M328.4,325.92c1.47,3,4.85,3.65,7.89,4.29,2.84.6,7.59.7,9.67,3s4.64,3.66,7.7,2.9a1.17,1.17,0,0,0,.55-.26.88.88,0,0,0-.14-1.22,2.87,2.87,0,0,0-1.24-.55c-4.09-1.13-6.49-4.86-10.41-6-2.55-.72-5.21-.67-7.78-1.22-2.2-.48-4.33-1.82-6.59-1.85A6.41,6.41,0,0,0,328.4,325.92Z" transform="translate(-229.44 -236.24)"/></svg>