<svg id="圖層_1" data-name="圖層 1" xmlns="http://www.w3.org/2000/svg" viewBox="0 0 95.15 95.15"><defs><style>.cls-1{fill:#ddc666;}.cls-2{fill:#403023;}.cls-3{fill:none;stroke:#000;}.cls-19,.cls-3{stroke-miterlimit:10;}.cls-4{fill:#f0eada;}.cls-5{fill:#b6978a;}.cls-6{fill:#31261e;}.cls-7{fill:#1b0e00;}.cls-8{fill:#4b392b;}.cls-9{fill:#352b1e;}.cls-10{fill:#302420;}.cls-11{fill:#291f16;}.cls-12{fill:#362724;}.cls-13{fill:#251a14;}.cls-14{fill:#1d130b;}.cls-15{fill:#2f2318;}.cls-16{fill:#221814;}.cls-17{fill:#1e1715;}.cls-18,.cls-19{fill:#604a38;}.cls-19{stroke:#604a38;}.cls-20{fill:#4f443c;}</style></defs><title>cat01</title><circle class="cls-1" cx="47.57" cy="47.57" r="47.57"/><path class="cls-2" d="M120.39,72.23a43.44,43.44,0,0,0-9.56-8.11A21.32,21.32,0,0,0,106,61.45,46.75,46.75,0,0,0,86.7,59.57a37,37,0,0,0-16.38,6.26c-5.5,3.85-11.49,9.59-13.18,16a.38.38,0,0,1,0,.07,28.46,28.46,0,0,0-.4,11.28,47.39,47.39,0,0,0,2.55,9.73c.43,1.15.89,2.28,1.4,3.41,0,.54.78,1.49,1,2a.44.44,0,0,1,.08.22.21.21,0,0,1,0,.08.66.66,0,0,1-.1.19,11.91,11.91,0,0,0-1.77,6.95c0,.29.17,3.84.53,3.87a6.47,6.47,0,0,0,4.76-1.32,7.3,7.3,0,0,0,1.58-1.79,8.35,8.35,0,0,0,1-2.14l1.7.63c8.24,3.53,17.28,6.19,26.44,6,12.17-.27,21.45-6,27-16.13C128.83,94,128.75,81.91,120.39,72.23ZM90.47,110.5c-.09,2.47-5.21,2.79-5.21,2.79A4.71,4.71,0,0,1,83.44,115a8.28,8.28,0,0,0,2.44-3.86c.13-.68-.53-1.28-.75-1.89a7,7,0,0,1-.38-2.2,1.7,1.7,0,0,0-.08-.6c-.2-.51-.93-.44-1.39-.62a6.24,6.24,0,0,1-1.54-.86,3.61,3.61,0,0,1-1.36-2.09,1.62,1.62,0,0,0-1.06-1.39,9.05,9.05,0,0,0-3.76-.33,4.23,4.23,0,0,1-1-.05c-.45-.1-.68-.39-1.05-.6a5.73,5.73,0,0,0-1.42-.55,4.68,4.68,0,0,0-2.33,0,4.92,4.92,0,0,0-1.5.74c-.15.11-.33.35-.5.43-.83.35-2.16,1-3.11.66s-.42-1.33-.14-2a4.72,4.72,0,0,0,.42-1.76,2.52,2.52,0,0,0-.6-1.69,4.81,4.81,0,0,0-1.71-1,2,2,0,0,1-1.18-1.16A7.37,7.37,0,0,1,61,90.81c0-.35,0-.4.34-.43a10.74,10.74,0,0,1,1.29.1c.54,0,2,.11,2.16-.61,0,0,.06,0,0-.22,3.11,2.57,6.38,4.43,8.2,2.89a30.91,30.91,0,0,1,4.92-7.67c4.61-3.66,7.17,4.54,7.17,4.54,2,6.93-1.79,7.51-1.79,7.51-1.28.9,1,3.09,1,3.09a42.29,42.29,0,0,1,4.69,5.1C92.52,108.67,90.47,110.5,90.47,110.5Z" transform="translate(-43.19 -42.85)"/><path class="cls-3" d="M73,92.53a13,13,0,0,0-.8,2.68" transform="translate(-43.19 -42.85)"/><path class="cls-3" d="M67.76,114.32s10.68,3.54,15.68.72" transform="translate(-43.19 -42.85)"/><path class="cls-4" d="M90.47,110.5c-.07,2-3.39,2.58-4.69,2.73a1.11,1.11,0,0,0-.77.44A4.84,4.84,0,0,1,83.44,115a8.28,8.28,0,0,0,2.44-3.86c.13-.68-.53-1.28-.75-1.89a7,7,0,0,1-.38-2.2,1.7,1.7,0,0,0-.08-.6c-.2-.51-.93-.44-1.39-.62a6.24,6.24,0,0,1-1.54-.86,3.61,3.61,0,0,1-1.36-2.09,1.62,1.62,0,0,0-1.06-1.39,9.05,9.05,0,0,0-3.76-.33,4.23,4.23,0,0,1-1-.05c-.45-.1-.68-.39-1.05-.6a5.73,5.73,0,0,0-1.42-.55,4.68,4.68,0,0,0-2.33,0,4.92,4.92,0,0,0-1.5.74c-.15.11-.33.35-.5.43-.83.35-2.16,1-3.11.66s-.42-1.33-.14-2a4.72,4.72,0,0,0,.42-1.76,2.52,2.52,0,0,0-.6-1.69,4.81,4.81,0,0,0-1.71-1,2,2,0,0,1-1.18-1.16A5.76,5.76,0,0,1,61,91.91a1.5,1.5,0,0,1,1.63-1.44h0c.54,0,2,.11,2.16-.61,0,0,.06,0,0-.22,3,2.47,6.11,4.28,8,3.06a.94.94,0,0,0,.34-.43,31.1,31.1,0,0,1,4.74-7.33,1.13,1.13,0,0,1,.17-.16c4.55-3.48,7.08,4.61,7.08,4.61,1.74,5.89-.78,7.19-1.57,7.45a.85.85,0,0,0-.61.73c-.06.93,1.17,2.19,1.38,2.39l.06.05a41.84,41.84,0,0,1,4.64,5l.06.07C92.51,108.68,90.47,110.5,90.47,110.5Z" transform="translate(-43.19 -42.85)"/><path class="cls-3" d="M64.81,89.64a2.59,2.59,0,0,0-.08-.34" transform="translate(-43.19 -42.85)"/><path class="cls-3" d="M83.44,115c-.2.2-.41.39-.62.56" transform="translate(-43.19 -42.85)"/><path class="cls-5" d="M62.66,110a2,2,0,0,0-.21.18A6.33,6.33,0,0,0,60.87,113a10,10,0,0,0-.33,1.57,21.24,21.24,0,0,0,0,4.38.17.17,0,0,0,.06.14.2.2,0,0,0,.12,0,12.29,12.29,0,0,0,2.42-.51,6.31,6.31,0,0,0,2.54-1.46,5.12,5.12,0,0,0,1.41-3.37,2.91,2.91,0,0,0-2-3.15,9.06,9.06,0,0,0-2.49-.63Z" transform="translate(-43.19 -42.85)"/><path class="cls-6" d="M112.07,66.63l-.3.1a14.5,14.5,0,0,0-3.31,1.36,8.84,8.84,0,0,0-2.18,2.76,9.2,9.2,0,0,1-3,2.49c-1.28.76-2.81,1.32-4,2.17a2,2,0,0,0,1.58.07c2.22-.52,4.54-1.09,6.2-2.56,1-.85,1.61-2,2.7-2.72s2.52-.88,3.29-2a1.43,1.43,0,0,0,.29-1,.9.9,0,0,0-.64-.76A1.24,1.24,0,0,0,112.07,66.63Z" transform="translate(-43.19 -42.85)"/><path class="cls-7" d="M72.27,107.33a4.13,4.13,0,0,1,1,1.29c.24.51.2,1.1.44,1.61a5.13,5.13,0,0,0,2.21,2.26c.38.18,1.17.55,1.55.22a.75.75,0,0,0,.23-.48c.08-.67-.45-.64-1-.78a3.16,3.16,0,0,1-1.22-.73,2.08,2.08,0,0,1-.51-.63c-.17-.36,0-.64,0-1,0-.18-.18-.34-.18-.52a4.92,4.92,0,0,0-1.7-1.85c-.43-.23-1.85-.28-1.43.12A5.73,5.73,0,0,1,72.27,107.33Z" transform="translate(-43.19 -42.85)"/><path class="cls-8" d="M104.63,77.74c-1.63-.64-3.25-1.28-4.93-1.79a8.83,8.83,0,0,0-5.19-.22c-1.7.55-3.14,1.19-4.9,1.59-5.26,1.19-5.43,8.28-5,12.25,0,.32.13.65.19,1a18.69,18.69,0,0,1,.24,2.3,9.9,9.9,0,0,1-.2,2.77,4.08,4.08,0,0,1-.55,1.3,3,3,0,0,1-.47.55c-.15.14-.49.24-.52.46s.11.28.23.38A21.94,21.94,0,0,1,85.18,100a34.21,34.21,0,0,1,3.46,4.21,11.19,11.19,0,0,1,.86,1.37c.24.5.75.44.72,1,0,0,.16.15.18.18s.5-.1.58.66c.1,1,.74.68,1.74,1a29.29,29.29,0,0,0,3.17.8,23.43,23.43,0,0,0,3.75.43,16.86,16.86,0,0,0,4-.33,12.46,12.46,0,0,0,3.83-1.48,11.69,11.69,0,0,0,3.32-3,16.12,16.12,0,0,0,2.44-4.93,26.86,26.86,0,0,0,1-5S113.16,81.07,104.63,77.74Z" transform="translate(-43.19 -42.85)"/><path class="cls-9" d="M103.19,62c-2.15,1.11-5,2.86-5.38,5.33-.25,1.52,0,2.36-.89,3.8-.61,1-3.14,3.27-1.92,4.44a11.14,11.14,0,0,0,4.07-5.38c.69-2,.84-4,3.43-4.35,1-.12,5-1.39,4-3C106.09,62.09,105.26,60.94,103.19,62Z" transform="translate(-43.19 -42.85)"/><path class="cls-10" d="M117.41,72.63a6.86,6.86,0,0,0-4.65,1.1c-1.41,1.2-3,2-4.16,3.47a8.66,8.66,0,0,1-1.25,1.56c-1.28,1.08-3.26,1-4.91.53a4.91,4.91,0,0,0-2.87-.3,10.42,10.42,0,0,0,3,1.79,7.21,7.21,0,0,0,3.69.38c2.47-.5,3.73-2.7,5.51-4.15a7.55,7.55,0,0,1,4.82-1.64c1.13,0,2.25.29,3.39.27a.7.7,0,0,0,.4-.09.63.63,0,0,0,.19-.52,2.69,2.69,0,0,0-.08-.94A2.07,2.07,0,0,0,119,72.9,7.76,7.76,0,0,0,117.41,72.63Z" transform="translate(-43.19 -42.85)"/><path class="cls-11" d="M82.72,62.69A4,4,0,0,0,84,66.17c1.3,1,2.14,2.26,3.77,3.07a9.5,9.5,0,0,1,1.69.92c1.18.94,1.09,2.43.63,3.68-.25.69-.65,1.47-.28,2.16a7.91,7.91,0,0,0,1.88-2.26A3.92,3.92,0,0,0,92,71c-.57-1.85-2.94-2.76-4.51-4.08a4.73,4.73,0,0,1-1.82-3.59c0-.85.28-1.7.24-2.55a.41.41,0,0,0-.11-.3.86.86,0,0,0-.56-.13,4.08,4.08,0,0,0-1,.08A1.85,1.85,0,0,0,83,61.49,4.27,4.27,0,0,0,82.72,62.69Z" transform="translate(-43.19 -42.85)"/><path class="cls-12" d="M119.76,79.47c-2.14-.18-4.6,1.32-6.41,2A21.43,21.43,0,0,1,106.16,83a17.94,17.94,0,0,0-4.45.36.83.83,0,0,0-.53.33.54.54,0,0,0,.29.68c1.69.94,5,.63,6.89.56a26.68,26.68,0,0,0,5.69-.73,56.15,56.15,0,0,0,6.2-2.43c.61-.24,1.2-.79,1.06-1.39a1.21,1.21,0,0,0-.91-.81A3.69,3.69,0,0,0,119.76,79.47Z" transform="translate(-43.19 -42.85)"/><path class="cls-13" d="M123.29,86.09c-2.47.89-4.76,2.05-7.44,2.2a37.77,37.77,0,0,1-9.09-.26c-2.14-.43-4.26-2.5-6.53-1.29,1-.52,2.78,1.17,3.6,1.55,2.73,1.29,5.93,1.52,8.93,1.87a23.08,23.08,0,0,0,9.95-.7,3.56,3.56,0,0,0,1.65-1C125.13,87.54,125,85.48,123.29,86.09Z" transform="translate(-43.19 -42.85)"/><path class="cls-14" d="M120.77,93.57c-1.11.18-2.24.58-3.27.85-6.1,1.6-12.41,1.32-18.65,1.95-.82.08-2.19.35-1.38,1.12.63.6,2.52.46,3.33.52q2.51.19,5,.22a68.05,68.05,0,0,0,8.68-.35,31.26,31.26,0,0,0,4.64-1.1c1.36-.37,3.37-.34,4.55-1,1.74-1-.33-2.24-1.53-2.3A6.57,6.57,0,0,0,120.77,93.57Z" transform="translate(-43.19 -42.85)"/><path class="cls-15" d="M64.4,73.77c-.45,1.09-.77,2.75-.13,3.82s3,1.84,4.31,2.26a13.58,13.58,0,0,1,4.6,2,1.45,1.45,0,0,0,.71.4c1.09.13.24-1.55,0-1.89-.73-1.12-2.18-1.1-3.35-1.6s-2.4-1-3.63-1.51a1.5,1.5,0,0,1-.61-.35.88.88,0,0,1-.15-.81c.18-.7,1-1.3.8-2.07a1.91,1.91,0,0,0-1.2-1C65,72.69,64.66,73.13,64.4,73.77Z" transform="translate(-43.19 -42.85)"/><path class="cls-16" d="M71.84,66c-.31,1.75,1.28,2.69,2.51,3.82,2.53,2.32,5.47,4.22,7.95,6.58a.23.23,0,0,0,.4-.16,6.08,6.08,0,0,0-.22-1.54,6.1,6.1,0,0,0-1.74-1.9c-1.54-1.19-3.27-2.16-4.72-3.44-.47-.41-3.61-5.12-4.06-3.83A3.1,3.1,0,0,0,71.84,66Z" transform="translate(-43.19 -42.85)"/><path class="cls-17" d="M84.67,95.54c1.11-2.2,5.2-2.82,7.51-3.12,2.73-.36,5.57-.28,8.24-1,2.2-.59,5.63-1.93,7.52,0-3.75.75-7.06,2.79-10.7,3.92S88.14,97.22,84.67,95.54Z" transform="translate(-43.19 -42.85)"/><path class="cls-17" d="M89.31,102.13l.31-.11c3-.91,6-.7,9-.62-2.31-.07-5.12,1.86-7.45,2.3a4,4,0,0,1-1.67.06c-.6-.14-1.37-.6-.8-1.26A1.44,1.44,0,0,1,89.31,102.13Z" transform="translate(-43.19 -42.85)"/><path class="cls-18" d="M86.25,86.52a3.89,3.89,0,0,1,.59-1,8.71,8.71,0,0,1,5.66-3.35c3.66-.23,2,3.14-.1,4l-3.24,1.37C88,88,85.56,88.47,86.25,86.52Z" transform="translate(-43.19 -42.85)"/><path class="cls-19" d="M102.26,105.76c.28,1.57,1.84,2.33,3.24,3s3.62,1.36,4.3,2.72a3.87,3.87,0,0,0,3.36,2.38.64.64,0,0,0,.31,0,.4.4,0,0,0,.11-.58,1.45,1.45,0,0,0-.53-.42c-1.84-1.08-2.47-3.11-4.23-4.16-1.14-.68-2.46-1-3.64-1.62-1-.52-1.86-1.42-3-1.75A2.86,2.86,0,0,0,102.26,105.76Z" transform="translate(-43.19 -42.85)"/><path class="cls-20" d="M107,102.09c.75,1.43,2.48,1.74,4,2s3.89.33,5,1.46A4,4,0,0,0,120,107a.62.62,0,0,0,.28-.12.4.4,0,0,0-.07-.58,1.52,1.52,0,0,0-.63-.26c-2.1-.54-3.33-2.32-5.33-2.85-1.3-.34-2.67-.32-4-.58-1.13-.23-2.22-.87-3.38-.88A3,3,0,0,0,107,102.09Z" transform="translate(-43.19 -42.85)"/></svg>