<svg id="圖層_1" data-name="圖層 1" xmlns="http://www.w3.org/2000/svg" viewBox="0 0 181.68 175.15"><defs><style>.cls-1{fill:#fff;stroke:#000;stroke-miterlimit:10;stroke-width:8px;}</style></defs><title>cat_bottom</title><path class="cls-1" d="M176.06,99.63a25.9,25.9,0,0,1-.22,7c-.35,2.37-.88,4.79-1.31,7.12a39.94,39.94,0,0,1-2.11,6c-4.32,9.54-13.23,17.86-19.45,25.67-1.28,1.91-2.59,3.77-4,5.57q-1.72,2.24-3.6,4.33t-3.92,4c-11.59,11.91-29,15-45.06,14q-2.25.16-4.48.23-4.47.13-8.87-.15-2.94-.2-5.83-.59C60.61,175,45.16,170.9,35.11,160.2A57.76,57.76,0,0,1,31,155.3c-14.62-14.81-26.47-33-24.74-55.19-.23-1.89-.45-3.79-.69-5.72-.41-2.2-.74-4.39-1-6.6A89.93,89.93,0,0,1,7.32,54.56c.24-1.4.52-2.8.88-4.16A20.48,20.48,0,0,1,11.62,43a14.37,14.37,0,0,1,4.17-3.63C31.38,26.91,45.1,9.33,67,7.83q2.56-.52,5.12-.84a85.84,85.84,0,0,1,25.47.9c2,.35,4,.76,6,1.19,23.14,1.51,47.45,9,60.45,30.29a58.77,58.77,0,0,1,3.44,5.43,64.82,64.82,0,0,1,6.83,18.46,56.9,56.9,0,0,1,1.78,5.58,49.32,49.32,0,0,1,.37,23.86C176.36,95.18,176.22,97.5,176.06,99.63Z" transform="translate(-0.11 -2.42)"/><path class="cls-1" d="M57.79,43.5c-2.3,2.9-4.22,5.27-5.38,9-.83,2.63-1.45,5.08-3.65,6.8-1.81,1.41-4.13,2-5.81,3.57-1.89,1.79-2.35,4.33-2.31,6.92" transform="translate(-0.11 -2.42)"/><path class="cls-1" d="M57.78,51.79l2.77,10" transform="translate(-0.11 -2.42)"/><path class="cls-1" d="M46.79,68.39a4.13,4.13,0,0,0,2.71,2.16c1.06.28,2.17.29,3.22.59,1.94.56,3.51,2,5,3.48" transform="translate(-0.11 -2.42)"/><path class="cls-1" d="M69.92,59c-2.57,2.34-5.52,5.6-6,9.37a19.51,19.51,0,0,1-.31,2.91c-1.11,4-6.54,7.41-9.35,10.06a8.6,8.6,0,0,0-1.7,2,3.2,3.2,0,0,0-.33,2.59" transform="translate(-0.11 -2.42)"/><path class="cls-1" d="M61.54,74.58a111.36,111.36,0,0,1,6.29,9.74c3.58,5.74,7.44,11.56,8.9,18.43,1.7,8,1.26,17.2.58,25.33a10.82,10.82,0,0,1-.87,4c-2.13,4.27-9.45,5.16-13.33,5.76a2.79,2.79,0,0,1-1.51-.06c-1.25-.53-1.39-2.47-2.44-3.38" transform="translate(-0.11 -2.42)"/><path class="cls-1" d="M69.92,88.3c-4.2,0-6.9,1.77-9.25,5.72-2.77,4.65-4.36,10.27-9.82,11.9" transform="translate(-0.11 -2.42)"/><path class="cls-1" d="M76.93,102.85c-2.51,3.62-4.67,7.64-7.86,10.64-3.66,3.44-7.63,4.24-10.63,8.63-.65.95-1.89,1.7-2.8,1" transform="translate(-0.11 -2.42)"/><path class="cls-1" d="M78.83,56.8c2.31,2.17,5.94,2.94,9.34,2.84a72.23,72.23,0,0,0,10-1.52,87.93,87.93,0,0,1,16.72-1c5.55.12,11.17,1,16.62-.21" transform="translate(-0.11 -2.42)"/><path class="cls-1" d="M90.31,39.39c.22,9.12,1.28,18.14,1.27,27.28v1.72" transform="translate(-0.11 -2.42)"/><path class="cls-1" d="M117,43.62c-2,8.06-1.28,16.71-1.27,25" transform="translate(-0.11 -2.42)"/><path class="cls-1" d="M85.34,76.94q-.1.28-.19.58c-1.42,5.24.22,10,.41,15.22.25,6.84.61,13.69.56,20.54,0,4.51-2.65,18.63,3,21a5.06,5.06,0,0,0,1.71.27c5.55.24,11.05.64,16.61.38s11.24-1.35,16.82-1.35c2.67-.21,5.77-1,6.42-5.15,2-12.51-4.23-25.22-3.72-38,.17-4.45.65-8.78.13-13.24a4.28,4.28,0,0,0-.5-1.81c-1.45-2.3-6.76-1.85-9-1.72-3.71.21-7.38.95-11.11.89C101.12,74.42,88,69.74,85.34,76.94Z" transform="translate(-0.11 -2.42)"/><path class="cls-1" d="M86.14,102.85c13.79-.4,27.6-.87,41.39-.87" transform="translate(-0.11 -2.42)"/><path class="cls-1" d="M107.95,74.58a27,27,0,0,0-1.19,3.6c-.92,5.56-2.31,11.61-1.08,17.19.78,3.55,2,7,2.13,10.68.19,6.1-2.58,11.84-.65,17.93,1,3.14,3.11,6,3.09,9.31" transform="translate(-0.11 -2.42)"/></svg>