<svg id="圖層_1" data-name="圖層 1" xmlns="http://www.w3.org/2000/svg" viewBox="0 0 161.32 121.25"><defs><style>.cls-1{fill:none;stroke:#000;stroke-miterlimit:10;}.cls-2{fill:#604c51;}.cls-3{fill:#eae2e6;}.cls-4{fill:#27342f;}.cls-5{fill:#a76643;}.cls-6{fill:#b56d43;}.cls-7{fill:#c6c1cb;}.cls-8{fill:#a57056;}.cls-9{fill:#e8e2da;}.cls-10{fill:#9a6a52;}</style></defs><title>dog</title><path class="cls-1" d="M262.06,324.37c5.69.06,11.38,9.56,11.38,9.56a9.77,9.77,0,0,1,.34,1.21" transform="translate(-219.15 -240.58)"/><path class="cls-1" d="M323.57,285.63a22.7,22.7,0,0,1,2.51,1.49" transform="translate(-219.15 -240.58)"/><path class="cls-1" d="M273.78,335.14c-.42-.32-.68-.54-.68-.54" transform="translate(-219.15 -240.58)"/><path class="cls-2" d="M241.94,324.37a11.36,11.36,0,0,1-1.15.32c-5,1.14-4.57-2.93-4.57-2.93a5.61,5.61,0,0,1,5.72-4.7C248.63,318.74,241.94,324.37,241.94,324.37Z" transform="translate(-219.15 -240.58)"/><path class="cls-1" d="M254.75,264.18c2.64,0,5.21,1.83,7.24,3.34l.51.39" transform="translate(-219.15 -240.58)"/><path class="cls-1" d="M240.56,280.56a12.32,12.32,0,0,0,4.94,8.68s7.5,9.38,8.69,15.07c0,0,2,9.2,8.69,10.61" transform="translate(-219.15 -240.58)"/><path class="cls-1" d="M299.81,293.87" transform="translate(-219.15 -240.58)"/><path class="cls-3" d="M338.25,339.29c.39,7.34-17.37,5.94-33.27,3.42-11.54-1.85-22.1-4.28-24.06-4.42a14.42,14.42,0,0,0-1.92,0h0a19.9,19.9,0,0,1-5.21-3.11,5.27,5.27,0,0,1,.12.73c.52,4.57-4.21,4.81-4.21,4.81-7.94,2.23-16.82-11.44-16.82-11.44a2,2,0,0,1-.53-1.37c-.12-2.26,2.25-5.65,3.89-7.71.86-1.08,1.52-1.79,1.52-1.79a8.58,8.58,0,0,1,5.13-3.45,9.19,9.19,0,0,0,3.8,0,17.38,17.38,0,0,1,6.45,2.73c4.93,4.31,16.12,9.83,16.12,9.83,3,.5,2.17-2.33,2.17-2.33-2.73-12.79-.43-21.49,2.8-27.13a23.12,23.12,0,0,1,8.53-8.87,13.19,13.19,0,0,1,8.85-5.94s-6.8,3.49-7.43,6.47c0,0-20.25,15-8.25,35.3,0,0-.67,12.67,10.83,14.75a2.27,2.27,0,0,0,.42,2.5s29.08,5.59,30.33-2.58Z" transform="translate(-219.15 -240.58)"/><path class="cls-4" d="M348.87,287.74c-9.5,3.63-20-2.72-20-2.72a5.17,5.17,0,0,1-5.3.61l-.06,0a11.69,11.69,0,0,0-1.12-.54l-.07-.05c-2.77-1.26-6.73-2.51-10.72-1.84a13.19,13.19,0,0,0-8.85,5.94,23.12,23.12,0,0,0-8.53,8.87c-10.66-15.88.28-33,.28-33-3.63,1.74-5.87-8.38-5.87-8.38-.5,3.88-8.3,1.62-8.3,1.62-9.52,3.45-11.81-13.3-11.88-13.83,22.37-6.27,48.61-5.86,67.13,8.88A138.14,138.14,0,0,1,354,267.68c2.36,2.16,4.74,4.45,7.05,6.87,0,0,0,0,0,0C367,285.35,348.87,287.74,348.87,287.74Z" transform="translate(-219.15 -240.58)"/><path class="cls-5" d="M294.22,298c-3.23,5.64-5.53,14.34-2.8,27.13,0,0,.83,2.83-2.17,2.33,0,0-11.19-5.52-16.12-9.83a17.38,17.38,0,0,0-6.45-2.73,14.46,14.46,0,0,0,3.32-1.15,49.13,49.13,0,0,0,5.42-6c2.3-3,5.66-7.36,4.76-11.41-.19-.85-.51-1.66-.75-2.5-.67-2.4-.66-4.93-1.22-7.36a26.23,26.23,0,0,0-2.91-7.61,11.27,11.27,0,0,0-2.61-3c-1.08-.86-2.39-1.13-3.51-1.88a6.14,6.14,0,0,1-.84-.77,51.09,51.09,0,0,0-5.84-5.26c3.85-2.86-4.25-13.56-8.18-18.34l.12-.06a45.6,45.6,0,0,1,4.74-2.05c3-1.14,6.09-2.16,9.27-3,.07.53,2.36,17.28,11.88,13.83,0,0,7.8,2.26,8.3-1.62,0,0,2.24,10.12,5.87,8.38C294.5,265,283.56,282.11,294.22,298Z" transform="translate(-219.15 -240.58)"/><path class="cls-6" d="M275.42,307.72a49.13,49.13,0,0,1-5.42,6,14.46,14.46,0,0,1-3.32,1.15,9.93,9.93,0,0,0-3.8,0,8.58,8.58,0,0,0-5.13,3.45s-.66.71-1.52,1.79c-5.07.62-8.6-4.29-8.6-4.29-2.26-8.34-10.19-6.94-11.26-7.66s-2.5-4.21-2.5-4.21c-1.38-1.57-1.45,1.7-1.39,3.53a14.54,14.54,0,0,0-3.23-2.91c-4.33-.9-6.85-4.53-8-8.58a25.31,25.31,0,0,1-.84-6.42c0-2,.88-4.71,0-6.57a5.42,5.42,0,0,0-.26-.48,7.37,7.37,0,0,1-.85-5.13c1.63-7.54,7.11-9.74,12.86-12.32,5.36-2.4,11-5.29,14.86-9.81a23.49,23.49,0,0,1,7.3-5.74c3.93,4.78,12,15.48,8.18,18.34a51.09,51.09,0,0,1,5.84,5.26,6.14,6.14,0,0,0,.84.77c1.12.75,2.43,1,3.51,1.88a11.27,11.27,0,0,1,2.61,3,26.23,26.23,0,0,1,2.91,7.61c.56,2.43.55,5,1.22,7.36.24.84.56,1.65.75,2.5C281.08,300.36,277.72,304.72,275.42,307.72Z" transform="translate(-219.15 -240.58)"/><path class="cls-7" d="M256.23,320.16c-1.64,2.06-4,5.45-3.89,7.71-1.78,3.45-9.05-1.38-11.55-3.18a11.36,11.36,0,0,0,1.15-.32s6.69-5.63,0-7.31a5.61,5.61,0,0,0-5.72,4.7c-2.34-3.6-2.41-10.14-2.41-10.14a5.2,5.2,0,0,0-1.33-4.09c-.06-1.83,0-5.1,1.39-3.53,0,0,1.44,3.5,2.5,4.21s9-.68,11.26,7.66C247.63,315.87,251.16,320.78,256.23,320.16Z" transform="translate(-219.15 -240.58)"/><path class="cls-8" d="M371.36,337.63a69.74,69.74,0,0,1-14.55,13c-8.3,5.72-15.55,10.54-26,11.14-9.21.53-18.57-1.67-27.15-4.49-.71-.24-1.43-.48-2.14-.74,4.32-2.82,3.74-11.14,3.43-13.81,15.9,2.52,33.66,3.92,33.27-3.42l-.75.33c-1.25,8.17-30.33,2.58-30.33,2.58a2.27,2.27,0,0,1-.42-2.5c-11.5-2.08-10.83-14.75-10.83-14.75-12-20.33,8.25-35.3,8.25-35.3.63-3,7.43-6.47,7.43-6.47,4-.67,8,.58,10.72,1.84l.07.05a8.55,8.55,0,0,0,1.12.54l.06,0a5.17,5.17,0,0,0,5.3-.61s10.5,6.35,20,2.72c0,0,18.16-2.39,12.23-13.17,9.77,10.23,18.31,22.72,19.29,36.84C381.06,321.09,377.44,330.2,371.36,337.63Z" transform="translate(-219.15 -240.58)"/><path class="cls-9" d="M301.55,356.52c-9.54-3.44-18.71-8.83-24.63-17.23,0,0-.46-.93,2.07-1h0a2.55,2.55,0,0,0,1.92,0c2,.14,12.52,2.57,24.06,4.42C305.29,345.38,305.87,353.7,301.55,356.52Z" transform="translate(-219.15 -240.58)"/><path class="cls-1" d="M268.45,244.41h0" transform="translate(-219.15 -240.58)"/><path class="cls-10" d="M243,280s.33,6.17,7.33,13.67c0,0,6.33,19.58,12.58,20.08,0,0,10.75,7.08,17.17-13,0,0,2.83-24.5-11-26.58a29.23,29.23,0,0,0-13.67-9.75S234.34,261.38,243,280Z" transform="translate(-219.15 -240.58)"/><path d="M246.17,292.71c-.56.7-3.87,4.5-3.87,4.5A8.9,8.9,0,0,1,240,299a6,6,0,0,1-1.69.55,2.67,2.67,0,0,1-1.16,0,1.21,1.21,0,0,1-.89-1,2.66,2.66,0,0,1,0-1,.26.26,0,0,0,0-.07c-.08-.65,0-1.4.71-1.66a3.21,3.21,0,0,1,1.68,0l.6.11h.13l.12,0c.75-.38,1.5-.75,2.25-1.15a25.46,25.46,0,0,0,3-1.76c.48-.35.89-.78,1.37-1.12a1.84,1.84,0,0,1,.72-.42.08.08,0,0,1,.08,0,.09.09,0,0,1,0,.09A4.39,4.39,0,0,1,246.17,292.71Z" transform="translate(-219.15 -240.58)"/></svg>