<svg id="圖層_1" data-name="圖層 1" xmlns="http://www.w3.org/2000/svg" viewBox="0 0 166.98 171.47"><defs><style>.cls-1{fill:#fff;stroke:#000;stroke-miterlimit:10;stroke-width:8px;}</style></defs><title>dog_bottom</title><path class="cls-1" d="M168.67,98.86a17.17,17.17,0,0,1,0,5.49c-.82,5.39-3.85,10.5-6.11,15.24-1.69,3.26-3.42,6.46-4.77,9.67-.77,1.51-1.57,3-2.37,4.48s-1.61,2.93-2.4,4.37q-1.33,2.49-2.79,4.85a72,72,0,0,1-7,9.77,59.48,59.48,0,0,1-18.15,14.6,48.56,48.56,0,0,1-6,2.57c-12.55,3.9-25.5,2.27-38.22-.43-1.82-.39-3.64-.79-5.46-1.21a94.35,94.35,0,0,1-14.19-4.48q-2.34-.95-4.65-2c-21.09-6.58-39.86-22.45-41.3-46.19-.57-2-1.1-4-1.56-6A85.6,85.6,0,0,1,11.6,91q-.35-3.4-.41-6.84A72.52,72.52,0,0,1,13.8,63.33q.62-3.49,1.54-7a44.38,44.38,0,0,1,1.22-6A33.75,33.75,0,0,1,18.61,45a31.16,31.16,0,0,1,5-7.37,34.06,34.06,0,0,1,3.49-3.32A62.5,62.5,0,0,1,67.32,10.82a65.28,65.28,0,0,1,6.73-.66A111.65,111.65,0,0,1,94.47,8.79q3.37.1,6.7.45c24.39-.07,45.66,13.9,57.55,35.68q1.61,2.4,3,4.9a66.12,66.12,0,0,1,7.42,43.86C169,95.5,168.84,97.23,168.67,98.86Z" transform="translate(-7.17 -4.75)"/><path class="cls-1" d="M49.77,47.49c2.92,2.76,7,3.5,10.35,5.45,4,2.28,5.35,6.23,6.2,10.58a106,106,0,0,0,5.22,18.92c2.45,6.16,5.89,11.06,10,16.14,2.91,3.59,3.49,8.49,3.62,13,.18,6,1.11,12.52-1.33,18.23-3.24,7.57-10.82,3.86-16.64,1.78" transform="translate(-7.17 -4.75)"/><path class="cls-1" d="M46.81,82.3c5.24-2.72,8.42-7.43,12.17-11.72,4.45-5.1,11.23-7.6,14.61-13.72,2.77-5,5-6.31,10.79-7.41l1.84-1.93" transform="translate(-7.17 -4.75)"/><path class="cls-1" d="M52.42,106.34a2.65,2.65,0,0,0,3.21-.43,7.87,7.87,0,0,0,1.57-2.81C60,96.71,67.75,93.27,73.68,89.4" transform="translate(-7.17 -4.75)"/><path class="cls-1" d="M99.07,42.62c-3.42,5.66-3.81,12.57-5.58,18.83-1.59,5.63-2.16,13.28-5.24,18.18" transform="translate(-7.17 -4.75)"/><path class="cls-1" d="M93.66,66.2c11.78,4,21.6.14,33.48-.59a11.06,11.06,0,0,1,1.12,0c7.46.3,8.3,7.45,7.48,13.54a84,84,0,0,1-2.22,10.11,114.25,114.25,0,0,0-2.26,13.06q-1.19,8.26-3.07,16.4c-1.13,4.87-2.69,9.8-6.26,13.45a7.55,7.55,0,0,1-6.46,2.47c-2.7-.46-4-3.37-6.66-3.74" transform="translate(-7.17 -4.75)"/><path class="cls-1" d="M93.41,89.35c-.48,5.41,1.41,13.66,2.93,15.55,2.33,2.89,7.73,4.28,11.49,4.82,5.76.83,9.57,0,10.68-5.36,1-4.7,2.31-9.44,2.89-14.18.18-1.44.09-3.2-1.34-3.92a5.06,5.06,0,0,0-2-.38c-6.94-.35-13.81-1.26-20.77-1.39a4.29,4.29,0,0,0-1.71.2C94.27,85.23,93.62,87,93.41,89.35Z" transform="translate(-7.17 -4.75)"/></svg>