<svg id="圖層_1" data-name="圖層 1" xmlns="http://www.w3.org/2000/svg" viewBox="0 0 430.54 538.11"><defs><style>.cls-1{fill:#e2cfb5;}.cls-1,.cls-19,.cls-2,.cls-4,.cls-5,.cls-8{stroke:#000;stroke-miterlimit:10;}.cls-1,.cls-19,.cls-4{stroke-width:4px;}.cls-2,.cls-5{fill:none;}.cls-3{fill:#504930;}.cls-4{fill:#4d4b3d;}.cls-5{stroke-width:8px;}.cls-18,.cls-19,.cls-6{fill:#fff;}.cls-6{opacity:0.24;}.cls-7{fill:#040205;}.cls-8{fill:#decfaf;}.cls-9{fill:#15140c;}.cls-10{fill:#beba96;}.cls-11{fill:#6d4e3c;}.cls-12{fill:#150400;}.cls-13{fill:#f0d4c0;}.cls-14{fill:#2c0c00;}.cls-15{fill:#2c2f33;}.cls-16{fill:#0f1410;}.cls-17{fill:#768495;}.cls-18{opacity:0.23;}</style></defs><title>index_room_pet</title><path class="cls-1" d="M509.71,641.92c-9,3.61-23.94-.51-30.83-.84-17.15-.82-34.31-.84-51.47-.54-33.43.58-67.13.65-100.53,2.5-22.79,1.26-45.45-2.9-68.2-3.41-22.49-.51-44.8,4.5-67.29,4.31-12.72-.11-25.35-1.11-38.1.65-6,.83-11.78.65-17.7,1-1.19.07-2.37.17-3.54.3-10.86,1.21-22.47-8.13-28.66-18.48C90.75,606.25,90.73,576,92.51,551c2.12-29.72,4.57-58.83,4.33-88.62-.12-15.48-1.93-31.72-.81-47.13.11-1.44.22-2.83.31-4.22A182.87,182.87,0,0,0,97,383.58c-2.73-44-1-88.39-2.75-132.47-.07-1.65-.12-3.29-.17-5-.33-13.12-1.91-26.22,5.88-36.92,12.29-16.86,36.38-12.15,52.4-9.69,22.25,3.41,43.88,1.63,66.29.93,26.65-.83,53.61,2.55,80.3,3.43l3.7.13c16.86.15,33.37-1.92,50.36-.85l3.72-.19c28.16-1.34,56.35-1.65,84.53-2,14.1-.17,28.19-.33,42.29-.65,13.67-.3,32-5.88,32.51,17.86.43,21.9,2.17,43.91,2.17,65.77,0,23.79-3,48-3.78,71.84q-1.34,43.23-.31,86.5c.54,22.9,3.79,45.24,3.42,68.38-.32,19.55-2.25,39-2.36,58.57-.12,19.76,4.62,39.6,2.44,59.21-.36,3.19-.9,6.49-2.47,9.06A10.88,10.88,0,0,1,509.71,641.92Z" transform="translate(-89.67 -156.39)"/><path class="cls-2" d="M419.33,495a1.53,1.53,0,0,0,1.36.1" transform="translate(-89.67 -156.39)"/><polyline class="cls-3" points="66.13 381.66 204.81 382.55 376.87 263.66"/><polyline class="cls-3" points="61.96 381.66 290.54 268.15 370.98 267.73"/><path class="cls-4" d="M280.14,292.85l14.35,246.09L466.54,420.06V374.29Zm129.7,160.49-101.61,63L293.89,311.28l116,44.58Zm50.81-34.48-44.23,29.72L414,358.83l46.62,17.24Z" transform="translate(-89.67 -156.39)"/><polygon class="cls-5" points="204.22 154.89 320.17 199.47 320.17 296.95 218.56 359.96 204.22 154.89"/><polygon class="cls-5" points="370.98 219.68 370.98 262.48 326.75 292.2 324.36 202.44 370.98 219.68"/><polygon class="cls-5" points="320.17 199.47 320.17 296.95 218.56 359.96 204.22 154.89 320.17 199.47"/><polygon class="cls-5" points="370.98 219.68 370.98 262.48 326.75 292.2 324.36 202.44 370.98 219.68"/><polygon class="cls-4" points="204.81 382.55 66.14 382.55 66.13 381.66 61.96 136.46 190.47 136.46 204.81 382.55"/><polygon class="cls-4" points="376.87 271.39 376.87 317.18 203.33 453.9 203.93 396.22 376.87 271.39"/><polygon class="cls-5" points="204.81 396.22 204.22 453.9 204.22 438.45 204.81 396.22"/><polygon class="cls-4" points="204.81 382.55 204.81 396.22 66.14 396.22 66.14 386.13 66.13 381.66 66.14 382.55 204.81 382.55"/><polygon class="cls-4" points="376.87 263.66 376.87 271.39 204.81 396.22 204.81 382.55 376.87 263.66"/><polygon class="cls-4" points="206.33 396.22 205.72 438.45 205.72 453.9 66.14 456.28 66.14 396.22 206.33 396.22"/><polygon class="cls-6" points="324.36 202.44 326.75 292.2 370.98 262.48 370.98 219.68 324.36 202.44"/><path class="cls-2" d="M344.68,394c0,3-2.26,1-2.26,1a3.18,3.18,0,0,1,1.2-3.17C344.51,390.76,344.68,394,344.68,394Z" transform="translate(-89.67 -156.39)"/><path class="cls-2" d="M351.22,394.87c-.16,0-.32,0-.49,0a2.28,2.28,0,0,0-1.08.61c-.36.3-.63.69-1,1s-.54-.49-.61-.68a3.53,3.53,0,0,1-.16-.91,3.76,3.76,0,0,1,.28-1.65,3.31,3.31,0,0,1,.94-1.3,1.63,1.63,0,0,1,.55-.36.6.6,0,0,1,.21,0,1.18,1.18,0,0,1,.67.31,4.26,4.26,0,0,1,1,1.2C351.86,393.61,352.1,394.73,351.22,394.87Z" transform="translate(-89.67 -156.39)"/><path class="cls-2" d="M340.54,409.69a5.07,5.07,0,0,1-1.38-.15,3.62,3.62,0,0,1-1.45-.82A7.83,7.83,0,0,0,340.54,409.69Z" transform="translate(-89.67 -156.39)"/><path class="cls-7" d="M342.24,407.42a7,7,0,0,1-2.22-2h0l-.15-.32a1.08,1.08,0,0,1,.22-1.14s-.09-1.88,4.83,0C344.92,404,345.82,405.93,342.24,407.42Z" transform="translate(-89.67 -156.39)"/><path class="cls-2" d="M352.31,406.44c-.42.28-.84.54-1.28.79a18.56,18.56,0,0,1-3.63,1.62,15.55,15.55,0,0,1-1.9.48l-.11,0,.65-.19A49.65,49.65,0,0,0,352.31,406.44Z" transform="translate(-89.67 -156.39)"/><path class="cls-2" d="M354.2,405.59l0,0h0Z" transform="translate(-89.67 -156.39)"/><path class="cls-2" d="M364.44,434.11a17.82,17.82,0,0,0,.55-2.22q.25-1.09.44-2.2" transform="translate(-89.67 -156.39)"/><path class="cls-2" d="M315.66,418.29l-.07.05" transform="translate(-89.67 -156.39)"/><path class="cls-8" d="M364.94,424.44a20.57,20.57,0,0,0,2.14-4.1c.63-1.73,1.92-4.37,1.28-6.21a2.3,2.3,0,0,0-2.49,3,8.43,8.43,0,0,1-1.33,4.5c-.54.94-1.18,1.82-1.79,2.71a13.79,13.79,0,0,1-1.77,2.48,1.47,1.47,0,0,1-.84.4c-.34,0-.53.24-.28.57s.78.61,1.05,1a1.57,1.57,0,0,1-.32,1.88,8.32,8.32,0,0,0-.69.93c-.35.62-.77.89-1.69.54a4.06,4.06,0,0,1-.64-.33.52.52,0,0,1-.19-.17c-.18-.32.49-.83.63-1.08a1.94,1.94,0,0,0,.31-1.57,1.06,1.06,0,0,0-.75-.66,4.51,4.51,0,0,0-.69-.08,6.94,6.94,0,0,1-2.44-.9c-.59-.28-1.22-.39-1.8-.69-.89-.47-1.74-1-2.58-1.56-1.52-1-3-2.05-4.47-3.13l-.41-.31c-3.74-3.14-2.74,1.21-2.74,1.21a12.34,12.34,0,0,0,2.69,3.37c1.4,2.07,4.19,2.76,6.4,3.6.47.18,1,.43,1.15.92a.41.41,0,0,1,0,.29.36.36,0,0,1-.2.15,2.4,2.4,0,0,1-1,.09,26.38,26.38,0,0,1-6.19-1.53,5,5,0,0,0-1.59-.43c-1.72-.06-2.94,2.66-2.18,4.06.11.2.23.38.35.57a9,9,0,0,1,1.36,2.5,1.64,1.64,0,0,1-1.22,2.06c-.42.15-1.2.4-1.54,0s-.07-.84-.06-1.2a6.36,6.36,0,0,0-.64-2.57c-.26-.64-.47-1.28-.71-1.94a8.75,8.75,0,0,0-.77-1.44c-.26-.45-.46-.95-.68-1.42a13.09,13.09,0,0,0-1.63-2.81,10.7,10.7,0,0,0-1.45-1.46c-.5-.42-1.1-.68-1.59-1.11-.74-.66-2.3-3.29-3.22-1.45-.65,1.28-.43,3.1-.31,4.47a11.52,11.52,0,0,0-1.59.49c-1.13.57-1.28,1.35-.91,2.52s1.87,2.79.57,3.77c-.22.68-.66,1.87-1.37,2.16a21.8,21.8,0,0,1,1.28,11.71,22.1,22.1,0,0,1-1.84,6.06,1.89,1.89,0,0,0-.27,1.38,1.46,1.46,0,0,0,.91.78,3.86,3.86,0,0,0,4.65-1.71,8.26,8.26,0,0,0,.5-4.27c-.32-7.6,1.71-15.08,3.75-22.42-.18-.15-.35-.29-.54-.42l.63.12-.08.3a10.63,10.63,0,0,1,2.46,2.93,24,24,0,0,1,2.42,8.63,182.19,182.19,0,0,1,1.64,37.18c-.13,2,0,4.58,1.94,5.27,1.41.52,3-.44,3.89-1.62,2.66-3.47,1.79-8.33,1.35-12.67A51.24,51.24,0,0,1,355,437.68c-3.36,7.38,0,15.88.51,24a38.85,38.85,0,0,0,.69,7.18c.61,2.33,2.08,4.6,4.36,5.41,1.95.69,4.6-.23,4.95-2.25s-1.75-3.71-3-5.49c-1.57-2.31-1.64-5.29-1.53-8.08a127.2,127.2,0,0,1,2.43-19.59c-.23-1.41-.43-2.51.43-3.69a4.14,4.14,0,0,0,.54-1q.48-2.21,1-4.42a33.71,33.71,0,0,0,.4-3.45c0,.74-1,1.35-1.61,1.67-.26.15-1.52.8-1.67.27s.86-1.47,1.09-1.81C364.08,425.73,364.52,425.09,364.94,424.44Zm-34.66,1.82a7.4,7.4,0,0,1,4.19,1.44A18.23,18.23,0,0,1,330.28,426.26Z" transform="translate(-89.67 -156.39)"/><path class="cls-8" d="M362.26,418.6a6.06,6.06,0,0,0-1.69-1.28,1.68,1.68,0,0,1-.67-.51.54.54,0,0,1-.17-.49.91.91,0,0,1,.31-.44c4.37-4.17,4.27-10,3.51-15.52a3.49,3.49,0,0,0-.47-1.44v0a1.14,1.14,0,0,0-1-.4,3.19,3.19,0,0,1-2.78-.71c-.1-.11-.2-.24-.35-.24s-.74.61-1,.76a1.21,1.21,0,0,1-1.33.12,2.13,2.13,0,0,1-.53-.54h0a2.6,2.6,0,0,1-.51-1.09,4.17,4.17,0,0,1-2.17,1.68,3.56,3.56,0,0,1-2.62,0c.06,1-.7,3-2.12,2.24a1.72,1.72,0,0,1-.58-.56l0,0c-.11-.13-.2-.28-.3-.42l-.1-.14,0,0a1.32,1.32,0,0,0-.54-.42,1.48,1.48,0,0,0-.79,0c-1.95.34-3.22,2.27-5,3-.26.1-.6.15-.75-.08l0-.05-.07-.08c-.14-.21,0-.5.19-.69,1-1.11,2.67-1.43,3.88-2.33a1.42,1.42,0,0,0,.66-1q-1.08.43-2.1,1a25.14,25.14,0,0,0-3.79,2.4,23.62,23.62,0,0,0-2,1.75q-.48.46-.94,1a3,3,0,0,0-.73.86,2.26,2.26,0,0,0,.08,1.31,3.17,3.17,0,0,0,.38.75,8.33,8.33,0,0,0,1.17,1.28,5.29,5.29,0,0,0,1.4,1,7.23,7.23,0,0,0,.95.37,9.15,9.15,0,0,0,1,.27h0a9.91,9.91,0,0,0,1.38.1h.16c.41,0,.81-.05,1.21-.08h.1a13.29,13.29,0,0,0,1.89-.36l.12,0-.11,0,.65-.19a49.65,49.65,0,0,0,6.26-2.73l.87-.4.18-.13a1.27,1.27,0,0,1,.67-.24h0l.14-.06h0l0,0a.23.23,0,0,1,.08.11h0l0,0a.28.28,0,0,1,.1.16.52.52,0,0,1,0,.29,3.78,3.78,0,0,1-.59,1,22.84,22.84,0,0,1-4.64,4.6,10,10,0,0,1-3.47,1.81,4.79,4.79,0,0,1-3.8-.47,2.24,2.24,0,0,0,.33.65,3.13,3.13,0,0,0,2.09,1c.44,0,4.06-.74,4.08-.71l.08.13h0a7.32,7.32,0,0,0,.47.73,10.4,10.4,0,0,0,5.39,3.42,15.28,15.28,0,0,0,1.68.38.26.26,0,0,0-.09.1l.19,0a.26.26,0,0,0-.09.1l-.21.29a10.92,10.92,0,0,0-1.07,1.57,1.41,1.41,0,0,0,0,1.54v0c.55.65,1.56,1.13,2.07,1.85h0l.1.12.08.12h0a1,1,0,0,0,.18.18c1,.69,2.45-1.54,3-2.08.93-1-.3-2.37-.77-3.29l0,0,0,0h0a.65.65,0,0,0-.1-.13,8.59,8.59,0,0,0,2.84,0,.35.35,0,0,0,.2-.1.29.29,0,0,0,0-.34Zm-20-11.18a7,7,0,0,1-2.22-2h0l-.15-.32a1.08,1.08,0,0,1,.22-1.14s-.09-1.88,4.83,0C344.92,404,345.82,405.93,342.24,407.42Z" transform="translate(-89.67 -156.39)"/><path class="cls-2" d="M342,409.81c-.24,0-.49,0-.73,0l-.45-.05-.2,0A9.91,9.91,0,0,0,342,409.81Z" transform="translate(-89.67 -156.39)"/><path class="cls-2" d="M342.24,407.42a7,7,0,0,1-2.22-2h0l-.15-.32a1.08,1.08,0,0,1,.22-1.14s-.09-1.88,4.83,0C344.92,404,345.82,405.93,342.24,407.42Z" transform="translate(-89.67 -156.39)"/><path class="cls-2" d="M344.64,399c-1.22.91-2.85,1.22-3.88,2.33-.16.17-.31.43-.22.64l-.07-.08c-.14-.21,0-.5.19-.69,1-1.11,2.67-1.43,3.88-2.33a1.42,1.42,0,0,0,.66-1l.08,0A1.27,1.27,0,0,1,344.64,399Z" transform="translate(-89.67 -156.39)"/><path class="cls-2" d="M353.18,406l-.77.53-1.37.66c-1.2.57-2.39,1.15-3.63,1.62-.41.16-.83.31-1.26.44l-.66.19a10.44,10.44,0,0,1-2,.23,13.29,13.29,0,0,0,1.89-.36l.12,0-.11,0,.65-.19a49.65,49.65,0,0,0,6.26-2.73Z" transform="translate(-89.67 -156.39)"/><path class="cls-2" d="M348.43,414.21c-.27,0-3.64.75-4.06.71a3.06,3.06,0,0,1-2.19-1.16,3.13,3.13,0,0,0,2.09,1c.44,0,4.06-.74,4.08-.71Z" transform="translate(-89.67 -156.39)"/><path class="cls-2" d="M354.26,405.73a.27.27,0,0,0-.12-.05H354l.14-.06h0l0,0A.23.23,0,0,1,354.26,405.73Z" transform="translate(-89.67 -156.39)"/><path class="cls-2" d="M356.83,424.21c-.57-.69-1.59-1.17-2.07-1.85C355.31,423,356.33,423.49,356.83,424.21Z" transform="translate(-89.67 -156.39)"/><path class="cls-2" d="M356,418.73a.26.26,0,0,0-.09.1,14.71,14.71,0,0,1-1.49-.34,10.32,10.32,0,0,1-5.49-3.55,10.4,10.4,0,0,0,5.39,3.42A15.28,15.28,0,0,0,356,418.73Z" transform="translate(-89.67 -156.39)"/><path class="cls-2" d="M356.13,397.89a2.6,2.6,0,0,1-.51-1.09l.08-.12A2.31,2.31,0,0,0,356.13,397.89Z" transform="translate(-89.67 -156.39)"/><path class="cls-2" d="M360.27,422.7c-.51.54-2,2.77-3,2.08a1.24,1.24,0,0,1-.28-.31,1,1,0,0,0,.18.18c1,.69,2.45-1.54,3-2.08.93-1-.3-2.37-.77-3.29l0,0a.73.73,0,0,1,.13.18C360,420.33,361.2,421.72,360.27,422.7Z" transform="translate(-89.67 -156.39)"/><path class="cls-2" d="M362.39,419.07a.36.36,0,0,1-.2.1,8.57,8.57,0,0,1-2.84,0,.65.65,0,0,0-.1-.13,8.59,8.59,0,0,0,2.84,0,.35.35,0,0,0,.2-.1.29.29,0,0,0,0-.34C362.39,418.73,362.5,418.94,362.39,419.07Z" transform="translate(-89.67 -156.39)"/><path class="cls-2" d="M360.14,416a.91.91,0,0,0-.31.44.47.47,0,0,0,.07.36.54.54,0,0,1-.17-.49.91.91,0,0,1,.31-.44c4.37-4.17,4.27-10,3.51-15.52a3.49,3.49,0,0,0-.47-1.44,3.16,3.16,0,0,1,.57,1.57C364.41,406,364.52,411.85,360.14,416Z" transform="translate(-89.67 -156.39)"/><path class="cls-9" d="M369.79,401.7c-1.09-8.61-6.22-16.11-11.2-23.24-.34-.48-.78-1-1.37-1s-1,.6-1.22,1.11a25.11,25.11,0,0,0-2.28,6.38,8.42,8.42,0,0,0-4.69-.4,7.86,7.86,0,0,1-.43-.68c-.16-.23-.31-.45-.48-.67a16,16,0,0,0-1.06-1.26,15.62,15.62,0,0,0-2.49-2.14,14.26,14.26,0,0,0-1.37-.84l-.72-.36c-.16-.08-.31-.17-.47-.24a.31.31,0,0,0-.19,0c-.11,0-.13.13-.16.22-.1.38-.22.76-.3,1.15a7.51,7.51,0,0,0-.16,1.69,25.51,25.51,0,0,0,.4,3.3,15.68,15.68,0,0,1,.26,3.32,7.19,7.19,0,0,1-.16,1.17c-.3,1.3-1,2.47-1.37,3.76a7.64,7.64,0,0,0,.93,6.21L343.7,398a37.1,37.1,0,0,0-6.6,4.49,13,13,0,0,0-1.57,1.95,26.15,26.15,0,0,1,7.47-5.76q1.06-.55,2.18-1a.75.75,0,0,1,0,.16,1.42,1.42,0,0,1-.66,1c-1.22.91-2.85,1.22-3.88,2.33-.18.19-.33.48-.19.69l.07.08a.74.74,0,0,0,.68,0c1.83-.73,3.1-2.66,5-3a1.48,1.48,0,0,1,.79,0,1.44,1.44,0,0,1,.64.55l0,0,.1.14.3.42,0,0a1.53,1.53,0,0,0,.48.43c1.41.75,2.18-1.2,2.12-2.24a3.56,3.56,0,0,0,2.62,0,4.19,4.19,0,0,0,2.25-1.8q0,.12,0,.25a2.6,2.6,0,0,0,.51,1.09h0a2,2,0,0,0,.43.41,1.21,1.21,0,0,0,1.33-.12c.25-.15.71-.77,1-.76s.25.13.35.24a3.19,3.19,0,0,0,2.78.71,1.15,1.15,0,0,1,1.06.53v0a3.49,3.49,0,0,1,.47,1.44c.76,5.52.86,11.35-3.51,15.52a.91.91,0,0,0-.31.44.54.54,0,0,0,.17.49,2.27,2.27,0,0,0,.57.38,6.06,6.06,0,0,1,1.69,1.28.81.81,0,0,1,.1.13h0a.29.29,0,0,1,0,.34.35.35,0,0,1-.2.1,8.59,8.59,0,0,1-2.84,0,.65.65,0,0,1,.1.13l0,0,0,0c.47.92,1.7,2.3.77,3.29-.51.54-2,2.77-3,2.08a1,1,0,0,1-.18-.18h0c-.06-.08-.12-.16-.18-.24h0c-.51-.72-1.52-1.19-2.07-1.85v0a1.41,1.41,0,0,1-.14-1.67,10.91,10.91,0,0,1,1.07-1.57l.21-.29a.26.26,0,0,1,.09-.1,15.28,15.28,0,0,1-1.68-.38,10.4,10.4,0,0,1-5.39-3.42,6.38,6.38,0,0,1-.49-.72l-.08-.13s-3.64.75-4.08.71a3.13,3.13,0,0,1-2.09-1,2.21,2.21,0,0,1-.43-.78,4.79,4.79,0,0,0,3.8.47,10,10,0,0,0,3.47-1.81,22.84,22.84,0,0,0,4.64-4.6,3.78,3.78,0,0,0,.59-1,.52.52,0,0,0,0-.29.12.12,0,0,0,0,0,.23.23,0,0,0-.08-.11h0l-.14.06h0l-.85.37-.87.4c-.42.28-.84.54-1.28.79a18.56,18.56,0,0,1-3.63,1.62,15.55,15.55,0,0,1-1.9.48l-.12,0a13.29,13.29,0,0,1-1.89.36,10.27,10.27,0,0,1-1.3.09H342a9.91,9.91,0,0,1-1.38-.1h-.11a5.07,5.07,0,0,1-1.38-.15l-.35-.12-.25-.11-.35-.21h0l-.25-.18-.24-.2h0l-.25-.15c-1.37-.9-2.46-2.58-1.93-4.12,0-.05-9.66-2-12.43,3.83,0,0-3.79,2.77-2.09,13.77,0,0,1.39,8.22,4.08,12.68a14.56,14.56,0,0,1,1,1.87c.71-.29,1.15-1.48,1.37-2.16,1.3-1-.24-2.69-.57-3.77s-.22-1.94.91-2.52a11.52,11.52,0,0,1,1.59-.49c-.12-1.36-.33-3.18.31-4.47.93-1.84,2.49.79,3.22,1.45.48.43,1.09.69,1.59,1.11a10.7,10.7,0,0,1,1.45,1.46,13.09,13.09,0,0,1,1.63,2.81c.22.48.42,1,.68,1.42a8.75,8.75,0,0,1,.77,1.44c.23.65.44,1.3.71,1.94a6.36,6.36,0,0,1,.64,2.57c0,.36-.2.89.06,1.2s1.12.17,1.54,0a1.64,1.64,0,0,0,1.22-2.06,9,9,0,0,0-1.36-2.5c-.12-.19-.24-.38-.35-.57-.76-1.41.45-4.12,2.18-4.06a5,5,0,0,1,1.59.43,26.38,26.38,0,0,0,6.19,1.53,2.4,2.4,0,0,0,1-.09.36.36,0,0,0,.2-.15.41.41,0,0,0,0-.29c-.14-.49-.67-.74-1.15-.92-2.2-.84-5-1.53-6.4-3.6a12.34,12.34,0,0,1-2.69-3.37s-1-4.35,2.74-1.21l.41.31c1.46,1.08,2.95,2.14,4.47,3.13.84.55,1.69,1.09,2.58,1.56.58.31,1.22.42,1.8.69a6.94,6.94,0,0,0,2.44.9,4.51,4.51,0,0,1,.69.08,1.06,1.06,0,0,1,.75.66,1.94,1.94,0,0,1-.31,1.57c-.14.25-.8.76-.63,1.08a.52.52,0,0,0,.19.17,4.06,4.06,0,0,0,.64.33c.92.35,1.33.08,1.69-.54a8.32,8.32,0,0,1,.69-.93,1.57,1.57,0,0,0,.32-1.88c-.27-.4-.77-.62-1.05-1s-.06-.54.28-.57a1.47,1.47,0,0,0,.84-.4,13.79,13.79,0,0,0,1.77-2.48c.61-.9,1.24-1.78,1.79-2.71a8.43,8.43,0,0,0,1.33-4.5,2.3,2.3,0,0,1,2.49-3c.65,1.85-.65,4.49-1.28,6.21a20.57,20.57,0,0,1-2.14,4.1c-.42.65-.86,1.29-1.3,1.93-.24.34-1.22,1.37-1.09,1.81s1.41-.11,1.67-.27c.57-.32,1.56-.93,1.61-1.67a33.71,33.71,0,0,1-.4,3.45c.65-2.81,1.33-5.62,2-8.43C369,414.84,370.62,408.25,369.79,401.7ZM342.42,395a3.18,3.18,0,0,1,1.2-3.17c.9-1.06,1.07,2.18,1.07,2.18C344.65,397,342.42,395,342.42,395Zm8.81-.12c-.16,0-.32,0-.49,0a2.28,2.28,0,0,0-1.08.61c-.36.3-.63.69-1,1s-.54-.49-.61-.68a3.53,3.53,0,0,1-.16-.91,3.76,3.76,0,0,1,.28-1.65,3.31,3.31,0,0,1,.94-1.3,1.63,1.63,0,0,1,.55-.36.6.6,0,0,1,.21,0,1.18,1.18,0,0,1,.67.31,4.26,4.26,0,0,1,1,1.2C351.86,393.61,352.1,394.73,351.22,394.87Z" transform="translate(-89.67 -156.39)"/><path class="cls-10" d="M351.22,394.87c-.16,0-.32,0-.49,0a2.28,2.28,0,0,0-1.08.61c-.36.3-.63.69-1,1s-.54-.49-.61-.68a3.53,3.53,0,0,1-.16-.91,3.76,3.76,0,0,1,.28-1.65,3.31,3.31,0,0,1,.94-1.3,1.63,1.63,0,0,1,.55-.36.6.6,0,0,1,.21,0,1.18,1.18,0,0,1,.67.31,4.26,4.26,0,0,1,1,1.2C351.86,393.61,352.1,394.73,351.22,394.87Z" transform="translate(-89.67 -156.39)"/><path class="cls-10" d="M344.68,394c0,3-2.26,1-2.26,1a3.18,3.18,0,0,1,1.2-3.17C344.51,390.76,344.68,394,344.68,394Z" transform="translate(-89.67 -156.39)"/><path class="cls-11" d="M342.11,410.36a.3.3,0,0,0-.37.17,2.1,2.1,0,0,0,1.33,2.71,5.37,5.37,0,0,0,4-.3c3.06-1.3,5.18-3.95,7.15-6.5C354.18,406.44,344.69,411.18,342.11,410.36Z" transform="translate(-89.67 -156.39)"/><path class="cls-2" d="M352.7,418q-.51,2.35-1,4.72" transform="translate(-89.67 -156.39)"/><polyline class="cls-2" points="244.8 271.31 244.8 271.31 244.8 271.31"/><path class="cls-2" d="M315.71,418.15l0,.13" transform="translate(-89.67 -156.39)"/><path class="cls-10" d="M343.18,380.11c1.33.85,3.55,2.59,3.85,4.85a.76.76,0,0,1-.4.76c-.47.24-.95.45-1.41.71a5.9,5.9,0,0,0-1.61,1.27,3.53,3.53,0,0,0-.35.49c-.08.13-.12.28-.2.41a.46.46,0,0,1-.26.22h0a.06.06,0,0,1,0-.06.19.19,0,0,1,0-.07,2.38,2.38,0,0,0,0-1.61q-.16-.92-.3-1.85c-.11-.71-.21-1.43-.29-2.14s-.14-1.31-.17-2a1.91,1.91,0,0,1,0-.36C342.17,379.59,342.66,379.78,343.18,380.11Z" transform="translate(-89.67 -156.39)"/><path class="cls-10" d="M354.47,384.93a33.32,33.32,0,0,1,1.56-4.49c.31-.36.33-1,.78-1.21.83-.44,1.6.82,2,1.38.79,1.2,1.47,2.46,2.21,3.68s1.64,2.74,2.43,4.12a4.66,4.66,0,0,1,.62,1.14,2.78,2.78,0,0,0-.95-.16,9.83,9.83,0,0,1-3.84-1.31A15.9,15.9,0,0,1,354.47,384.93Z" transform="translate(-89.67 -156.39)"/><path class="cls-12" d="M353.41,405.88c-.25.07-2.88,2.23-3.13,2.14,0,0-.26,3.27-1,3.64,0,0,4.5-3.62,4.7-4.62S354.54,405.59,353.41,405.88Z" transform="translate(-89.67 -156.39)"/><path class="cls-13" d="M346,413.35s-.2-1,0-1.06c0,0,.48.95.61.79A.93.93,0,0,1,346,413.35Z" transform="translate(-89.67 -156.39)"/><ellipse class="cls-14" cx="351.03" cy="396.84" rx="1.23" ry="1.71" transform="matrix(0.08, -1, 1, 0.08, -162.05, 558.93)"/><ellipse class="cls-15" cx="351.02" cy="396.82" rx="0.93" ry="1.29" transform="translate(-162.04 558.91) rotate(-85.45)"/><ellipse class="cls-16" cx="351.04" cy="396.69" rx="0.74" ry="0.71" transform="translate(-161.89 558.8) rotate(-85.45)"/><ellipse class="cls-17" cx="350.85" cy="396.3" rx="0.22" ry="0.21" transform="translate(-175.17 539.48) rotate(-82.95)"/><path class="cls-14" d="M343.94,396.76c0,.59-.39,1-.81,1a1.1,1.1,0,0,1-.72-1.19c0-.59.39-1,.81-1A1.1,1.1,0,0,1,343.94,396.76Z" transform="translate(-89.67 -156.39)"/><path class="cls-15" d="M343.75,396.72c0,.45-.29.77-.61.72a.83.83,0,0,1-.55-.9c0-.45.29-.77.61-.72A.83.83,0,0,1,343.75,396.72Z" transform="translate(-89.67 -156.39)"/><path class="cls-16" d="M343.5,396.56c0,.35-.17.62-.35.59s-.31-.34-.29-.69.17-.62.35-.59S343.51,396.21,343.5,396.56Z" transform="translate(-89.67 -156.39)"/><path class="cls-17" d="M343,396.15c0-.11.05-.18.11-.17s.09.11.08.21-.05.18-.11.17S343,396.25,343,396.15Z" transform="translate(-89.67 -156.39)"/><polygon class="cls-18" points="204.6 156.5 218.88 360.55 320.49 297.54 320.49 200.06 204.6 156.5"/><path class="cls-19" d="M296.76,210.93c1.35,17.53-7.4,35.89-26.57,48.85C252,272,227.85,278.24,204.12,279.2c-28.71,1.15-58.25-5.5-77.54-20.95-33.23-26.61-21.59-87.9,34-94.92,34.5-4.36,73.06-10.22,103.51,4.36C284.45,177.42,295.44,193.78,296.76,210.93Z" transform="translate(-89.67 -156.39)"/><path d="M193.3,222.34,169,224.42l-.25-2.91,31.38-2.68.25,2.91-4.13.35.89,10.44a4.64,4.64,0,0,1-2.08,4.29,10,10,0,0,1-3.9,1,25.31,25.31,0,0,1-4.75-.09l-.61-3.57a24.36,24.36,0,0,0,5.4.34c1.74-.15,3.13-.76,3-2.39Zm-11.74-16.67-.19-2.27,2.9-.25.19,2.27,12.09-1,2.5,1.12a28,28,0,0,1-.73,6.77l-2.85-.75.65-3.71c0-.31-.14-.45-.38-.42l-24.38,2.08a.27.27,0,0,0-.25.33l.35,4.08-2.9.25-.57-6.69c0-.42.12-.62.49-.65Zm16.78,12.43c-.54.08-1.06.13-1.57.17a16.53,16.53,0,0,1-12.71-3.87l-.83,1.21c-1.92,2.14-5.83,3.81-11.65,5l-.66-3.3c5.34-.76,8.74-2,10.23-3.5l-8.06.69-.24-2.76,9.32-.79-.16-1.85,2.8-.24.12,1.86,9.15-.78.24,2.76-7.44.63c2.38,1.7,5.46,2.35,9.25,2,.75-.06,1.5-.17,2.28-.31Zm-7.15,14.59c0,.26-.07.42-.31.45l-17.83,1.52c-.24,0-.35-.12-.38-.39l-.65-7.6c0-.26.07-.39.31-.41l17.83-1.52c.24,0,.35.08.37.35ZM188,227.56l-13,1.11c-.1,0-.13,0-.09.12l.25,2.87.12.14,13-1.11.12-.16-.25-2.87Z" transform="translate(-89.67 -156.39)"/><path d="M206.69,223.26l-1,1.87L202.87,224a38,38,0,0,0,4.74-15.79l2.89.4a68.13,68.13,0,0,1-1.44,8.08l1.62,19.06-2.9.25Zm10,10.69.14,1.63-2.77.24-1.7-20a.4.4,0,0,1,.4-.53l6.15-.52.38-3.19-7.24.62-.26-3.06,18.17-1.55.32-2.27c0-.31-.11-.49-.42-.46l-24.28,2.07a.27.27,0,0,0-.25.33l.4,4.73-2.9.25-.64-7.49c0-.42.12-.62.49-.65L216,203l-.21-2.5,2.9-.25.21,2.5,11.82-1,2.65,1.18a34.46,34.46,0,0,1-1,7.39l-2.29-.64.09,1-8,.68-.31,3.19,9.08-.77a.53.53,0,0,1,.63.56l1.69,19.85-2.77.24-.14-1.63Zm-.93-10.85,13.76-1.17-.38-4.5c0-.26-.17-.4-.48-.38l-12.91,1.1c-.31,0-.43.19-.37.45Zm14,1.89L216,226.16l.4,4.73,13.76-1.17Z" transform="translate(-89.67 -156.39)"/><path class="cls-19" d="M497.24,669.26a47.24,47.24,0,0,1-4.2,6c-16.19,19.55-45.18,18.2-66.86,16.1-25.83-2.5-56.62-4.61-77.18-23-17.62-15.8-27.52-42.78-13.77-65.62,13.2-21.93,41.87-23.91,63.36-22.92,26.39,1.22,54.7,2.29,78.76,14.86C504.17,608.65,514.31,640.52,497.24,669.26Z" transform="translate(-89.67 -156.39)"/><path d="M390.61,642.15a66.35,66.35,0,0,0,6.18-5.67L388,635.42l.37-3L399,633.69a43.37,43.37,0,0,0,3.2-5.35l2.62,1.83q-1.12,2.14-2.31,3.94l18.27,2.21-.37,3-6.27-.76a21.75,21.75,0,0,1-7,9.5l11.21,5.07-2.14,2.52L403.92,650c-4.45,2.06-10.13,2.67-16.89,1.81l-.52-3.13c.92.15,1.83.29,2.68.4a29.16,29.16,0,0,0,7.93.09l3.36-.75L391,644Zm13.66-17.85.41-3.38,3.12.38-.41,3.38,12.18,1.47,2.56,1.72a33.31,33.31,0,0,1-2.74,6.92l-2.67-1.4,1.61-3.81c.07-.28,0-.51-.36-.55l-24.68-3a.26.26,0,0,0-.32.25l-.56,4.66-3-.36.89-7.36a.55.55,0,0,1,.67-.53Zm-3.86,12.62a36.32,36.32,0,0,1-5.32,5.34c-.11.06-.19.12-.2.19s.09.12.23.17l9.06,4.13A18.57,18.57,0,0,0,411,638.2Z" transform="translate(-89.67 -156.39)"/><path d="M434.67,652.14c-.84-1.36-1.92-2.86-3.13-4.45l-1.15,9.49-2.87-.35,1.12-9.24a30.74,30.74,0,0,1-4.51,4.93l-2.44-1.77a29.54,29.54,0,0,0,6.48-7l-5-.61.33-2.74,5.95.72.34-2.81-5.95-.72.33-2.74,8.71,1.05,2.07-5.23,2.49,1.06-1.8,4.5,3.36.41-.33,2.74-6-.73-.34,2.81,5.88.71-.33,2.74-5.63-.68c1.71,1.94,3.33,3.94,4.87,6Zm-3.46-25.7.29-2.42,2.87.35-.29,2.42,5.77.7-.33,2.74-14.16-1.71.33-2.74Zm-4,8.57a22.08,22.08,0,0,0-.55-4.68l2.69-.29a45.86,45.86,0,0,1,.59,4.9Zm19.48,13-1.95-.24L444.6,649c-.36,3-2.59,7.15-8.75,9.07l-1.5-2.74c4.39-.95,6.82-3.21,7.38-6.68l.15-1.24-2.19-.27c-.25,0-.37-.19-.34-.47l2.4-19.83a.36.36,0,0,1,.44-.34l13,1.57c.28,0,.41.19.38.44l-2.4,19.83a.38.38,0,0,1-.48.38l-3.12-.38-.86,7.11a.82.82,0,0,0,.77,1l1.42.17c.11,0,.25-.26.42-.78l.8-3.65,2.63,1.15a28.85,28.85,0,0,1-1,4.68,2.48,2.48,0,0,1-2.81,1.53l-4.14-.5a1.31,1.31,0,0,1-1.24-1.59Zm-2.91-15.1,8.36,1,.4-3.27-.13-.12-8.11-1-.12.09ZM443,639l8.36,1,.41-3.38-8.36-1Zm8,3.75-8.36-1-.34,2.81.09.16,8.11,1c.11,0,.15,0,.16-.13Z" transform="translate(-89.67 -156.39)"/></svg>