<?xml version="1.0" encoding="utf-8"?>
<!-- Generator: Adobe Illustrator 21.1.0, SVG Export Plug-In . SVG Version: 6.00 Build 0)  -->
<svg version="1.1" id="圖層_1" xmlns="http://www.w3.org/2000/svg" xmlns:xlink="http://www.w3.org/1999/xlink" x="0px" y="0px"
	 viewBox="0 0 569 796.5" style="enable-background:new 0 0 569 796.5;" xml:space="preserve">
<style type="text/css">
	.st0{fill:none;stroke:#000000;stroke-miterlimit:10;}
	.st1{fill:#FDD3BE;stroke:#000000;stroke-miterlimit:10;}
	.st2{stroke:#000000;stroke-width:2;stroke-miterlimit:10;}
	.st3{fill:#F93535;}
	.st4{fill:#FFFFFF;}
	.st5{stroke:#C1272D;stroke-width:0.75;stroke-miterlimit:10;}
	.st6{stroke:#000000;stroke-miterlimit:10;}
</style>
<title>index_give_help_volunteer</title>
<path class="st0" d="M33.2,467.6"/>
<path class="st0" d="M33,469.2c0,0,0,0.1,0,0.1"/>
<path class="st1" d="M280.1,685.1c-0.1,2.5-2.7,4.6-5.9,4.6l-74.1,0.3c-2.9,0-5.1-2.1-4.5-4.4c5.1-19.2,9.8-38.4,13.1-57.9
	c0.8-5.1,1.3-10.2,2-15.4c0.4-2.7,0.6-5.4-0.2-8c-1.4-4.6-6.3-6.5-10.5-9.4l-9.7-6.8c-8.6-6-17.1-12.1-25.7-18.1
	c-9.6-6.8-19.5-13.6-28.9-20.6c-6.5-4.9-13.7-9.3-19.7-14.6c-6.5-5.8-8.5-12.6-11.7-19.7c-3.7-8.2-7.5-16.4-11.3-24.6
	c-4.7-9.9-9-20.2-14.2-30.1s-12-18.8-19.9-27.7c-1.8-2-3.4-4.4-3-6.9c0.4-2.9,4.6-3.7,7.7-3.6c6.3,0,10.1,4.9,13.8,8.2
	c2.5,2.3,5,4.6,7.5,6.9c1.3,1.2,2.5,2.4,3.8,3.6c0.6,0.6,4.4,4.1,4.4,4.8c0.5-5.9-2.1-16.5-2.1-16.5c-2-6.6-6.8-15.5-5.2-22.4
	c0.8-3.4,4.5-7.9,10.2-4.7c0.6,0.3,1.1,0.7,1.6,1.1c19.7,15.9,23.1,42.1,23.1,63.3c0,0,0,0.1,0,0.1c1.6,0.8,3.3,1.8,5.1,2.9
	c2.7,1.7,9.2,7.8,20.3,16.2l0.3,0.2c5.4,4.1,11.2,8.2,16.6,11.6c4,2.7,8.3,4.9,12.9,6.8c16.8,6.1,33.4,13.3,48.2,21.9
	c14.1,8.2,24.9,19.7,34.7,31c4.1,4.6,7.7,9.6,10.7,14.9c5.6,10.3,4.7,23.1,5.7,34.3c1,11.1,2,22.3,2.8,33.4
	C279.1,654.7,280.5,669.9,280.1,685.1z"/>
<path class="st0" d="M91.5,443.7l0.4,0.5c6.7,7.1,12.1,14.1,11.9,18.2"/>
<path class="st0" d="M120.2,466c-19.7-10-21.9,2.4-21.9,2.4c-7.6,12.5,54.1,58.2,54.1,58.2"/>
<path class="st1" d="M162.7,497.1c-5.4-3.4-11.2-7.6-16.6-11.6l-0.3-0.2c0,0,0,0,0-0.1c-0.8-2.7-6.9-23.3-9.7-35.5
	c11.8-3.9,17.7,15.9,17.7,15.9C159,486,161.5,494.7,162.7,497.1z"/>
<path class="st0" d="M136.2,449.7c-0.2,0.1-0.4,0.2-0.7,0.2"/>
<path class="st0" d="M163,497.6c-0.1-0.1-0.2-0.3-0.3-0.5"/>
<path class="st1" d="M145.8,485.2c-11.3-8.4-20.5-16.4-20.5-16.4c-1.7-1-3.3-2-4.8-2.7l-0.3-0.1c-1.3-15.8-4.3-30.1-10.7-48.9
	l0.1-0.1c10-10.7,24.2,18.6,25.4,26.7c0.2,1.5,0.7,3.6,1.2,5.9C139,461.9,145,482.5,145.8,485.2z"/>
<path class="st0" d="M109.5,417.1L109.5,417.1"/>
<path class="st0" d="M145.9,485.5l-0.1-0.2"/>
<path class="st0" d="M120.2,466L120.2,466"/>
<path class="st1" d="M311.4,684.7c0.1,2.5,2.7,4.6,5.9,4.6l74.1,0.6c2.9,0,5.2-2.1,4.6-4.4c-5-19.2-9.7-38.5-12.8-57.9
	c-0.8-5.1-1.3-10.2-1.9-15.4c-0.4-2.7-0.6-5.4,0.2-8c1.4-4.6,6.3-6.5,10.5-9.4l9.7-6.8c8.6-6,17.2-12,25.7-18
	c9.7-6.8,19.6-13.5,29-20.5c6.5-4.9,13.8-9.2,19.8-14.6c6.5-5.8,8.5-12.6,11.8-19.7c3.8-8.2,7.6-16.4,11.4-24.6
	c4.7-9.9,9.1-20.2,14.4-30.1c5.3-9.8,12.1-18.8,20.1-27.6c1.8-2,3.4-4.4,3.1-6.9c-0.4-2.9-4.6-3.7-7.7-3.7c-6.3,0-10.2,4.9-13.8,8.1
	c-2.5,2.3-5,4.5-7.5,6.8c-1.3,1.2-2.5,2.4-3.8,3.6c-0.6,0.6-4.4,4.1-4.4,4.8c-0.4-5.9,2.2-16.5,2.2-16.5c2-6.6,6.9-15.4,5.3-22.4
	c-0.8-3.4-4.4-7.9-10.2-4.7c-0.6,0.3-1.1,0.7-1.6,1.1c-19.8,15.8-23.3,42-23.4,63.2c0,0,0,0.1,0,0.1c-1.6,0.8-3.3,1.8-5.1,2.9
	c-2.7,1.6-9.2,7.8-20.3,16.1l-0.3,0.2c-5.4,4-11.2,8.1-16.7,11.6c-4.1,2.7-8.4,5-13,6.8c-16.8,6-33.4,13.2-48.3,21.8
	c-14.2,8.1-25.1,19.6-34.9,30.9c-4.1,4.6-7.7,9.5-10.8,14.8c-5.7,10.3-4.8,23.1-5.9,34.2c-1.1,11.1-2.1,22.3-3,33.4
	C312.6,654.3,311.1,669.6,311.4,684.7z"/>
<path class="st0" d="M488.7,462.6c-0.2-4.1,5.3-11.1,12-18.1l0.4-0.5"/>
<path class="st0" d="M439.9,526.7c0,0,61.9-45.5,54.3-58c0,0-2.1-12.5-21.9-2.5"/>
<path class="st0" d="M501,442.8"/>
<path class="st1" d="M429.7,497.1c5.4-3.4,11.3-7.5,16.7-11.6l0.3-0.2c0,0,0,0,0-0.1c0.8-2.7,7-23.3,9.8-35.5
	c-11.8-3.9-17.8,15.9-17.8,15.9C433.5,486,431,494.7,429.7,497.1z"/>
<path class="st0" d="M457.2,450c-0.2-0.1-0.4-0.2-0.7-0.2"/>
<path class="st0" d="M429.7,497.1c-0.1,0.2-0.2,0.3-0.3,0.5"/>
<path class="st1" d="M446.6,485.3c11.3-8.4,20.6-16.3,20.6-16.3c1.7-1,3.3-1.9,4.8-2.7l0.3-0.1c1.4-15.8,4.5-30.1,10.9-48.8
	l-0.1-0.1c-10-10.7-24.3,18.5-25.5,26.7c-0.2,1.5-0.7,3.6-1.2,5.9C453.6,462,447.5,482.6,446.6,485.3z"/>
<path class="st0" d="M483.3,417.3L483.3,417.3"/>
<path class="st0" d="M446.6,485.3l-0.1,0.2"/>
<path class="st0" d="M501.2,444C501.2,444,501.2,444,501.2,444"/>
<path class="st0" d="M472.4,466.1L472.4,466.1"/>
<path d="M221.5,138.5c0,0,4.4-12.2-4.6-4.1c-0.3,0.3-0.6,0.5-1,0.6c-2.7,0.9-14.1,4.7-15.2,2.6c0,0-18.8-10.1-19.4-21.8
	c0-0.4-0.1-0.8-0.3-1.1c-2.1-3.8-4.5-7.4-7.3-10.8c-1.9-2.3-4-4.4-6.4-6.2c-1.1-0.9-2.4-1.6-3.6-2.3c-1.5-0.8-4-0.9-4.9-2.5
	c-5.7-10.3-7.9-24.9,5-31c1.9-0.9,6.4-2.7,6.4-5.5c0.1-2.8-6.9,0-8,0.4c0,0-12,4.1-15.9,14.8s1.1,20.4,2.4,22.8
	c1.2,2.4-11.9,4.1-7.8,21.3c0,0.1,0.1,0.3,0.1,0.4c0.1,1.4,0.6,9.2,1.6,12c0.1,0.3,0.2,0.6,0.2,0.9c0.2,5,1.4,10.4,4.4,14.6
	c3,4.2,8.1,5.1,12.9,6.7c0.2,0.1,0.3,0.1,0.5,0.1c0.5,0.1,4.7,0.3,3.1-0.5c-0.9-0.4-1.8-0.8-2.7-1.2c-4.4-1.7-8-2.2-10.6-6.4
	c-0.5-0.7-0.6-1.6-0.5-2.4c0.8-2.7,4.5-2,6.4-1.2c2.4,1.1,4.9,1.7,7.3,2.8c4.3,1.9,7,6,10.5,8.9c3.2,2.6,7.4,4.3,11.1,6.2
	c0.1,0.1,0.3,0.1,0.4,0.2c5.3,1.7,10.5,3.4,15.8,5.2c4.3,1.5,8.2,4.2,12.4,5.9c4.6,1.9,9.3,3.4,14,4.8c9.3,2.8,18.7,5.3,27.6,9.2
	c1.1,0.5,2.4,1.4,3.6,1.3c0.2,0,0.4-0.1,0.5-0.2c0.4-0.3,0.1-0.9-0.1-1.3c-1.3-2.1-3.3-3.7-5.7-4.5c-2.8-0.9-5.7-1.9-8.1-3.7
	c-2.3-1.7-4.4-2.4-7.1-3.3c-2.7-0.9-3.3-4.5-5.8-5.9c-1-0.4-2.1-0.8-3.1-1c-2.9-1-4.4-3.7-6.1-5.9c-0.1-0.1-0.2-0.3-0.3-0.4
	l-2.4-4.6l0.6-1.8c1-0.5,2.1-1.3,3.3-0.9c2,0.7,4.5,1.9,4.6-1.3c-0.1-1-0.5-2-1-2.9c-1.2-2.4-2.9-4.5-4.9-6.3L221.5,138.5z"/>
<path d="M221.5,139c0.7-1.9,1.5-4.3,1.1-6.3c-0.6-2.6-2.7-1.2-4.3,0.1c-2.8,2.2-6.1,3-9.6,3.9c-2.6,0.7-5.5,1.6-8,0.4
	c-1.7-0.9-3.4-2-5-3.1c-6.4-4.4-12.8-10.1-14.3-17.9c-1-5.4-5.9-11-9.7-15c-2-2.2-4.2-4.1-6.8-5.6c-1.8-1.1-4.4-1.3-5.9-2.9
	c-2.6-2.8-4-8.4-4.5-12.1c-0.7-4.9,0-9.9,3.3-13.8c2.9-3.5,7.3-4.2,10.6-7c1-0.9,2.1-2.3,1.7-3.7c-0.8-3.4-8.1,0.2-10.5,1.3
	c-8.6,4.1-14.3,11.6-14.8,20.9c-0.3,4.6,0.5,9.3,2.3,13.6c0.4,1,1.4,2.3,1.5,3.4v-1c-0.2,1.2-2,2-2.9,2.7c-2,1.5-3.6,3.5-4.6,5.8
	c-1.8,4.1-1.2,8.6-0.5,12.8c1.2,7.5,1.1,15.4,3.5,22.8c1.7,5,4.6,8.6,9.8,10.6c1,0.4,9,3.6,9.9,1.7c0.1-0.3,0.1-0.7,0-1
	c-4.9-3.6-11.5-2.6-14.1-9v0.9c0.1-6.6,12.2-0.5,14.9,1c2.7,1.5,4.6,3.7,6.7,5.7c2.5,2.5,5.5,4.7,8.8,6.3c6.8,3.4,14.1,5.3,21.3,7.9
	c6.4,2.3,12.1,6,18.6,8.2c7.2,2.4,14.5,4.4,21.7,6.7c3.4,1.1,6.8,2.2,10.1,3.6c1.6,0.6,6.9,4.1,7.8,2c0.5-1.2-1-2.7-1.7-3.4
	c-2-2.2-4.7-2.8-7.4-3.9c-3.1-1.2-5.5-3.3-8.5-4.6c-1.6-0.7-3.5-1-4.9-2c-1-0.8-1.6-1.9-2.3-2.9c-2.1-2.7-4.8-2.5-7.3-4.4
	c-3.3-2.4-5.1-6.5-6.9-9.9v1c0.4-1.2,0.5-1.7,1.7-2.3c1.8-1,2.8,0.3,4.5,0.3c1.7,0.1,2.2-0.7,2.3-2.4c0.2-4.1-4-9.2-7.8-10.4
	c0.1,0-0.1,1,0,1c3.9,1.3,7.2,5.9,7.8,9.8v-1c-0.6,4-4.3,0.4-6.8,1.7c-1.1,0.5-1.7,1.6-1.7,2.7c0,2.3,2.3,5.2,3.6,7
	c0.9,1.4,2,2.6,3.2,3.6c1.6,1.1,3.4,1.1,5.1,2.1c3,1.7,3.5,5,7.1,6.3c4.1,1.5,7.4,4.2,11.4,5.8c3.5,1.3,6.8,2.4,8.5,6v-1
	c-0.6,2.2-7-1.7-8.5-2.3c-3.3-1.3-6.7-2.4-10.2-3.5c-6.8-2.1-13.6-3.9-20.3-6.2s-12.7-6-19.3-8.5c-6.9-2.6-14-4.3-20.7-7.6
	c-3.1-1.5-6-3.4-8.5-5.7c-2.1-2-4-4.3-6.5-6c-2.7-1.8-6.4-3-9.5-4.1c-1.8-0.6-4.3-1.5-5.8,0.1c-0.7,1-1,2.2-0.7,3.3
	c1.4,6.2,9.9,5.9,14.1,9v-1c-1.1,2.3-11.5-2.3-12.6-3c-6.9-3.7-7.4-11.5-8.5-18.1c-0.7-4.2-1.2-8.4-1.8-12.7
	c-0.7-5.1-1.5-9.9,1.6-14.4c1.5-2.2,6.4-4.3,6.2-7.1c-0.2-0.7-0.5-1.5-0.9-2.1c-1.1-2.3-1.9-4.7-2.4-7.2c-1.7-7.5,0.5-15.3,5.9-20.9
	c2.9-2.9,6.3-5.1,10.2-6.6c1.8-0.7,8.1-3.6,8.6-0.7v-1c-0.4,2.5-2.8,3.7-5,4.8c-2.8,1.4-5.3,2.7-7.3,5.1c-2.5,3.1-3.6,6.9-3.6,10.8
	c-0.1,3.2,0.4,6.4,1.4,9.5c0.7,2.3,1.6,5.4,3.2,7.4c0.8,1.1,1.9,1.4,3.2,1.9c1.9,0.7,3.8,1.7,5.4,2.9c3.2,2.5,6,5.3,8.4,8.5
	c2.3,3,5.1,6.4,5.9,10.1c1.1,5,3.8,9.5,7.7,13c3.2,2.9,6.6,5.4,10.3,7.6c2.5,1.6,4.4,1.5,7.5,0.8c2.7-0.6,5.3-1.3,7.9-2.2
	c2-0.7,4.2-3.7,6.3-3.7c2.8,0,1,4.2,0.5,5.8C221.4,138.3,221.6,138.7,221.5,139z"/>
<path class="st2" d="M275.3,53.3c0,0,0.2-9.8,3.6-8s2.8,2.7,3.3,9.2l1.3,1.1c1.5,1.1,2.9,2.3,4.3,3.5c0.8,0.7,1.2,1.6,1.2,2.6
	c-0.1,0.5-0.4,0.9-0.5,1.4c-0.3,1.4,1.9,3,3.3,4.2c1.9,1.6,2.9,2.9,3.4,4.9c0.4,1.8,0.3,3.5,0.9,5.2c0.3,0.8,0.7,1.6,1,2.3
	c0.6,1.8,0.7,4.9-0.2,6.5l-1,1.6l-1.2,2c-0.2,0.3-2.2,0.5-2.6,0.6c-4.6,1.3-3.9,3.9-4.9,6.9c-0.3,1.1-1.2,2-2.3,2.4
	c-1.4,0.5-3,0.5-4.4-0.1c1.2-1.7,0.3-4.2,0.8-6.1l0.3-1.1c-0.8-0.1-1.6-0.2-2.4-0.3c-0.1,0.9,0.7,2.2,0.9,3.2
	c0.4,1.4-0.9,2.4-1.6,3.6l-1.9-0.8l-1-0.4l-1.2-2l-3.5-2.8l-1.9-1.6l-1.3,2.2c-1.6,0.4-3.8,1.4-5.5-0.2c-0.3-0.3-0.6-0.7-0.7-1.1
	c-0.5-1.2-0.6-2.5-0.1-3.8c-1.3-0.9-3.7-2.2-3.7-3.5c0-0.5,0.2-0.9,0.2-1.3c-0.1-0.8-0.9-1.5-1.5-2.3c-1.5-2-0.4-3.1-0.1-4.8
	c0-0.3,0-0.5,0-0.8c-0.5-2.6,1.3-4.7,2.7-6.7l0.6,0.1c-1.3-0.3,3.7-6.6,4.2-7c0.5-0.4,1.1-0.7,1.3-1.3c0.4-1.3-1.5-2.6-0.6-3.8
	c0.6-0.9,3.4-2.6,3.1-3.8c-0.6-2-2.2-4-2.8-6c-0.2-0.9-0.7-2.4,0.3-2.9c2.4-1.4,4.7,2.5,5.6,3.8c0.4,0.5,2.8,4.8,3.5,4.9L275.3,53.3
	z"/>
<path class="st3" d="M460.8,368.4l0.7,0.6L301.3,504.1L141,369l0.7-0.6c-22-17.3-35.8-41.9-35.8-69.3c0-52.3,50.3-94.8,112.4-94.8
	c32.5,0,61.7,11.6,82.2,30.2c0.3,0.2,0.5,0.4,0.7,0.6c0.2-0.2,0.5-0.4,0.7-0.6c20.5-18.6,49.7-30.2,82.2-30.2
	c62.1,0,112.4,42.4,112.4,94.8C496.6,326.4,482.9,351.1,460.8,368.4z"/>
<path class="st4" d="M238.3,296.5c-8.6,0.8-18.6,6-23.1,9.7c-3.4,2.6-5.8,6.2-6.8,10.2c-0.6,2.8-0.2,5.8,0.2,8.6
	c0.7,4.6,4.6,8.1,10.6,10.3c8.8,3.1,19.4,3.6,26.8-1.5c5.4-3.7,8.8-9.5,9.2-15.9c0.4-6.3,0.3-18.3-10.5-21.1
	C242.6,296.4,240.4,296.3,238.3,296.5z"/>
<path class="st4" d="M270.2,265.5c-4.3,0.9-8.4,2.5-12.1,4.8c-7.8,5-7.7,12.2-3.7,18.6c6.3,10.2,18.8,18.4,35,10.8
	c5.1-2.4,7-6.2,8-10.2c1.1-4.1,2.9-8.7,2.6-12.9c-0.2-3.3-1.9-6.3-4.6-8.3c-3.3-2.4-8.2-2.5-12.7-3.3
	C278.6,264.5,274.3,264.6,270.2,265.5z"/>
<path class="st4" d="M317.6,272.5c0.9-0.3,1.8-0.5,2.7-0.6c6.6-0.9,15.4,0.7,20.9,3.1c8.3,3.7,12.1,10.9,13.1,17.3
	c0.7,4.1-0.5,8.4-3.2,11.6c-2.7,3.1-9.8,6.8-15.5,5.4c-0.8-0.2-1.5-0.5-2.2-0.9c-14-7.1-20.9-20-19.5-31.7c0.1-0.9,0.3-1.7,0.8-2.4
	C315.5,273.5,316.5,272.8,317.6,272.5z"/>
<path class="st4" d="M358.4,327.7c0-0.3,0-0.6,0.1-0.9c0.3-4,1.5-10,5.9-12.9c8.1-5.4,20.3,2.9,25.6,6.8c0.7,0.5,1.4,1.1,2,1.8
	c0.8,0.9,1.3,2,1.7,3.1c2,5.2,3.2,10.9,1.6,16.2c-0.7,2.4-2,4.5-3.8,6.2c-1.3,1.3-5.1,4.5-7.7,4.5c-9.7,0-18.5-6.1-21.9-11.6
	C359.5,336.9,358.2,332.3,358.4,327.7z"/>
<path class="st4" d="M271,350L271,350c0.9-0.5,0.9-1.5,1.2-2.2c0.3-0.9,0.6-1.7,0.9-2.6c0.6-1.8,1.6-3.4,2.9-4.9
	c3-3.2,6.9-5.5,11.1-6.9c9.1-3.1,20-3.1,30-1.7c5.9,0.8,11.9,2.2,16.4,5c4.9,3.1,7.5,7.8,7.1,12.3c-0.1,1.7-0.6,3.5,0.4,5.1
	c1.1,1.8,3.8,2.9,6.2,4c7.9,3.5,15,8.3,17.9,14.3c2.9,6.1,0.8,13.5-6.7,17.3c-5.4,2.8-12.6,3.4-19.4,3.7
	c-27.9,1.1-55.9-0.7-83.4-5.4c-7.3-1.2-15.1-2.9-19.1-7.2c-4.9-5.3-2.5-14,3.4-18.6c3.5-2.7,7.2-4.9,11.3-6.6
	c4.4-1.9,8.9-3.3,13.6-4.3c1.7-0.4,3.4-0.6,5.1-0.9C270.2,350.3,270.6,350.2,271,350z"/>
<path class="st0" d="M238.2,287.4"/>
<path class="st5" d="M335.9,151.8c0.1,0.2-0.1,0.4-0.1,0.6c1.9,2.1,4.3,3.5,5.7,5.8c1.2,2.1,2.4,3.9,2.9,6.2
	c0.1,1.1,0.4,2.2,0.7,3.3c0,1.2,0.2,2.3-0.5,3.3c-1.4,1.9-2.4,3.9-4.8,5c-0.5,0.2-1.2,0.4-1.7,0.6c-3.2,0.9-6.6,1.2-10,1
	c-4-0.6-9.1-1.9-10.5-5.4c-0.7-1.5-1-3.3-1.7-4.8c-0.5-1-1.9-1.7-2.1-2.9c-0.2-2.3,0.2-4.6,1-6.8c1-2.5,2.9-4.6,4-6.9V150
	c-1-1.7-2.4-3.5-1.4-5.4c0.4-0.6,1.2-0.9,1.9-0.8c1.2,0.1,2.2,0.8,2.9,1.7c2.4,0.2,4.3,0.8,6.7,1.2c2.6,0.2,4.8-1,7.1-1.2
	c0.7,0,1.4,0.2,2.1,0.3"/>
<path class="st5" d="M330.8,146.8c1.3-0.4,2.6-0.7,4-0.9c1.1-0.2,2.4-0.4,3.5,0c1.6,0.7,0.7,2.6,0.1,3.6c-0.5,1-1.4,1.9-2.5,2.4
	c0.1-0.1,0.3-0.2,0.5-0.3l-0.5,0.3c0-0.1,0.1-0.1,0.1-0.2"/>
<path class="st6" d="M394.1,123.6c8,1.9,4.7,16.5,4.7,16.5c9.5,15,2.7,28.6,2.7,28.6c-14.9,6.8,4,4.5,4,4.5c4.7-6,6.1-17.3,6.1-17.3
	c4.7,6,10.8,5.3,10.8,5.3c2,8.3,12.8,6,5.4,6c-7.4,0-18.9,1.5-14.2,5.3c4.7,3.8,34.4,0,34.4,0c2.7-4.5,5.4-6,5.4-6h3.4
	c33.8-22.6,10.2-36.8,10.2-36.8c16.9,13.5-10.2,36.8-11.5,24.8c0-0.3-0.1-0.7-0.2-1c-2.3-12.1-20.8-31.3-20.8-31.3
	c-8.8-10.6-9.5-19.6-9.5-19.6c-4.7-40.6-8.1-21.1-8.1-21.1c-8.1-0.8-11.5,4.5-11.5,4.5c-2.7-0.4-5.4-0.7-8.1-0.8c0,0-4,3.8,3.4,12.8
	c0,0-5.4,13.5-6.1,10.6c-0.7-3-15.5,0-26.3-9c0,0-12.1-3,0,6.8c0,0,7.4,3,11.5,6.8C380,113.1,384.7,121.4,394.1,123.6z"/>
</svg>
