<svg id="圖層_1" data-name="圖層 1" xmlns="http://www.w3.org/2000/svg" viewBox="0 0 511.1 618.76"><defs><style>.cls-1{fill:#dbd2c9;}.cls-1,.cls-10,.cls-11,.cls-12,.cls-2,.cls-5,.cls-6,.cls-7,.cls-8,.cls-9{stroke:#000;stroke-miterlimit:10;}.cls-1,.cls-8,.cls-9{stroke-width:4px;}.cls-2,.cls-3,.cls-5{fill:#fab360;}.cls-4{fill:none;}.cls-5{stroke-width:0.75px;}.cls-6{fill:#fdf6eb;}.cls-7{fill:#343c45;}.cls-8{fill:#f2f2f2;}.cls-9{fill:#b9d3a9;}.cls-10{fill:#3f4247;}.cls-11{fill:#2f1713;}.cls-12{fill:#957067;}.cls-13{fill:#1f1724;}</style></defs><title>index_room</title><path class="cls-1" d="M514.55,480c-8.12,5-18.13,2.83-26.32-.84-1.11-.47-2.19-1-3.26-1.46l-3.12-1.49c-1.12-.25-2.23-.45-3.35-.61s-2.22-.29-3.34-.39c-.89-.08-1.78-.15-2.68-.21-3.57-.25-7.16-.4-10.72-.64-1.29-.08-2.57-.17-3.87-.27-5.66-.43-11.29-1.07-16.94-1.68a26.55,26.55,0,0,0-3.52-.15c-9.25,3.21-18,2.13-26.68-.71q-1.64-.53-3.3-1.15a92.7,92.7,0,0,0-18.52-2.84c-1.26-.07-2.51-.13-3.78-.16q-3.84.48-7.61.63T370,468a105.67,105.67,0,0,1-14.77-1.9c-2.44-.46-4.87-1-7.25-1.47-8.16-1.22-16.36-1.85-24.53-2.48-1.24,0-2.47,0-3.74.09q-1.82.41-3.65.74c-1.22.21-2.44.39-3.66.53q-1.42.27-2.85.45t-2.86.24c-10.61,1-20.81-1.84-31.2-4.61l-3.57-.92c-11-.72-21.82-.19-32.71-3.11-1.24-.33-2.49-.7-3.76-1.12-6.28.78-12.46,2-18.52,2.06-1.28,0-2.54,0-3.85-.15a64.66,64.66,0,0,1-16-4.35c-.83-.29-1.66-.54-2.49-.74s-1.67-.42-2.5-.58c-11.91-.59-23.74-2.5-35.61-3.23-1.55-.06-3.1-.16-4.64-.26l-11.62-1-2.28-.2c-7.51-.12-15.07-.4-22.64-1.13q-3.79-.36-7.58-.89c-5.89-.81-11.81-1.47-17.72-2.05l-3.57-.34L80,441l-3.26-.28q-1.78-.89-3.54-1.63c-1.18-.49-2.36-.94-3.55-1.38a33.11,33.11,0,0,0-3.72-1.38c-7.85-2.57-15.66,1.18-23.46-1.7-5.49-2-5.82-7.37-5-13.51.2-1.54.47-3.12.79-4.71,2.69-8.65,3-17.8,2.73-27q-.05-2-.14-3.95c-.24-12.08,1.91-24.29,1.33-36.49.07-1.66.17-3.34.27-5L43,333.75q.15-2.58.31-5.18a231.9,231.9,0,0,0,2.46-42.24c.08-1.78.18-3.54.28-5.3l2.36-40.85q.14-2.43.28-4.83a260.21,260.21,0,0,0,2.21-38.41c.13-1.39.27-2.78.42-4.21s.26-2.61.39-3.92.24-2.84.38-4.26.29-2.82.46-4.21c2.56-8.48.44-28.14,11.17-25.88,1.2.33,2.39.7,3.59,1.09,4.72.81,9.37,1.8,14,2.9,1.16.27,2.31.56,3.48.82,3.55.61,7.11,1,10.68,1.43l3.62.38c11.28.51,22.36,2.8,33.38,5.29.91.23,1.83.46,2.75.71l2.29.2,4.69.41,2.38.2a157.42,157.42,0,0,1,19.12.49q1.9.16,3.79.38c11,1,22.26-2,33.44.75a34.08,34.08,0,0,1,3.72,1.15,50.68,50.68,0,0,0,16.66,4.09c1.13.11,2.26.2,3.39.27,12.58.36,25,1.67,37.48,3l4.16.44c7.9,1.17,15.77,1.48,23.63,2l3.93.31c10,.69,20.07,1.18,30.2,2.47q1.69.21,3.38.46c11,1.17,22.21,1.26,33.29,2.91l3.26.28,7,.61,2.35.2c10.08,1,20.39,2,30.54,2.74l3.8.29c8.9.47,18.26,1.28,27.25,2.31l3.24.28,11.68,1,2.28.2c8.38.48,16.69.76,25.1,2.17l2.85.25c3.47.35,6.94.6,10.4.83l3.52.22c1.12,0,2.25.05,3.4,0s2.32-.05,3.49-.1c9.39.07,21.55-3.75,27.5,6.06,4.3,7-1.28,15.83,0,24.16q.08,1.9.11,3.8c0,1.57,0,3.15,0,4.77-.31,8.63-2,17.12-3.67,25.61q-.43,2.12-.85,4.25a38.65,38.65,0,0,0-1.09,11.76c0,1.33.13,2.66.24,4a91.54,91.54,0,0,1,1.8,17c0,1.4,0,2.81,0,4.22-.26,7.25-.9,14.44-1.78,21.59-.18,1.45-.36,2.9-.56,4.36-1.58,10.29-2.21,20.6-3.07,30.79-.12,1.48-.25,3-.39,4.45-.23,3.09-.31,6.19-.33,9.29q.41,6,.26,12.09-.05,2-.17,4c-.36,4.36-.89,8.65-1.48,12.92q-.3,2.14-.61,4.26c-.54,2.86-1,5.73-1.33,8.6q-.27,2.15-.49,4.34c-.28,4.43-.15,8.91,0,13.41,0,1.51,0,3-.11,4.61a76.14,76.14,0,0,0-1.93,15.54q0,1.93.08,3.86a20.26,20.26,0,0,0,.15,3.26c.13,1.07.32,2.14.54,3.21.58,4.69,2.16,8.81,1.43,13C514.8,478.9,514.55,480,514.55,480Z" transform="translate(-35.11 -142.8)"/><polygon class="cls-2" points="376.12 208.59 389.31 215.81 416.26 218.35 403.06 211.65 376.12 208.59"/><path class="cls-2" d="M423.94,365.74l-.12,1.74L450.7,370l.12-1.74h.07l.48-7.13-26.95-2.54-.12,1.74h.07l-.36,5.39Zm2.38-5.2,23,2.16-.36,5.39-23-2.16Z" transform="translate(-35.11 -142.8)"/><polygon class="cls-2" points="388.72 224.54 374.53 215.24 375.35 208.43 389.23 215.8 388.72 224.54"/><polygon class="cls-2" points="413.82 225.29 390.89 223.31 391.21 217.74 414.15 219.72 413.82 225.29"/><polygon class="cls-2" points="166.5 149.57 163.43 202.47 156.98 205.08 156.8 205.15 154.3 206.16 148.72 208.41 151.48 143.91 166.5 149.57"/><polygon class="cls-2" points="402.49 172.9 400.32 210.5 164.15 190.06 166.51 149.28 402.49 172.9"/><polygon class="cls-2" points="142.27 203.49 143.93 143.35 151.36 143.8 149.68 204.78 142.25 204.33 142.27 203.49"/><polygon class="cls-2" points="187.14 199.38 181.58 201.38 181.45 201.42 181.39 201.42 181.53 198.93 181.72 198.94 187.14 199.38"/><line class="cls-3" x1="149.08" y1="202.19" x2="149.53" y2="194.35"/><path class="cls-3" d="M199.1,335.63" transform="translate(-35.11 -142.8)"/><line class="cls-4" x1="154.71" y1="199.11" x2="154.96" y2="194.82"/><line class="cls-4" x1="154.52" y1="202.32" x2="154.61" y2="200.89"/><polygon class="cls-2" points="164.19 189.44 189.09 191.59 182 194.11 155.14 191.71 164.19 189.44"/><polygon class="cls-2" points="179.59 198.77 179.44 201.24 156.62 199.2 156.59 199.2 163.5 197.46 163.54 197.47 179.59 198.77"/><path class="cls-2" d="M216.89,338.68l.1-1.79-26.74-2.32-.1,1.79h-.07l-.42,7.32L216.46,346l.1-1.78h-.07l.32-5.54ZM214.56,344l-22.86-2,.32-5.54,22.86,2Z" transform="translate(-35.11 -142.8)"/><polygon class="cls-3" points="163.9 194.44 163.73 197.42 163.54 197.47 163.54 197.46 156.62 199.2 156.58 199.21 156.9 193.79 163.9 194.44"/><polygon class="cls-5" points="179.76 195.71 179.59 198.77 163.73 197.4 163.91 194.34 179.76 195.71"/><polygon class="cls-2" points="188.94 199.78 181.48 203.22 182 194.11 189.33 191.62 188.94 199.78"/><path class="cls-6" d="M230.12,336.86a22.37,22.37,0,0,1-4.06-.13l-2.05-.08a30.62,30.62,0,0,0-9.95,1.4c-.75.23-1.49.49-2.25.79-.54.23-1.09.5-1.66.79s-1.13.58-1.71.86c-2.28.51-4.53,1.08-6.76,1.69l-2.26.62c-4,1.15-8.05,2.23-12.07,3.23-.88.19-1.74.38-2.67.57-1.64.2-3.29.38-4.94.56s-3.3.37-4.93.6q-1.23.09-2.45.21c-.84.05-1.69.13-2.61.21-3.16.4-6.31.7-9.42,1.12-1.55.21-3.09.45-4.58.8a19,19,0,0,0-2.05.56c-.68.22-1.34.48-2,.75a65.55,65.55,0,0,1-7.07,2.86l-2.74.7c-4.82,1.52-10.09,2.65-15.25,2-1.48-.13-2.76.67-4.23.84l-1.92.65a54.22,54.22,0,0,1-6.34,2c-.54.12-1.08.22-1.63.29A43.93,43.93,0,0,0,88.88,366l-2.09,1-2.09,1a8.57,8.57,0,0,1-4.22,1,25.62,25.62,0,0,0,5.27,1.6q.9.17,1.82.27c5.68.15,11.4-.27,17.18-.23.79,0,1.59,0,2.39,0l1.59.08,1.6.13c2.59.23,5.2.58,7.81,1l2.61.39c3.62.51,7.11,1.16,10.82,1.48q1.11.1,2.25.15a65.35,65.35,0,0,1,7.21.42q1.19.13,2.39.29c1.64.17,3.29.41,4.93.69l2.48.45c4.11.61,8.21.92,12.31,1.23l2.46.19c4.26.33,8.48.73,12.69,1.38q1.26.2,2.52.42c5.59.83,11.37,3.6,17.06,2.84q.83,0,1.67-.12c1.11-.1,2.22-.25,3.33-.42.88-.14,1.76-.29,2.63-.45a22.77,22.77,0,0,1,6.82-.11c.8.17,1.59.33,2.47.56,5.59,1.44,11.25,2.7,17,2.31a28.48,28.48,0,0,0,4.35-.63,13.2,13.2,0,0,1,4.18.59c3.89,1.25,7.51,2.93,11.71,3.06a15.19,15.19,0,0,0,1.71-.18c.57-.07,1.13-.17,1.7-.26a11.5,11.5,0,0,1,4.56-.23c1.66.26,3.3.44,4.94.57.82.07,1.64.14,2.47.23s1.67.21,2.54.36a28.21,28.21,0,0,0,4.59.81c1.55.16,3.11.22,4.68.4.88.22,1.77.4,2.67.55,2.06.32,4.08.55,6.08.71l2,.15a77,77,0,0,1,9.16.43c.76.09,1.52.19,2.29.3a64.54,64.54,0,0,1,14.86,2.43c.71.2,1.42.42,2.16.66,2.37.89,4.45-.75,6.68-.79,2.89.06,5.9.92,8.93,1.42.61.1,1.21.18,1.82.24,6.54-.62,12.42.57,18.7,1.8.7,0,1.4,0,2.12,0,5.19-.69,10.68-1.35,16.1-.52l1.84.15c2.46.18,4.92.31,7.36.45.76.07,1.52.15,2.31.25a36.18,36.18,0,0,0,9.74,2l2.5.2c1.32.31,2.63.56,3.94.74q1,.14,2,.24c6.24.07,12.34,1.73,18.53,2.56.79.1,1.58.19,2.36.25a30.27,30.27,0,0,0,7-.16c.77-.12,1.55-.24,2.35-.34a3.31,3.31,0,0,1,2.5,0,16.45,16.45,0,0,0,4.67.63c3.24.28,6.5.12,9.74.09h1.95l1.66.32,1.64.29a110.44,110.44,0,0,0,14.71,1.56c.81.09,1.61.19,2.41.32a29.85,29.85,0,0,1,7,1.94c-1.6-1.25-3.27-2.44-5-3.58l-1.74-1.12c-4.74-2.44-8-6.59-10.92-11.17a10,10,0,0,0-1.28-1.62c-3.93-2.7-6.47-5.88-10-8.92a14.49,14.49,0,0,0-1.76-1.48c-1.46-1-3-1.93-4.53-2.84a16,16,0,0,1-2.19-1.47,15.93,15.93,0,0,0-6.06-7.34,23.12,23.12,0,0,0-2-1.22l-2.25-.89-2.27-.9a16.72,16.72,0,0,1-3.76-1.5,21.33,21.33,0,0,1-3.27-2.21c-3.53-2.7-6-7.69-10.91-7.89-.74,0-1.48,0-2.21,0s-1.47.12-2.2.19c-2.72.57-5.23-.09-7.76-.76a39.12,39.12,0,0,0-3.85-.89c-.64-.14-1.29-.25-1.93-.34s-1.29-.15-1.94-.2a51.58,51.58,0,0,0-12-1.19l-2.39,0h-5.08c-3.31-.32-6.63-.59-10-.79-1.67-.1-3.34-.19-5-.31-2.28-.21-4.61-.52-7-.79l-2.58-.26c-2.52-.16-5-.22-7.56-.26l-2.52,0c-4.11-.1-8.12-.55-12.13-1l-2.4-.25q-1.11-.3-2.22-.55l-2.29-.49c-5.54-1.27-11.1-2.55-16.61-1.84a23.2,23.2,0,0,0-2.36.43c-3.59-.08-7.21-.51-10.84-.88l-2.17-.21a98.64,98.64,0,0,0-14.22-2.13c-.79,0-1.59-.07-2.39-.11-2.19-.3-4.39-.57-6.59-.78-.74-.07-1.49-.15-2.27-.25a30.74,30.74,0,0,0-9.21-1.23c-.77,0-1.54,0-2.31,0-6.17,0-12-1.2-18.29-1.2Z" transform="translate(-35.11 -142.8)"/><path class="cls-6" d="M409.09,370.37a18,18,0,0,1-2.23.36,20.37,20.37,0,0,1-2.24.1,16.58,16.58,0,0,1-4.91-.47c-.55-.13-1.1-.27-1.65-.44-3.82-.9-7.71-.56-11.61-.14l-2.34.25a23.09,23.09,0,0,1-6.62.34,7,7,0,0,1-2.94-1.11,36.28,36.28,0,0,0-12.71-3.91c-.93-.1-1.86-.19-2.83-.23a59.64,59.64,0,0,1-7.63.11c-.91,0-1.81-.11-2.76-.18-1.55-.1-3.08-.27-4.6-.46s-3-.42-4.63-.53c-.79.06-1.58.08-2.37.08s-1.58,0-2.38-.07-1.81-.05-2.72-.1-1.8-.11-2.7-.18c-2.8-.26-5.56-.46-8.33-.73-1.38-.14-2.76-.29-4.15-.49l-2.35-.44-2.34-.43-2.14-.4-2.15-.36q-2.69-.42-5.34-.75l-2.66-.32-2.3-.28-2.47-.23c-2.27-.11-4.54-.23-6.82-.37l-2.32-.16-6.63-.57-2.23-.2q-4.06-.24-8.1-.55l-2.72-.24-2.56-.27-2.6-.28c-3.18-.28-6.3-.67-9.42-1l-2.35-.26-2.32-.13-2.35-.16-2.36-.12c-.79,0-1.58,0-2.37,0-6.45.43-14.78,3.12-18.87-3.38-2.74-4.11-.75-8.49.95-12.67.24-.84.49-1.67.71-2.48s.44-1.6.61-2.38c-.07-.82-.16-1.65-.24-2.49-.53-5.1-.88-10.57,2.38-14.37a10.28,10.28,0,0,1,1.63-1.52c8.12-3.39,16.68,2.81,24.76,3.47l1.82,0q2.73.08,5.45.25l2.42.16c6.71.73,13.25,1.47,19.87,2.11l5,.45,4.42.38,2.19.19a114.72,114.72,0,0,1,15.33.87c1.7.19,3.38.41,5.06.64,2.37.24,4.57.89,7.14.88l2.13.18c8-.53,15.81.57,23.77,1.85l2.66.43,19.48,1.69,2,.17,14.28,1.23,1.84.16a11.12,11.12,0,0,0,4.74,0l2.65-.3c4-.46,8.94-.87,12.82.34a11,11,0,0,1,2.18.93c3.75,1.79,4.73,6.2,3.55,9.51q-.44,1.1-.81,2.19t-.69,2.18a10.7,10.7,0,0,0,.13,6.89c.21.77.46,1.53.7,2.31,1.61,4.15,1.93,9-.5,12.51a8.72,8.72,0,0,1-1.22,1.39Z" transform="translate(-35.11 -142.8)"/><path class="cls-6" d="M468.63,451.66c-6.54,2.73-13.08,2.82-19.6,1.82-1.3-.2-2.61-.45-3.91-.72-12-2.44-24-.38-35.44-4.45-.87-.11-1.74-.26-2.61-.43s-1.73-.37-2.59-.59q-1-.26-2.06-.55a26.24,26.24,0,0,0-5.5-.39c-.93,0-1.87,0-2.82,0-2,.46-3.4-.55-5.16-.83-1-.26-2-.47-3-.64a43.75,43.75,0,0,0-4.44-.49c-8.1-.53-15.84,1.9-23.76-.89-.83-.07-1.67-.12-2.52-.15l-3.81-.08c-1.26,0-2.51-.08-3.74-.19-.54-.07-1.07-.16-1.61-.27s-1.07-.22-1.61-.35a30.66,30.66,0,0,0-9.73-1.68c-1.1,0-2.2,0-3.31,0a64.42,64.42,0,0,1-13.32-.46l-1.8-.38c-.6-.12-1.2-.23-1.8-.33a19.12,19.12,0,0,0-4-.41c-3.43.26-6.36.9-9.68.3-.78-.14-1.54-.34-2.31-.54l-2.32-.64a58.85,58.85,0,0,0-10.1-1.13c-.85-.06-1.7-.12-2.54-.2s-1.69-.19-2.53-.33a141.21,141.21,0,0,1-18.3-.77q-1.79-.22-3.57-.51c-3.55-.82-6.84-.22-10.44-.09a17.66,17.66,0,0,1-4.17-.42c-1-.2-2-.45-3-.72l-1.5-.42a44.32,44.32,0,0,0-5-1,46.65,46.65,0,0,0-5.22-.5q-1.67.13-3.33.15t-3.33-.05c-3.16-.82-6.1-.19-9.2-1.24q-1.4-.29-2.8-.49a49.44,49.44,0,0,0-8.61-.48,20.22,20.22,0,0,1-2.21,0,31.93,31.93,0,0,1-6.39-.45q-1.05-.18-2.1-.4l-2.56-.46c-.87-.15-1.75-.29-2.64-.4-6.69.52-13.35,3-19.75-.87-1.43-.51-2.89-.92-4.36-1.29q-1.11-.28-2.23-.52c-.75-.16-1.5-.32-2.26-.46s-1.73-.17-2.61-.23a54.26,54.26,0,0,1-10.55,0c-.87-.08-1.74-.18-2.62-.28l-2.67-.33A216.83,216.83,0,0,1,106,421.7c-.88-.12-1.75-.26-2.62-.42s-1.73-.33-2.59-.51l-2.4-.46-2.42-.43a34.37,34.37,0,0,0-7,.28,22.06,22.06,0,0,1-6.93-.08A5.93,5.93,0,0,1,77.5,416c-1.26-4,.46-7.93.78-11.93,0-.54.08-1.06.12-1.58l.11-1.58.55-9.44q0-.83.09-1.65c-.2-.71-.39-1.43-.58-2.16s-.36-1.47-.52-2.21c-1.2-5.47-2.49-13.1,3.87-16a8.18,8.18,0,0,1,2.2-.61c2.47,0,5,.07,7.44.25.83.06,1.67.13,2.51.22a59.44,59.44,0,0,1,7.39.72l2.43.4c4,.78,8,.31,11.91.26.79,0,1.59,0,2.38,0a47.76,47.76,0,0,1,7.44,1.15l2.47.57c3.66.7,7.29,1,11,1.46l2.32.27c2.21.29,4.35.64,6.5,1,.73.11,1.46.21,2.24.29,2.79-.19,5.54-.27,8.27-.24q1.36,0,2.72.08A96.51,96.51,0,0,1,174,376.47l2.55.38c7.41,1.18,14.74,1.87,22.18,2.62l2.48.25c4.87.31,9.84.59,14.74,1.1l2.44.27c3.77.43,7.58.63,11.39.89l2.3.17c6.69.68,13.07,1.68,19.63,1.94l2.11.18,21.64,1.87,4.39.35,6.5.45,2.17.16c3.29.12,6.52.33,9.73.62l2.42.21a49,49,0,0,1,11.91-.18q1.18.13,2.36.31c5.2,1.09,10.36,2.28,15.53,2.93q1.11.14,2.22.25c6.67.32,13.32.87,19.92,1.55l2.2.23c6.33.42,12.4.93,18.54,1.56l2.66.26c6.51.2,12.66,1,19.09,1.66l3.07.27c7.76.3,15.39,1.19,23.1,2l2.12.18,4.7.41,2.29.2c6.12.16,12.26,1.15,18.42,1.6l1.8.16,25.33,2.19-.08,1.35c0,.44-.05,1-.07,1.58a43.14,43.14,0,0,1,.22,4.48c0,1.47-.07,2.94-.19,4.42-.09,1.23-.23,2.43-.38,3.62-.15.72-.27,1.45-.37,2.18s-.2,1.48-.28,2.25-.08,1.62-.12,2.44-.06,1.63-.09,2.45c.11.57.19,1.15.25,1.73s0,1.44,0,2.15a33.73,33.73,0,0,1,1.1,6.15,16.68,16.68,0,0,1,0,3.07c-1.15,3.69-2.84,8-6.52,9.58Z" transform="translate(-35.11 -142.8)"/><path class="cls-7" d="M347.54,367.79a24.15,24.15,0,0,1-9.64-8.47c-.49-.68-1-1.38-1.42-2-1-1.07-1.66-2.72-2.85-3.5-5.28-3-10.56-5.92-14.75-10.46a5.32,5.32,0,0,1-.86-1.74,5.83,5.83,0,0,1-.17-2.14c.61-6.32,7.93-8.65,12.44-12.34l1.3-.94c.58-.41,1.17-.83,1.78-1.28,3.79-2.21,5.27-6.41,8.88-8.83,8.49-5.41,14.1,4.64,18.46,10.7a9.56,9.56,0,0,0,1.8,1.81c4.07,3.71,11.44,4.8,13.11,10.18,1.4,4.73-3.06,7.16-7.15,9.45-.68.38-1.35.76-2,1.15-1.36,1-2.63,2.15-3.86,3.3l-1.23,1.17a31.37,31.37,0,0,0-4.21,5.83c-.42.68-.85,1.36-1.3,2-2,2.51-3.94,5.31-7.4,5.92Z" transform="translate(-35.11 -142.8)"/><path class="cls-7" d="M308,364.37a24.15,24.15,0,0,1-9.64-8.47c-.49-.68-1-1.38-1.42-2-1-1.07-1.66-2.72-2.85-3.5-5.28-3-10.56-5.92-14.75-10.46a5.32,5.32,0,0,1-.86-1.74,5.83,5.83,0,0,1-.17-2.14c.61-6.32,7.93-8.65,12.44-12.34l1.3-.94c.58-.41,1.17-.83,1.78-1.28,3.79-2.21,5.27-6.41,8.88-8.83,8.49-5.41,14.1,4.64,18.46,10.7a9.56,9.56,0,0,0,1.8,1.81c4.07,3.71,11.44,4.8,13.11,10.18,1.4,4.73-3.06,7.16-7.15,9.45-.68.38-1.35.76-2,1.15-1.36,1-2.63,2.15-3.86,3.3l-1.23,1.17a31.37,31.37,0,0,0-4.21,5.83c-.42.68-.85,1.36-1.3,2-2,2.51-3.94,5.31-7.4,5.92Z" transform="translate(-35.11 -142.8)"/><path class="cls-8" d="M250.38,149.6c22.17,1.82,43.51,4.52,66.12,11l36.39,10.46c12.82,3.69,18.73,10.57,30,18.45,4.84,3.39,10.2,5.59,14.79,9.49,8.13,6.9,11.21,21.45,9.91,33.36-2.17,19.86-23.34,40.4-38.57,40.27-19.21-.17-37.12,2.27-56.36,3.57a473.69,473.69,0,0,1-57.59.4l-3-.17c-52.92-3.09-108.31-9.81-155.81-41.3-7.33-4.86-15-11.12-17.4-21.18-1.89-8.09.23-17,4-24,9-16.39,27.64-35.72,43.12-39.89,33.12-8.92,68.65-4.34,102.12-2.09C235.66,148.5,243.06,149,250.38,149.6Z" transform="translate(-35.11 -142.8)"/><path d="M136,198.74a54.5,54.5,0,0,1-13.77,11.65l-1.84-3.4c5.72-2.89,11.65-6.93,18.32-17.88l-16.14-1.56.25-3.85,31,3-.25,3.85-11.31-1.1-2.86,4.69-1.91,29.67-3.1-.3Zm14.75,15.46a92.76,92.76,0,0,0-11.06-15l2.07-2.89a93.63,93.63,0,0,1,11.6,15.42Z" transform="translate(-35.11 -142.8)"/><path d="M165.06,192l-2.78-.27a23.66,23.66,0,0,1-3.67,4.18A11.09,11.09,0,0,0,157,193a19,19,0,0,0,5-7.22l2.53,2-.48.87,8.85.86-.21,3.2-4.69-.45.63,2.85-2.68.92Zm6.57,5.87.2-3.16,2.33.23-.83-.87a17.74,17.74,0,0,0,3.38-6.82l2.78,1.45-.55,1.43,10.4,1-.21,3.2-6-.58.79,3.17-2.65,1-1.17-4.47-2.61-.25a15.77,15.77,0,0,1-2.24,3.4l-.55-.84-.15,2.38,12.51,1.21,2.37,1.75a40.18,40.18,0,0,1-1.92,7.31l-2.5-1.33a28.39,28.39,0,0,0,1.07-3.95c0-.35-.07-.53-.32-.55l-25.59-2.48c-.18,0-.29.1-.3.32l-.32,5-2.71-.26.52-8.05c0-.39.22-.59.57-.55Zm12.28,28.6c-.05.82-.43,1.22-1.1,1.16l-21.92-2.12q-1-.09-.88-1.26l1.36-21.13c0-.61.34-.93.87-.87l20.9,2c.56.05.82.43.78,1l-.52,8.14c0,.65-.35,1-.91.91l-18.86-1.83-.17,2.6,20.09,1.95c.63.06.93.48.88,1.22Zm-19.45-20.67c-.25,0-.4.14-.42.44l-.19,2.95,16.43,1.59q.42,0,.46-.48l.16-2.43c0-.3-.11-.49-.39-.52Zm16.75,14.78c0-.26-.08-.4-.33-.42l-17.62-1.71-.21,3.21c0,.3.08.44.29.46l17.31,1.68c.25,0,.36-.1.38-.4Z" transform="translate(-35.11 -142.8)"/><path d="M212.89,230.42c-8.16-1.1-12.56-2.66-15.37-8.16a39.45,39.45,0,0,1-5,6.93l-2.29-2.49.31-.36a28.44,28.44,0,0,0,7-13l2.83,1.28-1.33,4.18a12.59,12.59,0,0,0,6.08,6.34l.81-12.56-13.85-1.34.23-3.51,30.88,3-.23,3.51-14-1.36-.31,4.81,11.95,1.16-.23,3.51-11.95-1.16-.31,4.85,3.9.55,11,1.06-1,3.61Zm7.34-23.13c0,.35-.17.51-.42.48l-23.55-2.28c-.25,0-.38-.21-.35-.56l.9-14c0-.3.17-.46.42-.44l23.55,2.28c.25,0,.38.21.36.51Zm-20.9-10.83,18.61,1.8.15-2.3-.13-.14-18.36-1.78c-.11,0-.14,0-.11.12Zm18.4,5.14-18.61-1.8-.16,2.43.1.18,18.36,1.78.15-.16Z" transform="translate(-35.11 -142.8)"/><path d="M240.13,212.14c-1-1.84-2.13-3.82-3.49-5.92L236,216.84l-2.86-.28.65-10a37.79,37.79,0,0,1-4.73,6.82l-2.49-2a39,39,0,0,0,6.87-9.79l-4.83-.47.23-3.51,5.5.53.31-4.89,2.86.28-.31,4.89,4.9.47-.23,3.51-4.86-.47c1.89,2.58,3.67,5.24,5.4,8.11Zm-7.29,8a34.82,34.82,0,0,1-5.12,11.79,8.28,8.28,0,0,0-2.08-2.34A28.19,28.19,0,0,0,230,218.88Zm2.49-.67,3,.29-.44,6.89c-.12,1.25-.16,2.42,1.75,2.61l6.24.6a2.21,2.21,0,0,0,2.07-.76,18.25,18.25,0,0,0,.5-3.92l3,.77c-.3,3.54-.69,5.73-1.16,6.42-1.11,1.24-1.48,1.47-3.7,1.25l-8.49-.82c-1.87-.18-3.59-1.61-3.24-5.85Zm7.76,7.77a66.82,66.82,0,0,0-2.29-6.8l2.78-1.3c1.23,3.43,2,5.82,2.35,7.07ZM256.89,218q0,.52-.46.48l-13.5-1.31c-.21,0-.34-.21-.32-.55l1.32-20.48c0-.26.17-.42.38-.4l13.5,1.31a.41.41,0,0,1,.39.47Zm-10.62-15.72,8.85.86.18-2.86-.13-.14-8.6-.83-.11.12Zm-.38,5.93,8.85.86.18-2.77-8.85-.86Zm8.64,4-8.85-.86-.16,2.51.09.18,8.6.83c.11,0,.14,0,.15-.16Zm.81,21.56a74.76,74.76,0,0,0-4-11.8l2.76-1.56a65.63,65.63,0,0,1,4.09,12Z" transform="translate(-35.11 -142.8)"/><path d="M291.37,236.11a54.4,54.4,0,0,1-12-12.32l-.89,13.81-3-.29.89-13.86c-4.75,4.94-9.41,8.37-14,10.24l-1.72-3.52a43.51,43.51,0,0,0,16-12l.78-12.13-13.57-1.32.24-3.68,13.57,1.32.33-5.15,3,.29-.33,5.15,13.5,1.31-.24,3.68-13.5-1.31-.78,12.13a43.22,43.22,0,0,0,14.09,14.79Zm-18.74-15.72c-1-1.66-2.08-3.51-3.41-5.47a29.51,29.51,0,0,1-5.23,7.47l-2.44-2.33A34.59,34.59,0,0,0,269.3,207l2.74,1.44L270.57,212c1.47,1.89,2.91,3.81,4.3,5.86Zm19.45,4.24c-1.61-2.55-3.55-5.4-5.91-8.5a22.89,22.89,0,0,1-2.51,3.81l-2.56-2.12a24.72,24.72,0,0,0,4.81-9.16l2.83,1.23-1.25,3.41c2.37,2.8,4.6,5.72,6.77,8.85Z" transform="translate(-35.11 -142.8)"/><path d="M304,216.93c-.38,3.71-1,7.18-1.59,10.35-1.35,5.49-2.58,9.29-3.63,11.28l-2.94-1.11a62.18,62.18,0,0,0,5.42-23l.4-6.24-3.38-.33.24-3.68,6.27.61L305,200l3,.29-.31,4.81,6.2.6-.24,3.68-9.09-.88-.3,4.72,6.17.6c.76.34,1.07.45,1,2.23l-.95,12.5c-.49,6-1.58,9.65-3.25,10.88a2.61,2.61,0,0,1-2,.41,12.11,12.11,0,0,1-3.93-1.25l.17-4.3a10.77,10.77,0,0,0,3.52,1.56c.88.09,1.33-.79,1.82-2.35l.48-2.48c.43-4.49.75-7.86.9-10.11a11.9,11.9,0,0,0,0-3.27.39.39,0,0,0-.33-.34Zm14.88,13.47a40.27,40.27,0,0,1-3.07-14.55l-1.11,2.42-2.89-1.33a41.51,41.51,0,0,0,4.6-15.85l3,.42-.69,4.64,12.09,1.17-.24,3.68-2.54-.25a45.39,45.39,0,0,1-5.53,19.77,52.77,52.77,0,0,0,6.3,9.54l-2.93,2.07a52.86,52.86,0,0,1-5.52-8.55,62.42,62.42,0,0,1-8,7.29L310,238a57.36,57.36,0,0,0,7.83-6.52Zm-.13-20.54c-.35,7.11.41,12.9,2.15,17.29a33.87,33.87,0,0,0,3.09-8.37,55.28,55.28,0,0,0,1-8.31Z" transform="translate(-35.11 -142.8)"/><path d="M341.22,233.7l-.61,9.44-2.71-.26.62-9.7a27.16,27.16,0,0,1-5.22,5.59l-1.89-2.54A24.16,24.16,0,0,0,338,228.9l-5.5-.53.19-3L339,226l.23-3.64,2.71.26-.23,3.64,5.25.51-.19,3-5.25-.51v.22c1.71,2.08,3.34,4.33,4.89,6.66l-2.17,2.32Zm5.11-12.23-12.92.19-.48-3h2.3l1-2.47-3.35-.32.18-2.82,2.82.27.6-9.35c0-.48.22-.72.58-.69l13.32,1.29-.17,2.68-10.86-1.05c-.28,0-.29.1-.37,1.27l10.61,1-.12,1.82-10.61-1-.08,1.26,10.61,1-.12,1.82-10.61-1-.08,1.21,12.37,1.2-.18,2.82-3.21-.31c.54,1.49,1.14,3.2,1.65,5.17L347,223.63Zm-1-2.84L344.7,217l-5.6-.54-.88,2.18ZM359.6,243l-13.61.9-.67-3.33,3.48-.1a76.88,76.88,0,0,0,4.52-9.63l2.42,1.58a62.13,62.13,0,0,1-3.52,7.85l6.19-.36L357,236.58l2.5-1.37a85.42,85.42,0,0,1,3.58,9.37l-2.52,1.15Zm-6.82-15.83a27.28,27.28,0,0,1-4.31,7.95,10.7,10.7,0,0,0-1.83-2.44,18.52,18.52,0,0,0,3.5-6.94Zm-.55-18.4a17.66,17.66,0,0,0,9.09-3.52l1.28,2.7c-3.52,2.4-6.77,3.75-9.62,4Zm.18,5.46A20.35,20.35,0,0,0,363,209.8l1.31,2.74c-4.08,2.83-7.81,4.47-11.17,4.84Zm2.93,5.16c2.72-.35,5.76-1.88,9-4.48l1.35,2.66a22.5,22.5,0,0,1-13.08,5.36l-.53-3.36Zm-1.78,4.53,6.84.66c.36-.05.59.19.67.67a18.17,18.17,0,0,0,3.57,9.5l-2.73,1.61a20.15,20.15,0,0,1-3.06-8.14c0-.39-.07-.62-.24-.63l-5.25-.51Z" transform="translate(-35.11 -142.8)"/><path class="cls-9" d="M543.91,720.78a47.19,47.19,0,0,1-5.88,1.77,56.35,56.35,0,0,1-6.06,1c-7.15.68-14.34.89-21.55.92-2.41,0-4.82,0-7.25,0-8.25,1-16.52,1.9-24.82,2.66q-4.15.38-8.31.7c-10.66,1.08-21.27,1.76-31.88,2.26l-7.92.35c-25.42,5.16-51.84,4.08-77.53,5.91q-3.76.35-7.51.64c-12.52,1-25.07,1.55-37.78,2.47-2.53.4-5.09.81-7.65,1.21a351.21,351.21,0,0,1-61.94,4l-9.25.8L212,746.92l-8.08.71q-11.71,2.3-23.47,3.83-3.93.51-7.86.92c-2.56.22-5.11.4-7.66.54s-5.08.27-7.61.38q-4.15-.36-8.26-.31c-19.17.54-37.34,8-56.82,6.31-12.49-1.44-16.54-17.9-14.95-30.76.12-2.85.28-5.7.48-8.55.79-11.43,2-23,2.5-34.57.11-2.9.18-5.81.17-8.73-.86-15.44-1.73-30.49-2.6-45.38q-.21-3.65-.42-7.29c-2-21.23-2.44-42.2-3.67-63.3-.23-2.37-.57-4.84-1-7.37-2.74-17.7-8.17-38.28.09-47.81a26.13,26.13,0,0,1,12.69-7.16,49.31,49.31,0,0,1,7.76-1.33,210.73,210.73,0,0,1,25-2q4.18-.11,8.36-.14c24.77-2.08,50.16-2.37,75.32-3.59,2.81-.14,5.62-.3,8.49-.49,31-4.92,62.74-6,93.92-7.84l4.91-.42,6-.52,6-.52c20.63-1.79,41.31-6.1,62.41-7.23q3.72-.24,7.45-.4c12.41-.54,24.79-.56,37.1-1.63l7.49-.65L457,469.79l9-.79c21.71-1.87,45.81-14,62-2.83,3.77,2.61,5.78,6.74,6.71,11.75s.77,10.9.2,17c-7,22.49,1.21,44.46,5,65.77a142.21,142.21,0,0,1,1.25,14.62,125.18,125.18,0,0,1-.41,15c-.31,2.82-.7,5.63-1.11,8.41s-.85,5.55-1.3,8.28-.58,5.76-.73,8.67c-2.31,29.7,5.6,59.26,6.65,88.83,0,2.28,0,4.57,0,6.84s-.11,4.55-.19,6.82C543.92,719.86,543.91,720.78,543.91,720.78Z" transform="translate(-35.11 -142.8)"/><path class="cls-10" d="M257.86,654.64s4.14-6.31,6.75-3.44,4.68,6,5,14.11c0,0-1.16,2.72-2.29,6.15l-2.22,11.86L260.4,699S242.49,712.64,247,686.77A72.73,72.73,0,0,1,257.86,654.64Z" transform="translate(-35.11 -142.8)"/><path class="cls-11" d="M241.39,700l.95,16.53.31,5.45c.18,7.35,1.76,15.08.47,22.33a31.23,31.23,0,0,1-4.13.06l-5.46.47-16.63,1.42-3.7.37a80.07,80.07,0,0,0-13.19,2l-4.39,1a72.71,72.71,0,0,1-14.16,1.82q-2.34.07-4.67,0a23,23,0,0,0,4.1-.73,34.23,34.23,0,0,0,11.18-5.79,35,35,0,0,0,3.92-3.78,50.44,50.44,0,0,0,10.7-20.79,30.28,30.28,0,0,1,2.57-3.14,22.79,22.79,0,0,0,2.5-3.21c1.32-2.17,2.16-4.87,3.4-7.16,2.3-4.26,4.82-3.48,8.16-4.26a35.25,35.25,0,0,0,8.17-2.84l0,1.12Z" transform="translate(-35.11 -142.8)"/><path class="cls-10" d="M257.74,666.4c-.38-7.49-.43-14-.43-14,2.65-3.09,3.21-11.95,3.21-11.95,1.24-10.11-3.67-15.88-3.67-15.88s6.79,9.9-.07-1.19-8.27-2.86-11.39-1.41-2.45,10-2.45,10c-3.83,5.57-2.18,8-1.22,14.87s-9.11,28.65-13.89,34.06S230,694.74,230,694.74l3.47,1.37S259.22,695.65,257.74,666.4Z" transform="translate(-35.11 -142.8)"/><path class="cls-11" d="M232.08,743.79c-.15-3.63-.47-7.25-1-10.83a13,13,0,0,0-.66-2.95c-.68-1.73-2-2.9-2.88-4.48-1.37-2.44-1.36-5.3-.85-8.09.59-3.17,1.19-6.4,2-9.52a30,30,0,0,0,.62-11.11c-.32-3.5-1.29-6.07.78-8.88,2.43-3.28,4.46-7.09,8.13-8.09a20.36,20.36,0,0,1,6.17-.36,6,6,0,0,0,3.59-.65c1.32-.86,2.43-2.49,3.76-3.48a7.83,7.83,0,0,1,4.78-1.17,1.71,1.71,0,0,1,1,.23c1.33.91,2.56,3.11,3.7,4.39,2.54,2.84,4.31,5.42,4.74,9.85.25,2.64.1,5.31.14,8a5,5,0,0,0,.24,1.72,4.1,4.1,0,0,0,.86,1.24c3.76,7.37,10.92,3.9,16.41,7.89,1.18.72,2.65,1.28,4,2a7.21,7.21,0,0,1,3.26,3.33,20.66,20.66,0,0,1,1.24,6.5c.37,7.93,3.59,14.8,6.77,21-3.94.34-7.32.63-11.2,1q-2.81.39-5.62.74c-13.15,1.61-26.47,2.39-39.71,1.14-1.72.05-3.43.16-5.14.27Z" transform="translate(-35.11 -142.8)"/><path class="cls-12" d="M369.89,677.23s-16.15,4.48-17,6c0,0-18.92,2.1-20,5.53,0,0-3.21-.16-7.73,2.81a28.26,28.26,0,0,0-4.88,4.13c-7.58,8.42-12,20.23-19.38,29.44-1.08.81-3,7.4.41,7.11,5.67.23,9.28-5.8,13.58-9.74-1.36,5.83-3.69,14.61-.75,16.5a14.55,14.55,0,0,0,4.77,1.22,21.65,21.65,0,0,0,5-.19c19-3.49,37.61-3.66,56.95-5.58l5,.16c5.05.17,10.11.37,15.15.52,2.25-.19,4.42-1.81,5.95-4.8a27.37,27.37,0,0,0,2.63-4.83c5-11.87,2.68-27.67.66-41.69a33.7,33.7,0,0,0-2.85-6c-8.2-14-25.41-27.3-25.41-27.3-8.19-4.78-21.82-22.58-24.67-28s-16.74-27-16.74-27c-4.75-10.13-20.39-6.65-20.39-6.65-15,.3-16.9,13.51-17.47,13.82,0,0-11.79,4.82-11.65,7.19s-.51,4.33,2.63,6.44-3.25,8.67,13.18,11.73c0,0,5,.73,5.93,2.35,0,0,4.85,9.35,7.66,9.11,0,0,2.29,9.81,1.58,12.49,0,0-2.77,3-2.3,11.09,0,0-1.34,9.46,1.77,30.87" transform="translate(-35.11 -142.8)"/><path class="cls-12" d="M320.58,695.32,316,690.1c-5.48-6.23-7-6.41-7-6.41-2.18-1.64-5.3,5.68-5.3,5.68-.77,2-.11,8-.11,8l0,1.47s3.34,3.58,4.45-.38l0-.71,0-.53-2.47-2.47a11.94,11.94,0,0,1,2.14,1.65s1.48,1.81,3,3.75a54.34,54.34,0,0,1,3.25,4.4" transform="translate(-35.11 -142.8)"/><path class="cls-12" d="M340.71,595.53c.4.32,9.7,3.1,11.58,9.61,0,0,5.07,3,2.25,12.91Z" transform="translate(-35.11 -142.8)"/><path class="cls-12" d="M319.37,592.4c-.56-.09-1.12-.15-1.7-.2-3.2-.28-3.22,3.16-4.08,5.92a6.92,6.92,0,0,1-.48,1.08,30.26,30.26,0,0,0-2.78,7,28.38,28.38,0,0,0,.28,14.33c.53,1.9,1.51,3.52,1.49,5.55,0,2.74-.18,5.48-.45,8.19-.15,1.52-.67,3.09-.5,4.64.31,2.77,2.52,1,3.56-.16a10.25,10.25,0,0,1,1.45-1.58c.6-.43,1.07-.52,1.55-1.29,1.63-2.65,1.33-6.27,3.09-8.73a35.64,35.64,0,0,0,2.69-4.42,32.77,32.77,0,0,0,3.66-12.46c.06-.83.1-1.66.23-2.47.34-2.09,1.25-4,1.73-6.06a4.9,4.9,0,0,0,.18-1.37c-.1-2-2.21-3.68-3.34-4.8A11.24,11.24,0,0,0,319.37,592.4Z" transform="translate(-35.11 -142.8)"/><path class="cls-13" d="M293,607.87s-3.29,1-1.48,3.68a3.07,3.07,0,0,0,1.55,3.72s2.13-8,1-7.7Z" transform="translate(-35.11 -142.8)"/><path class="cls-8" d="M213.43,467.55c21.62.15,42.48,1.14,64.78,5.42l35.89,6.88c12.65,2.42,18.76,8.13,30.09,14.37,4.88,2.69,10.2,4.28,14.88,7.43,8.27,5.58,12.05,18.26,11.44,28.9-1,17.74-20.45,37.32-35.24,38.2-18.65,1.12-35.9,4.45-54.51,6.87a505.16,505.16,0,0,1-55.88,4.14l-2.95,0c-51.54.75-105.67-1.56-153.49-26.33-7.38-3.82-15.21-8.86-18-17.62-2.28-7-.7-15.1,2.61-21.53,7.8-15.11,24.87-33.46,39.67-38.17,31.66-10.08,66.39-8.36,99-8.56C199.08,467.55,206.29,467.51,213.43,467.55Z" transform="translate(-35.11 -142.8)"/><path d="M95.75,522.78c-.9-1.64-1.94-3.4-3.16-5.24v9.94l-2.35,0V518a37.65,37.65,0,0,1-3.51,6.73l-2.15-1.69a38.82,38.82,0,0,0,5.1-9.67l-4-.05v-3.29l4.52.06v-4.59l2.35,0v4.59l4,.06v3.29l-4-.06c1.68,2.26,3.28,4.59,4.84,7.13Zm-5.53,8a36.33,36.33,0,0,1-3.56,11.4,7.06,7.06,0,0,0-1.83-2,29.5,29.5,0,0,0,3-10.35Zm2-.83,2.46,0v6.45c0,1.18,0,2.27,1.57,2.29l5.13.07A1.78,1.78,0,0,0,103,538a19.55,19.55,0,0,0,.2-3.69l2.49.48c-.06,3.33-.26,5.39-.61,6.08-.84,1.25-1.13,1.49-3,1.46l-7-.1c-1.54,0-3-1.22-3-5.2ZM99,536.62c-.58-1.92-1.33-4-2.23-6.16l2.2-1.43c1.19,3.1,1.94,5.26,2.29,6.4Zm10.78-9.71q0,.49-.35.48l-11.1-.15c-.17,0-.29-.17-.29-.49v-19.2c0-.24.12-.4.29-.4l11.1.15c.23,0,.35.17.35.41Zm-9.51-13.81,7.28.1v-2.68l-.12-.12-7.07-.1-.09.12Zm0,5.56,7.28.1v-2.6l-7.28-.1Zm7.28,3.06-7.28-.1V524l.09.16,7.07.1c.09,0,.12,0,.12-.16Zm1.8,20a74,74,0,0,0-3.89-10.69l2.17-1.67a65.08,65.08,0,0,1,4,10.85Z" transform="translate(-35.11 -142.8)"/><path d="M133.06,512.82l-2.09,0v5.72c0,1.05-.35,1.54-1.1,1.53l-5.6-.08c-.7,0-1.07-.5-1.07-1.56v-5.72l-2.09,0a7.19,7.19,0,0,1-.32,2c-.69,2.55-2.49,4.51-5.45,5.85l-1.16-3.18c1.59-.46,4.46-1.72,4.55-4.69l-4.73-.07v-3.17l4.75.07v-3.53l2.38,0v3.53l2.06,0v-3.65l2.35,0v3.65l3.07,0v-3.65l2.35,0v3.65l2.09,0V506.2l2.35,0v3.45l4.81.07v3.17l-4.81-.07v3c0,.61.23,1,.7,1l1.51,0c.09,0,.17-.32.26-.89l.23-2.11,2.2,1.13c-.17,2.68-.49,4.21-.9,4.57a2,2,0,0,1-1.48.59l-3.71-.05c-.78-.05-1.16-.58-1.16-1.64ZM126,531.27l-5.48-.08q-.17,0-.17.24v10.19l-2.35,0V528.8c0-.53.2-.77.58-.76l7.42.1V524.9l-9-.12c-.15,0-.23.12-.23.32v4.83l-2.46,0v-7.63c0-.45.14-.65.46-.64l23.71.33,2,1.45a33.93,33.93,0,0,1-1,7.58l-2.35-1a22.54,22.54,0,0,0,.67-4.5c0-.28-.12-.41-.29-.41l-9.16-.13v3.25l7.51.1c.41,0,.61.25.61.78v9.46c0,1.3-.32,3.85-3.48,3.81a10.89,10.89,0,0,1-2.73-.48l-.09-3.61a7.53,7.53,0,0,0,2.46.64c.84,0,1.48-.59,1.48-1.68v-5.56c0-.16-.06-.24-.2-.25l-5.57-.08v12.05l-2.44,0Zm2.26-14.38c.23,0,.38-.2.38-.52v-3.61l-3.07,0v3.61c0,.33.12.53.38.53Z" transform="translate(-35.11 -142.8)"/><path d="M152.32,530.66l-9,.65-.38-3.62,9.33-.68v-6.41l-8.09.54-.32-3.58,8.41-.53v-5.6h-7.8l-.29-3.66c7,.26,17.45-.37,22.29-1.52l.35,3.58a55.77,55.77,0,0,1-8.84,1.22l-3.13.24v5.56l12.49-.88.15,3.61-12.64.84v6.45l13.63-1.07.18,3.61-13.8,1V537c-.06,1.42.06,2.35,1.6,2.38l7.94.11a1.74,1.74,0,0,0,1.68-1c.29-.56.52-2.71.66-6.32l2.58.81a65,65,0,0,1-.46,6.85,5.93,5.93,0,0,1-.58,1.74c-.81,1.33-1.36,1.52-3.07,1.5l-9.86-.14c-1.48,0-3.19-1.1-3.07-5.44Z" transform="translate(-35.11 -142.8)"/><path d="M177,526.17a22.82,22.82,0,0,0-2.38-6.16c-.29-.49-.32-.53-.32-.69a1,1,0,0,1,.06-.28l3.91-7.09.06-.49c0-.16-.12-.25-.23-.25l-5.86-.08v-3.45l8.81.12,1.51,1.89-4.9,8.9a1.76,1.76,0,0,0-.29.93,1.52,1.52,0,0,0,.35,1,30.4,30.4,0,0,1,1.48,4.32l2.41-1.71,1.07,3.18-2.75,2a33.45,33.45,0,0,1,.52,5.61c0,5.56-2,10-4.29,10-.44,0-1.77-.19-4.09-2.08l.64-3.81c1,1,2.44,2.1,3.16,2.11.46,0,2-1.72,2-6.67a29.16,29.16,0,0,0-.23-3.78l-5,2.45-.9-3.26Zm19.52,18q-1.83-3.92-4.53-8.83a45,45,0,0,1-10.14,8L180.24,540a38.43,38.43,0,0,0,10.06-7.25,32.73,32.73,0,0,0,6.11-12.13l2.38.93c-1.3,5.05-3,9-5.19,11.78,1.71,2.7,3.36,5.61,4.9,8.59Zm-14.91-12.95a32.76,32.76,0,0,0,5.59-4.1,38,38,0,0,0-5.77-6.94l1.3-2.94a15.93,15.93,0,0,1,2.12,2.18l3-5.72-5.39-.07v-3.29l6.49.09v-3.65l2.46,0v3.65l6.93.1v3.29l-7.57-.1c-1,2.14-2.46,4.8-4.26,7.86L189,525a25.31,25.31,0,0,0,3.82-9l2.41.8-.87,3.52q-2.52,7.7-11.27,13.73Z" transform="translate(-35.11 -142.8)"/><path d="M200.88,522.44l26.56.37v3.9l-26.56-.37Z" transform="translate(-35.11 -142.8)"/><path d="M246.43,544.58a30.62,30.62,0,0,1-5.54-.73,10.39,10.39,0,0,1-7.51-5.62,39.78,39.78,0,0,1-1.36,5.58l-2.49-.72a51,51,0,0,0,2.34-15.27c0-.65,0-1.34,0-2l2.46-.09c0,3-.11,5.68-.35,8a17.23,17.23,0,0,0,2.32,3.93V522.56l-6.17-.09v-3.29l6.17.09v-4.34l-5.16-.07v-3.29l5.16.07v-4.26l2.46,0v4.26l3.86.05V515l-3.86-.05v4.34l4.32.06v3.29l-4.32-.06v5.11l3.86.05V531l-3.86-.05v8.73A15.45,15.45,0,0,0,245.5,541l11.1.15-.67,3.6Zm-2.33-34.85c0-.53.2-.81.58-.8l10.2.14c.41,0,.61.29.61.82v13.64c0,.61-.2.89-.61.88l-8.32-.11v7.91c0,1.3.06,3.09,1.42,3.23l4.06.06a2.18,2.18,0,0,0,2.12-2.33l-.18-3.9,2.52.36c0,3.53-.26,6-1,7.25s-1.62,1.93-2.58,1.91l-5.42-.07c-2.09,0-3.45-1.35-3.45-4.8Zm2.73,2.51q-.26,0-.26.36V521l6.2.09c.17,0,.26-.12.26-.4v-8q0-.37-.26-.37Z" transform="translate(-35.11 -142.8)"/><path d="M283.86,543.06a45.71,45.71,0,0,1-10.47-10.53v12.95l-2.44,0v-13c-3.62,5-7.24,8.55-10.87,10.65l-1.6-3.15a38.66,38.66,0,0,0,12.46-12.45V516.14L259.78,516v-3.45l11.16.15v-4.83l2.44,0v4.83l11.1.15v3.45l-11.1-.15v11.36a36.49,36.49,0,0,0,12.3,12.67ZM267.7,529.89c-.87-1.47-1.89-3.11-3.07-4.83a29.35,29.35,0,0,1-3.88,7.37l-2.12-2a35.12,35.12,0,0,0,5.65-12.83l2.32,1.13-1,3.52c1.31,1.64,2.58,3.32,3.83,5.13Zm16.12,2.41c-1.45-2.25-3.19-4.75-5.28-7.46a23,23,0,0,1-1.85,3.75l-2.2-1.78a25.41,25.41,0,0,0,3.45-8.92l2.38.93-.84,3.28c2.09,2.42,4.06,5,6,7.71Z" transform="translate(-35.11 -142.8)"/><path d="M290.87,524.24l-1.07,2.26-2.32-1.45a47.57,47.57,0,0,0,5-16.94l2.44.6c-.46,3.12-1,5.83-1.56,8.22v28.53l-2.46,0Zm12.07,16.93V530.82l-7.71-.11v-3.45l7.71.11v-9.7l-8.15-.11v-3.45l8.49.12a31,31,0,0,0-2.35-3.81l1.85-2.25a29,29,0,0,1,3,5l-1,1.08,9.48.13v3.45l-8.78-.12v9.7l8.2.11V531l-8.2-.11v10.35l9,.12v3.45l-20.06-.28v-3.45Z" transform="translate(-35.11 -142.8)"/><path d="M319.74,531.83l-1,1.89-2.32-1.49a46.7,46.7,0,0,0,5.13-16.33l2.41.72c-.55,3.24-1.13,6-1.79,8.46v20.46l-2.46,0Zm7.63,12.4V546l-2.35,0V524.51c0-.33.09-.53.38-.52l5.22.07.55-3.36-6.15-.08v-3.29l15.42.21.43-2.39c0-.32-.06-.53-.32-.53l-20.61-.28c-.15,0-.23.12-.23.32v5.07l-2.46,0v-8c0-.45.14-.65.46-.64l11.31.16V508.5l2.46,0v2.68l10,.14,2.15,1.53a45.06,45.06,0,0,1-1.33,7.77l-1.88-.92v1.1l-6.75-.09-.49,3.36,7.71.11c.32,0,.49.21.49.66v21.31l-2.35,0v-1.75Zm0-11.65,11.68.16v-4.83c0-.28-.12-.45-.38-.45l-11-.15c-.26,0-.38.16-.35.44ZM339.05,536l-11.68-.16v5.07l11.68.16Z" transform="translate(-35.11 -142.8)"/></svg>