<?xml version="1.0" encoding="utf-8"?>
<!-- Generator: Adobe Illustrator 21.1.0, SVG Export Plug-In . SVG Version: 6.00 Build 0)  -->
<svg version="1.1" id="圖層_1" xmlns="http://www.w3.org/2000/svg" xmlns:xlink="http://www.w3.org/1999/xlink" x="0px" y="0px"
	 viewBox="0 0 346 483.9" style="enable-background:new 0 0 346 483.9;" xml:space="preserve">
<style type="text/css">
	.st0{fill:none;stroke:#000000;stroke-miterlimit:10;}
	.st1{fill:#E7E7E7;stroke:#000000;stroke-width:0.5;stroke-miterlimit:10;}
	.st2{fill:#FDF5E0;stroke:#000000;stroke-width:0.75;stroke-miterlimit:10;}
	.st3{opacity:0.8;fill:#BBA985;}
	.st4{fill:none;stroke:#000000;stroke-width:0.5;stroke-miterlimit:10;}
	.st5{fill:#858481;stroke:#000000;stroke-miterlimit:10;}
	.st6{fill:#A9A59A;stroke:#000000;stroke-miterlimit:10;}
	.st7{fill:#312B1B;}
	.st8{fill:#66C423;}
	.st9{fill:#44840B;}
	.st10{fill:#3D6208;}
	.st11{fill:#B4E85F;}
	.st12{opacity:0.9;}
	.st13{fill:#865541;}
	.st14{fill:#FFFFFF;}
</style>
<title>index_give_help</title>
<path class="st0" d="M196.3,261.4"/>
<path class="st1" d="M333,212.8l-0.3,65.5c0,0-62,31-148.3,2.3l0.3-67.8c0,1.3,0.6,2.5,1.8,3.7c0,0,0,0,0,0
	c-0.1,0.1-0.2,0.2-0.3,0.3c7.5,7.4,37,13,72.3,13s64.8-5.5,72.3-13c0,0,0,0,0,0c0.1-0.1,0.2-0.2,0.3-0.3
	C332.4,215.3,333,214,333,212.8z"/>
<path class="st2" d="M333,212.8c0,1.3-0.6,2.5-1.8,3.7c-0.1,0.1-0.2,0.2-0.3,0.3c-7.5-7.4-37-13-72.3-13c-34.8,0-64,5.4-72,12.7
	c0,0,0,0,0,0c-1.2-1.2-1.8-2.4-1.8-3.7c0-9.2,33.2-16.7,74.2-16.7C299.8,196.1,333,203.5,333,212.8z"/>
<path class="st3" d="M330.8,216.8c-8,7.3-37.2,12.7-72,12.7c-35.3,0-64.8-5.5-72.3-13c8-7.3,37.2-12.7,72-12.7
	C293.8,203.8,323.3,209.4,330.8,216.8z"/>
<path class="st4" d="M330.9,216.8c-7.5,7.4-37,13-72.3,13s-64.8-5.5-72.3-13c0.1-0.1,0.2-0.2,0.3-0.3c7.5,7.4,37,13,72.3,13
	C293.6,229.5,322.8,224.1,330.9,216.8C330.8,216.8,330.8,216.8,330.9,216.8z"/>
<path class="st5" d="M235.7,214.7c-1,0.3-2.7,0.5-5.3,0.7c0,0-0.1,0-0.2,0C232.7,215.2,234.5,214.9,235.7,214.7z"/>
<g>
	<path class="st6" d="M264.7,215.6c-2.3-0.9-4.6-1.7-7-2.4c-8.8-2.7-17.8-4.4-26.8-5.8c0,0-14.7-0.4-15.9,0.9c0,0-8.2,1.6,1.8,6.6
		c4.4,2.1,8.9,4.1,13.5,5.8c4.5,1.8,9,3.6,13.7,4.6c3.6,0.7,7.2,0.6,10.8,0.4c3.5-0.2,7.1-0.4,10.4-1.8c1.2-0.5,2.6-1.3,3.3-2.6
		C270,218.1,266.9,216.5,264.7,215.6z M221.9,212.5c0,0,3.7-2.5,12.3-0.6c0,0,5.9,2.5-3.5,2.8C230.7,214.7,219.9,214.7,221.9,212.5z
		 M264,218.8c-0.1,0.4-0.4,0.6-0.8,0.8c-1,0.5-2.1,0.7-3.2,0.9c-4.8,0.8-9.8,0.8-14.7,0.3c-2.9-0.3-5.7-0.7-8.5-1.7
		c-0.7-0.3-3.4-1.3-2-2.5c0.5-0.4,1.2-0.7,1.9-0.8c8.3-1.8,18.8-3.3,26.4,1.8C263.7,217.9,264.1,218.3,264,218.8z"/>
	<path class="st5" d="M234.8,214.2c3-0.9-0.7-2.4-0.7-2.4c-7.1-1.8-11.2,0.1-11.2,0.1c-4.9,2.1,5.2,2.8,6.7,2.9c-0.2,0-0.4,0-0.7,0
		c0,0-16.1-0.8-9.1-4c0,0,5.5-2.6,14.8-0.2C234.7,210.8,240.1,212.9,234.8,214.2z"/>
	<path class="st5" d="M264,218.4c-2.2-1.4-8.4-2.3-9.5-2.5c-5.3-0.8-12.4-1.6-17.3,0.8c-0.7,0.4-1.3,0.9-1.5,1.6c0,0.1,0,0.2,0,0.3
		c-0.3-0.2-0.5-0.4-0.6-0.7c-0.1-0.2-0.1-0.5,0-0.9c0.2-0.8,0.8-1.4,1.5-1.8c4.9-2.7,12-1.8,17.3-0.9
		C255.1,214.6,264.3,216.1,264,218.4z"/>
</g>
<g>
	<path class="st7" d="M246.3,256.3c-1.6,0.5-3.4,2.5-4.1,3.8c-0.6,1-0.9,2.2-0.9,3.4c0,0.9,0.2,1.8,0.4,2.7c0.3,1.4,1.3,2.4,2.5,2.9
		c1.9,0.7,4,0.5,5.2-1.3c1-1.5,1.3-3.5,1.1-5.2c-0.2-2-0.7-5.7-3-6.3C247.1,256.1,246.7,256.1,246.3,256.3z"/>
	<path class="st7" d="M251.2,245.6c-0.9,0.5-1.6,1.1-2.2,1.9c-1.3,1.8-1,4.1,0.1,5.9c1.7,3,4.5,5.1,7.3,2.3c0.9-0.9,1.1-2.2,1.1-3.4
		c0-1.3,0.2-2.8,0-4.1c-0.2-0.9-0.6-1.8-1.3-2.4c-0.8-0.7-1.7-0.5-2.6-0.6C252.8,244.9,252,245.2,251.2,245.6z"/>
	<path class="st7" d="M260.8,246.2c0.1-0.1,0.3-0.2,0.5-0.3c1.2-0.5,3-0.3,4.2,0.3c1.8,0.9,2.8,3,3.3,5c0.3,1.2,0.3,2.6-0.1,3.7
		c-0.4,1-1.6,2.4-2.8,2.2c-0.2,0-0.3-0.1-0.5-0.2c-3-1.8-5-5.6-5.2-9.3c0-0.3,0-0.5,0.1-0.8C260.4,246.6,260.6,246.4,260.8,246.2z"
		/>
	<path class="st7" d="M271.2,262.2c0-0.1,0-0.2,0-0.3c-0.1-1.3-0.1-3.2,0.6-4.2c1.3-1.9,4.1,0.3,5.3,1.3c0.2,0.1,0.3,0.3,0.5,0.5
		c0.2,0.3,0.3,0.6,0.5,0.9c0.6,1.5,1.1,3.3,1,5c0,0.7-0.2,1.4-0.5,2.1c-0.2,0.4-0.8,1.6-1.3,1.6c-1.9,0.3-3.9-1.3-4.8-2.9
		C271.7,265,271.3,263.6,271.2,262.2z"/>
	<path class="st7" d="M255,271.6C255,271.6,255,271.6,255,271.6c0.2-0.2,0.1-0.5,0.1-0.7c0-0.3,0-0.6,0.1-0.8
		c0.1-0.6,0.1-1.1,0.4-1.6c0.4-1,1-1.9,1.9-2.5c1.7-1.3,3.8-1.6,5.8-1.5c1.2,0.1,2.4,0.3,3.4,1c1.1,0.8,1.8,2.2,1.9,3.6
		c0.1,0.5,0,1.1,0.3,1.6c0.3,0.5,0.9,0.8,1.4,1c1.7,0.8,3.3,2.1,4.1,3.9c0.8,1.8,0.7,4.2-0.6,5.6c-0.9,1-2.3,1.5-3.6,1.8
		c-5.4,1.3-11,1.5-16.6,1c-1.5-0.2-3.1-0.4-4.1-1.7c-1.2-1.5-1.1-4.3-0.1-5.9c0.5-0.9,1.2-1.7,1.9-2.4c0.7-0.7,1.6-1.3,2.5-1.8
		c0.3-0.2,0.6-0.3,1-0.4C254.8,271.7,254.9,271.7,255,271.6z"/>
</g>
<g>
	<path class="st7" d="M307.8,262.5c-0.7-0.4-1.9-0.3-2.5-0.1c-0.5,0.2-0.9,0.5-1.2,0.9c-0.2,0.3-0.4,0.7-0.6,1
		c-0.3,0.6-0.2,1.2,0.1,1.8c0.5,0.8,1.2,1.5,2.1,1.3c0.7-0.2,1.4-0.7,1.8-1.4c0.5-0.7,1.3-2.2,0.7-3.1
		C308.1,262.7,308,262.6,307.8,262.5z"/>
	<path class="st7" d="M312.4,260.5c-0.4-0.1-0.9-0.1-1.3-0.1c-1,0.2-1.5,1-1.6,2c-0.2,1.6,0.1,3.2,1.9,3.1c0.6,0,1-0.4,1.3-0.8
		c0.4-0.4,0.8-0.9,1.1-1.4c0.2-0.4,0.3-0.8,0.2-1.2c-0.1-0.5-0.5-0.7-0.7-1.1C313.2,260.8,312.8,260.6,312.4,260.5z"/>
	<path class="st7" d="M315.6,263.9c0.1,0,0.2,0,0.2,0.1c0.6,0.2,1.1,0.9,1.4,1.5c0.4,0.9,0.2,1.9-0.2,2.8c-0.2,0.5-0.6,1-1.1,1.2
		c-0.4,0.2-1.2,0.3-1.6-0.2c0-0.1-0.1-0.1-0.1-0.2c-0.6-1.6-0.2-3.5,0.8-4.8c0.1-0.1,0.1-0.2,0.2-0.2
		C315.3,263.9,315.4,263.8,315.6,263.9z"/>
	<path class="st7" d="M314.7,272.6c0,0,0-0.1,0.1-0.1c0.3-0.5,0.8-1.1,1.4-1.2c1-0.2,1.3,1.4,1.5,2.2c0,0.1,0,0.2,0,0.3
		c0,0.2,0,0.3-0.1,0.5c-0.2,0.7-0.5,1.5-1,2c-0.2,0.2-0.5,0.4-0.7,0.5c-0.2,0.1-0.7,0.3-0.9,0.1c-0.7-0.5-1-1.7-0.8-2.5
		C314.2,273.7,314.4,273.1,314.7,272.6z"/>
	<path class="st7" d="M306.5,270.5C306.6,270.5,306.6,270.5,306.5,270.5c0.1,0,0.2-0.1,0.2-0.2c0.1-0.1,0.2-0.2,0.3-0.3
		c0.2-0.2,0.4-0.3,0.6-0.4c0.4-0.2,0.9-0.3,1.3-0.2c0.9,0.1,1.7,0.7,2.4,1.4c0.4,0.4,0.8,0.9,0.9,1.5c0.2,0.6,0,1.3-0.3,1.8
		c-0.1,0.2-0.3,0.4-0.3,0.6c0,0.3,0.1,0.5,0.2,0.8c0.4,0.8,0.6,1.8,0.3,2.7c-0.2,0.9-0.9,1.6-1.7,1.7c-0.6,0-1.2-0.3-1.7-0.6
		c-2.2-1.3-4.2-3.1-6-5.1c-0.5-0.5-0.9-1.2-0.9-1.9c0-0.9,0.8-1.8,1.6-2c0.4-0.1,0.9-0.2,1.3-0.2c0.5,0,0.9,0.1,1.3,0.2
		c0.2,0,0.3,0.1,0.5,0.2C306.5,270.4,306.5,270.5,306.5,270.5z"/>
</g>
<g>
	<path class="st7" d="M197.8,248.9c-0.7,0.7-1.1,2.1-1.1,3c0,0.7,0.1,1.4,0.4,2c0.2,0.5,0.5,0.9,0.9,1.3c0.5,0.6,1.2,0.9,1.9,0.8
		c1.1-0.1,2.1-0.8,2.2-2c0.1-1-0.2-2.1-0.7-3c-0.6-1-1.8-2.7-3-2.4C198.2,248.6,198,248.7,197.8,248.9z"/>
	<path class="st7" d="M197.6,242.1c-0.3,0.5-0.5,1-0.6,1.5c-0.2,1.3,0.5,2.3,1.5,3c1.6,1.1,3.4,1.5,4.1-0.7c0.2-0.7,0-1.4-0.3-2.1
		c-0.3-0.7-0.6-1.5-1-2.1c-0.3-0.4-0.7-0.8-1.2-0.9c-0.5-0.1-1,0.2-1.4,0.4C198.2,241.4,197.9,241.7,197.6,242.1z"/>
	<path class="st7" d="M202.4,240c0-0.1,0.1-0.2,0.2-0.3c0.5-0.6,1.4-0.9,2.2-0.9c1.1,0,2.1,0.8,2.8,1.7c0.4,0.5,0.8,1.2,0.8,1.9
		c0.1,0.6-0.2,1.7-0.8,1.9c-0.1,0-0.2,0-0.3,0c-1.9-0.1-3.8-1.6-4.8-3.4c-0.1-0.1-0.1-0.3-0.2-0.4
		C202.3,240.3,202.4,240.1,202.4,240z"/>
	<path class="st7" d="M211.4,245.4c0,0-0.1-0.1-0.1-0.1c-0.4-0.6-0.8-1.6-0.7-2.3c0.2-1.3,2.1-0.9,2.9-0.7c0.1,0,0.2,0.1,0.4,0.1
		c0.2,0.1,0.3,0.2,0.4,0.3c0.7,0.6,1.3,1.4,1.7,2.3c0.2,0.4,0.3,0.8,0.3,1.2c0,0.3,0,1-0.2,1.2c-0.9,0.7-2.2,0.3-3.1-0.3
		C212.4,246.7,211.8,246.1,211.4,245.4z"/>
	<path class="st7" d="M205.8,254.5C205.8,254.5,205.8,254.5,205.8,254.5c0-0.1-0.1-0.3-0.1-0.4c-0.1-0.1-0.1-0.3-0.2-0.4
		c-0.1-0.3-0.2-0.6-0.2-0.9c0-0.6,0.1-1.2,0.3-1.8c0.5-1.1,1.5-1.8,2.5-2.3c0.6-0.3,1.3-0.5,1.9-0.4c0.7,0.1,1.4,0.7,1.8,1.4
		c0.2,0.3,0.3,0.6,0.5,0.7c0.3,0.2,0.6,0.2,0.9,0.2c1,0,2.1,0.2,3,0.9c0.8,0.7,1.4,2,1.1,3c-0.2,0.8-0.8,1.4-1.3,1.9
		c-2.3,2.1-5,3.6-7.9,4.8c-0.8,0.3-1.6,0.6-2.4,0.2c-0.9-0.5-1.6-1.9-1.5-3c0-0.6,0.2-1.2,0.3-1.7c0.2-0.6,0.5-1.1,0.8-1.6
		c0.1-0.2,0.2-0.3,0.4-0.5C205.7,254.6,205.8,254.5,205.8,254.5z"/>
</g>
<g>
	<g>
		<path class="st8" d="M243.2,368.5c-1.3-5.2-83.3-74.8-83.3-74.8S243.8,371,243.2,368.5z"/>
		<path class="st8" d="M242.5,372.1c-1.3-5.2-83.3-74.8-83.3-74.8S243.1,374.7,242.5,372.1z"/>
		<path class="st8" d="M243.7,379.8c-1.3-5.2-83.3-74.8-83.3-74.8S244.3,382.3,243.7,379.8z"/>
		<path class="st8" d="M243,383.4c-1.3-5.2-83.3-74.8-83.3-74.8S243.6,386,243,383.4z"/>
		<path class="st8" d="M244.8,373.3c-2-4.9-92.5-60.8-92.5-60.8S245.8,375.7,244.8,373.3z"/>
		<path class="st8" d="M233.7,373.5c-2-4.9-92.5-60.8-92.5-60.8S234.7,375.9,233.7,373.5z"/>
		<path class="st8" d="M246.9,384.4c-2-4.9-92.5-60.8-92.5-60.8S247.9,386.8,246.9,384.4z"/>
		<path class="st8" d="M246.7,388.1c-2-4.9-92.5-60.8-92.5-60.8S247.7,390.5,246.7,388.1z"/>
		<path class="st8" d="M253.6,355.8c-1.3-5.2-83.3-74.8-83.3-74.8S254.3,358.4,253.6,355.8z"/>
		<path class="st9" d="M252.1,360.3c-1.3-5.2-83.3-74.8-83.3-74.8S252.8,362.9,252.1,360.3z"/>
		<path class="st8" d="M255.6,369c-1.3-5.2-83.3-74.8-83.3-74.8S256.3,371.5,255.6,369z"/>
		<path class="st8" d="M253.5,370.7c-1.3-5.2-83.3-74.8-83.3-74.8S254.1,373.3,253.5,370.7z"/>
		<path class="st8" d="M250.1,369.3c-2-4.9-92.5-60.8-92.5-60.8S251.1,371.7,250.1,369.3z"/>
		<path class="st10" d="M253.5,362.6c-2-4.9-92.5-60.8-92.5-60.8S254.5,365,253.5,362.6z"/>
		<path class="st8" d="M257.4,371.7c-2-4.9-92.5-60.8-92.5-60.8S258.4,374.1,257.4,371.7z"/>
		<path class="st10" d="M257.2,375.4c-2-4.9-92.5-60.8-92.5-60.8S258.2,377.8,257.2,375.4z"/>
		<path class="st8" d="M225.2,392.2c-1.3-5.2-83.3-74.8-83.3-74.8S225.9,394.7,225.2,392.2z"/>
		<path class="st8" d="M224.5,395.8c-1.3-5.2-83.3-74.8-83.3-74.8S225.2,398.4,224.5,395.8z"/>
		<path class="st8" d="M221.5,400.4c-1.3-5.2-83.3-74.8-83.3-74.8S222.1,403,221.5,400.4z"/>
		<path class="st8" d="M225.1,407.1c-1.3-5.2-83.3-74.8-83.3-74.8S225.7,409.7,225.1,407.1z"/>
		<path class="st8" d="M226.9,397c-2-4.9-92.5-60.8-92.5-60.8S227.9,399.4,226.9,397z"/>
		<path class="st8" d="M226.7,400.7c-2-4.9-92.5-60.8-92.5-60.8S227.7,403.1,226.7,400.7z"/>
		<path class="st8" d="M229,408.1c-2-4.9-92.5-60.8-92.5-60.8S230,410.5,229,408.1z"/>
		<path class="st8" d="M228.8,411.8c-2-4.9-92.5-60.8-92.5-60.8S229.8,414.2,228.8,411.8z"/>
		<path class="st8" d="M228.7,369.2c-1.3-5.2-83.3-74.8-83.3-74.8S229.4,371.7,228.7,369.2z"/>
		<path class="st8" d="M235,383.1c-1.3-5.2-83.3-74.8-83.3-74.8S235.7,385.7,235,383.1z"/>
		<path class="st8" d="M236.2,390.8C234.9,385.6,153,316,153,316S236.9,393.3,236.2,390.8z"/>
		<path class="st8" d="M235.5,394.4c-1.3-5.2-83.3-74.8-83.3-74.8S236.2,397,235.5,394.4z"/>
		<path class="st8" d="M233.9,380.7c-2-4.9-92.5-60.8-92.5-60.8S234.9,383.1,233.9,380.7z"/>
		<path class="st8" d="M237.2,388c-2-4.9-92.5-60.8-92.5-60.8S238.2,390.4,237.2,388z"/>
		<path class="st8" d="M239.4,395.4c-2-4.9-92.5-60.8-92.5-60.8S240.4,397.8,239.4,395.4z"/>
		<path class="st8" d="M239.2,399.1c-2-4.9-92.5-60.8-92.5-60.8S240.2,401.5,239.2,399.1z"/>
		<path class="st8" d="M133.9,353.9c1.7,5.1,88.4,67.6,88.4,67.6S133,351.4,133.9,353.9z"/>
		<path class="st8" d="M133.7,351.3c1.7,5.1,88.4,67.6,88.4,67.6S132.8,348.8,133.7,351.3z"/>
		<path class="st8" d="M131.9,343.7c1.7,5.1,88.4,67.6,88.4,67.6S131.1,341.3,131.9,343.7z"/>
		<path class="st8" d="M132,339.4c1.7,5.1,88.4,67.6,88.4,67.6S131.2,336.9,132,339.4z"/>
		<path class="st9" d="M130.2,349.3c2.4,4.8,96.6,52.9,96.6,52.9S129.1,347,130.2,349.3z"/>
		<path class="st8" d="M127.1,347.2c2.4,4.8,96.6,52.9,96.6,52.9S126,344.9,127.1,347.2z"/>
		<path class="st8" d="M128.4,339.4c2.4,4.8,96.6,52.9,96.6,52.9S127.2,337.1,128.4,339.4z"/>
		<path class="st8" d="M125.7,337.2c2.4,4.8,96.6,52.9,96.6,52.9S124.6,334.9,125.7,337.2z"/>
		<path class="st8" d="M122.5,371.4c2.4,4.8,96.5,53.2,96.5,53.2S121.4,369.1,122.5,371.4z"/>
		<path class="st8" d="M128.1,360.4c1.7,5.1,88.4,67.6,88.4,67.6S127.3,357.9,128.1,360.4z"/>
		<path class="st8" d="M122.4,357.3c1.7,5.1,88.4,67.6,88.4,67.6S121.6,354.8,122.4,357.3z"/>
		<path class="st8" d="M122.8,353.6c1.7,5.1,88.4,67.6,88.4,67.6S122,351.1,122.8,353.6z"/>
		<path class="st8" d="M121.7,363.9c2.4,4.8,96.6,52.9,96.6,52.9S120.5,361.5,121.7,363.9z"/>
		<path class="st10" d="M124.5,355.9c2.4,4.8,96.6,52.9,96.6,52.9S123.3,353.6,124.5,355.9z"/>
		<path class="st8" d="M118.9,353c2.4,4.8,96.6,52.9,96.6,52.9S117.7,350.7,118.9,353z"/>
		<path class="st9" d="M117.8,348.2c2.4,4.8,96.6,52.9,96.6,52.9S116.6,345.9,117.8,348.2z"/>
		<path class="st8" d="M139.8,315.9c1.7,5.1,88.4,67.6,88.4,67.6S139,313.4,139.8,315.9z"/>
		<path class="st8" d="M149.9,326.2c1.7,5.1,88.4,67.6,88.4,67.6S149,323.7,149.9,326.2z"/>
		<path class="st8" d="M148.1,318.6c1.7,5.1,88.4,67.6,88.4,67.6S147.3,316.1,148.1,318.6z"/>
		<path class="st8" d="M139.8,294.8c1.7,5.1,88.4,67.6,88.4,67.6S138.9,292.4,139.8,294.8z"/>
		<path class="st8" d="M147.4,325.2c2.4,4.8,96.6,52.9,96.6,52.9S146.2,322.9,147.4,325.2z"/>
		<path class="st9" d="M146.3,320.5c2.4,4.8,96.6,52.9,96.6,52.9S145.2,318.2,146.3,320.5z"/>
		<path class="st10" d="M144.6,314.3c2.4,4.8,96.6,52.9,96.6,52.9S143.4,312,144.6,314.3z"/>
		<path class="st8" d="M142.2,308.2c2.4,4.8,96.6,52.9,96.6,52.9S141,305.9,142.2,308.2z"/>
		<path class="st10" d="M156.8,338.6c1.7,5.1,88.4,67.6,88.4,67.6S156,336.2,156.8,338.6z"/>
		<path class="st8" d="M140.3,339.7c1.7,5.1,88.4,67.6,88.4,67.6S139.5,337.2,140.3,339.7z"/>
		<path class="st9" d="M137.6,331.1c1.7,5.1,88.4,67.6,88.4,67.6S136.8,328.6,137.6,331.1z"/>
		<path class="st8" d="M135.9,325.9c1.7,5.1,88.4,67.6,88.4,67.6S135,323.4,135.9,325.9z"/>
		<path class="st8" d="M137.9,338.7c2.4,4.8,96.6,52.9,96.6,52.9S136.7,336.4,137.9,338.7z"/>
		<path class="st9" d="M136.8,334c2.4,4.8,96.6,52.9,96.6,52.9S135.7,331.7,136.8,334z"/>
		<path class="st8" d="M117.6,320c2.4,4.8,96.6,52.9,96.6,52.9S116.4,317.7,117.6,320z"/>
		<path class="st10" d="M129.8,335.3c2.4,4.8,96.6,52.9,96.6,52.9S128.7,333,129.8,335.3z"/>
		<path class="st11" d="M122.5,335.3c2.4,4.8,96.6,52.9,96.6,52.9S121.3,333,122.5,335.3z"/>
		<path class="st11" d="M122.5,329.6c2.4,4.8,96.6,52.9,96.6,52.9S121.4,327.3,122.5,329.6z"/>
		<path class="st11" d="M154.8,303.7c2.4,4.8,96.6,52.9,96.6,52.9S153.6,301.4,154.8,303.7z"/>
		<path class="st11" d="M123.6,368.7c2.4,4.8,96.6,52.9,96.6,52.9S122.4,366.4,123.6,368.7z"/>
		<path class="st11" d="M134.7,350c1.9,5,90.4,64.5,90.4,64.5S133.8,347.5,134.7,350z"/>
		<path class="st11" d="M144,316c1.8,5.1,88.9,66.8,88.9,66.8S143.2,313.6,144,316z"/>
		<path class="st11" d="M146.8,318.7c1.8,5.1,88.9,66.8,88.9,66.8S146,316.2,146.8,318.7z"/>
		<path class="st11" d="M130.1,326.6c1.8,5.1,88.9,66.8,88.9,66.8S129.3,324.1,130.1,326.6z"/>
		<path class="st11" d="M131.5,329.4c1.8,5.1,88.9,66.8,88.9,66.8S130.6,326.9,131.5,329.4z"/>
	</g>
	<g>
		<path class="st8" d="M209.4,369.5c-1.3-5.2-83.3-74.8-83.3-74.8S210.1,372.1,209.4,369.5z"/>
		<path class="st8" d="M208.7,373.2c-1.3-5.2-83.3-74.8-83.3-74.8S209.4,375.7,208.7,373.2z"/>
		<path class="st8" d="M210,380.8c-1.3-5.2-83.3-74.8-83.3-74.8S210.6,383.4,210,380.8z"/>
		<path class="st8" d="M209.3,384.5c-1.3-5.2-83.3-74.8-83.3-74.8S209.9,387,209.3,384.5z"/>
		<path class="st8" d="M211.1,374.3c-2-4.9-92.5-60.8-92.5-60.8S212.1,376.7,211.1,374.3z"/>
		<path class="st8" d="M200,374.6c-2-4.9-92.5-60.8-92.5-60.8S201,377,200,374.6z"/>
		<path class="st8" d="M213.2,385.4c-2-4.9-92.5-60.8-92.5-60.8S214.2,387.8,213.2,385.4z"/>
		<path class="st8" d="M213,389.1c-2-4.9-92.5-60.8-92.5-60.8S214,391.5,213,389.1z"/>
		<path class="st8" d="M219.9,356.8c-1.3-5.2-83.3-74.8-83.3-74.8S220.6,359.4,219.9,356.8z"/>
		<path class="st9" d="M218.4,361.4c-1.3-5.2-83.3-74.8-83.3-74.8S219.1,363.9,218.4,361.4z"/>
		<path class="st8" d="M221.9,370c-1.3-5.2-83.3-74.8-83.3-74.8S222.6,372.6,221.9,370z"/>
		<path class="st8" d="M219.7,371.8c-1.3-5.2-83.3-74.8-83.3-74.8S220.4,374.3,219.7,371.8z"/>
		<path class="st8" d="M216.4,370.3c-2-4.9-92.5-60.8-92.5-60.8S217.4,372.7,216.4,370.3z"/>
		<path class="st10" d="M219.7,363.6c-2-4.9-92.5-60.8-92.5-60.8S220.7,366,219.7,363.6z"/>
		<path class="st8" d="M223.6,372.7c-2-4.9-92.5-60.8-92.5-60.8S224.6,375.1,223.6,372.7z"/>
		<path class="st10" d="M223.5,376.4c-2-4.9-92.5-60.8-92.5-60.8S224.4,378.8,223.5,376.4z"/>
		<path class="st8" d="M191.5,393.2c-1.3-5.2-83.3-74.8-83.3-74.8S192.2,395.8,191.5,393.2z"/>
		<path class="st8" d="M190.8,396.8c-1.3-5.2-83.3-74.8-83.3-74.8S191.5,399.4,190.8,396.8z"/>
		<path class="st8" d="M187.8,401.5c-1.3-5.2-83.3-74.8-83.3-74.8S188.4,404,187.8,401.5z"/>
		<path class="st8" d="M191.3,408.1c-1.3-5.2-83.3-74.8-83.3-74.8S192,410.7,191.3,408.1z"/>
		<path class="st8" d="M193.2,398c-2-4.9-92.5-60.8-92.5-60.8S194.2,400.4,193.2,398z"/>
		<path class="st8" d="M193,401.7c-2-4.9-92.5-60.8-92.5-60.8S194,404.1,193,401.7z"/>
		<path class="st8" d="M195.2,409.1c-2-4.9-92.5-60.8-92.5-60.8S196.2,411.5,195.2,409.1z"/>
		<path class="st8" d="M195.1,412.8c-2-4.9-92.5-60.8-92.5-60.8S196,415.2,195.1,412.8z"/>
		<path class="st8" d="M195,370.2c-1.3-5.2-83.3-74.8-83.3-74.8S195.6,372.7,195,370.2z"/>
		<path class="st8" d="M201.3,384.2c-1.3-5.2-83.3-74.8-83.3-74.8S201.9,386.7,201.3,384.2z"/>
		<path class="st8" d="M202.5,391.8c-1.3-5.2-83.3-74.8-83.3-74.8S203.1,394.4,202.5,391.8z"/>
		<path class="st8" d="M201.8,395.5c-1.3-5.2-83.3-74.8-83.3-74.8S202.5,398,201.8,395.5z"/>
		<path class="st8" d="M200.2,381.7c-2-4.9-92.5-60.8-92.5-60.8S201.2,384.1,200.2,381.7z"/>
		<path class="st8" d="M203.5,389c-2-4.9-92.5-60.8-92.5-60.8S204.5,391.4,203.5,389z"/>
		<path class="st8" d="M205.7,396.4c-2-4.9-92.5-60.8-92.5-60.8S206.7,398.8,205.7,396.4z"/>
		<path class="st8" d="M205.5,400.1c-2-4.9-92.5-60.8-92.5-60.8S206.5,402.5,205.5,400.1z"/>
		<path class="st8" d="M100.2,354.9c1.7,5.1,88.4,67.6,88.4,67.6S99.3,352.4,100.2,354.9z"/>
		<path class="st8" d="M100,352.3c1.7,5.1,88.4,67.6,88.4,67.6S99.1,349.8,100,352.3z"/>
		<path class="st8" d="M98.2,344.8c1.7,5.1,88.4,67.6,88.4,67.6S97.4,342.3,98.2,344.8z"/>
		<path class="st8" d="M98.3,340.4c1.7,5.1,88.4,67.6,88.4,67.6S97.5,337.9,98.3,340.4z"/>
		<path class="st9" d="M96.5,350.3c2.4,4.8,96.6,52.9,96.6,52.9S95.4,348,96.5,350.3z"/>
		<path class="st8" d="M93.4,348.3c2.4,4.8,96.6,52.9,96.6,52.9S92.2,345.9,93.4,348.3z"/>
		<path class="st8" d="M94.7,340.5c2.4,4.8,96.6,52.9,96.6,52.9S93.5,338.2,94.7,340.5z"/>
		<path class="st8" d="M92,338.2c2.4,4.8,96.6,52.9,96.6,52.9S90.9,335.9,92,338.2z"/>
		<path class="st8" d="M88.8,372.4c2.4,4.8,96.5,53.2,96.5,53.2S87.6,370.1,88.8,372.4z"/>
		<path class="st8" d="M94.4,361.4c1.7,5.1,88.4,67.6,88.4,67.6S93.6,358.9,94.4,361.4z"/>
		<path class="st8" d="M88.7,358.3c1.7,5.1,88.4,67.6,88.4,67.6S87.8,355.8,88.7,358.3z"/>
		<path class="st8" d="M89.1,354.6c1.7,5.1,88.4,67.6,88.4,67.6S88.3,352.1,89.1,354.6z"/>
		<path class="st8" d="M88,364.9c2.4,4.8,96.6,52.9,96.6,52.9S86.8,362.6,88,364.9z"/>
		<path class="st10" d="M90.8,356.9c2.4,4.8,96.6,52.9,96.6,52.9S89.6,354.6,90.8,356.9z"/>
		<path class="st8" d="M85.1,354c2.4,4.8,96.6,52.9,96.6,52.9S84,351.7,85.1,354z"/>
		<path class="st9" d="M84.1,349.3c2.4,4.8,96.6,52.9,96.6,52.9S82.9,347,84.1,349.3z"/>
		<path class="st8" d="M106.1,316.9c1.7,5.1,88.4,67.6,88.4,67.6S105.2,314.4,106.1,316.9z"/>
		<path class="st8" d="M116.1,327.2c1.7,5.1,88.4,67.6,88.4,67.6S115.3,324.7,116.1,327.2z"/>
		<path class="st8" d="M114.4,319.6c1.7,5.1,88.4,67.6,88.4,67.6S113.5,317.2,114.4,319.6z"/>
		<path class="st8" d="M106,295.9c1.7,5.1,88.4,67.6,88.4,67.6S105.2,293.4,106,295.9z"/>
		<path class="st8" d="M113.7,326.2c2.4,4.8,96.6,52.9,96.6,52.9S112.5,323.9,113.7,326.2z"/>
		<path class="st9" d="M112.6,321.5c2.4,4.8,96.6,52.9,96.6,52.9S111.5,319.2,112.6,321.5z"/>
		<path class="st10" d="M110.8,315.4c2.4,4.8,96.6,52.9,96.6,52.9S109.7,313,110.8,315.4z"/>
		<path class="st8" d="M108.5,309.2c2.4,4.8,96.6,52.9,96.6,52.9S107.3,306.9,108.5,309.2z"/>
		<path class="st10" d="M123.1,339.7c1.7,5.1,88.4,67.6,88.4,67.6S122.3,337.2,123.1,339.7z"/>
		<path class="st8" d="M106.6,340.7c1.7,5.1,88.4,67.6,88.4,67.6S105.8,338.2,106.6,340.7z"/>
		<path class="st9" d="M103.9,332.1c1.7,5.1,88.4,67.6,88.4,67.6S103,329.7,103.9,332.1z"/>
		<path class="st8" d="M102.2,326.9c1.7,5.1,88.4,67.6,88.4,67.6S101.3,324.5,102.2,326.9z"/>
		<path class="st8" d="M104.2,339.8c2.4,4.8,96.6,52.9,96.6,52.9S103,337.5,104.2,339.8z"/>
		<path class="st9" d="M103.1,335c2.4,4.8,96.6,52.9,96.6,52.9S101.9,332.7,103.1,335z"/>
		<path class="st8" d="M83.9,321c2.4,4.8,96.6,52.9,96.6,52.9S82.7,318.7,83.9,321z"/>
		<path class="st10" d="M96.1,336.3c2.4,4.8,96.6,52.9,96.6,52.9S94.9,334,96.1,336.3z"/>
		<path class="st11" d="M88.8,336.3c2.4,4.8,96.6,52.9,96.6,52.9S87.6,334,88.8,336.3z"/>
		<path class="st11" d="M88.8,330.7c2.4,4.8,96.6,52.9,96.6,52.9S87.6,328.3,88.8,330.7z"/>
		<path class="st11" d="M121.1,304.7c2.4,4.8,96.6,52.9,96.6,52.9S119.9,302.4,121.1,304.7z"/>
		<path class="st11" d="M89.8,369.7c2.4,4.8,96.6,52.9,96.6,52.9S88.7,367.4,89.8,369.7z"/>
		<path class="st11" d="M101,351c1.9,5,90.4,64.5,90.4,64.5S100.1,348.5,101,351z"/>
		<path class="st11" d="M110.3,317.1c1.8,5.1,88.9,66.8,88.9,66.8S109.4,314.6,110.3,317.1z"/>
		<path class="st11" d="M113.1,319.7c1.8,5.1,88.9,66.8,88.9,66.8S112.2,317.2,113.1,319.7z"/>
		<path class="st11" d="M96.4,327.6c1.8,5.1,88.9,66.8,88.9,66.8S95.5,325.1,96.4,327.6z"/>
		<path class="st11" d="M97.8,330.4c1.8,5.1,88.9,66.8,88.9,66.8S96.9,328,97.8,330.4z"/>
	</g>
</g>
<g class="st12">
	<path class="st13" d="M161.3,280.2c0.6,2-123,10.9-123,10.9c-8.2,0.7-27.2-14.8-27.2-14.8L10.2,98.9l14-48.1
		c43,0.7,115.1,6.1,118.7,4.1c3.5-2,3.7,6.8,3.7,6.8c-0.5,4.9,16,46.2,16,46.2C163.2,111.9,161.3,280.2,161.3,280.2z"/>
	<g>
		<path d="M160.5,280.2c0-0.8-0.8-0.3-1.9-0.1c-1.9,0.3-3.8,0.5-5.7,0.8c-5.5,0.6-11,1.1-16.5,1.7c-15.1,1.4-30.2,2.6-45.4,3.8
			c-13.8,1.1-27.5,2.1-41.3,3.1c-3.4,0.3-6.8,0.6-10.2,0.8c-5.2,0.2-9.8-2.2-14.2-4.9c-3.6-2.1-7-4.5-10.3-7
			c-0.9-0.7-2.3-1.4-3.1-2.4c-0.6-0.8,0,0.6-0.1,0.1c-0.5-1.5,0-4.1,0-5.6c-0.1-10-0.1-20-0.2-29.9c-0.2-30.7-0.3-61.4-0.5-92.1
			C11.1,136.2,11,124,11,111.7c0-4.1-0.6-9.8,0.1-13.3c1-5.4,3.1-10.7,4.7-16c2.1-7.3,4.2-14.5,6.4-21.8c0.7-2.3,1.4-4.7,2.1-7
			c0.9-3.2,0.3-2.2,3.7-2.1c10.7,0.2,21.5,0.6,32.2,1.1c21.2,0.9,42.3,2.2,63.5,3c5.6,0.2,11.5,0.7,17.1,0.2
			c2.1-0.2,3.3-0.9,4.5,1.4c0.9,1.6,0.5,4,0.7,5.8c0.9,6.5,3.9,13.1,6.1,19.3c2.6,7,5.2,14,8,20.9c0.9,2.2,1.7,3.9,1.9,5.9
			c0.2,2.9,0.1,5.9,0.1,8.8c0,52.6-0.8,105.3-1.4,157.9C160.5,277.4,160.5,278.8,160.5,280.2c0,1,1.5,1,1.5,0
			c0.5-44.1,1-88.3,1.3-132.4c0.1-10.3,0.1-20.5,0.1-30.8c0-4,0.4-8-1-11.7c-4.8-12.1-9.7-24.3-13.5-36.7c-1.2-3.8-1-7.9-2.2-11.6
			c-1.3-3.9-3.2-2.7-6.4-2.4c-15.8,1.1-32.2-0.9-47.9-1.7c-22.7-1.1-45.4-2.4-68.1-2.7c-0.3,0-0.6,0.2-0.7,0.6
			C19.6,64,15.7,77.4,11.7,90.8c-0.8,2.8-2,5.7-2.3,8.6c-0.3,2.7,0,5.6,0,8.3c0.2,31.8,0.3,63.5,0.5,95.3
			c0.1,16.5,0.2,32.9,0.3,49.4c0,5.5,0.1,11,0.1,16.4c0,2-0.6,5.3,0,7.3c0.3,0.9,0.8,1.1,1.6,1.8c3,2.6,6.4,4.8,9.7,7
			c5.1,3.3,11,7.2,17.3,6.9c11.3-0.5,22.7-1.7,34-2.5c18.2-1.4,36.3-2.8,54.4-4.4c7.2-0.6,14.5-1.3,21.7-2.1c3.3-0.3,8.5,0,11.6-1.5
			c0.5-0.3,1.3-0.2,1.3-1.1C162,279.3,160.5,279.3,160.5,280.2z"/>
	</g>
</g>
<g>
	<path class="st13" d="M29.9,70.2C18.7,85,11.4,96.1,11.4,96.1H10c0,0,16.9,10.7,26.8,9.4l-1,185.5l0.3-187.3L24.9,50v1.7l11.2,53.7
		l-0.3,187.3"/>
	<g>
		<path d="M29.9,69.6c-4.9,6.6-9.8,13.2-14.5,19.9c-1.4,2-2.8,6-5.5,6c0,0-0.1,1.2,0,1.3c3.8,2.4,7.8,4.4,11.9,6.2
			c2.9,1.2,5.8,2.3,8.9,2.8c1.2,0.2,3.2,0.8,4.5,0.4c0.5-0.1,1.5-0.9,1.5-0.9c0.8,0.6,0,7.8,0,8.8c-0.1,16.2-0.2,32.5-0.3,48.7
			c-0.2,38.7-0.4,77.3-0.6,116c0,3.7-0.1,7.4-0.1,11.2c0,2.8,0-1.9,0-2.7c0-13.8,0-27.6,0.1-41.5c0.1-40.3,0.1-80.7,0.2-121
			c0-7.1,0.8-14.7,0-21.8c-0.7-6.4-2.7-12.9-4-19.2c-2-9.7-4-19.3-6-29c-0.4-1.8-0.8-3.7-1.2-5.5c0,0.2,0,0.4,0,0.6
			c0,5.4,1.8,10.9,2.9,16.1C30,77,32.3,88,34.6,98.9c0.5,2.4,1.1,4.7,1.5,7.1c-0.3-1.7,0,0.9,0,1.4c0,5.3,0,10.6,0,15.9
			c-0.1,43.6-0.1,87.1-0.2,130.7c0,12.8,0,25.7-0.1,38.5c0,0.4,0,1.2,0,0.3c0.1-32.2,0.1-64.4,0.2-96.6c0-21.5,0.1-43,0.1-64.5
			c0-8.8,0.9-18.1,0-26.9c-0.7-6.9-2.9-13.9-4.3-20.6c-2.1-10-4.2-20-6.3-30c-0.2-0.9-0.4-1.8-0.6-2.8c-0.1-0.5-0.2-1.3,0.1-0.2
			c0.8,3,1.3,6.1,1.9,9.1c2.3,10.9,4.6,21.8,6.8,32.7c0.7,3.4,1.3,6.9,2.2,10.3c0.4,1.7,0.1-0.8,0.2,1.1c0.1,4.5,0,9,0,13.5
			c0,19.6-0.1,39.2-0.1,58.8c-0.1,37.3-0.1,74.5-0.2,111.8c0,0.7,0,1.5,0,2.2c0,0.2,0,1.2,0,0.5c0.1-20.9,0.2-41.9,0.3-62.8
			c0.2-33.2,0.4-66.4,0.5-99.6c0-7.7,0.1-15.4,0.1-23.1c0-0.1,0-0.9,0-0.9c-9.2,0.9-19.2-4.6-26.8-9.4c0,0.4,0,0.8,0,1.3
			c2.6,0,4-3.9,5.5-6C20.1,84,25,77.4,29.9,70.8C30.1,70.6,29.7,69.8,29.9,69.6L29.9,69.6z"/>
	</g>
</g>
<g>
	<path class="st7" d="M84.9,157.3c-1.6,0.6-3.4,2.6-4.1,4c-0.6,1.1-0.9,2.4-0.8,3.7c0,1,0.2,2,0.4,2.9c0.3,1.5,1.3,2.6,2.6,3.1
		c1.9,0.8,4,0.6,5.2-1.3c1-1.6,1.3-3.8,1.1-5.7c-0.2-2.2-0.8-6.2-3-6.8C85.8,157.1,85.4,157.2,84.9,157.3z"/>
	<g>
		<path class="st14" d="M84.9,156.7c-3.3,1.5-5,4.9-4.9,8.4c0,3.4,1.7,8.3,6.2,6.8C90.9,170.5,90.4,155.6,84.9,156.7
			c-0.1,0,0.1,1.2,0,1.3c4.6-1,4.8,8,3.6,10.5c-1,2.1-3,3-5.2,2.2c-2.7-1-3.2-3.6-3.4-6.2c0,0.4,0,0.8,0,1.2
			c0.1-3.2,1.9-6.3,4.9-7.7C85.1,157.9,84.8,156.8,84.9,156.7z"/>
	</g>
</g>
<g>
	<path class="st7" d="M89.7,145.8c-0.8,0.5-1.6,1.2-2.1,2c-1.3,2-0.9,4.4,0.1,6.4c1.7,3.3,4.5,5.7,7.4,2.6c0.9-1,1.1-2.3,1.1-3.7
		c0-1.4,0.2-3-0.1-4.5c-0.2-1-0.6-2-1.3-2.7c-0.8-0.7-1.7-0.6-2.6-0.7C91.3,145.1,90.5,145.3,89.7,145.8z"/>
	<g>
		<path class="st14" d="M89.7,145.2c-2.2,1.5-3.1,3.5-3,6.1c0.1,3,3.3,9.5,7.2,7.2c2.7-1.6,2.3-5.1,2.3-7.8c0-1.4,0-2.8-0.6-4.1
			C94.6,144.3,91.7,144.2,89.7,145.2c-0.2,0.1,0.2,1.2,0,1.3c2.4-1.2,5.3-0.7,6.2,2.1c0.9,2.7,0.7,7.7-2.5,8.9
			c-2.3,0.9-4.3-1.4-5.3-3.2c-1.8-3-1.3-5.9,1.6-7.8C89.9,146.3,89.5,145.3,89.7,145.2z"/>
	</g>
</g>
<g>
	<path class="st7" d="M99.3,146.6c0.1-0.1,0.3-0.2,0.5-0.3c1.2-0.5,3.1-0.3,4.3,0.4c1.8,1,2.9,3.3,3.4,5.5c0.3,1.3,0.3,2.8-0.1,4
		c-0.4,1.1-1.6,2.6-2.8,2.3c-0.2,0-0.3-0.1-0.5-0.2c-3.1-2-5-6.1-5.3-10.1c0-0.3,0-0.6,0.1-0.9C98.9,147.1,99.1,146.8,99.3,146.6z"
		/>
	<g>
		<path class="st14" d="M99.3,147.3c4.8-2.9,8,3.4,8.3,7.2c0-0.4,0-0.7,0-1.1c0,1.5-0.4,3.6-1.9,4.3c-1.4,0.7-2.6-0.6-3.5-1.6
			c-2.1-2.3-3.2-5.4-3.5-8.5c0,0.4,0,0.8,0,1.2C98.7,148.2,98.9,147.6,99.3,147.3c0.2-0.2-0.2-1,0-1.3c-1,1.1-0.5,3.8-0.2,5.1
			c0.5,2.4,4.4,11.1,7.6,6.9c3.3-4.3-1.3-15.8-7.4-12C99.1,146.1,99.5,147.1,99.3,147.3z"/>
	</g>
</g>
<g>
	<path class="st7" d="M109.9,164.1c0-0.1,0-0.2,0-0.3c-0.1-1.4-0.2-3.4,0.6-4.6c1.3-2.1,4.1,0.3,5.3,1.5c0.2,0.2,0.3,0.3,0.5,0.5
		c0.2,0.3,0.4,0.6,0.5,1c0.6,1.7,1.1,3.6,1.1,5.5c0,0.8-0.2,1.5-0.4,2.2c-0.2,0.5-0.8,1.7-1.3,1.8c-1.9,0.3-3.9-1.5-4.8-3.3
		C110.6,167.1,110.1,165.6,109.9,164.1z"/>
	<g>
		<path class="st14" d="M109.9,163.5c-0.3-3.2,1.1-5.6,4.2-3.5c2.7,1.9,3.6,4.8,3.7,8c0-0.3,0-0.6,0-0.9c-0.2,2.4-1.1,5-3.9,3.5
			C111.3,169.2,110.3,166.2,109.9,163.5c0.1,0.4-0.1,0.8,0,1.3c0.3,2.3,1.1,4.7,2.8,6.3c1.5,1.4,3.4,2,4.5-0.1
			c0.9-1.9,0.8-4.6,0.3-6.6c-0.5-2.2-1.1-3.8-2.9-5.2c-1.3-1-3.2-2.1-4.3-0.2c-0.9,1.5-0.6,4.2-0.4,5.9
			C109.9,164.3,110,163.9,109.9,163.5z"/>
	</g>
</g>
<g>
	<path class="st7" d="M93.8,174.1C93.8,174.1,93.8,174.1,93.8,174.1c0.2-0.2,0.1-0.5,0.1-0.8c0-0.3,0-0.6,0.1-0.9
		c0-0.6,0.1-1.2,0.3-1.8c0.4-1.1,1-2,1.8-2.7c1.6-1.3,3.8-1.7,5.8-1.5c1.2,0.1,2.4,0.4,3.4,1.2c1.1,0.9,1.8,2.4,2,3.9
		c0.1,0.6,0,1.2,0.3,1.7c0.3,0.6,0.9,0.9,1.4,1.1c1.7,0.9,3.3,2.3,4.2,4.3c0.9,2,0.8,4.6-0.5,6.1c-0.9,1.1-2.3,1.6-3.6,1.9
		c-5.4,1.3-11,1.5-16.6,0.8c-1.5-0.2-3.1-0.5-4.1-1.9c-1.2-1.6-1.1-4.7-0.2-6.4c0.5-1,1.2-1.9,1.9-2.6c0.7-0.8,1.6-1.4,2.5-1.9
		c0.3-0.2,0.6-0.3,1-0.5C93.7,174.2,93.8,174.2,93.8,174.1z"/>
	<g>
		<path class="st14" d="M93.8,174.7c1.4-1.8,0.2-4.3,2.4-6.1c2.2-1.8,6.2-2.2,8.7-0.7c2.7,1.7,1.7,4.6,3.4,6.7
			c0.8,0.9,2.3,1.3,3.2,2.2c1.5,1.5,2.1,3.1,2.3,5.1c0-0.4,0-0.8,0-1.2c-0.4,6.5-8.8,6.5-13.8,6.6c-5.1,0.1-12.3,0.7-12.4-6
			c0,0.4,0,0.8,0,1.2C88.3,178.5,90.7,176.8,93.8,174.7c0.2-0.1-0.2-1.1,0-1.3c-3.7,2.5-6.9,5.6-6.2,10.3c0.8,5,6.5,4.7,10.5,4.7
			c4.3,0.1,13.8,0.4,15.4-4.7c0.3-0.9,0.3-2,0.3-2.9c-0.3-4-2.7-4.8-5.1-7.3c-1.5-1.5-1-2.9-2-4.8c-1.1-2.2-3.1-2.9-5.5-2.9
			c-2.3,0-4.7,0.8-6.1,2.7c-0.9,1.3-0.5,3.9-1.3,4.9C93.6,173.7,94,174.5,93.8,174.7z"/>
	</g>
</g>
</svg>
