<svg id="圖層_1" data-name="圖層 1" xmlns="http://www.w3.org/2000/svg" viewBox="0 0 569 796.5"><defs><style>.cls-1{fill:#fdd3be;}.cls-1,.cls-2,.cls-3,.cls-7{stroke:#000;}.cls-1,.cls-2,.cls-3,.cls-6,.cls-7{stroke-miterlimit:10;}.cls-2{fill:none;}.cls-3{stroke-width:2px;}.cls-4{fill:#f93535;}.cls-5{fill:#fff;}.cls-6{stroke:#c1272d;stroke-width:0.75px;}</style></defs><title>index_give_help_volunteer</title><path class="cls-1" d="M269.73,896.78c-.09,3.12-3.17,5.6-6.94,5.62l-87.5.43c-3.47,0-6.07-2.61-5.35-5.42,6-23.58,11.62-47.31,15.44-71.21,1-6.32,1.54-12.58,2.39-18.91.44-3.28.71-6.63-.23-9.84-1.66-5.65-7.45-8-12.34-11.62l-11.45-8.4q-15.17-11.13-30.28-22.29c-11.39-8.43-23.05-16.68-34.11-25.39-7.68-6.06-16.21-11.42-23.28-18-7.65-7.1-10-15.48-13.77-24.23q-6.6-15.19-13.35-30.31C43.46,645,38.37,632.31,32.16,620.18S18,597,8.65,586.14c-2.11-2.46-4-5.43-3.59-8.54.47-3.57,5.48-4.51,9.07-4.48,7.38.06,11.94,6,16.26,10.1,3,2.8,5.91,5.6,8.82,8.44,1.51,1.48,3,3,4.47,4.47.7.72,5.14,5,5.14,5.92.57-7.22-2.49-20.3-2.49-20.3-2.33-8.18-8-19.05-6.09-27.6.95-4.17,5.28-9.72,12.07-5.81a13,13,0,0,1,1.92,1.37c23.29,19.54,27.3,51.81,27.3,77.87,0,0,0,.1,0,.14q2.8,1.49,6,3.53s10.83,9.63,23.92,19.89l.32.25c6.35,5,13.2,10.07,19.61,14.29A87.22,87.22,0,0,0,146.55,674c19.78,7.49,39.38,16.32,56.95,27,16.69,10.1,29.45,24.19,41,38.18a107.55,107.55,0,0,1,12.6,18.28c6.64,12.7,5.55,28.48,6.76,42.16s2.34,27.42,3.34,41.15C268.56,859.36,270.27,878.13,269.73,896.78Z" transform="translate(-4.5 -106.83)"/><path class="cls-2" d="M47.18,599.74l.51.57C55.58,609,62,617.61,61.77,622.68" transform="translate(-4.5 -106.83)"/><path class="cls-2" d="M81,627.11c-23.3-12.31-25.89,3-25.89,3-9,15.42,63.81,71.64,63.81,71.64" transform="translate(-4.5 -106.83)"/><path class="cls-2" d="M47.32,598.3" transform="translate(-4.5 -106.83)"/><path class="cls-1" d="M131.23,665.38c-6.41-4.22-13.26-9.32-19.61-14.29l-.32-.25s0,0,0-.07c-.93-3.28-8.11-28.66-11.4-43.69,13.91-4.75,20.88,19.57,20.88,19.57C126.83,651.8,129.75,662.5,131.23,665.38Z" transform="translate(-4.5 -106.83)"/><path class="cls-2" d="M99.88,607.08c-.26.09-.52.19-.79.3" transform="translate(-4.5 -106.83)"/><path class="cls-2" d="M131.59,666a3.86,3.86,0,0,1-.36-.58" transform="translate(-4.5 -106.83)"/><path class="cls-1" d="M111.28,650.77C98,640.42,87.05,630.64,87.05,630.64q-3-1.93-5.7-3.36l-.32-.17c-1.59-19.45-5.12-37-12.62-60.14l.1-.1c11.84-13.16,28.52,22.91,30,32.92.28,1.9.77,4.4,1.4,7.29C103.18,622.11,110.35,647.5,111.28,650.77Z" transform="translate(-4.5 -106.83)"/><path class="cls-2" d="M68.41,567l0,0" transform="translate(-4.5 -106.83)"/><path class="cls-2" d="M111.38,651.13l-.08-.28" transform="translate(-4.5 -106.83)"/><path class="cls-2" d="M47.18,599.74s0,.06,0,.09" transform="translate(-4.5 -106.83)"/><path class="cls-2" d="M81,627.16v0" transform="translate(-4.5 -106.83)"/><path class="cls-1" d="M306.76,896.35c.08,3.12,3.14,5.61,6.92,5.64l87.5.72c3.47,0,6.08-2.59,5.38-5.4-5.88-23.6-11.4-47.35-15.1-71.26-1-6.32-1.48-12.59-2.3-18.92-.43-3.28-.68-6.64.27-9.83,1.69-5.64,7.49-8,12.4-11.58l11.49-8.36q15.22-11.08,30.39-22.19c11.43-8.39,23.13-16.6,34.23-25.28,7.71-6,16.26-11.36,23.36-17.92,7.68-7.08,10.05-15.45,13.88-24.19q6.67-15.17,13.5-30.27c5.55-12.24,10.69-24.88,17-37s14.29-23.16,23.67-34c2.12-2.45,4-5.42,3.63-8.53-.45-3.58-5.46-4.53-9.05-4.51-7.38,0-12,6-16.31,10-3,2.79-5.94,5.58-8.86,8.41-1.51,1.47-3,3-4.49,4.46-.7.71-5.16,5-5.17,5.9-.53-7.22,2.59-20.29,2.59-20.29,2.37-8.17,8.14-19,6.23-27.58-.93-4.17-5.24-9.73-12-5.84a13.07,13.07,0,0,0-1.93,1.36c-23.39,19.47-27.55,51.72-27.67,77.78,0,0,0,.1,0,.14q-2.81,1.48-6,3.51s-10.87,9.59-24,19.81l-.32.25c-6.37,4.95-13.25,10-19.68,14.23A87.39,87.39,0,0,1,431,674c-19.82,7.43-39.46,16.19-57.07,26.77-16.73,10-29.57,24.09-41.17,38.05a107.78,107.78,0,0,0-12.69,18.24c-6.7,12.68-5.69,28.46-7,42.14s-2.47,27.42-3.54,41.14C308.1,858.93,306.31,877.7,306.76,896.35Z" transform="translate(-4.5 -106.83)"/><path class="cls-2" d="M516,622.93c-.21-5.07,6.25-13.7,14.18-22.33l.52-.57" transform="translate(-4.5 -106.83)"/><path class="cls-2" d="M458.46,701.84s73.1-56,64.15-71.43c0,0-2.51-15.35-25.87-3.11" transform="translate(-4.5 -106.83)"/><path class="cls-2" d="M530.59,598.6" transform="translate(-4.5 -106.83)"/><path class="cls-1" d="M446.36,665.4c6.43-4.2,13.31-9.28,19.68-14.23l.32-.25s0,0,0-.07c.95-3.27,8.24-28.64,11.61-43.65-13.89-4.79-21,19.51-21,19.51C450.82,651.83,447.85,662.52,446.36,665.4Z" transform="translate(-4.5 -106.83)"/><path class="cls-2" d="M478.78,607.51c-.27-.11-.53-.21-.79-.3" transform="translate(-4.5 -106.83)"/><path class="cls-2" d="M446.36,665.4a3.87,3.87,0,0,1-.36.58" transform="translate(-4.5 -106.83)"/><path class="cls-1" d="M466.37,650.86c13.29-10.31,24.33-20.05,24.33-20.05q3-1.92,5.71-3.34l.33-.17c1.68-19.44,5.29-37,12.91-60.1l-.1-.1c-11.77-13.2-28.63,22.82-30.13,32.83-.29,1.89-.79,4.4-1.43,7.29C474.62,622.22,467.32,647.59,466.37,650.86Z" transform="translate(-4.5 -106.83)"/><path class="cls-2" d="M509.67,567.22l0,0" transform="translate(-4.5 -106.83)"/><path class="cls-2" d="M466.35,650.93l-.08.28" transform="translate(-4.5 -106.83)"/><path class="cls-2" d="M530.73,600.12s0-.06,0-.09" transform="translate(-4.5 -106.83)"/><path class="cls-2" d="M496.74,627.3v0" transform="translate(-4.5 -106.83)"/><path d="M200.57,224.13s5.15-15-5.42-5a3.36,3.36,0,0,1-1.15.72c-3.14,1.13-16.68,5.84-18,3.22,0,0-22.25-12.43-22.88-26.89a3.22,3.22,0,0,0-.35-1.37,81.93,81.93,0,0,0-8.66-13.26,47.89,47.89,0,0,0-7.52-7.66,26.85,26.85,0,0,0-4.3-2.82c-1.81-.93-4.77-1.14-5.82-3.1-6.78-12.64-9.36-30.68,5.94-38.17,2.3-1.12,7.51-3.28,7.59-6.74s-8.17,0-9.5.53c0,0-14.17,5-18.72,18.22s1.33,25.11,2.8,28.09-14,5-9.16,26.21a3,3,0,0,1,.07.5c.1,1.67.69,11.31,1.89,14.72a3.81,3.81,0,0,1,.24,1.13c.22,6.11,1.68,12.84,5.17,18s9.55,6.24,15.21,8.19a3.35,3.35,0,0,0,.58.14c.57.09,5.51.35,3.61-.64-1.06-.55-2.12-1-3.22-1.42-5.14-2.13-9.44-2.71-12.48-7.9a4.06,4.06,0,0,1-.55-3c.89-3.35,5.32-2.5,7.61-1.42,2.81,1.33,5.82,2.11,8.63,3.43,5.08,2.39,8.27,7.33,12.45,11,3.75,3.25,8.75,5.25,13.11,7.6a3.37,3.37,0,0,0,.5.22c6.21,2.14,12.43,4.24,18.63,6.42,5.11,1.8,9.64,5.13,14.64,7.26,5.4,2.3,11,4.18,16.55,5.95,11,3.46,22.11,6.48,32.56,11.34,1.24.58,2.78,1.77,4.23,1.62a1,1,0,0,0,.59-.23c.44-.41.16-1.15-.17-1.66a12.55,12.55,0,0,0-6.76-5.55c-3.35-1.14-6.71-2.36-9.52-4.57-2.66-2.09-5.22-3-8.37-4.06s-3.93-5.59-6.84-7.2a25.73,25.73,0,0,0-3.71-1.27c-3.4-1.24-5.14-4.61-7.22-7.32a3.32,3.32,0,0,1-.35-.55l-2.79-5.65.76-2.2c1.22-.59,2.48-1.63,3.87-1.15,2.38.83,5.28,2.29,5.43-1.58a9,9,0,0,0-1.19-3.56,25.8,25.8,0,0,0-5.79-7.71Z" transform="translate(-4.5 -106.83)"/><path d="M200.57,224.76c.77-2.28,1.74-5.26,1.24-7.72-.66-3.25-3.16-1.47-5.11.11-3.33,2.7-7.17,3.73-11.31,4.83-3.11.83-6.54,1.95-9.42.46a48.45,48.45,0,0,1-5.88-3.83c-7.55-5.43-15.14-12.44-16.87-22-1.21-6.67-6.91-13.48-11.42-18.45a36.63,36.63,0,0,0-8-6.91c-2.18-1.31-5.25-1.62-7-3.52-3.11-3.44-4.67-10.39-5.3-14.88-.84-6,0-12.21,3.91-17,3.46-4.29,8.64-5.15,12.54-8.64,1.2-1.07,2.44-2.87,2-4.61-.94-4.16-9.6.23-12.38,1.63-10.1,5.08-16.93,14.25-17.51,25.75a38.81,38.81,0,0,0,2.76,16.73c.5,1.27,1.68,2.87,1.79,4.23v-1.25c-.25,1.44-2.41,2.51-3.42,3.37a18.61,18.61,0,0,0-5.42,7.09c-2.08,5.07-1.41,10.54-.58,15.78,1.46,9.24,1.3,19,4.18,28,2,6.17,5.41,10.6,11.52,13,1.18.46,10.62,4.45,11.66,2.14a3.92,3.92,0,0,0,0-1.25c-5.8-4.41-13.6-3.22-16.69-11.11v1.16c.14-8.18,14.43-.63,17.61,1.25s5.41,4.53,7.85,7.06a39.21,39.21,0,0,0,10.34,7.71c8.06,4.22,16.68,6.5,25.16,9.71,7.58,2.87,14.34,7.37,22,10.13,8.45,3,17.12,5.41,25.65,8.21,4,1.32,8,2.74,11.93,4.37,1.83.76,8.19,5.06,9.18,2.41.55-1.48-1.16-3.32-2-4.2-2.41-2.67-5.53-3.44-8.75-4.75-3.62-1.47-6.45-4-10-5.67-1.86-.86-4.12-1.23-5.76-2.47-1.22-.93-1.87-2.35-2.77-3.56-2.46-3.29-5.61-3.05-8.67-5.37-3.9-3-6-8-8.09-12.24v1.25c.5-1.46.59-2.1,2-2.87,2.16-1.18,3.3.31,5.36.41s2.63-.9,2.71-2.92c.2-5-4.71-11.28-9.21-12.83.12,0-.14,1.2,0,1.25,4.59,1.58,8.48,7.26,9.2,12v-1.25c-.72,4.92-5.06.47-8.06,2.06a3.61,3.61,0,0,0-2,3.33c0,2.82,2.68,6.35,4.3,8.57a20.21,20.21,0,0,0,3.8,4.46c1.84,1.4,4.06,1.41,6,2.55,3.59,2.15,4.16,6.1,8.37,7.73,4.83,1.87,8.68,5.21,13.5,7.08,4.15,1.61,8.08,3,10,7.43V277.5c-.69,2.7-8.32-2.08-10-2.77-3.92-1.6-7.93-3-12-4.3-8-2.6-16.05-4.83-24-7.63s-15-7.42-22.84-10.43c-8.19-3.14-16.57-5.31-24.4-9.32a38.43,38.43,0,0,1-10-7c-2.49-2.5-4.73-5.31-7.65-7.34-3.24-2.26-7.51-3.66-11.23-5-2.11-.74-5.05-1.84-6.87.11a4.9,4.9,0,0,0-.77,4.12c1.71,7.69,11.67,7.29,16.69,11.11v-1.25c-1.26,2.81-13.59-2.88-14.93-3.64-8.15-4.61-8.75-14.12-10.06-22.33-.83-5.21-1.45-10.38-2.12-15.63-.79-6.23-1.79-12.2,1.86-17.7,1.78-2.69,7.58-5.27,7.31-8.73a8.9,8.9,0,0,0-1.08-2.6,41.78,41.78,0,0,1-2.81-8.82,28.84,28.84,0,0,1,7-25.71,35.9,35.9,0,0,1,12-8.17c2.09-.89,9.62-4.47,10.2-.81v-1.25c-.53,3.13-3.32,4.6-5.92,5.94-3.26,1.69-6.31,3.33-8.66,6.25-3,3.78-4.21,8.49-4.3,13.27a38.22,38.22,0,0,0,1.61,11.65c.85,2.87,1.91,6.64,3.75,9.05,1,1.34,2.21,1.73,3.74,2.32a24.14,24.14,0,0,1,6.38,3.6A52.25,52.25,0,0,1,146.28,185c2.68,3.66,6,7.91,6.91,12.38a30.23,30.23,0,0,0,9.11,16,80.69,80.69,0,0,0,12.15,9.41c3,2,5.2,1.82,8.82,1a66.82,66.82,0,0,0,9.3-2.76c2.33-.91,5-4.6,7.44-4.6,3.26,0,1.22,5.22.59,7.11C200.45,223.88,200.7,224.39,200.57,224.76Z" transform="translate(-4.5 -106.83)"/><path class="cls-3" d="M264.13,119.2s.23-12,4.23-9.86,3.29,3.35,3.91,11.37l1.59,1.34a62.39,62.39,0,0,1,5.09,4.3,4.2,4.2,0,0,1,1.42,3.17c-.09.61-.44,1.14-.56,1.75-.35,1.74,2.3,3.75,3.92,5.13,2.25,1.92,3.48,3.62,4,6,.44,2.16.32,4.28,1.11,6.45.35,1,.88,1.92,1.2,2.88.76,2.26.84,6.07-.23,7.94l-1.13,2-1.41,2.46c-.23.4-2.59.64-3.1.79-5.43,1.6-4.57,4.76-5.83,8.53a4.76,4.76,0,0,1-2.67,3,6.69,6.69,0,0,1-5.19-.18c1.4-2.12.34-5.13.89-7.51l.33-1.4c-.93-.14-1.87-.3-2.79-.37-.13,1.08.79,2.69,1.09,3.9.44,1.75-1.11,3-1.92,4.44l-2.26-1-1.13-.51-1.41-2.5-4.19-3.44-2.21-1.93-1.55,2.71c-1.86.49-4.45,1.72-6.5-.3A3.44,3.44,0,0,1,248,167a6.06,6.06,0,0,1-.06-4.62c-1.53-1.15-4.32-2.69-4.41-4.32,0-.58.27-1.08.22-1.66-.09-1-1.1-1.87-1.78-2.8-1.82-2.48-.44-3.76-.09-5.86a2.76,2.76,0,0,0,0-.94c-.57-3.23,1.54-5.79,3.17-8.28l.7.18c-1.53-.4,4.38-8.15,5-8.62s1.3-.89,1.5-1.55c.48-1.59-1.78-3.19-.74-4.71.76-1.12,4.07-3.17,3.62-4.67-.72-2.44-2.64-4.88-3.29-7.38-.28-1.07-.82-2.94.32-3.61,2.89-1.69,5.51,3.1,6.58,4.68.43.64,3.31,5.92,4.1,6.08Z" transform="translate(-4.5 -106.83)"/><path class="cls-4" d="M483.13,507l.85.75L294.78,674,105.58,507.74l.85-.75c-26-21.24-42.25-51.6-42.25-85.28,0-64.4,59.41-116.61,132.7-116.61,38.33,0,72.88,14.28,97,37.13a10.23,10.23,0,0,1,.85.78,10.23,10.23,0,0,1,.85-.78c24.17-22.84,58.72-37.13,97-37.13,73.29,0,132.7,52.21,132.7,116.61C525.37,455.4,509.12,485.76,483.13,507Z" transform="translate(-4.5 -106.83)"/><path class="cls-5" d="M220.39,418.6c-10.14,1-22,7.39-27.31,11.91a22.94,22.94,0,0,0-8,12.61c-.71,3.43-.27,7.13.21,10.57.79,5.62,5.42,10,12.54,12.62,10.42,3.82,22.94,4.4,31.58-1.79A26,26,0,0,0,240.31,445c.45-7.77.37-22.51-12.38-25.95A21.09,21.09,0,0,0,220.39,418.6Z" transform="translate(-4.5 -106.83)"/><path class="cls-5" d="M258.09,380.45a43.21,43.21,0,0,0-14.26,5.94c-9.2,6.2-9.06,15-4.38,22.88,7.48,12.57,22.19,22.63,41.28,13.27,6.06-3,8.29-7.67,9.5-12.57,1.26-5.1,3.42-10.68,3.1-15.86a13.78,13.78,0,0,0-5.46-10.18c-3.91-3-9.71-3.06-15-4A37.47,37.47,0,0,0,258.09,380.45Z" transform="translate(-4.5 -106.83)"/><path class="cls-5" d="M314,389a14.61,14.61,0,0,1,3.14-.78c7.76-1.06,18.2.84,24.73,3.85,9.85,4.54,14.32,13.41,15.45,21.34a17.74,17.74,0,0,1-3.82,14.26c-3.21,3.77-11.55,8.43-18.32,6.7a11.51,11.51,0,0,1-2.55-1.07c-16.47-8.73-24.65-24.64-23-39a6.11,6.11,0,0,1,1-3A7.33,7.33,0,0,1,314,389Z" transform="translate(-4.5 -106.83)"/><path class="cls-5" d="M362.19,456.92q0-.54.06-1.07c.39-4.94,1.76-12.25,7-15.92,9.51-6.66,24,3.58,30.26,8.41a16.19,16.19,0,0,1,2.41,2.18,12,12,0,0,1,2,3.77c2.35,6.35,3.73,13.43,1.84,19.93a17.8,17.8,0,0,1-4.47,7.69c-1.56,1.57-6.05,5.48-9.1,5.48-11.46,0-21.8-7.51-25.81-14.28A29.35,29.35,0,0,1,362.19,456.92Z" transform="translate(-4.5 -106.83)"/><path class="cls-5" d="M259,484.41l.11-.06c1-.58,1-1.79,1.3-2.61.34-1.07.67-2.14,1.06-3.2a18.78,18.78,0,0,1,3.4-6A30.89,30.89,0,0,1,278,464.08c10.79-3.78,23.56-3.84,35.37-2.13,7,1,14.08,2.71,19.32,6.14,5.81,3.8,8.8,9.54,8.43,15.12-.14,2.09-.69,4.28.44,6.22,1.3,2.23,4.49,3.56,7.36,4.87,9.35,4.25,17.7,10.16,21.13,17.62s.93,16.58-7.9,21.35c-6.39,3.45-14.85,4.2-22.89,4.58a449.86,449.86,0,0,1-98.39-6.63c-8.59-1.5-17.88-3.61-22.55-8.9-5.76-6.52-2.91-17.28,4-22.86a63.18,63.18,0,0,1,13.29-8.18,84,84,0,0,1,16-5.34c2-.46,4-.76,6-1.12A5.24,5.24,0,0,0,259,484.41Z" transform="translate(-4.5 -106.83)"/><path class="cls-2" d="M220.26,407.32" transform="translate(-4.5 -106.83)"/><path class="cls-6" d="M335.63,240.45c.13.28-.15.52-.15.76,2.25,2.61,5.07,4.28,6.75,7.13,1.41,2.61,2.81,4.75,3.38,7.6a20.65,20.65,0,0,0,.84,4c0,1.43.28,2.85-.56,4-1.69,2.38-2.81,4.75-5.63,6.18-.56.24-1.41.48-2,.71a32.78,32.78,0,0,1-11.82,1.19c-4.78-.71-10.69-2.38-12.38-6.65-.84-1.9-1.13-4-2-5.94-.56-1.19-2.25-2.14-2.53-3.56a21.25,21.25,0,0,1,1.13-8.32c1.13-3.09,3.38-5.7,4.78-8.55v-.71c-1.13-2.14-2.81-4.28-1.69-6.65a2.17,2.17,0,0,1,2.25-1,4.47,4.47,0,0,1,3.38,2.14c2.81.24,5.07,1,7.88,1.43,3.1.24,5.63-1.19,8.44-1.43a11.48,11.48,0,0,1,2.45.41" transform="translate(-4.5 -106.83)"/><path class="cls-6" d="M329.6,234.38a32.5,32.5,0,0,1,4.71-1.14c1.29-.21,2.89-.55,4.11,0,1.91.88.81,3.2.14,4.46a6.34,6.34,0,0,1-2.94,2.9,2.7,2.7,0,0,1,.57-.34l-.57.34a1.86,1.86,0,0,1,.14-.21" transform="translate(-4.5 -106.83)"/><path class="cls-7" d="M404.39,205.74c9.48,2.36,5.58,20.36,5.58,20.36,11.16,18.51,3.19,35.17,3.19,35.17-17.53,8.33,4.78,5.55,4.78,5.55,5.58-7.4,7.17-21.29,7.17-21.29,5.58,7.4,12.75,6.48,12.75,6.48,2.39,10.18,15.14,7.4,6.38,7.4s-22.31,1.85-16.73,6.48,40.64,0,40.64,0c3.19-5.55,6.38-7.4,6.38-7.4h4c39.84-27.77,12-45.35,12-45.35,19.92,16.66-12,45.35-13.55,30.54q-.07-.61-.18-1.25c-2.67-14.92-24.52-38.55-24.52-38.55-10.36-13-11.16-24.06-11.16-24.06-5.58-50-9.56-25.91-9.56-25.91-9.56-.93-13.55,5.55-13.55,5.55a64.71,64.71,0,0,0-9.56-.93s-4.78,4.63,4,15.73c0,0-6.38,16.66-7.17,13s-18.33,0-31.08-11.11c0,0-14.34-3.7,0,8.33,0,0,8.77,3.7,13.55,8.33C387.65,192.79,393.23,203,404.39,205.74Z" transform="translate(-4.5 -106.83)"/></svg>