<svg id="圖層_1" data-name="圖層 1" xmlns="http://www.w3.org/2000/svg" viewBox="0 0 345.99 483.94"><defs><style>.cls-1{fill:#66c423;}.cls-2{fill:#44840b;}.cls-3{fill:#3d6208;}.cls-4{fill:#b4e85f;}.cls-5{fill:#865541;}.cls-11,.cls-12,.cls-13,.cls-5,.cls-7,.cls-8,.cls-9{stroke:#000;stroke-miterlimit:10;}.cls-5,.cls-8,.cls-9{stroke-width:4px;}.cls-6{fill:#312b1b;}.cls-11,.cls-7{fill:none;}.cls-8{fill:#e7e7e7;}.cls-9{fill:#fdf5e0;}.cls-10{fill:#bba985;}.cls-11{stroke-width:3px;}.cls-12{fill:#858481;}.cls-13{fill:#a9a59a;}</style></defs><title>index_give_help</title><path class="cls-1" d="M335.73,714.46c-2.2-7.71-136.33-110.85-136.33-110.85S336.81,718.23,335.73,714.46Z" transform="translate(-52.77 -320.13)"/><path class="cls-1" d="M334.6,719.84C332.4,712.12,198.27,609,198.27,609S335.67,723.6,334.6,719.84Z" transform="translate(-52.77 -320.13)"/><path class="cls-1" d="M336.59,731.2c-2.2-7.71-136.33-110.85-136.33-110.85S337.66,735,336.59,731.2Z" transform="translate(-52.77 -320.13)"/><path class="cls-1" d="M335.45,736.57c-2.2-7.71-136.33-110.85-136.33-110.85S336.53,740.34,335.45,736.57Z" transform="translate(-52.77 -320.13)"/><path class="cls-1" d="M338.49,721.54C335.16,714.23,187,631.46,187,631.46S340.12,725.11,338.49,721.54Z" transform="translate(-52.77 -320.13)"/><path class="cls-1" d="M320.32,721.91c-3.34-7.31-151.51-90.09-151.51-90.09S321.95,725.48,320.32,721.91Z" transform="translate(-52.77 -320.13)"/><path class="cls-1" d="M341.85,738c-3.34-7.31-151.51-90.09-151.51-90.09S343.48,741.55,341.85,738Z" transform="translate(-52.77 -320.13)"/><path class="cls-1" d="M341.54,743.46C338.2,736.14,190,653.37,190,653.37S343.17,747,341.54,743.46Z" transform="translate(-52.77 -320.13)"/><path class="cls-1" d="M352.86,695.66c-2.2-7.71-136.33-110.85-136.33-110.85S353.94,699.43,352.86,695.66Z" transform="translate(-52.77 -320.13)"/><path class="cls-2" d="M350.43,702.36c-2.2-7.71-136.33-110.85-136.33-110.85S351.51,706.12,350.43,702.36Z" transform="translate(-52.77 -320.13)"/><path class="cls-1" d="M356.16,715.21c-2.2-7.71-136.33-110.85-136.33-110.85S357.23,719,356.16,715.21Z" transform="translate(-52.77 -320.13)"/><path class="cls-1" d="M352.59,717.78c-2.2-7.71-136.33-110.85-136.33-110.85S353.66,721.54,352.59,717.78Z" transform="translate(-52.77 -320.13)"/><path class="cls-1" d="M347.13,715.6c-3.34-7.31-151.51-90.09-151.51-90.09S348.76,719.17,347.13,715.6Z" transform="translate(-52.77 -320.13)"/><path class="cls-3" d="M352.61,705.68c-3.34-7.31-151.51-90.09-151.51-90.09S354.24,709.25,352.61,705.68Z" transform="translate(-52.77 -320.13)"/><path class="cls-1" d="M359,719.18c-3.34-7.31-151.51-90.09-151.51-90.09S360.62,722.75,359,719.18Z" transform="translate(-52.77 -320.13)"/><path class="cls-3" d="M358.67,724.66c-3.34-7.31-151.51-90.09-151.51-90.09S360.3,728.23,358.67,724.66Z" transform="translate(-52.77 -320.13)"/><path class="cls-1" d="M306.37,749.55C304.16,741.83,170,638.7,170,638.7S307.44,753.31,306.37,749.55Z" transform="translate(-52.77 -320.13)"/><path class="cls-1" d="M305.23,754.92C303,747.21,168.9,644.07,168.9,644.07S306.31,758.69,305.23,754.92Z" transform="translate(-52.77 -320.13)"/><path class="cls-1" d="M300.24,761.75C298,754,163.91,650.9,163.91,650.9S301.31,765.52,300.24,761.75Z" transform="translate(-52.77 -320.13)"/><path class="cls-1" d="M306.09,771.66c-2.2-7.71-136.33-110.85-136.33-110.85S307.16,775.43,306.09,771.66Z" transform="translate(-52.77 -320.13)"/><path class="cls-1" d="M309.13,756.63c-3.34-7.31-151.51-90.09-151.51-90.09S310.76,760.2,309.13,756.63Z" transform="translate(-52.77 -320.13)"/><path class="cls-1" d="M308.82,762.11C305.48,754.8,157.31,672,157.31,672S310.44,765.68,308.82,762.11Z" transform="translate(-52.77 -320.13)"/><path class="cls-1" d="M312.49,773.06C309.15,765.75,161,683,161,683S314.12,776.63,312.49,773.06Z" transform="translate(-52.77 -320.13)"/><path class="cls-1" d="M312.18,778.54c-3.34-7.31-151.51-90.09-151.51-90.09S313.8,782.11,312.18,778.54Z" transform="translate(-52.77 -320.13)"/><path class="cls-1" d="M312.07,715.42c-2.2-7.71-136.33-110.85-136.33-110.85S313.14,719.18,312.07,715.42Z" transform="translate(-52.77 -320.13)"/><path class="cls-1" d="M322.37,736.13C320.16,728.41,186,625.28,186,625.28S323.44,739.89,322.37,736.13Z" transform="translate(-52.77 -320.13)"/><path class="cls-1" d="M324.35,747.49C322.15,739.77,188,636.64,188,636.64S325.43,751.25,324.35,747.49Z" transform="translate(-52.77 -320.13)"/><path class="cls-1" d="M323.22,752.86C321,745.15,186.89,642,186.89,642S324.3,756.63,323.22,752.86Z" transform="translate(-52.77 -320.13)"/><path class="cls-1" d="M320.59,732.5c-3.34-7.31-151.51-90.09-151.51-90.09S322.22,736.07,320.59,732.5Z" transform="translate(-52.77 -320.13)"/><path class="cls-1" d="M325.95,743.31c-3.34-7.31-151.51-90.09-151.51-90.09S327.58,746.88,325.95,743.31Z" transform="translate(-52.77 -320.13)"/><path class="cls-1" d="M329.62,754.27c-3.34-7.31-151.51-90.09-151.51-90.09S331.25,757.84,329.62,754.27Z" transform="translate(-52.77 -320.13)"/><path class="cls-1" d="M329.31,759.75C326,752.43,177.8,669.66,177.8,669.66S330.94,763.31,329.31,759.75Z" transform="translate(-52.77 -320.13)"/><path class="cls-1" d="M156.79,692.82C159.6,700.35,301.53,793,301.53,793S155.42,689.15,156.79,692.82Z" transform="translate(-52.77 -320.13)"/><path class="cls-1" d="M156.46,689c2.81,7.52,144.74,100.16,144.74,100.16S155.09,685.28,156.46,689Z" transform="translate(-52.77 -320.13)"/><path class="cls-1" d="M153.58,677.77c2.81,7.52,144.74,100.16,144.74,100.16S152.2,674.1,153.58,677.77Z" transform="translate(-52.77 -320.13)"/><path class="cls-1" d="M153.73,671.3c2.81,7.52,144.74,100.16,144.74,100.16S152.36,667.63,153.73,671.3Z" transform="translate(-52.77 -320.13)"/><path class="cls-2" d="M150.82,686c3.91,7,158.22,78.3,158.22,78.3S148.91,682.59,150.82,686Z" transform="translate(-52.77 -320.13)"/><path class="cls-1" d="M145.71,683c3.91,7,158.22,78.3,158.22,78.3S143.8,679.52,145.71,683Z" transform="translate(-52.77 -320.13)"/><path class="cls-1" d="M147.78,671.42c3.91,7,158.22,78.3,158.22,78.3S145.88,668,147.78,671.42Z" transform="translate(-52.77 -320.13)"/><path class="cls-1" d="M143.46,668.08c3.91,7,158.22,78.3,158.22,78.3S141.55,664.65,143.46,668.08Z" transform="translate(-52.77 -320.13)"/><path class="cls-1" d="M138.18,718.78c3.89,7.05,158,78.81,158,78.81S136.28,715.34,138.18,718.78Z" transform="translate(-52.77 -320.13)"/><path class="cls-1" d="M147.38,702.4c2.81,7.52,144.74,100.16,144.74,100.16S146,698.73,147.38,702.4Z" transform="translate(-52.77 -320.13)"/><path class="cls-1" d="M138,697.82C140.8,705.34,282.73,798,282.73,798S136.62,694.15,138,697.82Z" transform="translate(-52.77 -320.13)"/><path class="cls-1" d="M138.69,692.37c2.81,7.52,144.74,100.16,144.74,100.16S137.32,688.7,138.69,692.37Z" transform="translate(-52.77 -320.13)"/><path class="cls-1" d="M136.86,707.59c3.91,7,158.22,78.3,158.22,78.3S134.95,704.15,136.86,707.59Z" transform="translate(-52.77 -320.13)"/><path class="cls-3" d="M141.38,695.8c3.91,7,158.22,78.3,158.22,78.3S139.47,692.36,141.38,695.8Z" transform="translate(-52.77 -320.13)"/><path class="cls-1" d="M132.2,691.46c3.91,7,158.22,78.3,158.22,78.3S130.29,688,132.2,691.46Z" transform="translate(-52.77 -320.13)"/><path class="cls-2" d="M130.45,684.45c3.91,7,158.22,78.3,158.22,78.3S128.55,681,130.45,684.45Z" transform="translate(-52.77 -320.13)"/><path class="cls-1" d="M166.47,636.47C169.28,644,311.2,736.63,311.2,736.63S165.1,632.8,166.47,636.47Z" transform="translate(-52.77 -320.13)"/><path class="cls-1" d="M182.95,651.74c2.81,7.52,144.74,100.16,144.74,100.16S181.58,648.07,182.95,651.74Z" transform="translate(-52.77 -320.13)"/><path class="cls-1" d="M180.06,640.56c2.81,7.52,144.74,100.16,144.74,100.16S178.69,636.89,180.06,640.56Z" transform="translate(-52.77 -320.13)"/><path class="cls-1" d="M166.4,605.33c2.81,7.52,144.74,100.16,144.74,100.16S165,601.66,166.4,605.33Z" transform="translate(-52.77 -320.13)"/><path class="cls-1" d="M178.93,650.33c3.91,7,158.22,78.3,158.22,78.3S177,646.9,178.93,650.33Z" transform="translate(-52.77 -320.13)"/><path class="cls-2" d="M177.18,643.32c3.91,7,158.22,78.3,158.22,78.3S175.28,639.89,177.18,643.32Z" transform="translate(-52.77 -320.13)"/><path class="cls-3" d="M174.27,634.2c3.91,7,158.22,78.3,158.22,78.3S172.36,630.77,174.27,634.2Z" transform="translate(-52.77 -320.13)"/><path class="cls-1" d="M170.36,625.16c3.91,7,158.22,78.3,158.22,78.3S168.46,621.73,170.36,625.16Z" transform="translate(-52.77 -320.13)"/><path class="cls-3" d="M194.36,670.24c2.81,7.52,144.74,100.16,144.74,100.16S193,666.57,194.36,670.24Z" transform="translate(-52.77 -320.13)"/><path class="cls-1" d="M167.36,671.78c2.81,7.52,144.74,100.16,144.74,100.16S166,668.11,167.36,671.78Z" transform="translate(-52.77 -320.13)"/><path class="cls-2" d="M162.85,659.08c2.81,7.52,144.74,100.16,144.74,100.16S161.48,655.41,162.85,659.08Z" transform="translate(-52.77 -320.13)"/><path class="cls-1" d="M160.07,651.37c2.81,7.52,144.74,100.16,144.74,100.16S158.7,647.7,160.07,651.37Z" transform="translate(-52.77 -320.13)"/><path class="cls-1" d="M163.34,670.38c3.91,7,158.22,78.3,158.22,78.3S161.43,666.94,163.34,670.38Z" transform="translate(-52.77 -320.13)"/><path class="cls-2" d="M161.6,663.37c3.91,7,158.22,78.3,158.22,78.3S159.69,659.93,161.6,663.37Z" transform="translate(-52.77 -320.13)"/><path class="cls-1" d="M130.09,642.6c3.91,7,158.22,78.3,158.22,78.3S128.18,639.17,130.09,642.6Z" transform="translate(-52.77 -320.13)"/><path class="cls-3" d="M150.13,665.24c3.91,7,158.22,78.3,158.22,78.3S148.22,661.8,150.13,665.24Z" transform="translate(-52.77 -320.13)"/><path class="cls-4" d="M138.14,665.29c3.91,7,158.22,78.3,158.22,78.3S136.23,661.85,138.14,665.29Z" transform="translate(-52.77 -320.13)"/><path class="cls-4" d="M138.19,656.87c3.91,7,158.22,78.3,158.22,78.3S136.29,653.43,138.19,656.87Z" transform="translate(-52.77 -320.13)"/><path class="cls-4" d="M191,618.45c3.91,7,158.22,78.3,158.22,78.3S189.14,615,191,618.45Z" transform="translate(-52.77 -320.13)"/><path class="cls-4" d="M139.89,714.74c3.91,7,158.22,78.3,158.22,78.3S138,711.3,139.89,714.74Z" transform="translate(-52.77 -320.13)"/><path class="cls-4" d="M158.19,687c3.06,7.43,148,95.51,148,95.51S156.69,683.38,158.19,687Z" transform="translate(-52.77 -320.13)"/><path class="cls-4" d="M173.38,636.74c2.88,7.5,145.65,98.88,145.65,98.88S172,633.08,173.38,636.74Z" transform="translate(-52.77 -320.13)"/><path class="cls-4" d="M178,640.66c2.88,7.5,145.65,98.88,145.65,98.88S176.57,637,178,640.66Z" transform="translate(-52.77 -320.13)"/><path class="cls-4" d="M150.64,652.34c2.88,7.5,145.65,98.88,145.65,98.88S149.23,648.68,150.64,652.34Z" transform="translate(-52.77 -320.13)"/><path class="cls-4" d="M152.85,656.56c2.88,7.5,145.65,98.88,145.65,98.88S151.45,652.91,152.85,656.56Z" transform="translate(-52.77 -320.13)"/><path class="cls-1" d="M280.51,716c-2.2-7.71-136.33-110.85-136.33-110.85S281.59,719.75,280.51,716Z" transform="translate(-52.77 -320.13)"/><path class="cls-1" d="M279.38,721.36C277.18,713.64,143,610.51,143,610.51S280.45,725.12,279.38,721.36Z" transform="translate(-52.77 -320.13)"/><path class="cls-1" d="M281.37,732.72C279.17,725,145,621.87,145,621.87S282.44,736.48,281.37,732.72Z" transform="translate(-52.77 -320.13)"/><path class="cls-1" d="M280.23,738.09C278,730.38,143.9,627.25,143.9,627.25S281.31,741.86,280.23,738.09Z" transform="translate(-52.77 -320.13)"/><path class="cls-1" d="M283.28,723.06C279.94,715.75,131.77,633,131.77,633S284.9,726.63,283.28,723.06Z" transform="translate(-52.77 -320.13)"/><path class="cls-1" d="M265.1,723.43c-3.34-7.31-151.51-90.09-151.51-90.09S266.73,727,265.1,723.43Z" transform="translate(-52.77 -320.13)"/><path class="cls-1" d="M286.64,739.5c-3.34-7.31-151.51-90.09-151.51-90.09S288.26,743.07,286.64,739.5Z" transform="translate(-52.77 -320.13)"/><path class="cls-1" d="M286.32,745c-3.34-7.31-151.51-90.09-151.51-90.09S288,748.55,286.32,745Z" transform="translate(-52.77 -320.13)"/><path class="cls-1" d="M297.65,697.18c-2.2-7.71-136.33-110.85-136.33-110.85S298.72,700.95,297.65,697.18Z" transform="translate(-52.77 -320.13)"/><path class="cls-2" d="M295.21,703.88C293,696.16,158.88,593,158.88,593S296.29,707.64,295.21,703.88Z" transform="translate(-52.77 -320.13)"/><path class="cls-1" d="M300.94,716.73c-2.2-7.71-136.33-110.85-136.33-110.85S302,720.49,300.94,716.73Z" transform="translate(-52.77 -320.13)"/><path class="cls-1" d="M297.37,719.3C295.17,711.58,161,608.45,161,608.45S298.44,723.06,297.37,719.3Z" transform="translate(-52.77 -320.13)"/><path class="cls-1" d="M291.91,717.12C288.57,709.8,140.4,627,140.4,627S293.54,720.69,291.91,717.12Z" transform="translate(-52.77 -320.13)"/><path class="cls-3" d="M297.39,707.2c-3.34-7.31-151.51-90.09-151.51-90.09S299,710.77,297.39,707.2Z" transform="translate(-52.77 -320.13)"/><path class="cls-1" d="M303.77,720.7c-3.34-7.31-151.51-90.09-151.51-90.09S305.4,724.27,303.77,720.7Z" transform="translate(-52.77 -320.13)"/><path class="cls-3" d="M303.46,726.18c-3.34-7.31-151.51-90.09-151.51-90.09S305.08,729.75,303.46,726.18Z" transform="translate(-52.77 -320.13)"/><path class="cls-1" d="M251.15,751.07c-2.2-7.71-136.33-110.85-136.33-110.85S252.22,754.83,251.15,751.07Z" transform="translate(-52.77 -320.13)"/><path class="cls-1" d="M250,756.44c-2.2-7.71-136.33-110.85-136.33-110.85S251.09,760.21,250,756.44Z" transform="translate(-52.77 -320.13)"/><path class="cls-1" d="M245,763.27c-2.2-7.71-136.33-110.85-136.33-110.85S246.1,767,245,763.27Z" transform="translate(-52.77 -320.13)"/><path class="cls-1" d="M250.87,773.18c-2.2-7.71-136.33-110.85-136.33-110.85S251.94,776.95,250.87,773.18Z" transform="translate(-52.77 -320.13)"/><path class="cls-1" d="M253.91,758.15c-3.34-7.31-151.51-90.09-151.51-90.09S255.54,761.72,253.91,758.15Z" transform="translate(-52.77 -320.13)"/><path class="cls-1" d="M253.6,763.63c-3.34-7.31-151.51-90.09-151.51-90.09S255.23,767.2,253.6,763.63Z" transform="translate(-52.77 -320.13)"/><path class="cls-1" d="M257.27,774.59c-3.34-7.31-151.51-90.09-151.51-90.09S258.9,778.15,257.27,774.59Z" transform="translate(-52.77 -320.13)"/><path class="cls-1" d="M257,780.06C253.62,772.75,105.45,690,105.45,690S258.59,783.63,257,780.06Z" transform="translate(-52.77 -320.13)"/><path class="cls-1" d="M256.85,716.94c-2.2-7.71-136.33-110.85-136.33-110.85S257.92,720.7,256.85,716.94Z" transform="translate(-52.77 -320.13)"/><path class="cls-1" d="M267.15,737.65c-2.2-7.71-136.33-110.85-136.33-110.85S268.22,741.41,267.15,737.65Z" transform="translate(-52.77 -320.13)"/><path class="cls-1" d="M269.14,749c-2.2-7.71-136.33-110.85-136.33-110.85S270.21,752.77,269.14,749Z" transform="translate(-52.77 -320.13)"/><path class="cls-1" d="M268,754.38c-2.2-7.71-136.33-110.85-136.33-110.85S269.08,758.15,268,754.38Z" transform="translate(-52.77 -320.13)"/><path class="cls-1" d="M265.37,734c-3.34-7.31-151.51-90.09-151.51-90.09S267,737.59,265.37,734Z" transform="translate(-52.77 -320.13)"/><path class="cls-1" d="M270.73,744.83c-3.34-7.31-151.51-90.09-151.51-90.09S272.36,748.4,270.73,744.83Z" transform="translate(-52.77 -320.13)"/><path class="cls-1" d="M274.4,755.79c-3.34-7.31-151.51-90.09-151.51-90.09S276,759.36,274.4,755.79Z" transform="translate(-52.77 -320.13)"/><path class="cls-1" d="M274.09,761.27c-3.34-7.31-151.51-90.09-151.51-90.09S275.72,764.84,274.09,761.27Z" transform="translate(-52.77 -320.13)"/><path class="cls-1" d="M101.57,694.34c2.81,7.52,144.74,100.16,144.74,100.16S100.2,690.67,101.57,694.34Z" transform="translate(-52.77 -320.13)"/><path class="cls-1" d="M101.24,690.47C104.05,698,246,790.63,246,790.63S99.87,686.8,101.24,690.47Z" transform="translate(-52.77 -320.13)"/><path class="cls-1" d="M98.36,679.3c2.81,7.52,144.74,100.16,144.74,100.16S97,675.62,98.36,679.3Z" transform="translate(-52.77 -320.13)"/><path class="cls-1" d="M98.51,672.82C101.32,680.35,243.24,773,243.24,773S97.14,669.15,98.51,672.82Z" transform="translate(-52.77 -320.13)"/><path class="cls-2" d="M95.6,687.54c3.91,7,158.22,78.3,158.22,78.3S93.7,684.11,95.6,687.54Z" transform="translate(-52.77 -320.13)"/><path class="cls-1" d="M90.49,684.48c3.91,7,158.22,78.3,158.22,78.3S88.58,681,90.49,684.48Z" transform="translate(-52.77 -320.13)"/><path class="cls-1" d="M92.57,672.94c3.91,7,158.22,78.3,158.22,78.3S90.66,669.5,92.57,672.94Z" transform="translate(-52.77 -320.13)"/><path class="cls-1" d="M88.24,669.6c3.91,7,158.22,78.3,158.22,78.3S86.33,666.17,88.24,669.6Z" transform="translate(-52.77 -320.13)"/><path class="cls-1" d="M83,720.3c3.89,7.05,158,78.81,158,78.81S81.06,716.86,83,720.3Z" transform="translate(-52.77 -320.13)"/><path class="cls-1" d="M92.16,703.92C95,711.44,236.89,804.07,236.89,804.07S90.79,700.25,92.16,703.92Z" transform="translate(-52.77 -320.13)"/><path class="cls-1" d="M82.77,699.34c2.81,7.52,144.74,100.16,144.74,100.16S81.4,695.67,82.77,699.34Z" transform="translate(-52.77 -320.13)"/><path class="cls-1" d="M83.47,693.89c2.81,7.52,144.74,100.16,144.74,100.16S82.1,690.22,83.47,693.89Z" transform="translate(-52.77 -320.13)"/><path class="cls-1" d="M81.64,709.11c3.91,7,158.22,78.3,158.22,78.3S79.73,705.67,81.64,709.11Z" transform="translate(-52.77 -320.13)"/><path class="cls-3" d="M86.16,697.32c3.91,7,158.22,78.3,158.22,78.3S84.26,693.88,86.16,697.32Z" transform="translate(-52.77 -320.13)"/><path class="cls-1" d="M77,693c3.91,7,158.22,78.3,158.22,78.3S75.07,689.55,77,693Z" transform="translate(-52.77 -320.13)"/><path class="cls-2" d="M75.24,686c3.91,7,158.22,78.3,158.22,78.3S73.33,682.54,75.24,686Z" transform="translate(-52.77 -320.13)"/><path class="cls-1" d="M111.25,638C114.06,645.52,256,738.15,256,738.15S109.88,634.32,111.25,638Z" transform="translate(-52.77 -320.13)"/><path class="cls-1" d="M127.73,653.26c2.81,7.52,144.74,100.16,144.74,100.16S126.36,649.59,127.73,653.26Z" transform="translate(-52.77 -320.13)"/><path class="cls-1" d="M124.84,642.08c2.81,7.52,144.74,100.16,144.74,100.16S123.47,638.41,124.84,642.08Z" transform="translate(-52.77 -320.13)"/><path class="cls-1" d="M111.18,606.85C114,614.37,255.92,707,255.92,707S109.81,603.18,111.18,606.85Z" transform="translate(-52.77 -320.13)"/><path class="cls-1" d="M123.71,651.85c3.91,7,158.22,78.3,158.22,78.3S121.8,648.42,123.71,651.85Z" transform="translate(-52.77 -320.13)"/><path class="cls-2" d="M122,644.84c3.91,7,158.22,78.3,158.22,78.3S120.06,641.41,122,644.84Z" transform="translate(-52.77 -320.13)"/><path class="cls-3" d="M119.05,635.73c3.91,7,158.22,78.3,158.22,78.3S117.14,632.29,119.05,635.73Z" transform="translate(-52.77 -320.13)"/><path class="cls-1" d="M115.15,626.68c3.91,7,158.22,78.3,158.22,78.3S113.24,623.25,115.15,626.68Z" transform="translate(-52.77 -320.13)"/><path class="cls-3" d="M139.14,671.76c2.81,7.52,144.74,100.16,144.74,100.16S137.77,668.09,139.14,671.76Z" transform="translate(-52.77 -320.13)"/><path class="cls-1" d="M112.14,673.3c2.81,7.52,144.74,100.16,144.74,100.16S110.77,669.63,112.14,673.3Z" transform="translate(-52.77 -320.13)"/><path class="cls-2" d="M107.64,660.6c2.81,7.52,144.74,100.16,144.74,100.16S106.27,656.93,107.64,660.6Z" transform="translate(-52.77 -320.13)"/><path class="cls-1" d="M104.85,652.89C107.66,660.41,249.58,753,249.58,753S103.48,649.22,104.85,652.89Z" transform="translate(-52.77 -320.13)"/><path class="cls-1" d="M108.12,671.9c3.91,7,158.22,78.3,158.22,78.3S106.22,668.46,108.12,671.9Z" transform="translate(-52.77 -320.13)"/><path class="cls-2" d="M106.38,664.89c3.91,7,158.22,78.3,158.22,78.3S104.47,661.45,106.38,664.89Z" transform="translate(-52.77 -320.13)"/><path class="cls-1" d="M74.87,644.12c3.91,7,158.22,78.3,158.22,78.3S73,640.69,74.87,644.12Z" transform="translate(-52.77 -320.13)"/><path class="cls-3" d="M94.91,666.76c3.91,7,158.22,78.3,158.22,78.3S93,663.33,94.91,666.76Z" transform="translate(-52.77 -320.13)"/><path class="cls-4" d="M82.92,666.81c3.91,7,158.22,78.3,158.22,78.3S81,663.37,82.92,666.81Z" transform="translate(-52.77 -320.13)"/><path class="cls-4" d="M83,658.39c3.91,7,158.22,78.3,158.22,78.3S81.07,655,83,658.39Z" transform="translate(-52.77 -320.13)"/><path class="cls-4" d="M135.83,620c3.91,7,158.22,78.3,158.22,78.3S133.92,616.54,135.83,620Z" transform="translate(-52.77 -320.13)"/><path class="cls-4" d="M84.68,716.26c3.91,7,158.22,78.3,158.22,78.3S82.77,712.82,84.68,716.26Z" transform="translate(-52.77 -320.13)"/><path class="cls-4" d="M103,688.52C106,696,251,784,251,784S101.48,684.9,103,688.52Z" transform="translate(-52.77 -320.13)"/><path class="cls-4" d="M118.16,638.26c2.88,7.5,145.65,98.88,145.65,98.88S116.76,634.6,118.16,638.26Z" transform="translate(-52.77 -320.13)"/><path class="cls-4" d="M122.76,642.18c2.88,7.5,145.65,98.88,145.65,98.88S121.35,638.52,122.76,642.18Z" transform="translate(-52.77 -320.13)"/><path class="cls-4" d="M95.42,653.86c2.88,7.5,145.65,98.88,145.65,98.88S94,650.2,95.42,653.86Z" transform="translate(-52.77 -320.13)"/><path class="cls-4" d="M97.63,658.09c2.88,7.5,145.65,98.88,145.65,98.88S96.23,654.43,97.63,658.09Z" transform="translate(-52.77 -320.13)"/><path class="cls-5" d="M267.07,591.66c.83,2.2-167.59,12.08-167.59,12.08-11.23.73-37-16.48-37-16.48l-1.25-197,19.13-53.46c58.63.73,156.88,6.77,161.66,4.58s5,7.51,5,7.51c-.62,5.49,21.83,51.26,21.83,51.26C269.67,404.75,267.07,591.66,267.07,591.66Z" transform="translate(-52.77 -320.13)"/><path class="cls-5" d="M88.13,358.43c-15.29,16.48-25.26,28.74-25.26,28.74H61s23,11.88,36.49,10.4l-1.35,206,.42-208L81.29,336v1.92l15.26,59.59-.42,208" transform="translate(-52.77 -320.13)"/><path class="cls-6" d="M163.09,455.19a11.37,11.37,0,0,0-5.55,4.47,7.5,7.5,0,0,0-1.15,4.1A13.32,13.32,0,0,0,157,467a5.14,5.14,0,0,0,3.49,3.5c2.55.86,5.42.67,7-1.49a8.82,8.82,0,0,0,1.44-6.31c-.3-2.4-1.09-6.91-4.15-7.59A3.6,3.6,0,0,0,163.09,455.19Z" transform="translate(-52.77 -320.13)"/><path class="cls-6" d="M169.63,442.37a8.29,8.29,0,0,0-2.91,2.25c-1.76,2.17-1.26,4.88.2,7.15,2.35,3.63,6.2,6.28,10,2.84a5.29,5.29,0,0,0,1.49-4.14,22.73,22.73,0,0,0-.13-5,5.08,5.08,0,0,0-1.77-3c-1-.8-2.36-.65-3.6-.79A6.3,6.3,0,0,0,169.63,442.37Z" transform="translate(-52.77 -320.13)"/><path class="cls-6" d="M182.71,443.31a2.55,2.55,0,0,1,.67-.33,9,9,0,0,1,5.79.44c2.46,1.1,3.94,3.68,4.61,6.08a6.9,6.9,0,0,1-.12,4.49c-.53,1.25-2.17,2.93-3.79,2.6a2.43,2.43,0,0,1-.63-.25A14.37,14.37,0,0,1,182,445.08a2.34,2.34,0,0,1,.07-1A1.68,1.68,0,0,1,182.71,443.31Z" transform="translate(-52.77 -320.13)"/><path class="cls-6" d="M197.15,462.71q0-.16,0-.33c-.17-1.53-.24-3.81.75-5.09,1.8-2.32,5.62.38,7.28,1.68a4.66,4.66,0,0,1,.66.59,4.47,4.47,0,0,1,.65,1.09,13.6,13.6,0,0,1,1.46,6.06,6,6,0,0,1-.61,2.49c-.27.53-1.08,1.86-1.77,2-2.59.34-5.32-1.65-6.58-3.61A12.05,12.05,0,0,1,197.15,462.71Z" transform="translate(-52.77 -320.13)"/><path class="cls-6" d="M175.19,473.82l0,0c.19-.21.14-.58.16-.84s0-.68.07-1a6.4,6.4,0,0,1,.45-1.95,6.89,6.89,0,0,1,2.52-3,12.9,12.9,0,0,1,7.89-1.71,9.57,9.57,0,0,1,4.69,1.31,6.2,6.2,0,0,1,2.69,4.38,4.38,4.38,0,0,0,.42,1.89,4,4,0,0,0,1.92,1.27,11.51,11.51,0,0,1,5.69,4.77,5.81,5.81,0,0,1-.67,6.78,9.5,9.5,0,0,1-4.94,2.09,76.67,76.67,0,0,1-22.59.9c-2-.2-4.23-.57-5.56-2.06-1.64-1.83-1.56-5.21-.3-7.13a13.76,13.76,0,0,1,2.58-2.9,15.26,15.26,0,0,1,3.34-2.12c.42-.2.87-.35,1.31-.52A.93.93,0,0,0,175.19,473.82Z" transform="translate(-52.77 -320.13)"/><path class="cls-7" d="M262.52,596.27" transform="translate(-52.77 -320.13)"/><path class="cls-8" d="M396.77,551l-.29,61s-60.87,28.85-145.73,2.15L251,551a4.84,4.84,0,0,0,1.81,3.45l0,0-.32.29c7.36,6.92,36.38,12.08,71.06,12.08s63.69-5.16,71.05-12.08l0,0,.32-.29A4.84,4.84,0,0,0,396.77,551Z" transform="translate(-52.77 -320.13)"/><path class="cls-9" d="M396.77,551a4.84,4.84,0,0,1-1.81,3.45l-.32.29c-7.4-6.91-36.39-12.06-71-12.06-34.19,0-62.87,5-70.73,11.79l0,0A4.84,4.84,0,0,1,251,551c0-8.58,32.62-15.53,72.86-15.53S396.77,542.46,396.77,551Z" transform="translate(-52.77 -320.13)"/><path class="cls-10" d="M394.63,554.78c-7.86,6.77-36.54,11.79-70.73,11.79-34.64,0-63.63-5.16-71-12.06,7.86-6.77,36.54-11.79,70.73-11.79C358.24,542.72,387.23,547.87,394.63,554.78Z" transform="translate(-52.77 -320.13)"/><path class="cls-11" d="M394.66,554.8c-7.36,6.92-36.38,12.08-71.05,12.08s-63.69-5.16-71.06-12.08l.32-.29c7.4,6.91,36.4,12.06,71,12.06,34.19,0,62.87-5,70.73-11.79Z" transform="translate(-52.77 -320.13)"/><path class="cls-12" d="M301.21,552.82a26.1,26.1,0,0,1-5.21.63h-.18A39.55,39.55,0,0,0,301.21,552.82Z" transform="translate(-52.77 -320.13)"/><path class="cls-13" d="M329.69,553.7c-2.25-.87-4.54-1.61-6.85-2.28A189.84,189.84,0,0,0,296.53,546s-14.39-.39-15.67.84c0,0-8.1,1.53,1.8,6.14,4.34,2,8.77,3.77,13.22,5.43a85.77,85.77,0,0,0,13.51,4.25,42.71,42.71,0,0,0,10.62.38c3.45-.2,7-.4,10.23-1.72a5.94,5.94,0,0,0,3.2-2.43C334.92,556,331.82,554.52,329.69,553.7Zm-42.08-2.91s3.67-2.3,12.07-.54c0,0,5.78,2.3-3.45,2.61C296.23,552.86,285.66,552.86,287.61,550.79ZM329,556.65c-.07.37-.43.59-.77.74a12.94,12.94,0,0,1-3.16.83,56.62,56.62,0,0,1-14.42.25,39.26,39.26,0,0,1-8.35-1.56c-.72-.23-3.32-1.22-1.92-2.28a4.64,4.64,0,0,1,1.9-.75c8.18-1.64,18.5-3.1,26,1.66C328.64,555.79,329.08,556.18,329,556.65Z" transform="translate(-52.77 -320.13)"/><path class="cls-12" d="M300.29,552.36c3-.87-.65-2.2-.65-2.2-6.94-1.7-11,.11-11,.11-4.86,2,5.1,2.63,6.56,2.71l-.67,0s-15.85-.77-8.91-3.68c0,0,5.38-2.46,14.58-.16C300.19,549.18,305.55,551.18,300.29,552.36Z" transform="translate(-52.77 -320.13)"/><path class="cls-12" d="M328.93,556.31c-2.12-1.33-8.23-2.14-9.3-2.3-5.2-.76-12.23-1.51-17,.73a2.48,2.48,0,0,0-1.46,1.47,1.72,1.72,0,0,0,0,.32,1.26,1.26,0,0,1-.63-.65,1.41,1.41,0,0,1,0-.84,2.67,2.67,0,0,1,1.46-1.66c4.8-2.53,11.83-1.69,17-.82C320.25,552.78,329.3,554.13,328.93,556.31Z" transform="translate(-52.77 -320.13)"/><path class="cls-6" d="M311.57,591.52a8.63,8.63,0,0,0-4,3.5,6.21,6.21,0,0,0-.87,3.18,10.82,10.82,0,0,0,.4,2.49,3.72,3.72,0,0,0,2.48,2.67c1.83.64,3.89.47,5.09-1.21a7.3,7.3,0,0,0,1.1-4.88c-.2-1.85-.72-5.33-2.91-5.82A2.43,2.43,0,0,0,311.57,591.52Z" transform="translate(-52.77 -320.13)"/><path class="cls-6" d="M316.4,581.56a6.26,6.26,0,0,0-2.12,1.76c-1.29,1.69-1,3.78.08,5.51,1.65,2.78,4.4,4.79,7.19,2.1a4.35,4.35,0,0,0,1.11-3.21,18.78,18.78,0,0,0,0-3.82,3.87,3.87,0,0,0-1.24-2.27,4.51,4.51,0,0,0-2.58-.58A4.33,4.33,0,0,0,316.4,581.56Z" transform="translate(-52.77 -320.13)"/><path class="cls-6" d="M325.81,582.17a1.84,1.84,0,0,1,.48-.26,6,6,0,0,1,4.16.29c1.76.83,2.8,2.81,3.26,4.66a5.71,5.71,0,0,1-.13,3.46c-.39,1-1.59,2.28-2.75,2a1.64,1.64,0,0,1-.45-.19,10.85,10.85,0,0,1-5.1-8.62,1.94,1.94,0,0,1,.06-.73A1.33,1.33,0,0,1,325.81,582.17Z" transform="translate(-52.77 -320.13)"/><path class="cls-6" d="M336,597q0-.13,0-.25c-.11-1.18-.14-2.94.59-3.94,1.32-1.81,4,.25,5.22,1.23a3.32,3.32,0,0,1,.47.45,3.4,3.4,0,0,1,.46.84,11,11,0,0,1,1,4.66,5,5,0,0,1-.46,1.93c-.2.41-.8,1.45-1.29,1.52-1.87.29-3.81-1.23-4.7-2.73A9.51,9.51,0,0,1,336,597Z" transform="translate(-52.77 -320.13)"/><path class="cls-6" d="M320.1,605.79l0,0c.14-.16.11-.45.12-.65s0-.52.06-.78a5.32,5.32,0,0,1,.35-1.51,5.43,5.43,0,0,1,1.84-2.32,8.92,8.92,0,0,1,5.69-1.39,6.42,6.42,0,0,1,3.36,1,4.7,4.7,0,0,1,1.9,3.36,3.53,3.53,0,0,0,.29,1.46,2.81,2.81,0,0,0,1.37,1,8.16,8.16,0,0,1,4.05,3.63,4.77,4.77,0,0,1-.55,5.24,6.79,6.79,0,0,1-3.57,1.65,51.7,51.7,0,0,1-16.27.89c-1.45-.14-3-.41-4-1.54a5.21,5.21,0,0,1-.15-5.5,10.8,10.8,0,0,1,1.88-2.26,11.29,11.29,0,0,1,2.43-1.66c.3-.16.63-.28.95-.42A.68.68,0,0,0,320.1,605.79Z" transform="translate(-52.77 -320.13)"/><path class="cls-6" d="M372,597.31a3.87,3.87,0,0,0-2.41-.08,2.64,2.64,0,0,0-1.22.8,4.64,4.64,0,0,0-.59,1,1.72,1.72,0,0,0,.08,1.66,2,2,0,0,0,2.11,1.17,3.1,3.1,0,0,0,1.8-1.3c.47-.68,1.3-2,.69-2.85A1.18,1.18,0,0,0,372,597.31Z" transform="translate(-52.77 -320.13)"/><path class="cls-6" d="M376.55,595.47a2.82,2.82,0,0,0-1.24-.07,2.06,2.06,0,0,0-1.58,1.87c-.24,1.44.13,3,1.87,2.93a1.85,1.85,0,0,0,1.32-.73,8,8,0,0,0,1.1-1.29,1.73,1.73,0,0,0,.23-1.14c-.08-.43-.44-.68-.72-1A2.07,2.07,0,0,0,376.55,595.47Z" transform="translate(-52.77 -320.13)"/><path class="cls-6" d="M379.63,598.59a.85.85,0,0,1,.24.06,2.92,2.92,0,0,1,1.35,1.39,3.1,3.1,0,0,1-.23,2.57,2.42,2.42,0,0,1-1.05,1.12,1.36,1.36,0,0,1-1.55-.17.79.79,0,0,1-.1-.2,4.88,4.88,0,0,1,.75-4.47.82.82,0,0,1,.23-.23A.58.58,0,0,1,379.63,598.59Z" transform="translate(-52.77 -320.13)"/><path class="cls-6" d="M378.83,606.73l.06-.09a2.69,2.69,0,0,1,1.35-1.14c1-.2,1.33,1.33,1.45,2a1.55,1.55,0,0,1,0,.3,1.52,1.52,0,0,1-.09.42,4.72,4.72,0,0,1-1,1.87,2.11,2.11,0,0,1-.72.5c-.19.08-.7.24-.89.11a2.49,2.49,0,0,1-.83-2.37A4.16,4.16,0,0,1,378.83,606.73Z" transform="translate(-52.77 -320.13)"/><path class="cls-6" d="M370.78,604.74h0c.1,0,.17-.12.23-.18l.25-.24a2.25,2.25,0,0,1,.56-.4,2.38,2.38,0,0,1,1.31-.21,4.25,4.25,0,0,1,2.37,1.3,3.12,3.12,0,0,1,.88,1.37,2.11,2.11,0,0,1-.32,1.71,1.52,1.52,0,0,0-.33.58,1.33,1.33,0,0,0,.19.75,3.82,3.82,0,0,1,.34,2.47,2,2,0,0,1-1.72,1.59,3.16,3.16,0,0,1-1.72-.55,25,25,0,0,1-5.88-4.74,2.75,2.75,0,0,1-.93-1.75,2.23,2.23,0,0,1,1.55-1.89,4.74,4.74,0,0,1,1.31-.18,5.15,5.15,0,0,1,1.32.19c.15,0,.3.1.45.15Z" transform="translate(-52.77 -320.13)"/><path class="cls-6" d="M263.94,584.64a4.81,4.81,0,0,0-1.08,2.79,3.7,3.7,0,0,0,.39,1.84,6.47,6.47,0,0,0,.84,1.18,2.09,2.09,0,0,0,1.9.76,2.26,2.26,0,0,0,2.18-1.87,4.35,4.35,0,0,0-.72-2.77c-.57-.9-1.72-2.56-2.92-2.27A1.28,1.28,0,0,0,263.94,584.64Z" transform="translate(-52.77 -320.13)"/><path class="cls-6" d="M263.75,578.35a3.48,3.48,0,0,0-.59,1.42,2.86,2.86,0,0,0,1.45,2.81c1.52,1,3.38,1.38,4.06-.69a2.57,2.57,0,0,0-.28-1.92,11.28,11.28,0,0,0-1-2,2.24,2.24,0,0,0-1.19-.86,2.38,2.38,0,0,0-1.41.34A2.28,2.28,0,0,0,263.75,578.35Z" transform="translate(-52.77 -320.13)"/><path class="cls-6" d="M268.51,576.35a1,1,0,0,1,.17-.25,3.16,3.16,0,0,1,2.11-.87,3.91,3.91,0,0,1,2.79,1.59,3.42,3.42,0,0,1,.83,1.81c.06.59-.19,1.56-.82,1.72a.87.87,0,0,1-.27,0,6.27,6.27,0,0,1-4.71-3.17,1.16,1.16,0,0,1-.16-.39A.76.76,0,0,1,268.51,576.35Z" transform="translate(-52.77 -320.13)"/><path class="cls-6" d="M277.31,581.45l-.08-.12a3.8,3.8,0,0,1-.72-2.16c.18-1.25,2-.87,2.87-.65a1.86,1.86,0,0,1,.35.12,2,2,0,0,1,.44.32,6.53,6.53,0,0,1,1.68,2.15,3,3,0,0,1,.27,1.1c0,.26,0,.94-.24,1.1a2.83,2.83,0,0,1-3-.24A5.63,5.63,0,0,1,277.31,581.45Z" transform="translate(-52.77 -320.13)"/><path class="cls-6" d="M271.78,589.87h0c0-.12-.06-.26-.11-.36l-.17-.42a3.18,3.18,0,0,1-.22-.86,3.1,3.1,0,0,1,.3-1.64,4.72,4.72,0,0,1,2.43-2.11,3.4,3.4,0,0,1,1.89-.33,2.72,2.72,0,0,1,1.79,1.26,2.11,2.11,0,0,0,.51.68,1.54,1.54,0,0,0,.92.16,4.54,4.54,0,0,1,2.92.87,2.84,2.84,0,0,1,1.08,2.82,3.65,3.65,0,0,1-1.32,1.73,27.08,27.08,0,0,1-7.73,4.46,3,3,0,0,1-2.35.19,3.11,3.11,0,0,1-1.48-2.78,6,6,0,0,1,1.1-3.07c.11-.16.24-.3.36-.45A.37.37,0,0,0,271.78,589.87Z" transform="translate(-52.77 -320.13)"/></svg>