<svg id="圖層_1" data-name="圖層 1" xmlns="http://www.w3.org/2000/svg" viewBox="0 0 556.69 668.72"><defs><style>.cls-1{fill:#e6e6e6;}.cls-2{fill:#817b3f;stroke-width:3px;}.cls-10,.cls-19,.cls-2,.cls-29,.cls-3,.cls-30,.cls-41{stroke:#000;}.cls-10,.cls-19,.cls-2,.cls-22,.cls-29,.cls-3,.cls-30,.cls-38,.cls-41{stroke-miterlimit:10;}.cls-4{fill:#bd947f;}.cls-5{fill:#c69380;}.cls-6{fill:#b3b3b3;}.cls-7{fill:#fff;}.cls-8{fill:#f9d2a1;}.cls-9{fill:#f4ccb4;}.cls-10,.cls-19,.cls-22,.cls-29,.cls-30,.cls-38{fill:none;}.cls-11{fill:#312b1b;}.cls-12{fill:#eef3dd;}.cls-13{fill:#595956;}.cls-14{fill:#d0585b;}.cls-15{fill:#2c0c00;}.cls-16{fill:#2c2f33;}.cls-17{fill:#0f1410;}.cls-18{fill:#768495;}.cls-19{stroke-width:2px;}.cls-20{fill:#d5a86e;}.cls-21{fill:#d7b48a;}.cls-22{stroke:#964f40;stroke-width:5px;}.cls-23{fill:#533115;}.cls-24{fill:#412514;}.cls-25{fill:#927f64;}.cls-26{fill:#dfccb1;}.cls-27{fill:#7f7057;}.cls-28{fill:#cfbea6;}.cls-29{stroke-width:0.75px;}.cls-30{stroke-width:0.5px;}.cls-31{fill:#b4825b;}.cls-32{fill:#964f40;}.cls-33{fill:#691a0d;}.cls-34{fill:#713b27;}.cls-35{fill:#534741;}.cls-36{fill:#f5ebf2;}.cls-37{fill:#b97a7f;}.cls-38{stroke:#af6c73;}.cls-38,.cls-41{stroke-width:4px;}.cls-39{fill:#2b1d28;}.cls-40{fill:#815145;}.cls-41{fill:#f2f2f2;}</style></defs><title>index_pet_products</title><path class="cls-1" d="M197.73,697.36a5.13,5.13,0,0,1,3.56-1.52c17.72-.11,40.46-23.68,45.76-39.52,7.57-22.64,1.24-47.79-9.15-67.23-19.36-36.21-54.68-54.48-78.88-40.8q-.84.47-1.64,1c-2.75-.49-22.55,16.4-25,20.35a5.25,5.25,0,0,1-3.24,2.31C93.94,580.12,80.5,587.51,76.79,592a5.18,5.18,0,0,0-1.09,2.69,4.19,4.19,0,0,0,.67,2.59,12.26,12.26,0,0,0,1,1.55c2,2.59,4.93,4.5,7.68,6.22a99.3,99.3,0,0,0,11.82,6.24A95.72,95.72,0,0,0,109,616c2.72.81,5.86,1.79,8.82,1.43,1.68-.2,2.71,1.74,3,3.34l0,.22c0,.1,0,.2.07.3,5.28,20.62,25.24,48,30.12,54.51a4.42,4.42,0,0,1,.83,3.26c-6,44-.91,49.5,1.1,50.07a4.21,4.21,0,0,1,1.24.51C160.41,733.77,190.1,704.94,197.73,697.36ZM195.27,638s26.88,10.08,3.83,30.26C199.1,668.3,167.57,660.8,195.27,638Zm-39.55-54.38s29.22-6.11,20,22.34C175.67,606,143.76,616.65,155.72,583.66ZM78.9,596.46a1.41,1.41,0,0,1,.14-2c4.05-2.92,22-13.61,47.69-17.89,0,0,4.88,5.44-7.95,36.26C118.82,614.29,88.22,608.26,78.9,596.46Zm59.73,37-.24,0c-1.79-.39-3.54-1.09-5.27-1.64-1.5-.48-3.79-1.07-4.37-2.69-.39-1.09-.54-4.46,1.77-3.41a51.69,51.69,0,0,1,8.34,4.91,1.21,1.21,0,0,0,.38.2,1.14,1.14,0,0,0,.52,0,4.07,4.07,0,0,0,3-4,7.17,7.17,0,0,1,1.09-2.65c.26-.46.53-.89.71-1.24a13.57,13.57,0,0,1,3.9-5.05,14.92,14.92,0,0,1,1.5-.87c.67-.35,1.34-.7,2-1a9.18,9.18,0,0,1,7.62,0s2.24.66-.56,2.3c-3.6,2.1-8.56,2.17-11.18,5.79-1.21,1.67-1.17,3.73-1.89,5.51a5.17,5.17,0,0,1-1.11,1.74A7.52,7.52,0,0,1,138.64,633.46ZM142.07,650c-.85.2-1.72.3-2.57.44a5,5,0,0,1-2.12,0c-1.16-.33-1.36-1.38-.93-2.44a3.63,3.63,0,0,1,.59-1.12,7.27,7.27,0,0,1,1.25-.84c.92-.61,1.83-1.26,2.71-1.93a7.75,7.75,0,0,1,1.08-.74l.07,0,.39-.18c.75-.34,1.55-.62,2.3-.95l2.41-1,3-1.28a2,2,0,0,0,.49-.36l.25-.22,1.88-1.46a18.53,18.53,0,0,0,1.91-1.49l2-1.58a35.64,35.64,0,0,1,4.21-3.16,13.53,13.53,0,0,1,4.72-1.45,3.6,3.6,0,0,1,1.06,0,1.22,1.22,0,0,1,.87.51,2.1,2.1,0,0,1-.28,2.05,7.67,7.67,0,0,1-1.23,1.41l-3,2.92a12.7,12.7,0,0,1-3.16,2.07c-1.64.83-3.32,1.58-5,2.26-.79.31-1.6.56-2.39.87l-.27.12a13.76,13.76,0,0,0-1.9,1.25c-.93.66-1.81,1.4-2.72,2.08a11.81,11.81,0,0,0-2.4,2.17c-.22.28-.42.58-.67.85A5.12,5.12,0,0,1,142.07,650Zm4.85,15.93c-.7-1.57.49-3.71,1.21-5.17.83-1.69,1.58-3.5,2.56-5.12l.13-.21a7.66,7.66,0,0,1,5.77-3.19,5.41,5.41,0,0,1,2.92.85c1.31.75,2.51,1.74,4.11,1.94,4.29.55,7.8-3.14,11.75-4.39,3.06-1,1.95,1.18,1.95,1.18a9.91,9.91,0,0,1-5.33,5.74c-.68.33-1.39.59-2.09.85a14.14,14.14,0,0,1-1.64.53,9.41,9.41,0,0,1-4,0c-.74-.15-1.46-.34-2.16-.54-1.06-.3-3.07-.61-3.9-1.36a3.75,3.75,0,0,0-4.76-.52,1.14,1.14,0,0,0-.38.37,1.3,1.3,0,0,0-.13.43,57,57,0,0,1-2.48,9.72C149.58,669.45,147.39,667,146.92,665.93Zm8.26,60.42a65.25,65.25,0,0,1,2.93-42.81s33.43,6.25,35.22,12.84C193.33,696.39,160.68,730.83,155.18,726.35Z" transform="translate(-8 -61.29)"/><path class="cls-1" d="M175.67,606s-31.91,10.64-20-22.34C155.72,583.66,184.94,577.55,175.67,606Z" transform="translate(-8 -61.29)"/><path class="cls-1" d="M145.95,629.6q-1.15-2.72-2.13-5.44c.26-.46.53-.89.71-1.24a13.57,13.57,0,0,1,3.9-5.05,14.92,14.92,0,0,1,1.5-.87c.67-.35,1.34-.7,2-1a9.18,9.18,0,0,1,7.62,0s2.24.66-.56,2.3c-3.6,2.1-8.56,2.17-11.18,5.79C146.63,625.76,146.67,627.81,145.95,629.6Z" transform="translate(-8 -61.29)"/><path class="cls-1" d="M163.17,637a12.7,12.7,0,0,1-3.16,2.07c-1.64.83-3.32,1.58-5,2.26-.79.31-1.6.56-2.39.87l-.27.12c-.54-.92-1.07-1.87-1.59-2.82l.25-.22,1.88-1.46a18.53,18.53,0,0,0,1.91-1.49l2-1.58a35.64,35.64,0,0,1,4.21-3.16,13.53,13.53,0,0,1,4.72-1.45,3.6,3.6,0,0,1,1.06,0,1.22,1.22,0,0,1,.87.51,2.1,2.1,0,0,1-.28,2.05,7.67,7.67,0,0,1-1.23,1.41Z" transform="translate(-8 -61.29)"/><path class="cls-1" d="M177.33,651.81a9.91,9.91,0,0,1-5.33,5.74c-.68.33-1.39.59-2.09.85a14.14,14.14,0,0,1-1.64.53,9.41,9.41,0,0,1-4,0q-2.45-2.76-4.76-5.8c1.31.75,2.51,1.74,4.11,1.94,4.29.55,7.8-3.14,11.75-4.39C178.44,649.66,177.33,651.81,177.33,651.81Z" transform="translate(-8 -61.29)"/><path class="cls-1" d="M199.1,668.3s-31.52-7.5-3.83-30.26C195.27,638,222.15,648.12,199.1,668.3Z" transform="translate(-8 -61.29)"/><path class="cls-1" d="M78.9,596.46a1.41,1.41,0,0,1,.14-2c4.05-2.92,22-13.61,47.69-17.89,0,0,4.88,5.44-7.95,36.26C118.82,614.29,88.22,608.26,78.9,596.46Z" transform="translate(-8 -61.29)"/><path class="cls-1" d="M175.67,606s-31.91,10.64-20-22.34C155.72,583.66,184.94,577.55,175.67,606Z" transform="translate(-8 -61.29)"/><path class="cls-1" d="M144.83,631.34a7.52,7.52,0,0,1-6.2,2.13l-.24,0c-1.79-.39-3.54-1.09-5.27-1.64-1.5-.48-3.79-1.07-4.37-2.69-.39-1.09-.54-4.46,1.77-3.41a51.69,51.69,0,0,1,8.34,4.91,1.21,1.21,0,0,0,.38.2,1.14,1.14,0,0,0,.52,0,4.07,4.07,0,0,0,3-4,7.17,7.17,0,0,1,1.09-2.65c.26-.46.53-.89.71-1.24a13.57,13.57,0,0,1,3.9-5.05,14.92,14.92,0,0,1,1.5-.87c.67-.35,1.34-.7,2-1a9.18,9.18,0,0,1,7.62,0s2.24.66-.56,2.3c-3.6,2.1-8.56,2.17-11.18,5.79-1.21,1.67-1.17,3.73-1.89,5.51A5.17,5.17,0,0,1,144.83,631.34Z" transform="translate(-8 -61.29)"/><path class="cls-1" d="M144.64,648.65a5.12,5.12,0,0,1-2.57,1.35c-.85.2-1.72.3-2.57.44a5,5,0,0,1-2.12,0c-1.16-.33-1.36-1.38-.93-2.44a3.63,3.63,0,0,1,.59-1.12,7.27,7.27,0,0,1,1.25-.84c.92-.61,1.83-1.26,2.71-1.93a7.75,7.75,0,0,1,1.08-.74l.07,0,.39-.18c.75-.34,1.55-.62,2.3-.95l2.41-1,3-1.28a2,2,0,0,0,.49-.36l.25-.22,1.88-1.46a18.53,18.53,0,0,0,1.91-1.49l2-1.58a35.64,35.64,0,0,1,4.21-3.16,13.53,13.53,0,0,1,4.72-1.45,3.6,3.6,0,0,1,1.06,0,1.22,1.22,0,0,1,.87.51,2.1,2.1,0,0,1-.28,2.05,7.67,7.67,0,0,1-1.23,1.41l-3,2.92a12.7,12.7,0,0,1-3.16,2.07c-1.64.83-3.32,1.58-5,2.26-.79.31-1.6.56-2.39.87l-.27.12a13.76,13.76,0,0,0-1.9,1.25c-.93.66-1.81,1.4-2.72,2.08a11.81,11.81,0,0,0-2.4,2.17C145.09,648.09,144.88,648.39,144.64,648.65Z" transform="translate(-8 -61.29)"/><path class="cls-1" d="M177.33,651.81a9.91,9.91,0,0,1-5.33,5.74c-.68.33-1.39.59-2.09.85a14.14,14.14,0,0,1-1.64.53,9.41,9.41,0,0,1-4,0c-.74-.15-1.46-.34-2.16-.54-1.06-.3-3.07-.61-3.9-1.36a3.75,3.75,0,0,0-4.76-.52,1.14,1.14,0,0,0-.38.37,1.3,1.3,0,0,0-.13.43,57,57,0,0,1-2.48,9.72c-.89,2.47-3.08,0-3.55-1-.7-1.57.49-3.71,1.21-5.17.83-1.69,1.58-3.5,2.56-5.12l.13-.21a7.66,7.66,0,0,1,5.77-3.19,5.41,5.41,0,0,1,2.92.85c1.31.75,2.51,1.74,4.11,1.94,4.29.55,7.8-3.14,11.75-4.39C178.44,649.66,177.33,651.81,177.33,651.81Z" transform="translate(-8 -61.29)"/><path class="cls-1" d="M195.27,638s26.88,10.08,3.83,30.26C199.1,668.3,167.57,660.8,195.27,638Z" transform="translate(-8 -61.29)"/><path class="cls-1" d="M155.18,726.35a65.25,65.25,0,0,1,2.93-42.81s33.43,6.25,35.22,12.84C193.33,696.39,160.68,730.83,155.18,726.35Z" transform="translate(-8 -61.29)"/><path class="cls-2" d="M199.1,668.3s-31.52-7.5-3.83-30.26C195.27,638,222.15,648.12,199.1,668.3Z" transform="translate(-8 -61.29)"/><path class="cls-3" d="M192.17,644.28c4.28-2.5,9.88-.71,12.51,4s1.29,10.58-3,13.08-9.88.71-12.51-4S187.89,646.79,192.17,644.28Z" transform="translate(-8 -61.29)"/><path class="cls-4" d="M155.18,726.35a65.25,65.25,0,0,1,2.93-42.81s33.43,6.25,35.22,12.84C193.33,696.39,160.68,730.83,155.18,726.35Z" transform="translate(-8 -61.29)"/><path class="cls-5" d="M78.9,596.46a1.41,1.41,0,0,1,.14-2c4.05-2.92,22-13.61,47.69-17.89,0,0,4.88,5.44-7.95,36.26C118.82,614.29,88.22,608.26,78.9,596.46Z" transform="translate(-8 -61.29)"/><path class="cls-6" d="M172,657.55c-.68.33-1.39.59-2.09.85a14.14,14.14,0,0,1-1.64.53,9.41,9.41,0,0,1-4,0c-.74-.15-1.46-.34-2.16-.54-1.06-.3-3.07-.61-3.9-1.36a3.75,3.75,0,0,0-4.76-.52,1.14,1.14,0,0,0-.38.37,1.3,1.3,0,0,0-.13.43,57,57,0,0,1-2.48,9.72c-.89,2.47-3.08,0-3.55-1-.7-1.57.49-3.71,1.21-5.17.83-1.69,1.58-3.5,2.56-5.12l.13-.21a7.66,7.66,0,0,1,5.77-3.19,5.41,5.41,0,0,1,2.92.85c1.31.75,2.51,1.74,4.11,1.94,4.29.55,7.8-3.14,11.75-4.39,3.06-1,1.95,1.18,1.95,1.18A9.91,9.91,0,0,1,172,657.55Z" transform="translate(-8 -61.29)"/><path class="cls-6" d="M138.64,633.46l-.24,0c-1.79-.39-3.54-1.09-5.27-1.64-1.5-.48-3.79-1.07-4.37-2.69-.39-1.09-.54-4.46,1.77-3.41a51.69,51.69,0,0,1,8.34,4.91,1.21,1.21,0,0,0,.38.2,1.14,1.14,0,0,0,.52,0,4.07,4.07,0,0,0,3-4,7.17,7.17,0,0,1,1.09-2.65c.26-.46.53-.89.71-1.24a13.57,13.57,0,0,1,3.9-5.05,14.92,14.92,0,0,1,1.5-.87c.67-.35,1.34-.7,2-1a9.18,9.18,0,0,1,7.62,0s2.24.66-.56,2.3c-3.6,2.1-8.56,2.17-11.18,5.79-1.21,1.67-1.17,3.73-1.89,5.51a5.17,5.17,0,0,1-1.11,1.74A7.52,7.52,0,0,1,138.64,633.46Z" transform="translate(-8 -61.29)"/><path class="cls-6" d="M142.07,650c-.85.2-1.72.3-2.57.44a5,5,0,0,1-2.12,0c-1.16-.33-1.36-1.38-.93-2.44a3.63,3.63,0,0,1,.59-1.12,7.27,7.27,0,0,1,1.25-.84c.92-.61,1.83-1.26,2.71-1.93a7.75,7.75,0,0,1,1.08-.74l.07,0,.39-.18c.75-.34,1.55-.62,2.3-.95l2.41-1,3-1.28a2,2,0,0,0,.49-.36l.25-.22,1.88-1.46a18.53,18.53,0,0,0,1.91-1.49l2-1.58a35.64,35.64,0,0,1,4.21-3.16,13.53,13.53,0,0,1,4.72-1.45,3.6,3.6,0,0,1,1.06,0,1.22,1.22,0,0,1,.87.51,2.1,2.1,0,0,1-.28,2.05,7.67,7.67,0,0,1-1.23,1.41l-3,2.92a12.7,12.7,0,0,1-3.16,2.07c-1.64.83-3.32,1.58-5,2.26-.79.31-1.6.56-2.39.87l-.27.12a13.76,13.76,0,0,0-1.9,1.25c-.93.66-1.81,1.4-2.72,2.08a11.81,11.81,0,0,0-2.4,2.17c-.22.28-.42.58-.67.85A5.12,5.12,0,0,1,142.07,650Z" transform="translate(-8 -61.29)"/><path class="cls-7" d="M191.57,654a3.57,3.57,0,0,1,4.87,1.59,3.76,3.76,0,0,1-1.14,5.1,3.57,3.57,0,0,1-4.87-1.59A3.76,3.76,0,0,1,191.57,654Z" transform="translate(-8 -61.29)"/><path class="cls-2" d="M175.67,606s-31.91,10.64-20-22.34C155.72,583.66,184.94,577.55,175.67,606Z" transform="translate(-8 -61.29)"/><path class="cls-3" d="M158.92,587.28c3.79-3.21,9.7-2.49,13.22,1.6s3.29,10-.49,13.23-9.7,2.49-13.22-1.6S155.13,590.5,158.92,587.28Z" transform="translate(-8 -61.29)"/><path class="cls-7" d="M160.16,596.78a3.69,3.69,0,0,1,5.15.65,3.64,3.64,0,0,1-.16,5.15,3.69,3.69,0,0,1-5.15-.65A3.64,3.64,0,0,1,160.16,596.78Z" transform="translate(-8 -61.29)"/><path class="cls-8" d="M378.66,131.38S432.85,98.55,448,115.93c0,0,9.84,5.15.14,20.54,0,0-35,32.73-47.92,32.28,0,0,4.94,17.36-14.09,25.88,0,0-11.3,26.24-54.33,24.16,0,0-37.61-13.48-38.44-34.15,0,0-8.65-29-1.62-36.92s-36.28-37.07-16.46-84.45c0,0,15.16-17.82,54.84,53.7C330.12,117,356.07,116.05,378.66,131.38Z" transform="translate(-8 -61.29)"/><path class="cls-9" d="M279.1,63.56s5.68-3.72,17.3,7.4c0,0,20.66,20.26,28.76,38.5l2,4.74s-27.29,25.86-32.21,24S272.35,104,273.78,98.59c0,0-2.2-30.12,5.58-35.17" transform="translate(-8 -61.29)"/><path class="cls-9" d="M383.11,132.13s18.47-12,29.23-14.44c0,0,23.88-9.59,33.42-3.07,0,0,10.74,5.48,3.18,16.87,0,0-21.13,23.85-47.15,34.06C401.78,165.55,395.2,164.45,383.11,132.13Z" transform="translate(-8 -61.29)"/><path class="cls-10" d="M312.65,188.56" transform="translate(-8 -61.29)"/><path class="cls-11" d="M353.18,141l1.44.42a18.54,18.54,0,0,1,3.56-3.93s2-3.24,3.11-3.59c0,0,7.83-3.72,12.38,5.07,0,0,1.52,4.55.69,6.52,0,0,9.61,10.33,7.12,16.2L380.3,164s13.72,5.26,15,3.56c0,0,3.18,1.74.74-2.56l-1.21-4.87s-9.2-15.83-13-27.16a7.86,7.86,0,0,1-2.66-.78l-.38-.94s-16.06-13.53-47.25-13.81a10.51,10.51,0,0,1-3.06-2.41S300.85,139.78,297,139.61c0,0-2.37,4.55-.44,5.12s-.18.64-.18.64,12.72.54,14.26-.67c0,0,2.33-13,10.55-12.79,0,0,7.22-9.45,11.95-7.19,0,0,7.41-.61,10.63,11.58l.58,2.31,1.7.78" transform="translate(-8 -61.29)"/><path class="cls-12" d="M347.54,128.12a9.67,9.67,0,0,1,.26-1,18.25,18.25,0,0,1,2.19-4.65,4.44,4.44,0,0,1,1.59-1.64c.75-.32,1,.13,1.66.1,0,0,9.33-.45,4.77,9.82,0,0-10.42,24.56-8.74,24.64-.36,0,.1,3.21.23,3.51.55,1.27,1.75,1.8,2.71,2.67a30.08,30.08,0,0,1,8.65,13.85,9.81,9.81,0,0,0,1.61,3.61c2.68,3.26,6.45-.5,9.09-2a13.59,13.59,0,0,1,7.37-1.88c2.63.19,4,1.32,5.78,3.13,1.38,1.37,1.44,3,1,4.9a42,42,0,0,1-9.4,19.24c-5,5.7-11.47,8.2-18.32,10.58a55.31,55.31,0,0,1-21,3.26q-.92,0-1.84-.13s-32.42-9.19-37.27-30.49c0,0-5.87-28.64.85-32.34,0,0,6.42-3.09,8.72,2.55,0,0,6.26,13.43,12.36,10.24,0,0,9.07-11.16,17.74-8.9,0,0,2.56-.22,3-1.33,1.51-3.68,3.56-7.16,4.84-10.94a41,41,0,0,0,1.79-11.89A28,28,0,0,1,347.54,128.12Z" transform="translate(-8 -61.29)"/><path class="cls-13" d="M325,178.74c.67-.67,17.89-8.72,25.13,7.34,0,0,2.91,9.69-14.69,9.65C335.42,195.73,317.39,186.32,325,178.74Z" transform="translate(-8 -61.29)"/><path class="cls-14" d="M316.6,197c-1.8,8.17-4.28,14.73,9.88,22.5,0,0,15.95,5.1,21.84-13.94" transform="translate(-8 -61.29)"/><path class="cls-15" d="M330.73,151.35c.16,3.37-4.82,4.66-8.2,3.28s-6.2-5.69-4-8.27c1.82-2.17,4.71-4.17,8.09-2.79S330.59,148.39,330.73,151.35Z" transform="translate(-8 -61.29)"/><path class="cls-16" d="M329.23,150.66a4.59,4.59,0,0,1-6.19,2.48A5.07,5.07,0,0,1,320,146.9a4.59,4.59,0,0,1,6.19-2.48A5.07,5.07,0,0,1,329.23,150.66Z" transform="translate(-8 -61.29)"/><path class="cls-17" d="M327.42,149.17c-.68,1.91-2.38,3-3.79,2.41s-2-2.58-1.31-4.49,2.38-3,3.79-2.41S328.1,147.27,327.42,149.17Z" transform="translate(-8 -61.29)"/><path class="cls-18" d="M324,145.72c.22-.56.74-.86,1.15-.67a1.07,1.07,0,0,1,.34,1.38c-.22.56-.74.86-1.15.67A1.07,1.07,0,0,1,324,145.72Z" transform="translate(-8 -61.29)"/><path class="cls-15" d="M371.53,161.82c.65,3.29-4.1,5.35-7.65,4.53s-7-4.62-5.22-7.5c1.49-2.43,4.07-4.85,7.62-4S371,158.92,371.53,161.82Z" transform="translate(-8 -61.29)"/><path class="cls-16" d="M369.94,161.37a4.67,4.67,0,0,1-5.78,3.42,5,5,0,0,1-3.94-5.67,4.67,4.67,0,0,1,5.78-3.42A5,5,0,0,1,369.94,161.37Z" transform="translate(-8 -61.29)"/><path class="cls-17" d="M367.93,160.2c-.4,2-1.93,3.32-3.41,3s-2.36-2.23-2-4.21,1.93-3.32,3.41-3S368.34,158.21,367.93,160.2Z" transform="translate(-8 -61.29)"/><path class="cls-18" d="M364,157.34c.14-.59.61-1,1-.84a1.05,1.05,0,0,1,.54,1.3c-.14.59-.61,1-1,.84A1.05,1.05,0,0,1,364,157.34Z" transform="translate(-8 -61.29)"/><path class="cls-19" d="M312.2,176.83c.06,7.31,1.24,16.13,7.56,20.35a20.65,20.65,0,0,0,7.16,2.68c1.57.35,3.32,1,4.91.24a6.42,6.42,0,0,0,3.15-4.34c-.23,1.5-1.38,3.08-.91,4.9a1.48,1.48,0,0,0,.12.31c.06.07,0,0,0,0,3.28,4.59,10,4.26,15,3.34a31.65,31.65,0,0,0,16.72-8.92" transform="translate(-8 -61.29)"/><path class="cls-20" d="M27,276.15a2,2,0,0,0,1.36-2,21,21,0,0,1,1.6-6.77,122.41,122.41,0,0,1,10-20.91c1.94-3.29,4-6.5,6.13-9.65,1.84-2.7,3.77-6,6.8-7.22C54.45,229,42,211.91,57,201a7.37,7.37,0,0,0,1.32-1.22C60.73,196.94,71.88,187,92,218.06a1.81,1.81,0,0,0,1,.76c2.59.78,12.71,4.16,17.4,10.51a1.86,1.86,0,0,0,.49.47,58.82,58.82,0,0,1,20.39,23.31,56,56,0,0,1,5.66,25.18c-.13,13.64-3.74,25.43-12.29,35.41A104,104,0,0,1,109.75,328c-13,10.18-29.55,16.4-45.14,9.1a44.14,44.14,0,0,1-10-6.62,1.74,1.74,0,0,0-.47-.29c-1.54-.63-9.84-4.31-13.76-11.59a1.8,1.8,0,0,0-1.47-1c-5.2-.29-29-2.63-30.44-21.58a2.12,2.12,0,0,0-.08-.45C7.85,294,5.29,282.7,27,276.15Z" transform="translate(-8 -61.29)"/><path class="cls-21" d="M63.57,265.67a38.17,38.17,0,0,0-4,5.77,27.23,27.23,0,0,0-3.33,13c0,.92-.25,1.9-.29,2.83-.37,10.74,6.31,19,15.11,23,4.63,2.11,9.1,4.61,13.93,6.14,3.7,1.17,7.79,2.19,11.56.81,3.14-1.15,6.47-1.58,9.64-2.71,3.82-1.37,7.71-3.27,10.61-6.38a13.8,13.8,0,0,0,2.34-3.36s6.74-16.63,1.7-26.76a50.59,50.59,0,0,0-5.17-16.08,24.44,24.44,0,0,0-3.8-5.43c-1.81-1.89-4.15-2.93-6.21-4.43a56.35,56.35,0,0,0-5.1-3.51c-3.61-2.07-7.65-3.29-11.73-2.5-.86.17-1.72.38-2.58.59-5.42,1.33-11.11,2.38-15,7.18-1.56,2-2.61,4.41-3.9,6.58A49.3,49.3,0,0,1,63.57,265.67Z" transform="translate(-8 -61.29)"/><path class="cls-22" d="M94.52,309.12s5.82-10.95,4.65-21.84c0,0,10.37-3.07,14.16-8.56" transform="translate(-8 -61.29)"/><path class="cls-23" d="M9.23,289.09h0a7.15,7.15,0,0,1,1.38-1.66q.68-.7,1.39-1.36A31.75,31.75,0,0,1,15.88,283a21.72,21.72,0,0,1,5-2.53,13.17,13.17,0,0,1,5.56-.75l.31,0,1.56.25s0,25.8,10.32,36.56c0,0-28.69-.41-29.62-20.5,0-.34-.15-.7-.19-1a14.68,14.68,0,0,1-.08-2.81,16.34,16.34,0,0,1,.19-1.63A5,5,0,0,1,9.23,289.09Z" transform="translate(-8 -61.29)"/><path class="cls-23" d="M54,229.5s-10.43-19.27,2.79-26.76c0,0,10.11-17,33.38,17C90.12,219.74,68.93,219,54,229.5Z" transform="translate(-8 -61.29)"/><path class="cls-24" d="M45.26,296.28c-2.49-1.29-8.52-5.61-1.53-14.82a1,1,0,0,1,1.28-.34c1.74,1,5.61,4.48,1.65,14.5A1,1,0,0,1,45.26,296.28Z" transform="translate(-8 -61.29)"/><path class="cls-25" d="M44.35,288.59c.26,1.44-.38,2.78-1.42,3s-2.09-.77-2.35-2.2.38-2.78,1.42-3S44.09,287.16,44.35,288.59Z" transform="translate(-8 -61.29)"/><path class="cls-26" d="M43.21,288.68c.31,1.07,0,2.11-.65,2.34s-1.46-.46-1.76-1.53,0-2.11.65-2.34S42.91,287.61,43.21,288.68Z" transform="translate(-8 -61.29)"/><path class="cls-24" d="M65.36,239.87c1.76-2.77,7.2-9.87,13.84-4.07a1.29,1.29,0,0,1-.24,1.86c-2.53,2.07-8.74,6.42-13.42,3.75A1.09,1.09,0,0,1,65.36,239.87Z" transform="translate(-8 -61.29)"/><path class="cls-27" d="M73.55,235.58a2.31,2.31,0,0,1-1.59,2.7,2.05,2.05,0,0,1-2.79-1.06,2.31,2.31,0,0,1,1.59-2.7A2.05,2.05,0,0,1,73.55,235.58Z" transform="translate(-8 -61.29)"/><path class="cls-28" d="M72.29,234.92a1.56,1.56,0,0,1-.68,1.94,1.31,1.31,0,0,1-1.91-.17,1.56,1.56,0,0,1,.68-1.94A1.31,1.31,0,0,1,72.29,234.92Z" transform="translate(-8 -61.29)"/><path class="cls-29" d="M73.06,296.16S36.64,335.91,33.63,357.8" transform="translate(-8 -61.29)"/><path class="cls-30" d="M81.65,303.94s-6.86,42.25,11.74,80.66" transform="translate(-8 -61.29)"/><path class="cls-29" d="M78.1,300.57s-21,50.53-10.72,76.15" transform="translate(-8 -61.29)"/><path class="cls-30" d="M94.94,255.75s-7.15-38.55,19.57-66.59" transform="translate(-8 -61.29)"/><path class="cls-31" d="M71.47,269.15S53.1,292.41,74.25,295c0,0,15.17-2,20.39-11.52,0,0,4.79-18.69,1.28-21.16C95.93,262.35,86.56,238.34,71.47,269.15Z" transform="translate(-8 -61.29)"/><path class="cls-30" d="M101.26,261.26s1-15.39,39.75-49" transform="translate(-8 -61.29)"/><path class="cls-30" d="M107.62,266.81s43.86-38,65.49-23.78" transform="translate(-8 -61.29)"/><line class="cls-22" x1="78.5" y1="216.66" x2="91.17" y2="225.99"/><path class="cls-32" d="M70.85,281.24s-2.75-13.87,12-18.21c0,0,8.72.57,3.66,14.92C86.5,277.95,75.33,291.14,70.85,281.24Z" transform="translate(-8 -61.29)"/><path class="cls-33" d="M78.83,278.56a1.3,1.3,0,0,1,.18,1.72,1.06,1.06,0,0,1-1.58.19,1.3,1.3,0,0,1-.18-1.72A1.06,1.06,0,0,1,78.83,278.56Z" transform="translate(-8 -61.29)"/><path class="cls-33" d="M84.5,268.51a1.3,1.3,0,0,1,.18,1.72,1.06,1.06,0,0,1-1.58.19,1.3,1.3,0,0,1-.18-1.72A1.06,1.06,0,0,1,84.5,268.51Z" transform="translate(-8 -61.29)"/><path class="cls-32" d="M98.57,297.35s9.53-3.25,8.63-13.51" transform="translate(-8 -61.29)"/><path class="cls-34" d="M99.51,294.33a47.63,47.63,0,0,0,.32-5.91c0-.17-.08-.48.06-.61a2.92,2.92,0,0,1,.52-.29l.64-.35,1.71-1c1.2-.67,2.4-1.35,3.59-2.06.22-.13.37.19.39.34.3,3.25-4.1,11.91-7.35,11.31-.12,0,.07-1.1.08-1.21Z" transform="translate(-8 -61.29)"/><path class="cls-35" d="M451.74,362c.77-.24-1.1-5.56,3.54-12.4a2.53,2.53,0,0,0,.31-2.24c-1.55-4.69-5.4-23,16.95-48.56a3.09,3.09,0,0,1,5.08,1A192.5,192.5,0,0,1,487.4,341a2.58,2.58,0,0,1,0,.37c0,1.89-.39,17.78-2.9,24.56a2.74,2.74,0,0,0,1.09,3.16,9.66,9.66,0,0,1,1.47,1.31,3.23,3.23,0,0,0,3.54.83c4.45-1.8,9-3.6,13.68-5a58.32,58.32,0,0,1,14.45-3,22.26,22.26,0,0,1,2.89,0c1.41.12,2.75.47,4.15.5,1.68,0,3.37.13,5.06.25,2.56.18,5.18.77,7.73.74,1.42,0,2.84-.08,4.27-.06a81.58,81.58,0,0,1,11.46.88c3,.48,6.37,1.16,9,2.83a2.67,2.67,0,0,1,1,3.71c-1.91,2.89-7.53,9-23.86,18.27l-.17.09c-1.19.57-14.26,6.66-28.07,5.1a2.9,2.9,0,0,0-2.17.61,27.33,27.33,0,0,1-11.33,5.09,2.57,2.57,0,0,0-2.08,2.58c.18,5,.23,17.47-3.16,26.06,0,0-11.65,32.15-41.84,10.11a3.4,3.4,0,0,0-1.24-.57c-3.69-.85-22.69-6.52-42-35.9,0,0-13-20.48,9-33.2l.12-.07c.79-.53,11.29-7.3,29.53-6.25a2.84,2.84,0,0,0,2-.66A7.9,7.9,0,0,1,451.74,362Z" transform="translate(-8 -61.29)"/><path class="cls-36" d="M478.15,373.2a10,10,0,0,0-5.28.41,13.63,13.63,0,0,0-2.34,1.52c-1.38,1-2.55,2.2-4,3.06s-3,.9-4.44,1.38a16.81,16.81,0,0,0-3.67,1.93q-4.33,2.72-8.86,5.16c-2.8,1.51-5.73,2.75-8.44,4.42-1.77,1.18-3.14,2.53-5.42,2.86-1,.15-2,.32-3.05.55a27.45,27.45,0,0,0-7.74,3c-6.29,3.69-8.66,10.06-7.16,17,0,0,.3,1.46.35,1.52s17.05,20.67,32.3,22.95a4.07,4.07,0,0,0,1.46-.06c6.78-1.45,14.29-5.49,15.53-12.38a18,18,0,0,0,.08-4.94c-.2-2.15.43-3.73,1.07-5.7a19.92,19.92,0,0,0,1.15-6.48,12.55,12.55,0,0,1,1.47-5.48c.95-2.08,1.84-4.18,2.59-6.34a20.73,20.73,0,0,0,1.35-5.12c.14-1.69,0-3.52.56-5.13.69-1.85,2.28-3.23,3.08-5a18.75,18.75,0,0,0,1.68-6.81C480.39,374.17,479.42,373.49,478.15,373.2Z" transform="translate(-8 -61.29)"/><path class="cls-37" d="M450.79,412.95l-9.83-1,4.34,3.3-3.06-9.88c-1.71-5.51-10.4-3.16-8.68,2.39l3.06,9.88a4.69,4.69,0,0,0,4.34,3.3l9.83,1c2.42.25,4.5-2.25,4.5-4.5,0-2.64-2.07-4.25-4.5-4.5Z" transform="translate(-8 -61.29)"/><path class="cls-38" d="M441,416.42l-5.89,6.66s-2.85.1-3.72-1" transform="translate(-8 -61.29)"/><path class="cls-38" d="M436.3,426.33s-1-.36-1.23-3.24" transform="translate(-8 -61.29)"/><path class="cls-39" d="M449,373.26c-1.22,1.26-2.76,1.81-3.43,1.24s-.24-2.06,1-3.32,2.76-1.81,3.43-1.24S450.23,372,449,373.26Z" transform="translate(-8 -61.29)"/><path class="cls-39" d="M487.56,405.87c-1.22,1.26-2.76,1.81-3.43,1.24s-.24-2.06,1-3.32,2.76-1.81,3.43-1.24S488.78,404.62,487.56,405.87Z" transform="translate(-8 -61.29)"/><path class="cls-40" d="M474.61,300.35c.43.06.63.81.83,1.58l3.18,12.63c.93,3.67,1.85,7.35,3,11,.65,2,1.38,4,1.9,6a41.09,41.09,0,0,1,1,11.87,64.12,64.12,0,0,1-4.21,20.4,1.93,1.93,0,0,1-.6.94c-.67.48-1.68.1-2.48-.28-5.95-2.83-12.57-5.61-18.79-4.3-.86.18-1.91.39-2.58-.21a2.14,2.14,0,0,1-.45-1.94,18.9,18.9,0,0,1,1.21-4.64,24.66,24.66,0,0,0,1-2.69,16.52,16.52,0,0,0,.38-4,83.67,83.67,0,0,1,4.43-25.91A65.35,65.35,0,0,1,468,308.93a58.77,58.77,0,0,1,3.66-5.44c.66-.88,1.35-1.74,2.07-2.57C474.1,300.48,474.38,300.32,474.61,300.35Z" transform="translate(-8 -61.29)"/><path class="cls-40" d="M494.41,374.15c7.75-3.63,27.79-11.61,43.74-5.94a2.83,2.83,0,0,0,1.78,0,29.4,29.4,0,0,1,19.7,1.28,2.52,2.52,0,0,1,1,4.19c-6.29,5.92-25,19.35-46.62,18.54a2.74,2.74,0,0,0-1.68.47c-1.69,1.19-6.07,4.11-9.88,5.22a2.83,2.83,0,0,1-3.64-2.81c.43-4.14.31-11.69-5-17.15A2.35,2.35,0,0,1,494.41,374.15Z" transform="translate(-8 -61.29)"/><path class="cls-35" d="M476,298.59s7.08,51.22-17.76,63.62c0,0,8.6-1.52,23.47,5.78,0,0,6.4-19,4.46-29.9C486.13,338.1,481.8,305.8,476,298.59Z" transform="translate(-8 -61.29)"/><path class="cls-35" d="M490.2,375.49q0-.08,0-.16c0-2.4,7.53-4.46,9.48-5.16A76.31,76.31,0,0,1,523,365.72q3.07-.1,6.14.05c1.18.06,4.72,1,5.69.51-11.33,5.48-22.75,11-32.7,18.53-1.78,1.34-3.68,3.17-3.3,5.24l-8-13.05A3.77,3.77,0,0,1,490.2,375.49Z" transform="translate(-8 -61.29)"/><path class="cls-35" d="M538.81,368l-15.4-3.89-1.62,6S531,366.34,538.81,368Z" transform="translate(-8 -61.29)"/><path class="cls-41" d="M436.82,333.88a127.46,127.46,0,0,1-.11,15.39C430,446.12,305.09,484.86,212.41,459.36,125.57,435.46,83.25,329.76,119.15,258c22.16-44.31,82.13-59.82,132.51-57.8,21.54.86,42.79,4.67,63.47,10,16.47,4.25,34,6,49.84,11.93C410.88,239.3,434.54,290.19,436.82,333.88Z" transform="translate(-8 -61.29)"/><path d="M232.93,313.87a113.88,113.88,0,0,1-12.05,7.1l-2.2-4.39c10.25-4.14,17-8.77,20.08-13.82l3.87.89-.43.75a48.79,48.79,0,0,0,20.11,7.72l-1.73,4.81a70,70,0,0,1-12.37-4.41l.22,3.7-15.27,1.44ZM241.82,337a17.33,17.33,0,0,0,5.46,5.45,72.92,72.92,0,0,0,11.88-8.34l2.34,3.66a65.36,65.36,0,0,1-9.89,7c3.14,1.29,7.46,1.87,12.82,1.69l-.84,4.73-.51,0a62.76,62.76,0,0,1-9.4-1.25,28.18,28.18,0,0,1-16.49-12.55l-7.12.67.64,10.6a56.5,56.5,0,0,0,8.67-3l1.35,4.36a71.94,71.94,0,0,1-18,5.2l-.57-4.76,4.56-.87-1.69-27.84c-.06-.92.25-1.34,1-1.41l28.9-2.73c.8-.08,1.24.27,1.3,1.19l.92,15.22q.09,1.47-1.18,1.59Zm-11.64-12.57c-.94.09-.92.42-.79,2.48l23.28-2.2c-.12-2-.15-2.39-1.13-2.3Zm22.75,4.69-23.28,2.2.15,2.39,22.67-2.14c.42,0,.6-.27.57-.76ZM247,311.94a64,64,0,0,1-7.08-4.14,53.82,53.82,0,0,1-5.94,5.37Z" transform="translate(-8 -61.29)"/><path d="M266.87,334.39c3.33-1.74,6.07-3.25,8.15-4.6l-.94-15.44-3.09.29a80.38,80.38,0,0,1-1,9.71l-3.93-.28A75.5,75.5,0,0,0,267.21,305l-.17-2.83,3.79-.36.17,2.83.09,5.35,2.72-.26-.61-10.06,4-.38.61,10.06,4-.38.28,4.62-4,.38.8,13.16,3.5-2.9,2.48,3.54a49.26,49.26,0,0,1-5.67,4.42l1.06,17.45-4,.38-.93-15.28-6,3.63Zm18.44,9.69c9.16-7.37,13.48-19.26,12.87-35.61l-2.81.27-.36,6.43c-.92,7.41-4.35,15.23-10.08,23.26l-3.62-2.17c8.84-11.93,9.9-17.72,10.18-27.16l-3.33.31a52.92,52.92,0,0,1-3.9,11.8l-3.95-1.38a54.12,54.12,0,0,0,5.32-21.12l4,.23-.6,5.69,18-1.7c1.1.22,1.52.29,1.66,2.52l1,21.17c.39,10.3-.87,16.76-3.68,19.38a5.46,5.46,0,0,1-3.5,1.37,22.79,22.79,0,0,1-6.82-.67l-.47-5.37a18.38,18.38,0,0,0,6.37,1,2.77,2.77,0,0,0,1.84-.72,9.35,9.35,0,0,0,1.9-4.33,49.86,49.86,0,0,0,.37-11c-.16-5.78-.38-10.19-.57-13.23s-.33-4.67-.53-4.87a.49.49,0,0,0-.54-.33l-1.92.18a68.12,68.12,0,0,1-2.89,22.31,43.58,43.58,0,0,1-10.62,16.75Z" transform="translate(-8 -61.29)"/><path class="cls-41" d="M405.48,421.72c6.26,1.79,12.31,3.79,18.07,6,112,42.84,123.21,163.52,67.71,232.21-52,64.36-187.94,59.63-262.48,1.67-46-35.78-47.73-92.52-31.5-134.4,6.94-17.91,17.27-34.44,29.23-49.91,9.53-12.32,16.4-26.48,27.75-37.63C287.12,407.38,353.47,406.88,405.48,421.72Z" transform="translate(-8 -61.29)"/><path d="M319.45,576.16a62.39,62.39,0,0,1-4.56,13.41l-4-1.7c3.08-6.87,5-13.11,5.48-18.61l1.53-21.41c.06-.79.45-1.19,1.23-1.11l33,3.44a1.16,1.16,0,0,1,1.15,1.41l-2.64,37c-.38,5.36-4.65,4.92-6.16,4.76a37.34,37.34,0,0,1-5.87-1.21l.21-4.84a24.19,24.19,0,0,0,5.7,1.73c1.42.15,2.18-.17,2.32-2.14l.56-7.82-12.24-1.28L334.23,591l-3.85-.4.94-13.24Zm.62-4.15,11.55,1.2.61-8.51-11.55-1.2Zm12.46-11.49.58-8.12-11.05-1.15c-.32,0-.47.15-.5.49l-.54,7.58Zm2.95,13.1,12.24,1.28.61-8.51-12.24-1.28ZM337,552.8l-.58,8.12,12.24,1.28.54-7.58a.5.5,0,0,0-.47-.59Z" transform="translate(-8 -61.29)"/><path d="M362.29,592.72l-.12,1.67-3.9-.41,1.54-21.6c0-.45.23-.67.69-.62l16.37,1.71a.79.79,0,0,1,.81.93l-1.53,21.45-3.9-.41.12-1.67Zm.3-4.18,10.09,1.05.83-11.66a.54.54,0,0,0-.55-.65l-8.94-.93c-.46,0-.61.18-.59.53Zm34.77-17.3c0,.44-.18.62-.6.58l-33.42-3.48c-.37,0-.54-.25-.5-.7L363.94,552q0-.59.59-.53L398,554.95c.41,0,.54.25.51.65Zm-3.22-12.48L367.77,556c-.14,0-.19,0-.2.18l-.58,8.07c0,.15,0,.25.16.27l26.36,2.75c.14,0,.19-.08.2-.23l.58-8.07Zm-10,36.23-.12,1.67-3.9-.41,1.54-21.6c0-.45.23-.67.69-.62l16.41,1.71a.77.77,0,0,1,.77.92L398,598.13l-3.9-.41.12-1.67Zm.3-4.18,10.09,1.05.83-11.66a.54.54,0,0,0-.55-.65l-8.94-.93c-.46,0-.61.18-.59.53Z" transform="translate(-8 -61.29)"/></svg>