<svg id="圖層_1" data-name="圖層 1" xmlns="http://www.w3.org/2000/svg" viewBox="0 0 170 90.84"><title>logo-03</title><path d="M123.53,45c5.21,1.75,3.06,15.15,3.06,15.15a38.23,38.23,0,0,1,1.75,26.16c-9.63,6.2,2.63,4.13,2.63,4.13,3.06-5.51,3.94-15.84,3.94-15.84,3.06,5.51,7,4.82,7,4.82,1.31,7.57,8.32,5.51,3.5,5.51s-12.26,1.38-9.19,4.82c2.25,2.52,7.64,1.58,10.38,1.43,3.29-.19,10.82.81,13-2.93a18.39,18.39,0,0,1,1.31-2.54c1.42-1.76,4.15-1.86,5.85-3.5a38.74,38.74,0,0,0,4.47-5.95,24.66,24.66,0,0,0,4.75-11.82c.46-5.28-1.56-10.77-5.11-13.89,3.64,3.67,4.29,10.43,2.62,15.79a19.47,19.47,0,0,1-5.53,8.76c-1.15,1-2.95,1.75-3.85.41a4.23,4.23,0,0,1-.51-1.56c-2.3-12-8.25-20.36-13.75-30.34-5.69-9.64-6.13-17.9-6.13-17.9-3.06-37.18-5.25-19.28-5.25-19.28C133.17,5.78,131,10.6,131,10.6a26.53,26.53,0,0,0-5.25-.69s-2.63,3.44,2.19,11.7c0,0-3.5,12.39-3.94,9.64s-10.07,0-17.08-8.26c0,0-7.88-2.75,0,6.2a29.16,29.16,0,0,1,7.44,6.2S117.4,43,123.53,45Z" transform="translate(-6 -2.16)"/><path d="M135.46,7.42s-.52-10,3.2-1Z" transform="translate(-6 -2.16)"/><path d="M20.67,31.29H7.47c-.81,0-1.47,1-1.47,2.18V74.82C6,76,6.65,77,7.47,77H20.67c.81,0,1.47-1,1.47-2.18V33.47C22.14,32.26,21.49,31.29,20.67,31.29ZM18.3,67.57c0,1.42-.78,2.57-1.73,2.57H12.34c-1,0-1.73-1.15-1.73-2.57V65.86c0-1.42.78-2.57,1.73-2.57h4.23c1,0,1.73,1.15,1.73,2.57ZM18.3,55c0,1.42-.78,2.57-1.73,2.57H12.34c-1,0-1.73-1.15-1.73-2.57V53.29c0-1.42.78-2.57,1.73-2.57h4.23c1,0,1.73,1.15,1.73,2.57Zm0-13.71c0,1.42-.78,2.57-1.73,2.57H12.34c-1,0-1.73-1.15-1.73-2.57V39.57c0-1.42.78-2.57,1.73-2.57h4.23c1,0,1.73,1.15,1.73,2.57Z" transform="translate(-6 -2.16)"/><path d="M24.81,53.72h0c1,.62,2.11-.06,2.52-1.5l6.6-23a3.51,3.51,0,0,0-1-3.75h0c-1-.62-2.11.06-2.52,1.5l-6.6,23A3.51,3.51,0,0,0,24.81,53.72Z" transform="translate(-6 -2.16)"/><path d="M51,52.14h0c-.92.79-2.1.32-2.63-1L40.27,30.17a3.72,3.72,0,0,1,.7-3.9h0c.92-.79,2.1-.32,2.63,1l8.13,20.92A3.72,3.72,0,0,1,51,52.14Z" transform="translate(-6 -2.16)"/><path d="M47.71,69.32C47.09,74.57,45.3,79.75,44,84.7c-.45,1.7-1.23,3-2.54,2.16a9,9,0,0,1-2.76-3.25c-.68-1.21-2.23-3.82-2.08-5.51a2.66,2.66,0,0,1,.72-1.53,1.49,1.49,0,0,1,.81-.59c1.19-.2,2.78,2.53,3.85,3.27,0,0,.05,0,.06,0,.61-3.72,1.47-7,2-10.78.25-1.68.24-3.9.34-5.61a24.85,24.85,0,0,0-.06-3c-.09-1.29-.82-2.28-1.69-2.28H38.06s0,0,0,0l-1.27,4.53-1.54,5.71h0l-.77,3.42h0l-1.53,4.56h0l-2.3,4.55,0,0c-4.55,3.37-3.1-2.16-3.07-2.29h0l2.3-4.56h0c1.47-3.28,4.28-14.9,4.53-15.92,0,0,0-.07,0-.07H29.2c-.93,0-1.77-1.15-1.67-2.53A2.76,2.76,0,0,1,28,53.68,1.32,1.32,0,0,1,29.06,53H46.42c1,0,1.86,1.24,1.86,2.77A112.12,112.12,0,0,1,47.71,69.32Z" transform="translate(-6 -2.16)"/><path d="M79,26.72" transform="translate(-6 -2.16)"/><ellipse cx="74.95" cy="22.84" rx="1.92" ry="2.86"/><path d="M102.88,29.53a9.2,9.2,0,0,1-.11,2.73c-.19,1-.51,2-.75,3-.38,1.55-1.16,4.85-2.74,3.67l-.61-.46a1.65,1.65,0,0,1-.57-1l-.51-2.26a9.4,9.4,0,0,1,.19-2.28c0-2.14-1.86-1.66-2.78-1.66H65.55c-.62,0-1.13.75-1.13,1.68A21.14,21.14,0,0,1,64,38a7.56,7.56,0,0,1-.45,1.49c-.47,1-1.18,1-1.92,1a1.71,1.71,0,0,1-1.07-.24,2.25,2.25,0,0,1-.63-.86c-1.4-2.95-.47-6.26-.08-9.41.13-1,.4-2.09,1.21-2.09H88c4,0,8.06,0,12.08-.14a2.78,2.78,0,0,1,2.2.43A2.39,2.39,0,0,1,102.88,29.53Z" transform="translate(-6 -2.16)"/><path d="M69,35.86A19.66,19.66,0,0,1,66.75,40a8.55,8.55,0,0,1-2.41,2.39A3.84,3.84,0,0,0,62.5,46c.06,1.3.87,3,1.72,3.36,1,.46,2.42-.71,3.3-1.37a16.9,16.9,0,0,0,5.36-7.56A7.72,7.72,0,0,0,73,36.11C72.13,34.06,69.91,33.69,69,35.86Z" transform="translate(-6 -2.16)"/><path d="M89.79,41.57s0,4.57,8.46,6.86a8.34,8.34,0,0,0,2.08,0,.94.94,0,0,0,.5-.09,1.78,1.78,0,0,0,.58-.92,7.08,7.08,0,0,0,.43-1.66,2.88,2.88,0,0,0-1.31-3,5.27,5.27,0,0,0-1.5-.39,15.82,15.82,0,0,1-3.57-1.09,3.19,3.19,0,0,1-1.41-1c-.75-1-.44-3-.9-4.34-.61-1.76-2.13-1.64-3-.45C88.94,37,89.36,39.65,89.79,41.57Z" transform="translate(-6 -2.16)"/><path d="M89.79,65.57h.59c.52,0,.95-.63.95-1.41v-.88C91.33,64.54,90.63,65.57,89.79,65.57Z" transform="translate(-6 -2.16)"/><path d="M94.4,49.57H69.8c-.85,0-1.54,1-1.54,2.29V66.72C68.26,68,69,69,69.8,69H94.4c.85,0,1.54-1,1.54-2.29V51.86C95.94,50.6,95.25,49.57,94.4,49.57ZM91.33,64.17c0,.78-.42,1.41-.95,1.41H72.11c-.85,0-1.54-1-1.54-2.29V56.43c0-1.26.69-2.29,1.54-2.29H89.79c.85,0,1.54,1,1.54,2.29Z" transform="translate(-6 -2.16)"/><path d="M91.44,58.72H80.06c-.57,0-1,.68-1,1.52v4.38c0,.84.46,1.52,1,1.52H90.8c.92,0,1.68-1.11,1.68-2.48V60.24C92.48,59.4,92,58.72,91.44,58.72Zm.19,4.67c0,.84-.46,1.52-1,1.52H81.74c-.57,0-1-.68-1-1.52v-.67c0-.84.46-1.52,1-1.52H90.6c.57,0,1,.68,1,1.52Z" transform="translate(-6 -2.16)"/><path d="M91.33,63.29v.88c0,.78-.42,1.41-.95,1.41h-.59C90.63,65.57,91.33,64.54,91.33,63.29Z" transform="translate(-6 -2.16)"/><path d="M102.09,67.83v20.4c0,.91-.63,1.52-1.19,1.14-2.58-1.77-8.32-6-6.5-7.8A2.08,2.08,0,0,1,96.55,81c.48.08.93-.4,1-1.12l.57-6.54c0-.55-.24-1-.61-1H65.17c-.61,0-1.1.73-1.1,1.64v8.75c0,2.14.43,4.73.35,6.88C64.36,91.16,63.79,93,62.5,93c-.91,0-1.41-1.17-1.54-2.34a4.68,4.68,0,0,1,0-.73c0-.58,0-1.15,0-1.74.12-5.52,0-11.07,0-16.61V70.35c0-2,1.13-3.63,2.52-3.63h4.78C68.26,68,69,69,69.8,69H94.4c.85,0,1.54-1,1.54-2.29h5.4C101.75,66.72,102.09,67.22,102.09,67.83Z" transform="translate(-6 -2.16)"/><line x1="54.96" y1="89.12" x2="54.96" y2="89" fill="none"/><path d="M88.2,74.71H75c-1.17,0-2.11,1.41-2.11,3.14v8c0,.8.44,1.45,1,1.45h15c.54,0,1-.65,1-1.45V77.07C89.79,75.77,89.08,74.71,88.2,74.71Zm-1.49,6.35c0,.91-.49,1.65-1.11,1.65H77.06c-.61,0-1.11-.73-1.11-1.65V79.79c0-.91.49-1.65,1.11-1.65h8.55c.61,0,1.11.73,1.11,1.65Z" transform="translate(-6 -2.16)"/></svg>