<svg id="圖層_1" data-name="圖層 1" xmlns="http://www.w3.org/2000/svg" viewBox="0 0 168.45 171.64"><defs><style>.cls-1{fill:#fff;stroke:#000;stroke-miterlimit:10;stroke-width:8px;}</style></defs><title>mouse_bottom</title><path class="cls-1" d="M168.82,91.33a53.92,53.92,0,0,1-1.9,6.5C162.33,119,156.24,140,139.46,153.18a49.7,49.7,0,0,1-3.64,3.65,36,36,0,0,1-8.47,5.73,51.81,51.81,0,0,1-10.9,5.51c-14.91,5.46-31.21,3.89-47.15,1.78-1.91-.27-3.75-.64-5.58-1.08-12.55-3.16-24.32-10.09-34.6-18.43a44.06,44.06,0,0,1-4.32-3,23.16,23.16,0,0,1-3.7-3.7C10,129.22,17.23,107.58,12.05,90.09A52,52,0,0,1,11,83.84a49.65,49.65,0,0,1,3.12-23.57,54.37,54.37,0,0,1,2.45-5.44c9-13.36,17.87-27.18,30.09-37.56a45.32,45.32,0,0,1,9-5.48,40.83,40.83,0,0,1,9.76-3,43.83,43.83,0,0,1,10.24-.54,49.22,49.22,0,0,1,6,.75,38.08,38.08,0,0,0,9.37,1.67c1.57.1,3.15.13,4.81.07A38.71,38.71,0,0,1,108.11,9a39.36,39.36,0,0,1,5.92.6c10.37,1.11,19.31,6.75,25.87,14.84C141,25.76,142,27.18,143,28.64c3.24,4.42,5.46,9.83,8.78,14,8.31,9,21,16.83,19.09,32.1,0,1.61-.16,3.23-.3,4.82s-.34,3.17-.52,4.69Q169.55,88,168.82,91.33Z" transform="translate(-6.65 -4.18)"/><path class="cls-1" d="M67.13,49c-2.16,1.5-4.91-.13-7.13,1.19-2.37,1.41-3.14,5.49-3.31,9-.37,7.72-.38,15.4,5.72,17.83,5,2,11.36.82,16.56,1l18.53.66a20,20,0,0,0,7.37-.66c3.06-1.06,5.39-3.91,7.08-7.5,3.25-6.91,6.44-18-.73-22.47-1.63-1-8.38-4-9.53-.64" transform="translate(-6.65 -4.18)"/><path class="cls-1" d="M56.48,62.61c2.95-.93,5.83-.68,8.91-.57l7.36.27" transform="translate(-6.65 -4.18)"/><path class="cls-1" d="M96.14,62.8c4.86-.12,9.86.38,14.74.52a5.58,5.58,0,0,1,3.45,1.42" transform="translate(-6.65 -4.18)"/><path class="cls-1" d="M58.75,84.19c0,4.9.46,9.89-.44,14.73s-3.77,8.28-4,13.19a37,37,0,0,0,1.75,13.1c1,3.17,2.85,8.68,6.16,9.87a6.49,6.49,0,0,0,2.28.25,23.37,23.37,0,0,0,5.22-.44c3.29-.78,4.86-3,6.7-5.83" transform="translate(-6.65 -4.18)"/><path class="cls-1" d="M58.75,98.43a7.92,7.92,0,0,1,4-1.29c1.83,0,3.59.76,5.42.72s3.67-1.32,5.62-1" transform="translate(-6.65 -4.18)"/><path class="cls-1" d="M54.43,118.55c3.25-2.09,7.09-3.58,10.89-2.64a31.16,31.16,0,0,0,4.46,1,5.44,5.44,0,0,0,4-1.19" transform="translate(-6.65 -4.18)"/><path class="cls-1" d="M87.91,84.19c0,2.85.51,5.7-.14,8.5s-2.06,5.54-2.77,8.43a50.08,50.08,0,0,0-.79,16.39c.42,4.68.44,10.34,4,13.65,4.47,4.12,12.09.85,16.73-1.5,1.57-.79,2.66-2.23,4-3.36" transform="translate(-6.65 -4.18)"/><path class="cls-1" d="M85.91,98.43c3.29,0,6.61.51,9.88-.19,2.73-.59,5-1.71,7.79-.53" transform="translate(-6.65 -4.18)"/><path class="cls-1" d="M84.44,118.55a14.35,14.35,0,0,1,11.08-1.62c3.4.88,6.82,1.55,9.71-1.16" transform="translate(-6.65 -4.18)"/><path class="cls-1" d="M109,87.29c-.14,11.88,1.5,23,6.4,33.77a27,27,0,0,0,1.94,3.64c3.17,4.81,9.81,7.46,15.19,7.14a9,9,0,0,0,8.12-5.58,12.23,12.23,0,0,0,.76-5.21c-.08-1.39-.09-3.35-1-4.54-1.36-1.88-3.63-.74-5.48-.74" transform="translate(-6.65 -4.18)"/></svg>