<svg id="圖層_1" data-name="圖層 1" xmlns="http://www.w3.org/2000/svg" viewBox="0 0 95.15 95.15"><defs><style>.cls-1{fill:#ddc666;}.cls-2{fill:#e7e1d7;}.cls-3{fill:#bb8e6d;}.cls-4{fill:#827a72;}.cls-5{fill:#af847f;}.cls-6{fill:#dbd2c9;}.cls-7{fill:#2c2019;}.cls-8{fill:none;stroke:#000;stroke-miterlimit:10;stroke-width:0.5px;}.cls-9{fill:#6f5351;}</style></defs><title>mouse01</title><circle class="cls-1" cx="47.57" cy="47.57" r="47.57"/><path class="cls-2" d="M125.19,85.95c-.14.58-.36,1.13-.45,1.72a10.7,10.7,0,0,0-.07,1.59,16.1,16.1,0,0,1-.43,3.6,4.77,4.77,0,0,1-1.38,2.65,3.6,3.6,0,0,1-1.35.7c.6-.59,3.3-3.55-1.05-5.65,0,0-4.55-1.08-6.29.26l5.86,5.6c-1.14,0-2.33-.12-3.35-.15a30.68,30.68,0,0,1-7.27-.84s-2.81.69-6.77-2.45c0,0-1.24-.16-.4.49,0,0,4.48,3.44,7.15,2.36,0,0,5.94,1.34,7.19.72a17,17,0,0,0,3.63,0,8.16,8.16,0,0,1,1.18,4.54c1.29,7.1-4.27,19.63-11.12,22.52a21.92,21.92,0,0,1-8.11,1.35A81.46,81.46,0,0,1,69,118.2c-7.44-3.12-11.47-7.64-12.88-15.8-1-5.61-1-12.42,1-17.81,3.23-8.47,8.31-16,16.15-20.68a73.4,73.4,0,0,1,10.19-5.1l4.06-2.61,2.18-.72c4.87-1.62,11.09-1.26,16.12-.44,8,1.3,17.48,7.17,19.08,15.28a36,36,0,0,1,.36,8.12C125.22,80.88,125.78,83.55,125.19,85.95Z" transform="translate(-43.52 -42.39)"/><path class="cls-3" d="M82.58,59.61a23.12,23.12,0,0,0-7.13,11.71,18.65,18.65,0,0,0,.83,10.5c1.2,3.2,4.06,5,7.48,5.8l.28.06a2.08,2.08,0,0,0,1.19-.05c.78-.54-.8-1.53-1.19-1.81-1.41-1-3.46-1.44-4.35-3a7.62,7.62,0,0,1-.29-5.19,2.42,2.42,0,0,1,1-1.4,2.84,2.84,0,0,1,1.78-.31c2.54.28,3.81,2.37,4.35,4.51a11.38,11.38,0,0,0,2.26,4.42,15.68,15.68,0,0,0,4.73,3.49c1.37.76,3.76,1.86,5.21.7.7-.56,1.25-1.49.42-2.22-.33-.3-.81-.42-1.15-.72a2.06,2.06,0,0,1-.52-.79c-.67-1.6-.45-3.64,1.68-3.95s3.37,1.46,3.65,3.14c.32,1.94-.18,4.15.84,6,.76,1.36,2.58,1.69,4.07,1.71s3.62-.09,4.41-1.52a3,3,0,0,1,4.22-1.23c.5.28.95,1.14,1.37,1.56a8.8,8.8,0,0,0,1.68,1.36,4.43,4.43,0,0,0,4.45.2c1.21-.73,1.41-2.13,1.43-3.38.08-4.34.33-8.68.09-13-.19-3.56-.24-7.14-1.91-10.44l-.2-.37a11.08,11.08,0,0,0-1.81-2.11,37.17,37.17,0,0,0-3.65-3.9,13.81,13.81,0,0,0-4.62-2.46,72.5,72.5,0,0,0-9.52-2,35.49,35.49,0,0,0-10-.27,19.08,19.08,0,0,0-7.8,2.59A22.34,22.34,0,0,0,82.58,59.61Z" transform="translate(-43.52 -42.39)"/><path class="cls-4" d="M94.79,61.5s-3.13-6.38-10-6.48c0,0-4.79-.88-3.13,3.24,0,0-1.35.88-.83,3.24,0,0,1.56,6.58,9.58,5.4a10.38,10.38,0,0,0,3.33-.79,9.19,9.19,0,0,0,1.77-.59C96.35,65.14,96,61.6,94.79,61.5Z" transform="translate(-43.52 -42.39)"/><path class="cls-5" d="M95.23,62.74s-2-5-6.28-5c0,0-3-.69-2,2.52,0,0-.85.69-.52,2.52,0,0,1,5.11,6,4.2a5.46,5.46,0,0,0,2.09-.61,5,5,0,0,0,1.11-.46C96.21,65.56,96,62.82,95.23,62.74Z" transform="translate(-43.52 -42.39)"/><path class="cls-6" d="M119.3,101l-.1.09-.11-.22a1.16,1.16,0,0,1,.21.13,1.73,1.73,0,0,0-.55-2.74,3.72,3.72,0,0,0-1-.18c.26-.25.12-.64,0-.91a1.47,1.47,0,0,0-1.29-.77,11,11,0,0,0-2.24.07c-.87.12-1.69.46-2.56.59a7,7,0,0,1-2.87-.08,8.09,8.09,0,0,1-2.55-1.79c-.68-.52-1.31-1.09-1.94-1.66s-3.05.18-3.83.4c-3.59,1-8.12,3.22-10.15,6.32-.51.79-2.12,4.74-.7,5.35a1.23,1.23,0,0,0,.45.07A85.64,85.64,0,0,0,101,106a10.83,10.83,0,0,0,3.48-1,9.69,9.69,0,0,1,3.43-1,10.91,10.91,0,0,1,2.86.51,10.25,10.25,0,0,0,2.88.17,9.73,9.73,0,0,0,2.88-.55c1.18-.33.17-.88.17-.88a3.32,3.32,0,0,0-1.48-.34,12.55,12.55,0,0,0,3.06-.13c.5-.12,1.25-.39,1.43-.89a.65.65,0,0,0-.25-.71Zm-5.65,1.74a6.85,6.85,0,0,1,.95,0Zm1,0h0Zm.11,0,.43,0Z" transform="translate(-43.52 -42.39)"/><path class="cls-7" d="M103.78,73.58c1.18.93,2.43,1.77,3.53,2.79.65.6,2,1.78,1.77,2.78a.72.72,0,0,1-.11.24s-.31.2-1.17-.66-1.77-2-2.73-3c-.23-.23-2.62-2.21-2.22-2.44a.69.69,0,0,1,.77.17Z" transform="translate(-43.52 -42.39)"/><path class="cls-8" d="M112.82,91s-9.2-6.28-16.84-2.09" transform="translate(-43.52 -42.39)"/><path class="cls-8" d="M112.64,91.76s-11.56,0-13.37,3.21" transform="translate(-43.52 -42.39)"/><path class="cls-8" d="M114.49,90a21.11,21.11,0,0,0-17.08-7.9" transform="translate(-43.52 -42.39)"/><path class="cls-9" d="M115.43,90.56s2.31-1.53,6.29-.26c0,0,5,2.32.94,5.76,0,0-4.81.38-5.84-.08C116.81,96,112.69,93.7,115.43,90.56Z" transform="translate(-43.52 -42.39)"/></svg>