<svg id="圖層_1" data-name="圖層 1" xmlns="http://www.w3.org/2000/svg" viewBox="0 0 95.15 95.15"><defs><style>.cls-1{fill:#ddc666;}.cls-2{fill:#9d6c52;}.cls-11,.cls-3{fill:none;}.cls-4{fill:#875745;}.cls-5{fill:#b3785a;}.cls-6{fill:#290000;}.cls-7{fill:#4c2a11;}.cls-8{fill:#403330;}.cls-9{fill:#f8e3c9;}.cls-10{fill:#c6a07a;}.cls-11{stroke:#936a63;stroke-miterlimit:10;}</style></defs><title>mouse01</title><circle class="cls-1" cx="47.57" cy="47.57" r="47.57"/><path class="cls-2" d="M74.76,63.8c0-3-.28-10.3,4.22-11.57,0,0,2.34-.67,3.12,2.13a64.14,64.14,0,0,0,.78,6.39,14.42,14.42,0,0,1,4.84-.4c.08,0,1.91-3,2.1-3.27.33-.41,4.55-4.4,4.82-4.11s1.8-1.8.9,3.09c0,0,1.09,5.92,1,6.79a3.57,3.57,0,0,0,1.29,1.53s5.27.76,6.76,2.16c0,0,11.64,7.65,11.72,11.64,0,0,11.09,18.16,2.5,28.8,0,0-9,12.37-16.87,13.64,0,0-14.76,4.66-28.12-1.66,0,0-17.21-11.14-15.22-23.62q0-.2.07-.4c2.42-12.64,3-18.36,9.53-22.62C68.2,72.32,69.84,66.46,74.76,63.8Z" transform="translate(-42.77 -42.32)"/><path class="cls-3" d="M70.86,72.92a18.57,18.57,0,0,0,1.36,2.89,9.72,9.72,0,0,0,1.47,2c.27.27.67.47.91.73.46.49.27.5-.2,1.12a.63.63,0,0,1-.21.2.79.79,0,0,1-.31.06l-2.48.17s-6.31.53-7.66,6.45c-1,4.31-1.19,9.85,4.67,11.67a15.23,15.23,0,0,0,4.78.57s19.89,2.4,26.83-.68l.51-.25c3.55-1.92,6.1-6.11,5.59-9.63a9.6,9.6,0,0,0-2.36-4.78,20.55,20.55,0,0,0-2.85-2.63,33.67,33.67,0,0,1-2.79-2.19c-.28-.27,2.13-3.43,2.44-4q.7-1.38,1.29-2.81" transform="translate(-42.77 -42.32)"/><path class="cls-4" d="M77.89,120.47s-1.48,2.13,1.8,3.13a8,8,0,0,0,6.87.86s4.22-.73,3.12-2.26C89.68,122.2,86.17,117.81,77.89,120.47Z" transform="translate(-42.77 -42.32)"/><path class="cls-4" d="M90.78,123s.78,1.8,3.55,1.53c0,0,2.85,1,4.41-.57,0,0,3.91.13,3.44-2.2,0,0,.59-1.93-.16-2.69,0,0-10.24-1.22-11.76,2.13C90.26,121.21,90.39,123.14,90.78,123Z" transform="translate(-42.77 -42.32)"/><path class="cls-5" d="M100.52,97.25c-2,4-26.09,1.86-26.09,1.86-16.32,2-12.34-12.58-12.34-12.58-1.33-8.19,6.79-13.37,6.79-13.37l1.33-.93.08-.67c.77-6.65,8.44-8.11,8.44-8.11,4.45-2.73,15.7,0,15.7,0l1.49.93a7.49,7.49,0,0,1,5.31,6.72c4.61.8,6.79,6.12,6.79,6.12C118.48,94.26,100.52,97.25,100.52,97.25Z" transform="translate(-42.77 -42.32)"/><path class="cls-6" d="M100.52,70.08c-.26.12-.49.58-.63.76s-.5.66-.73,1-.58,1.25.16,1.51a1.82,1.82,0,0,0,1.76-.65,2,2,0,0,0,.49-1.48,1.41,1.41,0,0,0-.28-.75c-.14-.17-.44-.48-.72-.42Z" transform="translate(-42.77 -42.32)"/><path class="cls-7" d="M100.62,70.37c-.21.1-.4.46-.51.6s-.4.52-.59.79-.47,1,.13,1.2a1.49,1.49,0,0,0,1.43-.51,1.52,1.52,0,0,0,.4-1.17,1.1,1.1,0,0,0-.23-.59c-.11-.14-.36-.38-.58-.33Z" transform="translate(-42.77 -42.32)"/><path class="cls-8" d="M101.43,70.95a.39.39,0,0,1,0,.62.58.58,0,0,1-.73,0,.39.39,0,0,1,0-.62A.58.58,0,0,1,101.43,70.95Z" transform="translate(-42.77 -42.32)"/><ellipse class="cls-9" cx="58.46" cy="28.78" rx="0.29" ry="0.25"/><path class="cls-6" d="M69.84,71.13a4.18,4.18,0,0,0-.06,1.74,1.56,1.56,0,0,0,1.51,1c.27,0,.66,0,.8-.28s-.16-.83-.27-1.09c-.26-.6-.74-1.55-1.54-1.75a.38.38,0,0,0-.3,0A.39.39,0,0,0,69.84,71.13Z" transform="translate(-42.77 -42.32)"/><path class="cls-7" d="M69.94,71.3a3.09,3.09,0,0,0-.05,1.36,1.29,1.29,0,0,0,1.25.82c.23,0,.55,0,.66-.22s-.13-.65-.23-.85C71.36,71.95,71,71.2,70.3,71a.34.34,0,0,0-.25,0A.3.3,0,0,0,69.94,71.3Z" transform="translate(-42.77 -42.32)"/><ellipse class="cls-8" cx="27.57" cy="29.59" rx="0.52" ry="0.44"/><ellipse class="cls-9" cx="27.4" cy="29.45" rx="0.29" ry="0.25"/><path class="cls-10" d="M72,89.3s-9.72.71-9.28,4c0,0-1.89,5.29,12.47,4.32,0,0,4.35.06,8.12-.32,0,0,7.54.45,9.72-.06,0,0,13.78.32,12.47-4.38,0,0,2.76-3.35-7.54-3.55s-.73,0-.73,0A81.11,81.11,0,0,0,72,89.3Z" transform="translate(-42.77 -42.32)"/><polyline class="cls-11" points="41.3 47.96 42.96 49.16 44.68 47.96"/><path class="cls-11" d="M85.73,91.47l0,3.64a1.62,1.62,0,0,1-1.69.89" transform="translate(-42.77 -42.32)"/><path class="cls-11" d="M87.45,95.78s-.62.75-1.69-.67" transform="translate(-42.77 -42.32)"/></svg>