<svg id="圖層_1" data-name="圖層 1" xmlns="http://www.w3.org/2000/svg" viewBox="0 0 200 240.26"><defs><style>.cls-1{fill:#624551;}.cls-2{fill:#f5ebf2;}.cls-3{fill:#b97a7f;}.cls-4{fill:none;stroke:#af6c73;stroke-miterlimit:10;stroke-width:4px;}.cls-5{fill:#2b1d28;}.cls-6{fill:#815145;}</style></defs><title>rabbit</title><path class="cls-1" d="M214.55,347.41c.65-1.24-7.95-6.45-10.38-21.41a5,5,0,0,0-2.28-3.47C194.41,317.82,168,296.94,165,235a5,5,0,0,1,7.46-4.52,360.86,360.86,0,0,1,60.92,45.83,5,5,0,0,1,.47.49c2.21,2.68,20.63,25.2,25.6,37.59a5,5,0,0,0,5.08,3.11,15.43,15.43,0,0,1,3.35.09,5,5,0,0,0,5.32-3C276.51,306.86,280,299,284,291.49s8.34-15.07,14.12-21.2a35.08,35.08,0,0,1,3.6-3.34c1.86-1.49,3.92-2.58,5.68-4.18,2.11-1.92,4.29-3.78,6.49-5.61,3.34-2.76,7.26-5,10.35-8.08,1.71-1.69,3.39-3.45,5.16-5.11a127.25,127.25,0,0,1,15.08-12.26c4.3-2.92,9.18-5.89,14.41-6.67a4.94,4.94,0,0,1,5.6,4c1.09,6.27,1.46,21.38-7.54,53.5,0,.11-.06.21-.1.32-.78,2.19-9.57,26-28.32,40.13a4.9,4.9,0,0,0-1.94,3.4c-.37,3.5-1.87,11.09-7.84,20.42a5,5,0,0,0,.51,6c6.11,6.69,21,24,27.06,40,0,0,23.89,58.44-39.25,63.31a5.21,5.21,0,0,0-2.19.66c-5.54,3.16-35.53,17.62-94-.57,0,0-40.18-13.26-28.43-56.73,0-.08,0-.16.06-.24.34-1.67,5.17-23.43,28.75-43.45a4.86,4.86,0,0,0,1.66-3.26A14.14,14.14,0,0,1,214.55,347.41Z" transform="translate(-165 -225)"/><path class="cls-2" d="M260.23,332a16.13,16.13,0,0,0-6,6.79,25,25,0,0,0-1.07,4.88c-.53,3-.52,6.07-1.3,9-.71,2.68-2.55,4.73-3.8,7.15a30.1,30.1,0,0,0-2.21,7q-2.07,8.88-4.72,17.61c-1.64,5.4-3.76,10.57-5.09,16.08-.77,3.72-.84,7.23-3.24,10.36-1.09,1.41-2.13,2.85-3.09,4.35a47.54,47.54,0,0,0-6,13.23c-3.33,12.54,1.33,24.19,11.43,32.1,0,0,2.1,1.68,2.23,1.7s45.43,8.69,66.8-6.08a6.48,6.48,0,0,0,1.72-1.79c6.57-10,11-24.46,4.32-35.51a35.67,35.67,0,0,0-5.76-7c-2.79-2.76-3.9-5.71-5.46-9.19a40.12,40.12,0,0,0-6.29-10.37c-2.39-2.7-3.6-6-4.7-9.36-1.31-4-2.7-8-4.35-11.86a42,42,0,0,0-4.43-8.71c-1.84-2.52-4.22-4.86-5.39-7.8-1.36-3.39-1-7.18-2.2-10.63a37.92,37.92,0,0,0-6-11.45C264.13,330.68,262.14,330.87,260.23,332Z" transform="translate(-165 -225)"/><path class="cls-3" d="M277,421.83,263.71,432h4.54l-15.48-10.14c-4.86-3.18-9.37,4.61-4.54,7.77l15.48,10.14a4.37,4.37,0,0,0,4.54,0l13.27-10.14c4.54-3.47.06-11.29-4.54-7.77Z" transform="translate(-165 -225)"/><path class="cls-4" d="M266,435.85l.7,16.2s-3.37,3.5-5.7,3" transform="translate(-165 -225)"/><path class="cls-4" d="M272,455.12s-1.63.66-5.35-3.07" transform="translate(-165 -225)"/><ellipse class="cls-5" cx="56.88" cy="141.34" rx="2.73" ry="5.77"/><ellipse class="cls-5" cx="142.81" cy="141.34" rx="2.73" ry="5.77"/><path class="cls-6" d="M169.42,234.77c.6-.43,1.74.38,2.89,1.22l18.89,13.83c5.49,4,11,8,16.74,11.71,3.18,2,6.44,3.95,9.49,6.17A79.73,79.73,0,0,1,232.79,283a129.41,129.41,0,0,1,19,33.34,3.86,3.86,0,0,1,.38,2c-.25,1.45-1.94,2.12-3.38,2.53-10.65,3.06-22.06,7-28.12,16.12-.84,1.27-1.87,2.79-3.41,2.75-1.26,0-2.18-1.14-2.86-2.17a38.27,38.27,0,0,1-4-7.87,50,50,0,0,0-1.92-5,33,33,0,0,0-4.29-6,168.44,168.44,0,0,1-25.33-41.27,132.27,132.27,0,0,1-7.37-23,117.33,117.33,0,0,1-2-11.88c-.23-2-.42-4-.52-6C168.95,235.54,169.11,235,169.42,234.77Z" transform="translate(-165 -225)"/><path class="cls-6" d="M281.27,314.14c5.19-14.17,20.25-48.86,46.52-59.74a4.47,4.47,0,0,0,2.22-2.06A46.39,46.39,0,0,1,355.66,231a4.65,4.65,0,0,1,6.15,4.71c-.68,15.65-7.68,56.36-35.09,80.66a4.62,4.62,0,0,0-1.5,2.64c-.66,3.65-2.56,12.86-5.9,18.89a4.61,4.61,0,0,1-7.8.37c-4.39-6.27-13.49-16.62-26.48-18A4.56,4.56,0,0,1,281.27,314.14Z" transform="translate(-165 -225)"/><path class="cls-1" d="M169,230.73s69.47,62.93,53.76,109.42c0,0,8.73-12.24,35.61-19.58,0,0-14.66-33.91-30-46.85C228.34,273.73,184.7,233.88,169,230.73Z" transform="translate(-165 -225)"/><path class="cls-1" d="M277.7,321l-.2-.21c-2.87-3.32,3.94-15.07,5.49-18.33a128,128,0,0,1,10.33-17.86,123.35,123.35,0,0,1,12.92-15.73q3.65-3.75,7.58-7.15c1.52-1.31,6.94-4.18,7.58-6-7.37,21-14.79,42.1-18,64.26-.58,4-.75,8.75,2.18,11.18l-25.24-8.8A6.78,6.78,0,0,1,277.7,321Z" transform="translate(-165 -225)"/><path class="cls-1" d="M328.37,253.36l-23.48,12.7,5.17,10.28S316.86,260.19,328.37,253.36Z" transform="translate(-165 -225)"/></svg>