<svg id="圖層_1" data-name="圖層 1" xmlns="http://www.w3.org/2000/svg" viewBox="0 0 176.71 171.73"><defs><style>.cls-1{fill:#fff;stroke:#000;stroke-miterlimit:10;stroke-width:8px;}</style></defs><title>rabbit_bottom</title><path class="cls-1" d="M175,93a36.84,36.84,0,0,1-2.13,12.46c-.46,1.3-1,2.57-1.57,3.86q-1.17,2.43-2.34,4.84T166.64,119c-10.32,23.79-26.64,49.26-55.35,52a61.68,61.68,0,0,1-6.4.5,73.28,73.28,0,0,1-13-.86c-1.48-.22-2.95-.48-4.44-.78a73.11,73.11,0,0,1-25.6-2A58.62,58.62,0,0,1,56,165.92c-18.76-6-26.62-23.76-37.84-38.22q-1.57-2.38-2.92-4.87A66.64,66.64,0,0,1,7.75,84.28c.15-1.89.37-3.79.47-5.81-5.44-20,.87-37.35,19-45.5a55,55,0,0,1,6.47-2.4A80.57,80.57,0,0,1,49.77,19.5c1.92-1,3.88-1.9,5.9-2.72C68.89,10.08,82.43,6.88,95.85,8q2.88.24,5.76.74c19.65,4.85,39.59,12,53.27,27.46a48.52,48.52,0,0,1,3,4.08,46.73,46.73,0,0,1,4.63,9.25q1.12,2.47,2,5.07T166,59.86c1,1.93,1.92,3.84,2.81,5.79a92.83,92.83,0,0,1,4.56,12.13,43.47,43.47,0,0,1,1,4.68,39,39,0,0,1,.46,4.87C175,89.28,175.06,91.18,175,93Z" transform="translate(-2.33 -3.78)"/><path class="cls-1" d="M55.94,74.13c-.06,6-1,13.35,4.15,17.51,5.64,4.57,16.66,2.77,23.35,2.87a164.65,164.65,0,0,0,28.42-1.69c4.81-.77,9.83-2,13.41-5.42C132.92,80,127.64,70,118,70.68c-8.5.64-17,.8-25.51,1.13q3.23-5.34,6.13-10.89c1-1.93,1.89-4.63.3-6.09A4.59,4.59,0,0,0,95.85,54q-12.13-.41-24.25.35" transform="translate(-2.33 -3.78)"/><path class="cls-1" d="M55.69,76.07c.7-1,1.36-2,2.11-2.89,1.47-1.8,4.31-1.55,6.45-1.7,3-.21,6.1-.24,9.16-.19,6.11.09,12.22.51,18.34.51" transform="translate(-2.33 -3.78)"/><path class="cls-1" d="M89.93,93c-1.84,7.11-2.09,15.45-5.81,21.89-3.44,5.94-9.48,12-15,15.86-5.12,3.63-11.48,5.82-17.53,4.52" transform="translate(-2.33 -3.78)"/><path class="cls-1" d="M99.71,93c0,12-2.12,24,.9,35.82.93,3.64,2.87,7,6.55,8,7.43,2.14,18-.26,25.18-2.37,4.57-1.34,7.51-5.36,3.64-9.52" transform="translate(-2.33 -3.78)"/><path class="cls-1" d="M110.6,116.75c1.73,5.85,6.74,6.95,11.79,8.23" transform="translate(-2.33 -3.78)"/><path class="cls-1" d="M76.83,37.73s-3,25.14-15.41,28.18" transform="translate(-2.33 -3.78)"/></svg>