<svg id="圖層_1" data-name="圖層 1" xmlns="http://www.w3.org/2000/svg" viewBox="0 0 1620.72 1005.74"><defs><style>.cls-1{fill:#d6d0bf;}.cls-2{fill:#e4e6db;}.cls-10,.cls-11,.cls-25,.cls-29,.cls-3,.cls-30{fill:none;}.cls-3{stroke:#964f40;}.cls-10,.cls-11,.cls-17,.cls-18,.cls-25,.cls-28,.cls-29,.cls-3,.cls-30{stroke-miterlimit:10;}.cls-17,.cls-29,.cls-3{stroke-width:5px;}.cls-4{fill:#333;}.cls-5{fill:#412514;}.cls-6{fill:#927f64;}.cls-7{fill:#dfccb1;}.cls-8{fill:#7f7057;}.cls-9{fill:#cfbea6;}.cls-10,.cls-11,.cls-17,.cls-18,.cls-28,.cls-29,.cls-30{stroke:#000;}.cls-10{stroke-width:0.75px;}.cls-11{stroke-width:0.5px;}.cls-12{fill:#bd947f;}.cls-13{fill:#964f40;}.cls-14{fill:#691a0d;}.cls-15{fill:#713b27;}.cls-16{fill:#d5a86e;}.cls-17{fill:#817b3f;}.cls-18{stroke-width:2px;}.cls-19{fill:#c69380;}.cls-20{fill:#5c4231;}.cls-21{fill:#513e22;}.cls-22,.cls-28{fill:#fff;}.cls-23{fill:#f5ebf2;}.cls-24{fill:#b97a7f;}.cls-25{stroke:#af6c73;stroke-width:4px;}.cls-26{fill:#2b1d28;}.cls-27{fill:#815145;}.cls-28{stroke-width:8px;}.cls-31{fill:#090100;}.cls-32{fill:#533115;}.cls-33{fill:#2c0c00;}.cls-34{fill:#2c2f33;}.cls-35{fill:#0f1410;}.cls-36{fill:#768495;}</style></defs><title>slogan</title><path class="cls-1" d="M1509.74,217a3.41,3.41,0,0,0,4.27,1.32c4-1.58,8.57-1.55,12.65-1.52a195,195,0,0,1,42,5.35c6.83,1.57,13.58,3.42,20.27,5.48,5.75,1.77,12.55,3.33,16.48,8.49,2,2.59,24.17-34,51.81-11.67a12.83,12.83,0,0,0,2.89,1.77c6.36,2.8,30,18-11.86,79.42a4.22,4.22,0,0,0-.74,2.49c.17,5.68.25,28.09-8,41.78a4.25,4.25,0,0,0-.52,1.3,130.51,130.51,0,0,1-28.36,56.58,102.44,102.44,0,0,1-40.23,28.66c-23.67,9.18-46.17,10.17-68.43.13A179.83,179.83,0,0,1,1468.46,417c-25.25-18.83-45.68-47.28-42.18-83.25a104.76,104.76,0,0,1,5.57-24.47,4.15,4.15,0,0,0,.23-1.14c.19-3.5,1.69-22.51,12-35.31a4.22,4.22,0,0,0,.84-3.61c-2.55-10.52-12.43-59.31,19.48-75.32a3.81,3.81,0,0,0,.74-.48C1467.63,191.3,1485.67,178.4,1509.74,217Z" transform="translate(-90.84 -76.2)"/><path class="cls-2" d="M1549.28,282.22A62.28,62.28,0,0,0,1537,278.3a43.66,43.66,0,0,0-24.37,2.37c-1.58.66-3.43.81-5.06,1.39-18.79,6.7-29.13,25.65-30.91,45.88-.93,10.64-2.65,21.24-2.45,31.88.15,8.15.78,17,5.38,23.49,3.84,5.43,6.53,11.74,10.34,17.24,4.6,6.64,10.18,13,17.25,16.64a22.55,22.55,0,0,0,7.18,2.32s32.71,1.85,47.27-15.14A96,96,0,0,0,1586.37,383a52.35,52.35,0,0,0,7.16-11.29c2.21-4.9,2.63-10.26,4-15.39,1.13-4.18,2.36-8.28,3.09-12.55,1.46-8.58,1.2-17.46-2.54-25-.79-1.6-1.66-3.15-2.52-4.7-5.47-9.83-10.62-20.4-21.19-24.7-4.3-1.75-9.15-2.12-13.65-3.18A80.83,80.83,0,0,1,1549.28,282.22Z" transform="translate(-90.84 -76.2)"/><path class="cls-3" d="M1492.27,373.68s22.35,4,40.49-5.88c0,0,11.38,18.46,23.1,22.16" transform="translate(-90.84 -76.2)"/><path class="cls-4" d="M1476.93,190.64h0a11.93,11.93,0,0,1,3.68,1.58q1.61.85,3.17,1.81a56.92,56.92,0,0,1,7.6,5.56,42.28,42.28,0,0,1,7.28,8.08,29.17,29.17,0,0,1,4.55,10.51c0,.21.09.43.12.65l.48,3.26s-44.61,17.84-57.18,45.78c0,0-16.11-57.2,18.09-72.95.57-.26,1.13-.78,1.68-1.1a25,25,0,0,1,4.82-2.11,26.7,26.7,0,0,1,2.92-.76A8,8,0,0,1,1476.93,190.64Z" transform="translate(-90.84 -76.2)"/><path class="cls-4" d="M1606.2,238.12s27.21-34,47.91-13c0,0,35.28,8.32-9.84,78C1644.26,303.1,1633.16,260.53,1606.2,238.12Z" transform="translate(-90.84 -76.2)"/><path class="cls-5" d="M1485.61,267.08c.77-5.83,4.72-20.78,24.73-13.3a2.1,2.1,0,0,1,1.33,2.31c-.71,4.14-4.45,14.23-24.11,13.32A2.07,2.07,0,0,1,1485.61,267.08Z" transform="translate(-90.84 -76.2)"/><path class="cls-6" d="M1498.37,260c-2.33,1.51-5,1.18-6-.74s.1-4.68,2.43-6.19,5-1.18,6,.74S1500.7,258.45,1498.37,260Z" transform="translate(-90.84 -76.2)"/><path class="cls-7" d="M1497.56,257.76c-1.67,1.35-3.65,1.49-4.43.33s-.06-3.2,1.61-4.55,3.65-1.49,4.43-.33S1499.22,256.41,1497.56,257.76Z" transform="translate(-90.84 -76.2)"/><path class="cls-5" d="M1594.94,267.91c5.82,1.57,21.29,7.45,15.15,24.64a2.19,2.19,0,0,1-3.35.81c-5.06-3.58-16.23-12.89-14.35-24A2,2,0,0,1,1594.94,267.91Z" transform="translate(-90.84 -76.2)"/><path class="cls-8" d="M1607.16,281.2c-1.6,1.37-4.1.79-5.59-1.29s-1.4-4.89.2-6.26,4.1-.79,5.59,1.29S1608.76,279.82,1607.16,281.2Z" transform="translate(-90.84 -76.2)"/><path class="cls-9" d="M1607.56,278.24c-.81,1.07-2.49,1.07-3.75,0a3,3,0,0,1-.83-3.9c.81-1.07,2.49-1.07,3.75,0A3,3,0,0,1,1607.56,278.24Z" transform="translate(-90.84 -76.2)"/><path class="cls-10" d="M1502.1,322.15S1412,277.41,1372.4,286.59" transform="translate(-90.84 -76.2)"/><path class="cls-11" d="M1493.68,344.56s-77.09,15.63-132.62,79.09" transform="translate(-90.84 -76.2)"/><path class="cls-10" d="M1497.44,335.2s-99.7-6.71-138,31.43" transform="translate(-90.84 -76.2)"/><path class="cls-11" d="M1584.82,337.58s62.47-40.85,126.63-7.27" transform="translate(-90.84 -76.2)"/><path class="cls-12" d="M1547.88,300.3s-51-20.35-43.12,23.42c0,0,12.36,28.71,31.88,32.48,0,0,35.13-3.44,37.35-12.09C1574,344.11,1610,308.91,1547.88,300.3Z" transform="translate(-90.84 -76.2)"/><path class="cls-11" d="M1579,353.93s27.18-8.76,108,45" transform="translate(-90.84 -76.2)"/><path class="cls-11" d="M1573.11,370.4s91.35,60.73,79.5,113.46" transform="translate(-90.84 -76.2)"/><line class="cls-3" x1="1450.64" y1="259.99" x2="1441.92" y2="291.6"/><path class="cls-13" d="M1526.62,307.43s22.37-15.06,38.51,11.18c0,0,4.13,17.68-23.66,17.59C1541.47,336.19,1512.12,323.16,1526.62,307.43Z" transform="translate(-90.84 -76.2)"/><ellipse class="cls-14" cx="1533.87" cy="320.68" rx="2.41" ry="2.18" transform="translate(625.74 1581.5) rotate(-70.37)"/><ellipse class="cls-14" cx="1554.57" cy="324.97" rx="2.41" ry="2.18" transform="translate(635.45 1603.84) rotate(-70.37)"/><path class="cls-13" d="M1515,373.58s11.21,16.66,28.43,7.78" transform="translate(-90.84 -76.2)"/><path class="cls-15" d="M1520.77,373.34a79,79,0,0,0,10.4-3.45c.29-.11.78-.5,1.09-.3a5.59,5.59,0,0,1,.81.83l1,1,2.66,2.74c1.87,1.92,3.75,3.83,5.66,5.7.36.35-.12.87-.36,1-5.45,2.85-23,.11-23.86-6.76,0-.25,1.94-.62,2.14-.67Z" transform="translate(-90.84 -76.2)"/><path class="cls-16" d="M951.44,1010.39c-22.79,2.91-118.21,13.76-176.08-.52l-.83-.23-.58-.18c-4.32-1.35-10.54-1.47-12.43,2.64-3.35,7.29-10.23,13.26-16.08,18.5a276.82,276.82,0,0,1-28.75,22.16A291.77,291.77,0,0,1,684.56,1072c-8.14,4.13-17,8.47-26.16,9.72a36.08,36.08,0,0,1-5.18.24c-2.49,0-5.13-.25-7.27-1.79a13.39,13.39,0,0,1-5-6c-5.76-14.34-4.61-54.79,25.64-146.31a13,13,0,0,0-1-10.43c-6.35-11.28-20.21-84.16-13.15-84.16l419.46-.09c7.44,0,8.58,73.66.26,87.29a12.83,12.83,0,0,0-1.38,10.14c7.62,27.3,35.62,132.7,16.65,141.53a12.28,12.28,0,0,0-3,2.21c-4.24,3.89-24.94,8.43-123.8-61.69A13,13,0,0,0,951.44,1010.39Z" transform="translate(-90.84 -76.2)"/><path class="cls-17" d="M1001.75,890.21s-63.32,63-79.34-30C922.41,860.23,985.4,811.21,1001.75,890.21Z" transform="translate(-90.84 -76.2)"/><ellipse class="cls-18" cx="870.05" cy="799.18" rx="27.67" ry="23.67"/><path class="cls-12" d="M1080.79,1065.86s-59.67-10.65-100.35-61.64c0,0,63-69,81.65-64.68C1062.09,939.53,1099.57,1058.94,1080.79,1065.86Z" transform="translate(-90.84 -76.2)"/><path class="cls-19" d="M751.61,1004.1c3.66,1.8-54.75,64.58-96.87,70.92-2.12.32-4.5-.77-4.72-2.9-1.34-13.08-1.82-68.15,24.41-132.83C674.43,939.28,694.68,935,751.61,1004.1Z" transform="translate(-90.84 -76.2)"/><path class="cls-20" d="M901.42,984.91q.16.3.33.59c2.57,4.34,5.9,8.38,8.83,12.46,2.54,3.55,6.06,9,10.89,9.44,3.25.28,12.38-1.62,7.64-6.84a152.87,152.87,0,0,0-20.19-18.17,3.44,3.44,0,0,1-.86-.84,2.91,2.91,0,0,1-.36-1.35c-.39-5.22,3.43-8.85,8.07-10.3,3-.95,6.63-5.17,8.88-7.24,4.13-3.8,8.42-8,10.22-13.44a35.26,35.26,0,0,0,1-4.45,57.91,57.91,0,0,0,.92-5.91c.61-7.13-1.28-14.5-6.41-19.63,0,0-3.66-5.32-5.66,3-2.58,10.69,1.43,23.52-6,32.7-4.65,5.71-13.07,6-16.86,12.62A19,19,0,0,0,901.42,984.91Z" transform="translate(-90.84 -76.2)"/><path class="cls-21" d="M830.38,984.85l-.45.49c-3.51,3.61-7.71,6.75-11.52,10-3.3,2.85-8,7.35-12.81,6.61-3.23-.5-11.66-4.49-5.81-8.44a152.87,152.87,0,0,1,23.9-12.91,3.44,3.44,0,0,0,1-.62,2.91,2.91,0,0,0,.67-1.23c1.6-5-1.25-9.41-5.42-11.91-2.71-1.63-5.23-6.59-6.93-9.13-3.12-4.66-6.3-9.73-6.76-15.47a35.26,35.26,0,0,1,0-4.57,57.91,57.91,0,0,1,.5-6c1.09-7.07,4.66-13.79,10.86-17.57,0,0,4.81-4.31,4.8,4.23,0,11-6.93,22.52-1.83,33.2,3.18,6.65,11.28,9,13.41,16.24A19,19,0,0,1,830.38,984.85Z" transform="translate(-90.84 -76.2)"/><path class="cls-21" d="M859.51,988.22q-.06.57-.1,1.14v.2a19.23,19.23,0,0,0,.26,3.44q.57,4.34.84,8.72a17.8,17.8,0,0,0,.25,4,9.25,9.25,0,0,0,1.88,2.79c2,2.35,4.83,3.23,7.29,1a13.41,13.41,0,0,0,3.15-4.84c.89-2.15,1.89-4.27,2.6-6.49a12.66,12.66,0,0,0,.37-7.65,28.08,28.08,0,0,0-1.11-2.63,28.84,28.84,0,0,1-1.86-8.32c-.37-3-.91-5.93-1.2-8.93a27.29,27.29,0,0,1-.25-6.76c.36-2.21.92-4.4,1.28-6.62.76-4.8,1.34-9.63,1.65-14.48a31.11,31.11,0,0,0-.55-9.93l-2.83-10.66a19,19,0,0,0-1.68-4.66c-.9-1.57-2.65-3.38-4.62-3.28a3.61,3.61,0,0,0-2.47,1.35A9.65,9.65,0,0,0,861,918.1a34.41,34.41,0,0,0-3.21,12.74c-.08,4.64,1,9.2,1.7,13.77q.48,3.35,1,6.71a46.63,46.63,0,0,1,.9,6.32l.88,6.21a10.36,10.36,0,0,1,.35,2.45l-1.14,8.54-.92,6.87C860.2,983.86,859.75,986.05,859.51,988.22Z" transform="translate(-90.84 -76.2)"/><ellipse class="cls-22" cx="876.02" cy="812.99" rx="10.83" ry="9.17"/><path class="cls-17" d="M816.21,864.3s-19.57,87.16-83,17.32C733.18,881.62,760,806.44,816.21,864.3Z" transform="translate(-90.84 -76.2)"/><ellipse class="cls-18" cx="773.78" cy="873.73" rx="27.67" ry="23.67" transform="translate(-239.93 83.08) rotate(-10.73)"/><ellipse class="cls-22" cx="782.2" cy="886.19" rx="10.83" ry="9.17" transform="translate(-242.11 84.87) rotate(-10.73)"/><path class="cls-4" d="M186.26,312.69c.45-1.72-11.83-5.51-19.31-23.12a6.35,6.35,0,0,0-3.88-3.57c-10.72-3.51-49.87-21.15-72-96.17a6.37,6.37,0,0,1,8-7.79c16.46,4.82,50,16.13,89.65,37.81a6.4,6.4,0,0,1,.73.46c3.55,2.62,33.22,24.67,43.11,38.37a6.43,6.43,0,0,0,7.27,2.28,20.19,20.19,0,0,1,4.21-.89,6.5,6.5,0,0,0,5.75-5.29c1.84-10.49,3.84-21.19,6.59-31.59s6-21,11.35-30.25a44.76,44.76,0,0,1,3.51-5.18c1.89-2.39,4.13-4.35,5.85-6.84,2.07-3,4.23-5.93,6.44-8.83,3.35-4.39,7.58-8.36,10.53-13,1.64-2.59,3.21-5.26,4.94-7.82a162.94,162.94,0,0,1,15.2-19.58c4.51-4.88,9.72-10,16-12.52a6.33,6.33,0,0,1,8.18,3.24c3.22,7.36,8.15,25.77,6.43,67.87,0,.14,0,.28,0,.42-.32,2.92-4.24,34.83-23.48,57.75a6.16,6.16,0,0,0-1.42,4.75c.57,4.4.94,14.16-3.74,27.41a6.19,6.19,0,0,0,2.42,7.25c9.61,6.36,33.37,23.13,45.63,40.85,0,0,47.15,64.44-30.27,89.46a6.79,6.79,0,0,0-2.54,1.47c-6,5.55-39.15,32.33-117.57,27.66,0,0-54.1-4.13-52.31-61,0-.11,0-.21,0-.32-.07-2.16-.49-30.29,23-62a6.1,6.1,0,0,0,1.1-4.5A17.61,17.61,0,0,1,186.26,312.69Z" transform="translate(-90.84 -76.2)"/><path class="cls-23" d="M238.73,280a20.47,20.47,0,0,0-5.46,10.13,31.08,31.08,0,0,0,.11,6.3c.22,3.82,1.15,7.59,1,11.44-.1,3.5-1.79,6.57-2.62,9.91a37.47,37.47,0,0,0-.69,9.24q0,11.51-.68,23c-.45,7.12-1.56,14.1-1.6,21.25.15,4.8,1.09,9.12-1,13.68-.94,2.06-1.82,4.13-2.57,6.27a59.44,59.44,0,0,0-3.53,18c-.45,16.38,8.83,29.26,23.79,35.91,0,0,3.12,1.43,3.29,1.42s59.3-3,81.62-27.61a8.25,8.25,0,0,0,1.61-2.71c5.25-14.24,6.47-33.31-5.12-44.84a45.18,45.18,0,0,0-9.26-6.81c-4.3-2.54-6.56-5.82-9.54-9.62a50.44,50.44,0,0,0-10.93-10.81c-3.78-2.59-6.27-6.24-8.65-10.06-2.82-4.52-5.74-9-8.95-13.24-2.51-3.33-4.88-6.66-8.12-9.35-3-2.53-6.71-4.69-9-7.93-2.7-3.74-3.43-8.49-5.9-12.37-2.72-4.27-6.8-9.22-10.93-12.22C243.22,277.22,240.79,278.05,238.73,280Z" transform="translate(-90.84 -76.2)"/><path class="cls-24" d="M287.07,386l-13.56,16.43,4.38-1.16-22.33-7.76c-5.48-1.91-7.84,6.79-2.39,8.68L275.49,410a4.38,4.38,0,0,0,4.38-1.16l13.56-16.43c3.66-4.43-2.67-10.84-6.36-6.36Z" transform="translate(-90.84 -76.2)"/><path class="cls-25" d="M276.69,405.62l5.67,19.65s-3.18,5.3-6.22,5.44" transform="translate(-90.84 -76.2)"/><path class="cls-25" d="M290,427.42s-1.84,1.3-7.59-2.15" transform="translate(-90.84 -76.2)"/><ellipse class="cls-26" cx="201.02" cy="333.69" rx="3.51" ry="7.28" transform="translate(-163.58 -19.66) rotate(-13.58)"/><ellipse class="cls-26" cx="308.34" cy="307.77" rx="3.51" ry="7.28" transform="translate(-154.49 4.82) rotate(-13.58)"/><path class="cls-27" d="M96.54,188.2c.62-.7,2.28-.06,4,.63l27.69,11.26c8.05,3.27,16.11,6.55,24.38,9.31,4.58,1.53,9.22,2.9,13.68,4.7A101.53,101.53,0,0,1,190,228.23a162.51,162.51,0,0,1,33.66,35.13,4.79,4.79,0,0,1,1.07,2.35c.11,1.86-1.8,3.18-3.47,4.12-12.39,7-25.47,15.22-30.34,28.25-.68,1.81-1.5,4-3.44,4.4-1.58.33-3.05-.74-4.22-1.8a48,48,0,0,1-7.36-8.44,62.42,62.42,0,0,0-3.87-5.51,41.67,41.67,0,0,0-7.14-6.09,211.84,211.84,0,0,1-43.86-43,164.68,164.68,0,0,1-16-26,145.54,145.54,0,0,1-6-14c-.88-2.38-1.71-4.79-2.43-7.22C96.17,189.28,96.22,188.56,96.54,188.2Z" transform="translate(-90.84 -76.2)"/><path class="cls-27" d="M259.73,251.77c2.28-18.93,10.81-66,40.4-87.28a5.71,5.71,0,0,0,2.16-3.19c1.5-5.69,7.28-22.23,25.69-34a5.94,5.94,0,0,1,9.07,3.93c3.79,19.39,7.11,71.42-19.92,109.49a5.81,5.81,0,0,0-1.09,3.69c.26,4.67.62,16.54-1.77,24.94a6,6,0,0,1-9.63,2.81c-7.34-6.37-21.77-16.31-38.4-14.06A5.75,5.75,0,0,1,259.73,251.77Z" transform="translate(-90.84 -76.2)"/><path class="cls-4" d="M94.81,183.37s105.4,56.2,99.55,117.95c0,0,7.27-17.64,38.67-34.75,0,0-28.36-37.16-51.37-48.38C181.66,218.19,115.36,182.49,94.81,183.37Z" transform="translate(-90.84 -76.2)"/><path class="cls-4" d="M257.29,261.21,257,261c-4.57-3.21.45-19.67,1.43-24.14a160.76,160.76,0,0,1,7.61-25,156.23,156.23,0,0,1,11.47-23.19q3.44-5.7,7.35-11.05c1.51-2.06,7.43-7.22,7.69-9.63-3,27.92-6,56.08-3.5,84.24.44,5,1.66,11,6,13l-34.12-3.18A8.77,8.77,0,0,1,257.29,261.21Z" transform="translate(-90.84 -76.2)"/><path class="cls-4" d="M300.54,163,275,185.68l9.5,11S288.19,174.87,300.54,163Z" transform="translate(-90.84 -76.2)"/><path class="cls-28" d="M1571.82,830.18c-23,3.13-46.31.7-69.46.68-25.35,0-50.16,5.35-75.45,6.53-3.21.15-6.42.27-9.65.37-31.76,1.92-63.83-3.25-95.9-3.25-74.9-1.36-150.21-3.6-225.29-4.56l-10.72-.13c-42.16-.47-84.16,4.75-126.28,5.66-41,.89-80-5.09-121.47-1.28-78.26,7.2-155.68,1.65-233.88-2.64-61.28-3.37-122,.29-182.92,7.86a242.69,242.69,0,0,1-61.34.22c-35.61-4.61-63.81-13.22-100.17-7.82s-74.23,14.73-110,.33c-44.53-17.94-54.69-61.45-48.52-108.76,5.88-45.07,18.35-89,12.63-135C107,536.76,66.92,425,138.93,406.54,222.43,385.18,308.73,390,393.74,392c84.51,1.93,168.18-2.45,252.74,1q5.57.23,11.14.39c60.83-3.63,121.81-2.23,183.11.61l10.82.52c33.05,3.66,66.07-6.68,100-3.58,32,3.38,63.9,4,95.75,3.77l10.61-.1c28.09-.83,56.12-1.21,84.12-1.34l9.33,0c5.7-.06,11.39-.29,17.08-.6,2.84-.15,5.61-.32,7.89-.5q151,1.31,302.52-6.37c25-1.28,49.93,1.59,74.89,2.36,19.89.61,43-1.23,58.07,15.95,7.25,8.25,10.93,19.64,12.14,31,3.1,29-.76,60,.88,89.45,1.75,31.49,3.87,63.42-2.27,94.54-6.22,31.54-14.9,63-15.86,95.46-.88,29.48,21.5,70.62,3.17,97.39-7.24,10.58-19.73,15-31.63,17.23Q1575,829.75,1571.82,830.18Z" transform="translate(-90.84 -76.2)"/><path class="cls-29" d="M330.44,510.38a2.18,2.18,0,0,1-1.82,1.12c-8.4,19.32-22,34-38.78,44.94,16.24,9.52,36,16.1,58.52,19.32a28,28,0,0,0-4.34,6.3c-23.52-3.78-44-10.92-60.62-21.7-17.92,10.36-38.78,16.94-60.62,21.14a26.48,26.48,0,0,0-3.92-6.3c21-3.64,41.16-9.66,58.38-18.9a104.78,104.78,0,0,1-32.9-39.48l6.16-2.38H230.2v-6.72h49.7v-25.2H222.64v-6.86H279.9V452.14l9.38.7c-.14.84-.84,1.54-2.52,1.68v21.14h58v6.86h-58v25.2h37.1l1.4-.28Zm-79.94,4.06c7.28,15.4,18.62,28.14,33.18,38.08,15.4-9.38,27.86-21.84,35.84-38.08Z" transform="translate(-90.84 -76.2)"/><path class="cls-29" d="M405.06,514.86l1.12,5.88-17.64,6.58V572.4c0,8.4-3.5,9.38-21.84,9.1a28.14,28.14,0,0,0-2.38-6.44c4.06.14,7.84.28,10.64.28,6.16,0,6.86,0,6.86-2.8v-42.7c-7.28,2.66-13.86,4.9-19,6.72a2.27,2.27,0,0,1-1.54,2.24l-3.36-8.26c6.58-2,14.84-4.76,23.94-7.84V487.84h-22.4v-6.58h22.4V452.14l9.1.7c-.14,1-.7,1.54-2.38,1.68v26.74h16.94v6.58H388.54v32.62Zm83-8h-18.9c-.14.84-.84,1.54-2.52,1.68V526.2h19.46v6.58H466.66v39.9c0,4.48-1,6.58-4.48,7.84s-9.8,1.12-19.88,1.12a24.93,24.93,0,0,0-2.38-6.58c3.5.14,6.86.14,9.52.14,10.5,0,10.5,0,10.5-2.52v-39.9H407.3V526.2h52.64V506.88H404.08v-6.44H442V477.9H413v-6.44h29V452.14l9.24.56c-.14,1-.84,1.54-2.52,1.68v17.08h30.1v6.44h-30.1v22.54h39.34Zm-53.9,60.06c-3.36-6.72-11.06-17.08-18.06-24.5l5.32-3.36c7,7.28,14.84,17.36,18.34,23.94Z" transform="translate(-90.84 -76.2)"/><path class="cls-29" d="M531.76,455.5c9.66,8.26,20.58,19.46,25.76,26.88l-4.2,5.18c-5-7.28-15.12-18.2-24.5-26.6-6.16,11.2-15.4,24.64-28,35.7a19.16,19.16,0,0,0-4.34-5c14-11.76,23.94-27.44,29.12-39.48l8.82,1.4a2.33,2.33,0,0,1-2.52,1.54Zm18.9,55.3v43.68c0,7.42-2.8,8.26-19.74,8.26a17.63,17.63,0,0,0-2.1-6.3c3.5,0,6.44.14,8.68.14,6.58,0,6.86-.14,6.86-2.1V517.1H523.64v64.4h-6.3V517.1h-16.8v-6.3Zm-38.92-16.38v-6.3H546.6v6.3ZM583.28,563c-.42.56-1.26.84-2.66,1-6.3,6.44-19.32,14-30.8,18.34a31.38,31.38,0,0,0-4.76-4.9c11.62-4.2,24.78-11.34,30.8-17.92Zm-21.42-81.34H583.7c1.26-4.76,2.8-10.78,3.78-15.82H555.84v-6.3H628.5v6.3H594.76c-1,4.48-2.66,10.64-4.2,15.82h32.2v73.64h-60.9ZM616,504.22V487.56H568.3v16.66Zm0,22.54V509.82H568.3v16.94Zm0,22.68V532.5H568.3v16.94Zm8.82,32.62c-5.46-5.32-16.66-13.16-25.76-18.48l5.32-3.64c9.1,4.9,20.3,12.6,26,17.92Z" transform="translate(-90.84 -76.2)"/><path class="cls-29" d="M738.4,554.34H706.76A70.94,70.94,0,0,0,724,565.12a212,212,0,0,0,25.76-12l6.3,4.34c-.28.7-.7.7-2.38.7a225,225,0,0,1-23.24,9.66,158.55,158.55,0,0,0,36.12,8.12,24.94,24.94,0,0,0-3.78,5.88c-15-2.1-29.4-6-41.44-11.62,0,.84,0,2.1-.14,4.76-23.94,2-49.7,3.64-65.38,4.62a2.09,2.09,0,0,1-1.68,1.82l-2.94-8,17.64-.84V523.12a135,135,0,0,1-26.18,15.4,50.49,50.49,0,0,0-4.62-4.9c14.42-5.88,30-15.68,39.9-27.58H640.4v-5.88h59.5V489.94h-42v-5.6h42V474.26H649.5v-5.88h29.26a89.39,89.39,0,0,0-9.8-13.86l5.88-2.38c4.62,4.76,9.38,11.34,11.48,16l-.56.28h35a127.17,127.17,0,0,0,10.08-16.52l8.26,3.22c-.28.7-1.26,1.12-2.52,1.12-2.1,3.36-5.46,8.26-8.54,12.18h29.54v5.88H706.76v10.08H749v5.6H706.76v10.22h60.06V506H729.3c9.38,11.2,24.64,20.72,39.62,25.2a27.39,27.39,0,0,0-4.48,5.32,94.2,94.2,0,0,1-26-14Zm-3.92-35A73.76,73.76,0,0,1,722,506h-35.7a87,87,0,0,1-12.74,13.3H700v-9.52l9.1.7c-.14.84-.84,1.4-2.52,1.68v7.14Zm-58.94,5.32v9.52h56v-9.52Zm0,24.22h56v-9.66h-56Zm0,5.46v17.78c13.72-.7,29.4-1.54,44.66-2.52-8.54-4.2-15.82-9.24-21.14-15.26Z" transform="translate(-90.84 -76.2)"/><path class="cls-29" d="M816.38,583.32c1.82-5.74,4.34-19.46,5.32-27.72l12.46-2c-2.52,9.94-8.12,24.5-10.64,28.56Z" transform="translate(-90.84 -76.2)"/><path class="cls-29" d="M899,534.32c-.28,1-1.12,1.4-2.66,1.4-2.24,12-5.88,25.48-10.5,33.6a44.82,44.82,0,0,0-5.18-2.66c4.34-8,7.84-21.42,10.08-34.44Zm22.54-35.84c6.16,9,12.32,21.28,14.56,28.84L930.34,530a80.23,80.23,0,0,0-3.22-9c-4.76.28-9.38.56-13.86.7v60.34H907V522c-8,.42-15.4.56-21,.84a2.26,2.26,0,0,1-1.82,1.68l-2.24-8.26h8.54c3.64-4.34,7.56-9.66,11.48-15.26-4.48-6.44-12.46-15-19.6-21.14l3.78-4.2c1.54,1.26,3.08,2.66,4.62,4.06A215.76,215.76,0,0,0,905,452.14l7.84,3.5c-.42.7-1.26,1-2.66,1a218.64,218.64,0,0,1-15.4,27,100.24,100.24,0,0,1,10.78,12A290.29,290.29,0,0,0,922.22,468l7.84,3.78a3.49,3.49,0,0,1-2.8,1c-7.56,12.74-19.74,30.94-30,43.4,8.4,0,17.78-.28,27.3-.42a138.83,138.83,0,0,0-8.4-15Zm5.18,33.32c4.48,8.82,8.54,20.16,9.94,27.72-.7.28-1.54.56-5.88,2-1.26-7.56-5.18-19.18-9.52-28ZM948.82,566c0,5.74,1.82,7.14,11.2,7.14h36.12c8,0,9.24-3.36,10.22-19.6a18.69,18.69,0,0,0,6.16,2.8c-1.12,18.06-3.5,23.1-16.38,23.1h-36c-13.72,0-17.78-2.52-17.78-13.58v-63.7a65.26,65.26,0,0,1-8.82,6,22.88,22.88,0,0,0-4.06-4.9c15-8,25.06-22.26,29.12-36.82H934.68v-6.16h61l1.4-.28,3.78,1-.42,2.24c-1.68,18.76-3.22,26-6,29-2,1.68-3.78,2.38-7,2.52-2.66,0-8.12,0-13.44-.28a14.9,14.9,0,0,0-1.68-6c5.74.56,10.92.56,12.88.56s3.08-.14,4.06-1c1.82-1.82,3.22-7.56,4.48-21.56H965.62a72.1,72.1,0,0,1-17.78,30.8h58.24V542.3h-6.44v-5.88H948.82Zm21.84-62.44H948.82v26.6h21.84Zm29,26.6v-26.6H976.82v26.6Z" transform="translate(-90.84 -76.2)"/><path class="cls-29" d="M1102.4,469.36l1.4.56c-.56.84-1.54,1.26-3.22,1.12a155.35,155.35,0,0,1-10.78,17.5l3.22,1c-.28.84-1,1.4-2.66,1.54v90.72h-6.86v-84.7c-15,19-34.44,37.1-56.14,49.84a33.78,33.78,0,0,0-4.62-5.6c30-16.8,56.14-44.52,70.56-72h-67.06V462.5H1148v6.86Zm43.68,75.88c-10.5-10.36-31.92-26.18-49.56-36.82l4.76-4.62c17.5,10.36,39.2,25.62,49.84,36Z" transform="translate(-90.84 -76.2)"/><path class="cls-29" d="M1290.28,547.62h-51.66c12.88,11.62,34.44,21.14,53.76,25.62a19.3,19.3,0,0,0-4.48,5.6c-20.58-5.46-44.38-17.22-57.4-31.22h-.28V581.5h-6.86V547.62h-.42c-13.16,14-37.1,26-56.42,32.06a28.09,28.09,0,0,0-4.48-5.6c18.2-4.76,39.62-14.84,52.64-26.46h-50.54v-6h59.22V531.1H1187V512.2h-22.82v-5.88H1187v-9.94l9,.7c-.14.84-.84,1.4-2.38,1.54v7.7h29.82V495.4l9.1.56c-.14.84-.84,1.54-2.38,1.68v8.68h30.66v-9.94l9.1.7c-.14.84-.84,1.4-2.38,1.54v7.7h22.82v5.88h-22.82v18.9H1232.6c-.28.7-.84,1.26-2.38,1.4v9.1h60.06ZM1169.6,486.16l22.54-.14a177.31,177.31,0,0,0,13.44-15.26h-41.44v-6h59.36v-12.6l9.24.7c-.14.84-.84,1.4-2.38,1.54v10.36h59.92v6h-74.2a3.71,3.71,0,0,1-2,.42c-3.64,4.2-9,9.94-14,14.7,18.9-.14,41-.42,62.58-.84a184,184,0,0,0-19.46-9l4.48-4.06c13.58,5,30.24,14,38.78,20.3L1282,496.8c-2.8-2.1-6.44-4.48-10.64-7-35.28,1.26-73.22,2.24-96.88,2.52a2.08,2.08,0,0,1-1.82,1.82Zm23.94,26v13h29.82v-13Zm67.2,0h-30.66v13h30.66Z" transform="translate(-90.84 -76.2)"/><path class="cls-29" d="M1402,554.34h-31.64a70.94,70.94,0,0,0,17.22,10.78,212,212,0,0,0,25.76-12l6.3,4.34c-.28.7-.7.7-2.38.7a225,225,0,0,1-23.24,9.66,158.55,158.55,0,0,0,36.12,8.12,24.94,24.94,0,0,0-3.78,5.88c-15-2.1-29.4-6-41.44-11.62,0,.84,0,2.1-.14,4.76-23.94,2-49.7,3.64-65.38,4.62a2.09,2.09,0,0,1-1.68,1.82l-2.94-8,17.64-.84V523.12a135,135,0,0,1-26.18,15.4,50.6,50.6,0,0,0-4.62-4.9c14.42-5.88,30-15.68,39.9-27.58H1304v-5.88h59.5V489.94h-42v-5.6h42V474.26h-50.4v-5.88h29.26a89.4,89.4,0,0,0-9.8-13.86l5.88-2.38c4.62,4.76,9.38,11.34,11.48,16l-.56.28h35a127.17,127.17,0,0,0,10.08-16.52l8.26,3.22c-.28.7-1.26,1.12-2.52,1.12-2.1,3.36-5.46,8.26-8.54,12.18h29.54v5.88h-50.82v10.08h42.28v5.6h-42.28v10.22h60.06V506H1392.9c9.38,11.2,24.64,20.72,39.62,25.2a27.39,27.39,0,0,0-4.48,5.32,94.2,94.2,0,0,1-26-14Zm-3.92-35a73.76,73.76,0,0,1-12.46-13.3h-35.7a87.08,87.08,0,0,1-12.74,13.3h26.46v-9.52l9.1.7c-.14.84-.84,1.4-2.52,1.68v7.14Zm-58.94,5.32v9.52h56v-9.52Zm0,24.22h56v-9.66h-56Zm0,5.46v17.78c13.72-.7,29.4-1.54,44.66-2.52-8.54-4.2-15.82-9.24-21.14-15.26Z" transform="translate(-90.84 -76.2)"/><path class="cls-29" d="M1512.45,561.9a19.6,19.6,0,1,1-19.6-19.6A19.66,19.66,0,0,1,1512.45,561.9Zm-4.76,0a14.91,14.91,0,1,0-14.84,15A14.76,14.76,0,0,0,1507.7,561.9Z" transform="translate(-90.84 -76.2)"/><path d="M241.76,666.2H253.3l27.89,82.21h-11l-7.84-25.09h-30l-8,25.09H213.87ZM234.93,715h24.86l-3.92-12.54c-3-9.3-5.6-18.26-8.29-27.78h-.45c-2.58,9.63-5.26,18.48-8.18,27.78Z" transform="translate(-90.84 -76.2)"/><path d="M292.72,666.2h20.61c25.2,0,38.75,14.78,38.75,40.88s-13.55,41.33-38.3,41.33H292.72Zm19.71,73.7c19.38,0,28.9-12.1,28.9-32.82s-9.52-32.37-28.9-32.37h-9.3V739.9Z" transform="translate(-90.84 -76.2)"/><path d="M365,707.08c0-26.32,14.45-42.34,35.06-42.34s35.06,16,35.06,42.34S420.62,749.86,400,749.86,365,733.4,365,707.08Zm59.47,0c0-20.61-9.74-33.26-24.42-33.26s-24.42,12.66-24.42,33.26,9.63,33.71,24.42,33.71S424.43,727.58,424.43,707.08Z" transform="translate(-90.84 -76.2)"/><path d="M452.77,666.2h23.52c18.37,0,30.69,6.27,30.69,24.19,0,17.36-12.21,25.42-30.24,25.42H463.18v32.59H452.77Zm22.62,41.22c14.45,0,21.28-5.26,21.28-17s-7.28-15.68-21.73-15.68H463.18v32.7Z" transform="translate(-90.84 -76.2)"/><path d="M537.66,675H512.8V666.2h60.14V675H548.08v73.36H537.66Z" transform="translate(-90.84 -76.2)"/><path d="M569,763.64c7.06-3.14,11.2-8.62,11.2-15.23a4.58,4.58,0,0,1-1.23.11c-3.92,0-7.5-2.46-7.5-7.17,0-4.37,3.58-7.17,7.73-7.17,5.38,0,8.62,4.59,8.62,12.1,0,10.75-6.27,19.15-16.35,23.41Z" transform="translate(-90.84 -76.2)"/><path d="M605.42,666.2H626c25.2,0,38.75,14.78,38.75,40.88s-13.55,41.33-38.3,41.33H605.42Zm19.71,73.7c19.38,0,28.9-12.1,28.9-32.82s-9.52-32.37-28.9-32.37h-9.3V739.9Z" transform="translate(-90.84 -76.2)"/><path d="M677.66,707.08c0-26.32,14.45-42.34,35.06-42.34s35.06,16,35.06,42.34-14.45,42.78-35.06,42.78S677.66,733.4,677.66,707.08Zm59.47,0c0-20.61-9.74-33.26-24.42-33.26s-24.42,12.66-24.42,33.26,9.63,33.71,24.42,33.71S737.13,727.58,737.13,707.08Z" transform="translate(-90.84 -76.2)"/><path d="M765.47,666.2h10.75l29.9,51.86L814.86,735h.56c-.56-8.29-1.34-17.47-1.34-26V666.2h9.86v82.21H813.29l-29.9-51.86-8.85-16.91h-.45c.45,8.29,1.23,17,1.23,25.65v43.12h-9.86Z" transform="translate(-90.84 -76.2)"/><path d="M845.44,673.59l-.22-11.54H856l-.22,11.54-2,20.72h-6.27Z" transform="translate(-90.84 -76.2)"/><path d="M894.6,675H869.74V666.2h60.14V675H905v73.36H894.6Z" transform="translate(-90.84 -76.2)"/><path d="M986.67,666.2H998.2l27.89,82.21h-11l-7.84-25.09h-30l-8,25.09H958.78ZM979.84,715h24.86l-3.92-12.54c-3-9.3-5.6-18.26-8.29-27.78H992c-2.58,9.63-5.26,18.48-8.18,27.78Z" transform="translate(-90.84 -76.2)"/><path d="M1037.63,666.2H1062c16.69,0,28.22,5.71,28.22,20.16,0,8.18-4.37,15.34-12,17.81v.56c9.74,1.9,16.69,8.4,16.69,19.6,0,16.13-12.77,24.08-31.14,24.08h-26.21Zm22.62,35.06c14.11,0,19.82-5.26,19.82-13.55,0-9.63-6.61-13.22-19.38-13.22H1048v26.77Zm2.13,38.86c14.11,0,22.4-5,22.4-16.13,0-10.19-8.06-14.9-22.4-14.9H1048v31Z" transform="translate(-90.84 -76.2)"/><path d="M1128.23,666.2h11.54l27.89,82.21h-11l-7.84-25.09h-30l-8,25.09h-10.53ZM1121.4,715h24.86l-3.92-12.54c-3-9.3-5.6-18.26-8.29-27.78h-.45c-2.58,9.63-5.26,18.48-8.18,27.78Z" transform="translate(-90.84 -76.2)"/><path d="M1179.2,666.2h10.75l29.9,51.86,8.74,16.91h.56c-.56-8.29-1.34-17.47-1.34-26V666.2h9.86v82.21H1227l-29.9-51.86-8.85-16.91h-.45c.45,8.29,1.23,17,1.23,25.65v43.12h-9.86Z" transform="translate(-90.84 -76.2)"/><path d="M1260.06,666.2h20.61c25.2,0,38.75,14.78,38.75,40.88s-13.55,41.33-38.3,41.33h-21.06Zm19.71,73.7c19.38,0,28.9-12.1,28.9-32.82s-9.52-32.37-28.9-32.37h-9.3V739.9Z" transform="translate(-90.84 -76.2)"/><path d="M1332.3,707.08c0-26.32,14.45-42.34,35.06-42.34s35.06,16,35.06,42.34-14.45,42.78-35.06,42.78S1332.3,733.4,1332.3,707.08Zm59.47,0c0-20.61-9.74-33.26-24.42-33.26s-24.42,12.66-24.42,33.26,9.63,33.71,24.42,33.71S1391.77,727.58,1391.77,707.08Z" transform="translate(-90.84 -76.2)"/><path d="M1420.1,666.2h10.75l29.9,51.86,8.74,16.91h.56c-.56-8.29-1.34-17.47-1.34-26V666.2h9.86v82.21h-10.64L1438,696.55l-8.85-16.91h-.45c.45,8.29,1.23,17,1.23,25.65v43.12h-9.86Z" transform="translate(-90.84 -76.2)"/><path class="cls-30" d="M696.51,314" transform="translate(-90.84 -76.2)"/><path class="cls-2" d="M715.17,409.65l-.09,0a.46.46,0,0,1-.16-.22,102.15,102.15,0,0,1-7-21,59.69,59.69,0,0,1-1-8.12c-6.36-7.73-14-19.29-13-29.84a2.66,2.66,0,0,0,0-1.1,2.41,2.41,0,0,0-.54-.8,45.72,45.72,0,0,1-4.82-5.81c-3.38-5.3-2.79-9.95-2.07-15.94a25.05,25.05,0,0,1,.42-2.7c1.25-5.39,6.33-8.78,11.61-9.45-.35,0-2.55-3.11-2.87-3.52a15.61,15.61,0,0,1-2.17-3.76,11.7,11.7,0,0,1,.15-8.86c1.64-4.11,4.93-8.81,9-10.77,5.21-2.5,12.19.62,16.75,3.16,1.25-2.53,4.72-3.38,7.2-4a21.57,21.57,0,0,1,10.06.37c4.17,1,7.63,2.41,10.18,5.92.81,1.12,6,11.78,5,12.13,7.41-2.64,13.44,1.92,17.33,7.89a52.61,52.61,0,0,1,4.88,9.9c1.39,3.62,1.6,7.16,2.69,10.78,1.24,4.12,4,8,5.47,12.11a55.69,55.69,0,0,1,3.34,16.3s-3.82,20.06-.47,22.85c.3.25-4.08,2.2-4.35,2.31-4.08,1.65-8.23,3.12-12.37,4.58-11.12,3.92-22.3,7.63-33.5,11.31-6.4,2.25-12.92,4.21-19.37,6.3A.64.64,0,0,1,715.17,409.65Z" transform="translate(-90.84 -76.2)"/><path class="cls-31" d="M698.36,319.41c-3.26,1.69-6.24,6.16-7.3,9a13.15,13.15,0,0,0-.67,7,22.41,22.41,0,0,0,1.77,5,7.79,7.79,0,0,0,6.26,4.57c4.13.6,8.45-.61,10.36-4.6a15.42,15.42,0,0,0,.54-10.66c-1.1-3.78-3.49-10.85-8.34-11A5.38,5.38,0,0,0,698.36,319.41Z" transform="translate(-90.84 -76.2)"/><path class="cls-31" d="M705,296.63a13.79,13.79,0,0,0-3.86,4.54c-2.11,4.07-.64,8.29,2.19,11.5,4.54,5.14,11.12,8.23,16.05,1.47,1.57-2.14,1.56-4.66,1.18-7.16s-.56-5.53-1.5-8a8,8,0,0,0-3.48-4.24c-1.8-1-3.77-.32-5.7-.16A9.6,9.6,0,0,0,705,296.63Z" transform="translate(-90.84 -76.2)"/><path class="cls-31" d="M725.19,294.07a4.08,4.08,0,0,1,.93-.75,13.23,13.23,0,0,1,9-1.09c4,1,7,4.73,8.64,8.41a11.92,11.92,0,0,1,1,7.29c-.48,2.19-2.54,5.42-5.1,5.39a3.53,3.53,0,0,1-1-.21c-7-2.24-12.27-8.9-14-16a4.06,4.06,0,0,1-.14-1.56A2.9,2.9,0,0,1,725.19,294.07Z" transform="translate(-90.84 -76.2)"/><path class="cls-31" d="M752.34,321l-.15-.52c-.66-2.42-1.37-6.09-.19-8.47,2.14-4.32,8.68-1.13,11.56.44a5.6,5.6,0,0,1,2.45,2.32,22.67,22.67,0,0,1,3.82,9.34,10.52,10.52,0,0,1-.27,4.22c-.27.94-1.16,3.35-2.19,3.71-3.87,1.36-8.56-1-11-3.79A19.67,19.67,0,0,1,752.34,321Z" transform="translate(-90.84 -76.2)"/><path class="cls-31" d="M721.75,345.78l0,0c.24-.39.07-1,0-1.41s-.12-1.11-.16-1.66a11.23,11.23,0,0,1,.18-3.29,11.82,11.82,0,0,1,3.06-5.6c3-3.1,7.33-4.64,11.59-5.22a13.93,13.93,0,0,1,7.5.65,9.75,9.75,0,0,1,5.27,6.25,7.31,7.31,0,0,0,1.15,2.93,6,6,0,0,0,3.26,1.46c3.84.93,7.6,2.77,10,5.95s3,7.84.76,11.18c-1.6,2.41-4.34,3.78-7,4.92a114.31,114.31,0,0,1-34.25,8.49c-3.14.3-6.61.39-9-1.6-3-2.45-3.76-7.95-2.33-11.44a23.56,23.56,0,0,1,3.17-5.5,25,25,0,0,1,4.55-4.47c.59-.45,1.24-.84,1.86-1.25A1.5,1.5,0,0,0,721.75,345.78Z" transform="translate(-90.84 -76.2)"/><path class="cls-30" d="M1112.06,317" transform="translate(-90.84 -76.2)"/><path class="cls-2" d="M1112,407.1l.08,0a.41.41,0,0,0,.11-.23,89.77,89.77,0,0,0,2.79-20.32,52.53,52.53,0,0,0-.53-7.55c4.63-8.11,9.76-19.92,6.84-29.33a2.36,2.36,0,0,1-.17-1,2.15,2.15,0,0,1,.37-.82,41.35,41.35,0,0,0,3.52-6.1c2.25-5.4.81-9.52-1-14.84a22.55,22.55,0,0,0-.91-2.38c-2.2-4.68-7.68-6.89-12.84-6.6.34,0,1.86-3.26,2.09-3.69a13.87,13.87,0,0,0,1.37-3.79,10.42,10.42,0,0,0-1.79-8c-2.33-3.45-6.35-7.16-10.62-8.24-5.44-1.38-11.53,2.65-15.41,5.74-1.66-2.08-5.14-2.27-7.62-2.37a21.82,21.82,0,0,0-9.54,2.06c-3.79,1.65-6.84,3.5-8.62,7.12-.57,1.16-3.57,11.73-2.55,11.88-7.57-1.13-12.48,4-15.09,10.13a46.52,46.52,0,0,0-2.82,9.83c-.66,3.52-.2,6.78-.57,10.25-.42,4-2.34,7.93-3,11.94a48.93,48.93,0,0,0-.16,15.38s7.38,17.57,4.7,20.67c-.24.28,4.3,1.3,4.58,1.35,4.2.8,8.44,1.42,12.67,2,11.35,1.66,22.72,3.12,34.1,4.54,6.53.95,13.12,1.62,19.68,2.4A.66.66,0,0,0,1112,407.1Z" transform="translate(-90.84 -76.2)"/><path class="cls-31" d="M1111.29,322.23c3.43,1,7.1,4.53,8.64,6.89a11.78,11.78,0,0,1,1.94,6.24,19.71,19.71,0,0,1-.75,4.89,7.3,7.3,0,0,1-5.13,5.22c-3.83,1.25-8.18.89-10.76-2.41a13.76,13.76,0,0,1-2.5-9.59c.34-3.62,1.32-10.45,5.92-11.4A5.51,5.51,0,0,1,1111.29,322.23Z" transform="translate(-90.84 -76.2)"/><path class="cls-31" d="M1100.75,302.67a13.43,13.43,0,0,1,4.53,3.47c2.77,3.33,2.16,7.42,0,10.82-3.38,5.45-9.09,9.38-15.06,4.08-1.89-1.68-2.36-4-2.46-6.3s-.49-5.12,0-7.51a7.26,7.26,0,0,1,2.53-4.44c1.54-1.18,3.54-.93,5.41-1.12A9.8,9.8,0,0,1,1100.75,302.67Z" transform="translate(-90.84 -76.2)"/><path class="cls-31" d="M1081,303.81a4.08,4.08,0,0,0-1-.52,13.49,13.49,0,0,0-8.76.55c-3.68,1.61-5.79,5.5-6.69,9.12a10.51,10.51,0,0,0,.4,6.8c.86,1.91,3.44,4.49,5.88,4a3.51,3.51,0,0,0,.95-.37c6.23-3.22,10.06-10.19,10.43-16.9a3.58,3.58,0,0,0-.15-1.44A2.72,2.72,0,0,0,1081,303.81Z" transform="translate(-90.84 -76.2)"/><path class="cls-31" d="M1060,332.89q0-.25,0-.5c.18-2.31.18-5.77-1.39-7.73-2.85-3.56-8.5.46-11,2.38a6.59,6.59,0,0,0-1,.89,6.37,6.37,0,0,0-.94,1.64,20,20,0,0,0-1.91,9.14,9.39,9.39,0,0,0,1,3.79c.44.81,1.73,2.84,2.78,3,3.95.58,8-2.39,9.8-5.33A17.47,17.47,0,0,0,1060,332.89Z" transform="translate(-90.84 -76.2)"/><path class="cls-31" d="M1093.86,350.2l0,0c-.3-.32-.25-.88-.28-1.27s-.09-1-.16-1.54a10,10,0,0,0-.78-3,11.17,11.17,0,0,0-4-4.56c-3.47-2.29-7.87-3-12-2.76a14,14,0,0,0-7,1.88,8.86,8.86,0,0,0-3.87,6.58,6.45,6.45,0,0,1-.55,2.86,5.76,5.76,0,0,1-2.85,1.89c-3.49,1.5-6.74,3.82-8.4,7.11s-1.38,7.64,1.35,10.29c2,1.92,4.84,2.69,7.59,3.27a117.09,117.09,0,0,0,34.3,1.85c3.05-.27,6.39-.78,8.33-3,2.4-2.73,2.11-7.86.1-10.79a22.34,22.34,0,0,0-4.05-4.46,24.64,24.64,0,0,0-5.17-3.28c-.64-.31-1.34-.55-2-.82A1.49,1.49,0,0,1,1093.86,350.2Z" transform="translate(-90.84 -76.2)"/><ellipse class="cls-32" cx="828.59" cy="164.17" rx="134.23" ry="107.68"/><path class="cls-32" d="M1130.28,195.91c-.48.15-1.08-.12-1.76-.73A12.4,12.4,0,0,1,1130.28,195.91Z" transform="translate(-90.84 -76.2)"/><path class="cls-32" d="M934.59,384.65c20-2.25,45.6-8.31,49.66-24.54,0,0,55.86-48.9,57.9-68.46,0,0,19.07-56.58,0-72.65,0,0,6.81-26.54,23.16-34.93Z" transform="translate(-90.84 -76.2)"/><path class="cls-32" d="M775.62,196c-1.14.7-4.58,17.37-4.58,17.37s-.16.71-.43,2c-2.29,11.37-12,68,16.09,87.41,0,0,13.62,25.15,41.55,40.52,0,0,38.15,47.5,81.74,42.61,0,0,3.69.07,9.43-.15Z" transform="translate(-90.84 -76.2)"/><path class="cls-32" d="M856.32,113.12s-9.63,32.6-18.71,42.54c0,0-1.78,2.07-3.35,3.64.11-.34.22-.69.33-1,.48-1.56.94-3.16,1.38-4.81a163.94,163.94,0,0,0,3.88-19s-10.22-43.31-2-44C837.8,90.45,869,83.93,856.32,113.12Z" transform="translate(-90.84 -76.2)"/><path class="cls-32" d="M832.11,161a7.12,7.12,0,0,0,2.15-1.74c-14.25,45.38-43.47,58.29-43.47,58.29-6.81,1-62-52.39-62-52.39-19.76-32.84,3.41-56.59,3.41-56.59,8.17-10.47,102.18-30,102.18-30,49-13.27,32,33.53,32,33.53,2.72,0,83.1-9.08,92,4.19,0,0,14.19-39.82,90.88-15.37,0,0,67.83,7,96.44,95.7,0,0,3.41,19.56-17.71,3.49,0,0-45.64,11.18-62.67-16.06,0,0-13.21,20.55-13.86,37.05Z" transform="translate(-90.84 -76.2)"/><path class="cls-32" d="M916.14,351.58s-20.85-2.79-23.58-9.78c0,0-30.43-27,14.53-40.05,0,0,42.24-4.52,42.69,17.76C949.79,319.51,955.16,348.79,916.14,351.58Z" transform="translate(-90.84 -76.2)"/><path class="cls-2" d="M962.83,285.09a222.81,222.81,0,0,0-12.69-29c-11.67-22.21-26.69-47.67-16.64-73.44,4.31-11,9.74-22.75,6-35-2.75-9.11-13.13-19.23-23.28-18.67-23,6.22-21.8,28.19-17.75,47.79,4.14,20.05,14.45,43.74,1.17,62.35-5.12,7.17-12,12.75-18.32,18.86-17.65,17.11-18.14,39.48-24.5,62.13-5.91,21-2.18,42,16.17,55.26,18,7.58,33.53,10.34,46.4,10.46,4.16-.17,9.41-.5,15.11-1.14h.05c16-2.65,36.27-10.45,40.59-28.36,3.54-14.67-.91-31.1-4.54-45.32C968.36,302,965.82,293.47,962.83,285.09Zm-46.69,66.49s-20.85-2.79-23.58-9.78c0,0-30.43-27,14.53-40.05,0,0,42.24-4.52,42.69,17.76C949.79,319.51,955.16,348.79,916.14,351.58Z" transform="translate(-90.84 -76.2)"/><path class="cls-18" d="M916.14,351.58s-20.85-2.79-23.58-9.78c0,0-30.43-27,14.53-40.05,0,0,42.24-4.52,42.69,17.76C949.79,319.51,955.16,348.79,916.14,351.58Z" transform="translate(-90.84 -76.2)"/><path class="cls-32" d="M866.64,168c-1.2.54-2.35,1.19-3.39,1.57-4.82,1.79-10.1,3.55-14.22,6.79-3,2.39-5.57,5.68-9.32,7-4.1,1.39-8,.59-11.72,3.5a14.44,14.44,0,0,0-5.25,9c-1.18,7.38,16.49,1.47,19.84-.23,5.25-2.67,9.3-7.15,14.42-10,4.84-2.72,11.88-2.4,15.37-7.25a10.5,10.5,0,0,0,1.8-5.07c.22-2.15-.29-4.69-2.16-5.7C870.32,166.65,868.44,167.22,866.64,168Z" transform="translate(-90.84 -76.2)"/><path class="cls-32" d="M954.5,173.52a30.82,30.82,0,0,0,3.21,9.21c2.5,4.92,8.66,6.51,13.64,6.86,4.44.32,9,.06,13.21,1.6,4.4,1.62,7.93,5.06,12.15,7.11a9.12,9.12,0,0,0,4.52,1.12A4.41,4.41,0,0,0,1005,197a5.6,5.6,0,0,0,.19-3.21c-1.12-6.15-6.94-9.81-12.31-11.68-3.8-1.33-7.85-1.9-11.54-3.52a69.36,69.36,0,0,1-7.89-4.59,42.1,42.1,0,0,0-13.69-5.36C955.21,167.83,954.12,170.27,954.5,173.52Z" transform="translate(-90.84 -76.2)"/><path class="cls-32" d="M849.68,199.07c-1.6.82-3.11,1.85-4.75,2.59a13.79,13.79,0,0,1-5,1.13,25,25,0,0,0-4.23.16,37.83,37.83,0,0,0-4.28,1.61,4.26,4.26,0,0,0-2.23,1.54c-.28.44-.74,1.73-.19,2.15a.82.82,0,0,0,.4.13c2,.27,3.74-.88,5.52-1.63,2.52-1.06,5.44-1.34,8.09-2,2.44-.57,5-1,7.4-1.73a5,5,0,0,0,2.62-1.81c.37-.5,1.68-2.07,1-2.71C852.81,197.41,850.87,198.47,849.68,199.07Z" transform="translate(-90.84 -76.2)"/><path class="cls-32" d="M977.69,199.34c1.63.75,3.18,1.73,4.84,2.41a13.78,13.78,0,0,0,5,.94,24.94,24.94,0,0,1,4.23,0,37.76,37.76,0,0,1,4.34,1.44,4.24,4.24,0,0,1,2.29,1.46c.3.43.81,1.7.27,2.14a.82.82,0,0,1-.39.15c-2,.34-3.77-.74-5.58-1.42-2.56-1-5.48-1.13-8.15-1.65-2.46-.48-5-.79-7.46-1.44a5,5,0,0,1-2.69-1.71c-.39-.48-1.75-2-1.09-2.67C974.5,197.8,976.48,198.78,977.69,199.34Z" transform="translate(-90.84 -76.2)"/><path class="cls-13" d="M1131.65,195.3a53,53,0,0,0-9.14-2.07s-39.06,7.12-48.44-9.17c0,0-5.15-4.49-13.62-2.63,0,0-48.56,37.26-84.68-59-.9-2.41,10.5-19.87,35.94-12.11,0,0,42.74-5,53.61,1.86,0,0,24.81,3.11,46.3,43.78C1111.61,156,1125.38,189.76,1131.65,195.3Z" transform="translate(-90.84 -76.2)"/><path class="cls-33" d="M871.59,225.62c-.56,8.51-8.78,14.65-18.37,13.71s-16.91-8.59-16.35-17.1,8.78-14.65,18.37-13.71S872.15,217.11,871.59,225.62Z" transform="translate(-90.84 -76.2)"/><path class="cls-34" d="M867.27,225c-.42,6.43-6.63,11.07-13.86,10.36s-12.76-6.49-12.34-12.92,6.63-11.07,13.86-10.36S867.69,218.57,867.27,225Z" transform="translate(-90.84 -76.2)"/><path class="cls-35" d="M861.59,222.7c-.33,5.08-3.84,8.89-7.84,8.5s-7-4.83-6.63-9.91,3.84-8.89,7.84-8.5S861.92,217.61,861.59,222.7Z" transform="translate(-90.84 -76.2)"/><path class="cls-36" d="M850.25,216.8c.15-1.52,1.24-2.6,2.43-2.42a2.69,2.69,0,0,1,1.89,3.08c-.15,1.52-1.24,2.6-2.43,2.42A2.69,2.69,0,0,1,850.25,216.8Z" transform="translate(-90.84 -76.2)"/><path class="cls-33" d="M997.88,225.62c-.56,8.51-8.78,14.65-18.37,13.71s-16.91-8.59-16.35-17.1,8.78-14.65,18.37-13.71S998.44,217.11,997.88,225.62Z" transform="translate(-90.84 -76.2)"/><path class="cls-34" d="M993.56,225c-.42,6.43-6.63,11.07-13.86,10.36s-12.76-6.49-12.34-12.92,6.63-11.07,13.86-10.36S994,218.57,993.56,225Z" transform="translate(-90.84 -76.2)"/><path class="cls-35" d="M987.88,222.7c-.33,5.08-3.84,8.89-7.84,8.5s-7-4.83-6.63-9.91,3.84-8.89,7.84-8.5S988.22,217.61,987.88,222.7Z" transform="translate(-90.84 -76.2)"/><path class="cls-36" d="M976.55,216.8c.15-1.52,1.24-2.6,2.43-2.42a2.69,2.69,0,0,1,1.89,3.08c-.15,1.52-1.24,2.6-2.43,2.42A2.69,2.69,0,0,1,976.55,216.8Z" transform="translate(-90.84 -76.2)"/></svg>