<svg id="圖層_1" data-name="圖層 1" xmlns="http://www.w3.org/2000/svg" viewBox="0 0 845.81 496.94"><defs><style>.cls-1,.cls-12,.cls-13,.cls-27,.cls-5{fill:none;}.cls-1,.cls-12,.cls-13,.cls-19,.cls-20,.cls-30{stroke:#000;}.cls-1,.cls-12,.cls-13,.cls-19,.cls-20,.cls-27,.cls-30,.cls-5{stroke-miterlimit:10;}.cls-2{fill:#e4e6db;}.cls-3{fill:#090100;}.cls-4{fill:#d6d0bf;}.cls-5{stroke:#964f40;}.cls-19,.cls-5{stroke-width:5px;}.cls-6{fill:#333;}.cls-7{fill:#412514;}.cls-8{fill:#927f64;}.cls-9{fill:#dfccb1;}.cls-10{fill:#7f7057;}.cls-11{fill:#cfbea6;}.cls-12{stroke-width:0.75px;}.cls-13{stroke-width:0.5px;}.cls-14{fill:#bd947f;}.cls-15{fill:#964f40;}.cls-16{fill:#691a0d;}.cls-17{fill:#713b27;}.cls-18{fill:#d5a86e;}.cls-19{fill:#817b3f;}.cls-20{stroke-width:2px;}.cls-21{fill:#c69380;}.cls-22{fill:#5c4231;}.cls-23{fill:#513e22;}.cls-24,.cls-30{fill:#fff;}.cls-25{fill:#f5ebf2;}.cls-26{fill:#b97a7f;}.cls-27{stroke:#af6c73;stroke-width:4px;}.cls-28{fill:#2b1d28;}.cls-29{fill:#815145;}.cls-30{stroke-width:7px;}.cls-31{fill:#533115;}.cls-32{fill:#2c0c00;}.cls-33{fill:#2c2f33;}.cls-34{fill:#0f1410;}.cls-35{fill:#768495;}</style></defs><title>slogan</title><path class="cls-1" d="M583.41,182" transform="translate(-50.3 -63)"/><path class="cls-2" d="M583.39,226.5l0,0a.2.2,0,0,0,.06-.11,42.18,42.18,0,0,0,1.46-10,24.62,24.62,0,0,0-.28-3.73c2.42-4,5.09-9.84,3.57-14.49a1.11,1.11,0,0,1-.09-.5,1,1,0,0,1,.19-.41,20.19,20.19,0,0,0,1.84-3c1.17-2.67.42-4.7-.52-7.33a10.79,10.79,0,0,0-.47-1.18c-1.15-2.31-4-3.4-6.7-3.26a9.69,9.69,0,0,0,1.09-1.82,6.62,6.62,0,0,0,.71-1.87,4.94,4.94,0,0,0-.93-4,10.51,10.51,0,0,0-5.54-4.07c-2.84-.68-6,1.31-8,2.84-.87-1-2.68-1.12-4-1.17a11.92,11.92,0,0,0-5,1c-2,.82-3.57,1.73-4.5,3.52-.3.57-1.86,5.8-1.33,5.87-3.95-.56-6.51,2-7.87,5a22.07,22.07,0,0,0-1.47,4.85c-.34,1.74-.1,3.35-.29,5.07-.22,2-1.22,3.92-1.55,5.9a22.92,22.92,0,0,0-.08,7.6s3.85,8.68,2.45,10.22a11.51,11.51,0,0,0,2.39.67c2.19.4,4.4.7,6.61,1,5.92.82,11.85,1.54,17.78,2.24,3.41.47,6.84.8,10.26,1.19A.36.36,0,0,0,583.39,226.5Z" transform="translate(-50.3 -63)"/><path class="cls-3" d="M583,184.57a9.53,9.53,0,0,1,4.51,3.4,5.61,5.61,0,0,1,1,3.08,9.27,9.27,0,0,1-.39,2.42,3.71,3.71,0,0,1-2.67,2.58c-2,.62-4.27.44-5.61-1.19a6.53,6.53,0,0,1-1.3-4.74c.18-1.79.69-5.16,3.09-5.64A3,3,0,0,1,583,184.57Z" transform="translate(-50.3 -63)"/><path class="cls-3" d="M577.52,174.9a7,7,0,0,1,2.36,1.71c1.44,1.65,1.12,3.67,0,5.35-1.76,2.69-4.74,4.63-7.85,2a4,4,0,0,1-1.28-3.11,16.09,16.09,0,0,1,0-3.71,3.55,3.55,0,0,1,1.32-2.2,5.43,5.43,0,0,1,2.82-.55A5.35,5.35,0,0,1,577.52,174.9Z" transform="translate(-50.3 -63)"/><path class="cls-3" d="M567.19,175.46a2.18,2.18,0,0,0-.54-.26,7.4,7.4,0,0,0-4.57.27,6.49,6.49,0,0,0-3.49,4.5,4.94,4.94,0,0,0,.21,3.36c.45.94,1.79,2.22,3.07,2a1.89,1.89,0,0,0,.49-.18,10.1,10.1,0,0,0,5.44-8.35,1.68,1.68,0,0,0-.08-.71A1.36,1.36,0,0,0,567.19,175.46Z" transform="translate(-50.3 -63)"/><path class="cls-3" d="M556.27,189.83q0-.12,0-.25c.1-1.14.09-2.85-.73-3.82-1.49-1.76-4.43.23-5.71,1.18a3.38,3.38,0,0,0-.51.44,3.11,3.11,0,0,0-.49.81,9.44,9.44,0,0,0-1,4.52,4.45,4.45,0,0,0,.55,1.87c.23.4.9,1.4,1.45,1.48a5.75,5.75,0,0,0,5.11-2.63A8.33,8.33,0,0,0,556.27,189.83Z" transform="translate(-50.3 -63)"/><path class="cls-3" d="M573.92,198.39l0,0c-.16-.16-.13-.43-.15-.63s0-.51-.08-.76a4.74,4.74,0,0,0-.41-1.46,5.62,5.62,0,0,0-2.06-2.25,11,11,0,0,0-6.28-1.36,7.63,7.63,0,0,0-3.67.93,4.34,4.34,0,0,0-2,3.25,2,2,0,0,1-1.77,2.34,8.41,8.41,0,0,0-4.38,3.51,4.23,4.23,0,0,0,.71,5.08,8.12,8.12,0,0,0,4,1.62,64.38,64.38,0,0,0,17.89.92c1.59-.13,3.33-.38,4.35-1.48,1.25-1.35,1.1-3.89.05-5.33a11.28,11.28,0,0,0-2.11-2.2,13,13,0,0,0-2.7-1.62c-.34-.15-.7-.27-1-.41A.79.79,0,0,1,573.92,198.39Z" transform="translate(-50.3 -63)"/><path class="cls-1" d="M366.7,180.5" transform="translate(-50.3 -63)"/><path class="cls-2" d="M376.43,227.76l0,0a.23.23,0,0,1-.08-.11,48.65,48.65,0,0,1-3.66-10.4,28,28,0,0,1-.53-4c-3.32-3.82-7.29-9.53-6.76-14.74a1.25,1.25,0,0,0,0-.54,1.19,1.19,0,0,0-.28-.4,22.91,22.91,0,0,1-2.51-2.87c-1.77-2.62-1.45-4.92-1.08-7.88a11.78,11.78,0,0,1,.22-1.33c.65-2.66,3.3-4.34,6.05-4.67-.18,0-1.33-1.54-1.5-1.74a7.62,7.62,0,0,1-1.13-1.86,5.5,5.5,0,0,1,.08-4.38,10.46,10.46,0,0,1,4.7-5.32c2.72-1.23,6.36.31,8.74,1.56.65-1.25,2.46-1.67,3.76-2a11.85,11.85,0,0,1,5.25.18c2.17.51,4,1.19,5.31,2.93.42.55,3.15,5.82,2.63,6,3.86-1.3,7,.95,9,3.9a25.46,25.46,0,0,1,2.54,4.89c.73,1.79.83,3.54,1.4,5.33.65,2,2.09,3.94,2.85,6a26.27,26.27,0,0,1,1.74,8.05s-2,9.91-.25,11.29c.15.12-2.13,1.09-2.27,1.14-2.13.82-4.29,1.54-6.45,2.26-5.8,1.94-11.63,3.77-17.47,5.59-3.34,1.11-6.74,2.08-10.1,3.11A.35.35,0,0,1,376.43,227.76Z" transform="translate(-50.3 -63)"/><path class="cls-3" d="M367.67,183.17a9.5,9.5,0,0,0-3.81,4.43,6.18,6.18,0,0,0-.35,3.46,10.69,10.69,0,0,0,.92,2.49,4.05,4.05,0,0,0,3.26,2.26c2.15.3,4.4-.3,5.41-2.28a7.25,7.25,0,0,0,.28-5.27c-.57-1.87-1.82-5.36-4.35-5.43A2.93,2.93,0,0,0,367.67,183.17Z" transform="translate(-50.3 -63)"/><path class="cls-3" d="M371.11,171.91a6.92,6.92,0,0,0-2,2.24c-1.1,2-.34,4.09,1.14,5.68,2.37,2.54,5.8,4.07,8.37.73a4.37,4.37,0,0,0,.62-3.54,18.42,18.42,0,0,0-.78-3.94,4,4,0,0,0-1.81-2.09c-.94-.48-2-.16-3-.08A5.16,5.16,0,0,0,371.11,171.91Z" transform="translate(-50.3 -63)"/><path class="cls-3" d="M381.66,170.65a2.12,2.12,0,0,1,.49-.37,6.51,6.51,0,0,1,9.18,3.62,5.61,5.61,0,0,1,.52,3.6c-.25,1.08-1.33,2.68-2.66,2.66a1.93,1.93,0,0,1-.54-.1,11.36,11.36,0,0,1-7.31-7.88,1.9,1.9,0,0,1-.07-.77A1.41,1.41,0,0,1,381.66,170.65Z" transform="translate(-50.3 -63)"/><path class="cls-3" d="M395.82,183.94l-.08-.26c-.35-1.19-.72-3-.1-4.19,1.12-2.14,4.53-.56,6,.22a3.67,3.67,0,0,1,.61.37,3.53,3.53,0,0,1,.67.77,10.88,10.88,0,0,1,2,4.62,4.94,4.94,0,0,1-.14,2.09c-.14.46-.61,1.65-1.14,1.83-2,.67-4.46-.5-5.74-1.87A9.59,9.59,0,0,1,395.82,183.94Z" transform="translate(-50.3 -63)"/><path class="cls-3" d="M379.86,196.2v0c.12-.2,0-.48,0-.69s-.06-.55-.08-.82a5.26,5.26,0,0,1,.09-1.63,5.76,5.76,0,0,1,1.59-2.77,10.59,10.59,0,0,1,6-2.58,7.64,7.64,0,0,1,3.91.32,4.9,4.9,0,0,1,2.75,3.09,3.51,3.51,0,0,0,.6,1.45,3.19,3.19,0,0,0,1.7.72,9.06,9.06,0,0,1,5.19,2.94,4.74,4.74,0,0,1,.4,5.52,7.87,7.87,0,0,1-3.64,2.43,62.33,62.33,0,0,1-17.86,4.2c-1.64.15-3.45.19-4.71-.79a5.17,5.17,0,0,1-1.22-5.65,11.5,11.5,0,0,1,1.65-2.72,12.72,12.72,0,0,1,2.37-2.21c.31-.22.65-.42,1-.62A.77.77,0,0,0,379.86,196.2Z" transform="translate(-50.3 -63)"/><path class="cls-4" d="M790.81,132.58a1.83,1.83,0,0,0,2.23.65,18.5,18.5,0,0,1,6.6-.75,107,107,0,0,1,21.91,2.64c3.56.78,7.08,1.69,10.57,2.71,3,.88,6.54,1.65,8.59,4.19,1,1.28,12.61-16.78,27-5.76a6.77,6.77,0,0,0,1.51.87c3.31,1.38,15.67,8.92-6.18,39.24a2,2,0,0,0-.39,1.23c.09,2.8.13,13.88-4.16,20.64a2,2,0,0,0-.27.64,63.27,63.27,0,0,1-14.79,28,53.48,53.48,0,0,1-21,14.16c-12.34,4.53-24.08,5-35.69.06a95.12,95.12,0,0,1-17.48-9.69c-13.17-9.3-23.82-23.36-22-41.13a49.47,49.47,0,0,1,2.9-12.09,2,2,0,0,0,.12-.57c.1-1.73.88-11.12,6.25-17.45a2,2,0,0,0,.44-1.78c-1.33-5.2-6.48-29.3,10.16-37.22a2,2,0,0,0,.38-.24C768.85,119.87,778.26,113.5,790.81,132.58Z" transform="translate(-50.3 -63)"/><path class="cls-2" d="M811.43,164.8a33.79,33.79,0,0,0-6.42-1.94A24,24,0,0,0,792.3,164c-.82.33-1.79.4-2.64.69-9.8,3.31-15.19,12.68-16.12,22.67-.49,5.26-1.38,10.5-1.28,15.75.08,4,.41,8.39,2.8,11.61,2,2.68,3.4,5.8,5.39,8.52,2.4,3.28,5.31,6.44,9,8.22a12.23,12.23,0,0,0,3.74,1.15s17.06.92,24.65-7.48a49.4,49.4,0,0,0,12.92-10.57A25.72,25.72,0,0,0,834.5,209c1.15-2.42,1.37-5.07,2.1-7.6a63.07,63.07,0,0,0,1.61-6.2c.76-4.24.63-8.63-1.33-12.35-.41-.79-.87-1.56-1.32-2.32-2.85-4.86-5.54-10.08-11-12.2-2.24-.86-4.77-1-7.12-1.57A43.76,43.76,0,0,1,811.43,164.8Z" transform="translate(-50.3 -63)"/><path class="cls-5" d="M781.7,210s11.65,2,21.12-2.9c0,0,5.94,9.12,12,10.95" transform="translate(-50.3 -63)"/><path class="cls-6" d="M773.7,119.54h0a6.41,6.41,0,0,1,1.92.78q.84.42,1.65.9a29.67,29.67,0,0,1,4,2.75,21.33,21.33,0,0,1,3.8,4,14,14,0,0,1,2.37,5.19c0,.11,0,.21.06.32l.25,1.61s-23.27,8.82-29.82,22.62c0,0-8.4-28.26,9.44-36,.3-.13.59-.38.88-.54a13.4,13.4,0,0,1,2.51-1,14.55,14.55,0,0,1,1.52-.37A4.4,4.4,0,0,1,773.7,119.54Z" transform="translate(-50.3 -63)"/><path class="cls-6" d="M841.11,143s14.19-16.81,25-6.42c0,0,18.4,4.11-5.13,38.53C861,175.11,855.18,154.08,841.11,143Z" transform="translate(-50.3 -63)"/><path class="cls-7" d="M778.22,157.31c.4-2.88,2.46-10.27,12.9-6.57a1,1,0,0,1,.7,1.14c-.37,2-2.32,7-12.58,6.58A1,1,0,0,1,778.22,157.31Z" transform="translate(-50.3 -63)"/><path class="cls-8" d="M784.88,153.79c-1.22.74-2.62.58-3.13-.36s.05-2.31,1.27-3.06,2.62-.58,3.13.36S786.09,153,784.88,153.79Z" transform="translate(-50.3 -63)"/><path class="cls-9" d="M784.46,152.71c-.87.67-1.9.74-2.31.16s0-1.58.84-2.25,1.9-.74,2.31-.16S785.32,152,784.46,152.71Z" transform="translate(-50.3 -63)"/><path class="cls-7" d="M835.24,157.73c3,.78,11.1,3.68,7.9,12.18a1.17,1.17,0,0,1-1.75.4c-2.64-1.77-8.46-6.37-7.48-11.87A1,1,0,0,1,835.24,157.73Z" transform="translate(-50.3 -63)"/><path class="cls-10" d="M841.61,164.29a2.07,2.07,0,0,1-2.92-.64,2.27,2.27,0,0,1,.1-3.09,2.07,2.07,0,0,1,2.92.64A2.27,2.27,0,0,1,841.61,164.29Z" transform="translate(-50.3 -63)"/><path class="cls-11" d="M841.82,162.83a1.39,1.39,0,0,1-2,0,1.42,1.42,0,0,1-.43-1.93,1.39,1.39,0,0,1,2,0A1.42,1.42,0,0,1,841.82,162.83Z" transform="translate(-50.3 -63)"/><path class="cls-12" d="M786.82,184.52s-47-22.11-67.64-17.57" transform="translate(-50.3 -63)"/><path class="cls-13" d="M782.44,195.6s-40.2,7.72-69.16,39.08" transform="translate(-50.3 -63)"/><path class="cls-12" d="M784.39,191s-52-3.31-72,15.53" transform="translate(-50.3 -63)"/><path class="cls-13" d="M830,192.15s32.58-20.19,66-3.59" transform="translate(-50.3 -63)"/><path class="cls-14" d="M810.7,173.73s-26.59-10.05-22.49,11.57c0,0,6.45,14.18,16.63,16.05,0,0,18.32-1.7,19.48-6C824.31,195.38,843.1,178,810.7,173.73Z" transform="translate(-50.3 -63)"/><path class="cls-13" d="M826.92,200.23s14.18-4.33,56.32,22.22" transform="translate(-50.3 -63)"/><path class="cls-13" d="M823.86,208.36s47.64,30,41.46,56.06" transform="translate(-50.3 -63)"/><line class="cls-5" x1="757.06" y1="128.46" x2="752.51" y2="144.08"/><path class="cls-15" d="M799.61,177.25s11.67-7.44,20.09,5.52c0,0,2.15,8.74-12.34,8.69C807.36,191.46,792.05,185,799.61,177.25Z" transform="translate(-50.3 -63)"/><path class="cls-16" d="M804.46,184.16a1.22,1.22,0,0,1-1.49.76,1.12,1.12,0,0,1-.65-1.48,1.22,1.22,0,0,1,1.49-.76A1.12,1.12,0,0,1,804.46,184.16Z" transform="translate(-50.3 -63)"/><path class="cls-16" d="M815.26,186.28a1.22,1.22,0,0,1-1.49.76,1.12,1.12,0,0,1-.65-1.48,1.22,1.22,0,0,1,1.49-.76A1.12,1.12,0,0,1,815.26,186.28Z" transform="translate(-50.3 -63)"/><path class="cls-15" d="M793.55,209.93s5.85,8.23,14.83,3.84" transform="translate(-50.3 -63)"/><path class="cls-17" d="M796.56,209.82a42.82,42.82,0,0,0,5.42-1.71c.15-.06.41-.25.57-.15a2.84,2.84,0,0,1,.42.41l.51.5,1.39,1.35c1,.95,2,1.89,3,2.82.19.17-.06.43-.19.49-2.84,1.41-12,.05-12.44-3.34,0-.12,1-.31,1.12-.33Z" transform="translate(-50.3 -63)"/><path class="cls-18" d="M499.65,524.59c-11.89,1.44-61.65,6.8-91.83-.26l-.43-.11-.3-.09c-2.26-.67-5.5-.73-6.48,1.31-1.75,3.6-5.33,6.55-8.39,9.14a143.74,143.74,0,0,1-15,10.95,154.13,154.13,0,0,1-16.75,9.5c-4.25,2-8.87,4.19-13.64,4.8a19.85,19.85,0,0,1-2.7.12,6.48,6.48,0,0,1-6.41-3.83c-3-7.09-2.4-27.07,13.37-72.29a6.11,6.11,0,0,0-.53-5.15c-3.31-5.57-10.54-41.59-6.86-41.59l218.75,0c3.88,0,4.48,36.4.13,43.13a6.05,6.05,0,0,0-.72,5c4,13.49,18.58,65.57,8.68,69.93a6.4,6.4,0,0,0-1.57,1.09c-2.21,1.92-13,4.16-64.56-30.48A7.05,7.05,0,0,0,499.65,524.59Z" transform="translate(-50.3 -63)"/><path class="cls-19" d="M525.89,465.21s-33,31.14-41.38-14.81C484.51,450.39,517.36,426.17,525.89,465.21Z" transform="translate(-50.3 -63)"/><ellipse class="cls-20" cx="454.28" cy="394.88" rx="14.43" ry="11.69"/><path class="cls-14" d="M567.11,552s-31.12-5.26-52.33-30.46c0,0,32.85-34.1,42.58-32C557.36,489.58,576.9,548.58,567.11,552Z" transform="translate(-50.3 -63)"/><path class="cls-21" d="M395.44,521.48c1.91.89-28.55,31.91-50.52,35-1.11.16-2.35-.38-2.46-1.43-.7-6.46-1-33.67,12.73-65.63C355.18,489.45,365.74,487.35,395.44,521.48Z" transform="translate(-50.3 -63)"/><path class="cls-22" d="M473.56,512l.17.29c1.34,2.14,3.08,4.14,4.61,6.16,1.33,1.75,3.16,4.46,5.68,4.66,1.7.14,6.46-.8,4-3.38a78.43,78.43,0,0,0-10.53-9,1.75,1.75,0,0,1-.45-.42,1.38,1.38,0,0,1-.19-.67c-.2-2.58,1.79-4.37,4.21-5.09,1.58-.47,3.46-2.56,4.63-3.58,2.16-1.88,4.39-3.94,5.33-6.64a16.66,16.66,0,0,0,.55-2.2,27.22,27.22,0,0,0,.48-2.92,11.73,11.73,0,0,0-3.34-9.7s-1.91-2.63-3,1.47c-1.34,5.28.75,11.62-3.15,16.16-2.43,2.82-6.82,3-8.79,6.24A9,9,0,0,0,473.56,512Z" transform="translate(-50.3 -63)"/><path class="cls-23" d="M436.52,512l-.24.24c-1.83,1.79-4,3.34-6,5-1.72,1.41-4.18,3.63-6.68,3.26-1.68-.25-6.08-2.22-3-4.17A81.23,81.23,0,0,1,433,509.88a1.82,1.82,0,0,0,.54-.3,1.42,1.42,0,0,0,.35-.61c.84-2.46-.65-4.65-2.83-5.88-1.42-.81-2.73-3.26-3.61-4.51-1.63-2.3-3.29-4.81-3.53-7.64a16.51,16.51,0,0,1,0-2.26,27.15,27.15,0,0,1,.26-2.94,12.06,12.06,0,0,1,5.66-8.68s2.51-2.13,2.5,2.09c0,5.43-3.61,11.13-1,16.4,1.66,3.29,5.88,4.42,7,8A9,9,0,0,1,436.52,512Z" transform="translate(-50.3 -63)"/><path class="cls-23" d="M451.71,513.63c0,.19,0,.38-.05.56v.1a9,9,0,0,0,.14,1.7q.3,2.15.44,4.31a8.34,8.34,0,0,0,.13,2,4.56,4.56,0,0,0,1,1.38c1,1.16,2.52,1.6,3.8.49a6.6,6.6,0,0,0,1.64-2.39c.47-1.06,1-2.11,1.35-3.2a5.94,5.94,0,0,0,.19-3.78,13.49,13.49,0,0,0-.58-1.3,13.62,13.62,0,0,1-1-4.11c-.19-1.47-.47-2.93-.63-4.41a12.78,12.78,0,0,1-.13-3.34c.19-1.09.48-2.18.67-3.27.4-2.37.7-4.76.86-7.15a14.58,14.58,0,0,0-.29-4.9L457.78,481a9.1,9.1,0,0,0-.88-2.3,3,3,0,0,0-2.41-1.62,1.91,1.91,0,0,0-1.29.67,4.71,4.71,0,0,0-.74,1.24,16.29,16.29,0,0,0-1.68,6.29,41,41,0,0,0,.89,6.8q.25,1.66.5,3.32a21.9,21.9,0,0,1,.47,3.12l.46,3.07a4.87,4.87,0,0,1,.18,1.21l-.6,4.22-.48,3.39C452.07,511.48,451.83,512.56,451.71,513.63Z" transform="translate(-50.3 -63)"/><ellipse class="cls-24" cx="457.38" cy="401.7" rx="5.65" ry="4.53"/><path class="cls-19" d="M429.13,452.4s-10.21,43.07-43.3,8.56C385.83,461,399.81,423.82,429.13,452.4Z" transform="translate(-50.3 -63)"/><path class="cls-20" d="M392.82,459.61c-1.27-6.35,4-12.63,11.88-14s15.2,2.6,16.47,8.95-4,12.63-11.88,14S394.09,466,392.82,459.61Z" transform="translate(-50.3 -63)"/><path class="cls-24" d="M405.84,464.22c-.49-2.46,1.6-4.9,4.66-5.45s5.95,1,6.44,3.45-1.6,4.9-4.66,5.45S406.33,466.67,405.84,464.22Z" transform="translate(-50.3 -63)"/><path class="cls-6" d="M100.6,179.85c.23-.85-6.17-2.72-10.07-11.43a3.25,3.25,0,0,0-2-1.76c-5.59-1.73-26-10.45-37.53-47.52-.73-2.36,1.64-4.55,4.16-3.85A249.21,249.21,0,0,1,101.88,134a3.37,3.37,0,0,1,.38.23c1.85,1.29,17.33,12.19,22.48,19a3.46,3.46,0,0,0,3.79,1.12,11,11,0,0,1,2.2-.44,3.32,3.32,0,0,0,3-2.61c1-5.19,2-10.47,3.44-15.61s3.1-10.38,5.92-14.95a22.09,22.09,0,0,1,1.83-2.56c1-1.18,2.15-2.15,3.05-3.38,1.08-1.48,2.21-2.93,3.36-4.36,1.75-2.17,4-4.13,5.49-6.44.85-1.28,1.67-2.6,2.57-3.86a81.24,81.24,0,0,1,7.93-9.67c2.35-2.41,5.07-4.94,8.35-6.19a3.38,3.38,0,0,1,4.27,1.6c1.68,3.64,4.25,12.73,3.36,33.54,0,.07,0,.14,0,.21-.17,1.44-2.21,17.21-12.24,28.53a2.94,2.94,0,0,0-.74,2.35c.3,2.17.49,7-1.95,13.54a3,3,0,0,0,1.26,3.58c5,3.14,17.4,11.43,23.8,20.18,0,0,24.59,31.84-15.78,44.2a3.59,3.59,0,0,0-1.32.73c-3.12,2.74-20.42,16-61.31,13.67,0,0-28.21-2-27.28-30.13,0-.05,0-.1,0-.16,0-1.07-.26-15,12-30.61a2.89,2.89,0,0,0,.58-2.22A8.26,8.26,0,0,1,100.6,179.85Z" transform="translate(-50.3 -63)"/><path class="cls-25" d="M128,163.68a10,10,0,0,0-2.85,5,14.56,14.56,0,0,0,.06,3.11c.11,1.89.6,3.75.55,5.65-.05,1.73-.93,3.25-1.37,4.9a17.57,17.57,0,0,0-.36,4.57q0,5.69-.36,11.37c-.24,3.52-.82,7-.83,10.5.08,2.37.57,4.5-.51,6.76-.49,1-.95,2-1.34,3.1a28,28,0,0,0-1.84,8.9c-.23,8.09,4.61,14.46,12.41,17.74,0,0,1.63.71,1.72.7s30.93-1.51,42.57-13.64a4,4,0,0,0,.84-1.34c2.74-7,3.38-16.46-2.67-22.16a23.54,23.54,0,0,0-4.83-3.36c-2.24-1.25-3.42-2.88-5-4.75a25.68,25.68,0,0,0-5.7-5.34,16,16,0,0,1-4.51-5c-1.47-2.23-3-4.43-4.67-6.54a26.46,26.46,0,0,0-4.23-4.62c-1.59-1.25-3.5-2.31-4.72-3.92-1.41-1.85-1.79-4.2-3.08-6.11a24,24,0,0,0-5.7-6C130.31,162.32,129,162.74,128,163.68Z" transform="translate(-50.3 -63)"/><path class="cls-26" d="M151.65,214.46l-7.07,8.12,4.38-1.16-11.65-3.83c-5.51-1.82-7.88,6.87-2.39,8.68l11.65,3.83a4.41,4.41,0,0,0,4.38-1.16l7.07-8.12c3.79-4.35-2.55-10.74-6.36-6.36Z" transform="translate(-50.3 -63)"/><path class="cls-27" d="M147.76,225.77l3,9.71s-1.66,2.62-3.25,2.69" transform="translate(-50.3 -63)"/><path class="cls-27" d="M154.68,236.54s-1,.64-4-1.06" transform="translate(-50.3 -63)"/><path class="cls-28" d="M110.08,189.82c.49,1.93.09,3.68-.89,3.9s-2.18-1.16-2.67-3.09-.09-3.68.89-3.9S109.59,187.89,110.08,189.82Z" transform="translate(-50.3 -63)"/><path class="cls-28" d="M166,177c.49,1.93.09,3.68-.89,3.9s-2.18-1.16-2.67-3.09-.09-3.68.89-3.9S165.55,175.08,166,177Z" transform="translate(-50.3 -63)"/><path class="cls-29" d="M53.81,118.34c.32-.35,1.19,0,2.07.31l14.44,5.56c4.2,1.62,8.4,3.24,12.71,4.6,2.39.75,4.81,1.43,7.14,2.32a53.64,53.64,0,0,1,12.36,7,82.39,82.39,0,0,1,17.56,17.36,2.31,2.31,0,0,1,.56,1.16c.06.92-.94,1.57-1.81,2-6.46,3.44-13.28,7.52-15.82,14-.35.89-.78,2-1.79,2.17a2.75,2.75,0,0,1-2.2-.89,24.13,24.13,0,0,1-3.84-4.17,30.89,30.89,0,0,0-2-2.72,21.47,21.47,0,0,0-3.73-3,107.94,107.94,0,0,1-22.87-21.22A80.76,80.76,0,0,1,58.21,130a70,70,0,0,1-3.13-6.9c-.46-1.18-.89-2.36-1.27-3.57C53.62,118.87,53.64,118.52,53.81,118.34Z" transform="translate(-50.3 -63)"/><path class="cls-29" d="M138.92,149.75c1.19-9.36,5.64-32.62,21.07-43.13a2.82,2.82,0,0,0,1.13-1.58,29.37,29.37,0,0,1,13.4-16.78,3.14,3.14,0,0,1,4.73,1.94c2,9.58,3.71,35.29-10.39,54.1a2.76,2.76,0,0,0-.57,1.82c.14,2.31.32,8.17-.92,12.32a3.19,3.19,0,0,1-5,1.39c-3.83-3.15-11.36-8.06-20-6.95A2.93,2.93,0,0,1,138.92,149.75Z" transform="translate(-50.3 -63)"/><path class="cls-6" d="M52.91,116s55,27.77,51.92,58.28c0,0,3.79-8.71,20.17-17.17,0,0-14.79-18.36-26.79-23.91C98.2,133.16,63.62,115.52,52.91,116Z" transform="translate(-50.3 -63)"/><path class="cls-6" d="M137.65,154.41l-.16-.1c-2.38-1.58.24-9.72.74-11.93a76.13,76.13,0,0,1,10-23.82q1.79-2.82,3.83-5.46c.79-1,3.88-3.57,4-4.76-1.56,13.8-3.12,27.71-1.83,41.62.23,2.49.87,5.41,3.15,6.45l-17.79-1.57A4.78,4.78,0,0,1,137.65,154.41Z" transform="translate(-50.3 -63)"/><path class="cls-6" d="M160.2,105.9,146.87,117.1l5,5.46S153.76,111.75,160.2,105.9Z" transform="translate(-50.3 -63)"/><path class="cls-30" d="M823.18,435.55c-12,1.54-24.15.35-36.23.33-13.22,0-26.16,2.65-39.35,3.23-1.67.07-3.35.13-5,.18-16.56.95-33.29-1.61-50-1.61-39.06-.67-78.34-1.78-117.49-2.25l-5.59-.06c-22-.23-43.89,2.35-65.86,2.8-21.39.44-41.74-2.52-63.35-.63-40.81,3.56-81.19.82-122-1.3-32-1.66-63.6.14-95.39,3.88a133.53,133.53,0,0,1-32,.11c-18.57-2.28-33.28-6.53-52.24-3.86s-38.71,7.28-57.35.16c-23.22-8.86-28.52-30.36-25.3-53.74,3.07-22.27,9.57-44,6.59-66.7-3.35-25.53-24.26-80.77,13.3-89.87,43.55-10.55,88.55-8.16,132.89-7.2,44.07,1,87.71-1.21,131.81.51q2.91.11,5.81.19c31.72-1.79,63.52-1.1,95.49.3l5.64.26c17.24,1.81,34.46-3.3,52.17-1.77a468.31,468.31,0,0,0,49.93,1.86l5.54-.05c14.65-.41,29.27-.6,43.87-.66l4.87,0c3,0,5.94-.15,8.91-.3,1.48-.08,2.92-.16,4.12-.25q78.74.65,157.77-3.15c13-.63,26,.79,39.06,1.17,10.37.3,22.41-.61,30.28,7.88,3.78,4.07,5.7,9.7,6.33,15.32,1.62,14.33-.39,29.66.46,44.2.91,15.56,2,31.34-1.18,46.71-3.24,15.58-7.77,31.13-8.27,47.17-.46,14.57,11.21,34.89,1.65,48.12-3.78,5.23-10.29,7.43-16.5,8.51Q824.87,435.33,823.18,435.55Z" transform="translate(-50.3 -63)"/><path class="cls-20" d="M177.24,283.51a1.16,1.16,0,0,1-1,.67A59,59,0,0,1,155.54,311c8.68,5.68,19.23,9.6,31.28,11.52a16.88,16.88,0,0,0-2.32,3.76c-12.57-2.25-23.5-6.51-32.4-12.94-9.58,6.18-20.73,10.1-32.4,12.61a16.18,16.18,0,0,0-2.1-3.76c11.22-2.17,22-5.76,31.2-11.27a61.39,61.39,0,0,1-17.58-23.54l3.29-1.42H123.66v-4h26.56v-15h-30.6v-4.09h30.6v-14l5,.42c-.07.5-.45.92-1.35,1v12.61h31v4.09h-31v15h19.83l.75-.17Zm-42.73,2.42a55.52,55.52,0,0,0,17.73,22.71,52.94,52.94,0,0,0,19.16-22.71Z" transform="translate(-50.3 -63)"/><path class="cls-20" d="M217.12,286.18l.6,3.51-9.43,3.92v26.88c0,5-1.87,5.59-11.67,5.43a18.06,18.06,0,0,0-1.27-3.84c2.17.08,4.19.17,5.69.17,3.29,0,3.67,0,3.67-1.67V295.11c-3.89,1.59-7.41,2.92-10.18,4a1.36,1.36,0,0,1-.82,1.34l-1.8-4.93c3.52-1.17,7.93-2.84,12.8-4.67V270.07h-12v-3.92h12V248.78l4.86.42c-.07.58-.37.92-1.27,1v15.94h9.05v3.92h-9.05v19.45Zm44.37-4.76h-10.1c-.08.5-.45.92-1.35,1v10.52h10.4v3.92H250v23.79c0,2.67-.52,3.92-2.39,4.67s-5.24.67-10.63.67a16,16,0,0,0-1.27-3.92c1.87.08,3.67.08,5.09.08,5.61,0,5.61,0,5.61-1.5V296.86H218.32v-3.92h28.13V281.42H216.6v-3.84h20.28V264.14H221.39V260.3h15.49V248.78l4.94.33c-.08.58-.45.92-1.35,1V260.3h16.09v3.84H240.47v13.44h21Zm-28.81,35.81A73.36,73.36,0,0,0,223,302.62l2.84-2a76.49,76.49,0,0,1,9.8,14.27Z" transform="translate(-50.3 -63)"/><path class="cls-20" d="M284.84,250.78c5.16,4.93,11,11.6,13.77,16l-2.24,3.09A103.12,103.12,0,0,0,283.27,254a79.12,79.12,0,0,1-15,21.29,11.17,11.17,0,0,0-2.32-3,66.45,66.45,0,0,0,15.56-23.54l4.71.84a1.25,1.25,0,0,1-1.35.92Zm10.1,33v26c0,4.42-1.5,4.93-10.55,4.93a11.37,11.37,0,0,0-1.12-3.76c1.87,0,3.44.08,4.64.08,3.52,0,3.67-.08,3.67-1.25V287.51H280.5v38.4h-3.37v-38.4h-9v-3.76ZM274.14,274v-3.76h18.63V274Zm38.24,40.9c-.22.33-.67.5-1.42.58-3.37,3.84-10.33,8.35-16.46,10.94a18,18,0,0,0-2.54-2.92c6.21-2.5,13.24-6.76,16.46-10.69Zm-11.45-48.5H312.6c.67-2.84,1.5-6.43,2-9.43H297.71v-3.76h38.83V257h-18c-.52,2.67-1.42,6.34-2.24,9.43h17.21V310.3H300.93Zm29,13.44V269.9H304.37v9.93Zm0,13.44v-10.1H304.37v10.1Zm0,13.52V296.7H304.37v10.1Zm4.71,19.45c-2.92-3.17-8.9-7.85-13.77-11l2.84-2.17a79.42,79.42,0,0,1,13.92,10.69Z" transform="translate(-50.3 -63)"/><path class="cls-20" d="M395.28,309.72H378.37a37.6,37.6,0,0,0,9.2,6.43A108.38,108.38,0,0,0,401.34,309l3.37,2.59c-.15.42-.37.42-1.27.42A113.71,113.71,0,0,1,391,317.73a77.37,77.37,0,0,0,19.3,4.84,15.17,15.17,0,0,0-2,3.51,73.34,73.34,0,0,1-22.15-6.93c0,.5,0,1.25-.07,2.84-12.8,1.17-26.56,2.17-34.94,2.75a1.2,1.2,0,0,1-.9,1.09l-1.57-4.76,9.43-.5V291.1a70.87,70.87,0,0,1-14,9.18,29,29,0,0,0-2.47-2.92c7.71-3.51,16-9.35,21.33-16.45H342.9v-3.51h31.8v-6.09H352.26V268h22.45v-6H347.77v-3.51h15.64a53.72,53.72,0,0,0-5.24-8.26l3.14-1.42a39.43,39.43,0,0,1,6.14,9.52l-.3.17h18.71a77.91,77.91,0,0,0,5.39-9.85l4.41,1.92a1.33,1.33,0,0,1-1.35.67c-1.12,2-2.92,4.93-4.56,7.26h15.79V262H378.37v6H401v3.34h-22.6v6.09h32.1v3.51H390.42a45.88,45.88,0,0,0,21.18,15,16,16,0,0,0-2.39,3.17,48.91,48.91,0,0,1-13.92-8.35Zm-2.1-20.87a42.47,42.47,0,0,1-6.66-7.93H367.45a49.93,49.93,0,0,1-6.81,7.93h14.14v-5.68l4.86.42c-.07.5-.45.84-1.35,1v4.26ZM361.69,292v5.68h29.93V292Zm0,14.44h29.93V300.7H361.69Zm0,3.26v10.6c7.33-.42,15.71-.92,23.87-1.5a36.78,36.78,0,0,1-11.3-9.1Z" transform="translate(-50.3 -63)"/><path class="cls-20" d="M437,327a134.1,134.1,0,0,0,2.84-16.53l6.66-1.17c-1.35,5.93-4.34,14.61-5.69,17Z" transform="translate(-50.3 -63)"/><path class="cls-20" d="M481.11,297.78c-.15.58-.6.84-1.42.84-1.2,7.18-3.14,15.19-5.61,20a23.15,23.15,0,0,0-2.77-1.59c2.32-4.76,4.19-12.77,5.39-20.54Zm12-21.37a75.86,75.86,0,0,1,7.78,17.2l-3.07,1.59a51.59,51.59,0,0,0-1.72-5.34c-2.54.17-5,.33-7.41.42v36h-3.37V290.44c-4.27.25-8.23.33-11.22.5a1.28,1.28,0,0,1-1,1L472,287h4.56c1.95-2.59,4-5.76,6.14-9.1a74.71,74.71,0,0,0-10.48-12.61l2-2.5c.82.75,1.65,1.59,2.47,2.42a134.67,134.67,0,0,0,7.63-16.45l4.19,2.09c-.22.42-.67.58-1.42.58a135,135,0,0,1-8.23,16.11,58.15,58.15,0,0,1,5.76,7.18,178.23,178.23,0,0,0,8.9-16.53l4.19,2.25a1.77,1.77,0,0,1-1.5.58,238.29,238.29,0,0,1-16,25.88c4.49,0,9.5-.17,14.59-.25a85.89,85.89,0,0,0-4.49-8.93Zm2.77,19.87a75.18,75.18,0,0,1,5.31,16.53c-.37.17-.82.33-3.14,1.17a75,75,0,0,0-5.09-16.7Zm11.82,20.37c0,3.42,1,4.26,6,4.26H533c4.27,0,4.94-2,5.46-11.69a9.53,9.53,0,0,0,3.29,1.67c-.6,10.77-1.87,13.77-8.76,13.77H513.81c-7.33,0-9.5-1.5-9.5-8.1v-38a35,35,0,0,1-4.71,3.59,13.43,13.43,0,0,0-2.17-2.92c8-4.76,13.39-13.27,15.56-22h-12.8v-3.67h32.62l.75-.17,2,.58-.22,1.34c-.9,11.19-1.72,15.53-3.22,17.28a5.11,5.11,0,0,1-3.74,1.5c-1.42,0-4.34,0-7.18-.17a9.68,9.68,0,0,0-.9-3.59,63.89,63.89,0,0,0,6.88.33c1.12,0,1.65-.08,2.17-.58,1-1.08,1.72-4.51,2.39-12.86h-15a44.42,44.42,0,0,1-9.5,18.37h31.13v26.88h-3.44V299H507.75Zm11.67-37.23H507.75v15.86h11.67Zm15.49,15.86V279.42h-12.2v15.86Z" transform="translate(-50.3 -63)"/><path class="cls-20" d="M589.83,259l.75.33a1.61,1.61,0,0,1-1.72.67,95.08,95.08,0,0,1-5.76,10.43l1.72.58c-.15.5-.52.84-1.42.92v54.09h-3.67v-50.5c-8,11.35-18.41,22.12-30,29.72a19.85,19.85,0,0,0-2.47-3.34c16-10,30-26.55,37.71-42.91H549.13V255h65.1V259Zm23.35,45.24c-5.61-6.18-17.06-15.61-26.49-22l2.54-2.75c9.35,6.18,21,15.28,26.64,21.45Z" transform="translate(-50.3 -63)"/><path class="cls-20" d="M690.25,305.71H662.64c6.88,6.93,18.41,12.61,28.73,15.28a11.38,11.38,0,0,0-2.39,3.34c-11-3.26-23.72-10.27-30.68-18.62h-.15v20.2h-3.67v-20.2h-.22c-7,8.35-19.83,15.53-30.16,19.12a16.57,16.57,0,0,0-2.39-3.34c9.73-2.84,21.18-8.85,28.13-15.78h-27v-3.59h31.65v-6.26H635V284.59h-12.2v-3.51H635v-5.93l4.79.42c-.08.5-.45.83-1.27.92v4.59h15.94v-6.51l4.86.33c-.07.5-.45.92-1.27,1v5.18h16.39v-5.93l4.86.42c-.07.5-.45.83-1.27.92v4.59h12.2v3.51h-12.2v11.27H659.42c-.15.42-.45.75-1.27.84v5.43h32.1Zm-64.5-36.65,12-.08a103.08,103.08,0,0,0,7.18-9.1H622.83v-3.59h31.73v-7.51l4.94.42c-.07.5-.45.84-1.27.92v6.18h32v3.59H650.59a1.81,1.81,0,0,1-1,.25c-1.95,2.5-4.79,5.93-7.48,8.77,10.1-.08,21.92-.25,33.45-.5a93.88,93.88,0,0,0-10.4-5.34l2.39-2.42a95.69,95.69,0,0,1,20.73,12.1l-2.39,2.67a68.66,68.66,0,0,0-5.69-4.17c-18.86.75-39.13,1.34-51.78,1.5a1.18,1.18,0,0,1-1,1.08Zm12.8,15.53v7.76h15.94v-7.76Zm35.92,0H658.07v7.76h16.39Z" transform="translate(-50.3 -63)"/><path class="cls-20" d="M750,309.72H733.05a37.6,37.6,0,0,0,9.2,6.43A108.38,108.38,0,0,0,756,309l3.37,2.59c-.15.42-.37.42-1.27.42a113.71,113.71,0,0,1-12.42,5.76,77.37,77.37,0,0,0,19.3,4.84,15.17,15.17,0,0,0-2,3.51,73.34,73.34,0,0,1-22.15-6.93c0,.5,0,1.25-.07,2.84-12.8,1.17-26.56,2.17-34.94,2.75a1.2,1.2,0,0,1-.9,1.09l-1.57-4.76,9.43-.5V291.1a70.87,70.87,0,0,1-14,9.18,29.1,29.1,0,0,0-2.47-2.92c7.71-3.51,16-9.35,21.33-16.45H697.58v-3.51h31.8v-6.09H706.94V268h22.45v-6H702.45v-3.51h15.64a53.72,53.72,0,0,0-5.24-8.26l3.14-1.42a39.43,39.43,0,0,1,6.14,9.52l-.3.17h18.71a77.91,77.91,0,0,0,5.39-9.85l4.41,1.92a1.34,1.34,0,0,1-1.35.67c-1.12,2-2.92,4.93-4.56,7.26h15.79V262H733.05v6h22.6v3.34h-22.6v6.09h32.1v3.51H745.1a45.88,45.88,0,0,0,21.18,15,16,16,0,0,0-2.39,3.17A48.91,48.91,0,0,1,750,290.77Zm-2.1-20.87a42.47,42.47,0,0,1-6.66-7.93H722.13a50,50,0,0,1-6.81,7.93h14.14v-5.68l4.86.42c-.07.5-.45.84-1.35,1v4.26ZM716.36,292v5.68H746.3V292Zm0,14.44H746.3V300.7H716.36Zm0,3.26v10.6c7.33-.42,15.71-.92,23.87-1.5a36.78,36.78,0,0,1-11.3-9.1Z" transform="translate(-50.3 -63)"/><path class="cls-20" d="M809,314.23c0,6.43-4.71,11.69-10.48,11.69S788,320.66,788,314.23s4.71-11.69,10.48-11.69S809,308,809,314.23Zm-2.54,0c0-4.93-3.52-8.85-7.93-8.85s-8,3.92-8,8.85,3.52,8.93,8,8.93S806.46,319.07,806.46,314.23Z" transform="translate(-50.3 -63)"/><path d="M129.55,354.52h6l14.54,40.62h-5.72l-4.09-12.4H124.64l-4.15,12.4H115ZM126,378.65h13l-2-6.2c-1.58-4.59-2.92-9-4.32-13.72h-.23c-1.34,4.76-2.75,9.13-4.26,13.72Z" transform="translate(-50.3 -63)"/><path d="M156.12,354.52h10.75c13.14,0,20.21,7.3,20.21,20.2s-7.07,20.42-20,20.42h-11Zm10.28,36.41c10.1,0,15.07-6,15.07-16.21s-5-16-15.07-16h-4.85v32.21Z" transform="translate(-50.3 -63)"/><path d="M193.79,374.72c0-13,7.53-20.92,18.28-20.92s18.28,7.91,18.28,20.92-7.53,21.14-18.28,21.14S193.79,387.73,193.79,374.72Zm31,0c0-10.18-5.08-16.44-12.73-16.44s-12.73,6.25-12.73,16.44,5,16.66,12.73,16.66S224.81,384.85,224.81,374.72Z" transform="translate(-50.3 -63)"/><path d="M239.59,354.52h12.27c9.58,0,16,3.1,16,12,0,8.58-6.37,12.56-15.77,12.56H245v16.1h-5.43Zm11.8,20.36c7.53,0,11.1-2.6,11.1-8.41s-3.8-7.75-11.33-7.75H245v16.16Z" transform="translate(-50.3 -63)"/><path d="M283.86,358.89h-13v-4.37h31.37v4.37h-13v36.25h-5.43Z" transform="translate(-50.3 -63)"/><path d="M300.22,402.67c3.68-1.55,5.84-4.26,5.84-7.53a2.52,2.52,0,0,1-.64.06c-2,0-3.91-1.22-3.91-3.54,0-2.16,1.87-3.54,4-3.54,2.8,0,4.5,2.27,4.5,6,0,5.31-3.27,9.46-8.53,11.57Z" transform="translate(-50.3 -63)"/><path d="M319.2,354.52h10.75c13.14,0,20.21,7.3,20.21,20.2s-7.07,20.42-20,20.42h-11Zm10.28,36.41c10.1,0,15.07-6,15.07-16.21s-5-16-15.07-16h-4.85v32.21Z" transform="translate(-50.3 -63)"/><path d="M356.87,374.72c0-13,7.53-20.92,18.28-20.92s18.28,7.91,18.28,20.92-7.53,21.14-18.28,21.14S356.87,387.73,356.87,374.72Zm31,0c0-10.18-5.08-16.44-12.73-16.44s-12.73,6.25-12.73,16.44,5,16.66,12.73,16.66S387.89,384.85,387.89,374.72Z" transform="translate(-50.3 -63)"/><path d="M402.66,354.52h5.61l15.59,25.62,4.56,8.36h.29c-.29-4.09-.7-8.63-.7-12.84V354.52h5.14v40.62h-5.55L412,369.52l-4.61-8.36h-.23c.23,4.1.64,8.41.64,12.67v21.31h-5.14Z" transform="translate(-50.3 -63)"/><path d="M444.37,358.17l-.12-5.7h5.61l-.12,5.7-1.05,10.24h-3.27Z" transform="translate(-50.3 -63)"/><path d="M470,358.89H457v-4.37h31.37v4.37h-13v36.25H470Z" transform="translate(-50.3 -63)"/><path d="M518,354.52h6l14.54,40.62h-5.72l-4.09-12.4H513.12L509,395.14h-5.49Zm-3.56,24.13h13l-2-6.2c-1.58-4.59-2.92-9-4.32-13.72h-.23c-1.34,4.76-2.75,9.13-4.26,13.72Z" transform="translate(-50.3 -63)"/><path d="M544.6,354.52h12.73c8.7,0,14.72,2.82,14.72,10a8.88,8.88,0,0,1-6.25,8.8v.28c5.08.94,8.7,4.15,8.7,9.68,0,8-6.66,11.9-16.24,11.9H544.6Zm11.8,17.32c7.36,0,10.34-2.6,10.34-6.7,0-4.76-3.45-6.53-10.1-6.53H550v13.23Zm1.11,19.2c7.36,0,11.68-2.49,11.68-8,0-5-4.21-7.36-11.68-7.36H550V391Z" transform="translate(-50.3 -63)"/><path d="M591.85,354.52h6l14.54,40.62h-5.72l-4.09-12.4H586.94l-4.15,12.4h-5.49Zm-3.56,24.13h13l-2-6.2c-1.58-4.59-2.92-9-4.32-13.72h-.23c-1.34,4.76-2.75,9.13-4.26,13.72Z" transform="translate(-50.3 -63)"/><path d="M618.43,354.52H624l15.59,25.62,4.56,8.36h.29c-.29-4.09-.7-8.63-.7-12.84V354.52h5.14v40.62h-5.55l-15.59-25.62-4.61-8.36h-.23c.23,4.1.64,8.41.64,12.67v21.31h-5.14Z" transform="translate(-50.3 -63)"/><path d="M660.6,354.52h10.75c13.14,0,20.21,7.3,20.21,20.2s-7.07,20.42-20,20.42h-11Zm10.28,36.41c10.1,0,15.07-6,15.07-16.21s-5-16-15.07-16H666v32.21Z" transform="translate(-50.3 -63)"/><path d="M698.27,374.72c0-13,7.53-20.92,18.28-20.92s18.28,7.91,18.28,20.92-7.53,21.14-18.28,21.14S698.27,387.73,698.27,374.72Zm31,0c0-10.18-5.08-16.44-12.73-16.44s-12.73,6.25-12.73,16.44,5,16.66,12.73,16.66S729.29,384.85,729.29,374.72Z" transform="translate(-50.3 -63)"/><path d="M744.06,354.52h5.61l15.59,25.62,4.56,8.36h.29c-.29-4.09-.7-8.63-.7-12.84V354.52h5.14v40.62H769l-15.59-25.62-4.61-8.36h-.23c.23,4.1.64,8.41.64,12.67v21.31h-5.14Z" transform="translate(-50.3 -63)"/><ellipse class="cls-31" cx="432.65" cy="81.12" rx="70" ry="53.2"/><path class="cls-31" d="M592.92,122.15c-.25.08-.56-.06-.92-.36A6.66,6.66,0,0,1,592.92,122.15Z" transform="translate(-50.3 -63)"/><path class="cls-31" d="M490.86,215.4c10.44-1.11,23.78-4.11,25.9-12.13,0,0,29.13-24.16,30.2-33.83,0,0,9.95-28,0-35.9,0,0,3.55-13.11,12.08-17.26Z" transform="translate(-50.3 -63)"/><path class="cls-31" d="M408,122.2c-.59.35-2.39,8.58-2.39,8.58s-.09.35-.22,1c-1.19,5.62-6.28,33.58,8.39,43.19a57.54,57.54,0,0,0,21.67,20S455.31,218.46,478,216c0,0,1.92,0,4.92-.08Z" transform="translate(-50.3 -63)"/><path class="cls-31" d="M450,81.24s-5,16.11-9.76,21c0,0-.93,1-1.75,1.8l.17-.52c.25-.77.49-1.56.72-2.37a77.28,77.28,0,0,0,2-9.38s-5.33-21.4-1.07-21.74C440.38,70,456.66,66.82,450,81.24Z" transform="translate(-50.3 -63)"/><path class="cls-31" d="M437.42,104.92a3.69,3.69,0,0,0,1.12-.86c-7.43,22.42-22.67,28.8-22.67,28.8-3.55.52-32.33-25.89-32.33-25.89-10.3-16.22,1.78-28,1.78-28,4.26-5.18,53.29-14.84,53.29-14.84,25.58-6.56,16.7,16.57,16.7,16.57,1.42,0,43.34-4.49,48,2.07,0,0,7.4-19.67,47.4-7.59,0,0,35.37,3.45,50.3,47.29,0,0,1.78,9.67-9.24,1.73,0,0-23.8,5.52-32.68-7.94,0,0-6.89,10.16-7.23,18.31Z" transform="translate(-50.3 -63)"/><path class="cls-31" d="M481.24,199.07s-10.88-1.38-12.3-4.83c0,0-15.87-13.35,7.58-19.79,0,0,22-2.23,22.26,8.78C498.79,183.22,501.59,197.69,481.24,199.07Z" transform="translate(-50.3 -63)"/><path class="cls-2" d="M505.59,166.22A107.18,107.18,0,0,0,499,151.86c-6.09-11-13.92-23.55-8.68-36.29,2.25-5.45,5.08-11.24,3.15-17.28-1.43-4.5-6.85-9.5-12.14-9.22-12,3.07-11.37,13.93-9.26,23.61,2.16,9.91,7.53,21.61.61,30.81-2.67,3.54-6.27,6.3-9.55,9.32-9.2,8.45-9.46,19.51-12.78,30.7-3.08,10.38-1.13,20.75,8.43,27.3A66.85,66.85,0,0,0,483,216c2.17-.08,4.91-.25,7.88-.56h0c8.35-1.31,18.92-5.16,21.17-14,1.84-7.25-.47-15.37-2.37-22.39C508.47,174.59,507.15,170.35,505.59,166.22Zm-24.35,32.85s-10.88-1.38-12.3-4.83c0,0-15.87-13.35,7.58-19.79,0,0,22-2.23,22.26,8.78C498.79,183.22,501.59,197.69,481.24,199.07Z" transform="translate(-50.3 -63)"/><path class="cls-20" d="M481.24,199.07s-10.88-1.38-12.3-4.83c0,0-15.87-13.35,7.58-19.79,0,0,22-2.23,22.26,8.78C498.79,183.22,501.59,197.69,481.24,199.07Z" transform="translate(-50.3 -63)"/><path class="cls-31" d="M455.43,108.37c-.62.27-1.23.59-1.77.78-2.52.88-5.27,1.75-7.42,3.35-1.58,1.18-2.91,2.81-4.86,3.44-2.14.69-4.17.29-6.11,1.73a7.07,7.07,0,0,0-2.74,4.44c-.61,3.65,8.6.73,10.35-.11,2.74-1.32,4.85-3.54,7.52-5s6.2-1.18,8-3.58a5,5,0,0,0,.94-2.5,2.74,2.74,0,0,0-1.12-2.82A3.26,3.26,0,0,0,455.43,108.37Z" transform="translate(-50.3 -63)"/><path class="cls-31" d="M501.24,111.09a14.7,14.7,0,0,0,1.67,4.55c1.3,2.43,4.51,3.22,7.11,3.39,2.32.16,4.7,0,6.89.79s4.13,2.5,6.33,3.51a5,5,0,0,0,2.36.56,2.31,2.31,0,0,0,2-1.2,2.63,2.63,0,0,0,.1-1.59c-.58-3-3.62-4.85-6.42-5.77-2-.66-4.09-.94-6-1.74a36.71,36.71,0,0,1-4.12-2.27,22.69,22.69,0,0,0-7.14-2.65C501.61,108.27,501,109.48,501.24,111.09Z" transform="translate(-50.3 -63)"/><path class="cls-31" d="M446.58,123.71c-.84.4-1.62.91-2.48,1.28a7.53,7.53,0,0,1-2.6.56,13.73,13.73,0,0,0-2.2.08,20.43,20.43,0,0,0-2.23.8,2.22,2.22,0,0,0-1.16.76c-.15.22-.39.85-.1,1.06a.44.44,0,0,0,.21.07,5.87,5.87,0,0,0,2.88-.81,27.84,27.84,0,0,1,4.22-1c1.27-.28,2.61-.49,3.86-.86a2.61,2.61,0,0,0,1.37-.9c.19-.24.87-1,.51-1.34C448.21,122.89,447.2,123.41,446.58,123.71Z" transform="translate(-50.3 -63)"/><path class="cls-31" d="M513.34,123.84c.85.37,1.66.85,2.52,1.19a7.54,7.54,0,0,0,2.62.46,13.73,13.73,0,0,1,2.21,0,20.47,20.47,0,0,1,2.26.71,2.23,2.23,0,0,1,1.19.72c.15.21.42.84.14,1.06a.44.44,0,0,1-.2.07,5.88,5.88,0,0,1-2.91-.7,27.87,27.87,0,0,0-4.25-.82c-1.28-.24-2.63-.39-3.89-.71a2.62,2.62,0,0,1-1.4-.85c-.2-.24-.91-1-.57-1.32C511.67,123.08,512.71,123.57,513.34,123.84Z" transform="translate(-50.3 -63)"/><path class="cls-15" d="M593.63,121.85a29,29,0,0,0-4.77-1s-20.37,3.52-25.26-4.53a8.76,8.76,0,0,0-7.11-1.3s-25.33,18.41-44.16-29.15c-.47-1.19,5.48-9.82,18.74-6,0,0,22.29-2.46,28,.92,0,0,12.94,1.53,24.15,21.63C583.18,102.41,590.36,119.11,593.63,121.85Z" transform="translate(-50.3 -63)"/><path class="cls-32" d="M458,136.83c-.29,4.2-4.58,7.24-9.58,6.77s-8.82-4.25-8.53-8.45,4.58-7.24,9.58-6.77S458.3,132.62,458,136.83Z" transform="translate(-50.3 -63)"/><path class="cls-33" d="M455.75,136.52c-.22,3.18-3.46,5.47-7.23,5.12s-6.66-3.21-6.44-6.39,3.46-5.47,7.23-5.12S456,133.35,455.75,136.52Z" transform="translate(-50.3 -63)"/><path class="cls-34" d="M452.79,135.38c-.17,2.51-2,4.39-4.09,4.2s-3.63-2.39-3.46-4.9,2-4.39,4.09-4.2S453,132.87,452.79,135.38Z" transform="translate(-50.3 -63)"/><path class="cls-35" d="M446.88,132.47a1.21,1.21,0,0,1,1.27-1.2,1.33,1.33,0,0,1,1,1.52,1.21,1.21,0,0,1-1.27,1.2A1.33,1.33,0,0,1,446.88,132.47Z" transform="translate(-50.3 -63)"/><path class="cls-32" d="M523.87,136.83c-.29,4.2-4.58,7.24-9.58,6.77s-8.82-4.25-8.53-8.45,4.58-7.24,9.58-6.77S524.16,132.62,523.87,136.83Z" transform="translate(-50.3 -63)"/><path class="cls-33" d="M521.62,136.52c-.22,3.18-3.46,5.47-7.23,5.12s-6.66-3.21-6.44-6.39,3.46-5.47,7.23-5.12S521.84,133.35,521.62,136.52Z" transform="translate(-50.3 -63)"/><path class="cls-34" d="M518.66,135.38c-.17,2.51-2,4.39-4.09,4.2s-3.63-2.39-3.46-4.9,2-4.39,4.09-4.2S518.83,132.87,518.66,135.38Z" transform="translate(-50.3 -63)"/><path class="cls-35" d="M512.74,132.47a1.21,1.21,0,0,1,1.27-1.2,1.33,1.33,0,0,1,1,1.52,1.21,1.21,0,0,1-1.27,1.2A1.33,1.33,0,0,1,512.74,132.47Z" transform="translate(-50.3 -63)"/></svg>