<svg id="圖層_1" data-name="圖層 1" xmlns="http://www.w3.org/2000/svg" viewBox="0 0 556.38 452.35"><defs><style>.cls-1{fill:#e6e6e6;}</style></defs><title>txt_box</title><path class="cls-1" d="M578,332c-.5,35.2-4.79,72.41-19.23,102.52s-43.84,49.66-71.21,66.8c-32,20.07-64,39.6-101.16,48.74-83.08,20.42-166.61-7-246.36-28.31-18.74-5-37.58-12-51.71-25.31C78.85,487.5,72,476.2,65.64,464.81,46.27,429.95,25.37,389.6,22.22,349.29c-3.2-40.91,8.26-81.87,25.5-118.63C89.51,141.55,200.52,107.3,291.81,105a390.36,390.36,0,0,1,129,18.49c39.82,12.79,83,31.37,114.09,60,31.66,29.15,41,73.88,42.64,115.18C577.93,309.34,578.17,320.56,578,332Z" transform="translate(-21.68 -104.87)"/></svg>