<?xml version="1.0" encoding="utf-8"?>
<!-- Generator: Adobe Illustrator 21.1.0, SVG Export Plug-In . SVG Version: 6.00 Build 0)  -->
<svg version="1.1" xmlns="http://www.w3.org/2000/svg" xmlns:xlink="http://www.w3.org/1999/xlink" x="0px" y="0px"
	 viewBox="0 0 1920 1080" style="enable-background:new 0 0 1920 1080;" xml:space="preserve">
<style type="text/css">
	.st0{fill:#FFFFFF;stroke:#000000;stroke-miterlimit:10;}
</style>
<g id="STEP4">
</g>
<g id="STEP3">
</g>
<g id="STEP2">
</g>
<g id="STEP1">
</g>
<g id="步驟線_1_">
	<path class="st0" d="M691.1,54.5c-32.8,16.4-109,58.5-92.5,99.3c7.5,18.6,31.2,29.4,106.2,60.4c29.8,12.3,62.4,17.2,90.7,33.3
		c37,21.1,42.3,60.6,12.6,92.6c-19,20.5-45.8,32-72.4,40.7c-55.8,18.3-114,27.2-171.9,36c-50.7,7.7-116.8,5.1-152.3,49.2
		c-8.1,10-13.3,22.7-12.6,35.5c1,17.6,13.3,33.1,28.3,42.5c29.1,18.4,70.2,26,103.8,30.6c38.2,5.2,76.9,5.7,115.4,5.1
		c52.1-0.8,104.1-5.1,156.2-3.3c59.5,2,179.8,14,179.2,97.4c-0.2,20.9-11.5,40.6-26.8,55c-55.4,52.3-145.5,60.1-217.5,52.7
		c-32.2-3.3-62.4-15.7-94.1-21.4c-47.8-8.6-106.8-6.1-148.5,21.2c-17,11.1-31.8,28.6-32.2,48.8c-1.2,67.3,102.3,74.1,148.1,79.7
		c38.8,4.7,78,8.8,115.4,20.8c17.8,5.7,41.2,17.6,40.4,39.4c-0.3,8.3-3.7,16.2-8.2,23.2c-15.4,23.9-42.3,37.4-68.1,49.5"/>
</g>
</svg>
