<?xml version="1.0" encoding="utf-8"?>
<!-- Generator: Adobe Illustrator 21.1.0, SVG Export Plug-In . SVG Version: 6.00 Build 0)  -->
<svg version="1.1" id="圖層_1" xmlns="http://www.w3.org/2000/svg" xmlns:xlink="http://www.w3.org/1999/xlink" x="0px" y="0px"
	 viewBox="0 0 1920 1080" style="enable-background:new 0 0 1920 1080;" xml:space="preserve">
<style type="text/css">
	.st0{fill:#FFFFFF;stroke:#000000;stroke-miterlimit:10;}
</style>
<path class="st0" d="M695.1,46.5c-32.8,16.4-109,58.5-92.5,99.3c7.5,18.6,31.2,29.4,106.2,60.4c16.6,6.9,159.8,46.3,117.5,104.7
	c-32,44.3-100.6,61.2-149.6,77.5c-49.2,16.4-100.2,16.1-150.2,27.8c-25.6,6-51,14.4-73.9,27.4c-19.5,11-48.9,29.9-47.5,55.7
	c0.6,10.7,7,20.4,14.9,27.7c16,14.8,37.6,21.8,58.7,27c80.1,20,162.3,21.2,244.2,15.5c53.8-3.7,109.8-3.4,163.4,7.6
	c31.1,6.4,173.5,44.8,94.9,87.4c-84.3,45.7-177.7,74.4-273.2,83.6c-34.3,3.3-69.9,1.6-102,16.5c-18.8,8.7-35.5,23.2-43.7,42.2
	c-8.2,19-6.8,42.7,6.4,58.8c19.7,24.1,57.7,26.5,86.4,28.5c36.5,2.6,79.2,1,110.3,23.4c5.7,4.1,10.4,10.4,10.8,17.5
	c0.4,6.5-2.7,12.7-6.1,18.3c-16.9,28.1-42.5,51-72.6,64.2"/>
</svg>
