<svg id="圖層_1" data-name="圖層 1" xmlns="http://www.w3.org/2000/svg" viewBox="0 0 95.15 95.15"><defs><style>.cls-1{fill:#ddc666;}.cls-2{fill:none;stroke:#000;stroke-miterlimit:10;}.cls-3{fill:#604c51;}.cls-4{fill:#eae2e6;}.cls-5{fill:#27342f;}.cls-6{fill:#a76643;}.cls-7{fill:#b56d43;}.cls-8{fill:#c6c1cb;}.cls-9{fill:#a57056;}.cls-10{fill:#e8e2da;}.cls-11{fill:#9a6a52;}</style></defs><title>btn-dog</title><circle class="cls-1" cx="47.57" cy="47.57" r="47.57"/><path class="cls-2" d="M941.79,550.94c3,0,6,4.37,6,4.37a4,4,0,0,1,.18.55" transform="translate(-913.23 -492.85)"/><path class="cls-2" d="M974,533.23a12.32,12.32,0,0,1,1.31.68" transform="translate(-913.23 -492.85)"/><path class="cls-2" d="M947.93,555.86l-.36-.25" transform="translate(-913.23 -492.85)"/><path class="cls-3" d="M931.26,550.94c-.21.06-.42.11-.6.15-2.61.52-2.39-1.34-2.39-1.34a2.93,2.93,0,0,1,3-2.15C934.76,548.36,931.26,550.94,931.26,550.94Z" transform="translate(-913.23 -492.85)"/><path class="cls-2" d="M938,523.43a7.59,7.59,0,0,1,3.79,1.53l.27.18" transform="translate(-913.23 -492.85)"/><path class="cls-2" d="M930.54,530.92a5.42,5.42,0,0,0,2.59,4s3.93,4.29,4.55,6.89c0,0,1.06,4.2,4.55,4.85" transform="translate(-913.23 -492.85)"/><path class="cls-2" d="M961.55,537" transform="translate(-913.23 -492.85)"/><path class="cls-4" d="M981.68,557.75c.2,3.35-9.09,2.71-17.42,1.56-6-.85-11.57-2-12.59-2a8.64,8.64,0,0,0-1,0h0a10.81,10.81,0,0,1-2.73-1.42,2.13,2.13,0,0,1,.06.33c.27,2.09-2.2,2.2-2.2,2.2-4.16,1-8.8-5.23-8.8-5.23a.87.87,0,0,1-.28-.63c-.06-1,1.18-2.58,2-3.52.45-.49.8-.82.8-.82a4.58,4.58,0,0,1,2.69-1.58,5.5,5.5,0,0,0,2,0,9.78,9.78,0,0,1,3.38,1.25c2.58,2,8.44,4.49,8.44,4.49,1.57.23,1.14-1.06,1.14-1.06-1.43-5.84-.23-9.82,1.47-12.4a11.54,11.54,0,0,1,4.47-4.05,7,7,0,0,1,4.63-2.71s-3.56,1.59-3.89,3c0,0-10.6,6.84-4.32,16.13a6.46,6.46,0,0,0,5.67,6.74.93.93,0,0,0,.22,1.14s15.22,2.55,15.88-1.18Z" transform="translate(-913.23 -492.85)"/><path class="cls-5" d="M987.23,534.2c-5,1.66-10.47-1.24-10.47-1.24a3,3,0,0,1-2.77.28h0c-.18-.09-.38-.17-.59-.25l0,0a11.23,11.23,0,0,0-5.61-.84,7,7,0,0,0-4.63,2.71,11.54,11.54,0,0,0-4.47,4.05c-5.58-7.26.15-15.08.15-15.08-1.9.8-3.07-3.83-3.07-3.83-.26,1.77-4.34.74-4.34.74-5,1.58-6.18-6.08-6.22-6.32,11.71-2.87,25.45-2.68,35.14,4.06a71.9,71.9,0,0,1,9.66,6.58c1.24,1,2.48,2,3.69,3.14h0C996.74,533.1,987.23,534.2,987.23,534.2Z" transform="translate(-913.23 -492.85)"/><path class="cls-6" d="M958.63,538.88c-1.69,2.58-2.89,6.55-1.47,12.4,0,0,.43,1.29-1.14,1.06,0,0-5.86-2.52-8.44-4.49a9.78,9.78,0,0,0-3.38-1.25,8.34,8.34,0,0,0,1.74-.53,23.85,23.85,0,0,0,2.84-2.75c1.2-1.37,3-3.36,2.49-5.21-.1-.39-.27-.76-.39-1.14-.35-1.1-.35-2.25-.64-3.36a11.11,11.11,0,0,0-1.52-3.48,5.42,5.42,0,0,0-1.37-1.38c-.57-.39-1.25-.52-1.84-.86a3.1,3.1,0,0,1-.44-.35,25.87,25.87,0,0,0-3.06-2.4c2-1.31-2.22-6.2-4.28-8.38l.06,0a25.81,25.81,0,0,1,2.48-.94c1.57-.52,3.19-1,4.85-1.39,0,.24,1.24,7.9,6.22,6.32,0,0,4.08,1,4.34-.74,0,0,1.17,4.62,3.07,3.83C958.77,523.8,953,531.62,958.63,538.88Z" transform="translate(-913.23 -492.85)"/><path class="cls-7" d="M948.79,543.33a23.85,23.85,0,0,1-2.84,2.75,8.34,8.34,0,0,1-1.74.53,5.94,5.94,0,0,0-2,0,4.58,4.58,0,0,0-2.69,1.58s-.35.32-.8.82a5.64,5.64,0,0,1-4.5-2c-1.18-3.81-5.33-3.17-5.89-3.5a6.36,6.36,0,0,1-1.31-1.92c-.72-.72-.76.78-.73,1.61a7.42,7.42,0,0,0-1.69-1.33,5.4,5.4,0,0,1-4.18-3.92,10.19,10.19,0,0,1-.44-2.93c0-.94.46-2.15,0-3a2.4,2.4,0,0,0-.14-.22,3,3,0,0,1-.44-2.34c.85-3.45,3.72-4.45,6.73-5.63,2.81-1.1,5.74-2.42,7.78-4.48a12.21,12.21,0,0,1,3.82-2.62c2.06,2.18,6.3,7.07,4.28,8.38a25.87,25.87,0,0,1,3.06,2.4,3.1,3.1,0,0,0,.44.35c.59.34,1.27.47,1.84.86a5.42,5.42,0,0,1,1.37,1.38,11.11,11.11,0,0,1,1.52,3.48c.29,1.11.29,2.27.64,3.36.13.38.29.75.39,1.14C951.75,540,950,542,948.79,543.33Z" transform="translate(-913.23 -492.85)"/><path class="cls-8" d="M938.74,549c-.86.94-2.1,2.49-2,3.52-.93,1.58-4.74-.63-6-1.45.18,0,.39-.08.6-.15,0,0,3.5-2.57,0-3.34a2.93,2.93,0,0,0-3,2.15c-1.22-1.65-1.26-4.63-1.26-4.63a2.19,2.19,0,0,0-.7-1.87c0-.84,0-2.33.73-1.61a6.36,6.36,0,0,0,1.31,1.92c.56.33,4.71-.31,5.89,3.5A5.64,5.64,0,0,0,938.74,549Z" transform="translate(-913.23 -492.85)"/><path class="cls-9" d="M999,557a35.37,35.37,0,0,1-7.62,5.93c-4.34,2.61-8.14,4.82-13.59,5.09A44.29,44.29,0,0,1,963.58,566l-1.12-.34c2.26-1.29,2-5.09,1.8-6.31,8.32,1.15,17.62,1.79,17.42-1.56l-.39.15c-.65,3.73-15.88,1.18-15.88,1.18a.93.93,0,0,1-.22-1.14,6.46,6.46,0,0,1-5.67-6.74c-6.28-9.29,4.32-16.13,4.32-16.13.33-1.36,3.89-3,3.89-3a11.23,11.23,0,0,1,5.61.84l0,0a4.77,4.77,0,0,0,.59.25h0a3,3,0,0,0,2.77-.28s5.5,2.9,10.47,1.24c0,0,9.51-1.09,6.4-6,5.11,4.67,9.58,10.38,10.1,16.84C1004.09,549.44,1002.19,553.6,999,557Z" transform="translate(-913.23 -492.85)"/><path class="cls-10" d="M962.46,565.63c-5-1.57-9.79-4-12.89-7.87,0,0-.24-.42,1.08-.48h0a1.52,1.52,0,0,0,1,0c1,.06,6.55,1.17,12.59,2C964.42,560.54,964.73,564.34,962.46,565.63Z" transform="translate(-913.23 -492.85)"/><path class="cls-2" d="M945.14,514.4h0" transform="translate(-913.23 -492.85)"/><path class="cls-11" d="M931.82,530.64s.17,2.82,3.84,6.25c0,0,3.32,8.95,6.59,9.18,0,0,5.63,3.24,9-5.94,0,0,1.48-11.2-5.76-12.15a15.22,15.22,0,0,0-7.15-4.46S927.28,522.15,931.82,530.64Z" transform="translate(-913.23 -492.85)"/><path d="M933.47,536.47c-.29.32-2,2.06-2,2.06a4.62,4.62,0,0,1-1.2.83,3.48,3.48,0,0,1-.89.25,1.59,1.59,0,0,1-.6,0,.59.59,0,0,1-.47-.46,1.06,1.06,0,0,1,0-.47.11.11,0,0,0,0,0,.62.62,0,0,1,.37-.76,1.92,1.92,0,0,1,.88,0l.32.05h.07l.06,0,1.18-.53a13.89,13.89,0,0,0,1.56-.8c.25-.16.47-.36.72-.51a1,1,0,0,1,.38-.19h0s0,0,0,0A2,2,0,0,1,933.47,536.47Z" transform="translate(-913.23 -492.85)"/></svg>