<svg id="圖層_1" data-name="圖層 1" xmlns="http://www.w3.org/2000/svg" viewBox="0 0 1920 1080"><title>工作區域 1</title><path d="M1039.41,549.75c15.07,4.2,8.87,36.25,8.87,36.25,17.74,33,5.07,62.62,5.07,62.62-27.87,14.83,7.6,9.89,7.6,9.89,8.87-13.18,11.4-37.9,11.4-37.9,8.87,13.18,20.27,11.53,20.27,11.53,3.8,18.13,24.07,13.18,10.14,13.18s-35.47,3.3-26.61,11.53,64.61,0,64.61,0c5.07-9.89,10.14-13.18,10.14-13.18h6.33c63.35-49.43,19-80.74,19-80.74,31.67,29.66-19,80.74-21.54,54.38q-.1-1.09-.29-2.22c-4.25-26.56-39-68.63-39-68.63-16.47-23.07-17.74-42.84-17.74-42.84-8.87-89-15.2-46.14-15.2-46.14-15.2-1.65-21.54,9.89-21.54,9.89a92.16,92.16,0,0,0-15.2-1.65s-7.6,8.24,6.33,28c0,0-10.14,29.66-11.4,23.07s-29.14,0-49.41-19.77c0,0-22.8-6.59,0,14.83,0,0,13.94,6.59,21.54,14.83C1012.81,526.68,1021.67,544.81,1039.41,549.75Z"/><path d="M1073.93,459.74s-1.52-23.82,9.27-2.31Z"/><path d="M741.79,516.87H703.57c-2.36,0-4.25,2.32-4.25,5.22v99c0,2.9,1.89,5.22,4.25,5.22h38.21c2.36,0,4.25-2.33,4.25-5.22v-99C746,519.19,744.14,516.87,741.79,516.87Zm-6.87,86.84c0,3.39-2.25,6.15-5,6.15H717.68c-2.76,0-5-2.76-5-6.15v-4.1c0-3.39,2.25-6.15,5-6.15h12.23c2.76,0,5,2.76,5,6.15Zm0-30.09c0,3.39-2.25,6.15-5,6.15H717.68c-2.76,0-5-2.76-5-6.15v-4.1c0-3.39,2.25-6.15,5-6.15h12.23c2.76,0,5,2.76,5,6.15Zm0-32.82c0,3.39-2.25,6.15-5,6.15H717.68c-2.76,0-5-2.76-5-6.15v-4.1c0-3.39,2.25-6.15,5-6.15h12.23c2.76,0,5,2.76,5,6.15Z"/><path d="M753.74,570.55h0c2.81,1.48,6.1-.14,7.3-3.6l19.11-55c1.2-3.46-.12-7.5-2.93-9h0c-2.81-1.48-6.1.14-7.3,3.6l-19.11,55C749.61,565,750.93,569.07,753.74,570.55Z"/><path d="M829.6,566.78h0c-2.65,1.88-6.07.75-7.6-2.5L798.49,514.2c-1.53-3.26-.61-7.46,2-9.34h0c2.65-1.88,6.07-.75,7.6,2.5l23.51,50.08C833.17,560.7,832.25,564.9,829.6,566.78Z"/><path d="M820,607.9c-1.8,12.55-7,25-10.74,36.82-1.29,4.08-3.56,7.19-7.36,5.17a23.24,23.24,0,0,1-8-7.77c-2-2.9-6.45-9.14-6-13.18a6,6,0,0,1,2.07-3.67,4.38,4.38,0,0,1,2.34-1.42c3.45-.49,8,6.05,11.13,7.83.07,0,.14,0,.16-.11,1.78-8.9,4.25-16.81,5.84-25.81.73-4,.69-9.33,1-13.43a49.24,49.24,0,0,0-.18-7.1c-.25-3.1-2.37-5.45-4.9-5.45H792.09a.12.12,0,0,0-.11.09l-3.68,10.85-4.45,13.67h0l-2.22,8.19v0l-4.44,10.92v0l-6.65,10.9,0,0c-13.16,8.08-9-5.18-8.87-5.48v0l6.66-10.92h0c4.25-7.85,12.4-35.65,13.11-38.11a.13.13,0,0,0-.12-.17H766.47c-2.7,0-5.12-2.74-4.84-6a5.88,5.88,0,0,1,1.29-3.28,4,4,0,0,1,3.14-1.61h50.22c3,0,5.39,3,5.39,6.62C821.68,586.36,821.59,597,820,607.9Z"/><ellipse cx="916.19" cy="501.83" rx="5.56" ry="6.84"/><path d="M979.65,512.66a18.28,18.28,0,0,1-.32,6.53c-.55,2.45-1.47,4.75-2.18,7.14-1.1,3.71-3.36,11.6-7.93,8.79L967.45,534a3.88,3.88,0,0,1-1.64-2.32l-1.47-5.41c-.52-1.9.53-3.57.55-5.45.06-5.13-5.37-4-8-4H871.64c-1.8,0-3.27,1.8-3.27,4a42.15,42.15,0,0,1-1.34,12,15.88,15.88,0,0,1-1.31,3.56c-1.36,2.39-3.41,2.34-5.56,2.34a5.82,5.82,0,0,1-3.08-.58,5.59,5.59,0,0,1-1.83-2.07c-4-7-1.37-15-.22-22.51.38-2.45,1.15-5,3.51-5h78.17c11.66,0,23.31.07,35-.32,2-.07,4.6-.4,6.36,1A5.26,5.26,0,0,1,979.65,512.66Z"/><path d="M881.71,527.81a45.46,45.46,0,0,1-6.62,9.89,23.17,23.17,0,0,1-7,5.73,8.9,8.9,0,0,0-5.32,8.64c.17,3.11,2.52,7.1,5,8,2.92,1.11,7-1.7,9.54-3.27a41.67,41.67,0,0,0,15.51-18.08c1.15-2.48,1.54-7.9.32-10.34C890.67,523.5,884.25,522.62,881.71,527.81Z"/><path d="M941.77,541.49s0,10.94,24.47,16.41c1.87.42,4.12,0,6,0a3.22,3.22,0,0,0,1.43-.22,4.26,4.26,0,0,0,1.68-2.21,14.66,14.66,0,0,0,1.25-4,6.53,6.53,0,0,0-3.8-7.14,17.84,17.84,0,0,0-4.33-.94,53.09,53.09,0,0,1-10.33-2.6,9.41,9.41,0,0,1-4.09-2.43c-2.16-2.45-1.27-7.19-2.61-10.39-1.77-4.22-6.15-3.93-8.76-1.09C939.32,530.59,940.52,536.89,941.77,541.49Z"/><path d="M941.77,598.93h1.71c1.51,0,2.74-1.5,2.74-3.36v-2.11C946.22,596.46,944.22,598.93,941.77,598.93Z"/><path d="M955.12,560.63H883.94c-2.45,0-4.45,2.46-4.45,5.47v35.56c0,3,2,5.47,4.45,5.47h71.18c2.45,0,4.45-2.46,4.45-5.47V566.1C959.56,563.09,957.56,560.63,955.12,560.63Zm-8.9,34.93c0,1.86-1.22,3.36-2.74,3.36H890.61c-2.45,0-4.45-2.46-4.45-5.47V577c0-3,2-5.47,4.45-5.47h51.16c2.45,0,4.45,2.46,4.45,5.47Z"/><path d="M946.56,582.51H913.62c-1.65,0-3,1.63-3,3.64v10.49c0,2,1.34,3.64,3,3.64h31.07c2.68,0,4.87-2.67,4.87-5.93v-8.21C949.55,584.14,948.22,582.51,946.56,582.51Zm.56,11.17c0,2-1.34,3.64-3,3.64H918.49c-1.65,0-3-1.63-3-3.64v-1.6c0-2,1.34-3.64,3-3.64h25.64c1.65,0,3,1.63,3,3.64Z"/><path d="M946.22,593.46v2.11c0,1.86-1.22,3.36-2.74,3.36h-1.71C944.22,598.93,946.22,596.46,946.22,593.46Z"/><path d="M977.36,604.34v48.83c0,2.18-1.83,3.63-3.44,2.72-7.47-4.25-24.08-14.48-18.8-18.67,0,0,1.64-2,6.23-1.38a2.71,2.71,0,0,0,2.87-2.68l1.65-15.65A2.08,2.08,0,0,0,964.1,615H870.53c-1.76,0-3.18,1.75-3.18,3.91V639.9c0,5.11,1.25,11.32,1,16.47-.18,3.8-1.82,8.21-5.56,8.21-2.65,0-4.09-2.79-4.45-5.61a9.28,9.28,0,0,1-.09-1.75c0-1.39.09-2.76.09-4.16.33-13.21,0-26.5,0-39.74v-3c0-4.81,3.27-8.7,7.3-8.7h13.83c0,3,2,5.47,4.45,5.47h71.18c2.45,0,4.45-2.46,4.45-5.47h15.62A2.47,2.47,0,0,1,977.36,604.34Z"/><path d="M937.19,620.81H899c-3.38,0-6.12,3.36-6.12,7.52v19.09c0,1.91,1.27,3.47,2.82,3.47h43.28c1.56,0,2.82-1.56,2.82-3.47v-21C941.77,623.32,939.72,620.81,937.19,620.81ZM932.87,636c0,2.19-1.42,3.94-3.2,3.94H904.94c-1.78,0-3.2-1.75-3.2-3.94V633c0-2.19,1.42-3.94,3.2-3.94h24.73c1.78,0,3.2,1.75,3.2,3.94Z"/></svg>